%TF.GenerationSoftware,KiCad,Pcbnew,(6.0.8-1)-1*%
%TF.CreationDate,2022-11-24T03:29:18+08:00*%
%TF.ProjectId,CCTV3_POE_REV100,43435456-335f-4504-9f45-5f5245563130,100*%
%TF.SameCoordinates,Original*%
%TF.FileFunction,Copper,L3,Inr*%
%TF.FilePolarity,Positive*%
%FSLAX46Y46*%
G04 Gerber Fmt 4.6, Leading zero omitted, Abs format (unit mm)*
G04 Created by KiCad (PCBNEW (6.0.8-1)-1) date 2022-11-24 03:29:18*
%MOMM*%
%LPD*%
G01*
G04 APERTURE LIST*
G04 Aperture macros list*
%AMRoundRect*
0 Rectangle with rounded corners*
0 $1 Rounding radius*
0 $2 $3 $4 $5 $6 $7 $8 $9 X,Y pos of 4 corners*
0 Add a 4 corners polygon primitive as box body*
4,1,4,$2,$3,$4,$5,$6,$7,$8,$9,$2,$3,0*
0 Add four circle primitives for the rounded corners*
1,1,$1+$1,$2,$3*
1,1,$1+$1,$4,$5*
1,1,$1+$1,$6,$7*
1,1,$1+$1,$8,$9*
0 Add four rect primitives between the rounded corners*
20,1,$1+$1,$2,$3,$4,$5,0*
20,1,$1+$1,$4,$5,$6,$7,0*
20,1,$1+$1,$6,$7,$8,$9,0*
20,1,$1+$1,$8,$9,$2,$3,0*%
G04 Aperture macros list end*
%TA.AperFunction,ComponentPad*%
%ADD10C,4.400000*%
%TD*%
%TA.AperFunction,ComponentPad*%
%ADD11R,1.700000X1.700000*%
%TD*%
%TA.AperFunction,ComponentPad*%
%ADD12O,1.700000X1.700000*%
%TD*%
%TA.AperFunction,ComponentPad*%
%ADD13C,3.300000*%
%TD*%
%TA.AperFunction,ComponentPad*%
%ADD14C,1.520000*%
%TD*%
%TA.AperFunction,ComponentPad*%
%ADD15C,2.500000*%
%TD*%
%TA.AperFunction,ComponentPad*%
%ADD16C,1.600000*%
%TD*%
%TA.AperFunction,ComponentPad*%
%ADD17RoundRect,0.250000X-0.750000X-1.550000X0.750000X-1.550000X0.750000X1.550000X-0.750000X1.550000X0*%
%TD*%
%TA.AperFunction,ComponentPad*%
%ADD18O,2.000000X3.600000*%
%TD*%
%TA.AperFunction,ViaPad*%
%ADD19C,0.800000*%
%TD*%
%TA.AperFunction,ViaPad*%
%ADD20C,0.500000*%
%TD*%
G04 APERTURE END LIST*
D10*
X23500000Y-66500000D03*
X76700000Y-32200000D03*
X23500000Y-23500000D03*
D11*
X48400000Y-62900000D03*
D12*
X50940000Y-62900000D03*
X53480000Y-62900000D03*
X56020000Y-62900000D03*
D13*
X60490000Y-41880000D03*
X60490000Y-53310000D03*
D14*
X54140000Y-52040000D03*
X51600000Y-50770000D03*
X54140000Y-49500000D03*
X51600000Y-48230000D03*
X54140000Y-46970000D03*
X51600000Y-45690000D03*
X54140000Y-44420000D03*
X51600000Y-43150000D03*
X64600000Y-54010000D03*
X64600000Y-51470000D03*
X64600000Y-43730000D03*
X64600000Y-41190000D03*
D15*
X56640000Y-55510000D03*
X56640000Y-39690000D03*
D16*
X31210250Y-51662500D03*
X31210250Y-54662500D03*
X29110250Y-55887500D03*
X27010250Y-55237500D03*
X27010250Y-53162500D03*
X27010250Y-51087500D03*
X29110250Y-50437500D03*
X29110250Y-53162500D03*
X23290250Y-53162500D03*
D11*
X86685000Y-47600000D03*
D12*
X84145000Y-47600000D03*
D11*
X37350000Y-29545000D03*
D12*
X39980000Y-29535000D03*
X42520000Y-29535000D03*
X45060000Y-29535000D03*
X80620000Y-29535000D03*
X83160000Y-29535000D03*
X85700000Y-29535000D03*
X88240000Y-29535000D03*
D10*
X86500000Y-66500000D03*
D17*
X45500000Y-67722500D03*
D18*
X50500000Y-67722500D03*
X55500000Y-67722500D03*
D19*
X82500000Y-62500000D03*
X41750000Y-64250000D03*
X88000000Y-60000000D03*
X86000000Y-60000000D03*
X87000000Y-57000000D03*
X85000000Y-59000000D03*
X83000000Y-57000000D03*
X40500000Y-64250000D03*
X83000000Y-59000000D03*
X86000000Y-58000000D03*
X39250000Y-64250000D03*
X85000000Y-57000000D03*
X87000000Y-59000000D03*
X88000000Y-58000000D03*
X84000000Y-60000000D03*
X84000000Y-58000000D03*
X71900000Y-66500000D03*
X68200000Y-49800000D03*
D20*
X35000000Y-58200000D03*
D19*
X41300000Y-40200000D03*
X29600000Y-43300000D03*
X29600000Y-41800000D03*
D20*
X34977805Y-51825935D03*
X35400000Y-46400000D03*
D19*
X70000000Y-45000000D03*
X60000000Y-30000000D03*
X52500000Y-32500000D03*
X67500000Y-27500000D03*
X70000000Y-35000000D03*
X67500000Y-45000000D03*
X27500000Y-65000000D03*
X35000000Y-67500000D03*
X75000000Y-40000000D03*
X55000000Y-30000000D03*
X30000000Y-65000000D03*
D20*
X49200000Y-53700000D03*
D19*
X32500000Y-65000000D03*
X57500000Y-32500000D03*
X30000000Y-25000000D03*
X80000000Y-60000000D03*
X72500000Y-42500000D03*
X67500000Y-42500000D03*
X25000000Y-28000000D03*
X75000000Y-45000000D03*
X67500000Y-32500000D03*
X65000000Y-37500000D03*
X27500000Y-25000000D03*
X30000000Y-67500000D03*
X24000000Y-27000000D03*
X80000000Y-45000000D03*
X67500000Y-47500000D03*
X65000000Y-30000000D03*
X55000000Y-35000000D03*
X50000000Y-30000000D03*
X37500000Y-65000000D03*
X72500000Y-32500000D03*
D20*
X49200000Y-60100000D03*
D19*
X30000000Y-27500000D03*
X60000000Y-35000000D03*
X47500000Y-27500000D03*
X32500000Y-30000000D03*
X80000000Y-42500000D03*
X72500000Y-40000000D03*
X75000000Y-27500000D03*
X35000000Y-65000000D03*
X70000000Y-47500000D03*
X80000000Y-40000000D03*
X72500000Y-37500000D03*
D20*
X48400000Y-49000000D03*
D19*
X75000000Y-42500000D03*
D20*
X49200000Y-56300000D03*
D19*
X70000000Y-40000000D03*
X67500000Y-40000000D03*
X30000000Y-22500000D03*
X62500000Y-32500000D03*
X62500000Y-37500000D03*
X72500000Y-45000000D03*
X23000000Y-28000000D03*
X22000000Y-29000000D03*
X24000000Y-29000000D03*
X67500000Y-37500000D03*
X57500000Y-27500000D03*
X42500000Y-27500000D03*
X80000000Y-65000000D03*
X65000000Y-35000000D03*
X52500000Y-27500000D03*
X32500000Y-67500000D03*
X30000000Y-30000000D03*
X72500000Y-27500000D03*
X80000000Y-62500000D03*
X22000000Y-27000000D03*
X72500000Y-47500000D03*
X27500000Y-22500000D03*
X82500000Y-65000000D03*
X37500000Y-67500000D03*
X27500000Y-67500000D03*
X26000000Y-29000000D03*
X77500000Y-27500000D03*
X75000000Y-37500000D03*
X32500000Y-27500000D03*
X70000000Y-30000000D03*
X70000000Y-42500000D03*
X70000000Y-37500000D03*
X27000000Y-28000000D03*
X62500000Y-27500000D03*
X26000000Y-27000000D03*
X78600000Y-56700000D03*
X68170000Y-55800000D03*
%TA.AperFunction,Conductor*%
G36*
X89433621Y-20528502D02*
G01*
X89480114Y-20582158D01*
X89491500Y-20634500D01*
X89491500Y-28566047D01*
X89471498Y-28634168D01*
X89417842Y-28680661D01*
X89347568Y-28690765D01*
X89282988Y-28661271D01*
X89272306Y-28650846D01*
X89173151Y-28541876D01*
X89173145Y-28541870D01*
X89169670Y-28538051D01*
X89165619Y-28534852D01*
X89165615Y-28534848D01*
X88998414Y-28402800D01*
X88998410Y-28402798D01*
X88994359Y-28399598D01*
X88989831Y-28397098D01*
X88938557Y-28368794D01*
X88798789Y-28291638D01*
X88793920Y-28289914D01*
X88793916Y-28289912D01*
X88593087Y-28218795D01*
X88593083Y-28218794D01*
X88588212Y-28217069D01*
X88583119Y-28216162D01*
X88583116Y-28216161D01*
X88373373Y-28178800D01*
X88373367Y-28178799D01*
X88368284Y-28177894D01*
X88294452Y-28176992D01*
X88150081Y-28175228D01*
X88150079Y-28175228D01*
X88144911Y-28175165D01*
X87924091Y-28208955D01*
X87711756Y-28278357D01*
X87684734Y-28292424D01*
X87532723Y-28371556D01*
X87513607Y-28381507D01*
X87509474Y-28384610D01*
X87509471Y-28384612D01*
X87397378Y-28468774D01*
X87334965Y-28515635D01*
X87180629Y-28677138D01*
X87073201Y-28834621D01*
X87018293Y-28879621D01*
X86947768Y-28887792D01*
X86884021Y-28856538D01*
X86863324Y-28832054D01*
X86782822Y-28707617D01*
X86782820Y-28707614D01*
X86780014Y-28703277D01*
X86629670Y-28538051D01*
X86625619Y-28534852D01*
X86625615Y-28534848D01*
X86458414Y-28402800D01*
X86458410Y-28402798D01*
X86454359Y-28399598D01*
X86449831Y-28397098D01*
X86398557Y-28368794D01*
X86258789Y-28291638D01*
X86253920Y-28289914D01*
X86253916Y-28289912D01*
X86053087Y-28218795D01*
X86053083Y-28218794D01*
X86048212Y-28217069D01*
X86043119Y-28216162D01*
X86043116Y-28216161D01*
X85833373Y-28178800D01*
X85833367Y-28178799D01*
X85828284Y-28177894D01*
X85754452Y-28176992D01*
X85610081Y-28175228D01*
X85610079Y-28175228D01*
X85604911Y-28175165D01*
X85384091Y-28208955D01*
X85171756Y-28278357D01*
X85144734Y-28292424D01*
X84992723Y-28371556D01*
X84973607Y-28381507D01*
X84969474Y-28384610D01*
X84969471Y-28384612D01*
X84857378Y-28468774D01*
X84794965Y-28515635D01*
X84640629Y-28677138D01*
X84533201Y-28834621D01*
X84478293Y-28879621D01*
X84407768Y-28887792D01*
X84344021Y-28856538D01*
X84323324Y-28832054D01*
X84242822Y-28707617D01*
X84242820Y-28707614D01*
X84240014Y-28703277D01*
X84089670Y-28538051D01*
X84085619Y-28534852D01*
X84085615Y-28534848D01*
X83918414Y-28402800D01*
X83918410Y-28402798D01*
X83914359Y-28399598D01*
X83909831Y-28397098D01*
X83858557Y-28368794D01*
X83718789Y-28291638D01*
X83713920Y-28289914D01*
X83713916Y-28289912D01*
X83513087Y-28218795D01*
X83513083Y-28218794D01*
X83508212Y-28217069D01*
X83503119Y-28216162D01*
X83503116Y-28216161D01*
X83293373Y-28178800D01*
X83293367Y-28178799D01*
X83288284Y-28177894D01*
X83214452Y-28176992D01*
X83070081Y-28175228D01*
X83070079Y-28175228D01*
X83064911Y-28175165D01*
X82844091Y-28208955D01*
X82631756Y-28278357D01*
X82604734Y-28292424D01*
X82452723Y-28371556D01*
X82433607Y-28381507D01*
X82429474Y-28384610D01*
X82429471Y-28384612D01*
X82317378Y-28468774D01*
X82254965Y-28515635D01*
X82100629Y-28677138D01*
X81993201Y-28834621D01*
X81938293Y-28879621D01*
X81867768Y-28887792D01*
X81804021Y-28856538D01*
X81783324Y-28832054D01*
X81702822Y-28707617D01*
X81702820Y-28707614D01*
X81700014Y-28703277D01*
X81549670Y-28538051D01*
X81545619Y-28534852D01*
X81545615Y-28534848D01*
X81378414Y-28402800D01*
X81378410Y-28402798D01*
X81374359Y-28399598D01*
X81369831Y-28397098D01*
X81318557Y-28368794D01*
X81178789Y-28291638D01*
X81173920Y-28289914D01*
X81173916Y-28289912D01*
X80973087Y-28218795D01*
X80973083Y-28218794D01*
X80968212Y-28217069D01*
X80963119Y-28216162D01*
X80963116Y-28216161D01*
X80753373Y-28178800D01*
X80753367Y-28178799D01*
X80748284Y-28177894D01*
X80674452Y-28176992D01*
X80530081Y-28175228D01*
X80530079Y-28175228D01*
X80524911Y-28175165D01*
X80304091Y-28208955D01*
X80091756Y-28278357D01*
X80064734Y-28292424D01*
X79912723Y-28371556D01*
X79893607Y-28381507D01*
X79889474Y-28384610D01*
X79889471Y-28384612D01*
X79777378Y-28468774D01*
X79714965Y-28515635D01*
X79560629Y-28677138D01*
X79434743Y-28861680D01*
X79419003Y-28895590D01*
X79367675Y-29006167D01*
X79340688Y-29064305D01*
X79280989Y-29279570D01*
X79257251Y-29501695D01*
X79257548Y-29506848D01*
X79257548Y-29506851D01*
X79266126Y-29655627D01*
X79270110Y-29724715D01*
X79271247Y-29729761D01*
X79271248Y-29729767D01*
X79289346Y-29810072D01*
X79319222Y-29942639D01*
X79403266Y-30149616D01*
X79454019Y-30232438D01*
X79517291Y-30335688D01*
X79519987Y-30340088D01*
X79666250Y-30508938D01*
X79838126Y-30651632D01*
X80031000Y-30764338D01*
X80239692Y-30844030D01*
X80244760Y-30845061D01*
X80244763Y-30845062D01*
X80298860Y-30856068D01*
X80458597Y-30888567D01*
X80463772Y-30888757D01*
X80463774Y-30888757D01*
X80676673Y-30896564D01*
X80676677Y-30896564D01*
X80681837Y-30896753D01*
X80686957Y-30896097D01*
X80686959Y-30896097D01*
X80898288Y-30869025D01*
X80898289Y-30869025D01*
X80903416Y-30868368D01*
X80944414Y-30856068D01*
X81112429Y-30805661D01*
X81112434Y-30805659D01*
X81117384Y-30804174D01*
X81317994Y-30705896D01*
X81499860Y-30576173D01*
X81658096Y-30418489D01*
X81682630Y-30384347D01*
X81788453Y-30237077D01*
X81789776Y-30238028D01*
X81836645Y-30194857D01*
X81906580Y-30182625D01*
X81972026Y-30210144D01*
X81999875Y-30241994D01*
X82059987Y-30340088D01*
X82206250Y-30508938D01*
X82378126Y-30651632D01*
X82571000Y-30764338D01*
X82779692Y-30844030D01*
X82784760Y-30845061D01*
X82784763Y-30845062D01*
X82838860Y-30856068D01*
X82998597Y-30888567D01*
X83003772Y-30888757D01*
X83003774Y-30888757D01*
X83216673Y-30896564D01*
X83216677Y-30896564D01*
X83221837Y-30896753D01*
X83226957Y-30896097D01*
X83226959Y-30896097D01*
X83438288Y-30869025D01*
X83438289Y-30869025D01*
X83443416Y-30868368D01*
X83484414Y-30856068D01*
X83652429Y-30805661D01*
X83652434Y-30805659D01*
X83657384Y-30804174D01*
X83857994Y-30705896D01*
X84039860Y-30576173D01*
X84198096Y-30418489D01*
X84222630Y-30384347D01*
X84328453Y-30237077D01*
X84329776Y-30238028D01*
X84376645Y-30194857D01*
X84446580Y-30182625D01*
X84512026Y-30210144D01*
X84539875Y-30241994D01*
X84599987Y-30340088D01*
X84746250Y-30508938D01*
X84918126Y-30651632D01*
X85111000Y-30764338D01*
X85319692Y-30844030D01*
X85324760Y-30845061D01*
X85324763Y-30845062D01*
X85378860Y-30856068D01*
X85538597Y-30888567D01*
X85543772Y-30888757D01*
X85543774Y-30888757D01*
X85756673Y-30896564D01*
X85756677Y-30896564D01*
X85761837Y-30896753D01*
X85766957Y-30896097D01*
X85766959Y-30896097D01*
X85978288Y-30869025D01*
X85978289Y-30869025D01*
X85983416Y-30868368D01*
X86024414Y-30856068D01*
X86192429Y-30805661D01*
X86192434Y-30805659D01*
X86197384Y-30804174D01*
X86397994Y-30705896D01*
X86579860Y-30576173D01*
X86738096Y-30418489D01*
X86762630Y-30384347D01*
X86868453Y-30237077D01*
X86869776Y-30238028D01*
X86916645Y-30194857D01*
X86986580Y-30182625D01*
X87052026Y-30210144D01*
X87079875Y-30241994D01*
X87139987Y-30340088D01*
X87286250Y-30508938D01*
X87458126Y-30651632D01*
X87651000Y-30764338D01*
X87859692Y-30844030D01*
X87864760Y-30845061D01*
X87864763Y-30845062D01*
X87918860Y-30856068D01*
X88078597Y-30888567D01*
X88083772Y-30888757D01*
X88083774Y-30888757D01*
X88296673Y-30896564D01*
X88296677Y-30896564D01*
X88301837Y-30896753D01*
X88306957Y-30896097D01*
X88306959Y-30896097D01*
X88518288Y-30869025D01*
X88518289Y-30869025D01*
X88523416Y-30868368D01*
X88564414Y-30856068D01*
X88732429Y-30805661D01*
X88732434Y-30805659D01*
X88737384Y-30804174D01*
X88937994Y-30705896D01*
X89119860Y-30576173D01*
X89154301Y-30541852D01*
X89276560Y-30420020D01*
X89338932Y-30386104D01*
X89409739Y-30391293D01*
X89466500Y-30433938D01*
X89491194Y-30500502D01*
X89491500Y-30509271D01*
X89491500Y-69365500D01*
X89471498Y-69433621D01*
X89417842Y-69480114D01*
X89365500Y-69491500D01*
X56902664Y-69491500D01*
X56834543Y-69471498D01*
X56788050Y-69417842D01*
X56777946Y-69347568D01*
X56791620Y-69305959D01*
X56884439Y-69132852D01*
X56886831Y-69128391D01*
X56965862Y-68898869D01*
X56990227Y-68757807D01*
X57006504Y-68663574D01*
X57006505Y-68663568D01*
X57007179Y-68659664D01*
X57008500Y-68630575D01*
X57008500Y-66861499D01*
X57008298Y-66858986D01*
X56994346Y-66685576D01*
X56994345Y-66685571D01*
X56993940Y-66680535D01*
X56964104Y-66559061D01*
X56949597Y-66500000D01*
X70986496Y-66500000D01*
X70987186Y-66506565D01*
X71004955Y-66675624D01*
X71006458Y-66689928D01*
X71065473Y-66871556D01*
X71160960Y-67036944D01*
X71288747Y-67178866D01*
X71443248Y-67291118D01*
X71449276Y-67293802D01*
X71449278Y-67293803D01*
X71500560Y-67316635D01*
X71617712Y-67368794D01*
X71711113Y-67388647D01*
X71798056Y-67407128D01*
X71798061Y-67407128D01*
X71804513Y-67408500D01*
X71995487Y-67408500D01*
X72001939Y-67407128D01*
X72001944Y-67407128D01*
X72088887Y-67388647D01*
X72182288Y-67368794D01*
X72299440Y-67316635D01*
X72350722Y-67293803D01*
X72350724Y-67293802D01*
X72356752Y-67291118D01*
X72511253Y-67178866D01*
X72639040Y-67036944D01*
X72734527Y-66871556D01*
X72793542Y-66689928D01*
X72795046Y-66675624D01*
X72812814Y-66506565D01*
X72813504Y-66500000D01*
X72810916Y-66475377D01*
X72810517Y-66471585D01*
X83786698Y-66471585D01*
X83790171Y-66541342D01*
X83802515Y-66789298D01*
X83802936Y-66797759D01*
X83803577Y-66801490D01*
X83803578Y-66801498D01*
X83831339Y-66963056D01*
X83858241Y-67119619D01*
X83859329Y-67123258D01*
X83859330Y-67123261D01*
X83932761Y-67368794D01*
X83951814Y-67432504D01*
X83953327Y-67435975D01*
X83953329Y-67435981D01*
X83981232Y-67500000D01*
X84082297Y-67731881D01*
X84084220Y-67735152D01*
X84084222Y-67735156D01*
X84126584Y-67807215D01*
X84247802Y-68013414D01*
X84250103Y-68016429D01*
X84443631Y-68270012D01*
X84443636Y-68270017D01*
X84445931Y-68273025D01*
X84507931Y-68336670D01*
X84576569Y-68407128D01*
X84673814Y-68506953D01*
X84746635Y-68565607D01*
X84925196Y-68709431D01*
X84925201Y-68709435D01*
X84928149Y-68711809D01*
X85205253Y-68884627D01*
X85501112Y-69022903D01*
X85811440Y-69124634D01*
X86131742Y-69188346D01*
X86135514Y-69188633D01*
X86135522Y-69188634D01*
X86453602Y-69212829D01*
X86453607Y-69212829D01*
X86457379Y-69213116D01*
X86783633Y-69198586D01*
X86843425Y-69188634D01*
X87102037Y-69145590D01*
X87102042Y-69145589D01*
X87105778Y-69144967D01*
X87419149Y-69053034D01*
X87422616Y-69051544D01*
X87422620Y-69051543D01*
X87715721Y-68925616D01*
X87715723Y-68925615D01*
X87719205Y-68924119D01*
X88001601Y-68760091D01*
X88262245Y-68563324D01*
X88462616Y-68370166D01*
X88494632Y-68339303D01*
X88494635Y-68339300D01*
X88497363Y-68336670D01*
X88703549Y-68083410D01*
X88837219Y-67871556D01*
X88875788Y-67810428D01*
X88875790Y-67810425D01*
X88877815Y-67807215D01*
X89017638Y-67512084D01*
X89018840Y-67508482D01*
X89119790Y-67205897D01*
X89119792Y-67205891D01*
X89120992Y-67202293D01*
X89186381Y-66882329D01*
X89187258Y-66871556D01*
X89212674Y-66559061D01*
X89212856Y-66556826D01*
X89213451Y-66500000D01*
X89211510Y-66467796D01*
X89194026Y-66177793D01*
X89194026Y-66177789D01*
X89193798Y-66174015D01*
X89188650Y-66145824D01*
X89135805Y-65856473D01*
X89135804Y-65856469D01*
X89135125Y-65852751D01*
X89132263Y-65843532D01*
X89047381Y-65570168D01*
X89038282Y-65540863D01*
X88904670Y-65242869D01*
X88736226Y-64963084D01*
X88733899Y-64960100D01*
X88733894Y-64960093D01*
X88537726Y-64708558D01*
X88537724Y-64708556D01*
X88535390Y-64705563D01*
X88305070Y-64474034D01*
X88048603Y-64271852D01*
X87769705Y-64101945D01*
X87766261Y-64100379D01*
X87766257Y-64100377D01*
X87587809Y-64019242D01*
X87472414Y-63966775D01*
X87161037Y-63868300D01*
X86918113Y-63822618D01*
X86843809Y-63808645D01*
X86843807Y-63808645D01*
X86840086Y-63807945D01*
X86514208Y-63786586D01*
X86510428Y-63786794D01*
X86510427Y-63786794D01*
X86412897Y-63792162D01*
X86188124Y-63804532D01*
X86184397Y-63805193D01*
X86184393Y-63805193D01*
X86086073Y-63822618D01*
X85866557Y-63861522D01*
X85862941Y-63862624D01*
X85862933Y-63862626D01*
X85557789Y-63955627D01*
X85554167Y-63956731D01*
X85255477Y-64088781D01*
X85172256Y-64138292D01*
X84978074Y-64253817D01*
X84978068Y-64253821D01*
X84974814Y-64255757D01*
X84971812Y-64258073D01*
X84890074Y-64321134D01*
X84716244Y-64455243D01*
X84702499Y-64468774D01*
X84533917Y-64634729D01*
X84483513Y-64684347D01*
X84481149Y-64687314D01*
X84481146Y-64687317D01*
X84282356Y-64936783D01*
X84279991Y-64939751D01*
X84108626Y-65217757D01*
X84107037Y-65221204D01*
X83975678Y-65506146D01*
X83971902Y-65514336D01*
X83970741Y-65517940D01*
X83970741Y-65517941D01*
X83957951Y-65557659D01*
X83871797Y-65825192D01*
X83871079Y-65828903D01*
X83871078Y-65828907D01*
X83810482Y-66142105D01*
X83810481Y-66142114D01*
X83809763Y-66145824D01*
X83809496Y-66149600D01*
X83809495Y-66149605D01*
X83788595Y-66444794D01*
X83786698Y-66471585D01*
X72810517Y-66471585D01*
X72794232Y-66316635D01*
X72794232Y-66316633D01*
X72793542Y-66310072D01*
X72734527Y-66128444D01*
X72639040Y-65963056D01*
X72511253Y-65821134D01*
X72356752Y-65708882D01*
X72350724Y-65706198D01*
X72350722Y-65706197D01*
X72188319Y-65633891D01*
X72188318Y-65633891D01*
X72182288Y-65631206D01*
X72088888Y-65611353D01*
X72001944Y-65592872D01*
X72001939Y-65592872D01*
X71995487Y-65591500D01*
X71804513Y-65591500D01*
X71798061Y-65592872D01*
X71798056Y-65592872D01*
X71711112Y-65611353D01*
X71617712Y-65631206D01*
X71611682Y-65633891D01*
X71611681Y-65633891D01*
X71449278Y-65706197D01*
X71449276Y-65706198D01*
X71443248Y-65708882D01*
X71288747Y-65821134D01*
X71160960Y-65963056D01*
X71065473Y-66128444D01*
X71006458Y-66310072D01*
X71005768Y-66316633D01*
X71005768Y-66316635D01*
X70989084Y-66475377D01*
X70986496Y-66500000D01*
X56949597Y-66500000D01*
X56937244Y-66449708D01*
X56936037Y-66444794D01*
X56841188Y-66221344D01*
X56778690Y-66122100D01*
X56714528Y-66020212D01*
X56714526Y-66020209D01*
X56711833Y-66015933D01*
X56660889Y-65958148D01*
X56554650Y-65837642D01*
X56554647Y-65837639D01*
X56551302Y-65833845D01*
X56547393Y-65830634D01*
X56367628Y-65682974D01*
X56367625Y-65682972D01*
X56363722Y-65679766D01*
X56214424Y-65592872D01*
X56158290Y-65560201D01*
X56158288Y-65560200D01*
X56153922Y-65557659D01*
X56149199Y-65555846D01*
X55932022Y-65472480D01*
X55932018Y-65472479D01*
X55927298Y-65470667D01*
X55922348Y-65469633D01*
X55922345Y-65469632D01*
X55694631Y-65422060D01*
X55694627Y-65422060D01*
X55689680Y-65421026D01*
X55447183Y-65410014D01*
X55442163Y-65410595D01*
X55442159Y-65410595D01*
X55211071Y-65437333D01*
X55211067Y-65437334D01*
X55206044Y-65437915D01*
X55201180Y-65439291D01*
X55201177Y-65439292D01*
X55093958Y-65469632D01*
X54972468Y-65504010D01*
X54967892Y-65506144D01*
X54967886Y-65506146D01*
X54757046Y-65604462D01*
X54757042Y-65604464D01*
X54752464Y-65606599D01*
X54551693Y-65743044D01*
X54375319Y-65909832D01*
X54372241Y-65913858D01*
X54372240Y-65913859D01*
X54230953Y-66098654D01*
X54230950Y-66098658D01*
X54227880Y-66102674D01*
X54225490Y-66107132D01*
X54225489Y-66107133D01*
X54166547Y-66217060D01*
X54113169Y-66316609D01*
X54034138Y-66546131D01*
X54033276Y-66551123D01*
X54006027Y-66708882D01*
X53992821Y-66785336D01*
X53991500Y-66814425D01*
X53991500Y-68583501D01*
X53991702Y-68586009D01*
X53991702Y-68586014D01*
X53997943Y-68663574D01*
X54006060Y-68764465D01*
X54063963Y-69000206D01*
X54158812Y-69223656D01*
X54161510Y-69227940D01*
X54205854Y-69298357D01*
X54225229Y-69366659D01*
X54204601Y-69434593D01*
X54150520Y-69480590D01*
X54099234Y-69491500D01*
X51902664Y-69491500D01*
X51834543Y-69471498D01*
X51788050Y-69417842D01*
X51777946Y-69347568D01*
X51791620Y-69305959D01*
X51884439Y-69132852D01*
X51886831Y-69128391D01*
X51965862Y-68898869D01*
X51990227Y-68757807D01*
X52006504Y-68663574D01*
X52006505Y-68663568D01*
X52007179Y-68659664D01*
X52008500Y-68630575D01*
X52008500Y-66861499D01*
X52008298Y-66858986D01*
X51994346Y-66685576D01*
X51994345Y-66685571D01*
X51993940Y-66680535D01*
X51964104Y-66559061D01*
X51937244Y-66449708D01*
X51936037Y-66444794D01*
X51841188Y-66221344D01*
X51778690Y-66122100D01*
X51714528Y-66020212D01*
X51714526Y-66020209D01*
X51711833Y-66015933D01*
X51660889Y-65958148D01*
X51554650Y-65837642D01*
X51554647Y-65837639D01*
X51551302Y-65833845D01*
X51547393Y-65830634D01*
X51367628Y-65682974D01*
X51367625Y-65682972D01*
X51363722Y-65679766D01*
X51214424Y-65592872D01*
X51158290Y-65560201D01*
X51158288Y-65560200D01*
X51153922Y-65557659D01*
X51149199Y-65555846D01*
X50932022Y-65472480D01*
X50932018Y-65472479D01*
X50927298Y-65470667D01*
X50922348Y-65469633D01*
X50922345Y-65469632D01*
X50694631Y-65422060D01*
X50694627Y-65422060D01*
X50689680Y-65421026D01*
X50447183Y-65410014D01*
X50442163Y-65410595D01*
X50442159Y-65410595D01*
X50211071Y-65437333D01*
X50211067Y-65437334D01*
X50206044Y-65437915D01*
X50201180Y-65439291D01*
X50201177Y-65439292D01*
X50093958Y-65469632D01*
X49972468Y-65504010D01*
X49967892Y-65506144D01*
X49967886Y-65506146D01*
X49757046Y-65604462D01*
X49757042Y-65604464D01*
X49752464Y-65606599D01*
X49551693Y-65743044D01*
X49375319Y-65909832D01*
X49372241Y-65913858D01*
X49372240Y-65913859D01*
X49230953Y-66098654D01*
X49230950Y-66098658D01*
X49227880Y-66102674D01*
X49225490Y-66107132D01*
X49225489Y-66107133D01*
X49166547Y-66217060D01*
X49113169Y-66316609D01*
X49034138Y-66546131D01*
X49033276Y-66551123D01*
X49006027Y-66708882D01*
X48992821Y-66785336D01*
X48991500Y-66814425D01*
X48991500Y-68583501D01*
X48991702Y-68586009D01*
X48991702Y-68586014D01*
X48997943Y-68663574D01*
X49006060Y-68764465D01*
X49063963Y-69000206D01*
X49158812Y-69223656D01*
X49161510Y-69227940D01*
X49205854Y-69298357D01*
X49225229Y-69366659D01*
X49204601Y-69434593D01*
X49150520Y-69480590D01*
X49099234Y-69491500D01*
X47130795Y-69491500D01*
X47062674Y-69471498D01*
X47016181Y-69417842D01*
X47005451Y-69352657D01*
X47008500Y-69322900D01*
X47008500Y-66122100D01*
X47006947Y-66107133D01*
X46998238Y-66023192D01*
X46998237Y-66023188D01*
X46997526Y-66016334D01*
X46941550Y-65848554D01*
X46848478Y-65698152D01*
X46827514Y-65677224D01*
X46728483Y-65578366D01*
X46723303Y-65573195D01*
X46676714Y-65544477D01*
X46578968Y-65484225D01*
X46578966Y-65484224D01*
X46572738Y-65480385D01*
X46448846Y-65439292D01*
X46411389Y-65426868D01*
X46411387Y-65426868D01*
X46404861Y-65424703D01*
X46398025Y-65424003D01*
X46398022Y-65424002D01*
X46354969Y-65419591D01*
X46300400Y-65414000D01*
X44699600Y-65414000D01*
X44696354Y-65414337D01*
X44696350Y-65414337D01*
X44600692Y-65424262D01*
X44600688Y-65424263D01*
X44593834Y-65424974D01*
X44587298Y-65427155D01*
X44587296Y-65427155D01*
X44459978Y-65469632D01*
X44426054Y-65480950D01*
X44275652Y-65574022D01*
X44150695Y-65699197D01*
X44146855Y-65705427D01*
X44146854Y-65705428D01*
X44069676Y-65830634D01*
X44057885Y-65849762D01*
X44002203Y-66017639D01*
X43991500Y-66122100D01*
X43991500Y-69322900D01*
X43994060Y-69347568D01*
X43994571Y-69352496D01*
X43981707Y-69422317D01*
X43933136Y-69474099D01*
X43869244Y-69491500D01*
X20634500Y-69491500D01*
X20566379Y-69471498D01*
X20519886Y-69417842D01*
X20508500Y-69365500D01*
X20508500Y-66471585D01*
X20786698Y-66471585D01*
X20790171Y-66541342D01*
X20802515Y-66789298D01*
X20802936Y-66797759D01*
X20803577Y-66801490D01*
X20803578Y-66801498D01*
X20831339Y-66963056D01*
X20858241Y-67119619D01*
X20859329Y-67123258D01*
X20859330Y-67123261D01*
X20932761Y-67368794D01*
X20951814Y-67432504D01*
X20953327Y-67435975D01*
X20953329Y-67435981D01*
X20981232Y-67500000D01*
X21082297Y-67731881D01*
X21084220Y-67735152D01*
X21084222Y-67735156D01*
X21126584Y-67807215D01*
X21247802Y-68013414D01*
X21250103Y-68016429D01*
X21443631Y-68270012D01*
X21443636Y-68270017D01*
X21445931Y-68273025D01*
X21507931Y-68336670D01*
X21576569Y-68407128D01*
X21673814Y-68506953D01*
X21746635Y-68565607D01*
X21925196Y-68709431D01*
X21925201Y-68709435D01*
X21928149Y-68711809D01*
X22205253Y-68884627D01*
X22501112Y-69022903D01*
X22811440Y-69124634D01*
X23131742Y-69188346D01*
X23135514Y-69188633D01*
X23135522Y-69188634D01*
X23453602Y-69212829D01*
X23453607Y-69212829D01*
X23457379Y-69213116D01*
X23783633Y-69198586D01*
X23843425Y-69188634D01*
X24102037Y-69145590D01*
X24102042Y-69145589D01*
X24105778Y-69144967D01*
X24419149Y-69053034D01*
X24422616Y-69051544D01*
X24422620Y-69051543D01*
X24715721Y-68925616D01*
X24715723Y-68925615D01*
X24719205Y-68924119D01*
X25001601Y-68760091D01*
X25262245Y-68563324D01*
X25462616Y-68370166D01*
X25494632Y-68339303D01*
X25494635Y-68339300D01*
X25497363Y-68336670D01*
X25703549Y-68083410D01*
X25837219Y-67871556D01*
X25875788Y-67810428D01*
X25875790Y-67810425D01*
X25877815Y-67807215D01*
X26017638Y-67512084D01*
X26018840Y-67508482D01*
X26021670Y-67500000D01*
X26586496Y-67500000D01*
X26606458Y-67689928D01*
X26665473Y-67871556D01*
X26760960Y-68036944D01*
X26888747Y-68178866D01*
X27043248Y-68291118D01*
X27049276Y-68293802D01*
X27049278Y-68293803D01*
X27211681Y-68366109D01*
X27217712Y-68368794D01*
X27311113Y-68388647D01*
X27398056Y-68407128D01*
X27398061Y-68407128D01*
X27404513Y-68408500D01*
X27595487Y-68408500D01*
X27601939Y-68407128D01*
X27601944Y-68407128D01*
X27688887Y-68388647D01*
X27782288Y-68368794D01*
X27788319Y-68366109D01*
X27950722Y-68293803D01*
X27950724Y-68293802D01*
X27956752Y-68291118D01*
X28111253Y-68178866D01*
X28239040Y-68036944D01*
X28334527Y-67871556D01*
X28393542Y-67689928D01*
X28413504Y-67500000D01*
X29086496Y-67500000D01*
X29106458Y-67689928D01*
X29165473Y-67871556D01*
X29260960Y-68036944D01*
X29388747Y-68178866D01*
X29543248Y-68291118D01*
X29549276Y-68293802D01*
X29549278Y-68293803D01*
X29711681Y-68366109D01*
X29717712Y-68368794D01*
X29811113Y-68388647D01*
X29898056Y-68407128D01*
X29898061Y-68407128D01*
X29904513Y-68408500D01*
X30095487Y-68408500D01*
X30101939Y-68407128D01*
X30101944Y-68407128D01*
X30188887Y-68388647D01*
X30282288Y-68368794D01*
X30288319Y-68366109D01*
X30450722Y-68293803D01*
X30450724Y-68293802D01*
X30456752Y-68291118D01*
X30611253Y-68178866D01*
X30739040Y-68036944D01*
X30834527Y-67871556D01*
X30893542Y-67689928D01*
X30913504Y-67500000D01*
X31586496Y-67500000D01*
X31606458Y-67689928D01*
X31665473Y-67871556D01*
X31760960Y-68036944D01*
X31888747Y-68178866D01*
X32043248Y-68291118D01*
X32049276Y-68293802D01*
X32049278Y-68293803D01*
X32211681Y-68366109D01*
X32217712Y-68368794D01*
X32311113Y-68388647D01*
X32398056Y-68407128D01*
X32398061Y-68407128D01*
X32404513Y-68408500D01*
X32595487Y-68408500D01*
X32601939Y-68407128D01*
X32601944Y-68407128D01*
X32688887Y-68388647D01*
X32782288Y-68368794D01*
X32788319Y-68366109D01*
X32950722Y-68293803D01*
X32950724Y-68293802D01*
X32956752Y-68291118D01*
X33111253Y-68178866D01*
X33239040Y-68036944D01*
X33334527Y-67871556D01*
X33393542Y-67689928D01*
X33413504Y-67500000D01*
X34086496Y-67500000D01*
X34106458Y-67689928D01*
X34165473Y-67871556D01*
X34260960Y-68036944D01*
X34388747Y-68178866D01*
X34543248Y-68291118D01*
X34549276Y-68293802D01*
X34549278Y-68293803D01*
X34711681Y-68366109D01*
X34717712Y-68368794D01*
X34811113Y-68388647D01*
X34898056Y-68407128D01*
X34898061Y-68407128D01*
X34904513Y-68408500D01*
X35095487Y-68408500D01*
X35101939Y-68407128D01*
X35101944Y-68407128D01*
X35188887Y-68388647D01*
X35282288Y-68368794D01*
X35288319Y-68366109D01*
X35450722Y-68293803D01*
X35450724Y-68293802D01*
X35456752Y-68291118D01*
X35611253Y-68178866D01*
X35739040Y-68036944D01*
X35834527Y-67871556D01*
X35893542Y-67689928D01*
X35913504Y-67500000D01*
X36586496Y-67500000D01*
X36606458Y-67689928D01*
X36665473Y-67871556D01*
X36760960Y-68036944D01*
X36888747Y-68178866D01*
X37043248Y-68291118D01*
X37049276Y-68293802D01*
X37049278Y-68293803D01*
X37211681Y-68366109D01*
X37217712Y-68368794D01*
X37311113Y-68388647D01*
X37398056Y-68407128D01*
X37398061Y-68407128D01*
X37404513Y-68408500D01*
X37595487Y-68408500D01*
X37601939Y-68407128D01*
X37601944Y-68407128D01*
X37688887Y-68388647D01*
X37782288Y-68368794D01*
X37788319Y-68366109D01*
X37950722Y-68293803D01*
X37950724Y-68293802D01*
X37956752Y-68291118D01*
X38111253Y-68178866D01*
X38239040Y-68036944D01*
X38334527Y-67871556D01*
X38393542Y-67689928D01*
X38413504Y-67500000D01*
X38393542Y-67310072D01*
X38334527Y-67128444D01*
X38239040Y-66963056D01*
X38111253Y-66821134D01*
X37956752Y-66708882D01*
X37950724Y-66706198D01*
X37950722Y-66706197D01*
X37788319Y-66633891D01*
X37788318Y-66633891D01*
X37782288Y-66631206D01*
X37688887Y-66611353D01*
X37601944Y-66592872D01*
X37601939Y-66592872D01*
X37595487Y-66591500D01*
X37404513Y-66591500D01*
X37398061Y-66592872D01*
X37398056Y-66592872D01*
X37311113Y-66611353D01*
X37217712Y-66631206D01*
X37211682Y-66633891D01*
X37211681Y-66633891D01*
X37049278Y-66706197D01*
X37049276Y-66706198D01*
X37043248Y-66708882D01*
X36888747Y-66821134D01*
X36760960Y-66963056D01*
X36665473Y-67128444D01*
X36606458Y-67310072D01*
X36586496Y-67500000D01*
X35913504Y-67500000D01*
X35893542Y-67310072D01*
X35834527Y-67128444D01*
X35739040Y-66963056D01*
X35611253Y-66821134D01*
X35456752Y-66708882D01*
X35450724Y-66706198D01*
X35450722Y-66706197D01*
X35288319Y-66633891D01*
X35288318Y-66633891D01*
X35282288Y-66631206D01*
X35188887Y-66611353D01*
X35101944Y-66592872D01*
X35101939Y-66592872D01*
X35095487Y-66591500D01*
X34904513Y-66591500D01*
X34898061Y-66592872D01*
X34898056Y-66592872D01*
X34811113Y-66611353D01*
X34717712Y-66631206D01*
X34711682Y-66633891D01*
X34711681Y-66633891D01*
X34549278Y-66706197D01*
X34549276Y-66706198D01*
X34543248Y-66708882D01*
X34388747Y-66821134D01*
X34260960Y-66963056D01*
X34165473Y-67128444D01*
X34106458Y-67310072D01*
X34086496Y-67500000D01*
X33413504Y-67500000D01*
X33393542Y-67310072D01*
X33334527Y-67128444D01*
X33239040Y-66963056D01*
X33111253Y-66821134D01*
X32956752Y-66708882D01*
X32950724Y-66706198D01*
X32950722Y-66706197D01*
X32788319Y-66633891D01*
X32788318Y-66633891D01*
X32782288Y-66631206D01*
X32688887Y-66611353D01*
X32601944Y-66592872D01*
X32601939Y-66592872D01*
X32595487Y-66591500D01*
X32404513Y-66591500D01*
X32398061Y-66592872D01*
X32398056Y-66592872D01*
X32311113Y-66611353D01*
X32217712Y-66631206D01*
X32211682Y-66633891D01*
X32211681Y-66633891D01*
X32049278Y-66706197D01*
X32049276Y-66706198D01*
X32043248Y-66708882D01*
X31888747Y-66821134D01*
X31760960Y-66963056D01*
X31665473Y-67128444D01*
X31606458Y-67310072D01*
X31586496Y-67500000D01*
X30913504Y-67500000D01*
X30893542Y-67310072D01*
X30834527Y-67128444D01*
X30739040Y-66963056D01*
X30611253Y-66821134D01*
X30456752Y-66708882D01*
X30450724Y-66706198D01*
X30450722Y-66706197D01*
X30288319Y-66633891D01*
X30288318Y-66633891D01*
X30282288Y-66631206D01*
X30188887Y-66611353D01*
X30101944Y-66592872D01*
X30101939Y-66592872D01*
X30095487Y-66591500D01*
X29904513Y-66591500D01*
X29898061Y-66592872D01*
X29898056Y-66592872D01*
X29811113Y-66611353D01*
X29717712Y-66631206D01*
X29711682Y-66633891D01*
X29711681Y-66633891D01*
X29549278Y-66706197D01*
X29549276Y-66706198D01*
X29543248Y-66708882D01*
X29388747Y-66821134D01*
X29260960Y-66963056D01*
X29165473Y-67128444D01*
X29106458Y-67310072D01*
X29086496Y-67500000D01*
X28413504Y-67500000D01*
X28393542Y-67310072D01*
X28334527Y-67128444D01*
X28239040Y-66963056D01*
X28111253Y-66821134D01*
X27956752Y-66708882D01*
X27950724Y-66706198D01*
X27950722Y-66706197D01*
X27788319Y-66633891D01*
X27788318Y-66633891D01*
X27782288Y-66631206D01*
X27688887Y-66611353D01*
X27601944Y-66592872D01*
X27601939Y-66592872D01*
X27595487Y-66591500D01*
X27404513Y-66591500D01*
X27398061Y-66592872D01*
X27398056Y-66592872D01*
X27311113Y-66611353D01*
X27217712Y-66631206D01*
X27211682Y-66633891D01*
X27211681Y-66633891D01*
X27049278Y-66706197D01*
X27049276Y-66706198D01*
X27043248Y-66708882D01*
X26888747Y-66821134D01*
X26760960Y-66963056D01*
X26665473Y-67128444D01*
X26606458Y-67310072D01*
X26586496Y-67500000D01*
X26021670Y-67500000D01*
X26119790Y-67205897D01*
X26119792Y-67205891D01*
X26120992Y-67202293D01*
X26186381Y-66882329D01*
X26187258Y-66871556D01*
X26212674Y-66559061D01*
X26212856Y-66556826D01*
X26213451Y-66500000D01*
X26211510Y-66467796D01*
X26194026Y-66177793D01*
X26194026Y-66177789D01*
X26193798Y-66174015D01*
X26188650Y-66145824D01*
X26135805Y-65856473D01*
X26135804Y-65856469D01*
X26135125Y-65852751D01*
X26132263Y-65843532D01*
X26047381Y-65570168D01*
X26038282Y-65540863D01*
X25904670Y-65242869D01*
X25758451Y-65000000D01*
X26586496Y-65000000D01*
X26606458Y-65189928D01*
X26665473Y-65371556D01*
X26668776Y-65377278D01*
X26668777Y-65377279D01*
X26688012Y-65410595D01*
X26760960Y-65536944D01*
X26765378Y-65541851D01*
X26765379Y-65541852D01*
X26844598Y-65629834D01*
X26888747Y-65678866D01*
X27043248Y-65791118D01*
X27049276Y-65793802D01*
X27049278Y-65793803D01*
X27211681Y-65866109D01*
X27217712Y-65868794D01*
X27311112Y-65888647D01*
X27398056Y-65907128D01*
X27398061Y-65907128D01*
X27404513Y-65908500D01*
X27595487Y-65908500D01*
X27601939Y-65907128D01*
X27601944Y-65907128D01*
X27688888Y-65888647D01*
X27782288Y-65868794D01*
X27788319Y-65866109D01*
X27950722Y-65793803D01*
X27950724Y-65793802D01*
X27956752Y-65791118D01*
X28111253Y-65678866D01*
X28155402Y-65629834D01*
X28234621Y-65541852D01*
X28234622Y-65541851D01*
X28239040Y-65536944D01*
X28311988Y-65410595D01*
X28331223Y-65377279D01*
X28331224Y-65377278D01*
X28334527Y-65371556D01*
X28393542Y-65189928D01*
X28413504Y-65000000D01*
X29086496Y-65000000D01*
X29106458Y-65189928D01*
X29165473Y-65371556D01*
X29168776Y-65377278D01*
X29168777Y-65377279D01*
X29188012Y-65410595D01*
X29260960Y-65536944D01*
X29265378Y-65541851D01*
X29265379Y-65541852D01*
X29344598Y-65629834D01*
X29388747Y-65678866D01*
X29543248Y-65791118D01*
X29549276Y-65793802D01*
X29549278Y-65793803D01*
X29711681Y-65866109D01*
X29717712Y-65868794D01*
X29811112Y-65888647D01*
X29898056Y-65907128D01*
X29898061Y-65907128D01*
X29904513Y-65908500D01*
X30095487Y-65908500D01*
X30101939Y-65907128D01*
X30101944Y-65907128D01*
X30188888Y-65888647D01*
X30282288Y-65868794D01*
X30288319Y-65866109D01*
X30450722Y-65793803D01*
X30450724Y-65793802D01*
X30456752Y-65791118D01*
X30611253Y-65678866D01*
X30655402Y-65629834D01*
X30734621Y-65541852D01*
X30734622Y-65541851D01*
X30739040Y-65536944D01*
X30811988Y-65410595D01*
X30831223Y-65377279D01*
X30831224Y-65377278D01*
X30834527Y-65371556D01*
X30893542Y-65189928D01*
X30913504Y-65000000D01*
X31586496Y-65000000D01*
X31606458Y-65189928D01*
X31665473Y-65371556D01*
X31668776Y-65377278D01*
X31668777Y-65377279D01*
X31688012Y-65410595D01*
X31760960Y-65536944D01*
X31765378Y-65541851D01*
X31765379Y-65541852D01*
X31844598Y-65629834D01*
X31888747Y-65678866D01*
X32043248Y-65791118D01*
X32049276Y-65793802D01*
X32049278Y-65793803D01*
X32211681Y-65866109D01*
X32217712Y-65868794D01*
X32311112Y-65888647D01*
X32398056Y-65907128D01*
X32398061Y-65907128D01*
X32404513Y-65908500D01*
X32595487Y-65908500D01*
X32601939Y-65907128D01*
X32601944Y-65907128D01*
X32688888Y-65888647D01*
X32782288Y-65868794D01*
X32788319Y-65866109D01*
X32950722Y-65793803D01*
X32950724Y-65793802D01*
X32956752Y-65791118D01*
X33111253Y-65678866D01*
X33155402Y-65629834D01*
X33234621Y-65541852D01*
X33234622Y-65541851D01*
X33239040Y-65536944D01*
X33311988Y-65410595D01*
X33331223Y-65377279D01*
X33331224Y-65377278D01*
X33334527Y-65371556D01*
X33393542Y-65189928D01*
X33413504Y-65000000D01*
X34086496Y-65000000D01*
X34106458Y-65189928D01*
X34165473Y-65371556D01*
X34168776Y-65377278D01*
X34168777Y-65377279D01*
X34188012Y-65410595D01*
X34260960Y-65536944D01*
X34265378Y-65541851D01*
X34265379Y-65541852D01*
X34344598Y-65629834D01*
X34388747Y-65678866D01*
X34543248Y-65791118D01*
X34549276Y-65793802D01*
X34549278Y-65793803D01*
X34711681Y-65866109D01*
X34717712Y-65868794D01*
X34811112Y-65888647D01*
X34898056Y-65907128D01*
X34898061Y-65907128D01*
X34904513Y-65908500D01*
X35095487Y-65908500D01*
X35101939Y-65907128D01*
X35101944Y-65907128D01*
X35188888Y-65888647D01*
X35282288Y-65868794D01*
X35288319Y-65866109D01*
X35450722Y-65793803D01*
X35450724Y-65793802D01*
X35456752Y-65791118D01*
X35611253Y-65678866D01*
X35655402Y-65629834D01*
X35734621Y-65541852D01*
X35734622Y-65541851D01*
X35739040Y-65536944D01*
X35811988Y-65410595D01*
X35831223Y-65377279D01*
X35831224Y-65377278D01*
X35834527Y-65371556D01*
X35893542Y-65189928D01*
X35913504Y-65000000D01*
X36586496Y-65000000D01*
X36606458Y-65189928D01*
X36665473Y-65371556D01*
X36668776Y-65377278D01*
X36668777Y-65377279D01*
X36688012Y-65410595D01*
X36760960Y-65536944D01*
X36765378Y-65541851D01*
X36765379Y-65541852D01*
X36844598Y-65629834D01*
X36888747Y-65678866D01*
X37043248Y-65791118D01*
X37049276Y-65793802D01*
X37049278Y-65793803D01*
X37211681Y-65866109D01*
X37217712Y-65868794D01*
X37311112Y-65888647D01*
X37398056Y-65907128D01*
X37398061Y-65907128D01*
X37404513Y-65908500D01*
X37595487Y-65908500D01*
X37601939Y-65907128D01*
X37601944Y-65907128D01*
X37688888Y-65888647D01*
X37782288Y-65868794D01*
X37788319Y-65866109D01*
X37950722Y-65793803D01*
X37950724Y-65793802D01*
X37956752Y-65791118D01*
X38111253Y-65678866D01*
X38155402Y-65629834D01*
X38234621Y-65541852D01*
X38234622Y-65541851D01*
X38239040Y-65536944D01*
X38311988Y-65410595D01*
X38331223Y-65377279D01*
X38331224Y-65377278D01*
X38334527Y-65371556D01*
X38393542Y-65189928D01*
X38413504Y-65000000D01*
X79086496Y-65000000D01*
X79106458Y-65189928D01*
X79165473Y-65371556D01*
X79168776Y-65377278D01*
X79168777Y-65377279D01*
X79188012Y-65410595D01*
X79260960Y-65536944D01*
X79265378Y-65541851D01*
X79265379Y-65541852D01*
X79344598Y-65629834D01*
X79388747Y-65678866D01*
X79543248Y-65791118D01*
X79549276Y-65793802D01*
X79549278Y-65793803D01*
X79711681Y-65866109D01*
X79717712Y-65868794D01*
X79811112Y-65888647D01*
X79898056Y-65907128D01*
X79898061Y-65907128D01*
X79904513Y-65908500D01*
X80095487Y-65908500D01*
X80101939Y-65907128D01*
X80101944Y-65907128D01*
X80188888Y-65888647D01*
X80282288Y-65868794D01*
X80288319Y-65866109D01*
X80450722Y-65793803D01*
X80450724Y-65793802D01*
X80456752Y-65791118D01*
X80611253Y-65678866D01*
X80655402Y-65629834D01*
X80734621Y-65541852D01*
X80734622Y-65541851D01*
X80739040Y-65536944D01*
X80811988Y-65410595D01*
X80831223Y-65377279D01*
X80831224Y-65377278D01*
X80834527Y-65371556D01*
X80893542Y-65189928D01*
X80913504Y-65000000D01*
X81586496Y-65000000D01*
X81606458Y-65189928D01*
X81665473Y-65371556D01*
X81668776Y-65377278D01*
X81668777Y-65377279D01*
X81688012Y-65410595D01*
X81760960Y-65536944D01*
X81765378Y-65541851D01*
X81765379Y-65541852D01*
X81844598Y-65629834D01*
X81888747Y-65678866D01*
X82043248Y-65791118D01*
X82049276Y-65793802D01*
X82049278Y-65793803D01*
X82211681Y-65866109D01*
X82217712Y-65868794D01*
X82311112Y-65888647D01*
X82398056Y-65907128D01*
X82398061Y-65907128D01*
X82404513Y-65908500D01*
X82595487Y-65908500D01*
X82601939Y-65907128D01*
X82601944Y-65907128D01*
X82688888Y-65888647D01*
X82782288Y-65868794D01*
X82788319Y-65866109D01*
X82950722Y-65793803D01*
X82950724Y-65793802D01*
X82956752Y-65791118D01*
X83111253Y-65678866D01*
X83155402Y-65629834D01*
X83234621Y-65541852D01*
X83234622Y-65541851D01*
X83239040Y-65536944D01*
X83311988Y-65410595D01*
X83331223Y-65377279D01*
X83331224Y-65377278D01*
X83334527Y-65371556D01*
X83393542Y-65189928D01*
X83413504Y-65000000D01*
X83393542Y-64810072D01*
X83334527Y-64628444D01*
X83239040Y-64463056D01*
X83234408Y-64457911D01*
X83115675Y-64326045D01*
X83115674Y-64326044D01*
X83111253Y-64321134D01*
X82956752Y-64208882D01*
X82950724Y-64206198D01*
X82950722Y-64206197D01*
X82788319Y-64133891D01*
X82788318Y-64133891D01*
X82782288Y-64131206D01*
X82664085Y-64106081D01*
X82601944Y-64092872D01*
X82601939Y-64092872D01*
X82595487Y-64091500D01*
X82404513Y-64091500D01*
X82398061Y-64092872D01*
X82398056Y-64092872D01*
X82335915Y-64106081D01*
X82217712Y-64131206D01*
X82211682Y-64133891D01*
X82211681Y-64133891D01*
X82049278Y-64206197D01*
X82049276Y-64206198D01*
X82043248Y-64208882D01*
X81888747Y-64321134D01*
X81884326Y-64326044D01*
X81884325Y-64326045D01*
X81765593Y-64457911D01*
X81760960Y-64463056D01*
X81665473Y-64628444D01*
X81606458Y-64810072D01*
X81586496Y-65000000D01*
X80913504Y-65000000D01*
X80893542Y-64810072D01*
X80834527Y-64628444D01*
X80739040Y-64463056D01*
X80734408Y-64457911D01*
X80615675Y-64326045D01*
X80615674Y-64326044D01*
X80611253Y-64321134D01*
X80456752Y-64208882D01*
X80450724Y-64206198D01*
X80450722Y-64206197D01*
X80288319Y-64133891D01*
X80288318Y-64133891D01*
X80282288Y-64131206D01*
X80164085Y-64106081D01*
X80101944Y-64092872D01*
X80101939Y-64092872D01*
X80095487Y-64091500D01*
X79904513Y-64091500D01*
X79898061Y-64092872D01*
X79898056Y-64092872D01*
X79835915Y-64106081D01*
X79717712Y-64131206D01*
X79711682Y-64133891D01*
X79711681Y-64133891D01*
X79549278Y-64206197D01*
X79549276Y-64206198D01*
X79543248Y-64208882D01*
X79388747Y-64321134D01*
X79384326Y-64326044D01*
X79384325Y-64326045D01*
X79265593Y-64457911D01*
X79260960Y-64463056D01*
X79165473Y-64628444D01*
X79106458Y-64810072D01*
X79086496Y-65000000D01*
X38413504Y-65000000D01*
X38393542Y-64810072D01*
X38334527Y-64628444D01*
X38239040Y-64463056D01*
X38234408Y-64457911D01*
X38115675Y-64326045D01*
X38115674Y-64326044D01*
X38111253Y-64321134D01*
X37956752Y-64208882D01*
X37950724Y-64206198D01*
X37950722Y-64206197D01*
X37788319Y-64133891D01*
X37788318Y-64133891D01*
X37782288Y-64131206D01*
X37664085Y-64106081D01*
X37601944Y-64092872D01*
X37601939Y-64092872D01*
X37595487Y-64091500D01*
X37404513Y-64091500D01*
X37398061Y-64092872D01*
X37398056Y-64092872D01*
X37335915Y-64106081D01*
X37217712Y-64131206D01*
X37211682Y-64133891D01*
X37211681Y-64133891D01*
X37049278Y-64206197D01*
X37049276Y-64206198D01*
X37043248Y-64208882D01*
X36888747Y-64321134D01*
X36884326Y-64326044D01*
X36884325Y-64326045D01*
X36765593Y-64457911D01*
X36760960Y-64463056D01*
X36665473Y-64628444D01*
X36606458Y-64810072D01*
X36586496Y-65000000D01*
X35913504Y-65000000D01*
X35893542Y-64810072D01*
X35834527Y-64628444D01*
X35739040Y-64463056D01*
X35734408Y-64457911D01*
X35615675Y-64326045D01*
X35615674Y-64326044D01*
X35611253Y-64321134D01*
X35456752Y-64208882D01*
X35450724Y-64206198D01*
X35450722Y-64206197D01*
X35288319Y-64133891D01*
X35288318Y-64133891D01*
X35282288Y-64131206D01*
X35164085Y-64106081D01*
X35101944Y-64092872D01*
X35101939Y-64092872D01*
X35095487Y-64091500D01*
X34904513Y-64091500D01*
X34898061Y-64092872D01*
X34898056Y-64092872D01*
X34835915Y-64106081D01*
X34717712Y-64131206D01*
X34711682Y-64133891D01*
X34711681Y-64133891D01*
X34549278Y-64206197D01*
X34549276Y-64206198D01*
X34543248Y-64208882D01*
X34388747Y-64321134D01*
X34384326Y-64326044D01*
X34384325Y-64326045D01*
X34265593Y-64457911D01*
X34260960Y-64463056D01*
X34165473Y-64628444D01*
X34106458Y-64810072D01*
X34086496Y-65000000D01*
X33413504Y-65000000D01*
X33393542Y-64810072D01*
X33334527Y-64628444D01*
X33239040Y-64463056D01*
X33234408Y-64457911D01*
X33115675Y-64326045D01*
X33115674Y-64326044D01*
X33111253Y-64321134D01*
X32956752Y-64208882D01*
X32950724Y-64206198D01*
X32950722Y-64206197D01*
X32788319Y-64133891D01*
X32788318Y-64133891D01*
X32782288Y-64131206D01*
X32664085Y-64106081D01*
X32601944Y-64092872D01*
X32601939Y-64092872D01*
X32595487Y-64091500D01*
X32404513Y-64091500D01*
X32398061Y-64092872D01*
X32398056Y-64092872D01*
X32335915Y-64106081D01*
X32217712Y-64131206D01*
X32211682Y-64133891D01*
X32211681Y-64133891D01*
X32049278Y-64206197D01*
X32049276Y-64206198D01*
X32043248Y-64208882D01*
X31888747Y-64321134D01*
X31884326Y-64326044D01*
X31884325Y-64326045D01*
X31765593Y-64457911D01*
X31760960Y-64463056D01*
X31665473Y-64628444D01*
X31606458Y-64810072D01*
X31586496Y-65000000D01*
X30913504Y-65000000D01*
X30893542Y-64810072D01*
X30834527Y-64628444D01*
X30739040Y-64463056D01*
X30734408Y-64457911D01*
X30615675Y-64326045D01*
X30615674Y-64326044D01*
X30611253Y-64321134D01*
X30456752Y-64208882D01*
X30450724Y-64206198D01*
X30450722Y-64206197D01*
X30288319Y-64133891D01*
X30288318Y-64133891D01*
X30282288Y-64131206D01*
X30164085Y-64106081D01*
X30101944Y-64092872D01*
X30101939Y-64092872D01*
X30095487Y-64091500D01*
X29904513Y-64091500D01*
X29898061Y-64092872D01*
X29898056Y-64092872D01*
X29835915Y-64106081D01*
X29717712Y-64131206D01*
X29711682Y-64133891D01*
X29711681Y-64133891D01*
X29549278Y-64206197D01*
X29549276Y-64206198D01*
X29543248Y-64208882D01*
X29388747Y-64321134D01*
X29384326Y-64326044D01*
X29384325Y-64326045D01*
X29265593Y-64457911D01*
X29260960Y-64463056D01*
X29165473Y-64628444D01*
X29106458Y-64810072D01*
X29086496Y-65000000D01*
X28413504Y-65000000D01*
X28393542Y-64810072D01*
X28334527Y-64628444D01*
X28239040Y-64463056D01*
X28234408Y-64457911D01*
X28115675Y-64326045D01*
X28115674Y-64326044D01*
X28111253Y-64321134D01*
X27956752Y-64208882D01*
X27950724Y-64206198D01*
X27950722Y-64206197D01*
X27788319Y-64133891D01*
X27788318Y-64133891D01*
X27782288Y-64131206D01*
X27664085Y-64106081D01*
X27601944Y-64092872D01*
X27601939Y-64092872D01*
X27595487Y-64091500D01*
X27404513Y-64091500D01*
X27398061Y-64092872D01*
X27398056Y-64092872D01*
X27335915Y-64106081D01*
X27217712Y-64131206D01*
X27211682Y-64133891D01*
X27211681Y-64133891D01*
X27049278Y-64206197D01*
X27049276Y-64206198D01*
X27043248Y-64208882D01*
X26888747Y-64321134D01*
X26884326Y-64326044D01*
X26884325Y-64326045D01*
X26765593Y-64457911D01*
X26760960Y-64463056D01*
X26665473Y-64628444D01*
X26606458Y-64810072D01*
X26586496Y-65000000D01*
X25758451Y-65000000D01*
X25736226Y-64963084D01*
X25733899Y-64960100D01*
X25733894Y-64960093D01*
X25537726Y-64708558D01*
X25537724Y-64708556D01*
X25535390Y-64705563D01*
X25305070Y-64474034D01*
X25048603Y-64271852D01*
X24769705Y-64101945D01*
X24766261Y-64100379D01*
X24766257Y-64100377D01*
X24587809Y-64019242D01*
X24472414Y-63966775D01*
X24161037Y-63868300D01*
X23918113Y-63822618D01*
X23843809Y-63808645D01*
X23843807Y-63808645D01*
X23840086Y-63807945D01*
X23690398Y-63798134D01*
X47041500Y-63798134D01*
X47048255Y-63860316D01*
X47099385Y-63996705D01*
X47186739Y-64113261D01*
X47303295Y-64200615D01*
X47439684Y-64251745D01*
X47501866Y-64258500D01*
X49298134Y-64258500D01*
X49360316Y-64251745D01*
X49496705Y-64200615D01*
X49613261Y-64113261D01*
X49700615Y-63996705D01*
X49715601Y-63956731D01*
X49744598Y-63879382D01*
X49787240Y-63822618D01*
X49853802Y-63797918D01*
X49923150Y-63813126D01*
X49957817Y-63841114D01*
X49986250Y-63873938D01*
X50158126Y-64016632D01*
X50351000Y-64129338D01*
X50355825Y-64131180D01*
X50355826Y-64131181D01*
X50362923Y-64133891D01*
X50559692Y-64209030D01*
X50564760Y-64210061D01*
X50564763Y-64210062D01*
X50672017Y-64231883D01*
X50778597Y-64253567D01*
X50783772Y-64253757D01*
X50783774Y-64253757D01*
X50996673Y-64261564D01*
X50996677Y-64261564D01*
X51001837Y-64261753D01*
X51006957Y-64261097D01*
X51006959Y-64261097D01*
X51218288Y-64234025D01*
X51218289Y-64234025D01*
X51223416Y-64233368D01*
X51228366Y-64231883D01*
X51432429Y-64170661D01*
X51432434Y-64170659D01*
X51437384Y-64169174D01*
X51637994Y-64070896D01*
X51819860Y-63941173D01*
X51826845Y-63934213D01*
X51963616Y-63797918D01*
X51978096Y-63783489D01*
X52108453Y-63602077D01*
X52109776Y-63603028D01*
X52156645Y-63559857D01*
X52226580Y-63547625D01*
X52292026Y-63575144D01*
X52319875Y-63606994D01*
X52379987Y-63705088D01*
X52526250Y-63873938D01*
X52698126Y-64016632D01*
X52891000Y-64129338D01*
X52895825Y-64131180D01*
X52895826Y-64131181D01*
X52902923Y-64133891D01*
X53099692Y-64209030D01*
X53104760Y-64210061D01*
X53104763Y-64210062D01*
X53212017Y-64231883D01*
X53318597Y-64253567D01*
X53323772Y-64253757D01*
X53323774Y-64253757D01*
X53536673Y-64261564D01*
X53536677Y-64261564D01*
X53541837Y-64261753D01*
X53546957Y-64261097D01*
X53546959Y-64261097D01*
X53758288Y-64234025D01*
X53758289Y-64234025D01*
X53763416Y-64233368D01*
X53768366Y-64231883D01*
X53972429Y-64170661D01*
X53972434Y-64170659D01*
X53977384Y-64169174D01*
X54177994Y-64070896D01*
X54359860Y-63941173D01*
X54366845Y-63934213D01*
X54503616Y-63797918D01*
X54518096Y-63783489D01*
X54648453Y-63602077D01*
X54648619Y-63601741D01*
X54699818Y-63554595D01*
X54769755Y-63542373D01*
X54835197Y-63569902D01*
X54858812Y-63595304D01*
X54978731Y-63766567D01*
X54985787Y-63774975D01*
X55145025Y-63934213D01*
X55153433Y-63941269D01*
X55337913Y-64070443D01*
X55347408Y-64075926D01*
X55503583Y-64148752D01*
X55517524Y-64150869D01*
X55520000Y-64147082D01*
X55520000Y-64138292D01*
X56520000Y-64138292D01*
X56523973Y-64151823D01*
X56528450Y-64152466D01*
X56692592Y-64075926D01*
X56702087Y-64070443D01*
X56886567Y-63941269D01*
X56894975Y-63934213D01*
X57054213Y-63774975D01*
X57061269Y-63766567D01*
X57190443Y-63582087D01*
X57195926Y-63572591D01*
X57268751Y-63416417D01*
X57270868Y-63402477D01*
X57267080Y-63400000D01*
X56538115Y-63400000D01*
X56522876Y-63404475D01*
X56521671Y-63405865D01*
X56520000Y-63413548D01*
X56520000Y-64138292D01*
X55520000Y-64138292D01*
X55520000Y-62500000D01*
X79086496Y-62500000D01*
X79106458Y-62689928D01*
X79165473Y-62871556D01*
X79260960Y-63036944D01*
X79388747Y-63178866D01*
X79543248Y-63291118D01*
X79549276Y-63293802D01*
X79549278Y-63293803D01*
X79711681Y-63366109D01*
X79717712Y-63368794D01*
X79806563Y-63387680D01*
X79898056Y-63407128D01*
X79898061Y-63407128D01*
X79904513Y-63408500D01*
X80095487Y-63408500D01*
X80101939Y-63407128D01*
X80101944Y-63407128D01*
X80193437Y-63387680D01*
X80282288Y-63368794D01*
X80288319Y-63366109D01*
X80450722Y-63293803D01*
X80450724Y-63293802D01*
X80456752Y-63291118D01*
X80611253Y-63178866D01*
X80739040Y-63036944D01*
X80834527Y-62871556D01*
X80893542Y-62689928D01*
X80913504Y-62500000D01*
X81586496Y-62500000D01*
X81606458Y-62689928D01*
X81665473Y-62871556D01*
X81760960Y-63036944D01*
X81888747Y-63178866D01*
X82043248Y-63291118D01*
X82049276Y-63293802D01*
X82049278Y-63293803D01*
X82211681Y-63366109D01*
X82217712Y-63368794D01*
X82306563Y-63387680D01*
X82398056Y-63407128D01*
X82398061Y-63407128D01*
X82404513Y-63408500D01*
X82595487Y-63408500D01*
X82601939Y-63407128D01*
X82601944Y-63407128D01*
X82693437Y-63387680D01*
X82782288Y-63368794D01*
X82788319Y-63366109D01*
X82950722Y-63293803D01*
X82950724Y-63293802D01*
X82956752Y-63291118D01*
X83111253Y-63178866D01*
X83239040Y-63036944D01*
X83334527Y-62871556D01*
X83393542Y-62689928D01*
X83413504Y-62500000D01*
X83408787Y-62455119D01*
X83394232Y-62316635D01*
X83394232Y-62316633D01*
X83393542Y-62310072D01*
X83334527Y-62128444D01*
X83299790Y-62068277D01*
X83297314Y-62063990D01*
X83239040Y-61963056D01*
X83225070Y-61947540D01*
X83115675Y-61826045D01*
X83115674Y-61826044D01*
X83111253Y-61821134D01*
X82956752Y-61708882D01*
X82950724Y-61706198D01*
X82950722Y-61706197D01*
X82788319Y-61633891D01*
X82788318Y-61633891D01*
X82782288Y-61631206D01*
X82688888Y-61611353D01*
X82601944Y-61592872D01*
X82601939Y-61592872D01*
X82595487Y-61591500D01*
X82404513Y-61591500D01*
X82398061Y-61592872D01*
X82398056Y-61592872D01*
X82311112Y-61611353D01*
X82217712Y-61631206D01*
X82211682Y-61633891D01*
X82211681Y-61633891D01*
X82049278Y-61706197D01*
X82049276Y-61706198D01*
X82043248Y-61708882D01*
X81888747Y-61821134D01*
X81884326Y-61826044D01*
X81884325Y-61826045D01*
X81774931Y-61947540D01*
X81760960Y-61963056D01*
X81702686Y-62063990D01*
X81700211Y-62068277D01*
X81665473Y-62128444D01*
X81606458Y-62310072D01*
X81605768Y-62316633D01*
X81605768Y-62316635D01*
X81591213Y-62455119D01*
X81586496Y-62500000D01*
X80913504Y-62500000D01*
X80908787Y-62455119D01*
X80894232Y-62316635D01*
X80894232Y-62316633D01*
X80893542Y-62310072D01*
X80834527Y-62128444D01*
X80799790Y-62068277D01*
X80797314Y-62063990D01*
X80739040Y-61963056D01*
X80725070Y-61947540D01*
X80615675Y-61826045D01*
X80615674Y-61826044D01*
X80611253Y-61821134D01*
X80456752Y-61708882D01*
X80450724Y-61706198D01*
X80450722Y-61706197D01*
X80288319Y-61633891D01*
X80288318Y-61633891D01*
X80282288Y-61631206D01*
X80188888Y-61611353D01*
X80101944Y-61592872D01*
X80101939Y-61592872D01*
X80095487Y-61591500D01*
X79904513Y-61591500D01*
X79898061Y-61592872D01*
X79898056Y-61592872D01*
X79811112Y-61611353D01*
X79717712Y-61631206D01*
X79711682Y-61633891D01*
X79711681Y-61633891D01*
X79549278Y-61706197D01*
X79549276Y-61706198D01*
X79543248Y-61708882D01*
X79388747Y-61821134D01*
X79384326Y-61826044D01*
X79384325Y-61826045D01*
X79274931Y-61947540D01*
X79260960Y-61963056D01*
X79202686Y-62063990D01*
X79200211Y-62068277D01*
X79165473Y-62128444D01*
X79106458Y-62310072D01*
X79105768Y-62316633D01*
X79105768Y-62316635D01*
X79091213Y-62455119D01*
X79086496Y-62500000D01*
X55520000Y-62500000D01*
X55520000Y-62381885D01*
X56520000Y-62381885D01*
X56524475Y-62397124D01*
X56525865Y-62398329D01*
X56533548Y-62400000D01*
X57258291Y-62400000D01*
X57271822Y-62396027D01*
X57272465Y-62391550D01*
X57195926Y-62227409D01*
X57190443Y-62217913D01*
X57061269Y-62033433D01*
X57054213Y-62025025D01*
X56894975Y-61865787D01*
X56886567Y-61858731D01*
X56702087Y-61729557D01*
X56692592Y-61724074D01*
X56536417Y-61651248D01*
X56522476Y-61649131D01*
X56520000Y-61652918D01*
X56520000Y-62381885D01*
X55520000Y-62381885D01*
X55520000Y-61661709D01*
X55516027Y-61648178D01*
X55511550Y-61647535D01*
X55347409Y-61724074D01*
X55337913Y-61729557D01*
X55153433Y-61858731D01*
X55145025Y-61865787D01*
X54985787Y-62025025D01*
X54978731Y-62033433D01*
X54856724Y-62207678D01*
X54801267Y-62252006D01*
X54730648Y-62259315D01*
X54667287Y-62227285D01*
X54647719Y-62203847D01*
X54562822Y-62072617D01*
X54562820Y-62072614D01*
X54560014Y-62068277D01*
X54409670Y-61903051D01*
X54405619Y-61899852D01*
X54405615Y-61899848D01*
X54238414Y-61767800D01*
X54238410Y-61767798D01*
X54234359Y-61764598D01*
X54038789Y-61656638D01*
X54033920Y-61654914D01*
X54033916Y-61654912D01*
X53833087Y-61583795D01*
X53833083Y-61583794D01*
X53828212Y-61582069D01*
X53823119Y-61581162D01*
X53823116Y-61581161D01*
X53613373Y-61543800D01*
X53613367Y-61543799D01*
X53608284Y-61542894D01*
X53534452Y-61541992D01*
X53390081Y-61540228D01*
X53390079Y-61540228D01*
X53384911Y-61540165D01*
X53164091Y-61573955D01*
X52951756Y-61643357D01*
X52921443Y-61659137D01*
X52786168Y-61729557D01*
X52753607Y-61746507D01*
X52749474Y-61749610D01*
X52749471Y-61749612D01*
X52579100Y-61877530D01*
X52574965Y-61880635D01*
X52571393Y-61884373D01*
X52436983Y-62025025D01*
X52420629Y-62042138D01*
X52313201Y-62199621D01*
X52258293Y-62244621D01*
X52187768Y-62252792D01*
X52124021Y-62221538D01*
X52103324Y-62197054D01*
X52022822Y-62072617D01*
X52022820Y-62072614D01*
X52020014Y-62068277D01*
X51869670Y-61903051D01*
X51865619Y-61899852D01*
X51865615Y-61899848D01*
X51698414Y-61767800D01*
X51698410Y-61767798D01*
X51694359Y-61764598D01*
X51498789Y-61656638D01*
X51493920Y-61654914D01*
X51493916Y-61654912D01*
X51293087Y-61583795D01*
X51293083Y-61583794D01*
X51288212Y-61582069D01*
X51283119Y-61581162D01*
X51283116Y-61581161D01*
X51073373Y-61543800D01*
X51073367Y-61543799D01*
X51068284Y-61542894D01*
X50994452Y-61541992D01*
X50850081Y-61540228D01*
X50850079Y-61540228D01*
X50844911Y-61540165D01*
X50624091Y-61573955D01*
X50411756Y-61643357D01*
X50381443Y-61659137D01*
X50246168Y-61729557D01*
X50213607Y-61746507D01*
X50209474Y-61749610D01*
X50209471Y-61749612D01*
X50039100Y-61877530D01*
X50034965Y-61880635D01*
X49978537Y-61939684D01*
X49954283Y-61965064D01*
X49892759Y-62000494D01*
X49821846Y-61997037D01*
X49764060Y-61955791D01*
X49745207Y-61922243D01*
X49703767Y-61811703D01*
X49700615Y-61803295D01*
X49613261Y-61686739D01*
X49496705Y-61599385D01*
X49360316Y-61548255D01*
X49298134Y-61541500D01*
X47501866Y-61541500D01*
X47439684Y-61548255D01*
X47303295Y-61599385D01*
X47186739Y-61686739D01*
X47099385Y-61803295D01*
X47048255Y-61939684D01*
X47041500Y-62001866D01*
X47041500Y-63798134D01*
X23690398Y-63798134D01*
X23514208Y-63786586D01*
X23510428Y-63786794D01*
X23510427Y-63786794D01*
X23412897Y-63792162D01*
X23188124Y-63804532D01*
X23184397Y-63805193D01*
X23184393Y-63805193D01*
X23086073Y-63822618D01*
X22866557Y-63861522D01*
X22862941Y-63862624D01*
X22862933Y-63862626D01*
X22557789Y-63955627D01*
X22554167Y-63956731D01*
X22255477Y-64088781D01*
X22172256Y-64138292D01*
X21978074Y-64253817D01*
X21978068Y-64253821D01*
X21974814Y-64255757D01*
X21971812Y-64258073D01*
X21890074Y-64321134D01*
X21716244Y-64455243D01*
X21702499Y-64468774D01*
X21533917Y-64634729D01*
X21483513Y-64684347D01*
X21481149Y-64687314D01*
X21481146Y-64687317D01*
X21282356Y-64936783D01*
X21279991Y-64939751D01*
X21108626Y-65217757D01*
X21107037Y-65221204D01*
X20975678Y-65506146D01*
X20971902Y-65514336D01*
X20970741Y-65517940D01*
X20970741Y-65517941D01*
X20957951Y-65557659D01*
X20871797Y-65825192D01*
X20871079Y-65828903D01*
X20871078Y-65828907D01*
X20810482Y-66142105D01*
X20810481Y-66142114D01*
X20809763Y-66145824D01*
X20809496Y-66149600D01*
X20809495Y-66149605D01*
X20788595Y-66444794D01*
X20786698Y-66471585D01*
X20508500Y-66471585D01*
X20508500Y-62226000D01*
X20528502Y-62157879D01*
X20582158Y-62111386D01*
X20634500Y-62100000D01*
X23964716Y-62100000D01*
X24032837Y-62120002D01*
X24045284Y-62129126D01*
X24057104Y-62138956D01*
X24061097Y-62141379D01*
X24164041Y-62203847D01*
X24286906Y-62278404D01*
X24291220Y-62280213D01*
X24291224Y-62280215D01*
X24378077Y-62316635D01*
X24534795Y-62382352D01*
X24795327Y-62448519D01*
X25018584Y-62471000D01*
X25178487Y-62471000D01*
X25180812Y-62470827D01*
X25180818Y-62470827D01*
X25373658Y-62456496D01*
X25373659Y-62456496D01*
X25378313Y-62456150D01*
X25382866Y-62455120D01*
X25382871Y-62455119D01*
X25635919Y-62397861D01*
X25635924Y-62397860D01*
X25640487Y-62396827D01*
X25891012Y-62299402D01*
X26124386Y-62166018D01*
X26134711Y-62157879D01*
X26173817Y-62127050D01*
X26239697Y-62100585D01*
X26251823Y-62100000D01*
X28417736Y-62100000D01*
X28465954Y-62109591D01*
X28491088Y-62120002D01*
X28607780Y-62168337D01*
X28619409Y-62173154D01*
X28704252Y-62193523D01*
X28856957Y-62230185D01*
X28856963Y-62230186D01*
X28861770Y-62231340D01*
X28949172Y-62238219D01*
X29045584Y-62245807D01*
X29045593Y-62245807D01*
X29048041Y-62246000D01*
X29172459Y-62246000D01*
X29174907Y-62245807D01*
X29174916Y-62245807D01*
X29271328Y-62238219D01*
X29358730Y-62231340D01*
X29363537Y-62230186D01*
X29363543Y-62230185D01*
X29516248Y-62193523D01*
X29601091Y-62173154D01*
X29612721Y-62168337D01*
X29729412Y-62120002D01*
X29754546Y-62109591D01*
X29802764Y-62100000D01*
X44400000Y-62100000D01*
X44800000Y-61700000D01*
X44800000Y-61126000D01*
X44820002Y-61057879D01*
X44873658Y-61011386D01*
X44926000Y-61000000D01*
X49900000Y-61000000D01*
X49907867Y-60992371D01*
X49907868Y-60992371D01*
X50931250Y-60000000D01*
X79086496Y-60000000D01*
X79106458Y-60189928D01*
X79165473Y-60371556D01*
X79260960Y-60536944D01*
X79388747Y-60678866D01*
X79543248Y-60791118D01*
X79549276Y-60793802D01*
X79549278Y-60793803D01*
X79711681Y-60866109D01*
X79717712Y-60868794D01*
X79811113Y-60888647D01*
X79898056Y-60907128D01*
X79898061Y-60907128D01*
X79904513Y-60908500D01*
X80095487Y-60908500D01*
X80101939Y-60907128D01*
X80101944Y-60907128D01*
X80188887Y-60888647D01*
X80282288Y-60868794D01*
X80288319Y-60866109D01*
X80450722Y-60793803D01*
X80450724Y-60793802D01*
X80456752Y-60791118D01*
X80611253Y-60678866D01*
X80739040Y-60536944D01*
X80834527Y-60371556D01*
X80893542Y-60189928D01*
X80913504Y-60000000D01*
X80893542Y-59810072D01*
X80834527Y-59628444D01*
X80739040Y-59463056D01*
X80611253Y-59321134D01*
X80456752Y-59208882D01*
X80450724Y-59206198D01*
X80450722Y-59206197D01*
X80288319Y-59133891D01*
X80288318Y-59133891D01*
X80282288Y-59131206D01*
X80188888Y-59111353D01*
X80101944Y-59092872D01*
X80101939Y-59092872D01*
X80095487Y-59091500D01*
X79904513Y-59091500D01*
X79898061Y-59092872D01*
X79898056Y-59092872D01*
X79811112Y-59111353D01*
X79717712Y-59131206D01*
X79711682Y-59133891D01*
X79711681Y-59133891D01*
X79549278Y-59206197D01*
X79549276Y-59206198D01*
X79543248Y-59208882D01*
X79388747Y-59321134D01*
X79260960Y-59463056D01*
X79165473Y-59628444D01*
X79106458Y-59810072D01*
X79086496Y-60000000D01*
X50931250Y-60000000D01*
X53163344Y-57835545D01*
X53226172Y-57802482D01*
X53251058Y-57800000D01*
X59100000Y-57800000D01*
X60408020Y-56549016D01*
X60407685Y-55800000D01*
X67256496Y-55800000D01*
X67276458Y-55989928D01*
X67335473Y-56171556D01*
X67430960Y-56336944D01*
X67558747Y-56478866D01*
X67713248Y-56591118D01*
X67719276Y-56593802D01*
X67719278Y-56593803D01*
X67881681Y-56666109D01*
X67887712Y-56668794D01*
X67981113Y-56688647D01*
X68068056Y-56707128D01*
X68068061Y-56707128D01*
X68074513Y-56708500D01*
X68265487Y-56708500D01*
X68271939Y-56707128D01*
X68271944Y-56707128D01*
X68305478Y-56700000D01*
X77686496Y-56700000D01*
X77706458Y-56889928D01*
X77765473Y-57071556D01*
X77860960Y-57236944D01*
X77988747Y-57378866D01*
X78143248Y-57491118D01*
X78149276Y-57493802D01*
X78149278Y-57493803D01*
X78311681Y-57566109D01*
X78317712Y-57568794D01*
X78411113Y-57588647D01*
X78498056Y-57607128D01*
X78498061Y-57607128D01*
X78504513Y-57608500D01*
X78695487Y-57608500D01*
X78701939Y-57607128D01*
X78701944Y-57607128D01*
X78788887Y-57588647D01*
X78882288Y-57568794D01*
X78888319Y-57566109D01*
X79050722Y-57493803D01*
X79050724Y-57493802D01*
X79056752Y-57491118D01*
X79211253Y-57378866D01*
X79339040Y-57236944D01*
X79434527Y-57071556D01*
X79493542Y-56889928D01*
X79513504Y-56700000D01*
X79493542Y-56510072D01*
X79434527Y-56328444D01*
X79339040Y-56163056D01*
X79211253Y-56021134D01*
X79056752Y-55908882D01*
X79050724Y-55906198D01*
X79050722Y-55906197D01*
X78888319Y-55833891D01*
X78888318Y-55833891D01*
X78882288Y-55831206D01*
X78766362Y-55806565D01*
X78701944Y-55792872D01*
X78701939Y-55792872D01*
X78695487Y-55791500D01*
X78504513Y-55791500D01*
X78498061Y-55792872D01*
X78498056Y-55792872D01*
X78433638Y-55806565D01*
X78317712Y-55831206D01*
X78311682Y-55833891D01*
X78311681Y-55833891D01*
X78149278Y-55906197D01*
X78149276Y-55906198D01*
X78143248Y-55908882D01*
X77988747Y-56021134D01*
X77860960Y-56163056D01*
X77765473Y-56328444D01*
X77706458Y-56510072D01*
X77686496Y-56700000D01*
X68305478Y-56700000D01*
X68358888Y-56688647D01*
X68452288Y-56668794D01*
X68458319Y-56666109D01*
X68620722Y-56593803D01*
X68620724Y-56593802D01*
X68626752Y-56591118D01*
X68781253Y-56478866D01*
X68909040Y-56336944D01*
X69004527Y-56171556D01*
X69063542Y-55989928D01*
X69083504Y-55800000D01*
X69063542Y-55610072D01*
X69004527Y-55428444D01*
X68909040Y-55263056D01*
X68781253Y-55121134D01*
X68626752Y-55008882D01*
X68620724Y-55006198D01*
X68620722Y-55006197D01*
X68458319Y-54933891D01*
X68458318Y-54933891D01*
X68452288Y-54931206D01*
X68358888Y-54911353D01*
X68271944Y-54892872D01*
X68271939Y-54892872D01*
X68265487Y-54891500D01*
X68074513Y-54891500D01*
X68068061Y-54892872D01*
X68068056Y-54892872D01*
X67981112Y-54911353D01*
X67887712Y-54931206D01*
X67881682Y-54933891D01*
X67881681Y-54933891D01*
X67719278Y-55006197D01*
X67719276Y-55006198D01*
X67713248Y-55008882D01*
X67558747Y-55121134D01*
X67430960Y-55263056D01*
X67335473Y-55428444D01*
X67276458Y-55610072D01*
X67256496Y-55800000D01*
X60407685Y-55800000D01*
X60407594Y-55595555D01*
X60427566Y-55527427D01*
X60481201Y-55480910D01*
X60535572Y-55469516D01*
X60557572Y-55469862D01*
X60598940Y-55470512D01*
X60598946Y-55470512D01*
X60603231Y-55470579D01*
X60895408Y-55435222D01*
X61180082Y-55360539D01*
X61451988Y-55247912D01*
X61675587Y-55117251D01*
X61702389Y-55101589D01*
X61702390Y-55101588D01*
X61706092Y-55099425D01*
X61937694Y-54917827D01*
X61963207Y-54891500D01*
X62139523Y-54709554D01*
X62142506Y-54706476D01*
X62316741Y-54469285D01*
X62332533Y-54440200D01*
X62455122Y-54214418D01*
X62455123Y-54214416D01*
X62457172Y-54210642D01*
X62532989Y-54010000D01*
X63326655Y-54010000D01*
X63346000Y-54231114D01*
X63347424Y-54236427D01*
X63347424Y-54236429D01*
X63397435Y-54423071D01*
X63403447Y-54445510D01*
X63405769Y-54450490D01*
X63405770Y-54450492D01*
X63494925Y-54641685D01*
X63494928Y-54641690D01*
X63497251Y-54646672D01*
X63500407Y-54651179D01*
X63500408Y-54651181D01*
X63536708Y-54703022D01*
X63624561Y-54828490D01*
X63781510Y-54985439D01*
X63786018Y-54988596D01*
X63786021Y-54988598D01*
X63861687Y-55041580D01*
X63963327Y-55112749D01*
X63968309Y-55115072D01*
X63968314Y-55115075D01*
X64159508Y-55204230D01*
X64164490Y-55206553D01*
X64169798Y-55207975D01*
X64169800Y-55207976D01*
X64373571Y-55262576D01*
X64373573Y-55262576D01*
X64378886Y-55264000D01*
X64600000Y-55283345D01*
X64821114Y-55264000D01*
X64826427Y-55262576D01*
X64826429Y-55262576D01*
X65030200Y-55207976D01*
X65030202Y-55207975D01*
X65035510Y-55206553D01*
X65040492Y-55204230D01*
X65231686Y-55115075D01*
X65231691Y-55115072D01*
X65236673Y-55112749D01*
X65338313Y-55041580D01*
X65413979Y-54988598D01*
X65413982Y-54988596D01*
X65418490Y-54985439D01*
X65575439Y-54828490D01*
X65663293Y-54703022D01*
X65699592Y-54651181D01*
X65699593Y-54651179D01*
X65702749Y-54646672D01*
X65705072Y-54641690D01*
X65705075Y-54641685D01*
X65794230Y-54450492D01*
X65794231Y-54450490D01*
X65796553Y-54445510D01*
X65802566Y-54423071D01*
X65852576Y-54236429D01*
X65852576Y-54236427D01*
X65854000Y-54231114D01*
X65873345Y-54010000D01*
X65854000Y-53788886D01*
X65852576Y-53783571D01*
X65797976Y-53579800D01*
X65797975Y-53579798D01*
X65796553Y-53574490D01*
X65794230Y-53569508D01*
X65705075Y-53378315D01*
X65705072Y-53378310D01*
X65702749Y-53373328D01*
X65699592Y-53368819D01*
X65578598Y-53196021D01*
X65578596Y-53196018D01*
X65575439Y-53191510D01*
X65418490Y-53034561D01*
X65413982Y-53031404D01*
X65413979Y-53031402D01*
X65275464Y-52934413D01*
X65236673Y-52907251D01*
X65231691Y-52904928D01*
X65231686Y-52904925D01*
X65122894Y-52854195D01*
X65069609Y-52807278D01*
X65050148Y-52739000D01*
X65070690Y-52671041D01*
X65122894Y-52625805D01*
X65231686Y-52575075D01*
X65231691Y-52575072D01*
X65236673Y-52572749D01*
X65410901Y-52450753D01*
X65413979Y-52448598D01*
X65413982Y-52448596D01*
X65418490Y-52445439D01*
X65575439Y-52288490D01*
X65644945Y-52189226D01*
X65699592Y-52111181D01*
X65699593Y-52111179D01*
X65702749Y-52106672D01*
X65705072Y-52101690D01*
X65705075Y-52101685D01*
X65794230Y-51910492D01*
X65794231Y-51910490D01*
X65796553Y-51905510D01*
X65841978Y-51735983D01*
X65852576Y-51696429D01*
X65852576Y-51696427D01*
X65854000Y-51691114D01*
X65873345Y-51470000D01*
X65854000Y-51248886D01*
X65839538Y-51194912D01*
X65797976Y-51039800D01*
X65797975Y-51039798D01*
X65796553Y-51034490D01*
X65792458Y-51025708D01*
X65705075Y-50838315D01*
X65705072Y-50838310D01*
X65702749Y-50833328D01*
X65588502Y-50670166D01*
X65578598Y-50656021D01*
X65578596Y-50656018D01*
X65575439Y-50651510D01*
X65418490Y-50494561D01*
X65413982Y-50491404D01*
X65413979Y-50491402D01*
X65338313Y-50438420D01*
X65236673Y-50367251D01*
X65231691Y-50364928D01*
X65231686Y-50364925D01*
X65040492Y-50275770D01*
X65040491Y-50275769D01*
X65035510Y-50273447D01*
X65030202Y-50272025D01*
X65030200Y-50272024D01*
X64826429Y-50217424D01*
X64826427Y-50217424D01*
X64821114Y-50216000D01*
X64600000Y-50196655D01*
X64378886Y-50216000D01*
X64373573Y-50217424D01*
X64373571Y-50217424D01*
X64169800Y-50272024D01*
X64169798Y-50272025D01*
X64164490Y-50273447D01*
X64159510Y-50275769D01*
X64159508Y-50275770D01*
X63968315Y-50364925D01*
X63968310Y-50364928D01*
X63963328Y-50367251D01*
X63958821Y-50370407D01*
X63958819Y-50370408D01*
X63786021Y-50491402D01*
X63786018Y-50491404D01*
X63781510Y-50494561D01*
X63624561Y-50651510D01*
X63621404Y-50656018D01*
X63621402Y-50656021D01*
X63611498Y-50670166D01*
X63497251Y-50833328D01*
X63494928Y-50838310D01*
X63494925Y-50838315D01*
X63407542Y-51025708D01*
X63403447Y-51034490D01*
X63402025Y-51039798D01*
X63402024Y-51039800D01*
X63360462Y-51194912D01*
X63346000Y-51248886D01*
X63326655Y-51470000D01*
X63346000Y-51691114D01*
X63347424Y-51696427D01*
X63347424Y-51696429D01*
X63358023Y-51735983D01*
X63403447Y-51905510D01*
X63405769Y-51910490D01*
X63405770Y-51910492D01*
X63494925Y-52101685D01*
X63494928Y-52101690D01*
X63497251Y-52106672D01*
X63500407Y-52111179D01*
X63500408Y-52111181D01*
X63555056Y-52189226D01*
X63624561Y-52288490D01*
X63781510Y-52445439D01*
X63786018Y-52448596D01*
X63786021Y-52448598D01*
X63789099Y-52450753D01*
X63963327Y-52572749D01*
X63968309Y-52575072D01*
X63968314Y-52575075D01*
X64077106Y-52625805D01*
X64130391Y-52672722D01*
X64149852Y-52741000D01*
X64129310Y-52808959D01*
X64077106Y-52854195D01*
X63968315Y-52904925D01*
X63968310Y-52904928D01*
X63963328Y-52907251D01*
X63958821Y-52910407D01*
X63958819Y-52910408D01*
X63786021Y-53031402D01*
X63786018Y-53031404D01*
X63781510Y-53034561D01*
X63624561Y-53191510D01*
X63621404Y-53196018D01*
X63621402Y-53196021D01*
X63500408Y-53368819D01*
X63497251Y-53373328D01*
X63494928Y-53378310D01*
X63494925Y-53378315D01*
X63405770Y-53569508D01*
X63403447Y-53574490D01*
X63402025Y-53579798D01*
X63402024Y-53579800D01*
X63347424Y-53783571D01*
X63346000Y-53788886D01*
X63326655Y-54010000D01*
X62532989Y-54010000D01*
X62534198Y-54006800D01*
X62559685Y-53939351D01*
X62559686Y-53939347D01*
X62561203Y-53935333D01*
X62626907Y-53648453D01*
X62630184Y-53611743D01*
X62652849Y-53357776D01*
X62652849Y-53357774D01*
X62653069Y-53355310D01*
X62653544Y-53310000D01*
X62645774Y-53196021D01*
X62633819Y-53020650D01*
X62633818Y-53020644D01*
X62633527Y-53016373D01*
X62573845Y-52728180D01*
X62475603Y-52450753D01*
X62340618Y-52189226D01*
X62320218Y-52160199D01*
X62173856Y-51951948D01*
X62173855Y-51951947D01*
X62171389Y-51948438D01*
X61971048Y-51732844D01*
X61926558Y-51696429D01*
X61746618Y-51549151D01*
X61743300Y-51546435D01*
X61492361Y-51392660D01*
X61488425Y-51390932D01*
X61226802Y-51276087D01*
X61226798Y-51276086D01*
X61222874Y-51274363D01*
X60939826Y-51193735D01*
X60935584Y-51193131D01*
X60935578Y-51193130D01*
X60652705Y-51152871D01*
X60648454Y-51152266D01*
X60644165Y-51152244D01*
X60644158Y-51152243D01*
X60530892Y-51151650D01*
X60462877Y-51131292D01*
X60416666Y-51077393D01*
X60405552Y-51025708D01*
X60405308Y-50478866D01*
X60405005Y-49800000D01*
X67286496Y-49800000D01*
X67306458Y-49989928D01*
X67365473Y-50171556D01*
X67460960Y-50336944D01*
X67465378Y-50341851D01*
X67465379Y-50341852D01*
X67491091Y-50370408D01*
X67588747Y-50478866D01*
X67743248Y-50591118D01*
X67749276Y-50593802D01*
X67749278Y-50593803D01*
X67870138Y-50647613D01*
X67917712Y-50668794D01*
X68011113Y-50688647D01*
X68098056Y-50707128D01*
X68098061Y-50707128D01*
X68104513Y-50708500D01*
X68295487Y-50708500D01*
X68301939Y-50707128D01*
X68301944Y-50707128D01*
X68388887Y-50688647D01*
X68482288Y-50668794D01*
X68529862Y-50647613D01*
X68650722Y-50593803D01*
X68650724Y-50593802D01*
X68656752Y-50591118D01*
X68811253Y-50478866D01*
X68908909Y-50370408D01*
X68934621Y-50341852D01*
X68934622Y-50341851D01*
X68939040Y-50336944D01*
X69034527Y-50171556D01*
X69093542Y-49989928D01*
X69113504Y-49800000D01*
X69093542Y-49610072D01*
X69034527Y-49428444D01*
X68939040Y-49263056D01*
X68811253Y-49121134D01*
X68656752Y-49008882D01*
X68650724Y-49006198D01*
X68650722Y-49006197D01*
X68488319Y-48933891D01*
X68488318Y-48933891D01*
X68482288Y-48931206D01*
X68369279Y-48907185D01*
X68301944Y-48892872D01*
X68301939Y-48892872D01*
X68295487Y-48891500D01*
X68104513Y-48891500D01*
X68098061Y-48892872D01*
X68098056Y-48892872D01*
X68030721Y-48907185D01*
X67917712Y-48931206D01*
X67911682Y-48933891D01*
X67911681Y-48933891D01*
X67749278Y-49006197D01*
X67749276Y-49006198D01*
X67743248Y-49008882D01*
X67588747Y-49121134D01*
X67460960Y-49263056D01*
X67365473Y-49428444D01*
X67306458Y-49610072D01*
X67286496Y-49800000D01*
X60405005Y-49800000D01*
X60403977Y-47500000D01*
X66586496Y-47500000D01*
X66606458Y-47689928D01*
X66665473Y-47871556D01*
X66760960Y-48036944D01*
X66888747Y-48178866D01*
X67043248Y-48291118D01*
X67049276Y-48293802D01*
X67049278Y-48293803D01*
X67067862Y-48302077D01*
X67217712Y-48368794D01*
X67311113Y-48388647D01*
X67398056Y-48407128D01*
X67398061Y-48407128D01*
X67404513Y-48408500D01*
X67595487Y-48408500D01*
X67601939Y-48407128D01*
X67601944Y-48407128D01*
X67688887Y-48388647D01*
X67782288Y-48368794D01*
X67932138Y-48302077D01*
X67950722Y-48293803D01*
X67950724Y-48293802D01*
X67956752Y-48291118D01*
X68111253Y-48178866D01*
X68239040Y-48036944D01*
X68334527Y-47871556D01*
X68393542Y-47689928D01*
X68413504Y-47500000D01*
X69086496Y-47500000D01*
X69106458Y-47689928D01*
X69165473Y-47871556D01*
X69260960Y-48036944D01*
X69388747Y-48178866D01*
X69543248Y-48291118D01*
X69549276Y-48293802D01*
X69549278Y-48293803D01*
X69567862Y-48302077D01*
X69717712Y-48368794D01*
X69811113Y-48388647D01*
X69898056Y-48407128D01*
X69898061Y-48407128D01*
X69904513Y-48408500D01*
X70095487Y-48408500D01*
X70101939Y-48407128D01*
X70101944Y-48407128D01*
X70188887Y-48388647D01*
X70282288Y-48368794D01*
X70432138Y-48302077D01*
X70450722Y-48293803D01*
X70450724Y-48293802D01*
X70456752Y-48291118D01*
X70611253Y-48178866D01*
X70739040Y-48036944D01*
X70834527Y-47871556D01*
X70893542Y-47689928D01*
X70913504Y-47500000D01*
X71586496Y-47500000D01*
X71606458Y-47689928D01*
X71665473Y-47871556D01*
X71760960Y-48036944D01*
X71888747Y-48178866D01*
X72043248Y-48291118D01*
X72049276Y-48293802D01*
X72049278Y-48293803D01*
X72067862Y-48302077D01*
X72217712Y-48368794D01*
X72311113Y-48388647D01*
X72398056Y-48407128D01*
X72398061Y-48407128D01*
X72404513Y-48408500D01*
X72595487Y-48408500D01*
X72601939Y-48407128D01*
X72601944Y-48407128D01*
X72688887Y-48388647D01*
X72782288Y-48368794D01*
X72932138Y-48302077D01*
X72950722Y-48293803D01*
X72950724Y-48293802D01*
X72956752Y-48291118D01*
X73111253Y-48178866D01*
X73239040Y-48036944D01*
X73334527Y-47871556D01*
X73393542Y-47689928D01*
X73406494Y-47566695D01*
X82782251Y-47566695D01*
X82795110Y-47789715D01*
X82796247Y-47794761D01*
X82796248Y-47794767D01*
X82813554Y-47871556D01*
X82844222Y-48007639D01*
X82905673Y-48158976D01*
X82913750Y-48178866D01*
X82928266Y-48214616D01*
X83044987Y-48405088D01*
X83191250Y-48573938D01*
X83363126Y-48716632D01*
X83556000Y-48829338D01*
X83764692Y-48909030D01*
X83769760Y-48910061D01*
X83769763Y-48910062D01*
X83866946Y-48929834D01*
X83983597Y-48953567D01*
X83988772Y-48953757D01*
X83988774Y-48953757D01*
X84201673Y-48961564D01*
X84201677Y-48961564D01*
X84206837Y-48961753D01*
X84211957Y-48961097D01*
X84211959Y-48961097D01*
X84423288Y-48934025D01*
X84423289Y-48934025D01*
X84428416Y-48933368D01*
X84433366Y-48931883D01*
X84637429Y-48870661D01*
X84637434Y-48870659D01*
X84642384Y-48869174D01*
X84842994Y-48770896D01*
X85024860Y-48641173D01*
X85133091Y-48533319D01*
X85195462Y-48499404D01*
X85266268Y-48504592D01*
X85323030Y-48547238D01*
X85340012Y-48578341D01*
X85384385Y-48696705D01*
X85471739Y-48813261D01*
X85588295Y-48900615D01*
X85724684Y-48951745D01*
X85786866Y-48958500D01*
X87583134Y-48958500D01*
X87645316Y-48951745D01*
X87781705Y-48900615D01*
X87898261Y-48813261D01*
X87985615Y-48696705D01*
X88036745Y-48560316D01*
X88043500Y-48498134D01*
X88043500Y-46701866D01*
X88036745Y-46639684D01*
X87985615Y-46503295D01*
X87898261Y-46386739D01*
X87781705Y-46299385D01*
X87645316Y-46248255D01*
X87583134Y-46241500D01*
X85786866Y-46241500D01*
X85724684Y-46248255D01*
X85588295Y-46299385D01*
X85471739Y-46386739D01*
X85384385Y-46503295D01*
X85381233Y-46511703D01*
X85339919Y-46621907D01*
X85297277Y-46678671D01*
X85230716Y-46703371D01*
X85161367Y-46688163D01*
X85128743Y-46662476D01*
X85078151Y-46606875D01*
X85078142Y-46606866D01*
X85074670Y-46603051D01*
X85070619Y-46599852D01*
X85070615Y-46599848D01*
X84903414Y-46467800D01*
X84903410Y-46467798D01*
X84899359Y-46464598D01*
X84703789Y-46356638D01*
X84698920Y-46354914D01*
X84698916Y-46354912D01*
X84498087Y-46283795D01*
X84498083Y-46283794D01*
X84493212Y-46282069D01*
X84488119Y-46281162D01*
X84488116Y-46281161D01*
X84278373Y-46243800D01*
X84278367Y-46243799D01*
X84273284Y-46242894D01*
X84199452Y-46241992D01*
X84055081Y-46240228D01*
X84055079Y-46240228D01*
X84049911Y-46240165D01*
X83829091Y-46273955D01*
X83616756Y-46343357D01*
X83418607Y-46446507D01*
X83414474Y-46449610D01*
X83414471Y-46449612D01*
X83291772Y-46541737D01*
X83239965Y-46580635D01*
X83200525Y-46621907D01*
X83146280Y-46678671D01*
X83085629Y-46742138D01*
X83082715Y-46746410D01*
X83082714Y-46746411D01*
X82997556Y-46871249D01*
X82959743Y-46926680D01*
X82865688Y-47129305D01*
X82805989Y-47344570D01*
X82782251Y-47566695D01*
X73406494Y-47566695D01*
X73413504Y-47500000D01*
X73393542Y-47310072D01*
X73334527Y-47128444D01*
X73239040Y-46963056D01*
X73217250Y-46938855D01*
X73115675Y-46826045D01*
X73115674Y-46826044D01*
X73111253Y-46821134D01*
X72956752Y-46708882D01*
X72950724Y-46706198D01*
X72950722Y-46706197D01*
X72788319Y-46633891D01*
X72788318Y-46633891D01*
X72782288Y-46631206D01*
X72688887Y-46611353D01*
X72601944Y-46592872D01*
X72601939Y-46592872D01*
X72595487Y-46591500D01*
X72404513Y-46591500D01*
X72398061Y-46592872D01*
X72398056Y-46592872D01*
X72311113Y-46611353D01*
X72217712Y-46631206D01*
X72211682Y-46633891D01*
X72211681Y-46633891D01*
X72049278Y-46706197D01*
X72049276Y-46706198D01*
X72043248Y-46708882D01*
X71888747Y-46821134D01*
X71884326Y-46826044D01*
X71884325Y-46826045D01*
X71782751Y-46938855D01*
X71760960Y-46963056D01*
X71665473Y-47128444D01*
X71606458Y-47310072D01*
X71586496Y-47500000D01*
X70913504Y-47500000D01*
X70893542Y-47310072D01*
X70834527Y-47128444D01*
X70739040Y-46963056D01*
X70717250Y-46938855D01*
X70615675Y-46826045D01*
X70615674Y-46826044D01*
X70611253Y-46821134D01*
X70456752Y-46708882D01*
X70450724Y-46706198D01*
X70450722Y-46706197D01*
X70288319Y-46633891D01*
X70288318Y-46633891D01*
X70282288Y-46631206D01*
X70188887Y-46611353D01*
X70101944Y-46592872D01*
X70101939Y-46592872D01*
X70095487Y-46591500D01*
X69904513Y-46591500D01*
X69898061Y-46592872D01*
X69898056Y-46592872D01*
X69811113Y-46611353D01*
X69717712Y-46631206D01*
X69711682Y-46633891D01*
X69711681Y-46633891D01*
X69549278Y-46706197D01*
X69549276Y-46706198D01*
X69543248Y-46708882D01*
X69388747Y-46821134D01*
X69384326Y-46826044D01*
X69384325Y-46826045D01*
X69282751Y-46938855D01*
X69260960Y-46963056D01*
X69165473Y-47128444D01*
X69106458Y-47310072D01*
X69086496Y-47500000D01*
X68413504Y-47500000D01*
X68393542Y-47310072D01*
X68334527Y-47128444D01*
X68239040Y-46963056D01*
X68217250Y-46938855D01*
X68115675Y-46826045D01*
X68115674Y-46826044D01*
X68111253Y-46821134D01*
X67956752Y-46708882D01*
X67950724Y-46706198D01*
X67950722Y-46706197D01*
X67788319Y-46633891D01*
X67788318Y-46633891D01*
X67782288Y-46631206D01*
X67688887Y-46611353D01*
X67601944Y-46592872D01*
X67601939Y-46592872D01*
X67595487Y-46591500D01*
X67404513Y-46591500D01*
X67398061Y-46592872D01*
X67398056Y-46592872D01*
X67311113Y-46611353D01*
X67217712Y-46631206D01*
X67211682Y-46633891D01*
X67211681Y-46633891D01*
X67049278Y-46706197D01*
X67049276Y-46706198D01*
X67043248Y-46708882D01*
X66888747Y-46821134D01*
X66884326Y-46826044D01*
X66884325Y-46826045D01*
X66782751Y-46938855D01*
X66760960Y-46963056D01*
X66665473Y-47128444D01*
X66606458Y-47310072D01*
X66586496Y-47500000D01*
X60403977Y-47500000D01*
X60402487Y-44165475D01*
X60422459Y-44097347D01*
X60476094Y-44050830D01*
X60530466Y-44039436D01*
X60598940Y-44040512D01*
X60598946Y-44040512D01*
X60603231Y-44040579D01*
X60895408Y-44005222D01*
X61037745Y-43967880D01*
X61175939Y-43931626D01*
X61175940Y-43931626D01*
X61180082Y-43930539D01*
X61451988Y-43817912D01*
X61602431Y-43730000D01*
X63326655Y-43730000D01*
X63346000Y-43951114D01*
X63347424Y-43956427D01*
X63347424Y-43956429D01*
X63393888Y-44129834D01*
X63403447Y-44165510D01*
X63405769Y-44170490D01*
X63405770Y-44170492D01*
X63494925Y-44361685D01*
X63494928Y-44361690D01*
X63497251Y-44366672D01*
X63500407Y-44371179D01*
X63500408Y-44371181D01*
X63564740Y-44463056D01*
X63624561Y-44548490D01*
X63781510Y-44705439D01*
X63786018Y-44708596D01*
X63786021Y-44708598D01*
X63828299Y-44738201D01*
X63963327Y-44832749D01*
X63968309Y-44835072D01*
X63968314Y-44835075D01*
X64159508Y-44924230D01*
X64164490Y-44926553D01*
X64169798Y-44927975D01*
X64169800Y-44927976D01*
X64373571Y-44982576D01*
X64373573Y-44982576D01*
X64378886Y-44984000D01*
X64600000Y-45003345D01*
X64638233Y-45000000D01*
X66586496Y-45000000D01*
X66606458Y-45189928D01*
X66665473Y-45371556D01*
X66760960Y-45536944D01*
X66888747Y-45678866D01*
X66987843Y-45750864D01*
X67024988Y-45777851D01*
X67043248Y-45791118D01*
X67049276Y-45793802D01*
X67049278Y-45793803D01*
X67211681Y-45866109D01*
X67217712Y-45868794D01*
X67311112Y-45888647D01*
X67398056Y-45907128D01*
X67398061Y-45907128D01*
X67404513Y-45908500D01*
X67595487Y-45908500D01*
X67601939Y-45907128D01*
X67601944Y-45907128D01*
X67688887Y-45888647D01*
X67782288Y-45868794D01*
X67788319Y-45866109D01*
X67950722Y-45793803D01*
X67950724Y-45793802D01*
X67956752Y-45791118D01*
X67975013Y-45777851D01*
X68012157Y-45750864D01*
X68111253Y-45678866D01*
X68239040Y-45536944D01*
X68334527Y-45371556D01*
X68393542Y-45189928D01*
X68413504Y-45000000D01*
X69086496Y-45000000D01*
X69106458Y-45189928D01*
X69165473Y-45371556D01*
X69260960Y-45536944D01*
X69388747Y-45678866D01*
X69487843Y-45750864D01*
X69524988Y-45777851D01*
X69543248Y-45791118D01*
X69549276Y-45793802D01*
X69549278Y-45793803D01*
X69711681Y-45866109D01*
X69717712Y-45868794D01*
X69811112Y-45888647D01*
X69898056Y-45907128D01*
X69898061Y-45907128D01*
X69904513Y-45908500D01*
X70095487Y-45908500D01*
X70101939Y-45907128D01*
X70101944Y-45907128D01*
X70188887Y-45888647D01*
X70282288Y-45868794D01*
X70288319Y-45866109D01*
X70450722Y-45793803D01*
X70450724Y-45793802D01*
X70456752Y-45791118D01*
X70475013Y-45777851D01*
X70512157Y-45750864D01*
X70611253Y-45678866D01*
X70739040Y-45536944D01*
X70834527Y-45371556D01*
X70893542Y-45189928D01*
X70913504Y-45000000D01*
X71586496Y-45000000D01*
X71606458Y-45189928D01*
X71665473Y-45371556D01*
X71760960Y-45536944D01*
X71888747Y-45678866D01*
X71987843Y-45750864D01*
X72024988Y-45777851D01*
X72043248Y-45791118D01*
X72049276Y-45793802D01*
X72049278Y-45793803D01*
X72211681Y-45866109D01*
X72217712Y-45868794D01*
X72311112Y-45888647D01*
X72398056Y-45907128D01*
X72398061Y-45907128D01*
X72404513Y-45908500D01*
X72595487Y-45908500D01*
X72601939Y-45907128D01*
X72601944Y-45907128D01*
X72688887Y-45888647D01*
X72782288Y-45868794D01*
X72788319Y-45866109D01*
X72950722Y-45793803D01*
X72950724Y-45793802D01*
X72956752Y-45791118D01*
X72975013Y-45777851D01*
X73012157Y-45750864D01*
X73111253Y-45678866D01*
X73239040Y-45536944D01*
X73334527Y-45371556D01*
X73393542Y-45189928D01*
X73413504Y-45000000D01*
X74086496Y-45000000D01*
X74106458Y-45189928D01*
X74165473Y-45371556D01*
X74260960Y-45536944D01*
X74388747Y-45678866D01*
X74487843Y-45750864D01*
X74524988Y-45777851D01*
X74543248Y-45791118D01*
X74549276Y-45793802D01*
X74549278Y-45793803D01*
X74711681Y-45866109D01*
X74717712Y-45868794D01*
X74811112Y-45888647D01*
X74898056Y-45907128D01*
X74898061Y-45907128D01*
X74904513Y-45908500D01*
X75095487Y-45908500D01*
X75101939Y-45907128D01*
X75101944Y-45907128D01*
X75188887Y-45888647D01*
X75282288Y-45868794D01*
X75288319Y-45866109D01*
X75450722Y-45793803D01*
X75450724Y-45793802D01*
X75456752Y-45791118D01*
X75475013Y-45777851D01*
X75512157Y-45750864D01*
X75611253Y-45678866D01*
X75739040Y-45536944D01*
X75834527Y-45371556D01*
X75893542Y-45189928D01*
X75913504Y-45000000D01*
X79086496Y-45000000D01*
X79106458Y-45189928D01*
X79165473Y-45371556D01*
X79260960Y-45536944D01*
X79388747Y-45678866D01*
X79487843Y-45750864D01*
X79524988Y-45777851D01*
X79543248Y-45791118D01*
X79549276Y-45793802D01*
X79549278Y-45793803D01*
X79711681Y-45866109D01*
X79717712Y-45868794D01*
X79811112Y-45888647D01*
X79898056Y-45907128D01*
X79898061Y-45907128D01*
X79904513Y-45908500D01*
X80095487Y-45908500D01*
X80101939Y-45907128D01*
X80101944Y-45907128D01*
X80188887Y-45888647D01*
X80282288Y-45868794D01*
X80288319Y-45866109D01*
X80450722Y-45793803D01*
X80450724Y-45793802D01*
X80456752Y-45791118D01*
X80475013Y-45777851D01*
X80512157Y-45750864D01*
X80611253Y-45678866D01*
X80739040Y-45536944D01*
X80834527Y-45371556D01*
X80893542Y-45189928D01*
X80913504Y-45000000D01*
X80896170Y-44835075D01*
X80894232Y-44816635D01*
X80894232Y-44816633D01*
X80893542Y-44810072D01*
X80834527Y-44628444D01*
X80739040Y-44463056D01*
X80712828Y-44433944D01*
X80615675Y-44326045D01*
X80615674Y-44326044D01*
X80611253Y-44321134D01*
X80456752Y-44208882D01*
X80450724Y-44206198D01*
X80450722Y-44206197D01*
X80288319Y-44133891D01*
X80288318Y-44133891D01*
X80282288Y-44131206D01*
X80188887Y-44111353D01*
X80101944Y-44092872D01*
X80101939Y-44092872D01*
X80095487Y-44091500D01*
X79904513Y-44091500D01*
X79898061Y-44092872D01*
X79898056Y-44092872D01*
X79811112Y-44111353D01*
X79717712Y-44131206D01*
X79711682Y-44133891D01*
X79711681Y-44133891D01*
X79549278Y-44206197D01*
X79549276Y-44206198D01*
X79543248Y-44208882D01*
X79388747Y-44321134D01*
X79384326Y-44326044D01*
X79384325Y-44326045D01*
X79287173Y-44433944D01*
X79260960Y-44463056D01*
X79165473Y-44628444D01*
X79106458Y-44810072D01*
X79105768Y-44816633D01*
X79105768Y-44816635D01*
X79103830Y-44835075D01*
X79086496Y-45000000D01*
X75913504Y-45000000D01*
X75896170Y-44835075D01*
X75894232Y-44816635D01*
X75894232Y-44816633D01*
X75893542Y-44810072D01*
X75834527Y-44628444D01*
X75739040Y-44463056D01*
X75712828Y-44433944D01*
X75615675Y-44326045D01*
X75615674Y-44326044D01*
X75611253Y-44321134D01*
X75456752Y-44208882D01*
X75450724Y-44206198D01*
X75450722Y-44206197D01*
X75288319Y-44133891D01*
X75288318Y-44133891D01*
X75282288Y-44131206D01*
X75188887Y-44111353D01*
X75101944Y-44092872D01*
X75101939Y-44092872D01*
X75095487Y-44091500D01*
X74904513Y-44091500D01*
X74898061Y-44092872D01*
X74898056Y-44092872D01*
X74811112Y-44111353D01*
X74717712Y-44131206D01*
X74711682Y-44133891D01*
X74711681Y-44133891D01*
X74549278Y-44206197D01*
X74549276Y-44206198D01*
X74543248Y-44208882D01*
X74388747Y-44321134D01*
X74384326Y-44326044D01*
X74384325Y-44326045D01*
X74287173Y-44433944D01*
X74260960Y-44463056D01*
X74165473Y-44628444D01*
X74106458Y-44810072D01*
X74105768Y-44816633D01*
X74105768Y-44816635D01*
X74103830Y-44835075D01*
X74086496Y-45000000D01*
X73413504Y-45000000D01*
X73396170Y-44835075D01*
X73394232Y-44816635D01*
X73394232Y-44816633D01*
X73393542Y-44810072D01*
X73334527Y-44628444D01*
X73239040Y-44463056D01*
X73212828Y-44433944D01*
X73115675Y-44326045D01*
X73115674Y-44326044D01*
X73111253Y-44321134D01*
X72956752Y-44208882D01*
X72950724Y-44206198D01*
X72950722Y-44206197D01*
X72788319Y-44133891D01*
X72788318Y-44133891D01*
X72782288Y-44131206D01*
X72688887Y-44111353D01*
X72601944Y-44092872D01*
X72601939Y-44092872D01*
X72595487Y-44091500D01*
X72404513Y-44091500D01*
X72398061Y-44092872D01*
X72398056Y-44092872D01*
X72311112Y-44111353D01*
X72217712Y-44131206D01*
X72211682Y-44133891D01*
X72211681Y-44133891D01*
X72049278Y-44206197D01*
X72049276Y-44206198D01*
X72043248Y-44208882D01*
X71888747Y-44321134D01*
X71884326Y-44326044D01*
X71884325Y-44326045D01*
X71787173Y-44433944D01*
X71760960Y-44463056D01*
X71665473Y-44628444D01*
X71606458Y-44810072D01*
X71605768Y-44816633D01*
X71605768Y-44816635D01*
X71603830Y-44835075D01*
X71586496Y-45000000D01*
X70913504Y-45000000D01*
X70896170Y-44835075D01*
X70894232Y-44816635D01*
X70894232Y-44816633D01*
X70893542Y-44810072D01*
X70834527Y-44628444D01*
X70739040Y-44463056D01*
X70712828Y-44433944D01*
X70615675Y-44326045D01*
X70615674Y-44326044D01*
X70611253Y-44321134D01*
X70456752Y-44208882D01*
X70450724Y-44206198D01*
X70450722Y-44206197D01*
X70288319Y-44133891D01*
X70288318Y-44133891D01*
X70282288Y-44131206D01*
X70188887Y-44111353D01*
X70101944Y-44092872D01*
X70101939Y-44092872D01*
X70095487Y-44091500D01*
X69904513Y-44091500D01*
X69898061Y-44092872D01*
X69898056Y-44092872D01*
X69811112Y-44111353D01*
X69717712Y-44131206D01*
X69711682Y-44133891D01*
X69711681Y-44133891D01*
X69549278Y-44206197D01*
X69549276Y-44206198D01*
X69543248Y-44208882D01*
X69388747Y-44321134D01*
X69384326Y-44326044D01*
X69384325Y-44326045D01*
X69287173Y-44433944D01*
X69260960Y-44463056D01*
X69165473Y-44628444D01*
X69106458Y-44810072D01*
X69105768Y-44816633D01*
X69105768Y-44816635D01*
X69103830Y-44835075D01*
X69086496Y-45000000D01*
X68413504Y-45000000D01*
X68396170Y-44835075D01*
X68394232Y-44816635D01*
X68394232Y-44816633D01*
X68393542Y-44810072D01*
X68334527Y-44628444D01*
X68239040Y-44463056D01*
X68212828Y-44433944D01*
X68115675Y-44326045D01*
X68115674Y-44326044D01*
X68111253Y-44321134D01*
X67956752Y-44208882D01*
X67950724Y-44206198D01*
X67950722Y-44206197D01*
X67788319Y-44133891D01*
X67788318Y-44133891D01*
X67782288Y-44131206D01*
X67688887Y-44111353D01*
X67601944Y-44092872D01*
X67601939Y-44092872D01*
X67595487Y-44091500D01*
X67404513Y-44091500D01*
X67398061Y-44092872D01*
X67398056Y-44092872D01*
X67311112Y-44111353D01*
X67217712Y-44131206D01*
X67211682Y-44133891D01*
X67211681Y-44133891D01*
X67049278Y-44206197D01*
X67049276Y-44206198D01*
X67043248Y-44208882D01*
X66888747Y-44321134D01*
X66884326Y-44326044D01*
X66884325Y-44326045D01*
X66787173Y-44433944D01*
X66760960Y-44463056D01*
X66665473Y-44628444D01*
X66606458Y-44810072D01*
X66605768Y-44816633D01*
X66605768Y-44816635D01*
X66603830Y-44835075D01*
X66586496Y-45000000D01*
X64638233Y-45000000D01*
X64821114Y-44984000D01*
X64826427Y-44982576D01*
X64826429Y-44982576D01*
X65030200Y-44927976D01*
X65030202Y-44927975D01*
X65035510Y-44926553D01*
X65040492Y-44924230D01*
X65231686Y-44835075D01*
X65231691Y-44835072D01*
X65236673Y-44832749D01*
X65371701Y-44738201D01*
X65413979Y-44708598D01*
X65413982Y-44708596D01*
X65418490Y-44705439D01*
X65575439Y-44548490D01*
X65635261Y-44463056D01*
X65699592Y-44371181D01*
X65699593Y-44371179D01*
X65702749Y-44366672D01*
X65705072Y-44361690D01*
X65705075Y-44361685D01*
X65794230Y-44170492D01*
X65794231Y-44170490D01*
X65796553Y-44165510D01*
X65806113Y-44129834D01*
X65852576Y-43956429D01*
X65852576Y-43956427D01*
X65854000Y-43951114D01*
X65873345Y-43730000D01*
X65854000Y-43508886D01*
X65796553Y-43294490D01*
X65744447Y-43182749D01*
X65705075Y-43098315D01*
X65705072Y-43098310D01*
X65702749Y-43093328D01*
X65663269Y-43036944D01*
X65578598Y-42916021D01*
X65578596Y-42916018D01*
X65575439Y-42911510D01*
X65418490Y-42754561D01*
X65413982Y-42751404D01*
X65413979Y-42751402D01*
X65316812Y-42683365D01*
X65236673Y-42627251D01*
X65231691Y-42624928D01*
X65231686Y-42624925D01*
X65122894Y-42574195D01*
X65069609Y-42527278D01*
X65061834Y-42500000D01*
X66586496Y-42500000D01*
X66606458Y-42689928D01*
X66665473Y-42871556D01*
X66668776Y-42877278D01*
X66668777Y-42877279D01*
X66688540Y-42911510D01*
X66760960Y-43036944D01*
X66765378Y-43041851D01*
X66765379Y-43041852D01*
X66884325Y-43173955D01*
X66888747Y-43178866D01*
X66987843Y-43250864D01*
X67027332Y-43279554D01*
X67043248Y-43291118D01*
X67049276Y-43293802D01*
X67049278Y-43293803D01*
X67062748Y-43299800D01*
X67217712Y-43368794D01*
X67311112Y-43388647D01*
X67398056Y-43407128D01*
X67398061Y-43407128D01*
X67404513Y-43408500D01*
X67595487Y-43408500D01*
X67601939Y-43407128D01*
X67601944Y-43407128D01*
X67688888Y-43388647D01*
X67782288Y-43368794D01*
X67937252Y-43299800D01*
X67950722Y-43293803D01*
X67950724Y-43293802D01*
X67956752Y-43291118D01*
X67972669Y-43279554D01*
X68012157Y-43250864D01*
X68111253Y-43178866D01*
X68115675Y-43173955D01*
X68234621Y-43041852D01*
X68234622Y-43041851D01*
X68239040Y-43036944D01*
X68311460Y-42911510D01*
X68331223Y-42877279D01*
X68331224Y-42877278D01*
X68334527Y-42871556D01*
X68393542Y-42689928D01*
X68413504Y-42500000D01*
X69086496Y-42500000D01*
X69106458Y-42689928D01*
X69165473Y-42871556D01*
X69168776Y-42877278D01*
X69168777Y-42877279D01*
X69188540Y-42911510D01*
X69260960Y-43036944D01*
X69265378Y-43041851D01*
X69265379Y-43041852D01*
X69384325Y-43173955D01*
X69388747Y-43178866D01*
X69487843Y-43250864D01*
X69527332Y-43279554D01*
X69543248Y-43291118D01*
X69549276Y-43293802D01*
X69549278Y-43293803D01*
X69562748Y-43299800D01*
X69717712Y-43368794D01*
X69811112Y-43388647D01*
X69898056Y-43407128D01*
X69898061Y-43407128D01*
X69904513Y-43408500D01*
X70095487Y-43408500D01*
X70101939Y-43407128D01*
X70101944Y-43407128D01*
X70188888Y-43388647D01*
X70282288Y-43368794D01*
X70437252Y-43299800D01*
X70450722Y-43293803D01*
X70450724Y-43293802D01*
X70456752Y-43291118D01*
X70472669Y-43279554D01*
X70512157Y-43250864D01*
X70611253Y-43178866D01*
X70615675Y-43173955D01*
X70734621Y-43041852D01*
X70734622Y-43041851D01*
X70739040Y-43036944D01*
X70811460Y-42911510D01*
X70831223Y-42877279D01*
X70831224Y-42877278D01*
X70834527Y-42871556D01*
X70893542Y-42689928D01*
X70913504Y-42500000D01*
X71586496Y-42500000D01*
X71606458Y-42689928D01*
X71665473Y-42871556D01*
X71668776Y-42877278D01*
X71668777Y-42877279D01*
X71688540Y-42911510D01*
X71760960Y-43036944D01*
X71765378Y-43041851D01*
X71765379Y-43041852D01*
X71884325Y-43173955D01*
X71888747Y-43178866D01*
X71987843Y-43250864D01*
X72027332Y-43279554D01*
X72043248Y-43291118D01*
X72049276Y-43293802D01*
X72049278Y-43293803D01*
X72062748Y-43299800D01*
X72217712Y-43368794D01*
X72311112Y-43388647D01*
X72398056Y-43407128D01*
X72398061Y-43407128D01*
X72404513Y-43408500D01*
X72595487Y-43408500D01*
X72601939Y-43407128D01*
X72601944Y-43407128D01*
X72688888Y-43388647D01*
X72782288Y-43368794D01*
X72937252Y-43299800D01*
X72950722Y-43293803D01*
X72950724Y-43293802D01*
X72956752Y-43291118D01*
X72972669Y-43279554D01*
X73012157Y-43250864D01*
X73111253Y-43178866D01*
X73115675Y-43173955D01*
X73234621Y-43041852D01*
X73234622Y-43041851D01*
X73239040Y-43036944D01*
X73311460Y-42911510D01*
X73331223Y-42877279D01*
X73331224Y-42877278D01*
X73334527Y-42871556D01*
X73393542Y-42689928D01*
X73413504Y-42500000D01*
X74086496Y-42500000D01*
X74106458Y-42689928D01*
X74165473Y-42871556D01*
X74168776Y-42877278D01*
X74168777Y-42877279D01*
X74188540Y-42911510D01*
X74260960Y-43036944D01*
X74265378Y-43041851D01*
X74265379Y-43041852D01*
X74384325Y-43173955D01*
X74388747Y-43178866D01*
X74487843Y-43250864D01*
X74527332Y-43279554D01*
X74543248Y-43291118D01*
X74549276Y-43293802D01*
X74549278Y-43293803D01*
X74562748Y-43299800D01*
X74717712Y-43368794D01*
X74811112Y-43388647D01*
X74898056Y-43407128D01*
X74898061Y-43407128D01*
X74904513Y-43408500D01*
X75095487Y-43408500D01*
X75101939Y-43407128D01*
X75101944Y-43407128D01*
X75188888Y-43388647D01*
X75282288Y-43368794D01*
X75437252Y-43299800D01*
X75450722Y-43293803D01*
X75450724Y-43293802D01*
X75456752Y-43291118D01*
X75472669Y-43279554D01*
X75512157Y-43250864D01*
X75611253Y-43178866D01*
X75615675Y-43173955D01*
X75734621Y-43041852D01*
X75734622Y-43041851D01*
X75739040Y-43036944D01*
X75811460Y-42911510D01*
X75831223Y-42877279D01*
X75831224Y-42877278D01*
X75834527Y-42871556D01*
X75893542Y-42689928D01*
X75913504Y-42500000D01*
X79086496Y-42500000D01*
X79106458Y-42689928D01*
X79165473Y-42871556D01*
X79168776Y-42877278D01*
X79168777Y-42877279D01*
X79188540Y-42911510D01*
X79260960Y-43036944D01*
X79265378Y-43041851D01*
X79265379Y-43041852D01*
X79384325Y-43173955D01*
X79388747Y-43178866D01*
X79487843Y-43250864D01*
X79527332Y-43279554D01*
X79543248Y-43291118D01*
X79549276Y-43293802D01*
X79549278Y-43293803D01*
X79562748Y-43299800D01*
X79717712Y-43368794D01*
X79811112Y-43388647D01*
X79898056Y-43407128D01*
X79898061Y-43407128D01*
X79904513Y-43408500D01*
X80095487Y-43408500D01*
X80101939Y-43407128D01*
X80101944Y-43407128D01*
X80188888Y-43388647D01*
X80282288Y-43368794D01*
X80437252Y-43299800D01*
X80450722Y-43293803D01*
X80450724Y-43293802D01*
X80456752Y-43291118D01*
X80472669Y-43279554D01*
X80512157Y-43250864D01*
X80611253Y-43178866D01*
X80615675Y-43173955D01*
X80734621Y-43041852D01*
X80734622Y-43041851D01*
X80739040Y-43036944D01*
X80811460Y-42911510D01*
X80831223Y-42877279D01*
X80831224Y-42877278D01*
X80834527Y-42871556D01*
X80893542Y-42689928D01*
X80913504Y-42500000D01*
X80902052Y-42391041D01*
X80894232Y-42316635D01*
X80894232Y-42316633D01*
X80893542Y-42310072D01*
X80834527Y-42128444D01*
X80739040Y-41963056D01*
X80705054Y-41925310D01*
X80615675Y-41826045D01*
X80615674Y-41826044D01*
X80611253Y-41821134D01*
X80456752Y-41708882D01*
X80450724Y-41706198D01*
X80450722Y-41706197D01*
X80288319Y-41633891D01*
X80288318Y-41633891D01*
X80282288Y-41631206D01*
X80188887Y-41611353D01*
X80101944Y-41592872D01*
X80101939Y-41592872D01*
X80095487Y-41591500D01*
X79904513Y-41591500D01*
X79898061Y-41592872D01*
X79898056Y-41592872D01*
X79811113Y-41611353D01*
X79717712Y-41631206D01*
X79711682Y-41633891D01*
X79711681Y-41633891D01*
X79549278Y-41706197D01*
X79549276Y-41706198D01*
X79543248Y-41708882D01*
X79388747Y-41821134D01*
X79384326Y-41826044D01*
X79384325Y-41826045D01*
X79294947Y-41925310D01*
X79260960Y-41963056D01*
X79165473Y-42128444D01*
X79106458Y-42310072D01*
X79105768Y-42316633D01*
X79105768Y-42316635D01*
X79097948Y-42391041D01*
X79086496Y-42500000D01*
X75913504Y-42500000D01*
X75902052Y-42391041D01*
X75894232Y-42316635D01*
X75894232Y-42316633D01*
X75893542Y-42310072D01*
X75834527Y-42128444D01*
X75739040Y-41963056D01*
X75705054Y-41925310D01*
X75615675Y-41826045D01*
X75615674Y-41826044D01*
X75611253Y-41821134D01*
X75456752Y-41708882D01*
X75450724Y-41706198D01*
X75450722Y-41706197D01*
X75288319Y-41633891D01*
X75288318Y-41633891D01*
X75282288Y-41631206D01*
X75188887Y-41611353D01*
X75101944Y-41592872D01*
X75101939Y-41592872D01*
X75095487Y-41591500D01*
X74904513Y-41591500D01*
X74898061Y-41592872D01*
X74898056Y-41592872D01*
X74811113Y-41611353D01*
X74717712Y-41631206D01*
X74711682Y-41633891D01*
X74711681Y-41633891D01*
X74549278Y-41706197D01*
X74549276Y-41706198D01*
X74543248Y-41708882D01*
X74388747Y-41821134D01*
X74384326Y-41826044D01*
X74384325Y-41826045D01*
X74294947Y-41925310D01*
X74260960Y-41963056D01*
X74165473Y-42128444D01*
X74106458Y-42310072D01*
X74105768Y-42316633D01*
X74105768Y-42316635D01*
X74097948Y-42391041D01*
X74086496Y-42500000D01*
X73413504Y-42500000D01*
X73402052Y-42391041D01*
X73394232Y-42316635D01*
X73394232Y-42316633D01*
X73393542Y-42310072D01*
X73334527Y-42128444D01*
X73239040Y-41963056D01*
X73205054Y-41925310D01*
X73115675Y-41826045D01*
X73115674Y-41826044D01*
X73111253Y-41821134D01*
X72956752Y-41708882D01*
X72950724Y-41706198D01*
X72950722Y-41706197D01*
X72788319Y-41633891D01*
X72788318Y-41633891D01*
X72782288Y-41631206D01*
X72688887Y-41611353D01*
X72601944Y-41592872D01*
X72601939Y-41592872D01*
X72595487Y-41591500D01*
X72404513Y-41591500D01*
X72398061Y-41592872D01*
X72398056Y-41592872D01*
X72311113Y-41611353D01*
X72217712Y-41631206D01*
X72211682Y-41633891D01*
X72211681Y-41633891D01*
X72049278Y-41706197D01*
X72049276Y-41706198D01*
X72043248Y-41708882D01*
X71888747Y-41821134D01*
X71884326Y-41826044D01*
X71884325Y-41826045D01*
X71794947Y-41925310D01*
X71760960Y-41963056D01*
X71665473Y-42128444D01*
X71606458Y-42310072D01*
X71605768Y-42316633D01*
X71605768Y-42316635D01*
X71597948Y-42391041D01*
X71586496Y-42500000D01*
X70913504Y-42500000D01*
X70902052Y-42391041D01*
X70894232Y-42316635D01*
X70894232Y-42316633D01*
X70893542Y-42310072D01*
X70834527Y-42128444D01*
X70739040Y-41963056D01*
X70705054Y-41925310D01*
X70615675Y-41826045D01*
X70615674Y-41826044D01*
X70611253Y-41821134D01*
X70456752Y-41708882D01*
X70450724Y-41706198D01*
X70450722Y-41706197D01*
X70288319Y-41633891D01*
X70288318Y-41633891D01*
X70282288Y-41631206D01*
X70188887Y-41611353D01*
X70101944Y-41592872D01*
X70101939Y-41592872D01*
X70095487Y-41591500D01*
X69904513Y-41591500D01*
X69898061Y-41592872D01*
X69898056Y-41592872D01*
X69811113Y-41611353D01*
X69717712Y-41631206D01*
X69711682Y-41633891D01*
X69711681Y-41633891D01*
X69549278Y-41706197D01*
X69549276Y-41706198D01*
X69543248Y-41708882D01*
X69388747Y-41821134D01*
X69384326Y-41826044D01*
X69384325Y-41826045D01*
X69294947Y-41925310D01*
X69260960Y-41963056D01*
X69165473Y-42128444D01*
X69106458Y-42310072D01*
X69105768Y-42316633D01*
X69105768Y-42316635D01*
X69097948Y-42391041D01*
X69086496Y-42500000D01*
X68413504Y-42500000D01*
X68402052Y-42391041D01*
X68394232Y-42316635D01*
X68394232Y-42316633D01*
X68393542Y-42310072D01*
X68334527Y-42128444D01*
X68239040Y-41963056D01*
X68205054Y-41925310D01*
X68115675Y-41826045D01*
X68115674Y-41826044D01*
X68111253Y-41821134D01*
X67956752Y-41708882D01*
X67950724Y-41706198D01*
X67950722Y-41706197D01*
X67788319Y-41633891D01*
X67788318Y-41633891D01*
X67782288Y-41631206D01*
X67688887Y-41611353D01*
X67601944Y-41592872D01*
X67601939Y-41592872D01*
X67595487Y-41591500D01*
X67404513Y-41591500D01*
X67398061Y-41592872D01*
X67398056Y-41592872D01*
X67311113Y-41611353D01*
X67217712Y-41631206D01*
X67211682Y-41633891D01*
X67211681Y-41633891D01*
X67049278Y-41706197D01*
X67049276Y-41706198D01*
X67043248Y-41708882D01*
X66888747Y-41821134D01*
X66884326Y-41826044D01*
X66884325Y-41826045D01*
X66794947Y-41925310D01*
X66760960Y-41963056D01*
X66665473Y-42128444D01*
X66606458Y-42310072D01*
X66605768Y-42316633D01*
X66605768Y-42316635D01*
X66597948Y-42391041D01*
X66586496Y-42500000D01*
X65061834Y-42500000D01*
X65050148Y-42459000D01*
X65070690Y-42391041D01*
X65122894Y-42345805D01*
X65231686Y-42295075D01*
X65231691Y-42295072D01*
X65236673Y-42292749D01*
X65348885Y-42214177D01*
X65413979Y-42168598D01*
X65413982Y-42168596D01*
X65418490Y-42165439D01*
X65575439Y-42008490D01*
X65603249Y-41968774D01*
X65699592Y-41831181D01*
X65699593Y-41831179D01*
X65702749Y-41826672D01*
X65705072Y-41821690D01*
X65705075Y-41821685D01*
X65794230Y-41630492D01*
X65794231Y-41630490D01*
X65796553Y-41625510D01*
X65854000Y-41411114D01*
X65873345Y-41190000D01*
X65854000Y-40968886D01*
X65807087Y-40793803D01*
X65797976Y-40759800D01*
X65797975Y-40759798D01*
X65796553Y-40754490D01*
X65794230Y-40749508D01*
X65705075Y-40558315D01*
X65705072Y-40558310D01*
X65702749Y-40553328D01*
X65699592Y-40548819D01*
X65578598Y-40376021D01*
X65578596Y-40376018D01*
X65575439Y-40371510D01*
X65418490Y-40214561D01*
X65413982Y-40211404D01*
X65413979Y-40211402D01*
X65338313Y-40158420D01*
X65236673Y-40087251D01*
X65231691Y-40084928D01*
X65231686Y-40084925D01*
X65049563Y-40000000D01*
X66586496Y-40000000D01*
X66606458Y-40189928D01*
X66665473Y-40371556D01*
X66760960Y-40536944D01*
X66765378Y-40541851D01*
X66765379Y-40541852D01*
X66884325Y-40673955D01*
X66888747Y-40678866D01*
X67043248Y-40791118D01*
X67049276Y-40793802D01*
X67049278Y-40793803D01*
X67211681Y-40866109D01*
X67217712Y-40868794D01*
X67311112Y-40888647D01*
X67398056Y-40907128D01*
X67398061Y-40907128D01*
X67404513Y-40908500D01*
X67595487Y-40908500D01*
X67601939Y-40907128D01*
X67601944Y-40907128D01*
X67688888Y-40888647D01*
X67782288Y-40868794D01*
X67788319Y-40866109D01*
X67950722Y-40793803D01*
X67950724Y-40793802D01*
X67956752Y-40791118D01*
X68111253Y-40678866D01*
X68115675Y-40673955D01*
X68234621Y-40541852D01*
X68234622Y-40541851D01*
X68239040Y-40536944D01*
X68334527Y-40371556D01*
X68393542Y-40189928D01*
X68413504Y-40000000D01*
X69086496Y-40000000D01*
X69106458Y-40189928D01*
X69165473Y-40371556D01*
X69260960Y-40536944D01*
X69265378Y-40541851D01*
X69265379Y-40541852D01*
X69384325Y-40673955D01*
X69388747Y-40678866D01*
X69543248Y-40791118D01*
X69549276Y-40793802D01*
X69549278Y-40793803D01*
X69711681Y-40866109D01*
X69717712Y-40868794D01*
X69811112Y-40888647D01*
X69898056Y-40907128D01*
X69898061Y-40907128D01*
X69904513Y-40908500D01*
X70095487Y-40908500D01*
X70101939Y-40907128D01*
X70101944Y-40907128D01*
X70188888Y-40888647D01*
X70282288Y-40868794D01*
X70288319Y-40866109D01*
X70450722Y-40793803D01*
X70450724Y-40793802D01*
X70456752Y-40791118D01*
X70611253Y-40678866D01*
X70615675Y-40673955D01*
X70734621Y-40541852D01*
X70734622Y-40541851D01*
X70739040Y-40536944D01*
X70834527Y-40371556D01*
X70893542Y-40189928D01*
X70913504Y-40000000D01*
X71586496Y-40000000D01*
X71606458Y-40189928D01*
X71665473Y-40371556D01*
X71760960Y-40536944D01*
X71765378Y-40541851D01*
X71765379Y-40541852D01*
X71884325Y-40673955D01*
X71888747Y-40678866D01*
X72043248Y-40791118D01*
X72049276Y-40793802D01*
X72049278Y-40793803D01*
X72211681Y-40866109D01*
X72217712Y-40868794D01*
X72311112Y-40888647D01*
X72398056Y-40907128D01*
X72398061Y-40907128D01*
X72404513Y-40908500D01*
X72595487Y-40908500D01*
X72601939Y-40907128D01*
X72601944Y-40907128D01*
X72688888Y-40888647D01*
X72782288Y-40868794D01*
X72788319Y-40866109D01*
X72950722Y-40793803D01*
X72950724Y-40793802D01*
X72956752Y-40791118D01*
X73111253Y-40678866D01*
X73115675Y-40673955D01*
X73234621Y-40541852D01*
X73234622Y-40541851D01*
X73239040Y-40536944D01*
X73334527Y-40371556D01*
X73393542Y-40189928D01*
X73413504Y-40000000D01*
X74086496Y-40000000D01*
X74106458Y-40189928D01*
X74165473Y-40371556D01*
X74260960Y-40536944D01*
X74265378Y-40541851D01*
X74265379Y-40541852D01*
X74384325Y-40673955D01*
X74388747Y-40678866D01*
X74543248Y-40791118D01*
X74549276Y-40793802D01*
X74549278Y-40793803D01*
X74711681Y-40866109D01*
X74717712Y-40868794D01*
X74811112Y-40888647D01*
X74898056Y-40907128D01*
X74898061Y-40907128D01*
X74904513Y-40908500D01*
X75095487Y-40908500D01*
X75101939Y-40907128D01*
X75101944Y-40907128D01*
X75188888Y-40888647D01*
X75282288Y-40868794D01*
X75288319Y-40866109D01*
X75450722Y-40793803D01*
X75450724Y-40793802D01*
X75456752Y-40791118D01*
X75611253Y-40678866D01*
X75615675Y-40673955D01*
X75734621Y-40541852D01*
X75734622Y-40541851D01*
X75739040Y-40536944D01*
X75834527Y-40371556D01*
X75893542Y-40189928D01*
X75913504Y-40000000D01*
X79086496Y-40000000D01*
X79106458Y-40189928D01*
X79165473Y-40371556D01*
X79260960Y-40536944D01*
X79265378Y-40541851D01*
X79265379Y-40541852D01*
X79384325Y-40673955D01*
X79388747Y-40678866D01*
X79543248Y-40791118D01*
X79549276Y-40793802D01*
X79549278Y-40793803D01*
X79711681Y-40866109D01*
X79717712Y-40868794D01*
X79811112Y-40888647D01*
X79898056Y-40907128D01*
X79898061Y-40907128D01*
X79904513Y-40908500D01*
X80095487Y-40908500D01*
X80101939Y-40907128D01*
X80101944Y-40907128D01*
X80188888Y-40888647D01*
X80282288Y-40868794D01*
X80288319Y-40866109D01*
X80450722Y-40793803D01*
X80450724Y-40793802D01*
X80456752Y-40791118D01*
X80611253Y-40678866D01*
X80615675Y-40673955D01*
X80734621Y-40541852D01*
X80734622Y-40541851D01*
X80739040Y-40536944D01*
X80834527Y-40371556D01*
X80893542Y-40189928D01*
X80913504Y-40000000D01*
X80893542Y-39810072D01*
X80834527Y-39628444D01*
X80739040Y-39463056D01*
X80611253Y-39321134D01*
X80456752Y-39208882D01*
X80450724Y-39206198D01*
X80450722Y-39206197D01*
X80288319Y-39133891D01*
X80288318Y-39133891D01*
X80282288Y-39131206D01*
X80188887Y-39111353D01*
X80101944Y-39092872D01*
X80101939Y-39092872D01*
X80095487Y-39091500D01*
X79904513Y-39091500D01*
X79898061Y-39092872D01*
X79898056Y-39092872D01*
X79811113Y-39111353D01*
X79717712Y-39131206D01*
X79711682Y-39133891D01*
X79711681Y-39133891D01*
X79549278Y-39206197D01*
X79549276Y-39206198D01*
X79543248Y-39208882D01*
X79388747Y-39321134D01*
X79260960Y-39463056D01*
X79165473Y-39628444D01*
X79106458Y-39810072D01*
X79086496Y-40000000D01*
X75913504Y-40000000D01*
X75893542Y-39810072D01*
X75834527Y-39628444D01*
X75739040Y-39463056D01*
X75611253Y-39321134D01*
X75456752Y-39208882D01*
X75450724Y-39206198D01*
X75450722Y-39206197D01*
X75288319Y-39133891D01*
X75288318Y-39133891D01*
X75282288Y-39131206D01*
X75188887Y-39111353D01*
X75101944Y-39092872D01*
X75101939Y-39092872D01*
X75095487Y-39091500D01*
X74904513Y-39091500D01*
X74898061Y-39092872D01*
X74898056Y-39092872D01*
X74811113Y-39111353D01*
X74717712Y-39131206D01*
X74711682Y-39133891D01*
X74711681Y-39133891D01*
X74549278Y-39206197D01*
X74549276Y-39206198D01*
X74543248Y-39208882D01*
X74388747Y-39321134D01*
X74260960Y-39463056D01*
X74165473Y-39628444D01*
X74106458Y-39810072D01*
X74086496Y-40000000D01*
X73413504Y-40000000D01*
X73393542Y-39810072D01*
X73334527Y-39628444D01*
X73239040Y-39463056D01*
X73111253Y-39321134D01*
X72956752Y-39208882D01*
X72950724Y-39206198D01*
X72950722Y-39206197D01*
X72788319Y-39133891D01*
X72788318Y-39133891D01*
X72782288Y-39131206D01*
X72688887Y-39111353D01*
X72601944Y-39092872D01*
X72601939Y-39092872D01*
X72595487Y-39091500D01*
X72404513Y-39091500D01*
X72398061Y-39092872D01*
X72398056Y-39092872D01*
X72311113Y-39111353D01*
X72217712Y-39131206D01*
X72211682Y-39133891D01*
X72211681Y-39133891D01*
X72049278Y-39206197D01*
X72049276Y-39206198D01*
X72043248Y-39208882D01*
X71888747Y-39321134D01*
X71760960Y-39463056D01*
X71665473Y-39628444D01*
X71606458Y-39810072D01*
X71586496Y-40000000D01*
X70913504Y-40000000D01*
X70893542Y-39810072D01*
X70834527Y-39628444D01*
X70739040Y-39463056D01*
X70611253Y-39321134D01*
X70456752Y-39208882D01*
X70450724Y-39206198D01*
X70450722Y-39206197D01*
X70288319Y-39133891D01*
X70288318Y-39133891D01*
X70282288Y-39131206D01*
X70188887Y-39111353D01*
X70101944Y-39092872D01*
X70101939Y-39092872D01*
X70095487Y-39091500D01*
X69904513Y-39091500D01*
X69898061Y-39092872D01*
X69898056Y-39092872D01*
X69811113Y-39111353D01*
X69717712Y-39131206D01*
X69711682Y-39133891D01*
X69711681Y-39133891D01*
X69549278Y-39206197D01*
X69549276Y-39206198D01*
X69543248Y-39208882D01*
X69388747Y-39321134D01*
X69260960Y-39463056D01*
X69165473Y-39628444D01*
X69106458Y-39810072D01*
X69086496Y-40000000D01*
X68413504Y-40000000D01*
X68393542Y-39810072D01*
X68334527Y-39628444D01*
X68239040Y-39463056D01*
X68111253Y-39321134D01*
X67956752Y-39208882D01*
X67950724Y-39206198D01*
X67950722Y-39206197D01*
X67788319Y-39133891D01*
X67788318Y-39133891D01*
X67782288Y-39131206D01*
X67688887Y-39111353D01*
X67601944Y-39092872D01*
X67601939Y-39092872D01*
X67595487Y-39091500D01*
X67404513Y-39091500D01*
X67398061Y-39092872D01*
X67398056Y-39092872D01*
X67311113Y-39111353D01*
X67217712Y-39131206D01*
X67211682Y-39133891D01*
X67211681Y-39133891D01*
X67049278Y-39206197D01*
X67049276Y-39206198D01*
X67043248Y-39208882D01*
X66888747Y-39321134D01*
X66760960Y-39463056D01*
X66665473Y-39628444D01*
X66606458Y-39810072D01*
X66586496Y-40000000D01*
X65049563Y-40000000D01*
X65040492Y-39995770D01*
X65040491Y-39995769D01*
X65035510Y-39993447D01*
X65030202Y-39992025D01*
X65030200Y-39992024D01*
X64826429Y-39937424D01*
X64826427Y-39937424D01*
X64821114Y-39936000D01*
X64600000Y-39916655D01*
X64378886Y-39936000D01*
X64373573Y-39937424D01*
X64373571Y-39937424D01*
X64169800Y-39992024D01*
X64169798Y-39992025D01*
X64164490Y-39993447D01*
X64159510Y-39995769D01*
X64159508Y-39995770D01*
X63968315Y-40084925D01*
X63968310Y-40084928D01*
X63963328Y-40087251D01*
X63958821Y-40090407D01*
X63958819Y-40090408D01*
X63786021Y-40211402D01*
X63786018Y-40211404D01*
X63781510Y-40214561D01*
X63624561Y-40371510D01*
X63621404Y-40376018D01*
X63621402Y-40376021D01*
X63500408Y-40548819D01*
X63497251Y-40553328D01*
X63494928Y-40558310D01*
X63494925Y-40558315D01*
X63405770Y-40749508D01*
X63403447Y-40754490D01*
X63402025Y-40759798D01*
X63402024Y-40759800D01*
X63392913Y-40793803D01*
X63346000Y-40968886D01*
X63326655Y-41190000D01*
X63346000Y-41411114D01*
X63403447Y-41625510D01*
X63405769Y-41630490D01*
X63405770Y-41630492D01*
X63494925Y-41821685D01*
X63494928Y-41821690D01*
X63497251Y-41826672D01*
X63500407Y-41831179D01*
X63500408Y-41831181D01*
X63596752Y-41968774D01*
X63624561Y-42008490D01*
X63781510Y-42165439D01*
X63786018Y-42168596D01*
X63786021Y-42168598D01*
X63851115Y-42214177D01*
X63963327Y-42292749D01*
X63968309Y-42295072D01*
X63968314Y-42295075D01*
X64077106Y-42345805D01*
X64130391Y-42392722D01*
X64149852Y-42461000D01*
X64129310Y-42528959D01*
X64077106Y-42574195D01*
X63968315Y-42624925D01*
X63968310Y-42624928D01*
X63963328Y-42627251D01*
X63958821Y-42630407D01*
X63958819Y-42630408D01*
X63786021Y-42751402D01*
X63786018Y-42751404D01*
X63781510Y-42754561D01*
X63624561Y-42911510D01*
X63621404Y-42916018D01*
X63621402Y-42916021D01*
X63536731Y-43036944D01*
X63497251Y-43093328D01*
X63494928Y-43098310D01*
X63494925Y-43098315D01*
X63455553Y-43182749D01*
X63403447Y-43294490D01*
X63346000Y-43508886D01*
X63326655Y-43730000D01*
X61602431Y-43730000D01*
X61706092Y-43669425D01*
X61937694Y-43487827D01*
X62142506Y-43276476D01*
X62316741Y-43039285D01*
X62407810Y-42871556D01*
X62455122Y-42784418D01*
X62455123Y-42784416D01*
X62457172Y-42780642D01*
X62550580Y-42533447D01*
X62559685Y-42509351D01*
X62559686Y-42509347D01*
X62561203Y-42505333D01*
X62597740Y-42345805D01*
X62625949Y-42222637D01*
X62625950Y-42222633D01*
X62626907Y-42218453D01*
X62631357Y-42168598D01*
X62652849Y-41927776D01*
X62652849Y-41927774D01*
X62653069Y-41925310D01*
X62653544Y-41880000D01*
X62649531Y-41821134D01*
X62633819Y-41590650D01*
X62633818Y-41590644D01*
X62633527Y-41586373D01*
X62573845Y-41298180D01*
X62475603Y-41020753D01*
X62340618Y-40759226D01*
X62337290Y-40754490D01*
X62173856Y-40521948D01*
X62173855Y-40521947D01*
X62171389Y-40518438D01*
X61971048Y-40302844D01*
X61743300Y-40116435D01*
X61492361Y-39962660D01*
X61488425Y-39960932D01*
X61226802Y-39846087D01*
X61226798Y-39846086D01*
X61222874Y-39844363D01*
X60939826Y-39763735D01*
X60935584Y-39763131D01*
X60935578Y-39763130D01*
X60652705Y-39722871D01*
X60648454Y-39722266D01*
X60525785Y-39721624D01*
X60457770Y-39701266D01*
X60411559Y-39647368D01*
X60400445Y-39595682D01*
X60400008Y-38618117D01*
X60400000Y-38600000D01*
X59231250Y-37500000D01*
X61586496Y-37500000D01*
X61606458Y-37689928D01*
X61665473Y-37871556D01*
X61760960Y-38036944D01*
X61888747Y-38178866D01*
X62043248Y-38291118D01*
X62049276Y-38293802D01*
X62049278Y-38293803D01*
X62211681Y-38366109D01*
X62217712Y-38368794D01*
X62311112Y-38388647D01*
X62398056Y-38407128D01*
X62398061Y-38407128D01*
X62404513Y-38408500D01*
X62595487Y-38408500D01*
X62601939Y-38407128D01*
X62601944Y-38407128D01*
X62688888Y-38388647D01*
X62782288Y-38368794D01*
X62788319Y-38366109D01*
X62950722Y-38293803D01*
X62950724Y-38293802D01*
X62956752Y-38291118D01*
X63111253Y-38178866D01*
X63239040Y-38036944D01*
X63334527Y-37871556D01*
X63393542Y-37689928D01*
X63413504Y-37500000D01*
X64086496Y-37500000D01*
X64106458Y-37689928D01*
X64165473Y-37871556D01*
X64260960Y-38036944D01*
X64388747Y-38178866D01*
X64543248Y-38291118D01*
X64549276Y-38293802D01*
X64549278Y-38293803D01*
X64711681Y-38366109D01*
X64717712Y-38368794D01*
X64811112Y-38388647D01*
X64898056Y-38407128D01*
X64898061Y-38407128D01*
X64904513Y-38408500D01*
X65095487Y-38408500D01*
X65101939Y-38407128D01*
X65101944Y-38407128D01*
X65188888Y-38388647D01*
X65282288Y-38368794D01*
X65288319Y-38366109D01*
X65450722Y-38293803D01*
X65450724Y-38293802D01*
X65456752Y-38291118D01*
X65611253Y-38178866D01*
X65739040Y-38036944D01*
X65834527Y-37871556D01*
X65893542Y-37689928D01*
X65913504Y-37500000D01*
X66586496Y-37500000D01*
X66606458Y-37689928D01*
X66665473Y-37871556D01*
X66760960Y-38036944D01*
X66888747Y-38178866D01*
X67043248Y-38291118D01*
X67049276Y-38293802D01*
X67049278Y-38293803D01*
X67211681Y-38366109D01*
X67217712Y-38368794D01*
X67311112Y-38388647D01*
X67398056Y-38407128D01*
X67398061Y-38407128D01*
X67404513Y-38408500D01*
X67595487Y-38408500D01*
X67601939Y-38407128D01*
X67601944Y-38407128D01*
X67688888Y-38388647D01*
X67782288Y-38368794D01*
X67788319Y-38366109D01*
X67950722Y-38293803D01*
X67950724Y-38293802D01*
X67956752Y-38291118D01*
X68111253Y-38178866D01*
X68239040Y-38036944D01*
X68334527Y-37871556D01*
X68393542Y-37689928D01*
X68413504Y-37500000D01*
X69086496Y-37500000D01*
X69106458Y-37689928D01*
X69165473Y-37871556D01*
X69260960Y-38036944D01*
X69388747Y-38178866D01*
X69543248Y-38291118D01*
X69549276Y-38293802D01*
X69549278Y-38293803D01*
X69711681Y-38366109D01*
X69717712Y-38368794D01*
X69811112Y-38388647D01*
X69898056Y-38407128D01*
X69898061Y-38407128D01*
X69904513Y-38408500D01*
X70095487Y-38408500D01*
X70101939Y-38407128D01*
X70101944Y-38407128D01*
X70188888Y-38388647D01*
X70282288Y-38368794D01*
X70288319Y-38366109D01*
X70450722Y-38293803D01*
X70450724Y-38293802D01*
X70456752Y-38291118D01*
X70611253Y-38178866D01*
X70739040Y-38036944D01*
X70834527Y-37871556D01*
X70893542Y-37689928D01*
X70913504Y-37500000D01*
X71586496Y-37500000D01*
X71606458Y-37689928D01*
X71665473Y-37871556D01*
X71760960Y-38036944D01*
X71888747Y-38178866D01*
X72043248Y-38291118D01*
X72049276Y-38293802D01*
X72049278Y-38293803D01*
X72211681Y-38366109D01*
X72217712Y-38368794D01*
X72311112Y-38388647D01*
X72398056Y-38407128D01*
X72398061Y-38407128D01*
X72404513Y-38408500D01*
X72595487Y-38408500D01*
X72601939Y-38407128D01*
X72601944Y-38407128D01*
X72688888Y-38388647D01*
X72782288Y-38368794D01*
X72788319Y-38366109D01*
X72950722Y-38293803D01*
X72950724Y-38293802D01*
X72956752Y-38291118D01*
X73111253Y-38178866D01*
X73239040Y-38036944D01*
X73334527Y-37871556D01*
X73393542Y-37689928D01*
X73413504Y-37500000D01*
X74086496Y-37500000D01*
X74106458Y-37689928D01*
X74165473Y-37871556D01*
X74260960Y-38036944D01*
X74388747Y-38178866D01*
X74543248Y-38291118D01*
X74549276Y-38293802D01*
X74549278Y-38293803D01*
X74711681Y-38366109D01*
X74717712Y-38368794D01*
X74811112Y-38388647D01*
X74898056Y-38407128D01*
X74898061Y-38407128D01*
X74904513Y-38408500D01*
X75095487Y-38408500D01*
X75101939Y-38407128D01*
X75101944Y-38407128D01*
X75188888Y-38388647D01*
X75282288Y-38368794D01*
X75288319Y-38366109D01*
X75450722Y-38293803D01*
X75450724Y-38293802D01*
X75456752Y-38291118D01*
X75611253Y-38178866D01*
X75739040Y-38036944D01*
X75834527Y-37871556D01*
X75893542Y-37689928D01*
X75913504Y-37500000D01*
X75893542Y-37310072D01*
X75834527Y-37128444D01*
X75739040Y-36963056D01*
X75611253Y-36821134D01*
X75456752Y-36708882D01*
X75450724Y-36706198D01*
X75450722Y-36706197D01*
X75288319Y-36633891D01*
X75288318Y-36633891D01*
X75282288Y-36631206D01*
X75188887Y-36611353D01*
X75101944Y-36592872D01*
X75101939Y-36592872D01*
X75095487Y-36591500D01*
X74904513Y-36591500D01*
X74898061Y-36592872D01*
X74898056Y-36592872D01*
X74811113Y-36611353D01*
X74717712Y-36631206D01*
X74711682Y-36633891D01*
X74711681Y-36633891D01*
X74549278Y-36706197D01*
X74549276Y-36706198D01*
X74543248Y-36708882D01*
X74388747Y-36821134D01*
X74260960Y-36963056D01*
X74165473Y-37128444D01*
X74106458Y-37310072D01*
X74086496Y-37500000D01*
X73413504Y-37500000D01*
X73393542Y-37310072D01*
X73334527Y-37128444D01*
X73239040Y-36963056D01*
X73111253Y-36821134D01*
X72956752Y-36708882D01*
X72950724Y-36706198D01*
X72950722Y-36706197D01*
X72788319Y-36633891D01*
X72788318Y-36633891D01*
X72782288Y-36631206D01*
X72688887Y-36611353D01*
X72601944Y-36592872D01*
X72601939Y-36592872D01*
X72595487Y-36591500D01*
X72404513Y-36591500D01*
X72398061Y-36592872D01*
X72398056Y-36592872D01*
X72311113Y-36611353D01*
X72217712Y-36631206D01*
X72211682Y-36633891D01*
X72211681Y-36633891D01*
X72049278Y-36706197D01*
X72049276Y-36706198D01*
X72043248Y-36708882D01*
X71888747Y-36821134D01*
X71760960Y-36963056D01*
X71665473Y-37128444D01*
X71606458Y-37310072D01*
X71586496Y-37500000D01*
X70913504Y-37500000D01*
X70893542Y-37310072D01*
X70834527Y-37128444D01*
X70739040Y-36963056D01*
X70611253Y-36821134D01*
X70456752Y-36708882D01*
X70450724Y-36706198D01*
X70450722Y-36706197D01*
X70288319Y-36633891D01*
X70288318Y-36633891D01*
X70282288Y-36631206D01*
X70188887Y-36611353D01*
X70101944Y-36592872D01*
X70101939Y-36592872D01*
X70095487Y-36591500D01*
X69904513Y-36591500D01*
X69898061Y-36592872D01*
X69898056Y-36592872D01*
X69811113Y-36611353D01*
X69717712Y-36631206D01*
X69711682Y-36633891D01*
X69711681Y-36633891D01*
X69549278Y-36706197D01*
X69549276Y-36706198D01*
X69543248Y-36708882D01*
X69388747Y-36821134D01*
X69260960Y-36963056D01*
X69165473Y-37128444D01*
X69106458Y-37310072D01*
X69086496Y-37500000D01*
X68413504Y-37500000D01*
X68393542Y-37310072D01*
X68334527Y-37128444D01*
X68239040Y-36963056D01*
X68111253Y-36821134D01*
X67956752Y-36708882D01*
X67950724Y-36706198D01*
X67950722Y-36706197D01*
X67788319Y-36633891D01*
X67788318Y-36633891D01*
X67782288Y-36631206D01*
X67688887Y-36611353D01*
X67601944Y-36592872D01*
X67601939Y-36592872D01*
X67595487Y-36591500D01*
X67404513Y-36591500D01*
X67398061Y-36592872D01*
X67398056Y-36592872D01*
X67311113Y-36611353D01*
X67217712Y-36631206D01*
X67211682Y-36633891D01*
X67211681Y-36633891D01*
X67049278Y-36706197D01*
X67049276Y-36706198D01*
X67043248Y-36708882D01*
X66888747Y-36821134D01*
X66760960Y-36963056D01*
X66665473Y-37128444D01*
X66606458Y-37310072D01*
X66586496Y-37500000D01*
X65913504Y-37500000D01*
X65893542Y-37310072D01*
X65834527Y-37128444D01*
X65739040Y-36963056D01*
X65611253Y-36821134D01*
X65456752Y-36708882D01*
X65450724Y-36706198D01*
X65450722Y-36706197D01*
X65288319Y-36633891D01*
X65288318Y-36633891D01*
X65282288Y-36631206D01*
X65188887Y-36611353D01*
X65101944Y-36592872D01*
X65101939Y-36592872D01*
X65095487Y-36591500D01*
X64904513Y-36591500D01*
X64898061Y-36592872D01*
X64898056Y-36592872D01*
X64811113Y-36611353D01*
X64717712Y-36631206D01*
X64711682Y-36633891D01*
X64711681Y-36633891D01*
X64549278Y-36706197D01*
X64549276Y-36706198D01*
X64543248Y-36708882D01*
X64388747Y-36821134D01*
X64260960Y-36963056D01*
X64165473Y-37128444D01*
X64106458Y-37310072D01*
X64086496Y-37500000D01*
X63413504Y-37500000D01*
X63393542Y-37310072D01*
X63334527Y-37128444D01*
X63239040Y-36963056D01*
X63111253Y-36821134D01*
X62956752Y-36708882D01*
X62950724Y-36706198D01*
X62950722Y-36706197D01*
X62788319Y-36633891D01*
X62788318Y-36633891D01*
X62782288Y-36631206D01*
X62688887Y-36611353D01*
X62601944Y-36592872D01*
X62601939Y-36592872D01*
X62595487Y-36591500D01*
X62404513Y-36591500D01*
X62398061Y-36592872D01*
X62398056Y-36592872D01*
X62311113Y-36611353D01*
X62217712Y-36631206D01*
X62211682Y-36633891D01*
X62211681Y-36633891D01*
X62049278Y-36706197D01*
X62049276Y-36706198D01*
X62043248Y-36708882D01*
X61888747Y-36821134D01*
X61760960Y-36963056D01*
X61665473Y-37128444D01*
X61606458Y-37310072D01*
X61586496Y-37500000D01*
X59231250Y-37500000D01*
X58700000Y-37000000D01*
X32252190Y-37000000D01*
X32184069Y-36979998D01*
X32163095Y-36963095D01*
X31736905Y-36536905D01*
X31702879Y-36474593D01*
X31700000Y-36447810D01*
X31700000Y-35000000D01*
X54086496Y-35000000D01*
X54106458Y-35189928D01*
X54165473Y-35371556D01*
X54260960Y-35536944D01*
X54388747Y-35678866D01*
X54543248Y-35791118D01*
X54549276Y-35793802D01*
X54549278Y-35793803D01*
X54711681Y-35866109D01*
X54717712Y-35868794D01*
X54811113Y-35888647D01*
X54898056Y-35907128D01*
X54898061Y-35907128D01*
X54904513Y-35908500D01*
X55095487Y-35908500D01*
X55101939Y-35907128D01*
X55101944Y-35907128D01*
X55188887Y-35888647D01*
X55282288Y-35868794D01*
X55288319Y-35866109D01*
X55450722Y-35793803D01*
X55450724Y-35793802D01*
X55456752Y-35791118D01*
X55611253Y-35678866D01*
X55739040Y-35536944D01*
X55834527Y-35371556D01*
X55893542Y-35189928D01*
X55913504Y-35000000D01*
X59086496Y-35000000D01*
X59106458Y-35189928D01*
X59165473Y-35371556D01*
X59260960Y-35536944D01*
X59388747Y-35678866D01*
X59543248Y-35791118D01*
X59549276Y-35793802D01*
X59549278Y-35793803D01*
X59711681Y-35866109D01*
X59717712Y-35868794D01*
X59811113Y-35888647D01*
X59898056Y-35907128D01*
X59898061Y-35907128D01*
X59904513Y-35908500D01*
X60095487Y-35908500D01*
X60101939Y-35907128D01*
X60101944Y-35907128D01*
X60188887Y-35888647D01*
X60282288Y-35868794D01*
X60288319Y-35866109D01*
X60450722Y-35793803D01*
X60450724Y-35793802D01*
X60456752Y-35791118D01*
X60611253Y-35678866D01*
X60739040Y-35536944D01*
X60834527Y-35371556D01*
X60893542Y-35189928D01*
X60913504Y-35000000D01*
X64086496Y-35000000D01*
X64106458Y-35189928D01*
X64165473Y-35371556D01*
X64260960Y-35536944D01*
X64388747Y-35678866D01*
X64543248Y-35791118D01*
X64549276Y-35793802D01*
X64549278Y-35793803D01*
X64711681Y-35866109D01*
X64717712Y-35868794D01*
X64811113Y-35888647D01*
X64898056Y-35907128D01*
X64898061Y-35907128D01*
X64904513Y-35908500D01*
X65095487Y-35908500D01*
X65101939Y-35907128D01*
X65101944Y-35907128D01*
X65188887Y-35888647D01*
X65282288Y-35868794D01*
X65288319Y-35866109D01*
X65450722Y-35793803D01*
X65450724Y-35793802D01*
X65456752Y-35791118D01*
X65611253Y-35678866D01*
X65739040Y-35536944D01*
X65834527Y-35371556D01*
X65893542Y-35189928D01*
X65913504Y-35000000D01*
X69086496Y-35000000D01*
X69106458Y-35189928D01*
X69165473Y-35371556D01*
X69260960Y-35536944D01*
X69388747Y-35678866D01*
X69543248Y-35791118D01*
X69549276Y-35793802D01*
X69549278Y-35793803D01*
X69711681Y-35866109D01*
X69717712Y-35868794D01*
X69811113Y-35888647D01*
X69898056Y-35907128D01*
X69898061Y-35907128D01*
X69904513Y-35908500D01*
X70095487Y-35908500D01*
X70101939Y-35907128D01*
X70101944Y-35907128D01*
X70188887Y-35888647D01*
X70282288Y-35868794D01*
X70288319Y-35866109D01*
X70450722Y-35793803D01*
X70450724Y-35793802D01*
X70456752Y-35791118D01*
X70611253Y-35678866D01*
X70739040Y-35536944D01*
X70834527Y-35371556D01*
X70893542Y-35189928D01*
X70913504Y-35000000D01*
X70904372Y-34913116D01*
X70894232Y-34816635D01*
X70894232Y-34816633D01*
X70893542Y-34810072D01*
X70834527Y-34628444D01*
X70739040Y-34463056D01*
X70611253Y-34321134D01*
X70456752Y-34208882D01*
X70450724Y-34206198D01*
X70450722Y-34206197D01*
X70288319Y-34133891D01*
X70288318Y-34133891D01*
X70282288Y-34131206D01*
X70188888Y-34111353D01*
X70101944Y-34092872D01*
X70101939Y-34092872D01*
X70095487Y-34091500D01*
X69904513Y-34091500D01*
X69898061Y-34092872D01*
X69898056Y-34092872D01*
X69811112Y-34111353D01*
X69717712Y-34131206D01*
X69711682Y-34133891D01*
X69711681Y-34133891D01*
X69549278Y-34206197D01*
X69549276Y-34206198D01*
X69543248Y-34208882D01*
X69388747Y-34321134D01*
X69260960Y-34463056D01*
X69165473Y-34628444D01*
X69106458Y-34810072D01*
X69105768Y-34816633D01*
X69105768Y-34816635D01*
X69095628Y-34913116D01*
X69086496Y-35000000D01*
X65913504Y-35000000D01*
X65904372Y-34913116D01*
X65894232Y-34816635D01*
X65894232Y-34816633D01*
X65893542Y-34810072D01*
X65834527Y-34628444D01*
X65739040Y-34463056D01*
X65611253Y-34321134D01*
X65456752Y-34208882D01*
X65450724Y-34206198D01*
X65450722Y-34206197D01*
X65288319Y-34133891D01*
X65288318Y-34133891D01*
X65282288Y-34131206D01*
X65188888Y-34111353D01*
X65101944Y-34092872D01*
X65101939Y-34092872D01*
X65095487Y-34091500D01*
X64904513Y-34091500D01*
X64898061Y-34092872D01*
X64898056Y-34092872D01*
X64811112Y-34111353D01*
X64717712Y-34131206D01*
X64711682Y-34133891D01*
X64711681Y-34133891D01*
X64549278Y-34206197D01*
X64549276Y-34206198D01*
X64543248Y-34208882D01*
X64388747Y-34321134D01*
X64260960Y-34463056D01*
X64165473Y-34628444D01*
X64106458Y-34810072D01*
X64105768Y-34816633D01*
X64105768Y-34816635D01*
X64095628Y-34913116D01*
X64086496Y-35000000D01*
X60913504Y-35000000D01*
X60904372Y-34913116D01*
X60894232Y-34816635D01*
X60894232Y-34816633D01*
X60893542Y-34810072D01*
X60834527Y-34628444D01*
X60739040Y-34463056D01*
X60611253Y-34321134D01*
X60456752Y-34208882D01*
X60450724Y-34206198D01*
X60450722Y-34206197D01*
X60288319Y-34133891D01*
X60288318Y-34133891D01*
X60282288Y-34131206D01*
X60188888Y-34111353D01*
X60101944Y-34092872D01*
X60101939Y-34092872D01*
X60095487Y-34091500D01*
X59904513Y-34091500D01*
X59898061Y-34092872D01*
X59898056Y-34092872D01*
X59811112Y-34111353D01*
X59717712Y-34131206D01*
X59711682Y-34133891D01*
X59711681Y-34133891D01*
X59549278Y-34206197D01*
X59549276Y-34206198D01*
X59543248Y-34208882D01*
X59388747Y-34321134D01*
X59260960Y-34463056D01*
X59165473Y-34628444D01*
X59106458Y-34810072D01*
X59105768Y-34816633D01*
X59105768Y-34816635D01*
X59095628Y-34913116D01*
X59086496Y-35000000D01*
X55913504Y-35000000D01*
X55904372Y-34913116D01*
X55894232Y-34816635D01*
X55894232Y-34816633D01*
X55893542Y-34810072D01*
X55834527Y-34628444D01*
X55739040Y-34463056D01*
X55611253Y-34321134D01*
X55456752Y-34208882D01*
X55450724Y-34206198D01*
X55450722Y-34206197D01*
X55288319Y-34133891D01*
X55288318Y-34133891D01*
X55282288Y-34131206D01*
X55188888Y-34111353D01*
X55101944Y-34092872D01*
X55101939Y-34092872D01*
X55095487Y-34091500D01*
X54904513Y-34091500D01*
X54898061Y-34092872D01*
X54898056Y-34092872D01*
X54811112Y-34111353D01*
X54717712Y-34131206D01*
X54711682Y-34133891D01*
X54711681Y-34133891D01*
X54549278Y-34206197D01*
X54549276Y-34206198D01*
X54543248Y-34208882D01*
X54388747Y-34321134D01*
X54260960Y-34463056D01*
X54165473Y-34628444D01*
X54106458Y-34810072D01*
X54105768Y-34816633D01*
X54105768Y-34816635D01*
X54095628Y-34913116D01*
X54086496Y-35000000D01*
X31700000Y-35000000D01*
X31700000Y-32500000D01*
X51586496Y-32500000D01*
X51606458Y-32689928D01*
X51665473Y-32871556D01*
X51668776Y-32877278D01*
X51668777Y-32877279D01*
X51683219Y-32902293D01*
X51760960Y-33036944D01*
X51765378Y-33041851D01*
X51765379Y-33041852D01*
X51850133Y-33135981D01*
X51888747Y-33178866D01*
X52043248Y-33291118D01*
X52049276Y-33293802D01*
X52049278Y-33293803D01*
X52211681Y-33366109D01*
X52217712Y-33368794D01*
X52311112Y-33388647D01*
X52398056Y-33407128D01*
X52398061Y-33407128D01*
X52404513Y-33408500D01*
X52595487Y-33408500D01*
X52601939Y-33407128D01*
X52601944Y-33407128D01*
X52688888Y-33388647D01*
X52782288Y-33368794D01*
X52788319Y-33366109D01*
X52950722Y-33293803D01*
X52950724Y-33293802D01*
X52956752Y-33291118D01*
X53111253Y-33178866D01*
X53149867Y-33135981D01*
X53234621Y-33041852D01*
X53234622Y-33041851D01*
X53239040Y-33036944D01*
X53316781Y-32902293D01*
X53331223Y-32877279D01*
X53331224Y-32877278D01*
X53334527Y-32871556D01*
X53393542Y-32689928D01*
X53413504Y-32500000D01*
X56586496Y-32500000D01*
X56606458Y-32689928D01*
X56665473Y-32871556D01*
X56668776Y-32877278D01*
X56668777Y-32877279D01*
X56683219Y-32902293D01*
X56760960Y-33036944D01*
X56765378Y-33041851D01*
X56765379Y-33041852D01*
X56850133Y-33135981D01*
X56888747Y-33178866D01*
X57043248Y-33291118D01*
X57049276Y-33293802D01*
X57049278Y-33293803D01*
X57211681Y-33366109D01*
X57217712Y-33368794D01*
X57311112Y-33388647D01*
X57398056Y-33407128D01*
X57398061Y-33407128D01*
X57404513Y-33408500D01*
X57595487Y-33408500D01*
X57601939Y-33407128D01*
X57601944Y-33407128D01*
X57688888Y-33388647D01*
X57782288Y-33368794D01*
X57788319Y-33366109D01*
X57950722Y-33293803D01*
X57950724Y-33293802D01*
X57956752Y-33291118D01*
X58111253Y-33178866D01*
X58149867Y-33135981D01*
X58234621Y-33041852D01*
X58234622Y-33041851D01*
X58239040Y-33036944D01*
X58316781Y-32902293D01*
X58331223Y-32877279D01*
X58331224Y-32877278D01*
X58334527Y-32871556D01*
X58393542Y-32689928D01*
X58413504Y-32500000D01*
X61586496Y-32500000D01*
X61606458Y-32689928D01*
X61665473Y-32871556D01*
X61668776Y-32877278D01*
X61668777Y-32877279D01*
X61683219Y-32902293D01*
X61760960Y-33036944D01*
X61765378Y-33041851D01*
X61765379Y-33041852D01*
X61850133Y-33135981D01*
X61888747Y-33178866D01*
X62043248Y-33291118D01*
X62049276Y-33293802D01*
X62049278Y-33293803D01*
X62211681Y-33366109D01*
X62217712Y-33368794D01*
X62311112Y-33388647D01*
X62398056Y-33407128D01*
X62398061Y-33407128D01*
X62404513Y-33408500D01*
X62595487Y-33408500D01*
X62601939Y-33407128D01*
X62601944Y-33407128D01*
X62688888Y-33388647D01*
X62782288Y-33368794D01*
X62788319Y-33366109D01*
X62950722Y-33293803D01*
X62950724Y-33293802D01*
X62956752Y-33291118D01*
X63111253Y-33178866D01*
X63149867Y-33135981D01*
X63234621Y-33041852D01*
X63234622Y-33041851D01*
X63239040Y-33036944D01*
X63316781Y-32902293D01*
X63331223Y-32877279D01*
X63331224Y-32877278D01*
X63334527Y-32871556D01*
X63393542Y-32689928D01*
X63413504Y-32500000D01*
X66586496Y-32500000D01*
X66606458Y-32689928D01*
X66665473Y-32871556D01*
X66668776Y-32877278D01*
X66668777Y-32877279D01*
X66683219Y-32902293D01*
X66760960Y-33036944D01*
X66765378Y-33041851D01*
X66765379Y-33041852D01*
X66850133Y-33135981D01*
X66888747Y-33178866D01*
X67043248Y-33291118D01*
X67049276Y-33293802D01*
X67049278Y-33293803D01*
X67211681Y-33366109D01*
X67217712Y-33368794D01*
X67311112Y-33388647D01*
X67398056Y-33407128D01*
X67398061Y-33407128D01*
X67404513Y-33408500D01*
X67595487Y-33408500D01*
X67601939Y-33407128D01*
X67601944Y-33407128D01*
X67688888Y-33388647D01*
X67782288Y-33368794D01*
X67788319Y-33366109D01*
X67950722Y-33293803D01*
X67950724Y-33293802D01*
X67956752Y-33291118D01*
X68111253Y-33178866D01*
X68149867Y-33135981D01*
X68234621Y-33041852D01*
X68234622Y-33041851D01*
X68239040Y-33036944D01*
X68316781Y-32902293D01*
X68331223Y-32877279D01*
X68331224Y-32877278D01*
X68334527Y-32871556D01*
X68393542Y-32689928D01*
X68413504Y-32500000D01*
X71586496Y-32500000D01*
X71606458Y-32689928D01*
X71665473Y-32871556D01*
X71668776Y-32877278D01*
X71668777Y-32877279D01*
X71683219Y-32902293D01*
X71760960Y-33036944D01*
X71765378Y-33041851D01*
X71765379Y-33041852D01*
X71850133Y-33135981D01*
X71888747Y-33178866D01*
X72043248Y-33291118D01*
X72049276Y-33293802D01*
X72049278Y-33293803D01*
X72211681Y-33366109D01*
X72217712Y-33368794D01*
X72311112Y-33388647D01*
X72398056Y-33407128D01*
X72398061Y-33407128D01*
X72404513Y-33408500D01*
X72595487Y-33408500D01*
X72601939Y-33407128D01*
X72601944Y-33407128D01*
X72688888Y-33388647D01*
X72782288Y-33368794D01*
X72788319Y-33366109D01*
X72950722Y-33293803D01*
X72950724Y-33293802D01*
X72956752Y-33291118D01*
X73111253Y-33178866D01*
X73149867Y-33135981D01*
X73234621Y-33041852D01*
X73234622Y-33041851D01*
X73239040Y-33036944D01*
X73316781Y-32902293D01*
X73331223Y-32877279D01*
X73331224Y-32877278D01*
X73334527Y-32871556D01*
X73393542Y-32689928D01*
X73413504Y-32500000D01*
X73393542Y-32310072D01*
X73348544Y-32171585D01*
X73986698Y-32171585D01*
X73990830Y-32254586D01*
X74002721Y-32493435D01*
X74002936Y-32497759D01*
X74003577Y-32501490D01*
X74003578Y-32501498D01*
X74034829Y-32683365D01*
X74058241Y-32819619D01*
X74059329Y-32823258D01*
X74059330Y-32823261D01*
X74073774Y-32871556D01*
X74151814Y-33132504D01*
X74153327Y-33135975D01*
X74153329Y-33135981D01*
X74173713Y-33182749D01*
X74282297Y-33431881D01*
X74284220Y-33435152D01*
X74284222Y-33435156D01*
X74326584Y-33507215D01*
X74447802Y-33713414D01*
X74450103Y-33716429D01*
X74643631Y-33970012D01*
X74643636Y-33970017D01*
X74645931Y-33973025D01*
X74873814Y-34206953D01*
X74946635Y-34265607D01*
X75125196Y-34409431D01*
X75125201Y-34409435D01*
X75128149Y-34411809D01*
X75405253Y-34584627D01*
X75701112Y-34722903D01*
X76011440Y-34824634D01*
X76331742Y-34888346D01*
X76335514Y-34888633D01*
X76335522Y-34888634D01*
X76653602Y-34912829D01*
X76653607Y-34912829D01*
X76657379Y-34913116D01*
X76983633Y-34898586D01*
X77043425Y-34888634D01*
X77302037Y-34845590D01*
X77302042Y-34845589D01*
X77305778Y-34844967D01*
X77619149Y-34753034D01*
X77622616Y-34751544D01*
X77622620Y-34751543D01*
X77915721Y-34625616D01*
X77915723Y-34625615D01*
X77919205Y-34624119D01*
X78201601Y-34460091D01*
X78462245Y-34263324D01*
X78639062Y-34092872D01*
X78694632Y-34039303D01*
X78694635Y-34039300D01*
X78697363Y-34036670D01*
X78903549Y-33783410D01*
X79077815Y-33507215D01*
X79217638Y-33212084D01*
X79227425Y-33182749D01*
X79319790Y-32905897D01*
X79319792Y-32905891D01*
X79320992Y-32902293D01*
X79386381Y-32582329D01*
X79392544Y-32506565D01*
X79412674Y-32259061D01*
X79412856Y-32256826D01*
X79413451Y-32200000D01*
X79411510Y-32167796D01*
X79394026Y-31877793D01*
X79394026Y-31877789D01*
X79393798Y-31874015D01*
X79388650Y-31845824D01*
X79335805Y-31556473D01*
X79335804Y-31556469D01*
X79335125Y-31552751D01*
X79327722Y-31528907D01*
X79239404Y-31244477D01*
X79238282Y-31240863D01*
X79104670Y-30942869D01*
X78936226Y-30663084D01*
X78933899Y-30660100D01*
X78933894Y-30660093D01*
X78737726Y-30408558D01*
X78737724Y-30408556D01*
X78735390Y-30405563D01*
X78505070Y-30174034D01*
X78248603Y-29971852D01*
X77969705Y-29801945D01*
X77966261Y-29800379D01*
X77966257Y-29800377D01*
X77855667Y-29750095D01*
X77672414Y-29666775D01*
X77361037Y-29568300D01*
X77143492Y-29527390D01*
X77043809Y-29508645D01*
X77043807Y-29508645D01*
X77040086Y-29507945D01*
X76714208Y-29486586D01*
X76710428Y-29486794D01*
X76710427Y-29486794D01*
X76612897Y-29492162D01*
X76388124Y-29504532D01*
X76384397Y-29505193D01*
X76384393Y-29505193D01*
X76237503Y-29531226D01*
X76066557Y-29561522D01*
X76062941Y-29562624D01*
X76062933Y-29562626D01*
X75757789Y-29655627D01*
X75754167Y-29656731D01*
X75455477Y-29788781D01*
X75406467Y-29817939D01*
X75178074Y-29953817D01*
X75178068Y-29953821D01*
X75174814Y-29955757D01*
X75171812Y-29958073D01*
X74923538Y-30149616D01*
X74916244Y-30155243D01*
X74683513Y-30384347D01*
X74681149Y-30387314D01*
X74681146Y-30387317D01*
X74561914Y-30536944D01*
X74479991Y-30639751D01*
X74308626Y-30917757D01*
X74171902Y-31214336D01*
X74170741Y-31217940D01*
X74170741Y-31217941D01*
X74162196Y-31244477D01*
X74071797Y-31525192D01*
X74071079Y-31528903D01*
X74071078Y-31528907D01*
X74010482Y-31842105D01*
X74010481Y-31842114D01*
X74009763Y-31845824D01*
X74009496Y-31849600D01*
X74009495Y-31849605D01*
X73987295Y-32163156D01*
X73986698Y-32171585D01*
X73348544Y-32171585D01*
X73334527Y-32128444D01*
X73239040Y-31963056D01*
X73136889Y-31849605D01*
X73115675Y-31826045D01*
X73115674Y-31826044D01*
X73111253Y-31821134D01*
X72995322Y-31736905D01*
X72962094Y-31712763D01*
X72962093Y-31712762D01*
X72956752Y-31708882D01*
X72950724Y-31706198D01*
X72950722Y-31706197D01*
X72788319Y-31633891D01*
X72788318Y-31633891D01*
X72782288Y-31631206D01*
X72688887Y-31611353D01*
X72601944Y-31592872D01*
X72601939Y-31592872D01*
X72595487Y-31591500D01*
X72404513Y-31591500D01*
X72398061Y-31592872D01*
X72398056Y-31592872D01*
X72311113Y-31611353D01*
X72217712Y-31631206D01*
X72211682Y-31633891D01*
X72211681Y-31633891D01*
X72049278Y-31706197D01*
X72049276Y-31706198D01*
X72043248Y-31708882D01*
X72037907Y-31712762D01*
X72037906Y-31712763D01*
X72004678Y-31736905D01*
X71888747Y-31821134D01*
X71884326Y-31826044D01*
X71884325Y-31826045D01*
X71863112Y-31849605D01*
X71760960Y-31963056D01*
X71665473Y-32128444D01*
X71606458Y-32310072D01*
X71586496Y-32500000D01*
X68413504Y-32500000D01*
X68393542Y-32310072D01*
X68334527Y-32128444D01*
X68239040Y-31963056D01*
X68136889Y-31849605D01*
X68115675Y-31826045D01*
X68115674Y-31826044D01*
X68111253Y-31821134D01*
X67995322Y-31736905D01*
X67962094Y-31712763D01*
X67962093Y-31712762D01*
X67956752Y-31708882D01*
X67950724Y-31706198D01*
X67950722Y-31706197D01*
X67788319Y-31633891D01*
X67788318Y-31633891D01*
X67782288Y-31631206D01*
X67688887Y-31611353D01*
X67601944Y-31592872D01*
X67601939Y-31592872D01*
X67595487Y-31591500D01*
X67404513Y-31591500D01*
X67398061Y-31592872D01*
X67398056Y-31592872D01*
X67311113Y-31611353D01*
X67217712Y-31631206D01*
X67211682Y-31633891D01*
X67211681Y-31633891D01*
X67049278Y-31706197D01*
X67049276Y-31706198D01*
X67043248Y-31708882D01*
X67037907Y-31712762D01*
X67037906Y-31712763D01*
X67004678Y-31736905D01*
X66888747Y-31821134D01*
X66884326Y-31826044D01*
X66884325Y-31826045D01*
X66863112Y-31849605D01*
X66760960Y-31963056D01*
X66665473Y-32128444D01*
X66606458Y-32310072D01*
X66586496Y-32500000D01*
X63413504Y-32500000D01*
X63393542Y-32310072D01*
X63334527Y-32128444D01*
X63239040Y-31963056D01*
X63136889Y-31849605D01*
X63115675Y-31826045D01*
X63115674Y-31826044D01*
X63111253Y-31821134D01*
X62995322Y-31736905D01*
X62962094Y-31712763D01*
X62962093Y-31712762D01*
X62956752Y-31708882D01*
X62950724Y-31706198D01*
X62950722Y-31706197D01*
X62788319Y-31633891D01*
X62788318Y-31633891D01*
X62782288Y-31631206D01*
X62688887Y-31611353D01*
X62601944Y-31592872D01*
X62601939Y-31592872D01*
X62595487Y-31591500D01*
X62404513Y-31591500D01*
X62398061Y-31592872D01*
X62398056Y-31592872D01*
X62311113Y-31611353D01*
X62217712Y-31631206D01*
X62211682Y-31633891D01*
X62211681Y-31633891D01*
X62049278Y-31706197D01*
X62049276Y-31706198D01*
X62043248Y-31708882D01*
X62037907Y-31712762D01*
X62037906Y-31712763D01*
X62004678Y-31736905D01*
X61888747Y-31821134D01*
X61884326Y-31826044D01*
X61884325Y-31826045D01*
X61863112Y-31849605D01*
X61760960Y-31963056D01*
X61665473Y-32128444D01*
X61606458Y-32310072D01*
X61586496Y-32500000D01*
X58413504Y-32500000D01*
X58393542Y-32310072D01*
X58334527Y-32128444D01*
X58239040Y-31963056D01*
X58136889Y-31849605D01*
X58115675Y-31826045D01*
X58115674Y-31826044D01*
X58111253Y-31821134D01*
X57995322Y-31736905D01*
X57962094Y-31712763D01*
X57962093Y-31712762D01*
X57956752Y-31708882D01*
X57950724Y-31706198D01*
X57950722Y-31706197D01*
X57788319Y-31633891D01*
X57788318Y-31633891D01*
X57782288Y-31631206D01*
X57688887Y-31611353D01*
X57601944Y-31592872D01*
X57601939Y-31592872D01*
X57595487Y-31591500D01*
X57404513Y-31591500D01*
X57398061Y-31592872D01*
X57398056Y-31592872D01*
X57311113Y-31611353D01*
X57217712Y-31631206D01*
X57211682Y-31633891D01*
X57211681Y-31633891D01*
X57049278Y-31706197D01*
X57049276Y-31706198D01*
X57043248Y-31708882D01*
X57037907Y-31712762D01*
X57037906Y-31712763D01*
X57004678Y-31736905D01*
X56888747Y-31821134D01*
X56884326Y-31826044D01*
X56884325Y-31826045D01*
X56863112Y-31849605D01*
X56760960Y-31963056D01*
X56665473Y-32128444D01*
X56606458Y-32310072D01*
X56586496Y-32500000D01*
X53413504Y-32500000D01*
X53393542Y-32310072D01*
X53334527Y-32128444D01*
X53239040Y-31963056D01*
X53136889Y-31849605D01*
X53115675Y-31826045D01*
X53115674Y-31826044D01*
X53111253Y-31821134D01*
X52995322Y-31736905D01*
X52962094Y-31712763D01*
X52962093Y-31712762D01*
X52956752Y-31708882D01*
X52950724Y-31706198D01*
X52950722Y-31706197D01*
X52788319Y-31633891D01*
X52788318Y-31633891D01*
X52782288Y-31631206D01*
X52688887Y-31611353D01*
X52601944Y-31592872D01*
X52601939Y-31592872D01*
X52595487Y-31591500D01*
X52404513Y-31591500D01*
X52398061Y-31592872D01*
X52398056Y-31592872D01*
X52311113Y-31611353D01*
X52217712Y-31631206D01*
X52211682Y-31633891D01*
X52211681Y-31633891D01*
X52049278Y-31706197D01*
X52049276Y-31706198D01*
X52043248Y-31708882D01*
X52037907Y-31712762D01*
X52037906Y-31712763D01*
X52004678Y-31736905D01*
X51888747Y-31821134D01*
X51884326Y-31826044D01*
X51884325Y-31826045D01*
X51863112Y-31849605D01*
X51760960Y-31963056D01*
X51665473Y-32128444D01*
X51606458Y-32310072D01*
X51586496Y-32500000D01*
X31700000Y-32500000D01*
X31700000Y-31500000D01*
X31200000Y-31000000D01*
X30557038Y-31000000D01*
X30488917Y-30979998D01*
X30442424Y-30926342D01*
X30432320Y-30856068D01*
X30461814Y-30791488D01*
X30482977Y-30772064D01*
X30491075Y-30766181D01*
X30611253Y-30678866D01*
X30638243Y-30648891D01*
X30734621Y-30541852D01*
X30734622Y-30541851D01*
X30739040Y-30536944D01*
X30823132Y-30391293D01*
X30831223Y-30377279D01*
X30831224Y-30377278D01*
X30834527Y-30371556D01*
X30893542Y-30189928D01*
X30897188Y-30155243D01*
X30912814Y-30006565D01*
X30913504Y-30000000D01*
X31586496Y-30000000D01*
X31587186Y-30006565D01*
X31602813Y-30155243D01*
X31606458Y-30189928D01*
X31665473Y-30371556D01*
X31668776Y-30377278D01*
X31668777Y-30377279D01*
X31676868Y-30391293D01*
X31760960Y-30536944D01*
X31765378Y-30541851D01*
X31765379Y-30541852D01*
X31861757Y-30648891D01*
X31888747Y-30678866D01*
X31987843Y-30750864D01*
X32017023Y-30772064D01*
X32043248Y-30791118D01*
X32049276Y-30793802D01*
X32049278Y-30793803D01*
X32211681Y-30866109D01*
X32217712Y-30868794D01*
X32305876Y-30887534D01*
X32398056Y-30907128D01*
X32398061Y-30907128D01*
X32404513Y-30908500D01*
X32595487Y-30908500D01*
X32601939Y-30907128D01*
X32601944Y-30907128D01*
X32694124Y-30887534D01*
X32782288Y-30868794D01*
X32788319Y-30866109D01*
X32950722Y-30793803D01*
X32950724Y-30793802D01*
X32956752Y-30791118D01*
X32982978Y-30772064D01*
X33012157Y-30750864D01*
X33111253Y-30678866D01*
X33138243Y-30648891D01*
X33234621Y-30541852D01*
X33234622Y-30541851D01*
X33239040Y-30536944D01*
X33293201Y-30443134D01*
X35991500Y-30443134D01*
X35998255Y-30505316D01*
X36049385Y-30641705D01*
X36136739Y-30758261D01*
X36253295Y-30845615D01*
X36389684Y-30896745D01*
X36451866Y-30903500D01*
X38248134Y-30903500D01*
X38310316Y-30896745D01*
X38446705Y-30845615D01*
X38563261Y-30758261D01*
X38650615Y-30641705D01*
X38701745Y-30505316D01*
X38706335Y-30463061D01*
X38733576Y-30397500D01*
X38791939Y-30357073D01*
X38862893Y-30354617D01*
X38926835Y-30394171D01*
X39022865Y-30505031D01*
X39022869Y-30505035D01*
X39026250Y-30508938D01*
X39198126Y-30651632D01*
X39391000Y-30764338D01*
X39599692Y-30844030D01*
X39604760Y-30845061D01*
X39604763Y-30845062D01*
X39658860Y-30856068D01*
X39818597Y-30888567D01*
X39823772Y-30888757D01*
X39823774Y-30888757D01*
X40036673Y-30896564D01*
X40036677Y-30896564D01*
X40041837Y-30896753D01*
X40046957Y-30896097D01*
X40046959Y-30896097D01*
X40258288Y-30869025D01*
X40258289Y-30869025D01*
X40263416Y-30868368D01*
X40304414Y-30856068D01*
X40472429Y-30805661D01*
X40472434Y-30805659D01*
X40477384Y-30804174D01*
X40677994Y-30705896D01*
X40859860Y-30576173D01*
X41018096Y-30418489D01*
X41042630Y-30384347D01*
X41148453Y-30237077D01*
X41149776Y-30238028D01*
X41196645Y-30194857D01*
X41266580Y-30182625D01*
X41332026Y-30210144D01*
X41359875Y-30241994D01*
X41419987Y-30340088D01*
X41566250Y-30508938D01*
X41738126Y-30651632D01*
X41931000Y-30764338D01*
X42139692Y-30844030D01*
X42144760Y-30845061D01*
X42144763Y-30845062D01*
X42198860Y-30856068D01*
X42358597Y-30888567D01*
X42363772Y-30888757D01*
X42363774Y-30888757D01*
X42576673Y-30896564D01*
X42576677Y-30896564D01*
X42581837Y-30896753D01*
X42586957Y-30896097D01*
X42586959Y-30896097D01*
X42798288Y-30869025D01*
X42798289Y-30869025D01*
X42803416Y-30868368D01*
X42844414Y-30856068D01*
X43012429Y-30805661D01*
X43012434Y-30805659D01*
X43017384Y-30804174D01*
X43217994Y-30705896D01*
X43399860Y-30576173D01*
X43558096Y-30418489D01*
X43582630Y-30384347D01*
X43688453Y-30237077D01*
X43689776Y-30238028D01*
X43736645Y-30194857D01*
X43806580Y-30182625D01*
X43872026Y-30210144D01*
X43899875Y-30241994D01*
X43959987Y-30340088D01*
X44106250Y-30508938D01*
X44278126Y-30651632D01*
X44471000Y-30764338D01*
X44679692Y-30844030D01*
X44684760Y-30845061D01*
X44684763Y-30845062D01*
X44738860Y-30856068D01*
X44898597Y-30888567D01*
X44903772Y-30888757D01*
X44903774Y-30888757D01*
X45116673Y-30896564D01*
X45116677Y-30896564D01*
X45121837Y-30896753D01*
X45126957Y-30896097D01*
X45126959Y-30896097D01*
X45338288Y-30869025D01*
X45338289Y-30869025D01*
X45343416Y-30868368D01*
X45384414Y-30856068D01*
X45552429Y-30805661D01*
X45552434Y-30805659D01*
X45557384Y-30804174D01*
X45757994Y-30705896D01*
X45939860Y-30576173D01*
X46098096Y-30418489D01*
X46122630Y-30384347D01*
X46225435Y-30241277D01*
X46228453Y-30237077D01*
X46249320Y-30194857D01*
X46325136Y-30041453D01*
X46325137Y-30041451D01*
X46327430Y-30036811D01*
X46338614Y-30000000D01*
X49086496Y-30000000D01*
X49087186Y-30006565D01*
X49102813Y-30155243D01*
X49106458Y-30189928D01*
X49165473Y-30371556D01*
X49168776Y-30377278D01*
X49168777Y-30377279D01*
X49176868Y-30391293D01*
X49260960Y-30536944D01*
X49265378Y-30541851D01*
X49265379Y-30541852D01*
X49361757Y-30648891D01*
X49388747Y-30678866D01*
X49487843Y-30750864D01*
X49517023Y-30772064D01*
X49543248Y-30791118D01*
X49549276Y-30793802D01*
X49549278Y-30793803D01*
X49711681Y-30866109D01*
X49717712Y-30868794D01*
X49805876Y-30887534D01*
X49898056Y-30907128D01*
X49898061Y-30907128D01*
X49904513Y-30908500D01*
X50095487Y-30908500D01*
X50101939Y-30907128D01*
X50101944Y-30907128D01*
X50194124Y-30887534D01*
X50282288Y-30868794D01*
X50288319Y-30866109D01*
X50450722Y-30793803D01*
X50450724Y-30793802D01*
X50456752Y-30791118D01*
X50482978Y-30772064D01*
X50512157Y-30750864D01*
X50611253Y-30678866D01*
X50638243Y-30648891D01*
X50734621Y-30541852D01*
X50734622Y-30541851D01*
X50739040Y-30536944D01*
X50823132Y-30391293D01*
X50831223Y-30377279D01*
X50831224Y-30377278D01*
X50834527Y-30371556D01*
X50893542Y-30189928D01*
X50897188Y-30155243D01*
X50912814Y-30006565D01*
X50913504Y-30000000D01*
X54086496Y-30000000D01*
X54087186Y-30006565D01*
X54102813Y-30155243D01*
X54106458Y-30189928D01*
X54165473Y-30371556D01*
X54168776Y-30377278D01*
X54168777Y-30377279D01*
X54176868Y-30391293D01*
X54260960Y-30536944D01*
X54265378Y-30541851D01*
X54265379Y-30541852D01*
X54361757Y-30648891D01*
X54388747Y-30678866D01*
X54487843Y-30750864D01*
X54517023Y-30772064D01*
X54543248Y-30791118D01*
X54549276Y-30793802D01*
X54549278Y-30793803D01*
X54711681Y-30866109D01*
X54717712Y-30868794D01*
X54805876Y-30887534D01*
X54898056Y-30907128D01*
X54898061Y-30907128D01*
X54904513Y-30908500D01*
X55095487Y-30908500D01*
X55101939Y-30907128D01*
X55101944Y-30907128D01*
X55194124Y-30887534D01*
X55282288Y-30868794D01*
X55288319Y-30866109D01*
X55450722Y-30793803D01*
X55450724Y-30793802D01*
X55456752Y-30791118D01*
X55482978Y-30772064D01*
X55512157Y-30750864D01*
X55611253Y-30678866D01*
X55638243Y-30648891D01*
X55734621Y-30541852D01*
X55734622Y-30541851D01*
X55739040Y-30536944D01*
X55823132Y-30391293D01*
X55831223Y-30377279D01*
X55831224Y-30377278D01*
X55834527Y-30371556D01*
X55893542Y-30189928D01*
X55897188Y-30155243D01*
X55912814Y-30006565D01*
X55913504Y-30000000D01*
X59086496Y-30000000D01*
X59087186Y-30006565D01*
X59102813Y-30155243D01*
X59106458Y-30189928D01*
X59165473Y-30371556D01*
X59168776Y-30377278D01*
X59168777Y-30377279D01*
X59176868Y-30391293D01*
X59260960Y-30536944D01*
X59265378Y-30541851D01*
X59265379Y-30541852D01*
X59361757Y-30648891D01*
X59388747Y-30678866D01*
X59487843Y-30750864D01*
X59517023Y-30772064D01*
X59543248Y-30791118D01*
X59549276Y-30793802D01*
X59549278Y-30793803D01*
X59711681Y-30866109D01*
X59717712Y-30868794D01*
X59805876Y-30887534D01*
X59898056Y-30907128D01*
X59898061Y-30907128D01*
X59904513Y-30908500D01*
X60095487Y-30908500D01*
X60101939Y-30907128D01*
X60101944Y-30907128D01*
X60194124Y-30887534D01*
X60282288Y-30868794D01*
X60288319Y-30866109D01*
X60450722Y-30793803D01*
X60450724Y-30793802D01*
X60456752Y-30791118D01*
X60482978Y-30772064D01*
X60512157Y-30750864D01*
X60611253Y-30678866D01*
X60638243Y-30648891D01*
X60734621Y-30541852D01*
X60734622Y-30541851D01*
X60739040Y-30536944D01*
X60823132Y-30391293D01*
X60831223Y-30377279D01*
X60831224Y-30377278D01*
X60834527Y-30371556D01*
X60893542Y-30189928D01*
X60897188Y-30155243D01*
X60912814Y-30006565D01*
X60913504Y-30000000D01*
X64086496Y-30000000D01*
X64087186Y-30006565D01*
X64102813Y-30155243D01*
X64106458Y-30189928D01*
X64165473Y-30371556D01*
X64168776Y-30377278D01*
X64168777Y-30377279D01*
X64176868Y-30391293D01*
X64260960Y-30536944D01*
X64265378Y-30541851D01*
X64265379Y-30541852D01*
X64361757Y-30648891D01*
X64388747Y-30678866D01*
X64487843Y-30750864D01*
X64517023Y-30772064D01*
X64543248Y-30791118D01*
X64549276Y-30793802D01*
X64549278Y-30793803D01*
X64711681Y-30866109D01*
X64717712Y-30868794D01*
X64805876Y-30887534D01*
X64898056Y-30907128D01*
X64898061Y-30907128D01*
X64904513Y-30908500D01*
X65095487Y-30908500D01*
X65101939Y-30907128D01*
X65101944Y-30907128D01*
X65194124Y-30887534D01*
X65282288Y-30868794D01*
X65288319Y-30866109D01*
X65450722Y-30793803D01*
X65450724Y-30793802D01*
X65456752Y-30791118D01*
X65482978Y-30772064D01*
X65512157Y-30750864D01*
X65611253Y-30678866D01*
X65638243Y-30648891D01*
X65734621Y-30541852D01*
X65734622Y-30541851D01*
X65739040Y-30536944D01*
X65823132Y-30391293D01*
X65831223Y-30377279D01*
X65831224Y-30377278D01*
X65834527Y-30371556D01*
X65893542Y-30189928D01*
X65897188Y-30155243D01*
X65912814Y-30006565D01*
X65913504Y-30000000D01*
X69086496Y-30000000D01*
X69087186Y-30006565D01*
X69102813Y-30155243D01*
X69106458Y-30189928D01*
X69165473Y-30371556D01*
X69168776Y-30377278D01*
X69168777Y-30377279D01*
X69176868Y-30391293D01*
X69260960Y-30536944D01*
X69265378Y-30541851D01*
X69265379Y-30541852D01*
X69361757Y-30648891D01*
X69388747Y-30678866D01*
X69487843Y-30750864D01*
X69517023Y-30772064D01*
X69543248Y-30791118D01*
X69549276Y-30793802D01*
X69549278Y-30793803D01*
X69711681Y-30866109D01*
X69717712Y-30868794D01*
X69805876Y-30887534D01*
X69898056Y-30907128D01*
X69898061Y-30907128D01*
X69904513Y-30908500D01*
X70095487Y-30908500D01*
X70101939Y-30907128D01*
X70101944Y-30907128D01*
X70194124Y-30887534D01*
X70282288Y-30868794D01*
X70288319Y-30866109D01*
X70450722Y-30793803D01*
X70450724Y-30793802D01*
X70456752Y-30791118D01*
X70482978Y-30772064D01*
X70512157Y-30750864D01*
X70611253Y-30678866D01*
X70638243Y-30648891D01*
X70734621Y-30541852D01*
X70734622Y-30541851D01*
X70739040Y-30536944D01*
X70823132Y-30391293D01*
X70831223Y-30377279D01*
X70831224Y-30377278D01*
X70834527Y-30371556D01*
X70893542Y-30189928D01*
X70897188Y-30155243D01*
X70912814Y-30006565D01*
X70913504Y-30000000D01*
X70893542Y-29810072D01*
X70834527Y-29628444D01*
X70820939Y-29604908D01*
X70780577Y-29535000D01*
X70739040Y-29463056D01*
X70611253Y-29321134D01*
X70456752Y-29208882D01*
X70450724Y-29206198D01*
X70450722Y-29206197D01*
X70288319Y-29133891D01*
X70288318Y-29133891D01*
X70282288Y-29131206D01*
X70188887Y-29111353D01*
X70101944Y-29092872D01*
X70101939Y-29092872D01*
X70095487Y-29091500D01*
X69904513Y-29091500D01*
X69898061Y-29092872D01*
X69898056Y-29092872D01*
X69811113Y-29111353D01*
X69717712Y-29131206D01*
X69711682Y-29133891D01*
X69711681Y-29133891D01*
X69549278Y-29206197D01*
X69549276Y-29206198D01*
X69543248Y-29208882D01*
X69388747Y-29321134D01*
X69260960Y-29463056D01*
X69219423Y-29535000D01*
X69179062Y-29604908D01*
X69165473Y-29628444D01*
X69106458Y-29810072D01*
X69086496Y-30000000D01*
X65913504Y-30000000D01*
X65893542Y-29810072D01*
X65834527Y-29628444D01*
X65820939Y-29604908D01*
X65780577Y-29535000D01*
X65739040Y-29463056D01*
X65611253Y-29321134D01*
X65456752Y-29208882D01*
X65450724Y-29206198D01*
X65450722Y-29206197D01*
X65288319Y-29133891D01*
X65288318Y-29133891D01*
X65282288Y-29131206D01*
X65188887Y-29111353D01*
X65101944Y-29092872D01*
X65101939Y-29092872D01*
X65095487Y-29091500D01*
X64904513Y-29091500D01*
X64898061Y-29092872D01*
X64898056Y-29092872D01*
X64811113Y-29111353D01*
X64717712Y-29131206D01*
X64711682Y-29133891D01*
X64711681Y-29133891D01*
X64549278Y-29206197D01*
X64549276Y-29206198D01*
X64543248Y-29208882D01*
X64388747Y-29321134D01*
X64260960Y-29463056D01*
X64219423Y-29535000D01*
X64179062Y-29604908D01*
X64165473Y-29628444D01*
X64106458Y-29810072D01*
X64086496Y-30000000D01*
X60913504Y-30000000D01*
X60893542Y-29810072D01*
X60834527Y-29628444D01*
X60820939Y-29604908D01*
X60780577Y-29535000D01*
X60739040Y-29463056D01*
X60611253Y-29321134D01*
X60456752Y-29208882D01*
X60450724Y-29206198D01*
X60450722Y-29206197D01*
X60288319Y-29133891D01*
X60288318Y-29133891D01*
X60282288Y-29131206D01*
X60188887Y-29111353D01*
X60101944Y-29092872D01*
X60101939Y-29092872D01*
X60095487Y-29091500D01*
X59904513Y-29091500D01*
X59898061Y-29092872D01*
X59898056Y-29092872D01*
X59811113Y-29111353D01*
X59717712Y-29131206D01*
X59711682Y-29133891D01*
X59711681Y-29133891D01*
X59549278Y-29206197D01*
X59549276Y-29206198D01*
X59543248Y-29208882D01*
X59388747Y-29321134D01*
X59260960Y-29463056D01*
X59219423Y-29535000D01*
X59179062Y-29604908D01*
X59165473Y-29628444D01*
X59106458Y-29810072D01*
X59086496Y-30000000D01*
X55913504Y-30000000D01*
X55893542Y-29810072D01*
X55834527Y-29628444D01*
X55820939Y-29604908D01*
X55780577Y-29535000D01*
X55739040Y-29463056D01*
X55611253Y-29321134D01*
X55456752Y-29208882D01*
X55450724Y-29206198D01*
X55450722Y-29206197D01*
X55288319Y-29133891D01*
X55288318Y-29133891D01*
X55282288Y-29131206D01*
X55188887Y-29111353D01*
X55101944Y-29092872D01*
X55101939Y-29092872D01*
X55095487Y-29091500D01*
X54904513Y-29091500D01*
X54898061Y-29092872D01*
X54898056Y-29092872D01*
X54811113Y-29111353D01*
X54717712Y-29131206D01*
X54711682Y-29133891D01*
X54711681Y-29133891D01*
X54549278Y-29206197D01*
X54549276Y-29206198D01*
X54543248Y-29208882D01*
X54388747Y-29321134D01*
X54260960Y-29463056D01*
X54219423Y-29535000D01*
X54179062Y-29604908D01*
X54165473Y-29628444D01*
X54106458Y-29810072D01*
X54086496Y-30000000D01*
X50913504Y-30000000D01*
X50893542Y-29810072D01*
X50834527Y-29628444D01*
X50820939Y-29604908D01*
X50780577Y-29535000D01*
X50739040Y-29463056D01*
X50611253Y-29321134D01*
X50456752Y-29208882D01*
X50450724Y-29206198D01*
X50450722Y-29206197D01*
X50288319Y-29133891D01*
X50288318Y-29133891D01*
X50282288Y-29131206D01*
X50188887Y-29111353D01*
X50101944Y-29092872D01*
X50101939Y-29092872D01*
X50095487Y-29091500D01*
X49904513Y-29091500D01*
X49898061Y-29092872D01*
X49898056Y-29092872D01*
X49811113Y-29111353D01*
X49717712Y-29131206D01*
X49711682Y-29133891D01*
X49711681Y-29133891D01*
X49549278Y-29206197D01*
X49549276Y-29206198D01*
X49543248Y-29208882D01*
X49388747Y-29321134D01*
X49260960Y-29463056D01*
X49219423Y-29535000D01*
X49179062Y-29604908D01*
X49165473Y-29628444D01*
X49106458Y-29810072D01*
X49086496Y-30000000D01*
X46338614Y-30000000D01*
X46392370Y-29823069D01*
X46421529Y-29601590D01*
X46421611Y-29598240D01*
X46423074Y-29538365D01*
X46423074Y-29538361D01*
X46423156Y-29535000D01*
X46404852Y-29312361D01*
X46350431Y-29095702D01*
X46261354Y-28890840D01*
X46194330Y-28787237D01*
X46142822Y-28707617D01*
X46142820Y-28707614D01*
X46140014Y-28703277D01*
X45989670Y-28538051D01*
X45985619Y-28534852D01*
X45985615Y-28534848D01*
X45818414Y-28402800D01*
X45818410Y-28402798D01*
X45814359Y-28399598D01*
X45809831Y-28397098D01*
X45758557Y-28368794D01*
X45618789Y-28291638D01*
X45613920Y-28289914D01*
X45613916Y-28289912D01*
X45413087Y-28218795D01*
X45413083Y-28218794D01*
X45408212Y-28217069D01*
X45403119Y-28216162D01*
X45403116Y-28216161D01*
X45193373Y-28178800D01*
X45193367Y-28178799D01*
X45188284Y-28177894D01*
X45114452Y-28176992D01*
X44970081Y-28175228D01*
X44970079Y-28175228D01*
X44964911Y-28175165D01*
X44744091Y-28208955D01*
X44531756Y-28278357D01*
X44504734Y-28292424D01*
X44352723Y-28371556D01*
X44333607Y-28381507D01*
X44329474Y-28384610D01*
X44329471Y-28384612D01*
X44217378Y-28468774D01*
X44154965Y-28515635D01*
X44000629Y-28677138D01*
X43893201Y-28834621D01*
X43838293Y-28879621D01*
X43767768Y-28887792D01*
X43704021Y-28856538D01*
X43683324Y-28832054D01*
X43602822Y-28707617D01*
X43602820Y-28707614D01*
X43600014Y-28703277D01*
X43449670Y-28538051D01*
X43445619Y-28534852D01*
X43445615Y-28534848D01*
X43278414Y-28402800D01*
X43278410Y-28402798D01*
X43274359Y-28399598D01*
X43269835Y-28397100D01*
X43269831Y-28397098D01*
X43171572Y-28342856D01*
X43121602Y-28292424D01*
X43106830Y-28222981D01*
X43131946Y-28156576D01*
X43138814Y-28148256D01*
X43239040Y-28036944D01*
X43334527Y-27871556D01*
X43393542Y-27689928D01*
X43413504Y-27500000D01*
X46586496Y-27500000D01*
X46606458Y-27689928D01*
X46665473Y-27871556D01*
X46760960Y-28036944D01*
X46765375Y-28041847D01*
X46765379Y-28041852D01*
X46868677Y-28156576D01*
X46888747Y-28178866D01*
X46978926Y-28244385D01*
X47028974Y-28280747D01*
X47043248Y-28291118D01*
X47049276Y-28293802D01*
X47049278Y-28293803D01*
X47150611Y-28338919D01*
X47217712Y-28368794D01*
X47311113Y-28388647D01*
X47398056Y-28407128D01*
X47398061Y-28407128D01*
X47404513Y-28408500D01*
X47595487Y-28408500D01*
X47601939Y-28407128D01*
X47601944Y-28407128D01*
X47688888Y-28388647D01*
X47782288Y-28368794D01*
X47849389Y-28338919D01*
X47950722Y-28293803D01*
X47950724Y-28293802D01*
X47956752Y-28291118D01*
X47971027Y-28280747D01*
X48021074Y-28244385D01*
X48111253Y-28178866D01*
X48131323Y-28156576D01*
X48234621Y-28041852D01*
X48234625Y-28041847D01*
X48239040Y-28036944D01*
X48334527Y-27871556D01*
X48393542Y-27689928D01*
X48413504Y-27500000D01*
X51586496Y-27500000D01*
X51606458Y-27689928D01*
X51665473Y-27871556D01*
X51760960Y-28036944D01*
X51765375Y-28041847D01*
X51765379Y-28041852D01*
X51868677Y-28156576D01*
X51888747Y-28178866D01*
X51978926Y-28244385D01*
X52028974Y-28280747D01*
X52043248Y-28291118D01*
X52049276Y-28293802D01*
X52049278Y-28293803D01*
X52150611Y-28338919D01*
X52217712Y-28368794D01*
X52311113Y-28388647D01*
X52398056Y-28407128D01*
X52398061Y-28407128D01*
X52404513Y-28408500D01*
X52595487Y-28408500D01*
X52601939Y-28407128D01*
X52601944Y-28407128D01*
X52688888Y-28388647D01*
X52782288Y-28368794D01*
X52849389Y-28338919D01*
X52950722Y-28293803D01*
X52950724Y-28293802D01*
X52956752Y-28291118D01*
X52971027Y-28280747D01*
X53021074Y-28244385D01*
X53111253Y-28178866D01*
X53131323Y-28156576D01*
X53234621Y-28041852D01*
X53234625Y-28041847D01*
X53239040Y-28036944D01*
X53334527Y-27871556D01*
X53393542Y-27689928D01*
X53413504Y-27500000D01*
X56586496Y-27500000D01*
X56606458Y-27689928D01*
X56665473Y-27871556D01*
X56760960Y-28036944D01*
X56765375Y-28041847D01*
X56765379Y-28041852D01*
X56868677Y-28156576D01*
X56888747Y-28178866D01*
X56978926Y-28244385D01*
X57028974Y-28280747D01*
X57043248Y-28291118D01*
X57049276Y-28293802D01*
X57049278Y-28293803D01*
X57150611Y-28338919D01*
X57217712Y-28368794D01*
X57311113Y-28388647D01*
X57398056Y-28407128D01*
X57398061Y-28407128D01*
X57404513Y-28408500D01*
X57595487Y-28408500D01*
X57601939Y-28407128D01*
X57601944Y-28407128D01*
X57688888Y-28388647D01*
X57782288Y-28368794D01*
X57849389Y-28338919D01*
X57950722Y-28293803D01*
X57950724Y-28293802D01*
X57956752Y-28291118D01*
X57971027Y-28280747D01*
X58021074Y-28244385D01*
X58111253Y-28178866D01*
X58131323Y-28156576D01*
X58234621Y-28041852D01*
X58234625Y-28041847D01*
X58239040Y-28036944D01*
X58334527Y-27871556D01*
X58393542Y-27689928D01*
X58413504Y-27500000D01*
X61586496Y-27500000D01*
X61606458Y-27689928D01*
X61665473Y-27871556D01*
X61760960Y-28036944D01*
X61765375Y-28041847D01*
X61765379Y-28041852D01*
X61868677Y-28156576D01*
X61888747Y-28178866D01*
X61978926Y-28244385D01*
X62028974Y-28280747D01*
X62043248Y-28291118D01*
X62049276Y-28293802D01*
X62049278Y-28293803D01*
X62150611Y-28338919D01*
X62217712Y-28368794D01*
X62311113Y-28388647D01*
X62398056Y-28407128D01*
X62398061Y-28407128D01*
X62404513Y-28408500D01*
X62595487Y-28408500D01*
X62601939Y-28407128D01*
X62601944Y-28407128D01*
X62688888Y-28388647D01*
X62782288Y-28368794D01*
X62849389Y-28338919D01*
X62950722Y-28293803D01*
X62950724Y-28293802D01*
X62956752Y-28291118D01*
X62971027Y-28280747D01*
X63021074Y-28244385D01*
X63111253Y-28178866D01*
X63131323Y-28156576D01*
X63234621Y-28041852D01*
X63234625Y-28041847D01*
X63239040Y-28036944D01*
X63334527Y-27871556D01*
X63393542Y-27689928D01*
X63413504Y-27500000D01*
X66586496Y-27500000D01*
X66606458Y-27689928D01*
X66665473Y-27871556D01*
X66760960Y-28036944D01*
X66765375Y-28041847D01*
X66765379Y-28041852D01*
X66868677Y-28156576D01*
X66888747Y-28178866D01*
X66978926Y-28244385D01*
X67028974Y-28280747D01*
X67043248Y-28291118D01*
X67049276Y-28293802D01*
X67049278Y-28293803D01*
X67150611Y-28338919D01*
X67217712Y-28368794D01*
X67311113Y-28388647D01*
X67398056Y-28407128D01*
X67398061Y-28407128D01*
X67404513Y-28408500D01*
X67595487Y-28408500D01*
X67601939Y-28407128D01*
X67601944Y-28407128D01*
X67688888Y-28388647D01*
X67782288Y-28368794D01*
X67849389Y-28338919D01*
X67950722Y-28293803D01*
X67950724Y-28293802D01*
X67956752Y-28291118D01*
X67971027Y-28280747D01*
X68021074Y-28244385D01*
X68111253Y-28178866D01*
X68131323Y-28156576D01*
X68234621Y-28041852D01*
X68234625Y-28041847D01*
X68239040Y-28036944D01*
X68334527Y-27871556D01*
X68393542Y-27689928D01*
X68413504Y-27500000D01*
X71586496Y-27500000D01*
X71606458Y-27689928D01*
X71665473Y-27871556D01*
X71760960Y-28036944D01*
X71765375Y-28041847D01*
X71765379Y-28041852D01*
X71868677Y-28156576D01*
X71888747Y-28178866D01*
X71978926Y-28244385D01*
X72028974Y-28280747D01*
X72043248Y-28291118D01*
X72049276Y-28293802D01*
X72049278Y-28293803D01*
X72150611Y-28338919D01*
X72217712Y-28368794D01*
X72311113Y-28388647D01*
X72398056Y-28407128D01*
X72398061Y-28407128D01*
X72404513Y-28408500D01*
X72595487Y-28408500D01*
X72601939Y-28407128D01*
X72601944Y-28407128D01*
X72688888Y-28388647D01*
X72782288Y-28368794D01*
X72849389Y-28338919D01*
X72950722Y-28293803D01*
X72950724Y-28293802D01*
X72956752Y-28291118D01*
X72971027Y-28280747D01*
X73021074Y-28244385D01*
X73111253Y-28178866D01*
X73131323Y-28156576D01*
X73234621Y-28041852D01*
X73234625Y-28041847D01*
X73239040Y-28036944D01*
X73334527Y-27871556D01*
X73393542Y-27689928D01*
X73413504Y-27500000D01*
X74086496Y-27500000D01*
X74106458Y-27689928D01*
X74165473Y-27871556D01*
X74260960Y-28036944D01*
X74265375Y-28041847D01*
X74265379Y-28041852D01*
X74368677Y-28156576D01*
X74388747Y-28178866D01*
X74478926Y-28244385D01*
X74528974Y-28280747D01*
X74543248Y-28291118D01*
X74549276Y-28293802D01*
X74549278Y-28293803D01*
X74650611Y-28338919D01*
X74717712Y-28368794D01*
X74811113Y-28388647D01*
X74898056Y-28407128D01*
X74898061Y-28407128D01*
X74904513Y-28408500D01*
X75095487Y-28408500D01*
X75101939Y-28407128D01*
X75101944Y-28407128D01*
X75188888Y-28388647D01*
X75282288Y-28368794D01*
X75349389Y-28338919D01*
X75450722Y-28293803D01*
X75450724Y-28293802D01*
X75456752Y-28291118D01*
X75471027Y-28280747D01*
X75521074Y-28244385D01*
X75611253Y-28178866D01*
X75631323Y-28156576D01*
X75734621Y-28041852D01*
X75734625Y-28041847D01*
X75739040Y-28036944D01*
X75834527Y-27871556D01*
X75893542Y-27689928D01*
X75913504Y-27500000D01*
X76586496Y-27500000D01*
X76606458Y-27689928D01*
X76665473Y-27871556D01*
X76760960Y-28036944D01*
X76765375Y-28041847D01*
X76765379Y-28041852D01*
X76868677Y-28156576D01*
X76888747Y-28178866D01*
X76978926Y-28244385D01*
X77028974Y-28280747D01*
X77043248Y-28291118D01*
X77049276Y-28293802D01*
X77049278Y-28293803D01*
X77150611Y-28338919D01*
X77217712Y-28368794D01*
X77311113Y-28388647D01*
X77398056Y-28407128D01*
X77398061Y-28407128D01*
X77404513Y-28408500D01*
X77595487Y-28408500D01*
X77601939Y-28407128D01*
X77601944Y-28407128D01*
X77688888Y-28388647D01*
X77782288Y-28368794D01*
X77849389Y-28338919D01*
X77950722Y-28293803D01*
X77950724Y-28293802D01*
X77956752Y-28291118D01*
X77971027Y-28280747D01*
X78021074Y-28244385D01*
X78111253Y-28178866D01*
X78131323Y-28156576D01*
X78234621Y-28041852D01*
X78234625Y-28041847D01*
X78239040Y-28036944D01*
X78334527Y-27871556D01*
X78393542Y-27689928D01*
X78413504Y-27500000D01*
X78393542Y-27310072D01*
X78334527Y-27128444D01*
X78313990Y-27092872D01*
X78264160Y-27006565D01*
X78239040Y-26963056D01*
X78111253Y-26821134D01*
X77956752Y-26708882D01*
X77950724Y-26706198D01*
X77950722Y-26706197D01*
X77788319Y-26633891D01*
X77788318Y-26633891D01*
X77782288Y-26631206D01*
X77688888Y-26611353D01*
X77601944Y-26592872D01*
X77601939Y-26592872D01*
X77595487Y-26591500D01*
X77404513Y-26591500D01*
X77398061Y-26592872D01*
X77398056Y-26592872D01*
X77311113Y-26611353D01*
X77217712Y-26631206D01*
X77211682Y-26633891D01*
X77211681Y-26633891D01*
X77049278Y-26706197D01*
X77049276Y-26706198D01*
X77043248Y-26708882D01*
X76888747Y-26821134D01*
X76760960Y-26963056D01*
X76735840Y-27006565D01*
X76686011Y-27092872D01*
X76665473Y-27128444D01*
X76606458Y-27310072D01*
X76586496Y-27500000D01*
X75913504Y-27500000D01*
X75893542Y-27310072D01*
X75834527Y-27128444D01*
X75813990Y-27092872D01*
X75764160Y-27006565D01*
X75739040Y-26963056D01*
X75611253Y-26821134D01*
X75456752Y-26708882D01*
X75450724Y-26706198D01*
X75450722Y-26706197D01*
X75288319Y-26633891D01*
X75288318Y-26633891D01*
X75282288Y-26631206D01*
X75188888Y-26611353D01*
X75101944Y-26592872D01*
X75101939Y-26592872D01*
X75095487Y-26591500D01*
X74904513Y-26591500D01*
X74898061Y-26592872D01*
X74898056Y-26592872D01*
X74811113Y-26611353D01*
X74717712Y-26631206D01*
X74711682Y-26633891D01*
X74711681Y-26633891D01*
X74549278Y-26706197D01*
X74549276Y-26706198D01*
X74543248Y-26708882D01*
X74388747Y-26821134D01*
X74260960Y-26963056D01*
X74235840Y-27006565D01*
X74186011Y-27092872D01*
X74165473Y-27128444D01*
X74106458Y-27310072D01*
X74086496Y-27500000D01*
X73413504Y-27500000D01*
X73393542Y-27310072D01*
X73334527Y-27128444D01*
X73313990Y-27092872D01*
X73264160Y-27006565D01*
X73239040Y-26963056D01*
X73111253Y-26821134D01*
X72956752Y-26708882D01*
X72950724Y-26706198D01*
X72950722Y-26706197D01*
X72788319Y-26633891D01*
X72788318Y-26633891D01*
X72782288Y-26631206D01*
X72688888Y-26611353D01*
X72601944Y-26592872D01*
X72601939Y-26592872D01*
X72595487Y-26591500D01*
X72404513Y-26591500D01*
X72398061Y-26592872D01*
X72398056Y-26592872D01*
X72311113Y-26611353D01*
X72217712Y-26631206D01*
X72211682Y-26633891D01*
X72211681Y-26633891D01*
X72049278Y-26706197D01*
X72049276Y-26706198D01*
X72043248Y-26708882D01*
X71888747Y-26821134D01*
X71760960Y-26963056D01*
X71735840Y-27006565D01*
X71686011Y-27092872D01*
X71665473Y-27128444D01*
X71606458Y-27310072D01*
X71586496Y-27500000D01*
X68413504Y-27500000D01*
X68393542Y-27310072D01*
X68334527Y-27128444D01*
X68313990Y-27092872D01*
X68264160Y-27006565D01*
X68239040Y-26963056D01*
X68111253Y-26821134D01*
X67956752Y-26708882D01*
X67950724Y-26706198D01*
X67950722Y-26706197D01*
X67788319Y-26633891D01*
X67788318Y-26633891D01*
X67782288Y-26631206D01*
X67688888Y-26611353D01*
X67601944Y-26592872D01*
X67601939Y-26592872D01*
X67595487Y-26591500D01*
X67404513Y-26591500D01*
X67398061Y-26592872D01*
X67398056Y-26592872D01*
X67311113Y-26611353D01*
X67217712Y-26631206D01*
X67211682Y-26633891D01*
X67211681Y-26633891D01*
X67049278Y-26706197D01*
X67049276Y-26706198D01*
X67043248Y-26708882D01*
X66888747Y-26821134D01*
X66760960Y-26963056D01*
X66735840Y-27006565D01*
X66686011Y-27092872D01*
X66665473Y-27128444D01*
X66606458Y-27310072D01*
X66586496Y-27500000D01*
X63413504Y-27500000D01*
X63393542Y-27310072D01*
X63334527Y-27128444D01*
X63313990Y-27092872D01*
X63264160Y-27006565D01*
X63239040Y-26963056D01*
X63111253Y-26821134D01*
X62956752Y-26708882D01*
X62950724Y-26706198D01*
X62950722Y-26706197D01*
X62788319Y-26633891D01*
X62788318Y-26633891D01*
X62782288Y-26631206D01*
X62688888Y-26611353D01*
X62601944Y-26592872D01*
X62601939Y-26592872D01*
X62595487Y-26591500D01*
X62404513Y-26591500D01*
X62398061Y-26592872D01*
X62398056Y-26592872D01*
X62311113Y-26611353D01*
X62217712Y-26631206D01*
X62211682Y-26633891D01*
X62211681Y-26633891D01*
X62049278Y-26706197D01*
X62049276Y-26706198D01*
X62043248Y-26708882D01*
X61888747Y-26821134D01*
X61760960Y-26963056D01*
X61735840Y-27006565D01*
X61686011Y-27092872D01*
X61665473Y-27128444D01*
X61606458Y-27310072D01*
X61586496Y-27500000D01*
X58413504Y-27500000D01*
X58393542Y-27310072D01*
X58334527Y-27128444D01*
X58313990Y-27092872D01*
X58264160Y-27006565D01*
X58239040Y-26963056D01*
X58111253Y-26821134D01*
X57956752Y-26708882D01*
X57950724Y-26706198D01*
X57950722Y-26706197D01*
X57788319Y-26633891D01*
X57788318Y-26633891D01*
X57782288Y-26631206D01*
X57688888Y-26611353D01*
X57601944Y-26592872D01*
X57601939Y-26592872D01*
X57595487Y-26591500D01*
X57404513Y-26591500D01*
X57398061Y-26592872D01*
X57398056Y-26592872D01*
X57311113Y-26611353D01*
X57217712Y-26631206D01*
X57211682Y-26633891D01*
X57211681Y-26633891D01*
X57049278Y-26706197D01*
X57049276Y-26706198D01*
X57043248Y-26708882D01*
X56888747Y-26821134D01*
X56760960Y-26963056D01*
X56735840Y-27006565D01*
X56686011Y-27092872D01*
X56665473Y-27128444D01*
X56606458Y-27310072D01*
X56586496Y-27500000D01*
X53413504Y-27500000D01*
X53393542Y-27310072D01*
X53334527Y-27128444D01*
X53313990Y-27092872D01*
X53264160Y-27006565D01*
X53239040Y-26963056D01*
X53111253Y-26821134D01*
X52956752Y-26708882D01*
X52950724Y-26706198D01*
X52950722Y-26706197D01*
X52788319Y-26633891D01*
X52788318Y-26633891D01*
X52782288Y-26631206D01*
X52688888Y-26611353D01*
X52601944Y-26592872D01*
X52601939Y-26592872D01*
X52595487Y-26591500D01*
X52404513Y-26591500D01*
X52398061Y-26592872D01*
X52398056Y-26592872D01*
X52311113Y-26611353D01*
X52217712Y-26631206D01*
X52211682Y-26633891D01*
X52211681Y-26633891D01*
X52049278Y-26706197D01*
X52049276Y-26706198D01*
X52043248Y-26708882D01*
X51888747Y-26821134D01*
X51760960Y-26963056D01*
X51735840Y-27006565D01*
X51686011Y-27092872D01*
X51665473Y-27128444D01*
X51606458Y-27310072D01*
X51586496Y-27500000D01*
X48413504Y-27500000D01*
X48393542Y-27310072D01*
X48334527Y-27128444D01*
X48313990Y-27092872D01*
X48264160Y-27006565D01*
X48239040Y-26963056D01*
X48111253Y-26821134D01*
X47956752Y-26708882D01*
X47950724Y-26706198D01*
X47950722Y-26706197D01*
X47788319Y-26633891D01*
X47788318Y-26633891D01*
X47782288Y-26631206D01*
X47688888Y-26611353D01*
X47601944Y-26592872D01*
X47601939Y-26592872D01*
X47595487Y-26591500D01*
X47404513Y-26591500D01*
X47398061Y-26592872D01*
X47398056Y-26592872D01*
X47311113Y-26611353D01*
X47217712Y-26631206D01*
X47211682Y-26633891D01*
X47211681Y-26633891D01*
X47049278Y-26706197D01*
X47049276Y-26706198D01*
X47043248Y-26708882D01*
X46888747Y-26821134D01*
X46760960Y-26963056D01*
X46735840Y-27006565D01*
X46686011Y-27092872D01*
X46665473Y-27128444D01*
X46606458Y-27310072D01*
X46586496Y-27500000D01*
X43413504Y-27500000D01*
X43393542Y-27310072D01*
X43334527Y-27128444D01*
X43313990Y-27092872D01*
X43264160Y-27006565D01*
X43239040Y-26963056D01*
X43111253Y-26821134D01*
X42956752Y-26708882D01*
X42950724Y-26706198D01*
X42950722Y-26706197D01*
X42788319Y-26633891D01*
X42788318Y-26633891D01*
X42782288Y-26631206D01*
X42688888Y-26611353D01*
X42601944Y-26592872D01*
X42601939Y-26592872D01*
X42595487Y-26591500D01*
X42404513Y-26591500D01*
X42398061Y-26592872D01*
X42398056Y-26592872D01*
X42311113Y-26611353D01*
X42217712Y-26631206D01*
X42211682Y-26633891D01*
X42211681Y-26633891D01*
X42049278Y-26706197D01*
X42049276Y-26706198D01*
X42043248Y-26708882D01*
X41888747Y-26821134D01*
X41760960Y-26963056D01*
X41735840Y-27006565D01*
X41686011Y-27092872D01*
X41665473Y-27128444D01*
X41606458Y-27310072D01*
X41586496Y-27500000D01*
X41606458Y-27689928D01*
X41665473Y-27871556D01*
X41760960Y-28036944D01*
X41765375Y-28041847D01*
X41765379Y-28041852D01*
X41873726Y-28162184D01*
X41904444Y-28226191D01*
X41895679Y-28296645D01*
X41850216Y-28351176D01*
X41838272Y-28358256D01*
X41793607Y-28381507D01*
X41789474Y-28384610D01*
X41789471Y-28384612D01*
X41677378Y-28468774D01*
X41614965Y-28515635D01*
X41460629Y-28677138D01*
X41353201Y-28834621D01*
X41298293Y-28879621D01*
X41227768Y-28887792D01*
X41164021Y-28856538D01*
X41143324Y-28832054D01*
X41062822Y-28707617D01*
X41062820Y-28707614D01*
X41060014Y-28703277D01*
X40909670Y-28538051D01*
X40905619Y-28534852D01*
X40905615Y-28534848D01*
X40738414Y-28402800D01*
X40738410Y-28402798D01*
X40734359Y-28399598D01*
X40729831Y-28397098D01*
X40678557Y-28368794D01*
X40538789Y-28291638D01*
X40533920Y-28289914D01*
X40533916Y-28289912D01*
X40333087Y-28218795D01*
X40333083Y-28218794D01*
X40328212Y-28217069D01*
X40323119Y-28216162D01*
X40323116Y-28216161D01*
X40113373Y-28178800D01*
X40113367Y-28178799D01*
X40108284Y-28177894D01*
X40034452Y-28176992D01*
X39890081Y-28175228D01*
X39890079Y-28175228D01*
X39884911Y-28175165D01*
X39664091Y-28208955D01*
X39451756Y-28278357D01*
X39424734Y-28292424D01*
X39272723Y-28371556D01*
X39253607Y-28381507D01*
X39249474Y-28384610D01*
X39249471Y-28384612D01*
X39137378Y-28468774D01*
X39074965Y-28515635D01*
X38920629Y-28677138D01*
X38918910Y-28675495D01*
X38868680Y-28710221D01*
X38797724Y-28712614D01*
X38736738Y-28676265D01*
X38705086Y-28612714D01*
X38703865Y-28604199D01*
X38702598Y-28592539D01*
X38701745Y-28584684D01*
X38650615Y-28448295D01*
X38563261Y-28331739D01*
X38446705Y-28244385D01*
X38310316Y-28193255D01*
X38248134Y-28186500D01*
X36451866Y-28186500D01*
X36389684Y-28193255D01*
X36253295Y-28244385D01*
X36136739Y-28331739D01*
X36049385Y-28448295D01*
X35998255Y-28584684D01*
X35991500Y-28646866D01*
X35991500Y-30443134D01*
X33293201Y-30443134D01*
X33323132Y-30391293D01*
X33331223Y-30377279D01*
X33331224Y-30377278D01*
X33334527Y-30371556D01*
X33393542Y-30189928D01*
X33397188Y-30155243D01*
X33412814Y-30006565D01*
X33413504Y-30000000D01*
X33393542Y-29810072D01*
X33334527Y-29628444D01*
X33320939Y-29604908D01*
X33280577Y-29535000D01*
X33239040Y-29463056D01*
X33111253Y-29321134D01*
X32956752Y-29208882D01*
X32950724Y-29206198D01*
X32950722Y-29206197D01*
X32788319Y-29133891D01*
X32788318Y-29133891D01*
X32782288Y-29131206D01*
X32688887Y-29111353D01*
X32601944Y-29092872D01*
X32601939Y-29092872D01*
X32595487Y-29091500D01*
X32404513Y-29091500D01*
X32398061Y-29092872D01*
X32398056Y-29092872D01*
X32311113Y-29111353D01*
X32217712Y-29131206D01*
X32211682Y-29133891D01*
X32211681Y-29133891D01*
X32049278Y-29206197D01*
X32049276Y-29206198D01*
X32043248Y-29208882D01*
X31888747Y-29321134D01*
X31760960Y-29463056D01*
X31719423Y-29535000D01*
X31679062Y-29604908D01*
X31665473Y-29628444D01*
X31606458Y-29810072D01*
X31586496Y-30000000D01*
X30913504Y-30000000D01*
X30893542Y-29810072D01*
X30834527Y-29628444D01*
X30820939Y-29604908D01*
X30780577Y-29535000D01*
X30739040Y-29463056D01*
X30611253Y-29321134D01*
X30456752Y-29208882D01*
X30450724Y-29206198D01*
X30450722Y-29206197D01*
X30288319Y-29133891D01*
X30288318Y-29133891D01*
X30282288Y-29131206D01*
X30188887Y-29111353D01*
X30101944Y-29092872D01*
X30101939Y-29092872D01*
X30095487Y-29091500D01*
X29904513Y-29091500D01*
X29898061Y-29092872D01*
X29898056Y-29092872D01*
X29811113Y-29111353D01*
X29717712Y-29131206D01*
X29711682Y-29133891D01*
X29711681Y-29133891D01*
X29549278Y-29206197D01*
X29549276Y-29206198D01*
X29543248Y-29208882D01*
X29388747Y-29321134D01*
X29260960Y-29463056D01*
X29219423Y-29535000D01*
X29179062Y-29604908D01*
X29165473Y-29628444D01*
X29106458Y-29810072D01*
X29086496Y-30000000D01*
X29087186Y-30006565D01*
X29102813Y-30155243D01*
X29106458Y-30189928D01*
X29165473Y-30371556D01*
X29168776Y-30377278D01*
X29168777Y-30377279D01*
X29176868Y-30391293D01*
X29260960Y-30536944D01*
X29265378Y-30541851D01*
X29265379Y-30541852D01*
X29361757Y-30648891D01*
X29388747Y-30678866D01*
X29508926Y-30766181D01*
X29517023Y-30772064D01*
X29560377Y-30828286D01*
X29566452Y-30899022D01*
X29533321Y-30961814D01*
X29471501Y-30996726D01*
X29442962Y-31000000D01*
X20634500Y-31000000D01*
X20566379Y-30979998D01*
X20519886Y-30926342D01*
X20508500Y-30874000D01*
X20508500Y-23471585D01*
X20786698Y-23471585D01*
X20802936Y-23797759D01*
X20803577Y-23801490D01*
X20803578Y-23801498D01*
X20818109Y-23886060D01*
X20858241Y-24119619D01*
X20951814Y-24432504D01*
X21082297Y-24731881D01*
X21084220Y-24735152D01*
X21084222Y-24735156D01*
X21126584Y-24807215D01*
X21247802Y-25013414D01*
X21250103Y-25016429D01*
X21443631Y-25270012D01*
X21443636Y-25270017D01*
X21445931Y-25273025D01*
X21673814Y-25506953D01*
X21746635Y-25565607D01*
X21925196Y-25709431D01*
X21925201Y-25709435D01*
X21928149Y-25711809D01*
X22008623Y-25761997D01*
X22163772Y-25858757D01*
X22210988Y-25911777D01*
X22222044Y-25981907D01*
X22193430Y-26046882D01*
X22134230Y-26086072D01*
X22095487Y-26089851D01*
X22095487Y-26091500D01*
X21904513Y-26091500D01*
X21898061Y-26092872D01*
X21898056Y-26092872D01*
X21811113Y-26111353D01*
X21717712Y-26131206D01*
X21711682Y-26133891D01*
X21711681Y-26133891D01*
X21549278Y-26206197D01*
X21549276Y-26206198D01*
X21543248Y-26208882D01*
X21388747Y-26321134D01*
X21260960Y-26463056D01*
X21257659Y-26468774D01*
X21186011Y-26592872D01*
X21165473Y-26628444D01*
X21106458Y-26810072D01*
X21105768Y-26816633D01*
X21105768Y-26816635D01*
X21101720Y-26855151D01*
X21086496Y-27000000D01*
X21106458Y-27189928D01*
X21165473Y-27371556D01*
X21260960Y-27536944D01*
X21388747Y-27678866D01*
X21543248Y-27791118D01*
X21549276Y-27793802D01*
X21549278Y-27793803D01*
X21600560Y-27816635D01*
X21717712Y-27868794D01*
X21755156Y-27876753D01*
X21817629Y-27910482D01*
X21851951Y-27972631D01*
X21847223Y-28043470D01*
X21804947Y-28100508D01*
X21755156Y-28123247D01*
X21717712Y-28131206D01*
X21711682Y-28133891D01*
X21711681Y-28133891D01*
X21549278Y-28206197D01*
X21549276Y-28206198D01*
X21543248Y-28208882D01*
X21537907Y-28212762D01*
X21537906Y-28212763D01*
X21487843Y-28249136D01*
X21388747Y-28321134D01*
X21260960Y-28463056D01*
X21165473Y-28628444D01*
X21106458Y-28810072D01*
X21105768Y-28816633D01*
X21105768Y-28816635D01*
X21101034Y-28861680D01*
X21086496Y-29000000D01*
X21087186Y-29006565D01*
X21102993Y-29156956D01*
X21106458Y-29189928D01*
X21165473Y-29371556D01*
X21260960Y-29536944D01*
X21265378Y-29541851D01*
X21265379Y-29541852D01*
X21370199Y-29658266D01*
X21388747Y-29678866D01*
X21543248Y-29791118D01*
X21549276Y-29793802D01*
X21549278Y-29793803D01*
X21600560Y-29816635D01*
X21717712Y-29868794D01*
X21811112Y-29888647D01*
X21898056Y-29907128D01*
X21898061Y-29907128D01*
X21904513Y-29908500D01*
X22095487Y-29908500D01*
X22101939Y-29907128D01*
X22101944Y-29907128D01*
X22188888Y-29888647D01*
X22282288Y-29868794D01*
X22399440Y-29816635D01*
X22450722Y-29793803D01*
X22450724Y-29793802D01*
X22456752Y-29791118D01*
X22611253Y-29678866D01*
X22629801Y-29658266D01*
X22734621Y-29541852D01*
X22734622Y-29541851D01*
X22739040Y-29536944D01*
X22834527Y-29371556D01*
X22880167Y-29231090D01*
X22920241Y-29172486D01*
X22985637Y-29144849D01*
X23055594Y-29156956D01*
X23107900Y-29204962D01*
X23119832Y-29231089D01*
X23165473Y-29371556D01*
X23260960Y-29536944D01*
X23265378Y-29541851D01*
X23265379Y-29541852D01*
X23370199Y-29658266D01*
X23388747Y-29678866D01*
X23543248Y-29791118D01*
X23549276Y-29793802D01*
X23549278Y-29793803D01*
X23600560Y-29816635D01*
X23717712Y-29868794D01*
X23811112Y-29888647D01*
X23898056Y-29907128D01*
X23898061Y-29907128D01*
X23904513Y-29908500D01*
X24095487Y-29908500D01*
X24101939Y-29907128D01*
X24101944Y-29907128D01*
X24188888Y-29888647D01*
X24282288Y-29868794D01*
X24399440Y-29816635D01*
X24450722Y-29793803D01*
X24450724Y-29793802D01*
X24456752Y-29791118D01*
X24611253Y-29678866D01*
X24629801Y-29658266D01*
X24734621Y-29541852D01*
X24734622Y-29541851D01*
X24739040Y-29536944D01*
X24834527Y-29371556D01*
X24880167Y-29231090D01*
X24920241Y-29172486D01*
X24985637Y-29144849D01*
X25055594Y-29156956D01*
X25107900Y-29204962D01*
X25119832Y-29231089D01*
X25165473Y-29371556D01*
X25260960Y-29536944D01*
X25265378Y-29541851D01*
X25265379Y-29541852D01*
X25370199Y-29658266D01*
X25388747Y-29678866D01*
X25543248Y-29791118D01*
X25549276Y-29793802D01*
X25549278Y-29793803D01*
X25600560Y-29816635D01*
X25717712Y-29868794D01*
X25811112Y-29888647D01*
X25898056Y-29907128D01*
X25898061Y-29907128D01*
X25904513Y-29908500D01*
X26095487Y-29908500D01*
X26101939Y-29907128D01*
X26101944Y-29907128D01*
X26188888Y-29888647D01*
X26282288Y-29868794D01*
X26399440Y-29816635D01*
X26450722Y-29793803D01*
X26450724Y-29793802D01*
X26456752Y-29791118D01*
X26611253Y-29678866D01*
X26629801Y-29658266D01*
X26734621Y-29541852D01*
X26734622Y-29541851D01*
X26739040Y-29536944D01*
X26834527Y-29371556D01*
X26893542Y-29189928D01*
X26897008Y-29156956D01*
X26908514Y-29047475D01*
X26911262Y-29021329D01*
X26938275Y-28955673D01*
X26996497Y-28915043D01*
X27036572Y-28908500D01*
X27095487Y-28908500D01*
X27101939Y-28907128D01*
X27101944Y-28907128D01*
X27199026Y-28886492D01*
X27282288Y-28868794D01*
X27288319Y-28866109D01*
X27450722Y-28793803D01*
X27450724Y-28793802D01*
X27456752Y-28791118D01*
X27611253Y-28678866D01*
X27661806Y-28622721D01*
X27734621Y-28541852D01*
X27734622Y-28541851D01*
X27739040Y-28536944D01*
X27813197Y-28408500D01*
X27831223Y-28377279D01*
X27831224Y-28377278D01*
X27834527Y-28371556D01*
X27893542Y-28189928D01*
X27894814Y-28177831D01*
X27912814Y-28006565D01*
X27913504Y-28000000D01*
X27900606Y-27877279D01*
X27894232Y-27816635D01*
X27894232Y-27816633D01*
X27893542Y-27810072D01*
X27834527Y-27628444D01*
X27760370Y-27500000D01*
X29086496Y-27500000D01*
X29106458Y-27689928D01*
X29165473Y-27871556D01*
X29260960Y-28036944D01*
X29265375Y-28041847D01*
X29265379Y-28041852D01*
X29368677Y-28156576D01*
X29388747Y-28178866D01*
X29478926Y-28244385D01*
X29528974Y-28280747D01*
X29543248Y-28291118D01*
X29549276Y-28293802D01*
X29549278Y-28293803D01*
X29650611Y-28338919D01*
X29717712Y-28368794D01*
X29811113Y-28388647D01*
X29898056Y-28407128D01*
X29898061Y-28407128D01*
X29904513Y-28408500D01*
X30095487Y-28408500D01*
X30101939Y-28407128D01*
X30101944Y-28407128D01*
X30188888Y-28388647D01*
X30282288Y-28368794D01*
X30349389Y-28338919D01*
X30450722Y-28293803D01*
X30450724Y-28293802D01*
X30456752Y-28291118D01*
X30471027Y-28280747D01*
X30521074Y-28244385D01*
X30611253Y-28178866D01*
X30631323Y-28156576D01*
X30734621Y-28041852D01*
X30734625Y-28041847D01*
X30739040Y-28036944D01*
X30834527Y-27871556D01*
X30893542Y-27689928D01*
X30913504Y-27500000D01*
X31586496Y-27500000D01*
X31606458Y-27689928D01*
X31665473Y-27871556D01*
X31760960Y-28036944D01*
X31765375Y-28041847D01*
X31765379Y-28041852D01*
X31868677Y-28156576D01*
X31888747Y-28178866D01*
X31978926Y-28244385D01*
X32028974Y-28280747D01*
X32043248Y-28291118D01*
X32049276Y-28293802D01*
X32049278Y-28293803D01*
X32150611Y-28338919D01*
X32217712Y-28368794D01*
X32311113Y-28388647D01*
X32398056Y-28407128D01*
X32398061Y-28407128D01*
X32404513Y-28408500D01*
X32595487Y-28408500D01*
X32601939Y-28407128D01*
X32601944Y-28407128D01*
X32688888Y-28388647D01*
X32782288Y-28368794D01*
X32849389Y-28338919D01*
X32950722Y-28293803D01*
X32950724Y-28293802D01*
X32956752Y-28291118D01*
X32971027Y-28280747D01*
X33021074Y-28244385D01*
X33111253Y-28178866D01*
X33131323Y-28156576D01*
X33234621Y-28041852D01*
X33234625Y-28041847D01*
X33239040Y-28036944D01*
X33334527Y-27871556D01*
X33393542Y-27689928D01*
X33413504Y-27500000D01*
X33393542Y-27310072D01*
X33334527Y-27128444D01*
X33313990Y-27092872D01*
X33264160Y-27006565D01*
X33239040Y-26963056D01*
X33111253Y-26821134D01*
X32956752Y-26708882D01*
X32950724Y-26706198D01*
X32950722Y-26706197D01*
X32788319Y-26633891D01*
X32788318Y-26633891D01*
X32782288Y-26631206D01*
X32688888Y-26611353D01*
X32601944Y-26592872D01*
X32601939Y-26592872D01*
X32595487Y-26591500D01*
X32404513Y-26591500D01*
X32398061Y-26592872D01*
X32398056Y-26592872D01*
X32311113Y-26611353D01*
X32217712Y-26631206D01*
X32211682Y-26633891D01*
X32211681Y-26633891D01*
X32049278Y-26706197D01*
X32049276Y-26706198D01*
X32043248Y-26708882D01*
X31888747Y-26821134D01*
X31760960Y-26963056D01*
X31735840Y-27006565D01*
X31686011Y-27092872D01*
X31665473Y-27128444D01*
X31606458Y-27310072D01*
X31586496Y-27500000D01*
X30913504Y-27500000D01*
X30893542Y-27310072D01*
X30834527Y-27128444D01*
X30813990Y-27092872D01*
X30764160Y-27006565D01*
X30739040Y-26963056D01*
X30611253Y-26821134D01*
X30456752Y-26708882D01*
X30450724Y-26706198D01*
X30450722Y-26706197D01*
X30288319Y-26633891D01*
X30288318Y-26633891D01*
X30282288Y-26631206D01*
X30188888Y-26611353D01*
X30101944Y-26592872D01*
X30101939Y-26592872D01*
X30095487Y-26591500D01*
X29904513Y-26591500D01*
X29898061Y-26592872D01*
X29898056Y-26592872D01*
X29811113Y-26611353D01*
X29717712Y-26631206D01*
X29711682Y-26633891D01*
X29711681Y-26633891D01*
X29549278Y-26706197D01*
X29549276Y-26706198D01*
X29543248Y-26708882D01*
X29388747Y-26821134D01*
X29260960Y-26963056D01*
X29235840Y-27006565D01*
X29186011Y-27092872D01*
X29165473Y-27128444D01*
X29106458Y-27310072D01*
X29086496Y-27500000D01*
X27760370Y-27500000D01*
X27739040Y-27463056D01*
X27611253Y-27321134D01*
X27456752Y-27208882D01*
X27450724Y-27206198D01*
X27450722Y-27206197D01*
X27288319Y-27133891D01*
X27288318Y-27133891D01*
X27282288Y-27131206D01*
X27188888Y-27111353D01*
X27101944Y-27092872D01*
X27101939Y-27092872D01*
X27095487Y-27091500D01*
X27036572Y-27091500D01*
X26968451Y-27071498D01*
X26921958Y-27017842D01*
X26911262Y-26978670D01*
X26894232Y-26816635D01*
X26894232Y-26816633D01*
X26893542Y-26810072D01*
X26834527Y-26628444D01*
X26813990Y-26592872D01*
X26742341Y-26468774D01*
X26739040Y-26463056D01*
X26611253Y-26321134D01*
X26456752Y-26208882D01*
X26450724Y-26206198D01*
X26450722Y-26206197D01*
X26288319Y-26133891D01*
X26288318Y-26133891D01*
X26282288Y-26131206D01*
X26188888Y-26111353D01*
X26101944Y-26092872D01*
X26101939Y-26092872D01*
X26095487Y-26091500D01*
X25904513Y-26091500D01*
X25898061Y-26092872D01*
X25898056Y-26092872D01*
X25811113Y-26111353D01*
X25717712Y-26131206D01*
X25711682Y-26133891D01*
X25711681Y-26133891D01*
X25549278Y-26206197D01*
X25549276Y-26206198D01*
X25543248Y-26208882D01*
X25388747Y-26321134D01*
X25260960Y-26463056D01*
X25257659Y-26468774D01*
X25186011Y-26592872D01*
X25165473Y-26628444D01*
X25140210Y-26706197D01*
X25119833Y-26768909D01*
X25079759Y-26827514D01*
X25014363Y-26855151D01*
X24944406Y-26843044D01*
X24892100Y-26795038D01*
X24880167Y-26768909D01*
X24859791Y-26706197D01*
X24834527Y-26628444D01*
X24813990Y-26592872D01*
X24742341Y-26468774D01*
X24739040Y-26463056D01*
X24611253Y-26321134D01*
X24525564Y-26258877D01*
X24487241Y-26231033D01*
X24443887Y-26174810D01*
X24437812Y-26104074D01*
X24470944Y-26041282D01*
X24511564Y-26013329D01*
X24584701Y-25981907D01*
X24719205Y-25924119D01*
X25001601Y-25760091D01*
X25262245Y-25563324D01*
X25497363Y-25336670D01*
X25703549Y-25083410D01*
X25756177Y-25000000D01*
X26586496Y-25000000D01*
X26606458Y-25189928D01*
X26665473Y-25371556D01*
X26760960Y-25536944D01*
X26765378Y-25541851D01*
X26765379Y-25541852D01*
X26786768Y-25565607D01*
X26888747Y-25678866D01*
X26930816Y-25709431D01*
X27003167Y-25761997D01*
X27043248Y-25791118D01*
X27049276Y-25793802D01*
X27049278Y-25793803D01*
X27195168Y-25858757D01*
X27217712Y-25868794D01*
X27292200Y-25884627D01*
X27398056Y-25907128D01*
X27398061Y-25907128D01*
X27404513Y-25908500D01*
X27595487Y-25908500D01*
X27601939Y-25907128D01*
X27601944Y-25907128D01*
X27707800Y-25884627D01*
X27782288Y-25868794D01*
X27804832Y-25858757D01*
X27950722Y-25793803D01*
X27950724Y-25793802D01*
X27956752Y-25791118D01*
X27996834Y-25761997D01*
X28069184Y-25709431D01*
X28111253Y-25678866D01*
X28213232Y-25565607D01*
X28234621Y-25541852D01*
X28234622Y-25541851D01*
X28239040Y-25536944D01*
X28334527Y-25371556D01*
X28393542Y-25189928D01*
X28413504Y-25000000D01*
X29086496Y-25000000D01*
X29106458Y-25189928D01*
X29165473Y-25371556D01*
X29260960Y-25536944D01*
X29265378Y-25541851D01*
X29265379Y-25541852D01*
X29286768Y-25565607D01*
X29388747Y-25678866D01*
X29430816Y-25709431D01*
X29503167Y-25761997D01*
X29543248Y-25791118D01*
X29549276Y-25793802D01*
X29549278Y-25793803D01*
X29695168Y-25858757D01*
X29717712Y-25868794D01*
X29792200Y-25884627D01*
X29898056Y-25907128D01*
X29898061Y-25907128D01*
X29904513Y-25908500D01*
X30095487Y-25908500D01*
X30101939Y-25907128D01*
X30101944Y-25907128D01*
X30207800Y-25884627D01*
X30282288Y-25868794D01*
X30304832Y-25858757D01*
X30450722Y-25793803D01*
X30450724Y-25793802D01*
X30456752Y-25791118D01*
X30496834Y-25761997D01*
X30569184Y-25709431D01*
X30611253Y-25678866D01*
X30713232Y-25565607D01*
X30734621Y-25541852D01*
X30734622Y-25541851D01*
X30739040Y-25536944D01*
X30834527Y-25371556D01*
X30893542Y-25189928D01*
X30913504Y-25000000D01*
X30893542Y-24810072D01*
X30834527Y-24628444D01*
X30739040Y-24463056D01*
X30611253Y-24321134D01*
X30456752Y-24208882D01*
X30450724Y-24206198D01*
X30450722Y-24206197D01*
X30288319Y-24133891D01*
X30288318Y-24133891D01*
X30282288Y-24131206D01*
X30188888Y-24111353D01*
X30101944Y-24092872D01*
X30101939Y-24092872D01*
X30095487Y-24091500D01*
X29904513Y-24091500D01*
X29898061Y-24092872D01*
X29898056Y-24092872D01*
X29811113Y-24111353D01*
X29717712Y-24131206D01*
X29711682Y-24133891D01*
X29711681Y-24133891D01*
X29549278Y-24206197D01*
X29549276Y-24206198D01*
X29543248Y-24208882D01*
X29388747Y-24321134D01*
X29260960Y-24463056D01*
X29165473Y-24628444D01*
X29106458Y-24810072D01*
X29086496Y-25000000D01*
X28413504Y-25000000D01*
X28393542Y-24810072D01*
X28334527Y-24628444D01*
X28239040Y-24463056D01*
X28111253Y-24321134D01*
X27956752Y-24208882D01*
X27950724Y-24206198D01*
X27950722Y-24206197D01*
X27788319Y-24133891D01*
X27788318Y-24133891D01*
X27782288Y-24131206D01*
X27688888Y-24111353D01*
X27601944Y-24092872D01*
X27601939Y-24092872D01*
X27595487Y-24091500D01*
X27404513Y-24091500D01*
X27398061Y-24092872D01*
X27398056Y-24092872D01*
X27311113Y-24111353D01*
X27217712Y-24131206D01*
X27211682Y-24133891D01*
X27211681Y-24133891D01*
X27049278Y-24206197D01*
X27049276Y-24206198D01*
X27043248Y-24208882D01*
X26888747Y-24321134D01*
X26760960Y-24463056D01*
X26665473Y-24628444D01*
X26606458Y-24810072D01*
X26586496Y-25000000D01*
X25756177Y-25000000D01*
X25760319Y-24993435D01*
X25875788Y-24810428D01*
X25875790Y-24810425D01*
X25877815Y-24807215D01*
X26017638Y-24512084D01*
X26018840Y-24508482D01*
X26119790Y-24205897D01*
X26119792Y-24205891D01*
X26120992Y-24202293D01*
X26186381Y-23882329D01*
X26192956Y-23801498D01*
X26212674Y-23559061D01*
X26212856Y-23556826D01*
X26213451Y-23500000D01*
X26211510Y-23467796D01*
X26194026Y-23177793D01*
X26194026Y-23177789D01*
X26193798Y-23174015D01*
X26188650Y-23145824D01*
X26135805Y-22856473D01*
X26135804Y-22856469D01*
X26135125Y-22852751D01*
X26127722Y-22828907D01*
X26039404Y-22544477D01*
X26038282Y-22540863D01*
X26019960Y-22500000D01*
X26586496Y-22500000D01*
X26606458Y-22689928D01*
X26665473Y-22871556D01*
X26760960Y-23036944D01*
X26888747Y-23178866D01*
X27043248Y-23291118D01*
X27049276Y-23293802D01*
X27049278Y-23293803D01*
X27211681Y-23366109D01*
X27217712Y-23368794D01*
X27311112Y-23388647D01*
X27398056Y-23407128D01*
X27398061Y-23407128D01*
X27404513Y-23408500D01*
X27595487Y-23408500D01*
X27601939Y-23407128D01*
X27601944Y-23407128D01*
X27688888Y-23388647D01*
X27782288Y-23368794D01*
X27788319Y-23366109D01*
X27950722Y-23293803D01*
X27950724Y-23293802D01*
X27956752Y-23291118D01*
X28111253Y-23178866D01*
X28239040Y-23036944D01*
X28334527Y-22871556D01*
X28393542Y-22689928D01*
X28413504Y-22500000D01*
X29086496Y-22500000D01*
X29106458Y-22689928D01*
X29165473Y-22871556D01*
X29260960Y-23036944D01*
X29388747Y-23178866D01*
X29543248Y-23291118D01*
X29549276Y-23293802D01*
X29549278Y-23293803D01*
X29711681Y-23366109D01*
X29717712Y-23368794D01*
X29811112Y-23388647D01*
X29898056Y-23407128D01*
X29898061Y-23407128D01*
X29904513Y-23408500D01*
X30095487Y-23408500D01*
X30101939Y-23407128D01*
X30101944Y-23407128D01*
X30188888Y-23388647D01*
X30282288Y-23368794D01*
X30288319Y-23366109D01*
X30450722Y-23293803D01*
X30450724Y-23293802D01*
X30456752Y-23291118D01*
X30611253Y-23178866D01*
X30739040Y-23036944D01*
X30834527Y-22871556D01*
X30893542Y-22689928D01*
X30913504Y-22500000D01*
X30893542Y-22310072D01*
X30834527Y-22128444D01*
X30739040Y-21963056D01*
X30720965Y-21942981D01*
X30615675Y-21826045D01*
X30615674Y-21826044D01*
X30611253Y-21821134D01*
X30456752Y-21708882D01*
X30450724Y-21706198D01*
X30450722Y-21706197D01*
X30288319Y-21633891D01*
X30288318Y-21633891D01*
X30282288Y-21631206D01*
X30188887Y-21611353D01*
X30101944Y-21592872D01*
X30101939Y-21592872D01*
X30095487Y-21591500D01*
X29904513Y-21591500D01*
X29898061Y-21592872D01*
X29898056Y-21592872D01*
X29811113Y-21611353D01*
X29717712Y-21631206D01*
X29711682Y-21633891D01*
X29711681Y-21633891D01*
X29549278Y-21706197D01*
X29549276Y-21706198D01*
X29543248Y-21708882D01*
X29388747Y-21821134D01*
X29384326Y-21826044D01*
X29384325Y-21826045D01*
X29279036Y-21942981D01*
X29260960Y-21963056D01*
X29165473Y-22128444D01*
X29106458Y-22310072D01*
X29086496Y-22500000D01*
X28413504Y-22500000D01*
X28393542Y-22310072D01*
X28334527Y-22128444D01*
X28239040Y-21963056D01*
X28220965Y-21942981D01*
X28115675Y-21826045D01*
X28115674Y-21826044D01*
X28111253Y-21821134D01*
X27956752Y-21708882D01*
X27950724Y-21706198D01*
X27950722Y-21706197D01*
X27788319Y-21633891D01*
X27788318Y-21633891D01*
X27782288Y-21631206D01*
X27688887Y-21611353D01*
X27601944Y-21592872D01*
X27601939Y-21592872D01*
X27595487Y-21591500D01*
X27404513Y-21591500D01*
X27398061Y-21592872D01*
X27398056Y-21592872D01*
X27311113Y-21611353D01*
X27217712Y-21631206D01*
X27211682Y-21633891D01*
X27211681Y-21633891D01*
X27049278Y-21706197D01*
X27049276Y-21706198D01*
X27043248Y-21708882D01*
X26888747Y-21821134D01*
X26884326Y-21826044D01*
X26884325Y-21826045D01*
X26779036Y-21942981D01*
X26760960Y-21963056D01*
X26665473Y-22128444D01*
X26606458Y-22310072D01*
X26586496Y-22500000D01*
X26019960Y-22500000D01*
X25904670Y-22242869D01*
X25736226Y-21963084D01*
X25733899Y-21960100D01*
X25733894Y-21960093D01*
X25537726Y-21708558D01*
X25537724Y-21708556D01*
X25535390Y-21705563D01*
X25305070Y-21474034D01*
X25048603Y-21271852D01*
X24769705Y-21101945D01*
X24766261Y-21100379D01*
X24766257Y-21100377D01*
X24655667Y-21050095D01*
X24472414Y-20966775D01*
X24161037Y-20868300D01*
X23943492Y-20827390D01*
X23843809Y-20808645D01*
X23843807Y-20808645D01*
X23840086Y-20807945D01*
X23514208Y-20786586D01*
X23510428Y-20786794D01*
X23510427Y-20786794D01*
X23412897Y-20792162D01*
X23188124Y-20804532D01*
X23184397Y-20805193D01*
X23184393Y-20805193D01*
X23027341Y-20833027D01*
X22866557Y-20861522D01*
X22862941Y-20862624D01*
X22862933Y-20862626D01*
X22557789Y-20955627D01*
X22554167Y-20956731D01*
X22255477Y-21088781D01*
X22230041Y-21103914D01*
X21978074Y-21253817D01*
X21978068Y-21253821D01*
X21974814Y-21255757D01*
X21716244Y-21455243D01*
X21483513Y-21684347D01*
X21481149Y-21687314D01*
X21481146Y-21687317D01*
X21464220Y-21708558D01*
X21279991Y-21939751D01*
X21108626Y-22217757D01*
X20971902Y-22514336D01*
X20970741Y-22517940D01*
X20970741Y-22517941D01*
X20962196Y-22544477D01*
X20871797Y-22825192D01*
X20871079Y-22828903D01*
X20871078Y-22828907D01*
X20810482Y-23142105D01*
X20810481Y-23142114D01*
X20809763Y-23145824D01*
X20809496Y-23149600D01*
X20809495Y-23149605D01*
X20786966Y-23467796D01*
X20786698Y-23471585D01*
X20508500Y-23471585D01*
X20508500Y-20634500D01*
X20528502Y-20566379D01*
X20582158Y-20519886D01*
X20634500Y-20508500D01*
X89365500Y-20508500D01*
X89433621Y-20528502D01*
G37*
%TD.AperFunction*%
M02*
