M48
; DRILL file {KiCad (6.0.8-1)-1} date Thursday, 24 November 2022 at 03:29:22
; FORMAT={-:-/ absolute / inch / decimal}
; #@! TF.CreationDate,2022-11-24T03:29:22+08:00
; #@! TF.GenerationSoftware,Kicad,Pcbnew,(6.0.8-1)-1
; #@! TF.FileFunction,Plated,1,4,PTH
FMAT,2
INCH
; #@! TA.AperFunction,Plated,PTH,ViaDrill
T1C0.0079
; #@! TA.AperFunction,Plated,PTH,ViaDrill
T2C0.0157
; #@! TA.AperFunction,Plated,PTH,ComponentDrill
T3C0.0360
; #@! TA.AperFunction,Plated,PTH,ComponentDrill
T4C0.0360
; #@! TA.AperFunction,Plated,PTH,ComponentDrill
T5C0.0394
; #@! TA.AperFunction,Plated,PTH,ComponentDrill
T6C0.0433
; #@! TA.AperFunction,Plated,PTH,ComponentDrill
T7C0.0551
; #@! TA.AperFunction,Plated,PTH,ComponentDrill
T8C0.0669
; #@! TA.AperFunction,Plated,PTH,ComponentDrill
T9C0.0866
; #@! TA.AperFunction,Plated,PTH,ComponentDrill
T10C0.1299
%
G90
G05
T1
X1.3771Y-2.0404
X1.378Y-2.2913
X1.3937Y-1.8268
X1.9055Y-1.9291
X1.937Y-2.1142
X1.937Y-2.2165
X1.937Y-2.3661
T2
X0.8661Y-1.063
X0.8661Y-1.1417
X0.9055Y-1.1024
X0.9449Y-1.063
X0.9449Y-1.1417
X0.9843Y-1.1024
X1.0236Y-1.063
X1.0236Y-1.1417
X1.063Y-1.1024
X1.0827Y-0.8858
X1.0827Y-0.9843
X1.0827Y-2.5591
X1.0827Y-2.6575
X1.1654Y-1.6457
X1.1654Y-1.7047
X1.1811Y-0.8858
X1.1811Y-0.9843
X1.1811Y-1.0827
X1.1811Y-1.1811
X1.1811Y-2.5591
X1.1811Y-2.6575
X1.2795Y-1.0827
X1.2795Y-1.1811
X1.2795Y-2.5591
X1.2795Y-2.6575
X1.378Y-2.5591
X1.378Y-2.6575
X1.4764Y-2.5591
X1.4764Y-2.6575
X1.5453Y-2.5295
X1.5945Y-2.5295
X1.626Y-1.5827
X1.6437Y-2.5295
X1.6732Y-1.0827
X1.8701Y-1.0827
X1.9685Y-1.1811
X2.0669Y-1.0827
X2.0669Y-1.2795
X2.1654Y-1.1811
X2.1654Y-1.378
X2.2638Y-1.0827
X2.2638Y-1.2795
X2.3622Y-1.1811
X2.3622Y-1.378
X2.4606Y-1.0827
X2.4606Y-1.2795
X2.4606Y-1.4764
X2.5591Y-1.1811
X2.5591Y-1.378
X2.5591Y-1.4764
X2.6575Y-1.0827
X2.6575Y-1.2795
X2.6575Y-1.4764
X2.6575Y-1.5748
X2.6575Y-1.6732
X2.6575Y-1.7717
X2.6575Y-1.8701
X2.6839Y-2.1969
X2.685Y-1.9606
X2.7559Y-1.1811
X2.7559Y-1.378
X2.7559Y-1.4764
X2.7559Y-1.5748
X2.7559Y-1.6732
X2.7559Y-1.7717
X2.7559Y-1.8701
X2.8307Y-2.6181
X2.8543Y-1.0827
X2.8543Y-1.2795
X2.8543Y-1.4764
X2.8543Y-1.5748
X2.8543Y-1.6732
X2.8543Y-1.7717
X2.8543Y-1.8701
X2.9528Y-1.0827
X2.9528Y-1.4764
X2.9528Y-1.5748
X2.9528Y-1.6732
X2.9528Y-1.7717
X3.0512Y-1.0827
X3.0945Y-2.2323
X3.1496Y-1.5748
X3.1496Y-1.6732
X3.1496Y-1.7717
X3.1496Y-2.3622
X3.1496Y-2.4606
X3.1496Y-2.5591
X3.248Y-2.4606
X3.248Y-2.5591
X3.2677Y-2.2441
X3.2677Y-2.3228
X3.3071Y-2.2835
X3.3071Y-2.3622
X3.3465Y-2.2441
X3.3465Y-2.3228
X3.3858Y-2.2835
X3.3858Y-2.3622
X3.4252Y-2.2441
X3.4252Y-2.3228
X3.4646Y-2.2835
X3.4646Y-2.3622
T3
X2.5433Y-2.0264
T4
X2.0315Y-1.6988
X2.0315Y-1.7988
X2.0315Y-1.8988
X2.0315Y-1.9988
X2.1315Y-1.7488
X2.1315Y-1.8492
X2.1315Y-1.9488
X2.1315Y-2.0488
X2.5433Y-1.6217
X2.5433Y-1.7217
X2.5433Y-2.1264
T5
X1.4705Y-1.1632
X1.574Y-1.1628
X1.674Y-1.1628
X1.774Y-1.1628
X1.9055Y-2.4764
X2.0055Y-2.4764
X2.1055Y-2.4764
X2.2055Y-2.4764
X3.174Y-1.1628
X3.274Y-1.1628
X3.3128Y-1.874
X3.374Y-1.1628
X3.4128Y-1.874
X3.474Y-1.1628
T6
X0.9169Y-2.093
X1.0634Y-2.0113
X1.0634Y-2.093
X1.0634Y-2.1747
X1.1461Y-1.9857
X1.1461Y-2.093
X1.1461Y-2.2003
X1.2288Y-2.034
X1.2288Y-2.1521
T7
X1.7913Y-2.6662
X1.9882Y-2.6662
X2.185Y-2.6662
T8
X2.2299Y-1.5626
X2.2299Y-2.1854
T9
X0.9252Y-0.9252
X0.9252Y-2.6181
X3.0197Y-1.2677
X3.4055Y-2.6181
T10
X2.3815Y-1.6488
X2.3815Y-2.0988
T0
M30
