%TF.GenerationSoftware,KiCad,Pcbnew,(6.0.8-1)-1*%
%TF.CreationDate,2022-11-24T03:29:18+08:00*%
%TF.ProjectId,CCTV3_POE_REV100,43435456-335f-4504-9f45-5f5245563130,100*%
%TF.SameCoordinates,Original*%
%TF.FileFunction,Copper,L2,Inr*%
%TF.FilePolarity,Positive*%
%FSLAX46Y46*%
G04 Gerber Fmt 4.6, Leading zero omitted, Abs format (unit mm)*
G04 Created by KiCad (PCBNEW (6.0.8-1)-1) date 2022-11-24 03:29:18*
%MOMM*%
%LPD*%
G01*
G04 APERTURE LIST*
G04 Aperture macros list*
%AMRoundRect*
0 Rectangle with rounded corners*
0 $1 Rounding radius*
0 $2 $3 $4 $5 $6 $7 $8 $9 X,Y pos of 4 corners*
0 Add a 4 corners polygon primitive as box body*
4,1,4,$2,$3,$4,$5,$6,$7,$8,$9,$2,$3,0*
0 Add four circle primitives for the rounded corners*
1,1,$1+$1,$2,$3*
1,1,$1+$1,$4,$5*
1,1,$1+$1,$6,$7*
1,1,$1+$1,$8,$9*
0 Add four rect primitives between the rounded corners*
20,1,$1+$1,$2,$3,$4,$5,0*
20,1,$1+$1,$4,$5,$6,$7,0*
20,1,$1+$1,$6,$7,$8,$9,0*
20,1,$1+$1,$8,$9,$2,$3,0*%
G04 Aperture macros list end*
%TA.AperFunction,ComponentPad*%
%ADD10C,4.400000*%
%TD*%
%TA.AperFunction,ComponentPad*%
%ADD11R,1.700000X1.700000*%
%TD*%
%TA.AperFunction,ComponentPad*%
%ADD12O,1.700000X1.700000*%
%TD*%
%TA.AperFunction,ComponentPad*%
%ADD13C,3.300000*%
%TD*%
%TA.AperFunction,ComponentPad*%
%ADD14C,1.520000*%
%TD*%
%TA.AperFunction,ComponentPad*%
%ADD15C,2.500000*%
%TD*%
%TA.AperFunction,ComponentPad*%
%ADD16C,1.600000*%
%TD*%
%TA.AperFunction,ComponentPad*%
%ADD17RoundRect,0.250000X-0.750000X-1.550000X0.750000X-1.550000X0.750000X1.550000X-0.750000X1.550000X0*%
%TD*%
%TA.AperFunction,ComponentPad*%
%ADD18O,2.000000X3.600000*%
%TD*%
%TA.AperFunction,ViaPad*%
%ADD19C,0.800000*%
%TD*%
%TA.AperFunction,ViaPad*%
%ADD20C,0.500000*%
%TD*%
G04 APERTURE END LIST*
D10*
X23500000Y-66500000D03*
X76700000Y-32200000D03*
X23500000Y-23500000D03*
D11*
X48400000Y-62900000D03*
D12*
X50940000Y-62900000D03*
X53480000Y-62900000D03*
X56020000Y-62900000D03*
D13*
X60490000Y-41880000D03*
X60490000Y-53310000D03*
D14*
X54140000Y-52040000D03*
X51600000Y-50770000D03*
X54140000Y-49500000D03*
X51600000Y-48230000D03*
X54140000Y-46970000D03*
X51600000Y-45690000D03*
X54140000Y-44420000D03*
X51600000Y-43150000D03*
X64600000Y-54010000D03*
X64600000Y-51470000D03*
X64600000Y-43730000D03*
X64600000Y-41190000D03*
D15*
X56640000Y-55510000D03*
X56640000Y-39690000D03*
D16*
X31210250Y-51662500D03*
X31210250Y-54662500D03*
X29110250Y-55887500D03*
X27010250Y-55237500D03*
X27010250Y-53162500D03*
X27010250Y-51087500D03*
X29110250Y-50437500D03*
X29110250Y-53162500D03*
X23290250Y-53162500D03*
D11*
X86685000Y-47600000D03*
D12*
X84145000Y-47600000D03*
D11*
X37350000Y-29545000D03*
D12*
X39980000Y-29535000D03*
X42520000Y-29535000D03*
X45060000Y-29535000D03*
X80620000Y-29535000D03*
X83160000Y-29535000D03*
X85700000Y-29535000D03*
X88240000Y-29535000D03*
D10*
X86500000Y-66500000D03*
D17*
X45500000Y-67722500D03*
D18*
X50500000Y-67722500D03*
X55500000Y-67722500D03*
D19*
X82500000Y-62500000D03*
X41750000Y-64250000D03*
X88000000Y-60000000D03*
X86000000Y-60000000D03*
X87000000Y-57000000D03*
X85000000Y-59000000D03*
X83000000Y-57000000D03*
X40500000Y-64250000D03*
X83000000Y-59000000D03*
X86000000Y-58000000D03*
X39250000Y-64250000D03*
X85000000Y-57000000D03*
X87000000Y-59000000D03*
X88000000Y-58000000D03*
X84000000Y-60000000D03*
X84000000Y-58000000D03*
X71900000Y-66500000D03*
X68200000Y-49800000D03*
D20*
X35000000Y-58200000D03*
D19*
X41300000Y-40200000D03*
X29600000Y-43300000D03*
X29600000Y-41800000D03*
D20*
X34977805Y-51825935D03*
X35400000Y-46400000D03*
D19*
X70000000Y-45000000D03*
X60000000Y-30000000D03*
X52500000Y-32500000D03*
X67500000Y-27500000D03*
X70000000Y-35000000D03*
X67500000Y-45000000D03*
X27500000Y-65000000D03*
X35000000Y-67500000D03*
X75000000Y-40000000D03*
X55000000Y-30000000D03*
X30000000Y-65000000D03*
D20*
X49200000Y-53700000D03*
D19*
X32500000Y-65000000D03*
X57500000Y-32500000D03*
X30000000Y-25000000D03*
X80000000Y-60000000D03*
X72500000Y-42500000D03*
X67500000Y-42500000D03*
X25000000Y-28000000D03*
X75000000Y-45000000D03*
X67500000Y-32500000D03*
X65000000Y-37500000D03*
X27500000Y-25000000D03*
X30000000Y-67500000D03*
X24000000Y-27000000D03*
X80000000Y-45000000D03*
X67500000Y-47500000D03*
X65000000Y-30000000D03*
X55000000Y-35000000D03*
X50000000Y-30000000D03*
X37500000Y-65000000D03*
X72500000Y-32500000D03*
D20*
X49200000Y-60100000D03*
D19*
X30000000Y-27500000D03*
X60000000Y-35000000D03*
X47500000Y-27500000D03*
X32500000Y-30000000D03*
X80000000Y-42500000D03*
X72500000Y-40000000D03*
X75000000Y-27500000D03*
X35000000Y-65000000D03*
X70000000Y-47500000D03*
X80000000Y-40000000D03*
X72500000Y-37500000D03*
D20*
X48400000Y-49000000D03*
D19*
X75000000Y-42500000D03*
D20*
X49200000Y-56300000D03*
D19*
X70000000Y-40000000D03*
X67500000Y-40000000D03*
X30000000Y-22500000D03*
X62500000Y-32500000D03*
X62500000Y-37500000D03*
X72500000Y-45000000D03*
X23000000Y-28000000D03*
X22000000Y-29000000D03*
X24000000Y-29000000D03*
X67500000Y-37500000D03*
X57500000Y-27500000D03*
X42500000Y-27500000D03*
X80000000Y-65000000D03*
X65000000Y-35000000D03*
X52500000Y-27500000D03*
X32500000Y-67500000D03*
X30000000Y-30000000D03*
X72500000Y-27500000D03*
X80000000Y-62500000D03*
X22000000Y-27000000D03*
X72500000Y-47500000D03*
X27500000Y-22500000D03*
X82500000Y-65000000D03*
X37500000Y-67500000D03*
X27500000Y-67500000D03*
X26000000Y-29000000D03*
X77500000Y-27500000D03*
X75000000Y-37500000D03*
X32500000Y-27500000D03*
X70000000Y-30000000D03*
X70000000Y-42500000D03*
X70000000Y-37500000D03*
X27000000Y-28000000D03*
X62500000Y-27500000D03*
X26000000Y-27000000D03*
X78600000Y-56700000D03*
X68170000Y-55800000D03*
%TA.AperFunction,Conductor*%
G36*
X89433621Y-20528502D02*
G01*
X89480114Y-20582158D01*
X89491500Y-20634500D01*
X89491500Y-28573122D01*
X89471498Y-28641243D01*
X89417842Y-28687736D01*
X89347568Y-28697840D01*
X89282988Y-28668346D01*
X89276405Y-28662217D01*
X89114975Y-28500787D01*
X89106567Y-28493731D01*
X88922087Y-28364557D01*
X88912592Y-28359074D01*
X88756417Y-28286248D01*
X88742476Y-28284131D01*
X88740000Y-28287918D01*
X88740000Y-30773292D01*
X88743973Y-30786823D01*
X88748450Y-30787466D01*
X88912592Y-30710926D01*
X88922087Y-30705443D01*
X89106567Y-30576269D01*
X89114975Y-30569213D01*
X89276405Y-30407783D01*
X89338717Y-30373757D01*
X89409532Y-30378822D01*
X89466368Y-30421369D01*
X89491179Y-30487889D01*
X89491500Y-30496878D01*
X89491500Y-69365500D01*
X89471498Y-69433621D01*
X89417842Y-69480114D01*
X89365500Y-69491500D01*
X56902664Y-69491500D01*
X56834543Y-69471498D01*
X56788050Y-69417842D01*
X56777946Y-69347568D01*
X56791620Y-69305959D01*
X56884439Y-69132852D01*
X56886831Y-69128391D01*
X56965862Y-68898869D01*
X56991453Y-68750712D01*
X56994858Y-68731000D01*
X84981727Y-68731000D01*
X84987633Y-68738890D01*
X85206108Y-68875142D01*
X85212746Y-68878746D01*
X85500803Y-69013375D01*
X85507856Y-69016168D01*
X85809997Y-69115215D01*
X85817321Y-69117136D01*
X86129184Y-69179170D01*
X86136675Y-69180196D01*
X86453736Y-69204314D01*
X86461299Y-69204432D01*
X86778946Y-69190286D01*
X86786492Y-69189493D01*
X87100139Y-69137288D01*
X87107515Y-69135599D01*
X87412619Y-69046090D01*
X87419751Y-69043523D01*
X87711899Y-68918007D01*
X87718652Y-68914611D01*
X87993613Y-68754900D01*
X87999916Y-68750712D01*
X88010352Y-68742834D01*
X88018809Y-68731440D01*
X88012093Y-68719200D01*
X86512812Y-67219919D01*
X86498868Y-67212305D01*
X86497035Y-67212436D01*
X86490420Y-67216687D01*
X84988487Y-68718620D01*
X84981727Y-68731000D01*
X56994858Y-68731000D01*
X57006504Y-68663574D01*
X57006505Y-68663568D01*
X57007179Y-68659664D01*
X57008500Y-68630575D01*
X57008500Y-66861499D01*
X57008298Y-66858986D01*
X56994346Y-66685576D01*
X56994345Y-66685571D01*
X56993940Y-66680535D01*
X56949597Y-66500000D01*
X70986496Y-66500000D01*
X70987186Y-66506565D01*
X71004955Y-66675624D01*
X71006458Y-66689928D01*
X71065473Y-66871556D01*
X71068776Y-66877278D01*
X71068777Y-66877279D01*
X71073146Y-66884846D01*
X71160960Y-67036944D01*
X71165378Y-67041851D01*
X71165379Y-67041852D01*
X71236929Y-67121316D01*
X71288747Y-67178866D01*
X71443248Y-67291118D01*
X71449276Y-67293802D01*
X71449278Y-67293803D01*
X71611681Y-67366109D01*
X71617712Y-67368794D01*
X71711113Y-67388647D01*
X71798056Y-67407128D01*
X71798061Y-67407128D01*
X71804513Y-67408500D01*
X71995487Y-67408500D01*
X72001939Y-67407128D01*
X72001944Y-67407128D01*
X72088887Y-67388647D01*
X72182288Y-67368794D01*
X72188319Y-67366109D01*
X72350722Y-67293803D01*
X72350724Y-67293802D01*
X72356752Y-67291118D01*
X72511253Y-67178866D01*
X72563071Y-67121316D01*
X72634621Y-67041852D01*
X72634622Y-67041851D01*
X72639040Y-67036944D01*
X72726854Y-66884846D01*
X72731223Y-66877279D01*
X72731224Y-66877278D01*
X72734527Y-66871556D01*
X72793542Y-66689928D01*
X72795046Y-66675624D01*
X72812814Y-66506565D01*
X72813504Y-66500000D01*
X72810926Y-66475467D01*
X83795402Y-66475467D01*
X83811211Y-66793034D01*
X83812042Y-66800563D01*
X83865888Y-67113929D01*
X83867621Y-67121316D01*
X83958723Y-67425940D01*
X83961326Y-67433054D01*
X84088368Y-67724534D01*
X84091810Y-67731290D01*
X84252947Y-68005392D01*
X84256727Y-68011017D01*
X84268112Y-68019376D01*
X84280177Y-68012716D01*
X85780081Y-66512812D01*
X85786459Y-66501132D01*
X87212305Y-66501132D01*
X87212436Y-66502965D01*
X87216687Y-66509580D01*
X88718219Y-68011112D01*
X88730599Y-68017872D01*
X88738654Y-68011842D01*
X88868330Y-67806319D01*
X88871977Y-67799684D01*
X89008112Y-67512338D01*
X89010937Y-67505311D01*
X89111570Y-67203676D01*
X89113524Y-67196385D01*
X89177190Y-66884846D01*
X89178258Y-66877342D01*
X89204160Y-66558883D01*
X89204365Y-66554408D01*
X89204912Y-66502221D01*
X89204802Y-66497789D01*
X89185572Y-66178816D01*
X89184664Y-66171314D01*
X89127538Y-65858525D01*
X89125725Y-65851145D01*
X89031442Y-65547505D01*
X89028761Y-65540408D01*
X88898673Y-65250270D01*
X88895172Y-65243573D01*
X88742307Y-64989664D01*
X88731924Y-64980122D01*
X88723383Y-64983724D01*
X87219919Y-66487188D01*
X87212305Y-66501132D01*
X85786459Y-66501132D01*
X85787695Y-66498868D01*
X85787564Y-66497035D01*
X85783313Y-66490420D01*
X84280925Y-64988032D01*
X84268545Y-64981272D01*
X84260816Y-64987058D01*
X84118122Y-65218552D01*
X84114542Y-65225228D01*
X83981424Y-65513985D01*
X83978674Y-65521036D01*
X83881208Y-65823701D01*
X83879325Y-65831034D01*
X83818925Y-66143217D01*
X83817938Y-66150716D01*
X83795481Y-66467886D01*
X83795402Y-66475467D01*
X72810926Y-66475467D01*
X72793542Y-66310072D01*
X72734527Y-66128444D01*
X72639040Y-65963056D01*
X72511253Y-65821134D01*
X72356752Y-65708882D01*
X72350724Y-65706198D01*
X72350722Y-65706197D01*
X72188319Y-65633891D01*
X72188318Y-65633891D01*
X72182288Y-65631206D01*
X72088888Y-65611353D01*
X72001944Y-65592872D01*
X72001939Y-65592872D01*
X71995487Y-65591500D01*
X71804513Y-65591500D01*
X71798061Y-65592872D01*
X71798056Y-65592872D01*
X71711112Y-65611353D01*
X71617712Y-65631206D01*
X71611682Y-65633891D01*
X71611681Y-65633891D01*
X71449278Y-65706197D01*
X71449276Y-65706198D01*
X71443248Y-65708882D01*
X71288747Y-65821134D01*
X71160960Y-65963056D01*
X71065473Y-66128444D01*
X71006458Y-66310072D01*
X70986496Y-66500000D01*
X56949597Y-66500000D01*
X56948869Y-66497035D01*
X56937244Y-66449708D01*
X56936037Y-66444794D01*
X56841188Y-66221344D01*
X56778690Y-66122100D01*
X56714528Y-66020212D01*
X56714526Y-66020209D01*
X56711833Y-66015933D01*
X56660889Y-65958148D01*
X56554650Y-65837642D01*
X56554647Y-65837639D01*
X56551302Y-65833845D01*
X56541806Y-65826045D01*
X56367628Y-65682974D01*
X56367625Y-65682972D01*
X56363722Y-65679766D01*
X56214424Y-65592872D01*
X56158290Y-65560201D01*
X56158288Y-65560200D01*
X56153922Y-65557659D01*
X56058515Y-65521036D01*
X55932022Y-65472480D01*
X55932018Y-65472479D01*
X55927298Y-65470667D01*
X55922348Y-65469633D01*
X55922345Y-65469632D01*
X55694631Y-65422060D01*
X55694627Y-65422060D01*
X55689680Y-65421026D01*
X55447183Y-65410014D01*
X55442163Y-65410595D01*
X55442159Y-65410595D01*
X55211071Y-65437333D01*
X55211067Y-65437334D01*
X55206044Y-65437915D01*
X55201180Y-65439291D01*
X55201177Y-65439292D01*
X55093958Y-65469632D01*
X54972468Y-65504010D01*
X54967892Y-65506144D01*
X54967886Y-65506146D01*
X54757046Y-65604462D01*
X54757042Y-65604464D01*
X54752464Y-65606599D01*
X54551693Y-65743044D01*
X54375319Y-65909832D01*
X54372241Y-65913858D01*
X54372240Y-65913859D01*
X54230953Y-66098654D01*
X54230950Y-66098658D01*
X54227880Y-66102674D01*
X54225490Y-66107132D01*
X54225489Y-66107133D01*
X54187053Y-66178816D01*
X54113169Y-66316609D01*
X54034138Y-66546131D01*
X53992821Y-66785336D01*
X53992641Y-66789297D01*
X53992641Y-66789298D01*
X53992130Y-66800563D01*
X53991500Y-66814425D01*
X53991500Y-68583501D01*
X53991702Y-68586009D01*
X53991702Y-68586014D01*
X54004320Y-68742834D01*
X54006060Y-68764465D01*
X54007266Y-68769373D01*
X54007266Y-68769376D01*
X54034130Y-68878746D01*
X54063963Y-69000206D01*
X54065938Y-69004858D01*
X54065939Y-69004862D01*
X54112781Y-69115215D01*
X54158812Y-69223656D01*
X54161510Y-69227940D01*
X54205854Y-69298357D01*
X54225229Y-69366659D01*
X54204601Y-69434593D01*
X54150520Y-69480590D01*
X54099234Y-69491500D01*
X51902664Y-69491500D01*
X51834543Y-69471498D01*
X51788050Y-69417842D01*
X51777946Y-69347568D01*
X51791620Y-69305959D01*
X51884439Y-69132852D01*
X51886831Y-69128391D01*
X51965862Y-68898869D01*
X51991453Y-68750712D01*
X52006504Y-68663574D01*
X52006505Y-68663568D01*
X52007179Y-68659664D01*
X52008500Y-68630575D01*
X52008500Y-66861499D01*
X52008298Y-66858986D01*
X51994346Y-66685576D01*
X51994345Y-66685571D01*
X51993940Y-66680535D01*
X51948869Y-66497035D01*
X51937244Y-66449708D01*
X51936037Y-66444794D01*
X51841188Y-66221344D01*
X51778690Y-66122100D01*
X51714528Y-66020212D01*
X51714526Y-66020209D01*
X51711833Y-66015933D01*
X51660889Y-65958148D01*
X51554650Y-65837642D01*
X51554647Y-65837639D01*
X51551302Y-65833845D01*
X51541806Y-65826045D01*
X51367628Y-65682974D01*
X51367625Y-65682972D01*
X51363722Y-65679766D01*
X51214424Y-65592872D01*
X51158290Y-65560201D01*
X51158288Y-65560200D01*
X51153922Y-65557659D01*
X51058515Y-65521036D01*
X50932022Y-65472480D01*
X50932018Y-65472479D01*
X50927298Y-65470667D01*
X50922348Y-65469633D01*
X50922345Y-65469632D01*
X50694631Y-65422060D01*
X50694627Y-65422060D01*
X50689680Y-65421026D01*
X50447183Y-65410014D01*
X50442163Y-65410595D01*
X50442159Y-65410595D01*
X50211071Y-65437333D01*
X50211067Y-65437334D01*
X50206044Y-65437915D01*
X50201180Y-65439291D01*
X50201177Y-65439292D01*
X50093958Y-65469632D01*
X49972468Y-65504010D01*
X49967892Y-65506144D01*
X49967886Y-65506146D01*
X49757046Y-65604462D01*
X49757042Y-65604464D01*
X49752464Y-65606599D01*
X49551693Y-65743044D01*
X49375319Y-65909832D01*
X49372241Y-65913858D01*
X49372240Y-65913859D01*
X49230953Y-66098654D01*
X49230950Y-66098658D01*
X49227880Y-66102674D01*
X49225490Y-66107132D01*
X49225489Y-66107133D01*
X49187053Y-66178816D01*
X49113169Y-66316609D01*
X49034138Y-66546131D01*
X48992821Y-66785336D01*
X48992641Y-66789297D01*
X48992641Y-66789298D01*
X48992130Y-66800563D01*
X48991500Y-66814425D01*
X48991500Y-68583501D01*
X48991702Y-68586009D01*
X48991702Y-68586014D01*
X49004320Y-68742834D01*
X49006060Y-68764465D01*
X49007266Y-68769373D01*
X49007266Y-68769376D01*
X49034130Y-68878746D01*
X49063963Y-69000206D01*
X49065938Y-69004858D01*
X49065939Y-69004862D01*
X49112781Y-69115215D01*
X49158812Y-69223656D01*
X49161510Y-69227940D01*
X49205854Y-69298357D01*
X49225229Y-69366659D01*
X49204601Y-69434593D01*
X49150520Y-69480590D01*
X49099234Y-69491500D01*
X47130795Y-69491500D01*
X47062674Y-69471498D01*
X47016181Y-69417842D01*
X47005451Y-69352657D01*
X47008500Y-69322900D01*
X47008500Y-66122100D01*
X47006947Y-66107133D01*
X46998238Y-66023192D01*
X46998237Y-66023188D01*
X46997526Y-66016334D01*
X46941550Y-65848554D01*
X46848478Y-65698152D01*
X46827514Y-65677224D01*
X46728483Y-65578366D01*
X46723303Y-65573195D01*
X46695158Y-65555846D01*
X46578968Y-65484225D01*
X46578966Y-65484224D01*
X46572738Y-65480385D01*
X46448846Y-65439292D01*
X46411389Y-65426868D01*
X46411387Y-65426868D01*
X46404861Y-65424703D01*
X46398025Y-65424003D01*
X46398022Y-65424002D01*
X46354969Y-65419591D01*
X46300400Y-65414000D01*
X44699600Y-65414000D01*
X44696354Y-65414337D01*
X44696350Y-65414337D01*
X44600692Y-65424262D01*
X44600688Y-65424263D01*
X44593834Y-65424974D01*
X44587298Y-65427155D01*
X44587296Y-65427155D01*
X44459978Y-65469632D01*
X44426054Y-65480950D01*
X44275652Y-65574022D01*
X44150695Y-65699197D01*
X44146855Y-65705427D01*
X44146854Y-65705428D01*
X44069676Y-65830634D01*
X44057885Y-65849762D01*
X44002203Y-66017639D01*
X43991500Y-66122100D01*
X43991500Y-69322900D01*
X43994060Y-69347568D01*
X43994571Y-69352496D01*
X43981707Y-69422317D01*
X43933136Y-69474099D01*
X43869244Y-69491500D01*
X20634500Y-69491500D01*
X20566379Y-69471498D01*
X20519886Y-69417842D01*
X20508500Y-69365500D01*
X20508500Y-68731000D01*
X21981727Y-68731000D01*
X21987633Y-68738890D01*
X22206108Y-68875142D01*
X22212746Y-68878746D01*
X22500803Y-69013375D01*
X22507856Y-69016168D01*
X22809997Y-69115215D01*
X22817321Y-69117136D01*
X23129184Y-69179170D01*
X23136675Y-69180196D01*
X23453736Y-69204314D01*
X23461299Y-69204432D01*
X23778946Y-69190286D01*
X23786492Y-69189493D01*
X24100139Y-69137288D01*
X24107515Y-69135599D01*
X24412619Y-69046090D01*
X24419751Y-69043523D01*
X24711899Y-68918007D01*
X24718652Y-68914611D01*
X24993613Y-68754900D01*
X24999916Y-68750712D01*
X25010352Y-68742834D01*
X25018809Y-68731440D01*
X25012093Y-68719200D01*
X23512812Y-67219919D01*
X23498868Y-67212305D01*
X23497035Y-67212436D01*
X23490420Y-67216687D01*
X21988487Y-68718620D01*
X21981727Y-68731000D01*
X20508500Y-68731000D01*
X20508500Y-66475467D01*
X20795402Y-66475467D01*
X20811211Y-66793034D01*
X20812042Y-66800563D01*
X20865888Y-67113929D01*
X20867621Y-67121316D01*
X20958723Y-67425940D01*
X20961326Y-67433054D01*
X21088368Y-67724534D01*
X21091810Y-67731290D01*
X21252947Y-68005392D01*
X21256727Y-68011017D01*
X21268112Y-68019376D01*
X21280177Y-68012716D01*
X22780081Y-66512812D01*
X22786459Y-66501132D01*
X24212305Y-66501132D01*
X24212436Y-66502965D01*
X24216687Y-66509580D01*
X25718219Y-68011112D01*
X25730599Y-68017872D01*
X25738654Y-68011842D01*
X25868330Y-67806319D01*
X25871977Y-67799684D01*
X26008112Y-67512338D01*
X26010937Y-67505311D01*
X26111570Y-67203676D01*
X26113524Y-67196385D01*
X26177190Y-66884846D01*
X26178258Y-66877342D01*
X26204160Y-66558883D01*
X26204365Y-66554408D01*
X26204912Y-66502221D01*
X26204802Y-66497789D01*
X26185572Y-66178816D01*
X26184664Y-66171314D01*
X26127538Y-65858525D01*
X26125725Y-65851145D01*
X26031442Y-65547505D01*
X26028761Y-65540408D01*
X25898673Y-65250270D01*
X25895172Y-65243573D01*
X25742307Y-64989664D01*
X25731924Y-64980122D01*
X25723383Y-64983724D01*
X24219919Y-66487188D01*
X24212305Y-66501132D01*
X22786459Y-66501132D01*
X22787695Y-66498868D01*
X22787564Y-66497035D01*
X22783313Y-66490420D01*
X21280925Y-64988032D01*
X21268545Y-64981272D01*
X21260816Y-64987058D01*
X21118122Y-65218552D01*
X21114542Y-65225228D01*
X20981424Y-65513985D01*
X20978674Y-65521036D01*
X20881208Y-65823701D01*
X20879325Y-65831034D01*
X20818925Y-66143217D01*
X20817938Y-66150716D01*
X20795481Y-66467886D01*
X20795402Y-66475467D01*
X20508500Y-66475467D01*
X20508500Y-64267614D01*
X21980007Y-64267614D01*
X21986612Y-64279505D01*
X23487188Y-65780081D01*
X23501132Y-65787695D01*
X23502965Y-65787564D01*
X23509580Y-65783313D01*
X25012478Y-64280415D01*
X25019238Y-64268035D01*
X25013569Y-64260463D01*
X24996394Y-64250000D01*
X38336496Y-64250000D01*
X38356458Y-64439928D01*
X38415473Y-64621556D01*
X38510960Y-64786944D01*
X38638747Y-64928866D01*
X38793248Y-65041118D01*
X38799276Y-65043802D01*
X38799278Y-65043803D01*
X38961681Y-65116109D01*
X38967712Y-65118794D01*
X39061112Y-65138647D01*
X39148056Y-65157128D01*
X39148061Y-65157128D01*
X39154513Y-65158500D01*
X39345487Y-65158500D01*
X39351939Y-65157128D01*
X39351944Y-65157128D01*
X39438888Y-65138647D01*
X39532288Y-65118794D01*
X39538319Y-65116109D01*
X39700722Y-65043803D01*
X39700724Y-65043802D01*
X39706752Y-65041118D01*
X39779819Y-64988032D01*
X39800939Y-64972687D01*
X39867807Y-64948828D01*
X39936958Y-64964909D01*
X39949061Y-64972687D01*
X39970182Y-64988032D01*
X40043248Y-65041118D01*
X40049276Y-65043802D01*
X40049278Y-65043803D01*
X40211681Y-65116109D01*
X40217712Y-65118794D01*
X40311112Y-65138647D01*
X40398056Y-65157128D01*
X40398061Y-65157128D01*
X40404513Y-65158500D01*
X40595487Y-65158500D01*
X40601939Y-65157128D01*
X40601944Y-65157128D01*
X40688888Y-65138647D01*
X40782288Y-65118794D01*
X40788319Y-65116109D01*
X40950722Y-65043803D01*
X40950724Y-65043802D01*
X40956752Y-65041118D01*
X41029819Y-64988032D01*
X41050939Y-64972687D01*
X41117807Y-64948828D01*
X41186958Y-64964909D01*
X41199061Y-64972687D01*
X41220182Y-64988032D01*
X41293248Y-65041118D01*
X41299276Y-65043802D01*
X41299278Y-65043803D01*
X41461681Y-65116109D01*
X41467712Y-65118794D01*
X41561112Y-65138647D01*
X41648056Y-65157128D01*
X41648061Y-65157128D01*
X41654513Y-65158500D01*
X41845487Y-65158500D01*
X41851939Y-65157128D01*
X41851944Y-65157128D01*
X41938888Y-65138647D01*
X42032288Y-65118794D01*
X42038319Y-65116109D01*
X42200722Y-65043803D01*
X42200724Y-65043802D01*
X42206752Y-65041118D01*
X42361253Y-64928866D01*
X42489040Y-64786944D01*
X42584527Y-64621556D01*
X42643542Y-64439928D01*
X42661653Y-64267614D01*
X84980007Y-64267614D01*
X84986612Y-64279505D01*
X86487188Y-65780081D01*
X86501132Y-65787695D01*
X86502965Y-65787564D01*
X86509580Y-65783313D01*
X88012478Y-64280415D01*
X88019238Y-64268035D01*
X88013569Y-64260463D01*
X87768952Y-64111440D01*
X87762272Y-64107903D01*
X87472814Y-63976296D01*
X87465744Y-63973582D01*
X87162585Y-63877705D01*
X87155234Y-63875858D01*
X86842742Y-63817094D01*
X86835232Y-63816146D01*
X86517947Y-63795350D01*
X86510382Y-63795310D01*
X86192885Y-63812783D01*
X86185372Y-63813652D01*
X85872281Y-63869141D01*
X85864915Y-63870909D01*
X85560759Y-63963608D01*
X85553663Y-63966248D01*
X85262858Y-64094812D01*
X85256121Y-64098289D01*
X84986472Y-64258713D01*
X84980007Y-64267614D01*
X42661653Y-64267614D01*
X42663504Y-64250000D01*
X42658645Y-64203767D01*
X42644232Y-64066635D01*
X42644232Y-64066633D01*
X42643542Y-64060072D01*
X42584527Y-63878444D01*
X42538160Y-63798134D01*
X47041500Y-63798134D01*
X47048255Y-63860316D01*
X47099385Y-63996705D01*
X47186739Y-64113261D01*
X47303295Y-64200615D01*
X47439684Y-64251745D01*
X47501866Y-64258500D01*
X49298134Y-64258500D01*
X49360316Y-64251745D01*
X49496705Y-64200615D01*
X49613261Y-64113261D01*
X49700615Y-63996705D01*
X49742593Y-63884729D01*
X49748321Y-63869451D01*
X49790963Y-63812687D01*
X49857525Y-63787987D01*
X49926873Y-63803195D01*
X49955398Y-63824586D01*
X50065025Y-63934213D01*
X50073433Y-63941269D01*
X50257913Y-64070443D01*
X50267408Y-64075926D01*
X50423583Y-64148752D01*
X50437524Y-64150869D01*
X50440000Y-64147082D01*
X50440000Y-64138292D01*
X51440000Y-64138292D01*
X51443973Y-64151823D01*
X51448450Y-64152466D01*
X51612592Y-64075926D01*
X51622087Y-64070443D01*
X51806567Y-63941269D01*
X51814975Y-63934213D01*
X51974213Y-63774975D01*
X51981273Y-63766562D01*
X52103759Y-63591633D01*
X52159216Y-63547304D01*
X52229835Y-63539995D01*
X52293196Y-63572025D01*
X52314405Y-63598068D01*
X52379987Y-63705088D01*
X52526250Y-63873938D01*
X52698126Y-64016632D01*
X52891000Y-64129338D01*
X53099692Y-64209030D01*
X53104760Y-64210061D01*
X53104763Y-64210062D01*
X53212017Y-64231883D01*
X53318597Y-64253567D01*
X53323772Y-64253757D01*
X53323774Y-64253757D01*
X53536673Y-64261564D01*
X53536677Y-64261564D01*
X53541837Y-64261753D01*
X53546957Y-64261097D01*
X53546959Y-64261097D01*
X53758288Y-64234025D01*
X53758289Y-64234025D01*
X53763416Y-64233368D01*
X53768366Y-64231883D01*
X53972429Y-64170661D01*
X53972434Y-64170659D01*
X53977384Y-64169174D01*
X54177994Y-64070896D01*
X54359860Y-63941173D01*
X54366845Y-63934213D01*
X54506193Y-63795350D01*
X54518096Y-63783489D01*
X54648453Y-63602077D01*
X54649776Y-63603028D01*
X54696645Y-63559857D01*
X54766580Y-63547625D01*
X54832026Y-63575144D01*
X54859875Y-63606994D01*
X54919987Y-63705088D01*
X55066250Y-63873938D01*
X55238126Y-64016632D01*
X55431000Y-64129338D01*
X55639692Y-64209030D01*
X55644760Y-64210061D01*
X55644763Y-64210062D01*
X55752017Y-64231883D01*
X55858597Y-64253567D01*
X55863772Y-64253757D01*
X55863774Y-64253757D01*
X56076673Y-64261564D01*
X56076677Y-64261564D01*
X56081837Y-64261753D01*
X56086957Y-64261097D01*
X56086959Y-64261097D01*
X56298288Y-64234025D01*
X56298289Y-64234025D01*
X56303416Y-64233368D01*
X56308366Y-64231883D01*
X56512429Y-64170661D01*
X56512434Y-64170659D01*
X56517384Y-64169174D01*
X56717994Y-64070896D01*
X56899860Y-63941173D01*
X56906845Y-63934213D01*
X57046193Y-63795350D01*
X57058096Y-63783489D01*
X57188453Y-63602077D01*
X57209320Y-63559857D01*
X57285136Y-63406453D01*
X57285137Y-63406451D01*
X57287430Y-63401811D01*
X57352370Y-63188069D01*
X57381529Y-62966590D01*
X57383156Y-62900000D01*
X57364852Y-62677361D01*
X57310431Y-62460702D01*
X57221354Y-62255840D01*
X57138036Y-62127050D01*
X57102822Y-62072617D01*
X57102820Y-62072614D01*
X57100014Y-62068277D01*
X56949670Y-61903051D01*
X56945619Y-61899852D01*
X56945615Y-61899848D01*
X56778414Y-61767800D01*
X56778410Y-61767798D01*
X56774359Y-61764598D01*
X56578789Y-61656638D01*
X56573920Y-61654914D01*
X56573916Y-61654912D01*
X56373087Y-61583795D01*
X56373083Y-61583794D01*
X56368212Y-61582069D01*
X56363119Y-61581162D01*
X56363116Y-61581161D01*
X56153373Y-61543800D01*
X56153367Y-61543799D01*
X56148284Y-61542894D01*
X56074452Y-61541992D01*
X55930081Y-61540228D01*
X55930079Y-61540228D01*
X55924911Y-61540165D01*
X55704091Y-61573955D01*
X55491756Y-61643357D01*
X55461443Y-61659137D01*
X55326168Y-61729557D01*
X55293607Y-61746507D01*
X55289474Y-61749610D01*
X55289471Y-61749612D01*
X55119100Y-61877530D01*
X55114965Y-61880635D01*
X55111393Y-61884373D01*
X54976983Y-62025025D01*
X54960629Y-62042138D01*
X54853201Y-62199621D01*
X54798293Y-62244621D01*
X54727768Y-62252792D01*
X54664021Y-62221538D01*
X54643324Y-62197054D01*
X54562822Y-62072617D01*
X54562820Y-62072614D01*
X54560014Y-62068277D01*
X54409670Y-61903051D01*
X54405619Y-61899852D01*
X54405615Y-61899848D01*
X54238414Y-61767800D01*
X54238410Y-61767798D01*
X54234359Y-61764598D01*
X54038789Y-61656638D01*
X54033920Y-61654914D01*
X54033916Y-61654912D01*
X53833087Y-61583795D01*
X53833083Y-61583794D01*
X53828212Y-61582069D01*
X53823119Y-61581162D01*
X53823116Y-61581161D01*
X53613373Y-61543800D01*
X53613367Y-61543799D01*
X53608284Y-61542894D01*
X53534452Y-61541992D01*
X53390081Y-61540228D01*
X53390079Y-61540228D01*
X53384911Y-61540165D01*
X53164091Y-61573955D01*
X52951756Y-61643357D01*
X52921443Y-61659137D01*
X52786168Y-61729557D01*
X52753607Y-61746507D01*
X52749474Y-61749610D01*
X52749471Y-61749612D01*
X52579100Y-61877530D01*
X52574965Y-61880635D01*
X52571393Y-61884373D01*
X52436983Y-62025025D01*
X52420629Y-62042138D01*
X52417720Y-62046403D01*
X52417714Y-62046411D01*
X52309560Y-62204959D01*
X52254649Y-62249962D01*
X52184124Y-62258133D01*
X52120377Y-62226879D01*
X52102259Y-62206225D01*
X51981273Y-62033438D01*
X51974213Y-62025025D01*
X51814975Y-61865787D01*
X51806567Y-61858731D01*
X51622087Y-61729557D01*
X51612592Y-61724074D01*
X51456417Y-61651248D01*
X51442476Y-61649131D01*
X51440000Y-61652918D01*
X51440000Y-64138292D01*
X50440000Y-64138292D01*
X50440000Y-61661709D01*
X50436027Y-61648178D01*
X50431550Y-61647535D01*
X50267409Y-61724074D01*
X50257913Y-61729557D01*
X50073433Y-61858731D01*
X50065025Y-61865787D01*
X49955398Y-61975414D01*
X49893086Y-62009440D01*
X49822271Y-62004375D01*
X49765435Y-61961828D01*
X49748321Y-61930549D01*
X49703767Y-61811703D01*
X49700615Y-61803295D01*
X49613261Y-61686739D01*
X49496705Y-61599385D01*
X49360316Y-61548255D01*
X49298134Y-61541500D01*
X47501866Y-61541500D01*
X47439684Y-61548255D01*
X47303295Y-61599385D01*
X47186739Y-61686739D01*
X47099385Y-61803295D01*
X47048255Y-61939684D01*
X47041500Y-62001866D01*
X47041500Y-63798134D01*
X42538160Y-63798134D01*
X42489040Y-63713056D01*
X42393542Y-63606994D01*
X42365675Y-63576045D01*
X42365674Y-63576044D01*
X42361253Y-63571134D01*
X42206752Y-63458882D01*
X42200724Y-63456198D01*
X42200722Y-63456197D01*
X42038319Y-63383891D01*
X42038318Y-63383891D01*
X42032288Y-63381206D01*
X41938888Y-63361353D01*
X41851944Y-63342872D01*
X41851939Y-63342872D01*
X41845487Y-63341500D01*
X41654513Y-63341500D01*
X41648061Y-63342872D01*
X41648056Y-63342872D01*
X41561112Y-63361353D01*
X41467712Y-63381206D01*
X41461682Y-63383891D01*
X41461681Y-63383891D01*
X41299278Y-63456197D01*
X41299276Y-63456198D01*
X41293248Y-63458882D01*
X41287907Y-63462762D01*
X41287906Y-63462763D01*
X41199061Y-63527313D01*
X41132193Y-63551172D01*
X41063042Y-63535091D01*
X41050939Y-63527313D01*
X40962094Y-63462763D01*
X40962093Y-63462762D01*
X40956752Y-63458882D01*
X40950724Y-63456198D01*
X40950722Y-63456197D01*
X40788319Y-63383891D01*
X40788318Y-63383891D01*
X40782288Y-63381206D01*
X40688888Y-63361353D01*
X40601944Y-63342872D01*
X40601939Y-63342872D01*
X40595487Y-63341500D01*
X40404513Y-63341500D01*
X40398061Y-63342872D01*
X40398056Y-63342872D01*
X40311112Y-63361353D01*
X40217712Y-63381206D01*
X40211682Y-63383891D01*
X40211681Y-63383891D01*
X40049278Y-63456197D01*
X40049276Y-63456198D01*
X40043248Y-63458882D01*
X40037907Y-63462762D01*
X40037906Y-63462763D01*
X39949061Y-63527313D01*
X39882193Y-63551172D01*
X39813042Y-63535091D01*
X39800939Y-63527313D01*
X39712094Y-63462763D01*
X39712093Y-63462762D01*
X39706752Y-63458882D01*
X39700724Y-63456198D01*
X39700722Y-63456197D01*
X39538319Y-63383891D01*
X39538318Y-63383891D01*
X39532288Y-63381206D01*
X39438888Y-63361353D01*
X39351944Y-63342872D01*
X39351939Y-63342872D01*
X39345487Y-63341500D01*
X39154513Y-63341500D01*
X39148061Y-63342872D01*
X39148056Y-63342872D01*
X39061112Y-63361353D01*
X38967712Y-63381206D01*
X38961682Y-63383891D01*
X38961681Y-63383891D01*
X38799278Y-63456197D01*
X38799276Y-63456198D01*
X38793248Y-63458882D01*
X38638747Y-63571134D01*
X38634326Y-63576044D01*
X38634325Y-63576045D01*
X38606459Y-63606994D01*
X38510960Y-63713056D01*
X38415473Y-63878444D01*
X38356458Y-64060072D01*
X38355768Y-64066633D01*
X38355768Y-64066635D01*
X38341355Y-64203767D01*
X38336496Y-64250000D01*
X24996394Y-64250000D01*
X24768952Y-64111440D01*
X24762272Y-64107903D01*
X24472814Y-63976296D01*
X24465744Y-63973582D01*
X24162585Y-63877705D01*
X24155234Y-63875858D01*
X23842742Y-63817094D01*
X23835232Y-63816146D01*
X23517947Y-63795350D01*
X23510382Y-63795310D01*
X23192885Y-63812783D01*
X23185372Y-63813652D01*
X22872281Y-63869141D01*
X22864915Y-63870909D01*
X22560759Y-63963608D01*
X22553663Y-63966248D01*
X22262858Y-64094812D01*
X22256121Y-64098289D01*
X21986472Y-64258713D01*
X21980007Y-64267614D01*
X20508500Y-64267614D01*
X20508500Y-62226000D01*
X20528502Y-62157879D01*
X20582158Y-62111386D01*
X20634500Y-62100000D01*
X23964716Y-62100000D01*
X24032837Y-62120002D01*
X24045284Y-62129126D01*
X24057104Y-62138956D01*
X24286906Y-62278404D01*
X24291220Y-62280213D01*
X24291224Y-62280215D01*
X24341018Y-62301095D01*
X24534795Y-62382352D01*
X24795327Y-62448519D01*
X25018584Y-62471000D01*
X25178487Y-62471000D01*
X25180812Y-62470827D01*
X25180818Y-62470827D01*
X25373658Y-62456496D01*
X25373659Y-62456496D01*
X25378313Y-62456150D01*
X25382866Y-62455120D01*
X25382871Y-62455119D01*
X25635919Y-62397861D01*
X25635924Y-62397860D01*
X25640487Y-62396827D01*
X25891012Y-62299402D01*
X26124386Y-62166018D01*
X26134711Y-62157879D01*
X26173817Y-62127050D01*
X26239697Y-62100585D01*
X26251823Y-62100000D01*
X28417736Y-62100000D01*
X28465954Y-62109591D01*
X28491088Y-62120002D01*
X28607780Y-62168337D01*
X28619409Y-62173154D01*
X28704252Y-62193523D01*
X28856957Y-62230185D01*
X28856963Y-62230186D01*
X28861770Y-62231340D01*
X28949172Y-62238219D01*
X29045584Y-62245807D01*
X29045593Y-62245807D01*
X29048041Y-62246000D01*
X29172459Y-62246000D01*
X29174907Y-62245807D01*
X29174916Y-62245807D01*
X29271328Y-62238219D01*
X29358730Y-62231340D01*
X29363537Y-62230186D01*
X29363543Y-62230185D01*
X29516248Y-62193523D01*
X29601091Y-62173154D01*
X29612721Y-62168337D01*
X29729412Y-62120002D01*
X29754546Y-62109591D01*
X29802764Y-62100000D01*
X44400000Y-62100000D01*
X44800000Y-61700000D01*
X44800000Y-61126000D01*
X44820002Y-61057879D01*
X44873658Y-61011386D01*
X44926000Y-61000000D01*
X49900000Y-61000000D01*
X49907867Y-60992371D01*
X49907868Y-60992371D01*
X51962500Y-59000000D01*
X82086496Y-59000000D01*
X82087186Y-59006565D01*
X82099450Y-59123247D01*
X82106458Y-59189928D01*
X82165473Y-59371556D01*
X82260960Y-59536944D01*
X82388747Y-59678866D01*
X82543248Y-59791118D01*
X82549276Y-59793802D01*
X82549278Y-59793803D01*
X82600560Y-59816635D01*
X82717712Y-59868794D01*
X82811112Y-59888647D01*
X82898056Y-59907128D01*
X82898061Y-59907128D01*
X82904513Y-59908500D01*
X82963428Y-59908500D01*
X83031549Y-59928502D01*
X83078042Y-59982158D01*
X83088738Y-60021330D01*
X83102993Y-60156956D01*
X83106458Y-60189928D01*
X83165473Y-60371556D01*
X83260960Y-60536944D01*
X83388747Y-60678866D01*
X83543248Y-60791118D01*
X83549276Y-60793802D01*
X83549278Y-60793803D01*
X83711681Y-60866109D01*
X83717712Y-60868794D01*
X83811113Y-60888647D01*
X83898056Y-60907128D01*
X83898061Y-60907128D01*
X83904513Y-60908500D01*
X84095487Y-60908500D01*
X84101939Y-60907128D01*
X84101944Y-60907128D01*
X84188887Y-60888647D01*
X84282288Y-60868794D01*
X84288319Y-60866109D01*
X84450722Y-60793803D01*
X84450724Y-60793802D01*
X84456752Y-60791118D01*
X84611253Y-60678866D01*
X84739040Y-60536944D01*
X84834527Y-60371556D01*
X84880167Y-60231090D01*
X84920241Y-60172486D01*
X84985637Y-60144849D01*
X85055594Y-60156956D01*
X85107900Y-60204962D01*
X85119832Y-60231089D01*
X85165473Y-60371556D01*
X85260960Y-60536944D01*
X85388747Y-60678866D01*
X85543248Y-60791118D01*
X85549276Y-60793802D01*
X85549278Y-60793803D01*
X85711681Y-60866109D01*
X85717712Y-60868794D01*
X85811113Y-60888647D01*
X85898056Y-60907128D01*
X85898061Y-60907128D01*
X85904513Y-60908500D01*
X86095487Y-60908500D01*
X86101939Y-60907128D01*
X86101944Y-60907128D01*
X86188887Y-60888647D01*
X86282288Y-60868794D01*
X86288319Y-60866109D01*
X86450722Y-60793803D01*
X86450724Y-60793802D01*
X86456752Y-60791118D01*
X86611253Y-60678866D01*
X86739040Y-60536944D01*
X86834527Y-60371556D01*
X86880167Y-60231090D01*
X86920241Y-60172486D01*
X86985637Y-60144849D01*
X87055594Y-60156956D01*
X87107900Y-60204962D01*
X87119832Y-60231089D01*
X87165473Y-60371556D01*
X87260960Y-60536944D01*
X87388747Y-60678866D01*
X87543248Y-60791118D01*
X87549276Y-60793802D01*
X87549278Y-60793803D01*
X87711681Y-60866109D01*
X87717712Y-60868794D01*
X87811113Y-60888647D01*
X87898056Y-60907128D01*
X87898061Y-60907128D01*
X87904513Y-60908500D01*
X88095487Y-60908500D01*
X88101939Y-60907128D01*
X88101944Y-60907128D01*
X88188887Y-60888647D01*
X88282288Y-60868794D01*
X88288319Y-60866109D01*
X88450722Y-60793803D01*
X88450724Y-60793802D01*
X88456752Y-60791118D01*
X88611253Y-60678866D01*
X88739040Y-60536944D01*
X88834527Y-60371556D01*
X88893542Y-60189928D01*
X88897008Y-60156956D01*
X88912814Y-60006565D01*
X88913504Y-60000000D01*
X88893542Y-59810072D01*
X88834527Y-59628444D01*
X88739040Y-59463056D01*
X88611253Y-59321134D01*
X88456752Y-59208882D01*
X88450724Y-59206198D01*
X88450722Y-59206197D01*
X88288319Y-59133891D01*
X88288318Y-59133891D01*
X88282288Y-59131206D01*
X88244844Y-59123247D01*
X88182371Y-59089518D01*
X88148049Y-59027369D01*
X88152777Y-58956530D01*
X88195053Y-58899492D01*
X88244844Y-58876753D01*
X88282288Y-58868794D01*
X88399440Y-58816635D01*
X88450722Y-58793803D01*
X88450724Y-58793802D01*
X88456752Y-58791118D01*
X88611253Y-58678866D01*
X88739040Y-58536944D01*
X88834527Y-58371556D01*
X88893542Y-58189928D01*
X88900551Y-58123247D01*
X88912814Y-58006565D01*
X88913504Y-58000000D01*
X88903873Y-57908364D01*
X88894232Y-57816635D01*
X88894232Y-57816633D01*
X88893542Y-57810072D01*
X88834527Y-57628444D01*
X88739040Y-57463056D01*
X88611253Y-57321134D01*
X88456752Y-57208882D01*
X88450724Y-57206198D01*
X88450722Y-57206197D01*
X88288319Y-57133891D01*
X88288318Y-57133891D01*
X88282288Y-57131206D01*
X88188888Y-57111353D01*
X88101944Y-57092872D01*
X88101939Y-57092872D01*
X88095487Y-57091500D01*
X88036572Y-57091500D01*
X87968451Y-57071498D01*
X87921958Y-57017842D01*
X87911262Y-56978670D01*
X87894232Y-56816635D01*
X87894232Y-56816633D01*
X87893542Y-56810072D01*
X87834527Y-56628444D01*
X87739040Y-56463056D01*
X87611253Y-56321134D01*
X87456752Y-56208882D01*
X87450724Y-56206198D01*
X87450722Y-56206197D01*
X87288319Y-56133891D01*
X87288318Y-56133891D01*
X87282288Y-56131206D01*
X87188888Y-56111353D01*
X87101944Y-56092872D01*
X87101939Y-56092872D01*
X87095487Y-56091500D01*
X86904513Y-56091500D01*
X86898061Y-56092872D01*
X86898056Y-56092872D01*
X86811112Y-56111353D01*
X86717712Y-56131206D01*
X86711682Y-56133891D01*
X86711681Y-56133891D01*
X86549278Y-56206197D01*
X86549276Y-56206198D01*
X86543248Y-56208882D01*
X86388747Y-56321134D01*
X86260960Y-56463056D01*
X86165473Y-56628444D01*
X86152363Y-56668794D01*
X86119833Y-56768909D01*
X86079759Y-56827514D01*
X86014363Y-56855151D01*
X85944406Y-56843044D01*
X85892100Y-56795038D01*
X85880167Y-56768909D01*
X85847638Y-56668794D01*
X85834527Y-56628444D01*
X85739040Y-56463056D01*
X85611253Y-56321134D01*
X85456752Y-56208882D01*
X85450724Y-56206198D01*
X85450722Y-56206197D01*
X85288319Y-56133891D01*
X85288318Y-56133891D01*
X85282288Y-56131206D01*
X85188888Y-56111353D01*
X85101944Y-56092872D01*
X85101939Y-56092872D01*
X85095487Y-56091500D01*
X84904513Y-56091500D01*
X84898061Y-56092872D01*
X84898056Y-56092872D01*
X84811112Y-56111353D01*
X84717712Y-56131206D01*
X84711682Y-56133891D01*
X84711681Y-56133891D01*
X84549278Y-56206197D01*
X84549276Y-56206198D01*
X84543248Y-56208882D01*
X84388747Y-56321134D01*
X84260960Y-56463056D01*
X84165473Y-56628444D01*
X84152363Y-56668794D01*
X84119833Y-56768909D01*
X84079759Y-56827514D01*
X84014363Y-56855151D01*
X83944406Y-56843044D01*
X83892100Y-56795038D01*
X83880167Y-56768909D01*
X83847638Y-56668794D01*
X83834527Y-56628444D01*
X83739040Y-56463056D01*
X83611253Y-56321134D01*
X83456752Y-56208882D01*
X83450724Y-56206198D01*
X83450722Y-56206197D01*
X83288319Y-56133891D01*
X83288318Y-56133891D01*
X83282288Y-56131206D01*
X83188888Y-56111353D01*
X83101944Y-56092872D01*
X83101939Y-56092872D01*
X83095487Y-56091500D01*
X82904513Y-56091500D01*
X82898061Y-56092872D01*
X82898056Y-56092872D01*
X82811112Y-56111353D01*
X82717712Y-56131206D01*
X82711682Y-56133891D01*
X82711681Y-56133891D01*
X82549278Y-56206197D01*
X82549276Y-56206198D01*
X82543248Y-56208882D01*
X82388747Y-56321134D01*
X82260960Y-56463056D01*
X82165473Y-56628444D01*
X82106458Y-56810072D01*
X82105768Y-56816633D01*
X82105768Y-56816635D01*
X82101720Y-56855151D01*
X82086496Y-57000000D01*
X82106458Y-57189928D01*
X82165473Y-57371556D01*
X82260960Y-57536944D01*
X82388747Y-57678866D01*
X82543248Y-57791118D01*
X82549276Y-57793802D01*
X82549278Y-57793803D01*
X82600560Y-57816635D01*
X82717712Y-57868794D01*
X82755156Y-57876753D01*
X82817629Y-57910482D01*
X82851951Y-57972631D01*
X82847223Y-58043470D01*
X82804947Y-58100508D01*
X82755156Y-58123247D01*
X82717712Y-58131206D01*
X82711682Y-58133891D01*
X82711681Y-58133891D01*
X82549278Y-58206197D01*
X82549276Y-58206198D01*
X82543248Y-58208882D01*
X82388747Y-58321134D01*
X82260960Y-58463056D01*
X82165473Y-58628444D01*
X82106458Y-58810072D01*
X82105768Y-58816633D01*
X82105768Y-58816635D01*
X82097060Y-58899492D01*
X82086496Y-59000000D01*
X51962500Y-59000000D01*
X52434965Y-58541852D01*
X53163344Y-57835545D01*
X53226172Y-57802482D01*
X53251058Y-57800000D01*
X59100000Y-57800000D01*
X60408020Y-56549016D01*
X60407685Y-55800000D01*
X67256496Y-55800000D01*
X67276458Y-55989928D01*
X67335473Y-56171556D01*
X67430960Y-56336944D01*
X67558747Y-56478866D01*
X67713248Y-56591118D01*
X67719276Y-56593802D01*
X67719278Y-56593803D01*
X67811200Y-56634729D01*
X67887712Y-56668794D01*
X67981113Y-56688647D01*
X68068056Y-56707128D01*
X68068061Y-56707128D01*
X68074513Y-56708500D01*
X68265487Y-56708500D01*
X68271939Y-56707128D01*
X68271944Y-56707128D01*
X68305478Y-56700000D01*
X77686496Y-56700000D01*
X77687186Y-56706565D01*
X77693739Y-56768909D01*
X77706458Y-56889928D01*
X77765473Y-57071556D01*
X77860960Y-57236944D01*
X77988747Y-57378866D01*
X78143248Y-57491118D01*
X78149276Y-57493802D01*
X78149278Y-57493803D01*
X78233332Y-57531226D01*
X78317712Y-57568794D01*
X78411113Y-57588647D01*
X78498056Y-57607128D01*
X78498061Y-57607128D01*
X78504513Y-57608500D01*
X78695487Y-57608500D01*
X78701939Y-57607128D01*
X78701944Y-57607128D01*
X78788887Y-57588647D01*
X78882288Y-57568794D01*
X78966668Y-57531226D01*
X79050722Y-57493803D01*
X79050724Y-57493802D01*
X79056752Y-57491118D01*
X79211253Y-57378866D01*
X79339040Y-57236944D01*
X79434527Y-57071556D01*
X79493542Y-56889928D01*
X79506262Y-56768909D01*
X79512814Y-56706565D01*
X79513504Y-56700000D01*
X79493542Y-56510072D01*
X79434527Y-56328444D01*
X79339040Y-56163056D01*
X79211253Y-56021134D01*
X79056752Y-55908882D01*
X79050724Y-55906198D01*
X79050722Y-55906197D01*
X78888319Y-55833891D01*
X78888318Y-55833891D01*
X78882288Y-55831206D01*
X78766362Y-55806565D01*
X78701944Y-55792872D01*
X78701939Y-55792872D01*
X78695487Y-55791500D01*
X78504513Y-55791500D01*
X78498061Y-55792872D01*
X78498056Y-55792872D01*
X78433638Y-55806565D01*
X78317712Y-55831206D01*
X78311682Y-55833891D01*
X78311681Y-55833891D01*
X78149278Y-55906197D01*
X78149276Y-55906198D01*
X78143248Y-55908882D01*
X77988747Y-56021134D01*
X77860960Y-56163056D01*
X77765473Y-56328444D01*
X77706458Y-56510072D01*
X77686496Y-56700000D01*
X68305478Y-56700000D01*
X68358888Y-56688647D01*
X68452288Y-56668794D01*
X68528800Y-56634729D01*
X68620722Y-56593803D01*
X68620724Y-56593802D01*
X68626752Y-56591118D01*
X68781253Y-56478866D01*
X68909040Y-56336944D01*
X69004527Y-56171556D01*
X69063542Y-55989928D01*
X69083504Y-55800000D01*
X69063542Y-55610072D01*
X69004527Y-55428444D01*
X68909040Y-55263056D01*
X68781253Y-55121134D01*
X68626752Y-55008882D01*
X68620724Y-55006198D01*
X68620722Y-55006197D01*
X68458319Y-54933891D01*
X68458318Y-54933891D01*
X68452288Y-54931206D01*
X68358888Y-54911353D01*
X68271944Y-54892872D01*
X68271939Y-54892872D01*
X68265487Y-54891500D01*
X68074513Y-54891500D01*
X68068061Y-54892872D01*
X68068056Y-54892872D01*
X67981112Y-54911353D01*
X67887712Y-54931206D01*
X67881682Y-54933891D01*
X67881681Y-54933891D01*
X67719278Y-55006197D01*
X67719276Y-55006198D01*
X67713248Y-55008882D01*
X67558747Y-55121134D01*
X67430960Y-55263056D01*
X67335473Y-55428444D01*
X67276458Y-55610072D01*
X67256496Y-55800000D01*
X60407685Y-55800000D01*
X60407594Y-55595555D01*
X60427566Y-55527427D01*
X60481201Y-55480910D01*
X60535572Y-55469516D01*
X60557572Y-55469862D01*
X60598940Y-55470512D01*
X60598946Y-55470512D01*
X60603231Y-55470579D01*
X60895408Y-55435222D01*
X61180082Y-55360539D01*
X61451988Y-55247912D01*
X61675587Y-55117251D01*
X61702389Y-55101589D01*
X61702390Y-55101588D01*
X61706092Y-55099425D01*
X61937694Y-54917827D01*
X61963207Y-54891500D01*
X62139523Y-54709554D01*
X62142506Y-54706476D01*
X62316741Y-54469285D01*
X62332533Y-54440200D01*
X62455122Y-54214418D01*
X62455123Y-54214416D01*
X62457172Y-54210642D01*
X62532989Y-54010000D01*
X63326655Y-54010000D01*
X63346000Y-54231114D01*
X63347424Y-54236427D01*
X63347424Y-54236429D01*
X63397435Y-54423071D01*
X63403447Y-54445510D01*
X63405769Y-54450490D01*
X63405770Y-54450492D01*
X63494925Y-54641685D01*
X63494928Y-54641690D01*
X63497251Y-54646672D01*
X63500407Y-54651179D01*
X63500408Y-54651181D01*
X63536708Y-54703022D01*
X63624561Y-54828490D01*
X63781510Y-54985439D01*
X63786018Y-54988596D01*
X63786021Y-54988598D01*
X63861687Y-55041580D01*
X63963327Y-55112749D01*
X63968309Y-55115072D01*
X63968314Y-55115075D01*
X64159508Y-55204230D01*
X64164490Y-55206553D01*
X64169798Y-55207975D01*
X64169800Y-55207976D01*
X64373571Y-55262576D01*
X64373573Y-55262576D01*
X64378886Y-55264000D01*
X64600000Y-55283345D01*
X64821114Y-55264000D01*
X64826427Y-55262576D01*
X64826429Y-55262576D01*
X65030200Y-55207976D01*
X65030202Y-55207975D01*
X65035510Y-55206553D01*
X65040492Y-55204230D01*
X65231686Y-55115075D01*
X65231691Y-55115072D01*
X65236673Y-55112749D01*
X65338313Y-55041580D01*
X65413979Y-54988598D01*
X65413982Y-54988596D01*
X65418490Y-54985439D01*
X65575439Y-54828490D01*
X65663293Y-54703022D01*
X65699592Y-54651181D01*
X65699593Y-54651179D01*
X65702749Y-54646672D01*
X65705072Y-54641690D01*
X65705075Y-54641685D01*
X65794230Y-54450492D01*
X65794231Y-54450490D01*
X65796553Y-54445510D01*
X65802566Y-54423071D01*
X65852576Y-54236429D01*
X65852576Y-54236427D01*
X65854000Y-54231114D01*
X65873345Y-54010000D01*
X65854000Y-53788886D01*
X65852576Y-53783571D01*
X65797976Y-53579800D01*
X65797975Y-53579798D01*
X65796553Y-53574490D01*
X65794230Y-53569508D01*
X65705075Y-53378315D01*
X65705072Y-53378310D01*
X65702749Y-53373328D01*
X65699592Y-53368819D01*
X65578598Y-53196021D01*
X65578596Y-53196018D01*
X65575439Y-53191510D01*
X65418490Y-53034561D01*
X65413982Y-53031404D01*
X65413979Y-53031402D01*
X65275464Y-52934413D01*
X65236673Y-52907251D01*
X65231691Y-52904928D01*
X65231686Y-52904925D01*
X65122894Y-52854195D01*
X65069609Y-52807278D01*
X65050148Y-52739000D01*
X65070690Y-52671041D01*
X65122894Y-52625805D01*
X65231686Y-52575075D01*
X65231691Y-52575072D01*
X65236673Y-52572749D01*
X65410901Y-52450753D01*
X65413979Y-52448598D01*
X65413982Y-52448596D01*
X65418490Y-52445439D01*
X65575439Y-52288490D01*
X65644945Y-52189226D01*
X65699592Y-52111181D01*
X65699593Y-52111179D01*
X65702749Y-52106672D01*
X65705072Y-52101690D01*
X65705075Y-52101685D01*
X65794230Y-51910492D01*
X65794231Y-51910490D01*
X65796553Y-51905510D01*
X65841978Y-51735983D01*
X65852576Y-51696429D01*
X65852576Y-51696427D01*
X65854000Y-51691114D01*
X65873345Y-51470000D01*
X65854000Y-51248886D01*
X65839538Y-51194912D01*
X65797976Y-51039800D01*
X65797975Y-51039798D01*
X65796553Y-51034490D01*
X65792458Y-51025708D01*
X65705075Y-50838315D01*
X65705072Y-50838310D01*
X65702749Y-50833328D01*
X65588502Y-50670166D01*
X65578598Y-50656021D01*
X65578596Y-50656018D01*
X65575439Y-50651510D01*
X65418490Y-50494561D01*
X65413982Y-50491404D01*
X65413979Y-50491402D01*
X65338313Y-50438420D01*
X65236673Y-50367251D01*
X65231691Y-50364928D01*
X65231686Y-50364925D01*
X65040492Y-50275770D01*
X65040491Y-50275769D01*
X65035510Y-50273447D01*
X65030202Y-50272025D01*
X65030200Y-50272024D01*
X64826429Y-50217424D01*
X64826427Y-50217424D01*
X64821114Y-50216000D01*
X64600000Y-50196655D01*
X64378886Y-50216000D01*
X64373573Y-50217424D01*
X64373571Y-50217424D01*
X64169800Y-50272024D01*
X64169798Y-50272025D01*
X64164490Y-50273447D01*
X64159510Y-50275769D01*
X64159508Y-50275770D01*
X63968315Y-50364925D01*
X63968310Y-50364928D01*
X63963328Y-50367251D01*
X63958821Y-50370407D01*
X63958819Y-50370408D01*
X63786021Y-50491402D01*
X63786018Y-50491404D01*
X63781510Y-50494561D01*
X63624561Y-50651510D01*
X63621404Y-50656018D01*
X63621402Y-50656021D01*
X63611498Y-50670166D01*
X63497251Y-50833328D01*
X63494928Y-50838310D01*
X63494925Y-50838315D01*
X63407542Y-51025708D01*
X63403447Y-51034490D01*
X63402025Y-51039798D01*
X63402024Y-51039800D01*
X63360462Y-51194912D01*
X63346000Y-51248886D01*
X63326655Y-51470000D01*
X63346000Y-51691114D01*
X63347424Y-51696427D01*
X63347424Y-51696429D01*
X63358023Y-51735983D01*
X63403447Y-51905510D01*
X63405769Y-51910490D01*
X63405770Y-51910492D01*
X63494925Y-52101685D01*
X63494928Y-52101690D01*
X63497251Y-52106672D01*
X63500407Y-52111179D01*
X63500408Y-52111181D01*
X63555056Y-52189226D01*
X63624561Y-52288490D01*
X63781510Y-52445439D01*
X63786018Y-52448596D01*
X63786021Y-52448598D01*
X63789099Y-52450753D01*
X63963327Y-52572749D01*
X63968309Y-52575072D01*
X63968314Y-52575075D01*
X64077106Y-52625805D01*
X64130391Y-52672722D01*
X64149852Y-52741000D01*
X64129310Y-52808959D01*
X64077106Y-52854195D01*
X63968315Y-52904925D01*
X63968310Y-52904928D01*
X63963328Y-52907251D01*
X63958821Y-52910407D01*
X63958819Y-52910408D01*
X63786021Y-53031402D01*
X63786018Y-53031404D01*
X63781510Y-53034561D01*
X63624561Y-53191510D01*
X63621404Y-53196018D01*
X63621402Y-53196021D01*
X63500408Y-53368819D01*
X63497251Y-53373328D01*
X63494928Y-53378310D01*
X63494925Y-53378315D01*
X63405770Y-53569508D01*
X63403447Y-53574490D01*
X63402025Y-53579798D01*
X63402024Y-53579800D01*
X63347424Y-53783571D01*
X63346000Y-53788886D01*
X63326655Y-54010000D01*
X62532989Y-54010000D01*
X62534198Y-54006800D01*
X62559685Y-53939351D01*
X62559686Y-53939347D01*
X62561203Y-53935333D01*
X62626907Y-53648453D01*
X62630184Y-53611743D01*
X62652849Y-53357776D01*
X62652849Y-53357774D01*
X62653069Y-53355310D01*
X62653544Y-53310000D01*
X62645774Y-53196021D01*
X62633819Y-53020650D01*
X62633818Y-53020644D01*
X62633527Y-53016373D01*
X62573845Y-52728180D01*
X62475603Y-52450753D01*
X62340618Y-52189226D01*
X62320218Y-52160199D01*
X62173856Y-51951948D01*
X62173855Y-51951947D01*
X62171389Y-51948438D01*
X61971048Y-51732844D01*
X61926558Y-51696429D01*
X61746618Y-51549151D01*
X61743300Y-51546435D01*
X61492361Y-51392660D01*
X61488425Y-51390932D01*
X61226802Y-51276087D01*
X61226798Y-51276086D01*
X61222874Y-51274363D01*
X60939826Y-51193735D01*
X60935584Y-51193131D01*
X60935578Y-51193130D01*
X60652705Y-51152871D01*
X60648454Y-51152266D01*
X60644165Y-51152244D01*
X60644158Y-51152243D01*
X60530892Y-51151650D01*
X60462877Y-51131292D01*
X60416666Y-51077393D01*
X60405552Y-51025708D01*
X60405308Y-50478866D01*
X60405005Y-49800000D01*
X67286496Y-49800000D01*
X67306458Y-49989928D01*
X67365473Y-50171556D01*
X67460960Y-50336944D01*
X67465378Y-50341851D01*
X67465379Y-50341852D01*
X67491091Y-50370408D01*
X67588747Y-50478866D01*
X67743248Y-50591118D01*
X67749276Y-50593802D01*
X67749278Y-50593803D01*
X67870138Y-50647613D01*
X67917712Y-50668794D01*
X68011113Y-50688647D01*
X68098056Y-50707128D01*
X68098061Y-50707128D01*
X68104513Y-50708500D01*
X68295487Y-50708500D01*
X68301939Y-50707128D01*
X68301944Y-50707128D01*
X68388887Y-50688647D01*
X68482288Y-50668794D01*
X68529862Y-50647613D01*
X68650722Y-50593803D01*
X68650724Y-50593802D01*
X68656752Y-50591118D01*
X68811253Y-50478866D01*
X68908909Y-50370408D01*
X68934621Y-50341852D01*
X68934622Y-50341851D01*
X68939040Y-50336944D01*
X69034527Y-50171556D01*
X69093542Y-49989928D01*
X69113504Y-49800000D01*
X69093542Y-49610072D01*
X69034527Y-49428444D01*
X68939040Y-49263056D01*
X68811253Y-49121134D01*
X68656752Y-49008882D01*
X68650724Y-49006198D01*
X68650722Y-49006197D01*
X68488319Y-48933891D01*
X68488318Y-48933891D01*
X68482288Y-48931206D01*
X68369279Y-48907185D01*
X68301944Y-48892872D01*
X68301939Y-48892872D01*
X68295487Y-48891500D01*
X68104513Y-48891500D01*
X68098061Y-48892872D01*
X68098056Y-48892872D01*
X68030721Y-48907185D01*
X67917712Y-48931206D01*
X67911682Y-48933891D01*
X67911681Y-48933891D01*
X67749278Y-49006197D01*
X67749276Y-49006198D01*
X67743248Y-49008882D01*
X67588747Y-49121134D01*
X67460960Y-49263056D01*
X67365473Y-49428444D01*
X67306458Y-49610072D01*
X67286496Y-49800000D01*
X60405005Y-49800000D01*
X60404007Y-47566695D01*
X82782251Y-47566695D01*
X82795110Y-47789715D01*
X82796247Y-47794761D01*
X82796248Y-47794767D01*
X82820304Y-47901508D01*
X82844222Y-48007639D01*
X82928266Y-48214616D01*
X83044987Y-48405088D01*
X83191250Y-48573938D01*
X83363126Y-48716632D01*
X83556000Y-48829338D01*
X83764692Y-48909030D01*
X83769760Y-48910061D01*
X83769763Y-48910062D01*
X83866946Y-48929834D01*
X83983597Y-48953567D01*
X83988772Y-48953757D01*
X83988774Y-48953757D01*
X84201673Y-48961564D01*
X84201677Y-48961564D01*
X84206837Y-48961753D01*
X84211957Y-48961097D01*
X84211959Y-48961097D01*
X84423288Y-48934025D01*
X84423289Y-48934025D01*
X84428416Y-48933368D01*
X84433366Y-48931883D01*
X84637429Y-48870661D01*
X84637434Y-48870659D01*
X84642384Y-48869174D01*
X84842994Y-48770896D01*
X85024860Y-48641173D01*
X85133091Y-48533319D01*
X85195462Y-48499404D01*
X85266268Y-48504592D01*
X85323030Y-48547238D01*
X85340012Y-48578341D01*
X85384385Y-48696705D01*
X85471739Y-48813261D01*
X85588295Y-48900615D01*
X85724684Y-48951745D01*
X85786866Y-48958500D01*
X87583134Y-48958500D01*
X87645316Y-48951745D01*
X87781705Y-48900615D01*
X87898261Y-48813261D01*
X87985615Y-48696705D01*
X88036745Y-48560316D01*
X88043500Y-48498134D01*
X88043500Y-46701866D01*
X88036745Y-46639684D01*
X87985615Y-46503295D01*
X87898261Y-46386739D01*
X87781705Y-46299385D01*
X87645316Y-46248255D01*
X87583134Y-46241500D01*
X85786866Y-46241500D01*
X85724684Y-46248255D01*
X85588295Y-46299385D01*
X85471739Y-46386739D01*
X85384385Y-46503295D01*
X85381233Y-46511703D01*
X85339919Y-46621907D01*
X85297277Y-46678671D01*
X85230716Y-46703371D01*
X85161367Y-46688163D01*
X85128743Y-46662476D01*
X85078151Y-46606875D01*
X85078142Y-46606866D01*
X85074670Y-46603051D01*
X85070619Y-46599852D01*
X85070615Y-46599848D01*
X84903414Y-46467800D01*
X84903410Y-46467798D01*
X84899359Y-46464598D01*
X84703789Y-46356638D01*
X84698920Y-46354914D01*
X84698916Y-46354912D01*
X84498087Y-46283795D01*
X84498083Y-46283794D01*
X84493212Y-46282069D01*
X84488119Y-46281162D01*
X84488116Y-46281161D01*
X84278373Y-46243800D01*
X84278367Y-46243799D01*
X84273284Y-46242894D01*
X84199452Y-46241992D01*
X84055081Y-46240228D01*
X84055079Y-46240228D01*
X84049911Y-46240165D01*
X83829091Y-46273955D01*
X83616756Y-46343357D01*
X83418607Y-46446507D01*
X83414474Y-46449610D01*
X83414471Y-46449612D01*
X83291772Y-46541737D01*
X83239965Y-46580635D01*
X83200525Y-46621907D01*
X83146280Y-46678671D01*
X83085629Y-46742138D01*
X83082715Y-46746410D01*
X83082714Y-46746411D01*
X83067798Y-46768277D01*
X82959743Y-46926680D01*
X82865688Y-47129305D01*
X82805989Y-47344570D01*
X82782251Y-47566695D01*
X60404007Y-47566695D01*
X60402487Y-44165475D01*
X60422459Y-44097347D01*
X60476094Y-44050830D01*
X60530466Y-44039436D01*
X60598940Y-44040512D01*
X60598946Y-44040512D01*
X60603231Y-44040579D01*
X60895408Y-44005222D01*
X61037745Y-43967880D01*
X61175939Y-43931626D01*
X61175940Y-43931626D01*
X61180082Y-43930539D01*
X61451988Y-43817912D01*
X61602431Y-43730000D01*
X63326655Y-43730000D01*
X63346000Y-43951114D01*
X63347424Y-43956427D01*
X63347424Y-43956429D01*
X63369127Y-44037424D01*
X63403447Y-44165510D01*
X63405769Y-44170490D01*
X63405770Y-44170492D01*
X63494925Y-44361685D01*
X63494928Y-44361690D01*
X63497251Y-44366672D01*
X63624561Y-44548490D01*
X63781510Y-44705439D01*
X63786018Y-44708596D01*
X63786021Y-44708598D01*
X63828299Y-44738201D01*
X63963327Y-44832749D01*
X63968309Y-44835072D01*
X63968314Y-44835075D01*
X64159508Y-44924230D01*
X64164490Y-44926553D01*
X64169798Y-44927975D01*
X64169800Y-44927976D01*
X64373571Y-44982576D01*
X64373573Y-44982576D01*
X64378886Y-44984000D01*
X64600000Y-45003345D01*
X64821114Y-44984000D01*
X64826427Y-44982576D01*
X64826429Y-44982576D01*
X65030200Y-44927976D01*
X65030202Y-44927975D01*
X65035510Y-44926553D01*
X65040492Y-44924230D01*
X65231686Y-44835075D01*
X65231691Y-44835072D01*
X65236673Y-44832749D01*
X65371701Y-44738201D01*
X65413979Y-44708598D01*
X65413982Y-44708596D01*
X65418490Y-44705439D01*
X65575439Y-44548490D01*
X65702749Y-44366672D01*
X65705072Y-44361690D01*
X65705075Y-44361685D01*
X65794230Y-44170492D01*
X65794231Y-44170490D01*
X65796553Y-44165510D01*
X65830874Y-44037424D01*
X65852576Y-43956429D01*
X65852576Y-43956427D01*
X65854000Y-43951114D01*
X65873345Y-43730000D01*
X65854000Y-43508886D01*
X65796553Y-43294490D01*
X65786542Y-43273022D01*
X65705075Y-43098315D01*
X65705072Y-43098310D01*
X65702749Y-43093328D01*
X65664908Y-43039285D01*
X65578598Y-42916021D01*
X65578596Y-42916018D01*
X65575439Y-42911510D01*
X65418490Y-42754561D01*
X65413982Y-42751404D01*
X65413979Y-42751402D01*
X65338313Y-42698420D01*
X65236673Y-42627251D01*
X65231691Y-42624928D01*
X65231686Y-42624925D01*
X65122894Y-42574195D01*
X65069609Y-42527278D01*
X65050148Y-42459000D01*
X65070690Y-42391041D01*
X65122894Y-42345805D01*
X65231686Y-42295075D01*
X65231691Y-42295072D01*
X65236673Y-42292749D01*
X65348885Y-42214177D01*
X65413979Y-42168598D01*
X65413982Y-42168596D01*
X65418490Y-42165439D01*
X65575439Y-42008490D01*
X65631956Y-41927776D01*
X65699592Y-41831181D01*
X65699593Y-41831179D01*
X65702749Y-41826672D01*
X65705072Y-41821690D01*
X65705075Y-41821685D01*
X65794230Y-41630492D01*
X65794231Y-41630490D01*
X65796553Y-41625510D01*
X65854000Y-41411114D01*
X65873345Y-41190000D01*
X65854000Y-40968886D01*
X65796553Y-40754490D01*
X65794230Y-40749508D01*
X65705075Y-40558315D01*
X65705072Y-40558310D01*
X65702749Y-40553328D01*
X65678319Y-40518438D01*
X65578598Y-40376021D01*
X65578596Y-40376018D01*
X65575439Y-40371510D01*
X65418490Y-40214561D01*
X65413982Y-40211404D01*
X65413979Y-40211402D01*
X65338313Y-40158420D01*
X65236673Y-40087251D01*
X65231691Y-40084928D01*
X65231686Y-40084925D01*
X65040492Y-39995770D01*
X65040491Y-39995769D01*
X65035510Y-39993447D01*
X65030202Y-39992025D01*
X65030200Y-39992024D01*
X64826429Y-39937424D01*
X64826427Y-39937424D01*
X64821114Y-39936000D01*
X64600000Y-39916655D01*
X64378886Y-39936000D01*
X64373573Y-39937424D01*
X64373571Y-39937424D01*
X64169800Y-39992024D01*
X64169798Y-39992025D01*
X64164490Y-39993447D01*
X64159510Y-39995769D01*
X64159508Y-39995770D01*
X63968315Y-40084925D01*
X63968310Y-40084928D01*
X63963328Y-40087251D01*
X63958821Y-40090407D01*
X63958819Y-40090408D01*
X63786021Y-40211402D01*
X63786018Y-40211404D01*
X63781510Y-40214561D01*
X63624561Y-40371510D01*
X63621404Y-40376018D01*
X63621402Y-40376021D01*
X63521681Y-40518438D01*
X63497251Y-40553328D01*
X63494928Y-40558310D01*
X63494925Y-40558315D01*
X63405770Y-40749508D01*
X63403447Y-40754490D01*
X63346000Y-40968886D01*
X63326655Y-41190000D01*
X63346000Y-41411114D01*
X63403447Y-41625510D01*
X63405769Y-41630490D01*
X63405770Y-41630492D01*
X63494925Y-41821685D01*
X63494928Y-41821690D01*
X63497251Y-41826672D01*
X63500407Y-41831179D01*
X63500408Y-41831181D01*
X63568045Y-41927776D01*
X63624561Y-42008490D01*
X63781510Y-42165439D01*
X63786018Y-42168596D01*
X63786021Y-42168598D01*
X63851115Y-42214177D01*
X63963327Y-42292749D01*
X63968309Y-42295072D01*
X63968314Y-42295075D01*
X64077106Y-42345805D01*
X64130391Y-42392722D01*
X64149852Y-42461000D01*
X64129310Y-42528959D01*
X64077106Y-42574195D01*
X63968315Y-42624925D01*
X63968310Y-42624928D01*
X63963328Y-42627251D01*
X63958821Y-42630407D01*
X63958819Y-42630408D01*
X63786021Y-42751402D01*
X63786018Y-42751404D01*
X63781510Y-42754561D01*
X63624561Y-42911510D01*
X63621404Y-42916018D01*
X63621402Y-42916021D01*
X63535092Y-43039285D01*
X63497251Y-43093328D01*
X63494928Y-43098310D01*
X63494925Y-43098315D01*
X63413458Y-43273022D01*
X63403447Y-43294490D01*
X63346000Y-43508886D01*
X63326655Y-43730000D01*
X61602431Y-43730000D01*
X61706092Y-43669425D01*
X61937694Y-43487827D01*
X62142506Y-43276476D01*
X62316741Y-43039285D01*
X62457172Y-42780642D01*
X62550580Y-42533447D01*
X62559685Y-42509351D01*
X62559686Y-42509347D01*
X62561203Y-42505333D01*
X62626907Y-42218453D01*
X62631357Y-42168598D01*
X62652849Y-41927776D01*
X62652849Y-41927774D01*
X62653069Y-41925310D01*
X62653544Y-41880000D01*
X62633527Y-41586373D01*
X62573845Y-41298180D01*
X62475603Y-41020753D01*
X62340618Y-40759226D01*
X62337290Y-40754490D01*
X62173856Y-40521948D01*
X62173855Y-40521947D01*
X62171389Y-40518438D01*
X61971048Y-40302844D01*
X61743300Y-40116435D01*
X61492361Y-39962660D01*
X61488425Y-39960932D01*
X61226802Y-39846087D01*
X61226798Y-39846086D01*
X61222874Y-39844363D01*
X60939826Y-39763735D01*
X60935584Y-39763131D01*
X60935578Y-39763130D01*
X60652705Y-39722871D01*
X60648454Y-39722266D01*
X60525785Y-39721624D01*
X60457770Y-39701266D01*
X60411559Y-39647368D01*
X60400445Y-39595682D01*
X60400008Y-38618117D01*
X60400000Y-38600000D01*
X58700000Y-37000000D01*
X32252190Y-37000000D01*
X32184069Y-36979998D01*
X32163095Y-36963095D01*
X31736905Y-36536905D01*
X31702879Y-36474593D01*
X31700000Y-36447810D01*
X31700000Y-34431000D01*
X75181727Y-34431000D01*
X75187633Y-34438890D01*
X75406108Y-34575142D01*
X75412746Y-34578746D01*
X75700803Y-34713375D01*
X75707856Y-34716168D01*
X76009997Y-34815215D01*
X76017321Y-34817136D01*
X76329184Y-34879170D01*
X76336675Y-34880196D01*
X76653736Y-34904314D01*
X76661299Y-34904432D01*
X76978946Y-34890286D01*
X76986492Y-34889493D01*
X77300139Y-34837288D01*
X77307515Y-34835599D01*
X77612619Y-34746090D01*
X77619751Y-34743523D01*
X77911899Y-34618007D01*
X77918652Y-34614611D01*
X78193613Y-34454900D01*
X78199916Y-34450712D01*
X78210352Y-34442834D01*
X78218809Y-34431440D01*
X78212093Y-34419200D01*
X76712812Y-32919919D01*
X76698868Y-32912305D01*
X76697035Y-32912436D01*
X76690420Y-32916687D01*
X75188487Y-34418620D01*
X75181727Y-34431000D01*
X31700000Y-34431000D01*
X31700000Y-32175467D01*
X73995402Y-32175467D01*
X74011211Y-32493034D01*
X74012042Y-32500563D01*
X74065888Y-32813929D01*
X74067621Y-32821316D01*
X74158723Y-33125940D01*
X74161326Y-33133054D01*
X74288368Y-33424534D01*
X74291810Y-33431290D01*
X74452947Y-33705392D01*
X74456727Y-33711017D01*
X74468112Y-33719376D01*
X74480177Y-33712716D01*
X75980081Y-32212812D01*
X75986459Y-32201132D01*
X77412305Y-32201132D01*
X77412436Y-32202965D01*
X77416687Y-32209580D01*
X78918219Y-33711112D01*
X78930599Y-33717872D01*
X78938654Y-33711842D01*
X79068330Y-33506319D01*
X79071977Y-33499684D01*
X79208112Y-33212338D01*
X79210937Y-33205311D01*
X79311570Y-32903676D01*
X79313524Y-32896385D01*
X79377190Y-32584846D01*
X79378258Y-32577342D01*
X79404160Y-32258883D01*
X79404365Y-32254408D01*
X79404912Y-32202221D01*
X79404802Y-32197789D01*
X79385572Y-31878816D01*
X79384664Y-31871314D01*
X79327538Y-31558525D01*
X79325725Y-31551145D01*
X79231442Y-31247505D01*
X79228761Y-31240408D01*
X79098673Y-30950270D01*
X79095172Y-30943573D01*
X78942307Y-30689664D01*
X78931924Y-30680122D01*
X78923383Y-30683724D01*
X77419919Y-32187188D01*
X77412305Y-32201132D01*
X75986459Y-32201132D01*
X75987695Y-32198868D01*
X75987564Y-32197035D01*
X75983313Y-32190420D01*
X74480925Y-30688032D01*
X74468545Y-30681272D01*
X74460816Y-30687058D01*
X74318122Y-30918552D01*
X74314542Y-30925228D01*
X74181424Y-31213985D01*
X74178674Y-31221036D01*
X74081208Y-31523701D01*
X74079325Y-31531034D01*
X74018925Y-31843217D01*
X74017938Y-31850716D01*
X73995481Y-32167886D01*
X73995402Y-32175467D01*
X31700000Y-32175467D01*
X31700000Y-31500000D01*
X31200000Y-31000000D01*
X20634500Y-31000000D01*
X20566379Y-30979998D01*
X20519886Y-30926342D01*
X20508500Y-30874000D01*
X20508500Y-30443134D01*
X35991500Y-30443134D01*
X35998255Y-30505316D01*
X36049385Y-30641705D01*
X36136739Y-30758261D01*
X36253295Y-30845615D01*
X36389684Y-30896745D01*
X36451866Y-30903500D01*
X38248134Y-30903500D01*
X38310316Y-30896745D01*
X38446705Y-30845615D01*
X38563261Y-30758261D01*
X38650615Y-30641705D01*
X38701745Y-30505316D01*
X38706335Y-30463061D01*
X38733576Y-30397500D01*
X38791939Y-30357073D01*
X38862893Y-30354617D01*
X38926835Y-30394171D01*
X39022865Y-30505031D01*
X39022869Y-30505035D01*
X39026250Y-30508938D01*
X39198126Y-30651632D01*
X39391000Y-30764338D01*
X39599692Y-30844030D01*
X39604760Y-30845061D01*
X39604763Y-30845062D01*
X39712017Y-30866883D01*
X39818597Y-30888567D01*
X39823772Y-30888757D01*
X39823774Y-30888757D01*
X40036673Y-30896564D01*
X40036677Y-30896564D01*
X40041837Y-30896753D01*
X40046957Y-30896097D01*
X40046959Y-30896097D01*
X40258288Y-30869025D01*
X40258289Y-30869025D01*
X40263416Y-30868368D01*
X40268366Y-30866883D01*
X40472429Y-30805661D01*
X40472434Y-30805659D01*
X40477384Y-30804174D01*
X40677994Y-30705896D01*
X40859860Y-30576173D01*
X40866845Y-30569213D01*
X41014435Y-30422137D01*
X41018096Y-30418489D01*
X41046600Y-30378822D01*
X41148453Y-30237077D01*
X41149776Y-30238028D01*
X41196645Y-30194857D01*
X41266580Y-30182625D01*
X41332026Y-30210144D01*
X41359875Y-30241994D01*
X41419987Y-30340088D01*
X41566250Y-30508938D01*
X41738126Y-30651632D01*
X41931000Y-30764338D01*
X42139692Y-30844030D01*
X42144760Y-30845061D01*
X42144763Y-30845062D01*
X42252017Y-30866883D01*
X42358597Y-30888567D01*
X42363772Y-30888757D01*
X42363774Y-30888757D01*
X42576673Y-30896564D01*
X42576677Y-30896564D01*
X42581837Y-30896753D01*
X42586957Y-30896097D01*
X42586959Y-30896097D01*
X42798288Y-30869025D01*
X42798289Y-30869025D01*
X42803416Y-30868368D01*
X42808366Y-30866883D01*
X43012429Y-30805661D01*
X43012434Y-30805659D01*
X43017384Y-30804174D01*
X43217994Y-30705896D01*
X43399860Y-30576173D01*
X43406845Y-30569213D01*
X43554435Y-30422137D01*
X43558096Y-30418489D01*
X43586600Y-30378822D01*
X43688453Y-30237077D01*
X43689776Y-30238028D01*
X43736645Y-30194857D01*
X43806580Y-30182625D01*
X43872026Y-30210144D01*
X43899875Y-30241994D01*
X43959987Y-30340088D01*
X44106250Y-30508938D01*
X44278126Y-30651632D01*
X44471000Y-30764338D01*
X44679692Y-30844030D01*
X44684760Y-30845061D01*
X44684763Y-30845062D01*
X44792017Y-30866883D01*
X44898597Y-30888567D01*
X44903772Y-30888757D01*
X44903774Y-30888757D01*
X45116673Y-30896564D01*
X45116677Y-30896564D01*
X45121837Y-30896753D01*
X45126957Y-30896097D01*
X45126959Y-30896097D01*
X45338288Y-30869025D01*
X45338289Y-30869025D01*
X45343416Y-30868368D01*
X45348366Y-30866883D01*
X45552429Y-30805661D01*
X45552434Y-30805659D01*
X45557384Y-30804174D01*
X45757994Y-30705896D01*
X45939860Y-30576173D01*
X45946845Y-30569213D01*
X46094435Y-30422137D01*
X46098096Y-30418489D01*
X46126600Y-30378822D01*
X46225435Y-30241277D01*
X46225436Y-30241275D01*
X46228453Y-30237077D01*
X46231801Y-30230304D01*
X46325136Y-30041453D01*
X46325137Y-30041451D01*
X46327430Y-30036811D01*
X46348454Y-29967614D01*
X75180007Y-29967614D01*
X75186612Y-29979505D01*
X76687188Y-31480081D01*
X76701132Y-31487695D01*
X76702965Y-31487564D01*
X76709580Y-31483313D01*
X78149443Y-30043450D01*
X79367535Y-30043450D01*
X79444074Y-30207591D01*
X79449557Y-30217087D01*
X79578731Y-30401567D01*
X79585787Y-30409975D01*
X79745025Y-30569213D01*
X79753433Y-30576269D01*
X79937913Y-30705443D01*
X79947408Y-30710926D01*
X80103583Y-30783752D01*
X80117524Y-30785869D01*
X80120000Y-30782082D01*
X80120000Y-30773292D01*
X81120000Y-30773292D01*
X81123973Y-30786823D01*
X81128450Y-30787466D01*
X81292592Y-30710926D01*
X81302087Y-30705443D01*
X81486567Y-30576269D01*
X81494975Y-30569213D01*
X81654213Y-30409975D01*
X81661273Y-30401562D01*
X81783759Y-30226633D01*
X81839216Y-30182304D01*
X81909835Y-30174995D01*
X81973196Y-30207025D01*
X81994405Y-30233068D01*
X81999436Y-30241277D01*
X82059987Y-30340088D01*
X82206250Y-30508938D01*
X82378126Y-30651632D01*
X82571000Y-30764338D01*
X82779692Y-30844030D01*
X82784760Y-30845061D01*
X82784763Y-30845062D01*
X82892017Y-30866883D01*
X82998597Y-30888567D01*
X83003772Y-30888757D01*
X83003774Y-30888757D01*
X83216673Y-30896564D01*
X83216677Y-30896564D01*
X83221837Y-30896753D01*
X83226957Y-30896097D01*
X83226959Y-30896097D01*
X83438288Y-30869025D01*
X83438289Y-30869025D01*
X83443416Y-30868368D01*
X83448366Y-30866883D01*
X83652429Y-30805661D01*
X83652434Y-30805659D01*
X83657384Y-30804174D01*
X83857994Y-30705896D01*
X84039860Y-30576173D01*
X84046845Y-30569213D01*
X84194435Y-30422137D01*
X84198096Y-30418489D01*
X84226600Y-30378822D01*
X84328453Y-30237077D01*
X84329776Y-30238028D01*
X84376645Y-30194857D01*
X84446580Y-30182625D01*
X84512026Y-30210144D01*
X84539875Y-30241994D01*
X84599987Y-30340088D01*
X84746250Y-30508938D01*
X84918126Y-30651632D01*
X85111000Y-30764338D01*
X85319692Y-30844030D01*
X85324760Y-30845061D01*
X85324763Y-30845062D01*
X85432017Y-30866883D01*
X85538597Y-30888567D01*
X85543772Y-30888757D01*
X85543774Y-30888757D01*
X85756673Y-30896564D01*
X85756677Y-30896564D01*
X85761837Y-30896753D01*
X85766957Y-30896097D01*
X85766959Y-30896097D01*
X85978288Y-30869025D01*
X85978289Y-30869025D01*
X85983416Y-30868368D01*
X85988366Y-30866883D01*
X86192429Y-30805661D01*
X86192434Y-30805659D01*
X86197384Y-30804174D01*
X86397994Y-30705896D01*
X86579860Y-30576173D01*
X86586845Y-30569213D01*
X86734435Y-30422137D01*
X86738096Y-30418489D01*
X86766600Y-30378822D01*
X86791629Y-30343990D01*
X86868453Y-30237077D01*
X86868619Y-30236741D01*
X86919818Y-30189595D01*
X86989755Y-30177373D01*
X87055197Y-30204902D01*
X87078812Y-30230304D01*
X87198731Y-30401567D01*
X87205787Y-30409975D01*
X87365025Y-30569213D01*
X87373433Y-30576269D01*
X87557913Y-30705443D01*
X87567408Y-30710926D01*
X87723583Y-30783752D01*
X87737524Y-30785869D01*
X87740000Y-30782082D01*
X87740000Y-28296709D01*
X87736027Y-28283178D01*
X87731550Y-28282535D01*
X87567409Y-28359074D01*
X87557913Y-28364557D01*
X87373433Y-28493731D01*
X87365025Y-28500787D01*
X87205787Y-28660025D01*
X87198731Y-28668433D01*
X87076724Y-28842678D01*
X87021267Y-28887006D01*
X86950648Y-28894315D01*
X86887287Y-28862285D01*
X86867719Y-28838847D01*
X86782822Y-28707617D01*
X86782820Y-28707614D01*
X86780014Y-28703277D01*
X86629670Y-28538051D01*
X86625619Y-28534852D01*
X86625615Y-28534848D01*
X86458414Y-28402800D01*
X86458410Y-28402798D01*
X86454359Y-28399598D01*
X86258789Y-28291638D01*
X86253920Y-28289914D01*
X86253916Y-28289912D01*
X86053087Y-28218795D01*
X86053083Y-28218794D01*
X86048212Y-28217069D01*
X86043119Y-28216162D01*
X86043116Y-28216161D01*
X85833373Y-28178800D01*
X85833367Y-28178799D01*
X85828284Y-28177894D01*
X85754452Y-28176992D01*
X85610081Y-28175228D01*
X85610079Y-28175228D01*
X85604911Y-28175165D01*
X85384091Y-28208955D01*
X85171756Y-28278357D01*
X85141443Y-28294137D01*
X85006168Y-28364557D01*
X84973607Y-28381507D01*
X84969474Y-28384610D01*
X84969471Y-28384612D01*
X84799100Y-28512530D01*
X84794965Y-28515635D01*
X84791393Y-28519373D01*
X84656983Y-28660025D01*
X84640629Y-28677138D01*
X84533201Y-28834621D01*
X84478293Y-28879621D01*
X84407768Y-28887792D01*
X84344021Y-28856538D01*
X84323324Y-28832054D01*
X84242822Y-28707617D01*
X84242820Y-28707614D01*
X84240014Y-28703277D01*
X84089670Y-28538051D01*
X84085619Y-28534852D01*
X84085615Y-28534848D01*
X83918414Y-28402800D01*
X83918410Y-28402798D01*
X83914359Y-28399598D01*
X83718789Y-28291638D01*
X83713920Y-28289914D01*
X83713916Y-28289912D01*
X83513087Y-28218795D01*
X83513083Y-28218794D01*
X83508212Y-28217069D01*
X83503119Y-28216162D01*
X83503116Y-28216161D01*
X83293373Y-28178800D01*
X83293367Y-28178799D01*
X83288284Y-28177894D01*
X83214452Y-28176992D01*
X83070081Y-28175228D01*
X83070079Y-28175228D01*
X83064911Y-28175165D01*
X82844091Y-28208955D01*
X82631756Y-28278357D01*
X82601443Y-28294137D01*
X82466168Y-28364557D01*
X82433607Y-28381507D01*
X82429474Y-28384610D01*
X82429471Y-28384612D01*
X82259100Y-28512530D01*
X82254965Y-28515635D01*
X82251393Y-28519373D01*
X82116983Y-28660025D01*
X82100629Y-28677138D01*
X82097720Y-28681403D01*
X82097714Y-28681411D01*
X81989560Y-28839959D01*
X81934649Y-28884962D01*
X81864124Y-28893133D01*
X81800377Y-28861879D01*
X81782259Y-28841225D01*
X81661273Y-28668438D01*
X81654213Y-28660025D01*
X81494975Y-28500787D01*
X81486567Y-28493731D01*
X81302087Y-28364557D01*
X81292592Y-28359074D01*
X81136417Y-28286248D01*
X81122476Y-28284131D01*
X81120000Y-28287918D01*
X81120000Y-30773292D01*
X80120000Y-30773292D01*
X80120000Y-30053115D01*
X80115525Y-30037876D01*
X80114135Y-30036671D01*
X80106452Y-30035000D01*
X79381709Y-30035000D01*
X79368178Y-30038973D01*
X79367535Y-30043450D01*
X78149443Y-30043450D01*
X78212478Y-29980415D01*
X78219238Y-29968035D01*
X78213569Y-29960463D01*
X77968952Y-29811440D01*
X77962272Y-29807903D01*
X77672814Y-29676296D01*
X77665744Y-29673582D01*
X77362585Y-29577705D01*
X77355234Y-29575858D01*
X77042742Y-29517094D01*
X77035232Y-29516146D01*
X76717947Y-29495350D01*
X76710382Y-29495310D01*
X76392885Y-29512783D01*
X76385372Y-29513652D01*
X76072281Y-29569141D01*
X76064915Y-29570909D01*
X75760759Y-29663608D01*
X75753663Y-29666248D01*
X75462858Y-29794812D01*
X75456121Y-29798289D01*
X75186472Y-29958713D01*
X75180007Y-29967614D01*
X46348454Y-29967614D01*
X46392370Y-29823069D01*
X46421529Y-29601590D01*
X46423156Y-29535000D01*
X46404852Y-29312361D01*
X46350431Y-29095702D01*
X46322960Y-29032523D01*
X79369132Y-29032523D01*
X79372920Y-29035000D01*
X80101885Y-29035000D01*
X80117124Y-29030525D01*
X80118329Y-29029135D01*
X80120000Y-29021452D01*
X80120000Y-28296709D01*
X80116027Y-28283178D01*
X80111550Y-28282535D01*
X79947409Y-28359074D01*
X79937913Y-28364557D01*
X79753433Y-28493731D01*
X79745025Y-28500787D01*
X79585787Y-28660025D01*
X79578731Y-28668433D01*
X79449557Y-28852913D01*
X79444074Y-28862409D01*
X79371249Y-29018583D01*
X79369132Y-29032523D01*
X46322960Y-29032523D01*
X46261354Y-28890840D01*
X46221906Y-28829862D01*
X46142822Y-28707617D01*
X46142820Y-28707614D01*
X46140014Y-28703277D01*
X45989670Y-28538051D01*
X45985619Y-28534852D01*
X45985615Y-28534848D01*
X45818414Y-28402800D01*
X45818410Y-28402798D01*
X45814359Y-28399598D01*
X45618789Y-28291638D01*
X45613920Y-28289914D01*
X45613916Y-28289912D01*
X45413087Y-28218795D01*
X45413083Y-28218794D01*
X45408212Y-28217069D01*
X45403119Y-28216162D01*
X45403116Y-28216161D01*
X45193373Y-28178800D01*
X45193367Y-28178799D01*
X45188284Y-28177894D01*
X45114452Y-28176992D01*
X44970081Y-28175228D01*
X44970079Y-28175228D01*
X44964911Y-28175165D01*
X44744091Y-28208955D01*
X44531756Y-28278357D01*
X44501443Y-28294137D01*
X44366168Y-28364557D01*
X44333607Y-28381507D01*
X44329474Y-28384610D01*
X44329471Y-28384612D01*
X44159100Y-28512530D01*
X44154965Y-28515635D01*
X44151393Y-28519373D01*
X44016983Y-28660025D01*
X44000629Y-28677138D01*
X43893201Y-28834621D01*
X43838293Y-28879621D01*
X43767768Y-28887792D01*
X43704021Y-28856538D01*
X43683324Y-28832054D01*
X43602822Y-28707617D01*
X43602820Y-28707614D01*
X43600014Y-28703277D01*
X43449670Y-28538051D01*
X43445619Y-28534852D01*
X43445615Y-28534848D01*
X43278414Y-28402800D01*
X43278410Y-28402798D01*
X43274359Y-28399598D01*
X43078789Y-28291638D01*
X43073920Y-28289914D01*
X43073916Y-28289912D01*
X42873087Y-28218795D01*
X42873083Y-28218794D01*
X42868212Y-28217069D01*
X42863119Y-28216162D01*
X42863116Y-28216161D01*
X42653373Y-28178800D01*
X42653367Y-28178799D01*
X42648284Y-28177894D01*
X42574452Y-28176992D01*
X42430081Y-28175228D01*
X42430079Y-28175228D01*
X42424911Y-28175165D01*
X42204091Y-28208955D01*
X41991756Y-28278357D01*
X41961443Y-28294137D01*
X41826168Y-28364557D01*
X41793607Y-28381507D01*
X41789474Y-28384610D01*
X41789471Y-28384612D01*
X41619100Y-28512530D01*
X41614965Y-28515635D01*
X41611393Y-28519373D01*
X41476983Y-28660025D01*
X41460629Y-28677138D01*
X41353201Y-28834621D01*
X41298293Y-28879621D01*
X41227768Y-28887792D01*
X41164021Y-28856538D01*
X41143324Y-28832054D01*
X41062822Y-28707617D01*
X41062820Y-28707614D01*
X41060014Y-28703277D01*
X40909670Y-28538051D01*
X40905619Y-28534852D01*
X40905615Y-28534848D01*
X40738414Y-28402800D01*
X40738410Y-28402798D01*
X40734359Y-28399598D01*
X40538789Y-28291638D01*
X40533920Y-28289914D01*
X40533916Y-28289912D01*
X40333087Y-28218795D01*
X40333083Y-28218794D01*
X40328212Y-28217069D01*
X40323119Y-28216162D01*
X40323116Y-28216161D01*
X40113373Y-28178800D01*
X40113367Y-28178799D01*
X40108284Y-28177894D01*
X40034452Y-28176992D01*
X39890081Y-28175228D01*
X39890079Y-28175228D01*
X39884911Y-28175165D01*
X39664091Y-28208955D01*
X39451756Y-28278357D01*
X39421443Y-28294137D01*
X39286168Y-28364557D01*
X39253607Y-28381507D01*
X39249474Y-28384610D01*
X39249471Y-28384612D01*
X39079100Y-28512530D01*
X39074965Y-28515635D01*
X38920629Y-28677138D01*
X38918910Y-28675495D01*
X38868680Y-28710221D01*
X38797724Y-28712614D01*
X38736738Y-28676265D01*
X38705086Y-28612714D01*
X38703865Y-28604199D01*
X38702598Y-28592539D01*
X38701745Y-28584684D01*
X38650615Y-28448295D01*
X38563261Y-28331739D01*
X38446705Y-28244385D01*
X38310316Y-28193255D01*
X38248134Y-28186500D01*
X36451866Y-28186500D01*
X36389684Y-28193255D01*
X36253295Y-28244385D01*
X36136739Y-28331739D01*
X36049385Y-28448295D01*
X35998255Y-28584684D01*
X35991500Y-28646866D01*
X35991500Y-30443134D01*
X20508500Y-30443134D01*
X20508500Y-25731000D01*
X21981727Y-25731000D01*
X21987633Y-25738890D01*
X22206108Y-25875142D01*
X22212746Y-25878746D01*
X22500803Y-26013375D01*
X22507856Y-26016168D01*
X22809997Y-26115215D01*
X22817321Y-26117136D01*
X23129184Y-26179170D01*
X23136675Y-26180196D01*
X23453736Y-26204314D01*
X23461299Y-26204432D01*
X23778946Y-26190286D01*
X23786492Y-26189493D01*
X24100139Y-26137288D01*
X24107515Y-26135599D01*
X24412619Y-26046090D01*
X24419751Y-26043523D01*
X24711899Y-25918007D01*
X24718652Y-25914611D01*
X24993613Y-25754900D01*
X24999916Y-25750712D01*
X25010352Y-25742834D01*
X25018809Y-25731440D01*
X25012093Y-25719200D01*
X23512812Y-24219919D01*
X23498868Y-24212305D01*
X23497035Y-24212436D01*
X23490420Y-24216687D01*
X21988487Y-25718620D01*
X21981727Y-25731000D01*
X20508500Y-25731000D01*
X20508500Y-23475467D01*
X20795402Y-23475467D01*
X20811211Y-23793034D01*
X20812042Y-23800563D01*
X20865888Y-24113929D01*
X20867621Y-24121316D01*
X20958723Y-24425940D01*
X20961326Y-24433054D01*
X21088368Y-24724534D01*
X21091810Y-24731290D01*
X21252947Y-25005392D01*
X21256727Y-25011017D01*
X21268112Y-25019376D01*
X21280177Y-25012716D01*
X22780081Y-23512812D01*
X22786459Y-23501132D01*
X24212305Y-23501132D01*
X24212436Y-23502965D01*
X24216687Y-23509580D01*
X25718219Y-25011112D01*
X25730599Y-25017872D01*
X25738654Y-25011842D01*
X25868330Y-24806319D01*
X25871977Y-24799684D01*
X26008112Y-24512338D01*
X26010937Y-24505311D01*
X26111570Y-24203676D01*
X26113524Y-24196385D01*
X26177190Y-23884846D01*
X26178258Y-23877342D01*
X26204160Y-23558883D01*
X26204365Y-23554408D01*
X26204912Y-23502221D01*
X26204802Y-23497789D01*
X26185572Y-23178816D01*
X26184664Y-23171314D01*
X26127538Y-22858525D01*
X26125725Y-22851145D01*
X26031442Y-22547505D01*
X26028761Y-22540408D01*
X25898673Y-22250270D01*
X25895172Y-22243573D01*
X25742307Y-21989664D01*
X25731924Y-21980122D01*
X25723383Y-21983724D01*
X24219919Y-23487188D01*
X24212305Y-23501132D01*
X22786459Y-23501132D01*
X22787695Y-23498868D01*
X22787564Y-23497035D01*
X22783313Y-23490420D01*
X21280925Y-21988032D01*
X21268545Y-21981272D01*
X21260816Y-21987058D01*
X21118122Y-22218552D01*
X21114542Y-22225228D01*
X20981424Y-22513985D01*
X20978674Y-22521036D01*
X20881208Y-22823701D01*
X20879325Y-22831034D01*
X20818925Y-23143217D01*
X20817938Y-23150716D01*
X20795481Y-23467886D01*
X20795402Y-23475467D01*
X20508500Y-23475467D01*
X20508500Y-21267614D01*
X21980007Y-21267614D01*
X21986612Y-21279505D01*
X23487188Y-22780081D01*
X23501132Y-22787695D01*
X23502965Y-22787564D01*
X23509580Y-22783313D01*
X25012478Y-21280415D01*
X25019238Y-21268035D01*
X25013569Y-21260463D01*
X24768952Y-21111440D01*
X24762272Y-21107903D01*
X24472814Y-20976296D01*
X24465744Y-20973582D01*
X24162585Y-20877705D01*
X24155234Y-20875858D01*
X23842742Y-20817094D01*
X23835232Y-20816146D01*
X23517947Y-20795350D01*
X23510382Y-20795310D01*
X23192885Y-20812783D01*
X23185372Y-20813652D01*
X22872281Y-20869141D01*
X22864915Y-20870909D01*
X22560759Y-20963608D01*
X22553663Y-20966248D01*
X22262858Y-21094812D01*
X22256121Y-21098289D01*
X21986472Y-21258713D01*
X21980007Y-21267614D01*
X20508500Y-21267614D01*
X20508500Y-20634500D01*
X20528502Y-20566379D01*
X20582158Y-20519886D01*
X20634500Y-20508500D01*
X89365500Y-20508500D01*
X89433621Y-20528502D01*
G37*
%TD.AperFunction*%
M02*
