%TF.GenerationSoftware,KiCad,Pcbnew,(6.0.8-1)-1*%
%TF.CreationDate,2022-11-24T03:29:23+08:00*%
%TF.ProjectId,CCTV3_POE_REV100,43435456-335f-4504-9f45-5f5245563130,100*%
%TF.SameCoordinates,Original*%
%TF.FileFunction,Drillmap*%
%TF.FilePolarity,Positive*%
%FSLAX45Y45*%
G04 Gerber Fmt 4.5, Leading zero omitted, Abs format (unit mm)*
G04 Created by KiCad (PCBNEW (6.0.8-1)-1) date 2022-11-24 03:29:23*
%MOMM*%
%LPD*%
G01*
G04 APERTURE LIST*
%ADD10C,0.100000*%
%ADD11C,0.200000*%
%ADD12C,0.215000*%
%ADD13C,0.260000*%
G04 APERTURE END LIST*
D10*
X2000000Y-2000000D02*
X9000000Y-2000000D01*
X9000000Y-2000000D02*
X9000000Y-7000000D01*
X9000000Y-7000000D02*
X2000000Y-7000000D01*
X2000000Y-7000000D02*
X2000000Y-2000000D01*
D11*
D12*
X2803525Y-4458750D02*
X3018525Y-4673750D01*
X3018525Y-4458750D02*
X2803525Y-4673750D01*
X2803525Y-5958750D02*
X3018525Y-6173750D01*
X3018525Y-5958750D02*
X2803525Y-6173750D01*
D13*
X2641025Y-4566250D02*
G75*
G03*
X2641025Y-4566250I-130000J0D01*
G01*
X2641025Y-6066250D02*
G75*
G03*
X2641025Y-6066250I-130000J0D01*
G01*
D11*
X2252619Y-7315476D02*
X2252619Y-7115476D01*
X2300238Y-7115476D01*
X2328810Y-7125000D01*
X2347857Y-7144048D01*
X2357381Y-7163095D01*
X2366905Y-7201190D01*
X2366905Y-7229762D01*
X2357381Y-7267857D01*
X2347857Y-7286905D01*
X2328810Y-7305952D01*
X2300238Y-7315476D01*
X2252619Y-7315476D01*
X2452619Y-7315476D02*
X2452619Y-7182143D01*
X2452619Y-7220238D02*
X2462143Y-7201190D01*
X2471667Y-7191667D01*
X2490714Y-7182143D01*
X2509762Y-7182143D01*
X2576429Y-7315476D02*
X2576429Y-7182143D01*
X2576429Y-7115476D02*
X2566905Y-7125000D01*
X2576429Y-7134524D01*
X2585952Y-7125000D01*
X2576429Y-7115476D01*
X2576429Y-7134524D01*
X2700238Y-7315476D02*
X2681190Y-7305952D01*
X2671667Y-7286905D01*
X2671667Y-7115476D01*
X2805000Y-7315476D02*
X2785952Y-7305952D01*
X2776429Y-7286905D01*
X2776429Y-7115476D01*
X3033571Y-7315476D02*
X3033571Y-7115476D01*
X3100238Y-7258333D01*
X3166905Y-7115476D01*
X3166905Y-7315476D01*
X3347857Y-7315476D02*
X3347857Y-7210714D01*
X3338333Y-7191667D01*
X3319286Y-7182143D01*
X3281190Y-7182143D01*
X3262143Y-7191667D01*
X3347857Y-7305952D02*
X3328809Y-7315476D01*
X3281190Y-7315476D01*
X3262143Y-7305952D01*
X3252619Y-7286905D01*
X3252619Y-7267857D01*
X3262143Y-7248809D01*
X3281190Y-7239286D01*
X3328809Y-7239286D01*
X3347857Y-7229762D01*
X3443095Y-7182143D02*
X3443095Y-7382143D01*
X3443095Y-7191667D02*
X3462143Y-7182143D01*
X3500238Y-7182143D01*
X3519286Y-7191667D01*
X3528809Y-7201190D01*
X3538333Y-7220238D01*
X3538333Y-7277381D01*
X3528809Y-7296428D01*
X3519286Y-7305952D01*
X3500238Y-7315476D01*
X3462143Y-7315476D01*
X3443095Y-7305952D01*
X3624048Y-7296428D02*
X3633571Y-7305952D01*
X3624048Y-7315476D01*
X3614524Y-7305952D01*
X3624048Y-7296428D01*
X3624048Y-7315476D01*
X3624048Y-7191667D02*
X3633571Y-7201190D01*
X3624048Y-7210714D01*
X3614524Y-7201190D01*
X3624048Y-7191667D01*
X3624048Y-7210714D01*
X1795000Y-7545000D02*
X1995000Y-7745000D01*
X1995000Y-7545000D02*
X1795000Y-7745000D01*
X2243095Y-7554524D02*
X2252619Y-7545000D01*
X2271667Y-7535476D01*
X2319286Y-7535476D01*
X2338333Y-7545000D01*
X2347857Y-7554524D01*
X2357381Y-7573571D01*
X2357381Y-7592619D01*
X2347857Y-7621190D01*
X2233571Y-7735476D01*
X2357381Y-7735476D01*
X2443095Y-7716428D02*
X2452619Y-7725952D01*
X2443095Y-7735476D01*
X2433571Y-7725952D01*
X2443095Y-7716428D01*
X2443095Y-7735476D01*
X2643095Y-7735476D02*
X2528810Y-7735476D01*
X2585952Y-7735476D02*
X2585952Y-7535476D01*
X2566905Y-7564048D01*
X2547857Y-7583095D01*
X2528810Y-7592619D01*
X2824048Y-7535476D02*
X2728810Y-7535476D01*
X2719286Y-7630714D01*
X2728810Y-7621190D01*
X2747857Y-7611667D01*
X2795476Y-7611667D01*
X2814524Y-7621190D01*
X2824048Y-7630714D01*
X2833571Y-7649762D01*
X2833571Y-7697381D01*
X2824048Y-7716428D01*
X2814524Y-7725952D01*
X2795476Y-7735476D01*
X2747857Y-7735476D01*
X2728810Y-7725952D01*
X2719286Y-7716428D01*
X2957381Y-7535476D02*
X2976428Y-7535476D01*
X2995476Y-7545000D01*
X3005000Y-7554524D01*
X3014524Y-7573571D01*
X3024048Y-7611667D01*
X3024048Y-7659286D01*
X3014524Y-7697381D01*
X3005000Y-7716428D01*
X2995476Y-7725952D01*
X2976428Y-7735476D01*
X2957381Y-7735476D01*
X2938333Y-7725952D01*
X2928809Y-7716428D01*
X2919286Y-7697381D01*
X2909762Y-7659286D01*
X2909762Y-7611667D01*
X2919286Y-7573571D01*
X2928809Y-7554524D01*
X2938333Y-7545000D01*
X2957381Y-7535476D01*
X3109762Y-7735476D02*
X3109762Y-7602143D01*
X3109762Y-7621190D02*
X3119286Y-7611667D01*
X3138333Y-7602143D01*
X3166905Y-7602143D01*
X3185952Y-7611667D01*
X3195476Y-7630714D01*
X3195476Y-7735476D01*
X3195476Y-7630714D02*
X3205000Y-7611667D01*
X3224048Y-7602143D01*
X3252619Y-7602143D01*
X3271667Y-7611667D01*
X3281190Y-7630714D01*
X3281190Y-7735476D01*
X3376428Y-7735476D02*
X3376428Y-7602143D01*
X3376428Y-7621190D02*
X3385952Y-7611667D01*
X3405000Y-7602143D01*
X3433571Y-7602143D01*
X3452619Y-7611667D01*
X3462143Y-7630714D01*
X3462143Y-7735476D01*
X3462143Y-7630714D02*
X3471667Y-7611667D01*
X3490714Y-7602143D01*
X3519286Y-7602143D01*
X3538333Y-7611667D01*
X3547857Y-7630714D01*
X3547857Y-7735476D01*
X3938333Y-7525952D02*
X3766905Y-7783095D01*
X4195476Y-7535476D02*
X4214524Y-7535476D01*
X4233571Y-7545000D01*
X4243095Y-7554524D01*
X4252619Y-7573571D01*
X4262143Y-7611667D01*
X4262143Y-7659286D01*
X4252619Y-7697381D01*
X4243095Y-7716428D01*
X4233571Y-7725952D01*
X4214524Y-7735476D01*
X4195476Y-7735476D01*
X4176428Y-7725952D01*
X4166905Y-7716428D01*
X4157381Y-7697381D01*
X4147857Y-7659286D01*
X4147857Y-7611667D01*
X4157381Y-7573571D01*
X4166905Y-7554524D01*
X4176428Y-7545000D01*
X4195476Y-7535476D01*
X4347857Y-7716428D02*
X4357381Y-7725952D01*
X4347857Y-7735476D01*
X4338333Y-7725952D01*
X4347857Y-7716428D01*
X4347857Y-7735476D01*
X4481190Y-7535476D02*
X4500238Y-7535476D01*
X4519286Y-7545000D01*
X4528810Y-7554524D01*
X4538333Y-7573571D01*
X4547857Y-7611667D01*
X4547857Y-7659286D01*
X4538333Y-7697381D01*
X4528810Y-7716428D01*
X4519286Y-7725952D01*
X4500238Y-7735476D01*
X4481190Y-7735476D01*
X4462143Y-7725952D01*
X4452619Y-7716428D01*
X4443095Y-7697381D01*
X4433571Y-7659286D01*
X4433571Y-7611667D01*
X4443095Y-7573571D01*
X4452619Y-7554524D01*
X4462143Y-7545000D01*
X4481190Y-7535476D01*
X4662143Y-7621190D02*
X4643095Y-7611667D01*
X4633571Y-7602143D01*
X4624048Y-7583095D01*
X4624048Y-7573571D01*
X4633571Y-7554524D01*
X4643095Y-7545000D01*
X4662143Y-7535476D01*
X4700238Y-7535476D01*
X4719286Y-7545000D01*
X4728810Y-7554524D01*
X4738333Y-7573571D01*
X4738333Y-7583095D01*
X4728810Y-7602143D01*
X4719286Y-7611667D01*
X4700238Y-7621190D01*
X4662143Y-7621190D01*
X4643095Y-7630714D01*
X4633571Y-7640238D01*
X4624048Y-7659286D01*
X4624048Y-7697381D01*
X4633571Y-7716428D01*
X4643095Y-7725952D01*
X4662143Y-7735476D01*
X4700238Y-7735476D01*
X4719286Y-7725952D01*
X4728810Y-7716428D01*
X4738333Y-7697381D01*
X4738333Y-7659286D01*
X4728810Y-7640238D01*
X4719286Y-7630714D01*
X4700238Y-7621190D01*
X4909762Y-7602143D02*
X4909762Y-7735476D01*
X4862143Y-7525952D02*
X4814524Y-7668809D01*
X4938333Y-7668809D01*
X5100238Y-7535476D02*
X5062143Y-7535476D01*
X5043095Y-7545000D01*
X5033571Y-7554524D01*
X5014524Y-7583095D01*
X5005000Y-7621190D01*
X5005000Y-7697381D01*
X5014524Y-7716428D01*
X5024048Y-7725952D01*
X5043095Y-7735476D01*
X5081190Y-7735476D01*
X5100238Y-7725952D01*
X5109762Y-7716428D01*
X5119286Y-7697381D01*
X5119286Y-7649762D01*
X5109762Y-7630714D01*
X5100238Y-7621190D01*
X5081190Y-7611667D01*
X5043095Y-7611667D01*
X5024048Y-7621190D01*
X5014524Y-7630714D01*
X5005000Y-7649762D01*
X5195476Y-7535476D02*
X5195476Y-7573571D01*
X5271667Y-7535476D02*
X5271667Y-7573571D01*
X5566905Y-7811667D02*
X5557381Y-7802143D01*
X5538333Y-7773571D01*
X5528810Y-7754524D01*
X5519286Y-7725952D01*
X5509762Y-7678333D01*
X5509762Y-7640238D01*
X5519286Y-7592619D01*
X5528810Y-7564048D01*
X5538333Y-7545000D01*
X5557381Y-7516428D01*
X5566905Y-7506905D01*
X5633571Y-7554524D02*
X5643095Y-7545000D01*
X5662143Y-7535476D01*
X5709762Y-7535476D01*
X5728809Y-7545000D01*
X5738333Y-7554524D01*
X5747857Y-7573571D01*
X5747857Y-7592619D01*
X5738333Y-7621190D01*
X5624048Y-7735476D01*
X5747857Y-7735476D01*
X5985952Y-7735476D02*
X5985952Y-7535476D01*
X6071667Y-7735476D02*
X6071667Y-7630714D01*
X6062143Y-7611667D01*
X6043095Y-7602143D01*
X6014524Y-7602143D01*
X5995476Y-7611667D01*
X5985952Y-7621190D01*
X6195476Y-7735476D02*
X6176428Y-7725952D01*
X6166905Y-7716428D01*
X6157381Y-7697381D01*
X6157381Y-7640238D01*
X6166905Y-7621190D01*
X6176428Y-7611667D01*
X6195476Y-7602143D01*
X6224048Y-7602143D01*
X6243095Y-7611667D01*
X6252619Y-7621190D01*
X6262143Y-7640238D01*
X6262143Y-7697381D01*
X6252619Y-7716428D01*
X6243095Y-7725952D01*
X6224048Y-7735476D01*
X6195476Y-7735476D01*
X6376428Y-7735476D02*
X6357381Y-7725952D01*
X6347857Y-7706905D01*
X6347857Y-7535476D01*
X6528809Y-7725952D02*
X6509762Y-7735476D01*
X6471667Y-7735476D01*
X6452619Y-7725952D01*
X6443095Y-7706905D01*
X6443095Y-7630714D01*
X6452619Y-7611667D01*
X6471667Y-7602143D01*
X6509762Y-7602143D01*
X6528809Y-7611667D01*
X6538333Y-7630714D01*
X6538333Y-7649762D01*
X6443095Y-7668809D01*
X6614524Y-7725952D02*
X6633571Y-7735476D01*
X6671667Y-7735476D01*
X6690714Y-7725952D01*
X6700238Y-7706905D01*
X6700238Y-7697381D01*
X6690714Y-7678333D01*
X6671667Y-7668809D01*
X6643095Y-7668809D01*
X6624048Y-7659286D01*
X6614524Y-7640238D01*
X6614524Y-7630714D01*
X6624048Y-7611667D01*
X6643095Y-7602143D01*
X6671667Y-7602143D01*
X6690714Y-7611667D01*
X6766905Y-7811667D02*
X6776428Y-7802143D01*
X6795476Y-7773571D01*
X6805000Y-7754524D01*
X6814524Y-7725952D01*
X6824048Y-7678333D01*
X6824048Y-7640238D01*
X6814524Y-7592619D01*
X6805000Y-7564048D01*
X6795476Y-7545000D01*
X6776428Y-7516428D01*
X6766905Y-7506905D01*
X7128809Y-7811667D02*
X7119286Y-7802143D01*
X7100238Y-7773571D01*
X7090714Y-7754524D01*
X7081190Y-7725952D01*
X7071667Y-7678333D01*
X7071667Y-7640238D01*
X7081190Y-7592619D01*
X7090714Y-7564048D01*
X7100238Y-7545000D01*
X7119286Y-7516428D01*
X7128809Y-7506905D01*
X7205000Y-7602143D02*
X7205000Y-7735476D01*
X7205000Y-7621190D02*
X7214524Y-7611667D01*
X7233571Y-7602143D01*
X7262143Y-7602143D01*
X7281190Y-7611667D01*
X7290714Y-7630714D01*
X7290714Y-7735476D01*
X7414524Y-7735476D02*
X7395476Y-7725952D01*
X7385952Y-7716428D01*
X7376428Y-7697381D01*
X7376428Y-7640238D01*
X7385952Y-7621190D01*
X7395476Y-7611667D01*
X7414524Y-7602143D01*
X7443095Y-7602143D01*
X7462143Y-7611667D01*
X7471667Y-7621190D01*
X7481190Y-7640238D01*
X7481190Y-7697381D01*
X7471667Y-7716428D01*
X7462143Y-7725952D01*
X7443095Y-7735476D01*
X7414524Y-7735476D01*
X7538333Y-7602143D02*
X7614524Y-7602143D01*
X7566905Y-7535476D02*
X7566905Y-7706905D01*
X7576428Y-7725952D01*
X7595476Y-7735476D01*
X7614524Y-7735476D01*
X7833571Y-7602143D02*
X7833571Y-7802143D01*
X7833571Y-7611667D02*
X7852619Y-7602143D01*
X7890714Y-7602143D01*
X7909762Y-7611667D01*
X7919286Y-7621190D01*
X7928809Y-7640238D01*
X7928809Y-7697381D01*
X7919286Y-7716428D01*
X7909762Y-7725952D01*
X7890714Y-7735476D01*
X7852619Y-7735476D01*
X7833571Y-7725952D01*
X8043095Y-7735476D02*
X8024048Y-7725952D01*
X8014524Y-7706905D01*
X8014524Y-7535476D01*
X8205000Y-7735476D02*
X8205000Y-7630714D01*
X8195476Y-7611667D01*
X8176428Y-7602143D01*
X8138333Y-7602143D01*
X8119286Y-7611667D01*
X8205000Y-7725952D02*
X8185952Y-7735476D01*
X8138333Y-7735476D01*
X8119286Y-7725952D01*
X8109762Y-7706905D01*
X8109762Y-7687857D01*
X8119286Y-7668809D01*
X8138333Y-7659286D01*
X8185952Y-7659286D01*
X8205000Y-7649762D01*
X8271667Y-7602143D02*
X8347857Y-7602143D01*
X8300238Y-7535476D02*
X8300238Y-7706905D01*
X8309762Y-7725952D01*
X8328809Y-7735476D01*
X8347857Y-7735476D01*
X8490714Y-7725952D02*
X8471667Y-7735476D01*
X8433571Y-7735476D01*
X8414524Y-7725952D01*
X8405000Y-7706905D01*
X8405000Y-7630714D01*
X8414524Y-7611667D01*
X8433571Y-7602143D01*
X8471667Y-7602143D01*
X8490714Y-7611667D01*
X8500238Y-7630714D01*
X8500238Y-7649762D01*
X8405000Y-7668809D01*
X8671667Y-7735476D02*
X8671667Y-7535476D01*
X8671667Y-7725952D02*
X8652619Y-7735476D01*
X8614524Y-7735476D01*
X8595476Y-7725952D01*
X8585952Y-7716428D01*
X8576429Y-7697381D01*
X8576429Y-7640238D01*
X8585952Y-7621190D01*
X8595476Y-7611667D01*
X8614524Y-7602143D01*
X8652619Y-7602143D01*
X8671667Y-7611667D01*
X8747857Y-7811667D02*
X8757381Y-7802143D01*
X8776429Y-7773571D01*
X8785952Y-7754524D01*
X8795476Y-7725952D01*
X8805000Y-7678333D01*
X8805000Y-7640238D01*
X8795476Y-7592619D01*
X8785952Y-7564048D01*
X8776429Y-7545000D01*
X8757381Y-7516428D01*
X8747857Y-7506905D01*
X1995000Y-7965000D02*
G75*
G03*
X1995000Y-7965000I-100000J0D01*
G01*
X2243095Y-7874524D02*
X2252619Y-7865000D01*
X2271667Y-7855476D01*
X2319286Y-7855476D01*
X2338333Y-7865000D01*
X2347857Y-7874524D01*
X2357381Y-7893571D01*
X2357381Y-7912619D01*
X2347857Y-7941190D01*
X2233571Y-8055476D01*
X2357381Y-8055476D01*
X2443095Y-8036428D02*
X2452619Y-8045952D01*
X2443095Y-8055476D01*
X2433571Y-8045952D01*
X2443095Y-8036428D01*
X2443095Y-8055476D01*
X2624048Y-7855476D02*
X2585952Y-7855476D01*
X2566905Y-7865000D01*
X2557381Y-7874524D01*
X2538333Y-7903095D01*
X2528810Y-7941190D01*
X2528810Y-8017381D01*
X2538333Y-8036428D01*
X2547857Y-8045952D01*
X2566905Y-8055476D01*
X2605000Y-8055476D01*
X2624048Y-8045952D01*
X2633571Y-8036428D01*
X2643095Y-8017381D01*
X2643095Y-7969762D01*
X2633571Y-7950714D01*
X2624048Y-7941190D01*
X2605000Y-7931667D01*
X2566905Y-7931667D01*
X2547857Y-7941190D01*
X2538333Y-7950714D01*
X2528810Y-7969762D01*
X2766905Y-7855476D02*
X2785952Y-7855476D01*
X2805000Y-7865000D01*
X2814524Y-7874524D01*
X2824048Y-7893571D01*
X2833571Y-7931667D01*
X2833571Y-7979286D01*
X2824048Y-8017381D01*
X2814524Y-8036428D01*
X2805000Y-8045952D01*
X2785952Y-8055476D01*
X2766905Y-8055476D01*
X2747857Y-8045952D01*
X2738333Y-8036428D01*
X2728810Y-8017381D01*
X2719286Y-7979286D01*
X2719286Y-7931667D01*
X2728810Y-7893571D01*
X2738333Y-7874524D01*
X2747857Y-7865000D01*
X2766905Y-7855476D01*
X2957381Y-7855476D02*
X2976428Y-7855476D01*
X2995476Y-7865000D01*
X3005000Y-7874524D01*
X3014524Y-7893571D01*
X3024048Y-7931667D01*
X3024048Y-7979286D01*
X3014524Y-8017381D01*
X3005000Y-8036428D01*
X2995476Y-8045952D01*
X2976428Y-8055476D01*
X2957381Y-8055476D01*
X2938333Y-8045952D01*
X2928809Y-8036428D01*
X2919286Y-8017381D01*
X2909762Y-7979286D01*
X2909762Y-7931667D01*
X2919286Y-7893571D01*
X2928809Y-7874524D01*
X2938333Y-7865000D01*
X2957381Y-7855476D01*
X3109762Y-8055476D02*
X3109762Y-7922143D01*
X3109762Y-7941190D02*
X3119286Y-7931667D01*
X3138333Y-7922143D01*
X3166905Y-7922143D01*
X3185952Y-7931667D01*
X3195476Y-7950714D01*
X3195476Y-8055476D01*
X3195476Y-7950714D02*
X3205000Y-7931667D01*
X3224048Y-7922143D01*
X3252619Y-7922143D01*
X3271667Y-7931667D01*
X3281190Y-7950714D01*
X3281190Y-8055476D01*
X3376428Y-8055476D02*
X3376428Y-7922143D01*
X3376428Y-7941190D02*
X3385952Y-7931667D01*
X3405000Y-7922143D01*
X3433571Y-7922143D01*
X3452619Y-7931667D01*
X3462143Y-7950714D01*
X3462143Y-8055476D01*
X3462143Y-7950714D02*
X3471667Y-7931667D01*
X3490714Y-7922143D01*
X3519286Y-7922143D01*
X3538333Y-7931667D01*
X3547857Y-7950714D01*
X3547857Y-8055476D01*
X3938333Y-7845952D02*
X3766905Y-8103095D01*
X4195476Y-7855476D02*
X4214524Y-7855476D01*
X4233571Y-7865000D01*
X4243095Y-7874524D01*
X4252619Y-7893571D01*
X4262143Y-7931667D01*
X4262143Y-7979286D01*
X4252619Y-8017381D01*
X4243095Y-8036428D01*
X4233571Y-8045952D01*
X4214524Y-8055476D01*
X4195476Y-8055476D01*
X4176428Y-8045952D01*
X4166905Y-8036428D01*
X4157381Y-8017381D01*
X4147857Y-7979286D01*
X4147857Y-7931667D01*
X4157381Y-7893571D01*
X4166905Y-7874524D01*
X4176428Y-7865000D01*
X4195476Y-7855476D01*
X4347857Y-8036428D02*
X4357381Y-8045952D01*
X4347857Y-8055476D01*
X4338333Y-8045952D01*
X4347857Y-8036428D01*
X4347857Y-8055476D01*
X4547857Y-8055476D02*
X4433571Y-8055476D01*
X4490714Y-8055476D02*
X4490714Y-7855476D01*
X4471667Y-7884048D01*
X4452619Y-7903095D01*
X4433571Y-7912619D01*
X4671667Y-7855476D02*
X4690714Y-7855476D01*
X4709762Y-7865000D01*
X4719286Y-7874524D01*
X4728810Y-7893571D01*
X4738333Y-7931667D01*
X4738333Y-7979286D01*
X4728810Y-8017381D01*
X4719286Y-8036428D01*
X4709762Y-8045952D01*
X4690714Y-8055476D01*
X4671667Y-8055476D01*
X4652619Y-8045952D01*
X4643095Y-8036428D01*
X4633571Y-8017381D01*
X4624048Y-7979286D01*
X4624048Y-7931667D01*
X4633571Y-7893571D01*
X4643095Y-7874524D01*
X4652619Y-7865000D01*
X4671667Y-7855476D01*
X4814524Y-7874524D02*
X4824048Y-7865000D01*
X4843095Y-7855476D01*
X4890714Y-7855476D01*
X4909762Y-7865000D01*
X4919286Y-7874524D01*
X4928810Y-7893571D01*
X4928810Y-7912619D01*
X4919286Y-7941190D01*
X4805000Y-8055476D01*
X4928810Y-8055476D01*
X5100238Y-7922143D02*
X5100238Y-8055476D01*
X5052619Y-7845952D02*
X5005000Y-7988809D01*
X5128810Y-7988809D01*
X5195476Y-7855476D02*
X5195476Y-7893571D01*
X5271667Y-7855476D02*
X5271667Y-7893571D01*
X5566905Y-8131667D02*
X5557381Y-8122143D01*
X5538333Y-8093571D01*
X5528810Y-8074524D01*
X5519286Y-8045952D01*
X5509762Y-7998333D01*
X5509762Y-7960238D01*
X5519286Y-7912619D01*
X5528810Y-7884048D01*
X5538333Y-7865000D01*
X5557381Y-7836428D01*
X5566905Y-7826905D01*
X5633571Y-7874524D02*
X5643095Y-7865000D01*
X5662143Y-7855476D01*
X5709762Y-7855476D01*
X5728809Y-7865000D01*
X5738333Y-7874524D01*
X5747857Y-7893571D01*
X5747857Y-7912619D01*
X5738333Y-7941190D01*
X5624048Y-8055476D01*
X5747857Y-8055476D01*
X5985952Y-8055476D02*
X5985952Y-7855476D01*
X6071667Y-8055476D02*
X6071667Y-7950714D01*
X6062143Y-7931667D01*
X6043095Y-7922143D01*
X6014524Y-7922143D01*
X5995476Y-7931667D01*
X5985952Y-7941190D01*
X6195476Y-8055476D02*
X6176428Y-8045952D01*
X6166905Y-8036428D01*
X6157381Y-8017381D01*
X6157381Y-7960238D01*
X6166905Y-7941190D01*
X6176428Y-7931667D01*
X6195476Y-7922143D01*
X6224048Y-7922143D01*
X6243095Y-7931667D01*
X6252619Y-7941190D01*
X6262143Y-7960238D01*
X6262143Y-8017381D01*
X6252619Y-8036428D01*
X6243095Y-8045952D01*
X6224048Y-8055476D01*
X6195476Y-8055476D01*
X6376428Y-8055476D02*
X6357381Y-8045952D01*
X6347857Y-8026905D01*
X6347857Y-7855476D01*
X6528809Y-8045952D02*
X6509762Y-8055476D01*
X6471667Y-8055476D01*
X6452619Y-8045952D01*
X6443095Y-8026905D01*
X6443095Y-7950714D01*
X6452619Y-7931667D01*
X6471667Y-7922143D01*
X6509762Y-7922143D01*
X6528809Y-7931667D01*
X6538333Y-7950714D01*
X6538333Y-7969762D01*
X6443095Y-7988809D01*
X6614524Y-8045952D02*
X6633571Y-8055476D01*
X6671667Y-8055476D01*
X6690714Y-8045952D01*
X6700238Y-8026905D01*
X6700238Y-8017381D01*
X6690714Y-7998333D01*
X6671667Y-7988809D01*
X6643095Y-7988809D01*
X6624048Y-7979286D01*
X6614524Y-7960238D01*
X6614524Y-7950714D01*
X6624048Y-7931667D01*
X6643095Y-7922143D01*
X6671667Y-7922143D01*
X6690714Y-7931667D01*
X6766905Y-8131667D02*
X6776428Y-8122143D01*
X6795476Y-8093571D01*
X6805000Y-8074524D01*
X6814524Y-8045952D01*
X6824048Y-7998333D01*
X6824048Y-7960238D01*
X6814524Y-7912619D01*
X6805000Y-7884048D01*
X6795476Y-7865000D01*
X6776428Y-7836428D01*
X6766905Y-7826905D01*
X7128809Y-8131667D02*
X7119286Y-8122143D01*
X7100238Y-8093571D01*
X7090714Y-8074524D01*
X7081190Y-8045952D01*
X7071667Y-7998333D01*
X7071667Y-7960238D01*
X7081190Y-7912619D01*
X7090714Y-7884048D01*
X7100238Y-7865000D01*
X7119286Y-7836428D01*
X7128809Y-7826905D01*
X7205000Y-7922143D02*
X7205000Y-8055476D01*
X7205000Y-7941190D02*
X7214524Y-7931667D01*
X7233571Y-7922143D01*
X7262143Y-7922143D01*
X7281190Y-7931667D01*
X7290714Y-7950714D01*
X7290714Y-8055476D01*
X7414524Y-8055476D02*
X7395476Y-8045952D01*
X7385952Y-8036428D01*
X7376428Y-8017381D01*
X7376428Y-7960238D01*
X7385952Y-7941190D01*
X7395476Y-7931667D01*
X7414524Y-7922143D01*
X7443095Y-7922143D01*
X7462143Y-7931667D01*
X7471667Y-7941190D01*
X7481190Y-7960238D01*
X7481190Y-8017381D01*
X7471667Y-8036428D01*
X7462143Y-8045952D01*
X7443095Y-8055476D01*
X7414524Y-8055476D01*
X7538333Y-7922143D02*
X7614524Y-7922143D01*
X7566905Y-7855476D02*
X7566905Y-8026905D01*
X7576428Y-8045952D01*
X7595476Y-8055476D01*
X7614524Y-8055476D01*
X7833571Y-7922143D02*
X7833571Y-8122143D01*
X7833571Y-7931667D02*
X7852619Y-7922143D01*
X7890714Y-7922143D01*
X7909762Y-7931667D01*
X7919286Y-7941190D01*
X7928809Y-7960238D01*
X7928809Y-8017381D01*
X7919286Y-8036428D01*
X7909762Y-8045952D01*
X7890714Y-8055476D01*
X7852619Y-8055476D01*
X7833571Y-8045952D01*
X8043095Y-8055476D02*
X8024048Y-8045952D01*
X8014524Y-8026905D01*
X8014524Y-7855476D01*
X8205000Y-8055476D02*
X8205000Y-7950714D01*
X8195476Y-7931667D01*
X8176428Y-7922143D01*
X8138333Y-7922143D01*
X8119286Y-7931667D01*
X8205000Y-8045952D02*
X8185952Y-8055476D01*
X8138333Y-8055476D01*
X8119286Y-8045952D01*
X8109762Y-8026905D01*
X8109762Y-8007857D01*
X8119286Y-7988809D01*
X8138333Y-7979286D01*
X8185952Y-7979286D01*
X8205000Y-7969762D01*
X8271667Y-7922143D02*
X8347857Y-7922143D01*
X8300238Y-7855476D02*
X8300238Y-8026905D01*
X8309762Y-8045952D01*
X8328809Y-8055476D01*
X8347857Y-8055476D01*
X8490714Y-8045952D02*
X8471667Y-8055476D01*
X8433571Y-8055476D01*
X8414524Y-8045952D01*
X8405000Y-8026905D01*
X8405000Y-7950714D01*
X8414524Y-7931667D01*
X8433571Y-7922143D01*
X8471667Y-7922143D01*
X8490714Y-7931667D01*
X8500238Y-7950714D01*
X8500238Y-7969762D01*
X8405000Y-7988809D01*
X8671667Y-8055476D02*
X8671667Y-7855476D01*
X8671667Y-8045952D02*
X8652619Y-8055476D01*
X8614524Y-8055476D01*
X8595476Y-8045952D01*
X8585952Y-8036428D01*
X8576429Y-8017381D01*
X8576429Y-7960238D01*
X8585952Y-7941190D01*
X8595476Y-7931667D01*
X8614524Y-7922143D01*
X8652619Y-7922143D01*
X8671667Y-7931667D01*
X8747857Y-8131667D02*
X8757381Y-8122143D01*
X8776429Y-8093571D01*
X8785952Y-8074524D01*
X8795476Y-8045952D01*
X8805000Y-7998333D01*
X8805000Y-7960238D01*
X8795476Y-7912619D01*
X8785952Y-7884048D01*
X8776429Y-7865000D01*
X8757381Y-7836428D01*
X8747857Y-7826905D01*
M02*
