%TF.GenerationSoftware,KiCad,Pcbnew,(6.0.8-1)-1*%
%TF.CreationDate,2022-11-24T03:29:18+08:00*%
%TF.ProjectId,CCTV3_POE_REV100,43435456-335f-4504-9f45-5f5245563130,100*%
%TF.SameCoordinates,Original*%
%TF.FileFunction,Legend,Bot*%
%TF.FilePolarity,Positive*%
%FSLAX46Y46*%
G04 Gerber Fmt 4.6, Leading zero omitted, Abs format (unit mm)*
G04 Created by KiCad (PCBNEW (6.0.8-1)-1) date 2022-11-24 03:29:18*
%MOMM*%
%LPD*%
G01*
G04 APERTURE LIST*
G04 Aperture macros list*
%AMRoundRect*
0 Rectangle with rounded corners*
0 $1 Rounding radius*
0 $2 $3 $4 $5 $6 $7 $8 $9 X,Y pos of 4 corners*
0 Add a 4 corners polygon primitive as box body*
4,1,4,$2,$3,$4,$5,$6,$7,$8,$9,$2,$3,0*
0 Add four circle primitives for the rounded corners*
1,1,$1+$1,$2,$3*
1,1,$1+$1,$4,$5*
1,1,$1+$1,$6,$7*
1,1,$1+$1,$8,$9*
0 Add four rect primitives between the rounded corners*
20,1,$1+$1,$2,$3,$4,$5,0*
20,1,$1+$1,$4,$5,$6,$7,0*
20,1,$1+$1,$6,$7,$8,$9,0*
20,1,$1+$1,$8,$9,$2,$3,0*%
G04 Aperture macros list end*
%ADD10C,0.150000*%
%ADD11C,0.120000*%
%ADD12C,4.400000*%
%ADD13R,1.700000X1.700000*%
%ADD14O,1.700000X1.700000*%
%ADD15C,3.300000*%
%ADD16C,1.520000*%
%ADD17C,2.500000*%
%ADD18C,2.600000*%
%ADD19C,2.150000*%
%ADD20C,1.600000*%
%ADD21RoundRect,0.250000X-0.750000X-1.550000X0.750000X-1.550000X0.750000X1.550000X-0.750000X1.550000X0*%
%ADD22O,2.000000X3.600000*%
%ADD23RoundRect,0.218750X0.256250X-0.218750X0.256250X0.218750X-0.256250X0.218750X-0.256250X-0.218750X0*%
%ADD24RoundRect,0.225000X-0.225000X-0.250000X0.225000X-0.250000X0.225000X0.250000X-0.225000X0.250000X0*%
%ADD25RoundRect,0.200000X0.275000X-0.200000X0.275000X0.200000X-0.275000X0.200000X-0.275000X-0.200000X0*%
%ADD26RoundRect,0.225000X0.250000X-0.225000X0.250000X0.225000X-0.250000X0.225000X-0.250000X-0.225000X0*%
%ADD27RoundRect,0.250000X-0.325000X-0.650000X0.325000X-0.650000X0.325000X0.650000X-0.325000X0.650000X0*%
%ADD28RoundRect,0.200000X-0.200000X-0.275000X0.200000X-0.275000X0.200000X0.275000X-0.200000X0.275000X0*%
G04 APERTURE END LIST*
D10*
X24882380Y-31183333D02*
X24882380Y-30707142D01*
X23882380Y-30707142D01*
X23882380Y-31945238D02*
X23882380Y-31754761D01*
X23930000Y-31659523D01*
X23977619Y-31611904D01*
X24120476Y-31516666D01*
X24310952Y-31469047D01*
X24691904Y-31469047D01*
X24787142Y-31516666D01*
X24834761Y-31564285D01*
X24882380Y-31659523D01*
X24882380Y-31850000D01*
X24834761Y-31945238D01*
X24787142Y-31992857D01*
X24691904Y-32040476D01*
X24453809Y-32040476D01*
X24358571Y-31992857D01*
X24310952Y-31945238D01*
X24263333Y-31850000D01*
X24263333Y-31659523D01*
X24310952Y-31564285D01*
X24358571Y-31516666D01*
X24453809Y-31469047D01*
X32114285Y-46285714D02*
X32152380Y-46323809D01*
X32266666Y-46361904D01*
X32342857Y-46361904D01*
X32457142Y-46323809D01*
X32533333Y-46247619D01*
X32571428Y-46171428D01*
X32609523Y-46019047D01*
X32609523Y-45904761D01*
X32571428Y-45752380D01*
X32533333Y-45676190D01*
X32457142Y-45600000D01*
X32342857Y-45561904D01*
X32266666Y-45561904D01*
X32152380Y-45600000D01*
X32114285Y-45638095D01*
X31352380Y-46361904D02*
X31809523Y-46361904D01*
X31580952Y-46361904D02*
X31580952Y-45561904D01*
X31657142Y-45676190D01*
X31733333Y-45752380D01*
X31809523Y-45790476D01*
X31085714Y-45561904D02*
X30590476Y-45561904D01*
X30857142Y-45866666D01*
X30742857Y-45866666D01*
X30666666Y-45904761D01*
X30628571Y-45942857D01*
X30590476Y-46019047D01*
X30590476Y-46209523D01*
X30628571Y-46285714D01*
X30666666Y-46323809D01*
X30742857Y-46361904D01*
X30971428Y-46361904D01*
X31047619Y-46323809D01*
X31085714Y-46285714D01*
X32114285Y-45085714D02*
X32152380Y-45123809D01*
X32266666Y-45161904D01*
X32342857Y-45161904D01*
X32457142Y-45123809D01*
X32533333Y-45047619D01*
X32571428Y-44971428D01*
X32609523Y-44819047D01*
X32609523Y-44704761D01*
X32571428Y-44552380D01*
X32533333Y-44476190D01*
X32457142Y-44400000D01*
X32342857Y-44361904D01*
X32266666Y-44361904D01*
X32152380Y-44400000D01*
X32114285Y-44438095D01*
X31352380Y-45161904D02*
X31809523Y-45161904D01*
X31580952Y-45161904D02*
X31580952Y-44361904D01*
X31657142Y-44476190D01*
X31733333Y-44552380D01*
X31809523Y-44590476D01*
X30666666Y-44628571D02*
X30666666Y-45161904D01*
X30857142Y-44323809D02*
X31047619Y-44895238D01*
X30552380Y-44895238D01*
X40161904Y-42466666D02*
X39780952Y-42200000D01*
X40161904Y-42009523D02*
X39361904Y-42009523D01*
X39361904Y-42314285D01*
X39400000Y-42390476D01*
X39438095Y-42428571D01*
X39514285Y-42466666D01*
X39628571Y-42466666D01*
X39704761Y-42428571D01*
X39742857Y-42390476D01*
X39780952Y-42314285D01*
X39780952Y-42009523D01*
X39361904Y-42733333D02*
X39361904Y-43266666D01*
X40161904Y-42923809D01*
X40185714Y-45085714D02*
X40223809Y-45047619D01*
X40261904Y-44933333D01*
X40261904Y-44857142D01*
X40223809Y-44742857D01*
X40147619Y-44666666D01*
X40071428Y-44628571D01*
X39919047Y-44590476D01*
X39804761Y-44590476D01*
X39652380Y-44628571D01*
X39576190Y-44666666D01*
X39500000Y-44742857D01*
X39461904Y-44857142D01*
X39461904Y-44933333D01*
X39500000Y-45047619D01*
X39538095Y-45085714D01*
X40261904Y-45847619D02*
X40261904Y-45390476D01*
X40261904Y-45619047D02*
X39461904Y-45619047D01*
X39576190Y-45542857D01*
X39652380Y-45466666D01*
X39690476Y-45390476D01*
X39461904Y-46571428D02*
X39461904Y-46190476D01*
X39842857Y-46152380D01*
X39804761Y-46190476D01*
X39766666Y-46266666D01*
X39766666Y-46457142D01*
X39804761Y-46533333D01*
X39842857Y-46571428D01*
X39919047Y-46609523D01*
X40109523Y-46609523D01*
X40185714Y-46571428D01*
X40223809Y-46533333D01*
X40261904Y-46457142D01*
X40261904Y-46266666D01*
X40223809Y-46190476D01*
X40185714Y-46152380D01*
X41385714Y-45085714D02*
X41423809Y-45047619D01*
X41461904Y-44933333D01*
X41461904Y-44857142D01*
X41423809Y-44742857D01*
X41347619Y-44666666D01*
X41271428Y-44628571D01*
X41119047Y-44590476D01*
X41004761Y-44590476D01*
X40852380Y-44628571D01*
X40776190Y-44666666D01*
X40700000Y-44742857D01*
X40661904Y-44857142D01*
X40661904Y-44933333D01*
X40700000Y-45047619D01*
X40738095Y-45085714D01*
X41461904Y-45847619D02*
X41461904Y-45390476D01*
X41461904Y-45619047D02*
X40661904Y-45619047D01*
X40776190Y-45542857D01*
X40852380Y-45466666D01*
X40890476Y-45390476D01*
X40661904Y-46533333D02*
X40661904Y-46380952D01*
X40700000Y-46304761D01*
X40738095Y-46266666D01*
X40852380Y-46190476D01*
X41004761Y-46152380D01*
X41309523Y-46152380D01*
X41385714Y-46190476D01*
X41423809Y-46228571D01*
X41461904Y-46304761D01*
X41461904Y-46457142D01*
X41423809Y-46533333D01*
X41385714Y-46571428D01*
X41309523Y-46609523D01*
X41119047Y-46609523D01*
X41042857Y-46571428D01*
X41004761Y-46533333D01*
X40966666Y-46457142D01*
X40966666Y-46304761D01*
X41004761Y-46228571D01*
X41042857Y-46190476D01*
X41119047Y-46152380D01*
X32314285Y-40835714D02*
X32352380Y-40873809D01*
X32466666Y-40911904D01*
X32542857Y-40911904D01*
X32657142Y-40873809D01*
X32733333Y-40797619D01*
X32771428Y-40721428D01*
X32809523Y-40569047D01*
X32809523Y-40454761D01*
X32771428Y-40302380D01*
X32733333Y-40226190D01*
X32657142Y-40150000D01*
X32542857Y-40111904D01*
X32466666Y-40111904D01*
X32352380Y-40150000D01*
X32314285Y-40188095D01*
X31552380Y-40911904D02*
X32009523Y-40911904D01*
X31780952Y-40911904D02*
X31780952Y-40111904D01*
X31857142Y-40226190D01*
X31933333Y-40302380D01*
X32009523Y-40340476D01*
X31285714Y-40111904D02*
X30752380Y-40111904D01*
X31095238Y-40911904D01*
X34733333Y-46361904D02*
X35000000Y-45980952D01*
X35190476Y-46361904D02*
X35190476Y-45561904D01*
X34885714Y-45561904D01*
X34809523Y-45600000D01*
X34771428Y-45638095D01*
X34733333Y-45714285D01*
X34733333Y-45828571D01*
X34771428Y-45904761D01*
X34809523Y-45942857D01*
X34885714Y-45980952D01*
X35190476Y-45980952D01*
X34009523Y-45561904D02*
X34390476Y-45561904D01*
X34428571Y-45942857D01*
X34390476Y-45904761D01*
X34314285Y-45866666D01*
X34123809Y-45866666D01*
X34047619Y-45904761D01*
X34009523Y-45942857D01*
X33971428Y-46019047D01*
X33971428Y-46209523D01*
X34009523Y-46285714D01*
X34047619Y-46323809D01*
X34123809Y-46361904D01*
X34314285Y-46361904D01*
X34390476Y-46323809D01*
X34428571Y-46285714D01*
X41461904Y-42466666D02*
X41080952Y-42200000D01*
X41461904Y-42009523D02*
X40661904Y-42009523D01*
X40661904Y-42314285D01*
X40700000Y-42390476D01*
X40738095Y-42428571D01*
X40814285Y-42466666D01*
X40928571Y-42466666D01*
X41004761Y-42428571D01*
X41042857Y-42390476D01*
X41080952Y-42314285D01*
X41080952Y-42009523D01*
X41004761Y-42923809D02*
X40966666Y-42847619D01*
X40928571Y-42809523D01*
X40852380Y-42771428D01*
X40814285Y-42771428D01*
X40738095Y-42809523D01*
X40700000Y-42847619D01*
X40661904Y-42923809D01*
X40661904Y-43076190D01*
X40700000Y-43152380D01*
X40738095Y-43190476D01*
X40814285Y-43228571D01*
X40852380Y-43228571D01*
X40928571Y-43190476D01*
X40966666Y-43152380D01*
X41004761Y-43076190D01*
X41004761Y-42923809D01*
X41042857Y-42847619D01*
X41080952Y-42809523D01*
X41157142Y-42771428D01*
X41309523Y-42771428D01*
X41385714Y-42809523D01*
X41423809Y-42847619D01*
X41461904Y-42923809D01*
X41461904Y-43076190D01*
X41423809Y-43152380D01*
X41385714Y-43190476D01*
X41309523Y-43228571D01*
X41157142Y-43228571D01*
X41080952Y-43190476D01*
X41042857Y-43152380D01*
X41004761Y-43076190D01*
X34733333Y-45161904D02*
X35000000Y-44780952D01*
X35190476Y-45161904D02*
X35190476Y-44361904D01*
X34885714Y-44361904D01*
X34809523Y-44400000D01*
X34771428Y-44438095D01*
X34733333Y-44514285D01*
X34733333Y-44628571D01*
X34771428Y-44704761D01*
X34809523Y-44742857D01*
X34885714Y-44780952D01*
X35190476Y-44780952D01*
X34047619Y-44361904D02*
X34200000Y-44361904D01*
X34276190Y-44400000D01*
X34314285Y-44438095D01*
X34390476Y-44552380D01*
X34428571Y-44704761D01*
X34428571Y-45009523D01*
X34390476Y-45085714D01*
X34352380Y-45123809D01*
X34276190Y-45161904D01*
X34123809Y-45161904D01*
X34047619Y-45123809D01*
X34009523Y-45085714D01*
X33971428Y-45009523D01*
X33971428Y-44819047D01*
X34009523Y-44742857D01*
X34047619Y-44704761D01*
X34123809Y-44666666D01*
X34276190Y-44666666D01*
X34352380Y-44704761D01*
X34390476Y-44742857D01*
X34428571Y-44819047D01*
D11*
X22490000Y-31512779D02*
X22490000Y-31187221D01*
X23510000Y-31512779D02*
X23510000Y-31187221D01*
X31479420Y-42810000D02*
X31760580Y-42810000D01*
X31479420Y-43830000D02*
X31760580Y-43830000D01*
X31479420Y-42330000D02*
X31760580Y-42330000D01*
X31479420Y-41310000D02*
X31760580Y-41310000D01*
X37412500Y-42807258D02*
X37412500Y-42332742D01*
X36367500Y-42807258D02*
X36367500Y-42332742D01*
X37400000Y-45720580D02*
X37400000Y-45439420D01*
X36380000Y-45720580D02*
X36380000Y-45439420D01*
X38910000Y-45720580D02*
X38910000Y-45439420D01*
X37890000Y-45720580D02*
X37890000Y-45439420D01*
X31088748Y-39610000D02*
X32511252Y-39610000D01*
X31088748Y-37790000D02*
X32511252Y-37790000D01*
X34392742Y-43842500D02*
X34867258Y-43842500D01*
X34392742Y-42797500D02*
X34867258Y-42797500D01*
X38922500Y-42807258D02*
X38922500Y-42332742D01*
X37877500Y-42807258D02*
X37877500Y-42332742D01*
X34392742Y-41297500D02*
X34867258Y-41297500D01*
X34392742Y-42342500D02*
X34867258Y-42342500D01*
%LPC*%
D12*
X23500000Y-66500000D03*
X76700000Y-32200000D03*
X23500000Y-23500000D03*
D13*
X48400000Y-62900000D03*
D14*
X50940000Y-62900000D03*
X53480000Y-62900000D03*
X56020000Y-62900000D03*
D15*
X60490000Y-41880000D03*
X60490000Y-53310000D03*
D16*
X54140000Y-52040000D03*
X51600000Y-50770000D03*
X54140000Y-49500000D03*
X51600000Y-48230000D03*
X54140000Y-46970000D03*
X51600000Y-45690000D03*
X54140000Y-44420000D03*
X51600000Y-43150000D03*
X64600000Y-54010000D03*
X64600000Y-51470000D03*
X64600000Y-43730000D03*
X64600000Y-41190000D03*
D17*
X56640000Y-55510000D03*
X56640000Y-39690000D03*
D18*
X25110250Y-45662500D03*
X25110250Y-60662500D03*
D19*
X29110250Y-45662500D03*
X29110250Y-60662500D03*
D20*
X31210250Y-51662500D03*
X31210250Y-54662500D03*
X29110250Y-55887500D03*
X27010250Y-55237500D03*
X27010250Y-53162500D03*
X27010250Y-51087500D03*
X29110250Y-50437500D03*
X29110250Y-53162500D03*
X23290250Y-53162500D03*
D13*
X86685000Y-47600000D03*
D14*
X84145000Y-47600000D03*
D13*
X37350000Y-29545000D03*
D14*
X39980000Y-29535000D03*
X42520000Y-29535000D03*
X45060000Y-29535000D03*
X80620000Y-29535000D03*
X83160000Y-29535000D03*
X85700000Y-29535000D03*
X88240000Y-29535000D03*
D12*
X86500000Y-66500000D03*
D21*
X45500000Y-67722500D03*
D22*
X50500000Y-67722500D03*
X55500000Y-67722500D03*
D23*
X23000000Y-32137500D03*
X23000000Y-30562500D03*
D24*
X30845000Y-43320000D03*
X32395000Y-43320000D03*
X30845000Y-41820000D03*
X32395000Y-41820000D03*
D25*
X36890000Y-43395000D03*
X36890000Y-41745000D03*
D26*
X36890000Y-46355000D03*
X36890000Y-44805000D03*
X38400000Y-46355000D03*
X38400000Y-44805000D03*
D27*
X30325000Y-38700000D03*
X33275000Y-38700000D03*
D28*
X33805000Y-43320000D03*
X35455000Y-43320000D03*
D25*
X38400000Y-43395000D03*
X38400000Y-41745000D03*
D28*
X33805000Y-41820000D03*
X35455000Y-41820000D03*
M02*
