%TF.GenerationSoftware,KiCad,Pcbnew,(6.0.8-1)-1*%
%TF.CreationDate,2022-11-24T03:29:18+08:00*%
%TF.ProjectId,CCTV3_POE_REV100,43435456-335f-4504-9f45-5f5245563130,100*%
%TF.SameCoordinates,Original*%
%TF.FileFunction,Legend,Top*%
%TF.FilePolarity,Positive*%
%FSLAX46Y46*%
G04 Gerber Fmt 4.6, Leading zero omitted, Abs format (unit mm)*
G04 Created by KiCad (PCBNEW (6.0.8-1)-1) date 2022-11-24 03:29:18*
%MOMM*%
%LPD*%
G01*
G04 APERTURE LIST*
G04 Aperture macros list*
%AMRoundRect*
0 Rectangle with rounded corners*
0 $1 Rounding radius*
0 $2 $3 $4 $5 $6 $7 $8 $9 X,Y pos of 4 corners*
0 Add a 4 corners polygon primitive as box body*
4,1,4,$2,$3,$4,$5,$6,$7,$8,$9,$2,$3,0*
0 Add four circle primitives for the rounded corners*
1,1,$1+$1,$2,$3*
1,1,$1+$1,$4,$5*
1,1,$1+$1,$6,$7*
1,1,$1+$1,$8,$9*
0 Add four rect primitives between the rounded corners*
20,1,$1+$1,$2,$3,$4,$5,0*
20,1,$1+$1,$4,$5,$6,$7,0*
20,1,$1+$1,$6,$7,$8,$9,0*
20,1,$1+$1,$8,$9,$2,$3,0*%
G04 Aperture macros list end*
%ADD10C,0.150000*%
%ADD11C,0.125000*%
%ADD12C,0.120000*%
%ADD13C,0.250000*%
%ADD14C,0.200000*%
%ADD15C,0.010000*%
%ADD16RoundRect,0.225000X0.250000X-0.225000X0.250000X0.225000X-0.250000X0.225000X-0.250000X-0.225000X0*%
%ADD17RoundRect,0.150000X0.150000X-0.512500X0.150000X0.512500X-0.150000X0.512500X-0.150000X-0.512500X0*%
%ADD18RoundRect,0.250000X-1.500000X-0.550000X1.500000X-0.550000X1.500000X0.550000X-1.500000X0.550000X0*%
%ADD19RoundRect,0.200000X0.275000X-0.200000X0.275000X0.200000X-0.275000X0.200000X-0.275000X-0.200000X0*%
%ADD20RoundRect,0.140000X-0.140000X-0.170000X0.140000X-0.170000X0.140000X0.170000X-0.140000X0.170000X0*%
%ADD21RoundRect,0.250000X-0.650000X0.325000X-0.650000X-0.325000X0.650000X-0.325000X0.650000X0.325000X0*%
%ADD22RoundRect,0.150000X0.825000X0.150000X-0.825000X0.150000X-0.825000X-0.150000X0.825000X-0.150000X0*%
%ADD23RoundRect,0.200000X-0.275000X0.200000X-0.275000X-0.200000X0.275000X-0.200000X0.275000X0.200000X0*%
%ADD24RoundRect,0.225000X0.225000X0.250000X-0.225000X0.250000X-0.225000X-0.250000X0.225000X-0.250000X0*%
%ADD25RoundRect,0.218750X0.381250X-0.218750X0.381250X0.218750X-0.381250X0.218750X-0.381250X-0.218750X0*%
%ADD26RoundRect,0.200000X-0.200000X-0.275000X0.200000X-0.275000X0.200000X0.275000X-0.200000X0.275000X0*%
%ADD27RoundRect,0.200000X0.200000X0.275000X-0.200000X0.275000X-0.200000X-0.275000X0.200000X-0.275000X0*%
%ADD28RoundRect,0.218750X0.256250X-0.218750X0.256250X0.218750X-0.256250X0.218750X-0.256250X-0.218750X0*%
%ADD29C,4.400000*%
%ADD30R,2.500000X1.800000*%
%ADD31R,0.800000X1.000000*%
%ADD32RoundRect,0.225000X-0.250000X0.225000X-0.250000X-0.225000X0.250000X-0.225000X0.250000X0.225000X0*%
%ADD33R,1.700000X1.700000*%
%ADD34O,1.700000X1.700000*%
%ADD35C,3.300000*%
%ADD36C,1.520000*%
%ADD37C,2.500000*%
%ADD38R,3.520000X1.870000*%
%ADD39RoundRect,0.250000X0.325000X0.650000X-0.325000X0.650000X-0.325000X-0.650000X0.325000X-0.650000X0*%
%ADD40C,2.600000*%
%ADD41C,2.150000*%
%ADD42C,1.600000*%
%ADD43RoundRect,0.250000X-0.325000X-0.650000X0.325000X-0.650000X0.325000X0.650000X-0.325000X0.650000X0*%
%ADD44RoundRect,0.218750X0.218750X0.381250X-0.218750X0.381250X-0.218750X-0.381250X0.218750X-0.381250X0*%
%ADD45R,2.500000X2.300000*%
%ADD46RoundRect,0.250000X-0.475000X0.250000X-0.475000X-0.250000X0.475000X-0.250000X0.475000X0.250000X0*%
%ADD47R,1.800000X0.640000*%
%ADD48RoundRect,0.250000X0.475000X-0.250000X0.475000X0.250000X-0.475000X0.250000X-0.475000X-0.250000X0*%
%ADD49R,5.720000X2.200000*%
%ADD50RoundRect,0.250000X-0.750000X-1.550000X0.750000X-1.550000X0.750000X1.550000X-0.750000X1.550000X0*%
%ADD51O,2.000000X3.600000*%
G04 APERTURE END LIST*
D10*
X47290476Y-65323809D02*
X47404761Y-65361904D01*
X47595238Y-65361904D01*
X47671428Y-65323809D01*
X47709523Y-65285714D01*
X47747619Y-65209523D01*
X47747619Y-65133333D01*
X47709523Y-65057142D01*
X47671428Y-65019047D01*
X47595238Y-64980952D01*
X47442857Y-64942857D01*
X47366666Y-64904761D01*
X47328571Y-64866666D01*
X47290476Y-64790476D01*
X47290476Y-64714285D01*
X47328571Y-64638095D01*
X47366666Y-64600000D01*
X47442857Y-64561904D01*
X47633333Y-64561904D01*
X47747619Y-64600000D01*
X48090476Y-64942857D02*
X48357142Y-64942857D01*
X48471428Y-65361904D02*
X48090476Y-65361904D01*
X48090476Y-64561904D01*
X48471428Y-64561904D01*
X48814285Y-65361904D02*
X48814285Y-64561904D01*
X49271428Y-65361904D01*
X49271428Y-64561904D01*
X50290476Y-64600000D02*
X50214285Y-64561904D01*
X50100000Y-64561904D01*
X49985714Y-64600000D01*
X49909523Y-64676190D01*
X49871428Y-64752380D01*
X49833333Y-64904761D01*
X49833333Y-65019047D01*
X49871428Y-65171428D01*
X49909523Y-65247619D01*
X49985714Y-65323809D01*
X50100000Y-65361904D01*
X50176190Y-65361904D01*
X50290476Y-65323809D01*
X50328571Y-65285714D01*
X50328571Y-65019047D01*
X50176190Y-65019047D01*
X50671428Y-65361904D02*
X50671428Y-64561904D01*
X51128571Y-65361904D01*
X51128571Y-64561904D01*
X51509523Y-65361904D02*
X51509523Y-64561904D01*
X51700000Y-64561904D01*
X51814285Y-64600000D01*
X51890476Y-64676190D01*
X51928571Y-64752380D01*
X51966666Y-64904761D01*
X51966666Y-65019047D01*
X51928571Y-65171428D01*
X51890476Y-65247619D01*
X51814285Y-65323809D01*
X51700000Y-65361904D01*
X51509523Y-65361904D01*
X55504761Y-65361904D02*
X55047619Y-65361904D01*
X55276190Y-65361904D02*
X55276190Y-64561904D01*
X55200000Y-64676190D01*
X55123809Y-64752380D01*
X55047619Y-64790476D01*
X55809523Y-64638095D02*
X55847619Y-64600000D01*
X55923809Y-64561904D01*
X56114285Y-64561904D01*
X56190476Y-64600000D01*
X56228571Y-64638095D01*
X56266666Y-64714285D01*
X56266666Y-64790476D01*
X56228571Y-64904761D01*
X55771428Y-65361904D01*
X56266666Y-65361904D01*
X56495238Y-64561904D02*
X56761904Y-65361904D01*
X57028571Y-64561904D01*
X53347619Y-64561904D02*
X52966666Y-64561904D01*
X52928571Y-64942857D01*
X52966666Y-64904761D01*
X53042857Y-64866666D01*
X53233333Y-64866666D01*
X53309523Y-64904761D01*
X53347619Y-64942857D01*
X53385714Y-65019047D01*
X53385714Y-65209523D01*
X53347619Y-65285714D01*
X53309523Y-65323809D01*
X53233333Y-65361904D01*
X53042857Y-65361904D01*
X52966666Y-65323809D01*
X52928571Y-65285714D01*
X53614285Y-64561904D02*
X53880952Y-65361904D01*
X54147619Y-64561904D01*
X73697738Y-68447619D02*
X73745357Y-68400000D01*
X73840595Y-68352380D01*
X74078690Y-68352380D01*
X74173928Y-68400000D01*
X74221547Y-68447619D01*
X74269166Y-68542857D01*
X74269166Y-68638095D01*
X74221547Y-68780952D01*
X73650119Y-69352380D01*
X74269166Y-69352380D01*
X74888214Y-68352380D02*
X74983452Y-68352380D01*
X75078690Y-68400000D01*
X75126309Y-68447619D01*
X75173928Y-68542857D01*
X75221547Y-68733333D01*
X75221547Y-68971428D01*
X75173928Y-69161904D01*
X75126309Y-69257142D01*
X75078690Y-69304761D01*
X74983452Y-69352380D01*
X74888214Y-69352380D01*
X74792976Y-69304761D01*
X74745357Y-69257142D01*
X74697738Y-69161904D01*
X74650119Y-68971428D01*
X74650119Y-68733333D01*
X74697738Y-68542857D01*
X74745357Y-68447619D01*
X74792976Y-68400000D01*
X74888214Y-68352380D01*
X75602500Y-68447619D02*
X75650119Y-68400000D01*
X75745357Y-68352380D01*
X75983452Y-68352380D01*
X76078690Y-68400000D01*
X76126309Y-68447619D01*
X76173928Y-68542857D01*
X76173928Y-68638095D01*
X76126309Y-68780952D01*
X75554880Y-69352380D01*
X76173928Y-69352380D01*
X76554880Y-68447619D02*
X76602500Y-68400000D01*
X76697738Y-68352380D01*
X76935833Y-68352380D01*
X77031071Y-68400000D01*
X77078690Y-68447619D01*
X77126309Y-68542857D01*
X77126309Y-68638095D01*
X77078690Y-68780952D01*
X76507261Y-69352380D01*
X77126309Y-69352380D01*
X77554880Y-68971428D02*
X78316785Y-68971428D01*
X79316785Y-69352380D02*
X78745357Y-69352380D01*
X79031071Y-69352380D02*
X79031071Y-68352380D01*
X78935833Y-68495238D01*
X78840595Y-68590476D01*
X78745357Y-68638095D01*
X79935833Y-68352380D02*
X80031071Y-68352380D01*
X80126309Y-68400000D01*
X80173928Y-68447619D01*
X80221547Y-68542857D01*
X80269166Y-68733333D01*
X80269166Y-68971428D01*
X80221547Y-69161904D01*
X80173928Y-69257142D01*
X80126309Y-69304761D01*
X80031071Y-69352380D01*
X79935833Y-69352380D01*
X79840595Y-69304761D01*
X79792976Y-69257142D01*
X79745357Y-69161904D01*
X79697738Y-68971428D01*
X79697738Y-68733333D01*
X79745357Y-68542857D01*
X79792976Y-68447619D01*
X79840595Y-68400000D01*
X79935833Y-68352380D01*
X80697738Y-68971428D02*
X81459642Y-68971428D01*
X81888214Y-68447619D02*
X81935833Y-68400000D01*
X82031071Y-68352380D01*
X82269166Y-68352380D01*
X82364404Y-68400000D01*
X82412023Y-68447619D01*
X82459642Y-68542857D01*
X82459642Y-68638095D01*
X82412023Y-68780952D01*
X81840595Y-69352380D01*
X82459642Y-69352380D01*
X83031071Y-68780952D02*
X82935833Y-68733333D01*
X82888214Y-68685714D01*
X82840595Y-68590476D01*
X82840595Y-68542857D01*
X82888214Y-68447619D01*
X82935833Y-68400000D01*
X83031071Y-68352380D01*
X83221547Y-68352380D01*
X83316785Y-68400000D01*
X83364404Y-68447619D01*
X83412023Y-68542857D01*
X83412023Y-68590476D01*
X83364404Y-68685714D01*
X83316785Y-68733333D01*
X83221547Y-68780952D01*
X83031071Y-68780952D01*
X82935833Y-68828571D01*
X82888214Y-68876190D01*
X82840595Y-68971428D01*
X82840595Y-69161904D01*
X82888214Y-69257142D01*
X82935833Y-69304761D01*
X83031071Y-69352380D01*
X83221547Y-69352380D01*
X83316785Y-69304761D01*
X83364404Y-69257142D01*
X83412023Y-69161904D01*
X83412023Y-68971428D01*
X83364404Y-68876190D01*
X83316785Y-68828571D01*
X83221547Y-68780952D01*
X74045357Y-67450000D02*
X74759642Y-67450000D01*
X73902500Y-67878571D02*
X74402500Y-66378571D01*
X74902500Y-67878571D01*
X75402500Y-67735714D02*
X75473928Y-67807142D01*
X75402500Y-67878571D01*
X75331071Y-67807142D01*
X75402500Y-67735714D01*
X75402500Y-67878571D01*
X78116785Y-67735714D02*
X78045357Y-67807142D01*
X77831071Y-67878571D01*
X77688214Y-67878571D01*
X77473928Y-67807142D01*
X77331071Y-67664285D01*
X77259642Y-67521428D01*
X77188214Y-67235714D01*
X77188214Y-67021428D01*
X77259642Y-66735714D01*
X77331071Y-66592857D01*
X77473928Y-66450000D01*
X77688214Y-66378571D01*
X77831071Y-66378571D01*
X78045357Y-66450000D01*
X78116785Y-66521428D01*
X78759642Y-67878571D02*
X78759642Y-66378571D01*
X79402500Y-67878571D02*
X79402500Y-67092857D01*
X79331071Y-66950000D01*
X79188214Y-66878571D01*
X78973928Y-66878571D01*
X78831071Y-66950000D01*
X78759642Y-67021428D01*
X80688214Y-67807142D02*
X80545357Y-67878571D01*
X80259642Y-67878571D01*
X80116785Y-67807142D01*
X80045357Y-67664285D01*
X80045357Y-67092857D01*
X80116785Y-66950000D01*
X80259642Y-66878571D01*
X80545357Y-66878571D01*
X80688214Y-66950000D01*
X80759642Y-67092857D01*
X80759642Y-67235714D01*
X80045357Y-67378571D01*
X81402500Y-66878571D02*
X81402500Y-67878571D01*
X81402500Y-67021428D02*
X81473928Y-66950000D01*
X81616785Y-66878571D01*
X81831071Y-66878571D01*
X81973928Y-66950000D01*
X82045357Y-67092857D01*
X82045357Y-67878571D01*
X68814285Y-22735714D02*
X68742857Y-22807142D01*
X68528571Y-22878571D01*
X68385714Y-22878571D01*
X68171428Y-22807142D01*
X68028571Y-22664285D01*
X67957142Y-22521428D01*
X67885714Y-22235714D01*
X67885714Y-22021428D01*
X67957142Y-21735714D01*
X68028571Y-21592857D01*
X68171428Y-21450000D01*
X68385714Y-21378571D01*
X68528571Y-21378571D01*
X68742857Y-21450000D01*
X68814285Y-21521428D01*
X70314285Y-22735714D02*
X70242857Y-22807142D01*
X70028571Y-22878571D01*
X69885714Y-22878571D01*
X69671428Y-22807142D01*
X69528571Y-22664285D01*
X69457142Y-22521428D01*
X69385714Y-22235714D01*
X69385714Y-22021428D01*
X69457142Y-21735714D01*
X69528571Y-21592857D01*
X69671428Y-21450000D01*
X69885714Y-21378571D01*
X70028571Y-21378571D01*
X70242857Y-21450000D01*
X70314285Y-21521428D01*
X70742857Y-21378571D02*
X71600000Y-21378571D01*
X71171428Y-22878571D02*
X71171428Y-21378571D01*
X71885714Y-21378571D02*
X72385714Y-22878571D01*
X72885714Y-21378571D01*
X73242857Y-21378571D02*
X74171428Y-21378571D01*
X73671428Y-21950000D01*
X73885714Y-21950000D01*
X74028571Y-22021428D01*
X74100000Y-22092857D01*
X74171428Y-22235714D01*
X74171428Y-22592857D01*
X74100000Y-22735714D01*
X74028571Y-22807142D01*
X73885714Y-22878571D01*
X73457142Y-22878571D01*
X73314285Y-22807142D01*
X73242857Y-22735714D01*
X74457142Y-23021428D02*
X75600000Y-23021428D01*
X75957142Y-22878571D02*
X75957142Y-21378571D01*
X76528571Y-21378571D01*
X76671428Y-21450000D01*
X76742857Y-21521428D01*
X76814285Y-21664285D01*
X76814285Y-21878571D01*
X76742857Y-22021428D01*
X76671428Y-22092857D01*
X76528571Y-22164285D01*
X75957142Y-22164285D01*
X77742857Y-21378571D02*
X78028571Y-21378571D01*
X78171428Y-21450000D01*
X78314285Y-21592857D01*
X78385714Y-21878571D01*
X78385714Y-22378571D01*
X78314285Y-22664285D01*
X78171428Y-22807142D01*
X78028571Y-22878571D01*
X77742857Y-22878571D01*
X77600000Y-22807142D01*
X77457142Y-22664285D01*
X77385714Y-22378571D01*
X77385714Y-21878571D01*
X77457142Y-21592857D01*
X77600000Y-21450000D01*
X77742857Y-21378571D01*
X79028571Y-22092857D02*
X79528571Y-22092857D01*
X79742857Y-22878571D02*
X79028571Y-22878571D01*
X79028571Y-21378571D01*
X79742857Y-21378571D01*
X80028571Y-23021428D02*
X81171428Y-23021428D01*
X82385714Y-22878571D02*
X81885714Y-22164285D01*
X81528571Y-22878571D02*
X81528571Y-21378571D01*
X82100000Y-21378571D01*
X82242857Y-21450000D01*
X82314285Y-21521428D01*
X82385714Y-21664285D01*
X82385714Y-21878571D01*
X82314285Y-22021428D01*
X82242857Y-22092857D01*
X82100000Y-22164285D01*
X81528571Y-22164285D01*
X83028571Y-22092857D02*
X83528571Y-22092857D01*
X83742857Y-22878571D02*
X83028571Y-22878571D01*
X83028571Y-21378571D01*
X83742857Y-21378571D01*
X84171428Y-21378571D02*
X84671428Y-22878571D01*
X85171428Y-21378571D01*
X86457142Y-22878571D02*
X85600000Y-22878571D01*
X86028571Y-22878571D02*
X86028571Y-21378571D01*
X85885714Y-21592857D01*
X85742857Y-21735714D01*
X85600000Y-21807142D01*
X87385714Y-21378571D02*
X87528571Y-21378571D01*
X87671428Y-21450000D01*
X87742857Y-21521428D01*
X87814285Y-21664285D01*
X87885714Y-21950000D01*
X87885714Y-22307142D01*
X87814285Y-22592857D01*
X87742857Y-22735714D01*
X87671428Y-22807142D01*
X87528571Y-22878571D01*
X87385714Y-22878571D01*
X87242857Y-22807142D01*
X87171428Y-22735714D01*
X87100000Y-22592857D01*
X87028571Y-22307142D01*
X87028571Y-21950000D01*
X87100000Y-21664285D01*
X87171428Y-21521428D01*
X87242857Y-21450000D01*
X87385714Y-21378571D01*
X88814285Y-21378571D02*
X88957142Y-21378571D01*
X89100000Y-21450000D01*
X89171428Y-21521428D01*
X89242857Y-21664285D01*
X89314285Y-21950000D01*
X89314285Y-22307142D01*
X89242857Y-22592857D01*
X89171428Y-22735714D01*
X89100000Y-22807142D01*
X88957142Y-22878571D01*
X88814285Y-22878571D01*
X88671428Y-22807142D01*
X88600000Y-22735714D01*
X88528571Y-22592857D01*
X88457142Y-22307142D01*
X88457142Y-21950000D01*
X88528571Y-21664285D01*
X88600000Y-21521428D01*
X88671428Y-21450000D01*
X88814285Y-21378571D01*
X45485714Y-42033333D02*
X45523809Y-42071428D01*
X45561904Y-42185714D01*
X45561904Y-42261904D01*
X45523809Y-42376190D01*
X45447619Y-42452380D01*
X45371428Y-42490476D01*
X45219047Y-42528571D01*
X45104761Y-42528571D01*
X44952380Y-42490476D01*
X44876190Y-42452380D01*
X44800000Y-42376190D01*
X44761904Y-42261904D01*
X44761904Y-42185714D01*
X44800000Y-42071428D01*
X44838095Y-42033333D01*
X44761904Y-41309523D02*
X44761904Y-41690476D01*
X45142857Y-41728571D01*
X45104761Y-41690476D01*
X45066666Y-41614285D01*
X45066666Y-41423809D01*
X45104761Y-41347619D01*
X45142857Y-41309523D01*
X45219047Y-41271428D01*
X45409523Y-41271428D01*
X45485714Y-41309523D01*
X45523809Y-41347619D01*
X45561904Y-41423809D01*
X45561904Y-41614285D01*
X45523809Y-41690476D01*
X45485714Y-41728571D01*
X84961904Y-50909523D02*
X85609523Y-50909523D01*
X85685714Y-50871428D01*
X85723809Y-50833333D01*
X85761904Y-50757142D01*
X85761904Y-50604761D01*
X85723809Y-50528571D01*
X85685714Y-50490476D01*
X85609523Y-50452380D01*
X84961904Y-50452380D01*
X85038095Y-50109523D02*
X85000000Y-50071428D01*
X84961904Y-49995238D01*
X84961904Y-49804761D01*
X85000000Y-49728571D01*
X85038095Y-49690476D01*
X85114285Y-49652380D01*
X85190476Y-49652380D01*
X85304761Y-49690476D01*
X85761904Y-50147619D01*
X85761904Y-49652380D01*
X83996666Y-31485714D02*
X83958571Y-31523809D01*
X83844285Y-31561904D01*
X83768095Y-31561904D01*
X83653809Y-31523809D01*
X83577619Y-31447619D01*
X83539523Y-31371428D01*
X83501428Y-31219047D01*
X83501428Y-31104761D01*
X83539523Y-30952380D01*
X83577619Y-30876190D01*
X83653809Y-30800000D01*
X83768095Y-30761904D01*
X83844285Y-30761904D01*
X83958571Y-30800000D01*
X83996666Y-30838095D01*
X84453809Y-31104761D02*
X84377619Y-31066666D01*
X84339523Y-31028571D01*
X84301428Y-30952380D01*
X84301428Y-30914285D01*
X84339523Y-30838095D01*
X84377619Y-30800000D01*
X84453809Y-30761904D01*
X84606190Y-30761904D01*
X84682380Y-30800000D01*
X84720476Y-30838095D01*
X84758571Y-30914285D01*
X84758571Y-30952380D01*
X84720476Y-31028571D01*
X84682380Y-31066666D01*
X84606190Y-31104761D01*
X84453809Y-31104761D01*
X84377619Y-31142857D01*
X84339523Y-31180952D01*
X84301428Y-31257142D01*
X84301428Y-31409523D01*
X84339523Y-31485714D01*
X84377619Y-31523809D01*
X84453809Y-31561904D01*
X84606190Y-31561904D01*
X84682380Y-31523809D01*
X84720476Y-31485714D01*
X84758571Y-31409523D01*
X84758571Y-31257142D01*
X84720476Y-31180952D01*
X84682380Y-31142857D01*
X84606190Y-31104761D01*
X49761904Y-45033333D02*
X49380952Y-45300000D01*
X49761904Y-45490476D02*
X48961904Y-45490476D01*
X48961904Y-45185714D01*
X49000000Y-45109523D01*
X49038095Y-45071428D01*
X49114285Y-45033333D01*
X49228571Y-45033333D01*
X49304761Y-45071428D01*
X49342857Y-45109523D01*
X49380952Y-45185714D01*
X49380952Y-45490476D01*
X49038095Y-44728571D02*
X49000000Y-44690476D01*
X48961904Y-44614285D01*
X48961904Y-44423809D01*
X49000000Y-44347619D01*
X49038095Y-44309523D01*
X49114285Y-44271428D01*
X49190476Y-44271428D01*
X49304761Y-44309523D01*
X49761904Y-44766666D01*
X49761904Y-44271428D01*
X47766666Y-55425714D02*
X47728571Y-55463809D01*
X47614285Y-55501904D01*
X47538095Y-55501904D01*
X47423809Y-55463809D01*
X47347619Y-55387619D01*
X47309523Y-55311428D01*
X47271428Y-55159047D01*
X47271428Y-55044761D01*
X47309523Y-54892380D01*
X47347619Y-54816190D01*
X47423809Y-54740000D01*
X47538095Y-54701904D01*
X47614285Y-54701904D01*
X47728571Y-54740000D01*
X47766666Y-54778095D01*
X48033333Y-54701904D02*
X48528571Y-54701904D01*
X48261904Y-55006666D01*
X48376190Y-55006666D01*
X48452380Y-55044761D01*
X48490476Y-55082857D01*
X48528571Y-55159047D01*
X48528571Y-55349523D01*
X48490476Y-55425714D01*
X48452380Y-55463809D01*
X48376190Y-55501904D01*
X48147619Y-55501904D01*
X48071428Y-55463809D01*
X48033333Y-55425714D01*
X80355714Y-59385714D02*
X80317619Y-59423809D01*
X80203333Y-59461904D01*
X80127142Y-59461904D01*
X80012857Y-59423809D01*
X79936666Y-59347619D01*
X79898571Y-59271428D01*
X79860476Y-59119047D01*
X79860476Y-59004761D01*
X79898571Y-58852380D01*
X79936666Y-58776190D01*
X80012857Y-58700000D01*
X80127142Y-58661904D01*
X80203333Y-58661904D01*
X80317619Y-58700000D01*
X80355714Y-58738095D01*
X81117619Y-59461904D02*
X80660476Y-59461904D01*
X80889047Y-59461904D02*
X80889047Y-58661904D01*
X80812857Y-58776190D01*
X80736666Y-58852380D01*
X80660476Y-58890476D01*
X81574761Y-59004761D02*
X81498571Y-58966666D01*
X81460476Y-58928571D01*
X81422380Y-58852380D01*
X81422380Y-58814285D01*
X81460476Y-58738095D01*
X81498571Y-58700000D01*
X81574761Y-58661904D01*
X81727142Y-58661904D01*
X81803333Y-58700000D01*
X81841428Y-58738095D01*
X81879523Y-58814285D01*
X81879523Y-58852380D01*
X81841428Y-58928571D01*
X81803333Y-58966666D01*
X81727142Y-59004761D01*
X81574761Y-59004761D01*
X81498571Y-59042857D01*
X81460476Y-59080952D01*
X81422380Y-59157142D01*
X81422380Y-59309523D01*
X81460476Y-59385714D01*
X81498571Y-59423809D01*
X81574761Y-59461904D01*
X81727142Y-59461904D01*
X81803333Y-59423809D01*
X81841428Y-59385714D01*
X81879523Y-59309523D01*
X81879523Y-59157142D01*
X81841428Y-59080952D01*
X81803333Y-59042857D01*
X81727142Y-59004761D01*
X77390476Y-50061904D02*
X77390476Y-50709523D01*
X77428571Y-50785714D01*
X77466666Y-50823809D01*
X77542857Y-50861904D01*
X77695238Y-50861904D01*
X77771428Y-50823809D01*
X77809523Y-50785714D01*
X77847619Y-50709523D01*
X77847619Y-50061904D01*
X78152380Y-50061904D02*
X78647619Y-50061904D01*
X78380952Y-50366666D01*
X78495238Y-50366666D01*
X78571428Y-50404761D01*
X78609523Y-50442857D01*
X78647619Y-50519047D01*
X78647619Y-50709523D01*
X78609523Y-50785714D01*
X78571428Y-50823809D01*
X78495238Y-50861904D01*
X78266666Y-50861904D01*
X78190476Y-50823809D01*
X78152380Y-50785714D01*
D11*
X89461904Y-51433333D02*
X89080952Y-51700000D01*
X89461904Y-51890476D02*
X88661904Y-51890476D01*
X88661904Y-51585714D01*
X88700000Y-51509523D01*
X88738095Y-51471428D01*
X88814285Y-51433333D01*
X88928571Y-51433333D01*
X89004761Y-51471428D01*
X89042857Y-51509523D01*
X89080952Y-51585714D01*
X89080952Y-51890476D01*
X88661904Y-51166666D02*
X88661904Y-50671428D01*
X88966666Y-50938095D01*
X88966666Y-50823809D01*
X89004761Y-50747619D01*
X89042857Y-50709523D01*
X89119047Y-50671428D01*
X89309523Y-50671428D01*
X89385714Y-50709523D01*
X89423809Y-50747619D01*
X89461904Y-50823809D01*
X89461904Y-51052380D01*
X89423809Y-51128571D01*
X89385714Y-51166666D01*
D10*
X79685714Y-48085714D02*
X79647619Y-48123809D01*
X79533333Y-48161904D01*
X79457142Y-48161904D01*
X79342857Y-48123809D01*
X79266666Y-48047619D01*
X79228571Y-47971428D01*
X79190476Y-47819047D01*
X79190476Y-47704761D01*
X79228571Y-47552380D01*
X79266666Y-47476190D01*
X79342857Y-47400000D01*
X79457142Y-47361904D01*
X79533333Y-47361904D01*
X79647619Y-47400000D01*
X79685714Y-47438095D01*
X79990476Y-47438095D02*
X80028571Y-47400000D01*
X80104761Y-47361904D01*
X80295238Y-47361904D01*
X80371428Y-47400000D01*
X80409523Y-47438095D01*
X80447619Y-47514285D01*
X80447619Y-47590476D01*
X80409523Y-47704761D01*
X79952380Y-48161904D01*
X80447619Y-48161904D01*
X81209523Y-48161904D02*
X80752380Y-48161904D01*
X80980952Y-48161904D02*
X80980952Y-47361904D01*
X80904761Y-47476190D01*
X80828571Y-47552380D01*
X80752380Y-47590476D01*
X60366666Y-64961904D02*
X59985714Y-64961904D01*
X59985714Y-64161904D01*
X60595238Y-64238095D02*
X60633333Y-64200000D01*
X60709523Y-64161904D01*
X60900000Y-64161904D01*
X60976190Y-64200000D01*
X61014285Y-64238095D01*
X61052380Y-64314285D01*
X61052380Y-64390476D01*
X61014285Y-64504761D01*
X60557142Y-64961904D01*
X61052380Y-64961904D01*
X66185714Y-50161904D02*
X65919047Y-49780952D01*
X65728571Y-50161904D02*
X65728571Y-49361904D01*
X66033333Y-49361904D01*
X66109523Y-49400000D01*
X66147619Y-49438095D01*
X66185714Y-49514285D01*
X66185714Y-49628571D01*
X66147619Y-49704761D01*
X66109523Y-49742857D01*
X66033333Y-49780952D01*
X65728571Y-49780952D01*
X66947619Y-50161904D02*
X66490476Y-50161904D01*
X66719047Y-50161904D02*
X66719047Y-49361904D01*
X66642857Y-49476190D01*
X66566666Y-49552380D01*
X66490476Y-49590476D01*
X67442857Y-49361904D02*
X67519047Y-49361904D01*
X67595238Y-49400000D01*
X67633333Y-49438095D01*
X67671428Y-49514285D01*
X67709523Y-49666666D01*
X67709523Y-49857142D01*
X67671428Y-50009523D01*
X67633333Y-50085714D01*
X67595238Y-50123809D01*
X67519047Y-50161904D01*
X67442857Y-50161904D01*
X67366666Y-50123809D01*
X67328571Y-50085714D01*
X67290476Y-50009523D01*
X67252380Y-49857142D01*
X67252380Y-49666666D01*
X67290476Y-49514285D01*
X67328571Y-49438095D01*
X67366666Y-49400000D01*
X67442857Y-49361904D01*
X47766666Y-59225714D02*
X47728571Y-59263809D01*
X47614285Y-59301904D01*
X47538095Y-59301904D01*
X47423809Y-59263809D01*
X47347619Y-59187619D01*
X47309523Y-59111428D01*
X47271428Y-58959047D01*
X47271428Y-58844761D01*
X47309523Y-58692380D01*
X47347619Y-58616190D01*
X47423809Y-58540000D01*
X47538095Y-58501904D01*
X47614285Y-58501904D01*
X47728571Y-58540000D01*
X47766666Y-58578095D01*
X48452380Y-58768571D02*
X48452380Y-59301904D01*
X48261904Y-58463809D02*
X48071428Y-59035238D01*
X48566666Y-59035238D01*
X82736666Y-53561904D02*
X82470000Y-53180952D01*
X82279523Y-53561904D02*
X82279523Y-52761904D01*
X82584285Y-52761904D01*
X82660476Y-52800000D01*
X82698571Y-52838095D01*
X82736666Y-52914285D01*
X82736666Y-53028571D01*
X82698571Y-53104761D01*
X82660476Y-53142857D01*
X82584285Y-53180952D01*
X82279523Y-53180952D01*
X83117619Y-53561904D02*
X83270000Y-53561904D01*
X83346190Y-53523809D01*
X83384285Y-53485714D01*
X83460476Y-53371428D01*
X83498571Y-53219047D01*
X83498571Y-52914285D01*
X83460476Y-52838095D01*
X83422380Y-52800000D01*
X83346190Y-52761904D01*
X83193809Y-52761904D01*
X83117619Y-52800000D01*
X83079523Y-52838095D01*
X83041428Y-52914285D01*
X83041428Y-53104761D01*
X83079523Y-53180952D01*
X83117619Y-53219047D01*
X83193809Y-53257142D01*
X83346190Y-53257142D01*
X83422380Y-53219047D01*
X83460476Y-53180952D01*
X83498571Y-53104761D01*
X65985714Y-56085714D02*
X65947619Y-56123809D01*
X65833333Y-56161904D01*
X65757142Y-56161904D01*
X65642857Y-56123809D01*
X65566666Y-56047619D01*
X65528571Y-55971428D01*
X65490476Y-55819047D01*
X65490476Y-55704761D01*
X65528571Y-55552380D01*
X65566666Y-55476190D01*
X65642857Y-55400000D01*
X65757142Y-55361904D01*
X65833333Y-55361904D01*
X65947619Y-55400000D01*
X65985714Y-55438095D01*
X66747619Y-56161904D02*
X66290476Y-56161904D01*
X66519047Y-56161904D02*
X66519047Y-55361904D01*
X66442857Y-55476190D01*
X66366666Y-55552380D01*
X66290476Y-55590476D01*
X67128571Y-56161904D02*
X67280952Y-56161904D01*
X67357142Y-56123809D01*
X67395238Y-56085714D01*
X67471428Y-55971428D01*
X67509523Y-55819047D01*
X67509523Y-55514285D01*
X67471428Y-55438095D01*
X67433333Y-55400000D01*
X67357142Y-55361904D01*
X67204761Y-55361904D01*
X67128571Y-55400000D01*
X67090476Y-55438095D01*
X67052380Y-55514285D01*
X67052380Y-55704761D01*
X67090476Y-55780952D01*
X67128571Y-55819047D01*
X67204761Y-55857142D01*
X67357142Y-55857142D01*
X67433333Y-55819047D01*
X67471428Y-55780952D01*
X67509523Y-55704761D01*
X52666666Y-35661904D02*
X52285714Y-35661904D01*
X52285714Y-34861904D01*
X53276190Y-35128571D02*
X53276190Y-35661904D01*
X53085714Y-34823809D02*
X52895238Y-35395238D01*
X53390476Y-35395238D01*
X79161904Y-59890476D02*
X78361904Y-59890476D01*
X78361904Y-59700000D01*
X78400000Y-59585714D01*
X78476190Y-59509523D01*
X78552380Y-59471428D01*
X78704761Y-59433333D01*
X78819047Y-59433333D01*
X78971428Y-59471428D01*
X79047619Y-59509523D01*
X79123809Y-59585714D01*
X79161904Y-59700000D01*
X79161904Y-59890476D01*
X78361904Y-58709523D02*
X78361904Y-59090476D01*
X78742857Y-59128571D01*
X78704761Y-59090476D01*
X78666666Y-59014285D01*
X78666666Y-58823809D01*
X78704761Y-58747619D01*
X78742857Y-58709523D01*
X78819047Y-58671428D01*
X79009523Y-58671428D01*
X79085714Y-58709523D01*
X79123809Y-58747619D01*
X79161904Y-58823809D01*
X79161904Y-59014285D01*
X79123809Y-59090476D01*
X79085714Y-59128571D01*
X35509523Y-38661904D02*
X35509523Y-37861904D01*
X35700000Y-37861904D01*
X35814285Y-37900000D01*
X35890476Y-37976190D01*
X35928571Y-38052380D01*
X35966666Y-38204761D01*
X35966666Y-38319047D01*
X35928571Y-38471428D01*
X35890476Y-38547619D01*
X35814285Y-38623809D01*
X35700000Y-38661904D01*
X35509523Y-38661904D01*
X36271428Y-37938095D02*
X36309523Y-37900000D01*
X36385714Y-37861904D01*
X36576190Y-37861904D01*
X36652380Y-37900000D01*
X36690476Y-37938095D01*
X36728571Y-38014285D01*
X36728571Y-38090476D01*
X36690476Y-38204761D01*
X36233333Y-38661904D01*
X36728571Y-38661904D01*
X82085714Y-48814285D02*
X82123809Y-48852380D01*
X82161904Y-48966666D01*
X82161904Y-49042857D01*
X82123809Y-49157142D01*
X82047619Y-49233333D01*
X81971428Y-49271428D01*
X81819047Y-49309523D01*
X81704761Y-49309523D01*
X81552380Y-49271428D01*
X81476190Y-49233333D01*
X81400000Y-49157142D01*
X81361904Y-49042857D01*
X81361904Y-48966666D01*
X81400000Y-48852380D01*
X81438095Y-48814285D01*
X82161904Y-48052380D02*
X82161904Y-48509523D01*
X82161904Y-48280952D02*
X81361904Y-48280952D01*
X81476190Y-48357142D01*
X81552380Y-48433333D01*
X81590476Y-48509523D01*
X82161904Y-47290476D02*
X82161904Y-47747619D01*
X82161904Y-47519047D02*
X81361904Y-47519047D01*
X81476190Y-47595238D01*
X81552380Y-47671428D01*
X81590476Y-47747619D01*
X75085714Y-50861904D02*
X74819047Y-50480952D01*
X74628571Y-50861904D02*
X74628571Y-50061904D01*
X74933333Y-50061904D01*
X75009523Y-50100000D01*
X75047619Y-50138095D01*
X75085714Y-50214285D01*
X75085714Y-50328571D01*
X75047619Y-50404761D01*
X75009523Y-50442857D01*
X74933333Y-50480952D01*
X74628571Y-50480952D01*
X75847619Y-50861904D02*
X75390476Y-50861904D01*
X75619047Y-50861904D02*
X75619047Y-50061904D01*
X75542857Y-50176190D01*
X75466666Y-50252380D01*
X75390476Y-50290476D01*
X76152380Y-50138095D02*
X76190476Y-50100000D01*
X76266666Y-50061904D01*
X76457142Y-50061904D01*
X76533333Y-50100000D01*
X76571428Y-50138095D01*
X76609523Y-50214285D01*
X76609523Y-50290476D01*
X76571428Y-50404761D01*
X76114285Y-50861904D01*
X76609523Y-50861904D01*
X65761904Y-39061904D02*
X65495238Y-38680952D01*
X65304761Y-39061904D02*
X65304761Y-38261904D01*
X65609523Y-38261904D01*
X65685714Y-38300000D01*
X65723809Y-38338095D01*
X65761904Y-38414285D01*
X65761904Y-38528571D01*
X65723809Y-38604761D01*
X65685714Y-38642857D01*
X65609523Y-38680952D01*
X65304761Y-38680952D01*
X66333333Y-38261904D02*
X66333333Y-38833333D01*
X66295238Y-38947619D01*
X66219047Y-39023809D01*
X66104761Y-39061904D01*
X66028571Y-39061904D01*
X67133333Y-39061904D02*
X66676190Y-39061904D01*
X66904761Y-39061904D02*
X66904761Y-38261904D01*
X66828571Y-38376190D01*
X66752380Y-38452380D01*
X66676190Y-38490476D01*
X66685714Y-51585714D02*
X66647619Y-51623809D01*
X66533333Y-51661904D01*
X66457142Y-51661904D01*
X66342857Y-51623809D01*
X66266666Y-51547619D01*
X66228571Y-51471428D01*
X66190476Y-51319047D01*
X66190476Y-51204761D01*
X66228571Y-51052380D01*
X66266666Y-50976190D01*
X66342857Y-50900000D01*
X66457142Y-50861904D01*
X66533333Y-50861904D01*
X66647619Y-50900000D01*
X66685714Y-50938095D01*
X66990476Y-50938095D02*
X67028571Y-50900000D01*
X67104761Y-50861904D01*
X67295238Y-50861904D01*
X67371428Y-50900000D01*
X67409523Y-50938095D01*
X67447619Y-51014285D01*
X67447619Y-51090476D01*
X67409523Y-51204761D01*
X66952380Y-51661904D01*
X67447619Y-51661904D01*
X67752380Y-50938095D02*
X67790476Y-50900000D01*
X67866666Y-50861904D01*
X68057142Y-50861904D01*
X68133333Y-50900000D01*
X68171428Y-50938095D01*
X68209523Y-51014285D01*
X68209523Y-51090476D01*
X68171428Y-51204761D01*
X67714285Y-51661904D01*
X68209523Y-51661904D01*
X80766666Y-39861904D02*
X80385714Y-39861904D01*
X80385714Y-39061904D01*
X81414285Y-39061904D02*
X81033333Y-39061904D01*
X80995238Y-39442857D01*
X81033333Y-39404761D01*
X81109523Y-39366666D01*
X81300000Y-39366666D01*
X81376190Y-39404761D01*
X81414285Y-39442857D01*
X81452380Y-39519047D01*
X81452380Y-39709523D01*
X81414285Y-39785714D01*
X81376190Y-39823809D01*
X81300000Y-39861904D01*
X81109523Y-39861904D01*
X81033333Y-39823809D01*
X80995238Y-39785714D01*
X44485714Y-39333333D02*
X44523809Y-39371428D01*
X44561904Y-39485714D01*
X44561904Y-39561904D01*
X44523809Y-39676190D01*
X44447619Y-39752380D01*
X44371428Y-39790476D01*
X44219047Y-39828571D01*
X44104761Y-39828571D01*
X43952380Y-39790476D01*
X43876190Y-39752380D01*
X43800000Y-39676190D01*
X43761904Y-39561904D01*
X43761904Y-39485714D01*
X43800000Y-39371428D01*
X43838095Y-39333333D01*
X43761904Y-39066666D02*
X43761904Y-38533333D01*
X44561904Y-38876190D01*
X33838095Y-61033333D02*
X33266666Y-61033333D01*
X33152380Y-60995238D01*
X33076190Y-60919047D01*
X33038095Y-60804761D01*
X33038095Y-60728571D01*
X33838095Y-61338095D02*
X33838095Y-61833333D01*
X33533333Y-61566666D01*
X33533333Y-61680952D01*
X33495238Y-61757142D01*
X33457142Y-61795238D01*
X33380952Y-61833333D01*
X33190476Y-61833333D01*
X33114285Y-61795238D01*
X33076190Y-61757142D01*
X33038095Y-61680952D01*
X33038095Y-61452380D01*
X33076190Y-61376190D01*
X33114285Y-61338095D01*
X81361904Y-46666666D02*
X81933333Y-46666666D01*
X82047619Y-46704761D01*
X82123809Y-46780952D01*
X82161904Y-46895238D01*
X82161904Y-46971428D01*
X81628571Y-45942857D02*
X82161904Y-45942857D01*
X81323809Y-46133333D02*
X81895238Y-46323809D01*
X81895238Y-45828571D01*
D11*
X82315714Y-55314285D02*
X82353809Y-55352380D01*
X82391904Y-55466666D01*
X82391904Y-55542857D01*
X82353809Y-55657142D01*
X82277619Y-55733333D01*
X82201428Y-55771428D01*
X82049047Y-55809523D01*
X81934761Y-55809523D01*
X81782380Y-55771428D01*
X81706190Y-55733333D01*
X81630000Y-55657142D01*
X81591904Y-55542857D01*
X81591904Y-55466666D01*
X81630000Y-55352380D01*
X81668095Y-55314285D01*
X82391904Y-54552380D02*
X82391904Y-55009523D01*
X82391904Y-54780952D02*
X81591904Y-54780952D01*
X81706190Y-54857142D01*
X81782380Y-54933333D01*
X81820476Y-55009523D01*
X81668095Y-54247619D02*
X81630000Y-54209523D01*
X81591904Y-54133333D01*
X81591904Y-53942857D01*
X81630000Y-53866666D01*
X81668095Y-53828571D01*
X81744285Y-53790476D01*
X81820476Y-53790476D01*
X81934761Y-53828571D01*
X82391904Y-54285714D01*
X82391904Y-53790476D01*
D10*
X44266666Y-63061904D02*
X43885714Y-63061904D01*
X43885714Y-62261904D01*
X44952380Y-63061904D02*
X44495238Y-63061904D01*
X44723809Y-63061904D02*
X44723809Y-62261904D01*
X44647619Y-62376190D01*
X44571428Y-62452380D01*
X44495238Y-62490476D01*
X44409523Y-36961904D02*
X44409523Y-36161904D01*
X44600000Y-36161904D01*
X44714285Y-36200000D01*
X44790476Y-36276190D01*
X44828571Y-36352380D01*
X44866666Y-36504761D01*
X44866666Y-36619047D01*
X44828571Y-36771428D01*
X44790476Y-36847619D01*
X44714285Y-36923809D01*
X44600000Y-36961904D01*
X44409523Y-36961904D01*
X45133333Y-36161904D02*
X45628571Y-36161904D01*
X45361904Y-36466666D01*
X45476190Y-36466666D01*
X45552380Y-36504761D01*
X45590476Y-36542857D01*
X45628571Y-36619047D01*
X45628571Y-36809523D01*
X45590476Y-36885714D01*
X45552380Y-36923809D01*
X45476190Y-36961904D01*
X45247619Y-36961904D01*
X45171428Y-36923809D01*
X45133333Y-36885714D01*
X49685714Y-42033333D02*
X49723809Y-42071428D01*
X49761904Y-42185714D01*
X49761904Y-42261904D01*
X49723809Y-42376190D01*
X49647619Y-42452380D01*
X49571428Y-42490476D01*
X49419047Y-42528571D01*
X49304761Y-42528571D01*
X49152380Y-42490476D01*
X49076190Y-42452380D01*
X49000000Y-42376190D01*
X48961904Y-42261904D01*
X48961904Y-42185714D01*
X49000000Y-42071428D01*
X49038095Y-42033333D01*
X48961904Y-41347619D02*
X48961904Y-41500000D01*
X49000000Y-41576190D01*
X49038095Y-41614285D01*
X49152380Y-41690476D01*
X49304761Y-41728571D01*
X49609523Y-41728571D01*
X49685714Y-41690476D01*
X49723809Y-41652380D01*
X49761904Y-41576190D01*
X49761904Y-41423809D01*
X49723809Y-41347619D01*
X49685714Y-41309523D01*
X49609523Y-41271428D01*
X49419047Y-41271428D01*
X49342857Y-41309523D01*
X49304761Y-41347619D01*
X49266666Y-41423809D01*
X49266666Y-41576190D01*
X49304761Y-41652380D01*
X49342857Y-41690476D01*
X49419047Y-41728571D01*
X88665714Y-40833333D02*
X88703809Y-40871428D01*
X88741904Y-40985714D01*
X88741904Y-41061904D01*
X88703809Y-41176190D01*
X88627619Y-41252380D01*
X88551428Y-41290476D01*
X88399047Y-41328571D01*
X88284761Y-41328571D01*
X88132380Y-41290476D01*
X88056190Y-41252380D01*
X87980000Y-41176190D01*
X87941904Y-41061904D01*
X87941904Y-40985714D01*
X87980000Y-40871428D01*
X88018095Y-40833333D01*
X88741904Y-40452380D02*
X88741904Y-40300000D01*
X88703809Y-40223809D01*
X88665714Y-40185714D01*
X88551428Y-40109523D01*
X88399047Y-40071428D01*
X88094285Y-40071428D01*
X88018095Y-40109523D01*
X87980000Y-40147619D01*
X87941904Y-40223809D01*
X87941904Y-40376190D01*
X87980000Y-40452380D01*
X88018095Y-40490476D01*
X88094285Y-40528571D01*
X88284761Y-40528571D01*
X88360952Y-40490476D01*
X88399047Y-40452380D01*
X88437142Y-40376190D01*
X88437142Y-40223809D01*
X88399047Y-40147619D01*
X88360952Y-40109523D01*
X88284761Y-40071428D01*
X47766666Y-52825714D02*
X47728571Y-52863809D01*
X47614285Y-52901904D01*
X47538095Y-52901904D01*
X47423809Y-52863809D01*
X47347619Y-52787619D01*
X47309523Y-52711428D01*
X47271428Y-52559047D01*
X47271428Y-52444761D01*
X47309523Y-52292380D01*
X47347619Y-52216190D01*
X47423809Y-52140000D01*
X47538095Y-52101904D01*
X47614285Y-52101904D01*
X47728571Y-52140000D01*
X47766666Y-52178095D01*
X48071428Y-52178095D02*
X48109523Y-52140000D01*
X48185714Y-52101904D01*
X48376190Y-52101904D01*
X48452380Y-52140000D01*
X48490476Y-52178095D01*
X48528571Y-52254285D01*
X48528571Y-52330476D01*
X48490476Y-52444761D01*
X48033333Y-52901904D01*
X48528571Y-52901904D01*
X66961904Y-54114285D02*
X66580952Y-54380952D01*
X66961904Y-54571428D02*
X66161904Y-54571428D01*
X66161904Y-54266666D01*
X66200000Y-54190476D01*
X66238095Y-54152380D01*
X66314285Y-54114285D01*
X66428571Y-54114285D01*
X66504761Y-54152380D01*
X66542857Y-54190476D01*
X66580952Y-54266666D01*
X66580952Y-54571428D01*
X66961904Y-53352380D02*
X66961904Y-53809523D01*
X66961904Y-53580952D02*
X66161904Y-53580952D01*
X66276190Y-53657142D01*
X66352380Y-53733333D01*
X66390476Y-53809523D01*
X66161904Y-53085714D02*
X66161904Y-52590476D01*
X66466666Y-52857142D01*
X66466666Y-52742857D01*
X66504761Y-52666666D01*
X66542857Y-52628571D01*
X66619047Y-52590476D01*
X66809523Y-52590476D01*
X66885714Y-52628571D01*
X66923809Y-52666666D01*
X66961904Y-52742857D01*
X66961904Y-52971428D01*
X66923809Y-53047619D01*
X66885714Y-53085714D01*
X47766666Y-49025714D02*
X47728571Y-49063809D01*
X47614285Y-49101904D01*
X47538095Y-49101904D01*
X47423809Y-49063809D01*
X47347619Y-48987619D01*
X47309523Y-48911428D01*
X47271428Y-48759047D01*
X47271428Y-48644761D01*
X47309523Y-48492380D01*
X47347619Y-48416190D01*
X47423809Y-48340000D01*
X47538095Y-48301904D01*
X47614285Y-48301904D01*
X47728571Y-48340000D01*
X47766666Y-48378095D01*
X48528571Y-49101904D02*
X48071428Y-49101904D01*
X48300000Y-49101904D02*
X48300000Y-48301904D01*
X48223809Y-48416190D01*
X48147619Y-48492380D01*
X48071428Y-48530476D01*
X38066666Y-48261904D02*
X37685714Y-48261904D01*
X37685714Y-47461904D01*
X38257142Y-47461904D02*
X38752380Y-47461904D01*
X38485714Y-47766666D01*
X38600000Y-47766666D01*
X38676190Y-47804761D01*
X38714285Y-47842857D01*
X38752380Y-47919047D01*
X38752380Y-48109523D01*
X38714285Y-48185714D01*
X38676190Y-48223809D01*
X38600000Y-48261904D01*
X38371428Y-48261904D01*
X38295238Y-48223809D01*
X38257142Y-48185714D01*
X45561904Y-45033333D02*
X45180952Y-45300000D01*
X45561904Y-45490476D02*
X44761904Y-45490476D01*
X44761904Y-45185714D01*
X44800000Y-45109523D01*
X44838095Y-45071428D01*
X44914285Y-45033333D01*
X45028571Y-45033333D01*
X45104761Y-45071428D01*
X45142857Y-45109523D01*
X45180952Y-45185714D01*
X45180952Y-45490476D01*
X45561904Y-44271428D02*
X45561904Y-44728571D01*
X45561904Y-44500000D02*
X44761904Y-44500000D01*
X44876190Y-44576190D01*
X44952380Y-44652380D01*
X44990476Y-44728571D01*
D11*
X89461904Y-54433333D02*
X89080952Y-54700000D01*
X89461904Y-54890476D02*
X88661904Y-54890476D01*
X88661904Y-54585714D01*
X88700000Y-54509523D01*
X88738095Y-54471428D01*
X88814285Y-54433333D01*
X88928571Y-54433333D01*
X89004761Y-54471428D01*
X89042857Y-54509523D01*
X89080952Y-54585714D01*
X89080952Y-54890476D01*
X88928571Y-53747619D02*
X89461904Y-53747619D01*
X88623809Y-53938095D02*
X89195238Y-54128571D01*
X89195238Y-53633333D01*
D10*
X40909523Y-38661904D02*
X40909523Y-37861904D01*
X41100000Y-37861904D01*
X41214285Y-37900000D01*
X41290476Y-37976190D01*
X41328571Y-38052380D01*
X41366666Y-38204761D01*
X41366666Y-38319047D01*
X41328571Y-38471428D01*
X41290476Y-38547619D01*
X41214285Y-38623809D01*
X41100000Y-38661904D01*
X40909523Y-38661904D01*
X42128571Y-38661904D02*
X41671428Y-38661904D01*
X41900000Y-38661904D02*
X41900000Y-37861904D01*
X41823809Y-37976190D01*
X41747619Y-38052380D01*
X41671428Y-38090476D01*
X30390476Y-21261904D02*
X30390476Y-21909523D01*
X30428571Y-21985714D01*
X30466666Y-22023809D01*
X30542857Y-22061904D01*
X30695238Y-22061904D01*
X30771428Y-22023809D01*
X30809523Y-21985714D01*
X30847619Y-21909523D01*
X30847619Y-21261904D01*
X31647619Y-22061904D02*
X31190476Y-22061904D01*
X31419047Y-22061904D02*
X31419047Y-21261904D01*
X31342857Y-21376190D01*
X31266666Y-21452380D01*
X31190476Y-21490476D01*
X88715714Y-44614285D02*
X88753809Y-44652380D01*
X88791904Y-44766666D01*
X88791904Y-44842857D01*
X88753809Y-44957142D01*
X88677619Y-45033333D01*
X88601428Y-45071428D01*
X88449047Y-45109523D01*
X88334761Y-45109523D01*
X88182380Y-45071428D01*
X88106190Y-45033333D01*
X88030000Y-44957142D01*
X87991904Y-44842857D01*
X87991904Y-44766666D01*
X88030000Y-44652380D01*
X88068095Y-44614285D01*
X88791904Y-43852380D02*
X88791904Y-44309523D01*
X88791904Y-44080952D02*
X87991904Y-44080952D01*
X88106190Y-44157142D01*
X88182380Y-44233333D01*
X88220476Y-44309523D01*
X87991904Y-43357142D02*
X87991904Y-43280952D01*
X88030000Y-43204761D01*
X88068095Y-43166666D01*
X88144285Y-43128571D01*
X88296666Y-43090476D01*
X88487142Y-43090476D01*
X88639523Y-43128571D01*
X88715714Y-43166666D01*
X88753809Y-43204761D01*
X88791904Y-43280952D01*
X88791904Y-43357142D01*
X88753809Y-43433333D01*
X88715714Y-43471428D01*
X88639523Y-43509523D01*
X88487142Y-43547619D01*
X88296666Y-43547619D01*
X88144285Y-43509523D01*
X88068095Y-43471428D01*
X88030000Y-43433333D01*
X87991904Y-43357142D01*
X79685714Y-49261904D02*
X79419047Y-48880952D01*
X79228571Y-49261904D02*
X79228571Y-48461904D01*
X79533333Y-48461904D01*
X79609523Y-48500000D01*
X79647619Y-48538095D01*
X79685714Y-48614285D01*
X79685714Y-48728571D01*
X79647619Y-48804761D01*
X79609523Y-48842857D01*
X79533333Y-48880952D01*
X79228571Y-48880952D01*
X80447619Y-49261904D02*
X79990476Y-49261904D01*
X80219047Y-49261904D02*
X80219047Y-48461904D01*
X80142857Y-48576190D01*
X80066666Y-48652380D01*
X79990476Y-48690476D01*
X81209523Y-49261904D02*
X80752380Y-49261904D01*
X80980952Y-49261904D02*
X80980952Y-48461904D01*
X80904761Y-48576190D01*
X80828571Y-48652380D01*
X80752380Y-48690476D01*
X79161904Y-63390476D02*
X78361904Y-63390476D01*
X78361904Y-63200000D01*
X78400000Y-63085714D01*
X78476190Y-63009523D01*
X78552380Y-62971428D01*
X78704761Y-62933333D01*
X78819047Y-62933333D01*
X78971428Y-62971428D01*
X79047619Y-63009523D01*
X79123809Y-63085714D01*
X79161904Y-63200000D01*
X79161904Y-63390476D01*
X78628571Y-62247619D02*
X79161904Y-62247619D01*
X78323809Y-62438095D02*
X78895238Y-62628571D01*
X78895238Y-62133333D01*
X76585714Y-65685714D02*
X76547619Y-65723809D01*
X76433333Y-65761904D01*
X76357142Y-65761904D01*
X76242857Y-65723809D01*
X76166666Y-65647619D01*
X76128571Y-65571428D01*
X76090476Y-65419047D01*
X76090476Y-65304761D01*
X76128571Y-65152380D01*
X76166666Y-65076190D01*
X76242857Y-65000000D01*
X76357142Y-64961904D01*
X76433333Y-64961904D01*
X76547619Y-65000000D01*
X76585714Y-65038095D01*
X76890476Y-65038095D02*
X76928571Y-65000000D01*
X77004761Y-64961904D01*
X77195238Y-64961904D01*
X77271428Y-65000000D01*
X77309523Y-65038095D01*
X77347619Y-65114285D01*
X77347619Y-65190476D01*
X77309523Y-65304761D01*
X76852380Y-65761904D01*
X77347619Y-65761904D01*
X77842857Y-64961904D02*
X77919047Y-64961904D01*
X77995238Y-65000000D01*
X78033333Y-65038095D01*
X78071428Y-65114285D01*
X78109523Y-65266666D01*
X78109523Y-65457142D01*
X78071428Y-65609523D01*
X78033333Y-65685714D01*
X77995238Y-65723809D01*
X77919047Y-65761904D01*
X77842857Y-65761904D01*
X77766666Y-65723809D01*
X77728571Y-65685714D01*
X77690476Y-65609523D01*
X77652380Y-65457142D01*
X77652380Y-65266666D01*
X77690476Y-65114285D01*
X77728571Y-65038095D01*
X77766666Y-65000000D01*
X77842857Y-64961904D01*
X64261904Y-63733333D02*
X64261904Y-64114285D01*
X63461904Y-64114285D01*
X63461904Y-63542857D02*
X63461904Y-63009523D01*
X64261904Y-63352380D01*
X68235714Y-54114285D02*
X68273809Y-54152380D01*
X68311904Y-54266666D01*
X68311904Y-54342857D01*
X68273809Y-54457142D01*
X68197619Y-54533333D01*
X68121428Y-54571428D01*
X67969047Y-54609523D01*
X67854761Y-54609523D01*
X67702380Y-54571428D01*
X67626190Y-54533333D01*
X67550000Y-54457142D01*
X67511904Y-54342857D01*
X67511904Y-54266666D01*
X67550000Y-54152380D01*
X67588095Y-54114285D01*
X67588095Y-53809523D02*
X67550000Y-53771428D01*
X67511904Y-53695238D01*
X67511904Y-53504761D01*
X67550000Y-53428571D01*
X67588095Y-53390476D01*
X67664285Y-53352380D01*
X67740476Y-53352380D01*
X67854761Y-53390476D01*
X68311904Y-53847619D01*
X68311904Y-53352380D01*
X67511904Y-53085714D02*
X67511904Y-52590476D01*
X67816666Y-52857142D01*
X67816666Y-52742857D01*
X67854761Y-52666666D01*
X67892857Y-52628571D01*
X67969047Y-52590476D01*
X68159523Y-52590476D01*
X68235714Y-52628571D01*
X68273809Y-52666666D01*
X68311904Y-52742857D01*
X68311904Y-52971428D01*
X68273809Y-53047619D01*
X68235714Y-53085714D01*
X40761904Y-66466666D02*
X41333333Y-66466666D01*
X41447619Y-66504761D01*
X41523809Y-66580952D01*
X41561904Y-66695238D01*
X41561904Y-66771428D01*
X40838095Y-66123809D02*
X40800000Y-66085714D01*
X40761904Y-66009523D01*
X40761904Y-65819047D01*
X40800000Y-65742857D01*
X40838095Y-65704761D01*
X40914285Y-65666666D01*
X40990476Y-65666666D01*
X41104761Y-65704761D01*
X41561904Y-66161904D01*
X41561904Y-65666666D01*
D12*
X47010000Y-42040580D02*
X47010000Y-41759420D01*
X45990000Y-42040580D02*
X45990000Y-41759420D01*
X83770000Y-51500000D02*
X83770000Y-53300000D01*
X86890000Y-51500000D02*
X86890000Y-52300000D01*
X83770000Y-51500000D02*
X83770000Y-50700000D01*
X86890000Y-51500000D02*
X86890000Y-50700000D01*
X80086250Y-33158750D02*
X80086250Y-33946250D01*
X80720000Y-37745563D02*
X81784437Y-38810000D01*
X80720000Y-33054437D02*
X81784437Y-31990000D01*
X79692500Y-33552500D02*
X80480000Y-33552500D01*
X87540000Y-38810000D02*
X87540000Y-36460000D01*
X81784437Y-38810000D02*
X87540000Y-38810000D01*
X87540000Y-31990000D02*
X87540000Y-34340000D01*
X80720000Y-37745563D02*
X80720000Y-36460000D01*
X81784437Y-31990000D02*
X87540000Y-31990000D01*
X80720000Y-33054437D02*
X80720000Y-34340000D01*
X48522500Y-45137258D02*
X48522500Y-44662742D01*
X47477500Y-45137258D02*
X47477500Y-44662742D01*
X47792164Y-56660000D02*
X48007836Y-56660000D01*
X47792164Y-55940000D02*
X48007836Y-55940000D01*
X81180000Y-55548748D02*
X81180000Y-56971252D01*
X79360000Y-55548748D02*
X79360000Y-56971252D01*
X75370000Y-51320000D02*
X73420000Y-51320000D01*
X75370000Y-56440000D02*
X78820000Y-56440000D01*
X75370000Y-56440000D02*
X73420000Y-56440000D01*
X75370000Y-51320000D02*
X77320000Y-51320000D01*
X88282500Y-50692742D02*
X88282500Y-51167258D01*
X87237500Y-50692742D02*
X87237500Y-51167258D01*
X80710580Y-50690000D02*
X80429420Y-50690000D01*
X80710580Y-49670000D02*
X80429420Y-49670000D01*
X61060000Y-67399622D02*
X61060000Y-66600378D01*
X59940000Y-67399622D02*
X59940000Y-66600378D01*
X69892742Y-49297500D02*
X70367258Y-49297500D01*
X69892742Y-50342500D02*
X70367258Y-50342500D01*
X47792164Y-60460000D02*
X48007836Y-60460000D01*
X47792164Y-59740000D02*
X48007836Y-59740000D01*
X80807258Y-53702500D02*
X80332742Y-53702500D01*
X80807258Y-52657500D02*
X80332742Y-52657500D01*
X70270580Y-56360000D02*
X69989420Y-56360000D01*
X70270580Y-55340000D02*
X69989420Y-55340000D01*
X53310000Y-37475279D02*
X53310000Y-37149721D01*
X52290000Y-37475279D02*
X52290000Y-37149721D01*
X71220000Y-56730000D02*
X76620000Y-56730000D01*
X71220000Y-56730000D02*
X71220000Y-60030000D01*
X71220000Y-60030000D02*
X76620000Y-60030000D01*
X33600000Y-33200000D02*
X33600000Y-37600000D01*
X37800000Y-33200000D02*
X38600000Y-33200000D01*
X38600000Y-33200000D02*
X38600000Y-37600000D01*
X35300000Y-37600000D02*
X36900000Y-37600000D01*
X33600000Y-37600000D02*
X34100000Y-37600000D01*
X38600000Y-37600000D02*
X37800000Y-37600000D01*
X34100000Y-37600000D02*
X34100000Y-39000000D01*
X34400000Y-33200000D02*
X33600000Y-33200000D01*
X35300000Y-33200000D02*
X36900000Y-33200000D01*
X83360000Y-50779420D02*
X83360000Y-51060580D01*
X82340000Y-50779420D02*
X82340000Y-51060580D01*
X72912742Y-49877500D02*
X73387258Y-49877500D01*
X72912742Y-50922500D02*
X73387258Y-50922500D01*
X49670000Y-61570000D02*
X57350000Y-61570000D01*
X57350000Y-64230000D02*
X57350000Y-61570000D01*
X49670000Y-64230000D02*
X57350000Y-64230000D01*
X49670000Y-64230000D02*
X49670000Y-61570000D01*
X47070000Y-64230000D02*
X47070000Y-62900000D01*
X48400000Y-64230000D02*
X47070000Y-64230000D01*
D13*
X55180000Y-39470000D02*
X50360000Y-39470000D01*
X50360000Y-39470000D02*
X50360000Y-55720000D01*
X50360000Y-55720000D02*
X55180000Y-55720000D01*
X67120000Y-39470000D02*
X58100000Y-39470000D01*
X58100000Y-55720000D02*
X67120000Y-55720000D01*
X67120000Y-55720000D02*
X67120000Y-39470000D01*
D12*
X70270580Y-50820000D02*
X69989420Y-50820000D01*
X70270580Y-51840000D02*
X69989420Y-51840000D01*
D10*
X81420000Y-44400000D02*
X81420000Y-40200000D01*
X81420000Y-40200000D02*
X81590000Y-40200000D01*
X85580000Y-44400000D02*
X85580000Y-40200000D01*
X85580000Y-40200000D02*
X85410000Y-40200000D01*
X85410000Y-44400000D02*
X85580000Y-44400000D01*
X81590000Y-44400000D02*
X81420000Y-44400000D01*
D12*
X47911252Y-38290000D02*
X46488748Y-38290000D01*
X47911252Y-40110000D02*
X46488748Y-40110000D01*
X22010250Y-44162500D02*
X20010250Y-44162500D01*
X20010250Y-44162500D02*
X20010250Y-62162500D01*
X20010250Y-62162500D02*
X22010250Y-62162500D01*
X22010250Y-62162500D02*
X22010250Y-44162500D01*
G36*
X22010250Y-44162500D02*
G01*
X20010250Y-44162500D01*
X20010250Y-62162500D01*
X22010250Y-62162500D01*
X22010250Y-44162500D01*
G37*
X32610250Y-44162500D02*
X22010250Y-44162500D01*
X22010250Y-44162500D02*
X22010250Y-62162500D01*
X22010250Y-62162500D02*
X32610250Y-62162500D01*
X32610250Y-62162500D02*
X32610250Y-44162500D01*
X88015000Y-47600000D02*
X88015000Y-48930000D01*
X88015000Y-46330000D02*
X88015000Y-46270000D01*
X82815000Y-48930000D02*
X82815000Y-46270000D01*
X88015000Y-48930000D02*
X86685000Y-48930000D01*
X85415000Y-48930000D02*
X82815000Y-48930000D01*
X88015000Y-46330000D02*
X85415000Y-46330000D01*
X85415000Y-46330000D02*
X85415000Y-48930000D01*
X88015000Y-46270000D02*
X82815000Y-46270000D01*
X84018748Y-53820000D02*
X85441252Y-53820000D01*
X84018748Y-55640000D02*
X85441252Y-55640000D01*
X44799622Y-64810000D02*
X44000378Y-64810000D01*
X44799622Y-63690000D02*
X44000378Y-63690000D01*
X44350000Y-35950000D02*
X50050000Y-35950000D01*
X44350000Y-31650000D02*
X50050000Y-31650000D01*
X44350000Y-31650000D02*
X44350000Y-35950000D01*
X48500000Y-42040580D02*
X48500000Y-41759420D01*
X47480000Y-42040580D02*
X47480000Y-41759420D01*
X85965000Y-40438748D02*
X85965000Y-40961252D01*
X87435000Y-40438748D02*
X87435000Y-40961252D01*
X47792164Y-53340000D02*
X48007836Y-53340000D01*
X47792164Y-54060000D02*
X48007836Y-54060000D01*
X68857500Y-53352742D02*
X68857500Y-53827258D01*
X69902500Y-53352742D02*
X69902500Y-53827258D01*
X47792164Y-49540000D02*
X48007836Y-49540000D01*
X47792164Y-50260000D02*
X48007836Y-50260000D01*
D14*
X37550000Y-48650000D02*
X40270000Y-48650000D01*
X41960000Y-48650000D02*
X44670000Y-48650000D01*
X37550000Y-61350000D02*
X37550000Y-48650000D01*
X44670000Y-61350000D02*
X37570000Y-61350000D01*
X44670000Y-48650000D02*
X44670000Y-61350000D01*
X40260000Y-48650000D02*
G75*
G03*
X41960000Y-48650000I850000J0D01*
G01*
D13*
X39279924Y-49609979D02*
G75*
G03*
X39280000Y-49620000I-659924J-10016D01*
G01*
D12*
X47022500Y-45137258D02*
X47022500Y-44662742D01*
X45977500Y-45137258D02*
X45977500Y-44662742D01*
X87237500Y-53652742D02*
X87237500Y-54127258D01*
X88282500Y-53652742D02*
X88282500Y-54127258D01*
X40700000Y-33200000D02*
X42300000Y-33200000D01*
X43200000Y-33200000D02*
X44000000Y-33200000D01*
X44000000Y-37600000D02*
X43200000Y-37600000D01*
X44000000Y-33200000D02*
X44000000Y-37600000D01*
X39000000Y-37600000D02*
X39500000Y-37600000D01*
X39000000Y-33200000D02*
X39000000Y-37600000D01*
X39800000Y-33200000D02*
X39000000Y-33200000D01*
X39500000Y-37600000D02*
X39500000Y-39000000D01*
X40700000Y-37600000D02*
X42300000Y-37600000D01*
X59290000Y-25045000D02*
X72790000Y-25045000D01*
X72790000Y-25045000D02*
X72790000Y-37095000D01*
X72790000Y-37095000D02*
X59290000Y-37095000D01*
X59290000Y-37095000D02*
X59290000Y-25045000D01*
X32240000Y-23445000D02*
X89550000Y-23445000D01*
X89550000Y-23445000D02*
X89550000Y-25045000D01*
X89550000Y-25045000D02*
X32240000Y-25045000D01*
X32240000Y-25045000D02*
X32240000Y-23445000D01*
X32240000Y-21045000D02*
X89550000Y-21045000D01*
X89550000Y-21045000D02*
X89550000Y-37145000D01*
X89550000Y-37145000D02*
X32240000Y-37145000D01*
X32240000Y-37145000D02*
X32240000Y-21045000D01*
G36*
X72226957Y-39726571D02*
G01*
X72323232Y-39750809D01*
X72409816Y-39793641D01*
X72484627Y-39853419D01*
X72545582Y-39928494D01*
X72590601Y-40017220D01*
X72616864Y-40113530D01*
X72622714Y-40210795D01*
X72607860Y-40304654D01*
X72574160Y-40392511D01*
X72523472Y-40471770D01*
X72457655Y-40539836D01*
X72378566Y-40594112D01*
X72288066Y-40632002D01*
X72236800Y-40644426D01*
X72192302Y-40651947D01*
X72158001Y-40654919D01*
X72125040Y-40653094D01*
X72084566Y-40646225D01*
X72051469Y-40639250D01*
X71958053Y-40607741D01*
X71874381Y-40556617D01*
X71802335Y-40487429D01*
X71743800Y-40401728D01*
X71729852Y-40374489D01*
X71713414Y-40338122D01*
X71703106Y-40307582D01*
X71697540Y-40275450D01*
X71695331Y-40234307D01*
X71695052Y-40188222D01*
X71699139Y-40103865D01*
X71712554Y-40034586D01*
X71737744Y-39973961D01*
X71777154Y-39915567D01*
X71815702Y-39871302D01*
X71887594Y-39805484D01*
X71962687Y-39760053D01*
X72045438Y-39732850D01*
X72123072Y-39722576D01*
X72226957Y-39726571D01*
G37*
D15*
X72226957Y-39726571D02*
X72323232Y-39750809D01*
X72409816Y-39793641D01*
X72484627Y-39853419D01*
X72545582Y-39928494D01*
X72590601Y-40017220D01*
X72616864Y-40113530D01*
X72622714Y-40210795D01*
X72607860Y-40304654D01*
X72574160Y-40392511D01*
X72523472Y-40471770D01*
X72457655Y-40539836D01*
X72378566Y-40594112D01*
X72288066Y-40632002D01*
X72236800Y-40644426D01*
X72192302Y-40651947D01*
X72158001Y-40654919D01*
X72125040Y-40653094D01*
X72084566Y-40646225D01*
X72051469Y-40639250D01*
X71958053Y-40607741D01*
X71874381Y-40556617D01*
X71802335Y-40487429D01*
X71743800Y-40401728D01*
X71729852Y-40374489D01*
X71713414Y-40338122D01*
X71703106Y-40307582D01*
X71697540Y-40275450D01*
X71695331Y-40234307D01*
X71695052Y-40188222D01*
X71699139Y-40103865D01*
X71712554Y-40034586D01*
X71737744Y-39973961D01*
X71777154Y-39915567D01*
X71815702Y-39871302D01*
X71887594Y-39805484D01*
X71962687Y-39760053D01*
X72045438Y-39732850D01*
X72123072Y-39722576D01*
X72226957Y-39726571D01*
G36*
X71553600Y-40189054D02*
G01*
X71564465Y-40302993D01*
X71596082Y-40410616D01*
X71646985Y-40509615D01*
X71715707Y-40597684D01*
X71800781Y-40672516D01*
X71897768Y-40730384D01*
X72004036Y-40770005D01*
X72111050Y-40788573D01*
X72216700Y-40787434D01*
X72318875Y-40767930D01*
X72415466Y-40731406D01*
X72504362Y-40679205D01*
X72583454Y-40612673D01*
X72650631Y-40533152D01*
X72703783Y-40441987D01*
X72740801Y-40340523D01*
X72759573Y-40230102D01*
X72761511Y-40180206D01*
X72761511Y-40092267D01*
X72813440Y-40092267D01*
X72849747Y-40095111D01*
X72876645Y-40106911D01*
X72903751Y-40130649D01*
X72942133Y-40169031D01*
X72942133Y-42360602D01*
X72942124Y-42622739D01*
X72942092Y-42863241D01*
X72942028Y-43083048D01*
X72941924Y-43283101D01*
X72941773Y-43464344D01*
X72941566Y-43627716D01*
X72941294Y-43774160D01*
X72940950Y-43904617D01*
X72940526Y-44020029D01*
X72940013Y-44121338D01*
X72939403Y-44209484D01*
X72938688Y-44285410D01*
X72937860Y-44350057D01*
X72936911Y-44404367D01*
X72935833Y-44449280D01*
X72934617Y-44485740D01*
X72933255Y-44514687D01*
X72931739Y-44537063D01*
X72930062Y-44553809D01*
X72928214Y-44565868D01*
X72926187Y-44574180D01*
X72923975Y-44579687D01*
X72922892Y-44581537D01*
X72918729Y-44588549D01*
X72915195Y-44594996D01*
X72911365Y-44600900D01*
X72906318Y-44606286D01*
X72899129Y-44611178D01*
X72888877Y-44615598D01*
X72874636Y-44619572D01*
X72855486Y-44623121D01*
X72830501Y-44626270D01*
X72798760Y-44629042D01*
X72759338Y-44631461D01*
X72711314Y-44633551D01*
X72653763Y-44635335D01*
X72585763Y-44636837D01*
X72506390Y-44638080D01*
X72414721Y-44639089D01*
X72309834Y-44639885D01*
X72190804Y-44640494D01*
X72056710Y-44640939D01*
X71906627Y-44641243D01*
X71739633Y-44641430D01*
X71554804Y-44641524D01*
X71351217Y-44641548D01*
X71127950Y-44641525D01*
X70884078Y-44641480D01*
X70618679Y-44641437D01*
X70580296Y-44641432D01*
X70313318Y-44641389D01*
X70067998Y-44641318D01*
X69843417Y-44641213D01*
X69638655Y-44641066D01*
X69452794Y-44640869D01*
X69284912Y-44640616D01*
X69134092Y-44640300D01*
X68999413Y-44639913D01*
X68879956Y-44639447D01*
X68774801Y-44638897D01*
X68683029Y-44638253D01*
X68603721Y-44637511D01*
X68535957Y-44636661D01*
X68478818Y-44635697D01*
X68431383Y-44634611D01*
X68392734Y-44633397D01*
X68361951Y-44632047D01*
X68338115Y-44630555D01*
X68320306Y-44628911D01*
X68307605Y-44627111D01*
X68299092Y-44625145D01*
X68294734Y-44623477D01*
X68286272Y-44619906D01*
X68278503Y-44617270D01*
X68271398Y-44614634D01*
X68264927Y-44611062D01*
X68259061Y-44605621D01*
X68253771Y-44597375D01*
X68249026Y-44585390D01*
X68244798Y-44568731D01*
X68241057Y-44546463D01*
X68237773Y-44517652D01*
X68234917Y-44481363D01*
X68232460Y-44436661D01*
X68230371Y-44382611D01*
X68228622Y-44318279D01*
X68227183Y-44242730D01*
X68226024Y-44155030D01*
X68225117Y-44054243D01*
X68224431Y-43939434D01*
X68223937Y-43809670D01*
X68223605Y-43664015D01*
X68223407Y-43501535D01*
X68223313Y-43321295D01*
X68223292Y-43122360D01*
X68223315Y-42903796D01*
X68223354Y-42664668D01*
X68223378Y-42404040D01*
X68223378Y-42361889D01*
X68223364Y-42098992D01*
X68223339Y-41857732D01*
X68223329Y-41637165D01*
X68223358Y-41436352D01*
X68223452Y-41254349D01*
X68223638Y-41090216D01*
X68223941Y-40943011D01*
X68224386Y-40811792D01*
X68224966Y-40701867D01*
X68527803Y-40701867D01*
X68567593Y-40759711D01*
X68578764Y-40775479D01*
X68588834Y-40789441D01*
X68597862Y-40802784D01*
X68605903Y-40816693D01*
X68613014Y-40832356D01*
X68619253Y-40850958D01*
X68624675Y-40873686D01*
X68629338Y-40901727D01*
X68633299Y-40936267D01*
X68636615Y-40978492D01*
X68639341Y-41029589D01*
X68641536Y-41090744D01*
X68643255Y-41163144D01*
X68644556Y-41247975D01*
X68645495Y-41346422D01*
X68646130Y-41459674D01*
X68646516Y-41588916D01*
X68646712Y-41735334D01*
X68646773Y-41900116D01*
X68646757Y-42084447D01*
X68646720Y-42289513D01*
X68646711Y-42412133D01*
X68646735Y-42629082D01*
X68646769Y-42824642D01*
X68646757Y-42999999D01*
X68646642Y-43156341D01*
X68646370Y-43294857D01*
X68645882Y-43416734D01*
X68645124Y-43523160D01*
X68644038Y-43615322D01*
X68642569Y-43694409D01*
X68640660Y-43761608D01*
X68638256Y-43818107D01*
X68635299Y-43865093D01*
X68631734Y-43903755D01*
X68627505Y-43935280D01*
X68622554Y-43960855D01*
X68616827Y-43981670D01*
X68610267Y-43998911D01*
X68602817Y-44013765D01*
X68594421Y-44027422D01*
X68585024Y-44041069D01*
X68574568Y-44055893D01*
X68568477Y-44064783D01*
X68529704Y-44122400D01*
X69061268Y-44122400D01*
X69184517Y-44122365D01*
X69287013Y-44122215D01*
X69370580Y-44121878D01*
X69437044Y-44121286D01*
X69488229Y-44120367D01*
X69525959Y-44119051D01*
X69552060Y-44117269D01*
X69568356Y-44114951D01*
X69576672Y-44112026D01*
X69578832Y-44108424D01*
X69576661Y-44104075D01*
X69575465Y-44102645D01*
X69550315Y-44065573D01*
X69524417Y-44012772D01*
X69500808Y-43950770D01*
X69492539Y-43924357D01*
X69487922Y-43906416D01*
X69484021Y-43885355D01*
X69480752Y-43859089D01*
X69478034Y-43825532D01*
X69475785Y-43782599D01*
X69473923Y-43728204D01*
X69472364Y-43660262D01*
X69471028Y-43576688D01*
X69469831Y-43475395D01*
X69468692Y-43354300D01*
X69468315Y-43309600D01*
X69467298Y-43184449D01*
X69466540Y-43080082D01*
X69466097Y-42994707D01*
X69466030Y-42926533D01*
X69466395Y-42873765D01*
X69467252Y-42834614D01*
X69468659Y-42807285D01*
X69470675Y-42789986D01*
X69473357Y-42780926D01*
X69476764Y-42778312D01*
X69480956Y-42780351D01*
X69485429Y-42784667D01*
X69495784Y-42797602D01*
X69517842Y-42826676D01*
X69550043Y-42869759D01*
X69590826Y-42924718D01*
X69638630Y-42989423D01*
X69691895Y-43061742D01*
X69749060Y-43139544D01*
X69808563Y-43220698D01*
X69868845Y-43303072D01*
X69928345Y-43384536D01*
X69985502Y-43462957D01*
X70038755Y-43536204D01*
X70086543Y-43602147D01*
X70127307Y-43658654D01*
X70159484Y-43703593D01*
X70181515Y-43734834D01*
X70186083Y-43741466D01*
X70209004Y-43778369D01*
X70235812Y-43826359D01*
X70261211Y-43875897D01*
X70264432Y-43882577D01*
X70286110Y-43930772D01*
X70298696Y-43968334D01*
X70304426Y-44004160D01*
X70305544Y-44046200D01*
X70304910Y-44122400D01*
X71459349Y-44122400D01*
X71368185Y-44028669D01*
X71321388Y-43978775D01*
X71271101Y-43922295D01*
X71225056Y-43868026D01*
X71204631Y-43842673D01*
X71174193Y-43803128D01*
X71134138Y-43749916D01*
X71085639Y-43684667D01*
X71029865Y-43609011D01*
X70967989Y-43524577D01*
X70901181Y-43432994D01*
X70830613Y-43335892D01*
X70757455Y-43234901D01*
X70682879Y-43131650D01*
X70608056Y-43027768D01*
X70534157Y-42924885D01*
X70462354Y-42824631D01*
X70393816Y-42728636D01*
X70329716Y-42638527D01*
X70271225Y-42555936D01*
X70219514Y-42482492D01*
X70175753Y-42419824D01*
X70141115Y-42369561D01*
X70116770Y-42333334D01*
X70103889Y-42312771D01*
X70102131Y-42308668D01*
X70110090Y-42297342D01*
X70130885Y-42270162D01*
X70163153Y-42228829D01*
X70205530Y-42175044D01*
X70256653Y-42110506D01*
X70315159Y-42036918D01*
X70379686Y-41955978D01*
X70448869Y-41869388D01*
X70521347Y-41778848D01*
X70595754Y-41686060D01*
X70655483Y-41611702D01*
X71666489Y-41611702D01*
X71672398Y-41624659D01*
X71686728Y-41646908D01*
X71687775Y-41648391D01*
X71706562Y-41678544D01*
X71726209Y-41715375D01*
X71730108Y-41723511D01*
X71733644Y-41731940D01*
X71736770Y-41742059D01*
X71739514Y-41755260D01*
X71741908Y-41772938D01*
X71743981Y-41796484D01*
X71745765Y-41827293D01*
X71747288Y-41866757D01*
X71748581Y-41916269D01*
X71749674Y-41977223D01*
X71750597Y-42051011D01*
X71751381Y-42139028D01*
X71752055Y-42242665D01*
X71752650Y-42363316D01*
X71753195Y-42502374D01*
X71753721Y-42661232D01*
X71754255Y-42840089D01*
X71754794Y-43025207D01*
X71755228Y-43189145D01*
X71755491Y-43333303D01*
X71755516Y-43459079D01*
X71755235Y-43567871D01*
X71754581Y-43661077D01*
X71753486Y-43740097D01*
X71751882Y-43806328D01*
X71749703Y-43861170D01*
X71746881Y-43906021D01*
X71743349Y-43942278D01*
X71739039Y-43971341D01*
X71733883Y-43994609D01*
X71727815Y-44013479D01*
X71720767Y-44029351D01*
X71712671Y-44043622D01*
X71703460Y-44057691D01*
X71694960Y-44070158D01*
X71677824Y-44096452D01*
X71667678Y-44114037D01*
X71666489Y-44117257D01*
X71677396Y-44118334D01*
X71708589Y-44119335D01*
X71757777Y-44120235D01*
X71822667Y-44121010D01*
X71900970Y-44121637D01*
X71990393Y-44122091D01*
X72088644Y-44122349D01*
X72157555Y-44122400D01*
X72262548Y-44122180D01*
X72359390Y-44121548D01*
X72445893Y-44120549D01*
X72519868Y-44119227D01*
X72579126Y-44117626D01*
X72621480Y-44115791D01*
X72644740Y-44113765D01*
X72648622Y-44112493D01*
X72640924Y-44097591D01*
X72632926Y-44089560D01*
X72619754Y-44072434D01*
X72602515Y-44042183D01*
X72590593Y-44017622D01*
X72563955Y-43958711D01*
X72560880Y-42781845D01*
X72557805Y-41604978D01*
X72112147Y-41604978D01*
X72014330Y-41605142D01*
X71923936Y-41605611D01*
X71843370Y-41606347D01*
X71775038Y-41607316D01*
X71721344Y-41608480D01*
X71684695Y-41609803D01*
X71667496Y-41611249D01*
X71666489Y-41611702D01*
X70655483Y-41611702D01*
X70670730Y-41592722D01*
X70744910Y-41500537D01*
X70816931Y-41411204D01*
X70885431Y-41326424D01*
X70949045Y-41247898D01*
X71006412Y-41177326D01*
X71056167Y-41116409D01*
X71096948Y-41066847D01*
X71114112Y-41046178D01*
X71200404Y-40945516D01*
X71277003Y-40862259D01*
X71345817Y-40794438D01*
X71408752Y-40740089D01*
X71418133Y-40732722D01*
X71457644Y-40702117D01*
X70325884Y-40701867D01*
X70331173Y-40749844D01*
X70327870Y-40807188D01*
X70306339Y-40875463D01*
X70266365Y-40955212D01*
X70221057Y-41027495D01*
X70204839Y-41050140D01*
X70176786Y-41087696D01*
X70138570Y-41138021D01*
X70091863Y-41198973D01*
X70038339Y-41268411D01*
X69979669Y-41344194D01*
X69917525Y-41424180D01*
X69853579Y-41506228D01*
X69789505Y-41588196D01*
X69726973Y-41667943D01*
X69667657Y-41743327D01*
X69613229Y-41812207D01*
X69565361Y-41872442D01*
X69525725Y-41921889D01*
X69495994Y-41958408D01*
X69477839Y-41979858D01*
X69474780Y-41983156D01*
X69471921Y-41975149D01*
X69469707Y-41944855D01*
X69468143Y-41892556D01*
X69467233Y-41818531D01*
X69466980Y-41723063D01*
X69467387Y-41606434D01*
X69468296Y-41486445D01*
X69469618Y-41354333D01*
X69471143Y-41242594D01*
X69473119Y-41149025D01*
X69475794Y-41071419D01*
X69479418Y-41007574D01*
X69484239Y-40955283D01*
X69490506Y-40912344D01*
X69498468Y-40876551D01*
X69508373Y-40845700D01*
X69520469Y-40817586D01*
X69535007Y-40790005D01*
X69549689Y-40764966D01*
X69587686Y-40701867D01*
X68527803Y-40701867D01*
X68224966Y-40701867D01*
X68224999Y-40695617D01*
X68225805Y-40593544D01*
X68226830Y-40504633D01*
X68228100Y-40427941D01*
X68229640Y-40362527D01*
X68231476Y-40307449D01*
X68233633Y-40261765D01*
X68236137Y-40224534D01*
X68239013Y-40194813D01*
X68242287Y-40171662D01*
X68245985Y-40154139D01*
X68250131Y-40141301D01*
X68254753Y-40132208D01*
X68259874Y-40125918D01*
X68265522Y-40121488D01*
X68271721Y-40117978D01*
X68278496Y-40114445D01*
X68284492Y-40110876D01*
X68289725Y-40108300D01*
X68297901Y-40105972D01*
X68310114Y-40103878D01*
X68327459Y-40102007D01*
X68351031Y-40100347D01*
X68381923Y-40098884D01*
X68421232Y-40097608D01*
X68470050Y-40096504D01*
X68529473Y-40095561D01*
X68600596Y-40094767D01*
X68684512Y-40094109D01*
X68782317Y-40093575D01*
X68895106Y-40093153D01*
X69023971Y-40092829D01*
X69170009Y-40092592D01*
X69334314Y-40092430D01*
X69517980Y-40092330D01*
X69722103Y-40092280D01*
X69933247Y-40092267D01*
X71553600Y-40092267D01*
X71553600Y-40189054D01*
G37*
X71553600Y-40189054D02*
X71564465Y-40302993D01*
X71596082Y-40410616D01*
X71646985Y-40509615D01*
X71715707Y-40597684D01*
X71800781Y-40672516D01*
X71897768Y-40730384D01*
X72004036Y-40770005D01*
X72111050Y-40788573D01*
X72216700Y-40787434D01*
X72318875Y-40767930D01*
X72415466Y-40731406D01*
X72504362Y-40679205D01*
X72583454Y-40612673D01*
X72650631Y-40533152D01*
X72703783Y-40441987D01*
X72740801Y-40340523D01*
X72759573Y-40230102D01*
X72761511Y-40180206D01*
X72761511Y-40092267D01*
X72813440Y-40092267D01*
X72849747Y-40095111D01*
X72876645Y-40106911D01*
X72903751Y-40130649D01*
X72942133Y-40169031D01*
X72942133Y-42360602D01*
X72942124Y-42622739D01*
X72942092Y-42863241D01*
X72942028Y-43083048D01*
X72941924Y-43283101D01*
X72941773Y-43464344D01*
X72941566Y-43627716D01*
X72941294Y-43774160D01*
X72940950Y-43904617D01*
X72940526Y-44020029D01*
X72940013Y-44121338D01*
X72939403Y-44209484D01*
X72938688Y-44285410D01*
X72937860Y-44350057D01*
X72936911Y-44404367D01*
X72935833Y-44449280D01*
X72934617Y-44485740D01*
X72933255Y-44514687D01*
X72931739Y-44537063D01*
X72930062Y-44553809D01*
X72928214Y-44565868D01*
X72926187Y-44574180D01*
X72923975Y-44579687D01*
X72922892Y-44581537D01*
X72918729Y-44588549D01*
X72915195Y-44594996D01*
X72911365Y-44600900D01*
X72906318Y-44606286D01*
X72899129Y-44611178D01*
X72888877Y-44615598D01*
X72874636Y-44619572D01*
X72855486Y-44623121D01*
X72830501Y-44626270D01*
X72798760Y-44629042D01*
X72759338Y-44631461D01*
X72711314Y-44633551D01*
X72653763Y-44635335D01*
X72585763Y-44636837D01*
X72506390Y-44638080D01*
X72414721Y-44639089D01*
X72309834Y-44639885D01*
X72190804Y-44640494D01*
X72056710Y-44640939D01*
X71906627Y-44641243D01*
X71739633Y-44641430D01*
X71554804Y-44641524D01*
X71351217Y-44641548D01*
X71127950Y-44641525D01*
X70884078Y-44641480D01*
X70618679Y-44641437D01*
X70580296Y-44641432D01*
X70313318Y-44641389D01*
X70067998Y-44641318D01*
X69843417Y-44641213D01*
X69638655Y-44641066D01*
X69452794Y-44640869D01*
X69284912Y-44640616D01*
X69134092Y-44640300D01*
X68999413Y-44639913D01*
X68879956Y-44639447D01*
X68774801Y-44638897D01*
X68683029Y-44638253D01*
X68603721Y-44637511D01*
X68535957Y-44636661D01*
X68478818Y-44635697D01*
X68431383Y-44634611D01*
X68392734Y-44633397D01*
X68361951Y-44632047D01*
X68338115Y-44630555D01*
X68320306Y-44628911D01*
X68307605Y-44627111D01*
X68299092Y-44625145D01*
X68294734Y-44623477D01*
X68286272Y-44619906D01*
X68278503Y-44617270D01*
X68271398Y-44614634D01*
X68264927Y-44611062D01*
X68259061Y-44605621D01*
X68253771Y-44597375D01*
X68249026Y-44585390D01*
X68244798Y-44568731D01*
X68241057Y-44546463D01*
X68237773Y-44517652D01*
X68234917Y-44481363D01*
X68232460Y-44436661D01*
X68230371Y-44382611D01*
X68228622Y-44318279D01*
X68227183Y-44242730D01*
X68226024Y-44155030D01*
X68225117Y-44054243D01*
X68224431Y-43939434D01*
X68223937Y-43809670D01*
X68223605Y-43664015D01*
X68223407Y-43501535D01*
X68223313Y-43321295D01*
X68223292Y-43122360D01*
X68223315Y-42903796D01*
X68223354Y-42664668D01*
X68223378Y-42404040D01*
X68223378Y-42361889D01*
X68223364Y-42098992D01*
X68223339Y-41857732D01*
X68223329Y-41637165D01*
X68223358Y-41436352D01*
X68223452Y-41254349D01*
X68223638Y-41090216D01*
X68223941Y-40943011D01*
X68224386Y-40811792D01*
X68224966Y-40701867D01*
X68527803Y-40701867D01*
X68567593Y-40759711D01*
X68578764Y-40775479D01*
X68588834Y-40789441D01*
X68597862Y-40802784D01*
X68605903Y-40816693D01*
X68613014Y-40832356D01*
X68619253Y-40850958D01*
X68624675Y-40873686D01*
X68629338Y-40901727D01*
X68633299Y-40936267D01*
X68636615Y-40978492D01*
X68639341Y-41029589D01*
X68641536Y-41090744D01*
X68643255Y-41163144D01*
X68644556Y-41247975D01*
X68645495Y-41346422D01*
X68646130Y-41459674D01*
X68646516Y-41588916D01*
X68646712Y-41735334D01*
X68646773Y-41900116D01*
X68646757Y-42084447D01*
X68646720Y-42289513D01*
X68646711Y-42412133D01*
X68646735Y-42629082D01*
X68646769Y-42824642D01*
X68646757Y-42999999D01*
X68646642Y-43156341D01*
X68646370Y-43294857D01*
X68645882Y-43416734D01*
X68645124Y-43523160D01*
X68644038Y-43615322D01*
X68642569Y-43694409D01*
X68640660Y-43761608D01*
X68638256Y-43818107D01*
X68635299Y-43865093D01*
X68631734Y-43903755D01*
X68627505Y-43935280D01*
X68622554Y-43960855D01*
X68616827Y-43981670D01*
X68610267Y-43998911D01*
X68602817Y-44013765D01*
X68594421Y-44027422D01*
X68585024Y-44041069D01*
X68574568Y-44055893D01*
X68568477Y-44064783D01*
X68529704Y-44122400D01*
X69061268Y-44122400D01*
X69184517Y-44122365D01*
X69287013Y-44122215D01*
X69370580Y-44121878D01*
X69437044Y-44121286D01*
X69488229Y-44120367D01*
X69525959Y-44119051D01*
X69552060Y-44117269D01*
X69568356Y-44114951D01*
X69576672Y-44112026D01*
X69578832Y-44108424D01*
X69576661Y-44104075D01*
X69575465Y-44102645D01*
X69550315Y-44065573D01*
X69524417Y-44012772D01*
X69500808Y-43950770D01*
X69492539Y-43924357D01*
X69487922Y-43906416D01*
X69484021Y-43885355D01*
X69480752Y-43859089D01*
X69478034Y-43825532D01*
X69475785Y-43782599D01*
X69473923Y-43728204D01*
X69472364Y-43660262D01*
X69471028Y-43576688D01*
X69469831Y-43475395D01*
X69468692Y-43354300D01*
X69468315Y-43309600D01*
X69467298Y-43184449D01*
X69466540Y-43080082D01*
X69466097Y-42994707D01*
X69466030Y-42926533D01*
X69466395Y-42873765D01*
X69467252Y-42834614D01*
X69468659Y-42807285D01*
X69470675Y-42789986D01*
X69473357Y-42780926D01*
X69476764Y-42778312D01*
X69480956Y-42780351D01*
X69485429Y-42784667D01*
X69495784Y-42797602D01*
X69517842Y-42826676D01*
X69550043Y-42869759D01*
X69590826Y-42924718D01*
X69638630Y-42989423D01*
X69691895Y-43061742D01*
X69749060Y-43139544D01*
X69808563Y-43220698D01*
X69868845Y-43303072D01*
X69928345Y-43384536D01*
X69985502Y-43462957D01*
X70038755Y-43536204D01*
X70086543Y-43602147D01*
X70127307Y-43658654D01*
X70159484Y-43703593D01*
X70181515Y-43734834D01*
X70186083Y-43741466D01*
X70209004Y-43778369D01*
X70235812Y-43826359D01*
X70261211Y-43875897D01*
X70264432Y-43882577D01*
X70286110Y-43930772D01*
X70298696Y-43968334D01*
X70304426Y-44004160D01*
X70305544Y-44046200D01*
X70304910Y-44122400D01*
X71459349Y-44122400D01*
X71368185Y-44028669D01*
X71321388Y-43978775D01*
X71271101Y-43922295D01*
X71225056Y-43868026D01*
X71204631Y-43842673D01*
X71174193Y-43803128D01*
X71134138Y-43749916D01*
X71085639Y-43684667D01*
X71029865Y-43609011D01*
X70967989Y-43524577D01*
X70901181Y-43432994D01*
X70830613Y-43335892D01*
X70757455Y-43234901D01*
X70682879Y-43131650D01*
X70608056Y-43027768D01*
X70534157Y-42924885D01*
X70462354Y-42824631D01*
X70393816Y-42728636D01*
X70329716Y-42638527D01*
X70271225Y-42555936D01*
X70219514Y-42482492D01*
X70175753Y-42419824D01*
X70141115Y-42369561D01*
X70116770Y-42333334D01*
X70103889Y-42312771D01*
X70102131Y-42308668D01*
X70110090Y-42297342D01*
X70130885Y-42270162D01*
X70163153Y-42228829D01*
X70205530Y-42175044D01*
X70256653Y-42110506D01*
X70315159Y-42036918D01*
X70379686Y-41955978D01*
X70448869Y-41869388D01*
X70521347Y-41778848D01*
X70595754Y-41686060D01*
X70655483Y-41611702D01*
X71666489Y-41611702D01*
X71672398Y-41624659D01*
X71686728Y-41646908D01*
X71687775Y-41648391D01*
X71706562Y-41678544D01*
X71726209Y-41715375D01*
X71730108Y-41723511D01*
X71733644Y-41731940D01*
X71736770Y-41742059D01*
X71739514Y-41755260D01*
X71741908Y-41772938D01*
X71743981Y-41796484D01*
X71745765Y-41827293D01*
X71747288Y-41866757D01*
X71748581Y-41916269D01*
X71749674Y-41977223D01*
X71750597Y-42051011D01*
X71751381Y-42139028D01*
X71752055Y-42242665D01*
X71752650Y-42363316D01*
X71753195Y-42502374D01*
X71753721Y-42661232D01*
X71754255Y-42840089D01*
X71754794Y-43025207D01*
X71755228Y-43189145D01*
X71755491Y-43333303D01*
X71755516Y-43459079D01*
X71755235Y-43567871D01*
X71754581Y-43661077D01*
X71753486Y-43740097D01*
X71751882Y-43806328D01*
X71749703Y-43861170D01*
X71746881Y-43906021D01*
X71743349Y-43942278D01*
X71739039Y-43971341D01*
X71733883Y-43994609D01*
X71727815Y-44013479D01*
X71720767Y-44029351D01*
X71712671Y-44043622D01*
X71703460Y-44057691D01*
X71694960Y-44070158D01*
X71677824Y-44096452D01*
X71667678Y-44114037D01*
X71666489Y-44117257D01*
X71677396Y-44118334D01*
X71708589Y-44119335D01*
X71757777Y-44120235D01*
X71822667Y-44121010D01*
X71900970Y-44121637D01*
X71990393Y-44122091D01*
X72088644Y-44122349D01*
X72157555Y-44122400D01*
X72262548Y-44122180D01*
X72359390Y-44121548D01*
X72445893Y-44120549D01*
X72519868Y-44119227D01*
X72579126Y-44117626D01*
X72621480Y-44115791D01*
X72644740Y-44113765D01*
X72648622Y-44112493D01*
X72640924Y-44097591D01*
X72632926Y-44089560D01*
X72619754Y-44072434D01*
X72602515Y-44042183D01*
X72590593Y-44017622D01*
X72563955Y-43958711D01*
X72560880Y-42781845D01*
X72557805Y-41604978D01*
X72112147Y-41604978D01*
X72014330Y-41605142D01*
X71923936Y-41605611D01*
X71843370Y-41606347D01*
X71775038Y-41607316D01*
X71721344Y-41608480D01*
X71684695Y-41609803D01*
X71667496Y-41611249D01*
X71666489Y-41611702D01*
X70655483Y-41611702D01*
X70670730Y-41592722D01*
X70744910Y-41500537D01*
X70816931Y-41411204D01*
X70885431Y-41326424D01*
X70949045Y-41247898D01*
X71006412Y-41177326D01*
X71056167Y-41116409D01*
X71096948Y-41066847D01*
X71114112Y-41046178D01*
X71200404Y-40945516D01*
X71277003Y-40862259D01*
X71345817Y-40794438D01*
X71408752Y-40740089D01*
X71418133Y-40732722D01*
X71457644Y-40702117D01*
X70325884Y-40701867D01*
X70331173Y-40749844D01*
X70327870Y-40807188D01*
X70306339Y-40875463D01*
X70266365Y-40955212D01*
X70221057Y-41027495D01*
X70204839Y-41050140D01*
X70176786Y-41087696D01*
X70138570Y-41138021D01*
X70091863Y-41198973D01*
X70038339Y-41268411D01*
X69979669Y-41344194D01*
X69917525Y-41424180D01*
X69853579Y-41506228D01*
X69789505Y-41588196D01*
X69726973Y-41667943D01*
X69667657Y-41743327D01*
X69613229Y-41812207D01*
X69565361Y-41872442D01*
X69525725Y-41921889D01*
X69495994Y-41958408D01*
X69477839Y-41979858D01*
X69474780Y-41983156D01*
X69471921Y-41975149D01*
X69469707Y-41944855D01*
X69468143Y-41892556D01*
X69467233Y-41818531D01*
X69466980Y-41723063D01*
X69467387Y-41606434D01*
X69468296Y-41486445D01*
X69469618Y-41354333D01*
X69471143Y-41242594D01*
X69473119Y-41149025D01*
X69475794Y-41071419D01*
X69479418Y-41007574D01*
X69484239Y-40955283D01*
X69490506Y-40912344D01*
X69498468Y-40876551D01*
X69508373Y-40845700D01*
X69520469Y-40817586D01*
X69535007Y-40790005D01*
X69549689Y-40764966D01*
X69587686Y-40701867D01*
X68527803Y-40701867D01*
X68224966Y-40701867D01*
X68224999Y-40695617D01*
X68225805Y-40593544D01*
X68226830Y-40504633D01*
X68228100Y-40427941D01*
X68229640Y-40362527D01*
X68231476Y-40307449D01*
X68233633Y-40261765D01*
X68236137Y-40224534D01*
X68239013Y-40194813D01*
X68242287Y-40171662D01*
X68245985Y-40154139D01*
X68250131Y-40141301D01*
X68254753Y-40132208D01*
X68259874Y-40125918D01*
X68265522Y-40121488D01*
X68271721Y-40117978D01*
X68278496Y-40114445D01*
X68284492Y-40110876D01*
X68289725Y-40108300D01*
X68297901Y-40105972D01*
X68310114Y-40103878D01*
X68327459Y-40102007D01*
X68351031Y-40100347D01*
X68381923Y-40098884D01*
X68421232Y-40097608D01*
X68470050Y-40096504D01*
X68529473Y-40095561D01*
X68600596Y-40094767D01*
X68684512Y-40094109D01*
X68782317Y-40093575D01*
X68895106Y-40093153D01*
X69023971Y-40092829D01*
X69170009Y-40092592D01*
X69334314Y-40092430D01*
X69517980Y-40092330D01*
X69722103Y-40092280D01*
X69933247Y-40092267D01*
X71553600Y-40092267D01*
X71553600Y-40189054D01*
G36*
X75782522Y-43170812D02*
G01*
X75798768Y-43099590D01*
X75824405Y-43028864D01*
X75848401Y-42976493D01*
X75907020Y-42881196D01*
X75985117Y-42793170D01*
X76080315Y-42714017D01*
X76190238Y-42645340D01*
X76312510Y-42588741D01*
X76444755Y-42545821D01*
X76509422Y-42530882D01*
X76645604Y-42508777D01*
X76794049Y-42494194D01*
X76945505Y-42487813D01*
X77072064Y-42489445D01*
X77233950Y-42496224D01*
X77226530Y-42437245D01*
X77207238Y-42338092D01*
X77176104Y-42257372D01*
X77132269Y-42194466D01*
X77074871Y-42148756D01*
X77003048Y-42119622D01*
X76915941Y-42106447D01*
X76812686Y-42108611D01*
X76774711Y-42112612D01*
X76633520Y-42137780D01*
X76496707Y-42178814D01*
X76402178Y-42216815D01*
X76357018Y-42236190D01*
X76318585Y-42251760D01*
X76292234Y-42261405D01*
X76284546Y-42263452D01*
X76274802Y-42254374D01*
X76258083Y-42225405D01*
X76234232Y-42176217D01*
X76203093Y-42106484D01*
X76164507Y-42015879D01*
X76157910Y-42000089D01*
X76127853Y-41927772D01*
X76100874Y-41862425D01*
X76078136Y-41806906D01*
X76060806Y-41764072D01*
X76050048Y-41736781D01*
X76046941Y-41727942D01*
X76056940Y-41723187D01*
X76083217Y-41717910D01*
X76111489Y-41714231D01*
X76141646Y-41709474D01*
X76189433Y-41700028D01*
X76250612Y-41686820D01*
X76320946Y-41670776D01*
X76396194Y-41652820D01*
X76424755Y-41645797D01*
X76529816Y-41620209D01*
X76617480Y-41600147D01*
X76692068Y-41584969D01*
X76757903Y-41574035D01*
X76819307Y-41566704D01*
X76880602Y-41562335D01*
X76946110Y-41560287D01*
X77004128Y-41559889D01*
X77173574Y-41566552D01*
X77325492Y-41586567D01*
X77460756Y-41620202D01*
X77580239Y-41667725D01*
X77684815Y-41729405D01*
X77762424Y-41792965D01*
X77831265Y-41867099D01*
X77885006Y-41946871D01*
X77927910Y-42039091D01*
X77943384Y-42082161D01*
X77956244Y-42121142D01*
X77967446Y-42157289D01*
X77977120Y-42192434D01*
X77985396Y-42228410D01*
X77992403Y-42267050D01*
X77998272Y-42310185D01*
X78003131Y-42359649D01*
X78007110Y-42417273D01*
X78010340Y-42484891D01*
X78012949Y-42564334D01*
X78015067Y-42657436D01*
X78016824Y-42766027D01*
X78018349Y-42891942D01*
X78019772Y-43037012D01*
X78021025Y-43179778D01*
X78022351Y-43335968D01*
X78023556Y-43471239D01*
X78024766Y-43587246D01*
X78026106Y-43685645D01*
X78027700Y-43768093D01*
X78029675Y-43836246D01*
X78032156Y-43891760D01*
X78035269Y-43936292D01*
X78039138Y-43971498D01*
X78043889Y-43999034D01*
X78049648Y-44020556D01*
X78056539Y-44037722D01*
X78064689Y-44052186D01*
X78074223Y-44065606D01*
X78085266Y-44079638D01*
X78089566Y-44085071D01*
X78105386Y-44107910D01*
X78112422Y-44123463D01*
X78112444Y-44123922D01*
X78101567Y-44126121D01*
X78070582Y-44128147D01*
X78021957Y-44129942D01*
X77958163Y-44131451D01*
X77881669Y-44132616D01*
X77794944Y-44133380D01*
X77700457Y-44133686D01*
X77689550Y-44133689D01*
X77266657Y-44133689D01*
X77263395Y-44037622D01*
X77260133Y-43941556D01*
X77198044Y-43992543D01*
X77100714Y-44060057D01*
X76990813Y-44114749D01*
X76904349Y-44144978D01*
X76835278Y-44159666D01*
X76751925Y-44169659D01*
X76662159Y-44174646D01*
X76573845Y-44174313D01*
X76494851Y-44168351D01*
X76458622Y-44162638D01*
X76318603Y-44124776D01*
X76192178Y-44069932D01*
X76080260Y-43998924D01*
X75983762Y-43912568D01*
X75903600Y-43811679D01*
X75840687Y-43697076D01*
X75796312Y-43570984D01*
X75783978Y-43514401D01*
X75776368Y-43452202D01*
X75772739Y-43377363D01*
X75772245Y-43343467D01*
X75772310Y-43340282D01*
X76532248Y-43340282D01*
X76541541Y-43415333D01*
X76569728Y-43479160D01*
X76618197Y-43534798D01*
X76623254Y-43539211D01*
X76671548Y-43574037D01*
X76723257Y-43596620D01*
X76783989Y-43608540D01*
X76859352Y-43611383D01*
X76877459Y-43610978D01*
X76931278Y-43608325D01*
X76971308Y-43602909D01*
X77006324Y-43592745D01*
X77045103Y-43575850D01*
X77055745Y-43570672D01*
X77116396Y-43534844D01*
X77163215Y-43492212D01*
X77175952Y-43476973D01*
X77220622Y-43420462D01*
X77220622Y-43224586D01*
X77220086Y-43145939D01*
X77218396Y-43087988D01*
X77215428Y-43048875D01*
X77211057Y-43026741D01*
X77206972Y-43020274D01*
X77191047Y-43017111D01*
X77157264Y-43014488D01*
X77110340Y-43012655D01*
X77054993Y-43011857D01*
X77046106Y-43011842D01*
X76925330Y-43017096D01*
X76822660Y-43033263D01*
X76736106Y-43060961D01*
X76663681Y-43100808D01*
X76608751Y-43147758D01*
X76564204Y-43205645D01*
X76539480Y-43268693D01*
X76532248Y-43340282D01*
X75772310Y-43340282D01*
X75774178Y-43249712D01*
X75782522Y-43170812D01*
G37*
X75782522Y-43170812D02*
X75798768Y-43099590D01*
X75824405Y-43028864D01*
X75848401Y-42976493D01*
X75907020Y-42881196D01*
X75985117Y-42793170D01*
X76080315Y-42714017D01*
X76190238Y-42645340D01*
X76312510Y-42588741D01*
X76444755Y-42545821D01*
X76509422Y-42530882D01*
X76645604Y-42508777D01*
X76794049Y-42494194D01*
X76945505Y-42487813D01*
X77072064Y-42489445D01*
X77233950Y-42496224D01*
X77226530Y-42437245D01*
X77207238Y-42338092D01*
X77176104Y-42257372D01*
X77132269Y-42194466D01*
X77074871Y-42148756D01*
X77003048Y-42119622D01*
X76915941Y-42106447D01*
X76812686Y-42108611D01*
X76774711Y-42112612D01*
X76633520Y-42137780D01*
X76496707Y-42178814D01*
X76402178Y-42216815D01*
X76357018Y-42236190D01*
X76318585Y-42251760D01*
X76292234Y-42261405D01*
X76284546Y-42263452D01*
X76274802Y-42254374D01*
X76258083Y-42225405D01*
X76234232Y-42176217D01*
X76203093Y-42106484D01*
X76164507Y-42015879D01*
X76157910Y-42000089D01*
X76127853Y-41927772D01*
X76100874Y-41862425D01*
X76078136Y-41806906D01*
X76060806Y-41764072D01*
X76050048Y-41736781D01*
X76046941Y-41727942D01*
X76056940Y-41723187D01*
X76083217Y-41717910D01*
X76111489Y-41714231D01*
X76141646Y-41709474D01*
X76189433Y-41700028D01*
X76250612Y-41686820D01*
X76320946Y-41670776D01*
X76396194Y-41652820D01*
X76424755Y-41645797D01*
X76529816Y-41620209D01*
X76617480Y-41600147D01*
X76692068Y-41584969D01*
X76757903Y-41574035D01*
X76819307Y-41566704D01*
X76880602Y-41562335D01*
X76946110Y-41560287D01*
X77004128Y-41559889D01*
X77173574Y-41566552D01*
X77325492Y-41586567D01*
X77460756Y-41620202D01*
X77580239Y-41667725D01*
X77684815Y-41729405D01*
X77762424Y-41792965D01*
X77831265Y-41867099D01*
X77885006Y-41946871D01*
X77927910Y-42039091D01*
X77943384Y-42082161D01*
X77956244Y-42121142D01*
X77967446Y-42157289D01*
X77977120Y-42192434D01*
X77985396Y-42228410D01*
X77992403Y-42267050D01*
X77998272Y-42310185D01*
X78003131Y-42359649D01*
X78007110Y-42417273D01*
X78010340Y-42484891D01*
X78012949Y-42564334D01*
X78015067Y-42657436D01*
X78016824Y-42766027D01*
X78018349Y-42891942D01*
X78019772Y-43037012D01*
X78021025Y-43179778D01*
X78022351Y-43335968D01*
X78023556Y-43471239D01*
X78024766Y-43587246D01*
X78026106Y-43685645D01*
X78027700Y-43768093D01*
X78029675Y-43836246D01*
X78032156Y-43891760D01*
X78035269Y-43936292D01*
X78039138Y-43971498D01*
X78043889Y-43999034D01*
X78049648Y-44020556D01*
X78056539Y-44037722D01*
X78064689Y-44052186D01*
X78074223Y-44065606D01*
X78085266Y-44079638D01*
X78089566Y-44085071D01*
X78105386Y-44107910D01*
X78112422Y-44123463D01*
X78112444Y-44123922D01*
X78101567Y-44126121D01*
X78070582Y-44128147D01*
X78021957Y-44129942D01*
X77958163Y-44131451D01*
X77881669Y-44132616D01*
X77794944Y-44133380D01*
X77700457Y-44133686D01*
X77689550Y-44133689D01*
X77266657Y-44133689D01*
X77263395Y-44037622D01*
X77260133Y-43941556D01*
X77198044Y-43992543D01*
X77100714Y-44060057D01*
X76990813Y-44114749D01*
X76904349Y-44144978D01*
X76835278Y-44159666D01*
X76751925Y-44169659D01*
X76662159Y-44174646D01*
X76573845Y-44174313D01*
X76494851Y-44168351D01*
X76458622Y-44162638D01*
X76318603Y-44124776D01*
X76192178Y-44069932D01*
X76080260Y-43998924D01*
X75983762Y-43912568D01*
X75903600Y-43811679D01*
X75840687Y-43697076D01*
X75796312Y-43570984D01*
X75783978Y-43514401D01*
X75776368Y-43452202D01*
X75772739Y-43377363D01*
X75772245Y-43343467D01*
X75772310Y-43340282D01*
X76532248Y-43340282D01*
X76541541Y-43415333D01*
X76569728Y-43479160D01*
X76618197Y-43534798D01*
X76623254Y-43539211D01*
X76671548Y-43574037D01*
X76723257Y-43596620D01*
X76783989Y-43608540D01*
X76859352Y-43611383D01*
X76877459Y-43610978D01*
X76931278Y-43608325D01*
X76971308Y-43602909D01*
X77006324Y-43592745D01*
X77045103Y-43575850D01*
X77055745Y-43570672D01*
X77116396Y-43534844D01*
X77163215Y-43492212D01*
X77175952Y-43476973D01*
X77220622Y-43420462D01*
X77220622Y-43224586D01*
X77220086Y-43145939D01*
X77218396Y-43087988D01*
X77215428Y-43048875D01*
X77211057Y-43026741D01*
X77206972Y-43020274D01*
X77191047Y-43017111D01*
X77157264Y-43014488D01*
X77110340Y-43012655D01*
X77054993Y-43011857D01*
X77046106Y-43011842D01*
X76925330Y-43017096D01*
X76822660Y-43033263D01*
X76736106Y-43060961D01*
X76663681Y-43100808D01*
X76608751Y-43147758D01*
X76564204Y-43205645D01*
X76539480Y-43268693D01*
X76532248Y-43340282D01*
X75772310Y-43340282D01*
X75774178Y-43249712D01*
X75782522Y-43170812D01*
G36*
X78343802Y-42534059D02*
G01*
X78379786Y-42355332D01*
X78429759Y-42193845D01*
X78493668Y-42049726D01*
X78571462Y-41923106D01*
X78663089Y-41814115D01*
X78768497Y-41722883D01*
X78813662Y-41691932D01*
X78914611Y-41635785D01*
X79017901Y-41596174D01*
X79127989Y-41572014D01*
X79249330Y-41562219D01*
X79341836Y-41563265D01*
X79471490Y-41574231D01*
X79584084Y-41596046D01*
X79682875Y-41629714D01*
X79771121Y-41676236D01*
X79819986Y-41710448D01*
X79849353Y-41732362D01*
X79871043Y-41747333D01*
X79879253Y-41751733D01*
X79880868Y-41740904D01*
X79882159Y-41710251D01*
X79883138Y-41662526D01*
X79883817Y-41600479D01*
X79884210Y-41526862D01*
X79884330Y-41444427D01*
X79884188Y-41355925D01*
X79883797Y-41264107D01*
X79883171Y-41171724D01*
X79882320Y-41081528D01*
X79881260Y-40996271D01*
X79880001Y-40918703D01*
X79878556Y-40851576D01*
X79876938Y-40797641D01*
X79875161Y-40759650D01*
X79874669Y-40752667D01*
X79867092Y-40682251D01*
X79855531Y-40627102D01*
X79837792Y-40579981D01*
X79811682Y-40533647D01*
X79805415Y-40524067D01*
X79780983Y-40487378D01*
X80686311Y-40487378D01*
X80686507Y-42172245D01*
X80686526Y-42406662D01*
X80686552Y-42619603D01*
X80686625Y-42812168D01*
X80686782Y-42985459D01*
X80687064Y-43140576D01*
X80687509Y-43278620D01*
X80688156Y-43400692D01*
X80689045Y-43507894D01*
X80690213Y-43601326D01*
X80691701Y-43682090D01*
X80693546Y-43751286D01*
X80695789Y-43810015D01*
X80698469Y-43859379D01*
X80701623Y-43900478D01*
X80705292Y-43934413D01*
X80709513Y-43962286D01*
X80714327Y-43985198D01*
X80719773Y-44004249D01*
X80725888Y-44020540D01*
X80732712Y-44035173D01*
X80740285Y-44049249D01*
X80748645Y-44063868D01*
X80753839Y-44072974D01*
X80788104Y-44133689D01*
X79929955Y-44133689D01*
X79929955Y-44037733D01*
X79929224Y-43994370D01*
X79927272Y-43961205D01*
X79924463Y-43943424D01*
X79923221Y-43941778D01*
X79911799Y-43948662D01*
X79889084Y-43966505D01*
X79866385Y-43985879D01*
X79811800Y-44026614D01*
X79742321Y-44067617D01*
X79665270Y-44105123D01*
X79587965Y-44135364D01*
X79557113Y-44145012D01*
X79488616Y-44159578D01*
X79405764Y-44169539D01*
X79316371Y-44174583D01*
X79228248Y-44174396D01*
X79149207Y-44168666D01*
X79111511Y-44162858D01*
X78973414Y-44124797D01*
X78846113Y-44067073D01*
X78730292Y-43990211D01*
X78626637Y-43894739D01*
X78535833Y-43781179D01*
X78469031Y-43670381D01*
X78414164Y-43553625D01*
X78372163Y-43434276D01*
X78342167Y-43308283D01*
X78323311Y-43171594D01*
X78314732Y-43020158D01*
X78314006Y-42942711D01*
X78316100Y-42885934D01*
X79145217Y-42885934D01*
X79145424Y-42979002D01*
X79148337Y-43066692D01*
X79154000Y-43143772D01*
X79162455Y-43205009D01*
X79165038Y-43217350D01*
X79196840Y-43324633D01*
X79238498Y-43411658D01*
X79290363Y-43478642D01*
X79352781Y-43525805D01*
X79426100Y-43553365D01*
X79510669Y-43561541D01*
X79606835Y-43550551D01*
X79670311Y-43534829D01*
X79719454Y-43516639D01*
X79773583Y-43490791D01*
X79814244Y-43467089D01*
X79884800Y-43420721D01*
X79884800Y-42270530D01*
X79817392Y-42226962D01*
X79738867Y-42186040D01*
X79654681Y-42159389D01*
X79569557Y-42147465D01*
X79488216Y-42150722D01*
X79415380Y-42169615D01*
X79383426Y-42185184D01*
X79325501Y-42228181D01*
X79276544Y-42284953D01*
X79235390Y-42357575D01*
X79200874Y-42448121D01*
X79171833Y-42558666D01*
X79170552Y-42564533D01*
X79160381Y-42626788D01*
X79152739Y-42704594D01*
X79147670Y-42792720D01*
X79145217Y-42885934D01*
X78316100Y-42885934D01*
X78321857Y-42729895D01*
X78343802Y-42534059D01*
G37*
X78343802Y-42534059D02*
X78379786Y-42355332D01*
X78429759Y-42193845D01*
X78493668Y-42049726D01*
X78571462Y-41923106D01*
X78663089Y-41814115D01*
X78768497Y-41722883D01*
X78813662Y-41691932D01*
X78914611Y-41635785D01*
X79017901Y-41596174D01*
X79127989Y-41572014D01*
X79249330Y-41562219D01*
X79341836Y-41563265D01*
X79471490Y-41574231D01*
X79584084Y-41596046D01*
X79682875Y-41629714D01*
X79771121Y-41676236D01*
X79819986Y-41710448D01*
X79849353Y-41732362D01*
X79871043Y-41747333D01*
X79879253Y-41751733D01*
X79880868Y-41740904D01*
X79882159Y-41710251D01*
X79883138Y-41662526D01*
X79883817Y-41600479D01*
X79884210Y-41526862D01*
X79884330Y-41444427D01*
X79884188Y-41355925D01*
X79883797Y-41264107D01*
X79883171Y-41171724D01*
X79882320Y-41081528D01*
X79881260Y-40996271D01*
X79880001Y-40918703D01*
X79878556Y-40851576D01*
X79876938Y-40797641D01*
X79875161Y-40759650D01*
X79874669Y-40752667D01*
X79867092Y-40682251D01*
X79855531Y-40627102D01*
X79837792Y-40579981D01*
X79811682Y-40533647D01*
X79805415Y-40524067D01*
X79780983Y-40487378D01*
X80686311Y-40487378D01*
X80686507Y-42172245D01*
X80686526Y-42406662D01*
X80686552Y-42619603D01*
X80686625Y-42812168D01*
X80686782Y-42985459D01*
X80687064Y-43140576D01*
X80687509Y-43278620D01*
X80688156Y-43400692D01*
X80689045Y-43507894D01*
X80690213Y-43601326D01*
X80691701Y-43682090D01*
X80693546Y-43751286D01*
X80695789Y-43810015D01*
X80698469Y-43859379D01*
X80701623Y-43900478D01*
X80705292Y-43934413D01*
X80709513Y-43962286D01*
X80714327Y-43985198D01*
X80719773Y-44004249D01*
X80725888Y-44020540D01*
X80732712Y-44035173D01*
X80740285Y-44049249D01*
X80748645Y-44063868D01*
X80753839Y-44072974D01*
X80788104Y-44133689D01*
X79929955Y-44133689D01*
X79929955Y-44037733D01*
X79929224Y-43994370D01*
X79927272Y-43961205D01*
X79924463Y-43943424D01*
X79923221Y-43941778D01*
X79911799Y-43948662D01*
X79889084Y-43966505D01*
X79866385Y-43985879D01*
X79811800Y-44026614D01*
X79742321Y-44067617D01*
X79665270Y-44105123D01*
X79587965Y-44135364D01*
X79557113Y-44145012D01*
X79488616Y-44159578D01*
X79405764Y-44169539D01*
X79316371Y-44174583D01*
X79228248Y-44174396D01*
X79149207Y-44168666D01*
X79111511Y-44162858D01*
X78973414Y-44124797D01*
X78846113Y-44067073D01*
X78730292Y-43990211D01*
X78626637Y-43894739D01*
X78535833Y-43781179D01*
X78469031Y-43670381D01*
X78414164Y-43553625D01*
X78372163Y-43434276D01*
X78342167Y-43308283D01*
X78323311Y-43171594D01*
X78314732Y-43020158D01*
X78314006Y-42942711D01*
X78316100Y-42885934D01*
X79145217Y-42885934D01*
X79145424Y-42979002D01*
X79148337Y-43066692D01*
X79154000Y-43143772D01*
X79162455Y-43205009D01*
X79165038Y-43217350D01*
X79196840Y-43324633D01*
X79238498Y-43411658D01*
X79290363Y-43478642D01*
X79352781Y-43525805D01*
X79426100Y-43553365D01*
X79510669Y-43561541D01*
X79606835Y-43550551D01*
X79670311Y-43534829D01*
X79719454Y-43516639D01*
X79773583Y-43490791D01*
X79814244Y-43467089D01*
X79884800Y-43420721D01*
X79884800Y-42270530D01*
X79817392Y-42226962D01*
X79738867Y-42186040D01*
X79654681Y-42159389D01*
X79569557Y-42147465D01*
X79488216Y-42150722D01*
X79415380Y-42169615D01*
X79383426Y-42185184D01*
X79325501Y-42228181D01*
X79276544Y-42284953D01*
X79235390Y-42357575D01*
X79200874Y-42448121D01*
X79171833Y-42558666D01*
X79170552Y-42564533D01*
X79160381Y-42626788D01*
X79152739Y-42704594D01*
X79147670Y-42792720D01*
X79145217Y-42885934D01*
X78316100Y-42885934D01*
X78321857Y-42729895D01*
X78343802Y-42534059D01*
G36*
X74828429Y-40649071D02*
G01*
X74988570Y-40670245D01*
X75152510Y-40710385D01*
X75322313Y-40769889D01*
X75500043Y-40849154D01*
X75511310Y-40854699D01*
X75569005Y-40882725D01*
X75620552Y-40906802D01*
X75662191Y-40925249D01*
X75690162Y-40936386D01*
X75699733Y-40938933D01*
X75718950Y-40943941D01*
X75723561Y-40948147D01*
X75718458Y-40958580D01*
X75702418Y-40984868D01*
X75677288Y-41024257D01*
X75644914Y-41073991D01*
X75607143Y-41131315D01*
X75565822Y-41193476D01*
X75522798Y-41257718D01*
X75479917Y-41321285D01*
X75439026Y-41381425D01*
X75401971Y-41435380D01*
X75370600Y-41480397D01*
X75346759Y-41513721D01*
X75332294Y-41532597D01*
X75330309Y-41534787D01*
X75320191Y-41530138D01*
X75297850Y-41512962D01*
X75267280Y-41486440D01*
X75251536Y-41471964D01*
X75155047Y-41396682D01*
X75048336Y-41341241D01*
X74932832Y-41306141D01*
X74809962Y-41291880D01*
X74740561Y-41293051D01*
X74619423Y-41310212D01*
X74510205Y-41346094D01*
X74412582Y-41400959D01*
X74326228Y-41475070D01*
X74250815Y-41568688D01*
X74186018Y-41682076D01*
X74148601Y-41768667D01*
X74104748Y-41904366D01*
X74072428Y-42051850D01*
X74051557Y-42207314D01*
X74042051Y-42366956D01*
X74043827Y-42526973D01*
X74056803Y-42683561D01*
X74080894Y-42832918D01*
X74116018Y-42971240D01*
X74162092Y-43094724D01*
X74178373Y-43128978D01*
X74246620Y-43243064D01*
X74327079Y-43339557D01*
X74418570Y-43417670D01*
X74519911Y-43476617D01*
X74629920Y-43515612D01*
X74747415Y-43533868D01*
X74788883Y-43535211D01*
X74910441Y-43524290D01*
X75030878Y-43491474D01*
X75148666Y-43437439D01*
X75262277Y-43362865D01*
X75353685Y-43284539D01*
X75400215Y-43240008D01*
X75581483Y-43537271D01*
X75626580Y-43611433D01*
X75667819Y-43679646D01*
X75703735Y-43739459D01*
X75732866Y-43788420D01*
X75753750Y-43824079D01*
X75764924Y-43843984D01*
X75766375Y-43847079D01*
X75758146Y-43856718D01*
X75732567Y-43873999D01*
X75692873Y-43897283D01*
X75642297Y-43924934D01*
X75584074Y-43955315D01*
X75521437Y-43986790D01*
X75457621Y-44017722D01*
X75395860Y-44046473D01*
X75339388Y-44071408D01*
X75291438Y-44090889D01*
X75267986Y-44099318D01*
X75134221Y-44137133D01*
X74996327Y-44162136D01*
X74848622Y-44175140D01*
X74721833Y-44177468D01*
X74653878Y-44176373D01*
X74588277Y-44174275D01*
X74530847Y-44171434D01*
X74487403Y-44168106D01*
X74473298Y-44166422D01*
X74334284Y-44137587D01*
X74192757Y-44092468D01*
X74055275Y-44033750D01*
X73928394Y-43964120D01*
X73850889Y-43911441D01*
X73723481Y-43803239D01*
X73605178Y-43676671D01*
X73498172Y-43534866D01*
X73404652Y-43380951D01*
X73326810Y-43218053D01*
X73282956Y-43100756D01*
X73232708Y-42917128D01*
X73199209Y-42722581D01*
X73182449Y-42521325D01*
X73182416Y-42317568D01*
X73199101Y-42115521D01*
X73232493Y-41919392D01*
X73282580Y-41733391D01*
X73286397Y-41721803D01*
X73349281Y-41559750D01*
X73426028Y-41411832D01*
X73519242Y-41273865D01*
X73631527Y-41141661D01*
X73675392Y-41096399D01*
X73811534Y-40972457D01*
X73951491Y-40869915D01*
X74097411Y-40787656D01*
X74251442Y-40724564D01*
X74415732Y-40679523D01*
X74511289Y-40662033D01*
X74670023Y-40646466D01*
X74828429Y-40649071D01*
G37*
X74828429Y-40649071D02*
X74988570Y-40670245D01*
X75152510Y-40710385D01*
X75322313Y-40769889D01*
X75500043Y-40849154D01*
X75511310Y-40854699D01*
X75569005Y-40882725D01*
X75620552Y-40906802D01*
X75662191Y-40925249D01*
X75690162Y-40936386D01*
X75699733Y-40938933D01*
X75718950Y-40943941D01*
X75723561Y-40948147D01*
X75718458Y-40958580D01*
X75702418Y-40984868D01*
X75677288Y-41024257D01*
X75644914Y-41073991D01*
X75607143Y-41131315D01*
X75565822Y-41193476D01*
X75522798Y-41257718D01*
X75479917Y-41321285D01*
X75439026Y-41381425D01*
X75401971Y-41435380D01*
X75370600Y-41480397D01*
X75346759Y-41513721D01*
X75332294Y-41532597D01*
X75330309Y-41534787D01*
X75320191Y-41530138D01*
X75297850Y-41512962D01*
X75267280Y-41486440D01*
X75251536Y-41471964D01*
X75155047Y-41396682D01*
X75048336Y-41341241D01*
X74932832Y-41306141D01*
X74809962Y-41291880D01*
X74740561Y-41293051D01*
X74619423Y-41310212D01*
X74510205Y-41346094D01*
X74412582Y-41400959D01*
X74326228Y-41475070D01*
X74250815Y-41568688D01*
X74186018Y-41682076D01*
X74148601Y-41768667D01*
X74104748Y-41904366D01*
X74072428Y-42051850D01*
X74051557Y-42207314D01*
X74042051Y-42366956D01*
X74043827Y-42526973D01*
X74056803Y-42683561D01*
X74080894Y-42832918D01*
X74116018Y-42971240D01*
X74162092Y-43094724D01*
X74178373Y-43128978D01*
X74246620Y-43243064D01*
X74327079Y-43339557D01*
X74418570Y-43417670D01*
X74519911Y-43476617D01*
X74629920Y-43515612D01*
X74747415Y-43533868D01*
X74788883Y-43535211D01*
X74910441Y-43524290D01*
X75030878Y-43491474D01*
X75148666Y-43437439D01*
X75262277Y-43362865D01*
X75353685Y-43284539D01*
X75400215Y-43240008D01*
X75581483Y-43537271D01*
X75626580Y-43611433D01*
X75667819Y-43679646D01*
X75703735Y-43739459D01*
X75732866Y-43788420D01*
X75753750Y-43824079D01*
X75764924Y-43843984D01*
X75766375Y-43847079D01*
X75758146Y-43856718D01*
X75732567Y-43873999D01*
X75692873Y-43897283D01*
X75642297Y-43924934D01*
X75584074Y-43955315D01*
X75521437Y-43986790D01*
X75457621Y-44017722D01*
X75395860Y-44046473D01*
X75339388Y-44071408D01*
X75291438Y-44090889D01*
X75267986Y-44099318D01*
X75134221Y-44137133D01*
X74996327Y-44162136D01*
X74848622Y-44175140D01*
X74721833Y-44177468D01*
X74653878Y-44176373D01*
X74588277Y-44174275D01*
X74530847Y-44171434D01*
X74487403Y-44168106D01*
X74473298Y-44166422D01*
X74334284Y-44137587D01*
X74192757Y-44092468D01*
X74055275Y-44033750D01*
X73928394Y-43964120D01*
X73850889Y-43911441D01*
X73723481Y-43803239D01*
X73605178Y-43676671D01*
X73498172Y-43534866D01*
X73404652Y-43380951D01*
X73326810Y-43218053D01*
X73282956Y-43100756D01*
X73232708Y-42917128D01*
X73199209Y-42722581D01*
X73182449Y-42521325D01*
X73182416Y-42317568D01*
X73199101Y-42115521D01*
X73232493Y-41919392D01*
X73282580Y-41733391D01*
X73286397Y-41721803D01*
X73349281Y-41559750D01*
X73426028Y-41411832D01*
X73519242Y-41273865D01*
X73631527Y-41141661D01*
X73675392Y-41096399D01*
X73811534Y-40972457D01*
X73951491Y-40869915D01*
X74097411Y-40787656D01*
X74251442Y-40724564D01*
X74415732Y-40679523D01*
X74511289Y-40662033D01*
X74670023Y-40646466D01*
X74828429Y-40649071D01*
D12*
X87435000Y-44361252D02*
X87435000Y-43838748D01*
X85965000Y-44361252D02*
X85965000Y-43838748D01*
X80332742Y-52202500D02*
X80807258Y-52202500D01*
X80332742Y-51157500D02*
X80807258Y-51157500D01*
X71220000Y-60250000D02*
X76620000Y-60250000D01*
X71220000Y-60250000D02*
X71220000Y-63550000D01*
X71220000Y-63550000D02*
X76620000Y-63550000D01*
X72708748Y-63890000D02*
X74131252Y-63890000D01*
X72708748Y-65710000D02*
X74131252Y-65710000D01*
D10*
X70840000Y-57900000D02*
X71010000Y-57900000D01*
X71010000Y-64260000D02*
X70840000Y-64260000D01*
X71010000Y-57900000D02*
X71010000Y-64260000D01*
X64820000Y-57900000D02*
X64650000Y-57900000D01*
X64650000Y-64260000D02*
X64820000Y-64260000D01*
X64650000Y-57900000D02*
X64650000Y-64260000D01*
D12*
X71390000Y-53449420D02*
X71390000Y-53730580D01*
X70370000Y-53449420D02*
X70370000Y-53730580D01*
X45800000Y-64812500D02*
X45500000Y-65412500D01*
X41890000Y-77832500D02*
X59110000Y-77832500D01*
X49750000Y-76332500D02*
X49500000Y-77832500D01*
X45200000Y-64812500D02*
X45800000Y-64812500D01*
X59110000Y-65612500D02*
X41890000Y-65612500D01*
X46250000Y-76332500D02*
X44750000Y-76332500D01*
X44750000Y-76332500D02*
X44500000Y-77832500D01*
X41890000Y-76332500D02*
X41890000Y-74532500D01*
X56250000Y-76332500D02*
X54750000Y-76332500D01*
X51250000Y-76332500D02*
X49750000Y-76332500D01*
X56500000Y-77832500D02*
X56250000Y-76332500D01*
X54500000Y-77832500D02*
X56500000Y-77832500D01*
X45500000Y-65412500D02*
X45200000Y-64812500D01*
X41890000Y-65612500D02*
X41890000Y-77832500D01*
X51500000Y-77832500D02*
X51250000Y-76332500D01*
X59110000Y-76332500D02*
X41890000Y-76332500D01*
X59110000Y-77832500D02*
X59110000Y-65612500D01*
X44500000Y-77832500D02*
X46500000Y-77832500D01*
X49500000Y-77832500D02*
X51500000Y-77832500D01*
X54750000Y-76332500D02*
X54500000Y-77832500D01*
X41890000Y-74532500D02*
X59110000Y-74532500D01*
X59110000Y-74532500D02*
X59110000Y-76332500D01*
X46500000Y-77832500D02*
X46250000Y-76332500D01*
%LPC*%
D16*
X46500000Y-42675000D03*
X46500000Y-41125000D03*
D17*
X84380000Y-52637500D03*
X85330000Y-52637500D03*
X86280000Y-52637500D03*
X86280000Y-50362500D03*
X84380000Y-50362500D03*
D18*
X81430000Y-35400000D03*
X86830000Y-35400000D03*
D19*
X48000000Y-45725000D03*
X48000000Y-44075000D03*
D20*
X47420000Y-56300000D03*
X48380000Y-56300000D03*
D21*
X80270000Y-54785000D03*
X80270000Y-57735000D03*
D22*
X77845000Y-55785000D03*
X77845000Y-54515000D03*
X77845000Y-53245000D03*
X77845000Y-51975000D03*
X72895000Y-51975000D03*
X72895000Y-53245000D03*
X72895000Y-54515000D03*
X72895000Y-55785000D03*
D23*
X87760000Y-50105000D03*
X87760000Y-51755000D03*
D24*
X81345000Y-50180000D03*
X79795000Y-50180000D03*
D25*
X60500000Y-68062500D03*
X60500000Y-65937500D03*
D26*
X69305000Y-49820000D03*
X70955000Y-49820000D03*
D20*
X47420000Y-60100000D03*
X48380000Y-60100000D03*
D27*
X81395000Y-53180000D03*
X79745000Y-53180000D03*
D24*
X70905000Y-55850000D03*
X69355000Y-55850000D03*
D28*
X52800000Y-38100000D03*
X52800000Y-36525000D03*
D29*
X23500000Y-66500000D03*
X76700000Y-32200000D03*
D30*
X72620000Y-58380000D03*
X76620000Y-58380000D03*
D31*
X34830000Y-38475000D03*
X37370000Y-38475000D03*
X37370000Y-32325000D03*
X34830000Y-32325000D03*
D32*
X82850000Y-50145000D03*
X82850000Y-51695000D03*
D29*
X23500000Y-23500000D03*
D26*
X72325000Y-50400000D03*
X73975000Y-50400000D03*
D33*
X48400000Y-62900000D03*
D34*
X50940000Y-62900000D03*
X53480000Y-62900000D03*
X56020000Y-62900000D03*
D35*
X60490000Y-41880000D03*
X60490000Y-53310000D03*
D36*
X54140000Y-52040000D03*
X51600000Y-50770000D03*
X54140000Y-49500000D03*
X51600000Y-48230000D03*
X54140000Y-46970000D03*
X51600000Y-45690000D03*
X54140000Y-44420000D03*
X51600000Y-43150000D03*
X64600000Y-54010000D03*
X64600000Y-51470000D03*
X64600000Y-43730000D03*
X64600000Y-41190000D03*
D37*
X56640000Y-55510000D03*
X56640000Y-39690000D03*
D24*
X70905000Y-51330000D03*
X69355000Y-51330000D03*
D38*
X83500000Y-40370000D03*
X83500000Y-44230000D03*
D39*
X48675000Y-39200000D03*
X45725000Y-39200000D03*
D40*
X25110250Y-45662500D03*
X25110250Y-60662500D03*
D41*
X29110250Y-45662500D03*
X29110250Y-60662500D03*
D42*
X31210250Y-51662500D03*
X31210250Y-54662500D03*
X29110250Y-55887500D03*
X27010250Y-55237500D03*
X27010250Y-53162500D03*
X27010250Y-51087500D03*
X29110250Y-50437500D03*
X29110250Y-53162500D03*
X23290250Y-53162500D03*
D33*
X86685000Y-47600000D03*
D34*
X84145000Y-47600000D03*
D43*
X83255000Y-54730000D03*
X86205000Y-54730000D03*
D44*
X45462500Y-64250000D03*
X43337500Y-64250000D03*
D45*
X45750000Y-33800000D03*
X50050000Y-33800000D03*
D16*
X47990000Y-42675000D03*
X47990000Y-41125000D03*
D46*
X86700000Y-39750000D03*
X86700000Y-41650000D03*
D20*
X47420000Y-53700000D03*
X48380000Y-53700000D03*
D23*
X69380000Y-52765000D03*
X69380000Y-54415000D03*
D20*
X47420000Y-49900000D03*
X48380000Y-49900000D03*
D47*
X36390000Y-50560000D03*
X36390000Y-51820000D03*
X36390000Y-53090000D03*
X36390000Y-54370000D03*
X36390000Y-55630000D03*
X36390000Y-56910000D03*
X36390000Y-58170000D03*
X36390000Y-59440000D03*
X45810000Y-59440000D03*
X45810000Y-58170000D03*
X45810000Y-56910000D03*
X45810000Y-55630000D03*
X45810000Y-54370000D03*
X45810000Y-53090000D03*
X45810000Y-51820000D03*
X45810000Y-50560000D03*
D19*
X46500000Y-45725000D03*
X46500000Y-44075000D03*
D23*
X87760000Y-53065000D03*
X87760000Y-54715000D03*
D31*
X40230000Y-38475000D03*
X42770000Y-38475000D03*
X42770000Y-32325000D03*
X40230000Y-32325000D03*
D33*
X37350000Y-29545000D03*
D34*
X39980000Y-29535000D03*
X42520000Y-29535000D03*
X45060000Y-29535000D03*
X80620000Y-29535000D03*
X83160000Y-29535000D03*
X85700000Y-29535000D03*
X88240000Y-29535000D03*
D48*
X86700000Y-45050000D03*
X86700000Y-43150000D03*
D26*
X79745000Y-51680000D03*
X81395000Y-51680000D03*
D30*
X72620000Y-61900000D03*
X76620000Y-61900000D03*
D43*
X71945000Y-64800000D03*
X74895000Y-64800000D03*
D29*
X86500000Y-66500000D03*
D49*
X67830000Y-58580000D03*
X67830000Y-63580000D03*
D32*
X70880000Y-52815000D03*
X70880000Y-54365000D03*
D50*
X45500000Y-67722500D03*
D51*
X50500000Y-67722500D03*
X55500000Y-67722500D03*
M02*
