%TF.GenerationSoftware,KiCad,Pcbnew,(6.0.8-1)-1*%
%TF.CreationDate,2022-11-24T03:29:18+08:00*%
%TF.ProjectId,CCTV3_POE_REV100,43435456-335f-4504-9f45-5f5245563130,100*%
%TF.SameCoordinates,Original*%
%TF.FileFunction,Soldermask,Top*%
%TF.FilePolarity,Negative*%
%FSLAX46Y46*%
G04 Gerber Fmt 4.6, Leading zero omitted, Abs format (unit mm)*
G04 Created by KiCad (PCBNEW (6.0.8-1)-1) date 2022-11-24 03:29:18*
%MOMM*%
%LPD*%
G01*
G04 APERTURE LIST*
G04 Aperture macros list*
%AMRoundRect*
0 Rectangle with rounded corners*
0 $1 Rounding radius*
0 $2 $3 $4 $5 $6 $7 $8 $9 X,Y pos of 4 corners*
0 Add a 4 corners polygon primitive as box body*
4,1,4,$2,$3,$4,$5,$6,$7,$8,$9,$2,$3,0*
0 Add four circle primitives for the rounded corners*
1,1,$1+$1,$2,$3*
1,1,$1+$1,$4,$5*
1,1,$1+$1,$6,$7*
1,1,$1+$1,$8,$9*
0 Add four rect primitives between the rounded corners*
20,1,$1+$1,$2,$3,$4,$5,0*
20,1,$1+$1,$4,$5,$6,$7,0*
20,1,$1+$1,$6,$7,$8,$9,0*
20,1,$1+$1,$8,$9,$2,$3,0*%
G04 Aperture macros list end*
%ADD10RoundRect,0.225000X0.250000X-0.225000X0.250000X0.225000X-0.250000X0.225000X-0.250000X-0.225000X0*%
%ADD11RoundRect,0.150000X0.150000X-0.512500X0.150000X0.512500X-0.150000X0.512500X-0.150000X-0.512500X0*%
%ADD12RoundRect,0.250000X-1.500000X-0.550000X1.500000X-0.550000X1.500000X0.550000X-1.500000X0.550000X0*%
%ADD13RoundRect,0.200000X0.275000X-0.200000X0.275000X0.200000X-0.275000X0.200000X-0.275000X-0.200000X0*%
%ADD14RoundRect,0.140000X-0.140000X-0.170000X0.140000X-0.170000X0.140000X0.170000X-0.140000X0.170000X0*%
%ADD15RoundRect,0.250000X-0.650000X0.325000X-0.650000X-0.325000X0.650000X-0.325000X0.650000X0.325000X0*%
%ADD16RoundRect,0.150000X0.825000X0.150000X-0.825000X0.150000X-0.825000X-0.150000X0.825000X-0.150000X0*%
%ADD17RoundRect,0.200000X-0.275000X0.200000X-0.275000X-0.200000X0.275000X-0.200000X0.275000X0.200000X0*%
%ADD18RoundRect,0.225000X0.225000X0.250000X-0.225000X0.250000X-0.225000X-0.250000X0.225000X-0.250000X0*%
%ADD19RoundRect,0.218750X0.381250X-0.218750X0.381250X0.218750X-0.381250X0.218750X-0.381250X-0.218750X0*%
%ADD20RoundRect,0.200000X-0.200000X-0.275000X0.200000X-0.275000X0.200000X0.275000X-0.200000X0.275000X0*%
%ADD21RoundRect,0.200000X0.200000X0.275000X-0.200000X0.275000X-0.200000X-0.275000X0.200000X-0.275000X0*%
%ADD22RoundRect,0.218750X0.256250X-0.218750X0.256250X0.218750X-0.256250X0.218750X-0.256250X-0.218750X0*%
%ADD23C,4.400000*%
%ADD24R,2.500000X1.800000*%
%ADD25R,0.800000X1.000000*%
%ADD26RoundRect,0.225000X-0.250000X0.225000X-0.250000X-0.225000X0.250000X-0.225000X0.250000X0.225000X0*%
%ADD27R,1.700000X1.700000*%
%ADD28O,1.700000X1.700000*%
%ADD29C,3.300000*%
%ADD30C,1.520000*%
%ADD31C,2.500000*%
%ADD32R,3.520000X1.870000*%
%ADD33RoundRect,0.250000X0.325000X0.650000X-0.325000X0.650000X-0.325000X-0.650000X0.325000X-0.650000X0*%
%ADD34C,2.600000*%
%ADD35C,2.150000*%
%ADD36C,1.600000*%
%ADD37RoundRect,0.250000X-0.325000X-0.650000X0.325000X-0.650000X0.325000X0.650000X-0.325000X0.650000X0*%
%ADD38RoundRect,0.218750X0.218750X0.381250X-0.218750X0.381250X-0.218750X-0.381250X0.218750X-0.381250X0*%
%ADD39R,2.500000X2.300000*%
%ADD40RoundRect,0.250000X-0.475000X0.250000X-0.475000X-0.250000X0.475000X-0.250000X0.475000X0.250000X0*%
%ADD41R,1.800000X0.640000*%
%ADD42RoundRect,0.250000X0.475000X-0.250000X0.475000X0.250000X-0.475000X0.250000X-0.475000X-0.250000X0*%
%ADD43R,5.720000X2.200000*%
%ADD44RoundRect,0.250000X-0.750000X-1.550000X0.750000X-1.550000X0.750000X1.550000X-0.750000X1.550000X0*%
%ADD45O,2.000000X3.600000*%
G04 APERTURE END LIST*
D10*
X46500000Y-42675000D03*
X46500000Y-41125000D03*
D11*
X84380000Y-52637500D03*
X85330000Y-52637500D03*
X86280000Y-52637500D03*
X86280000Y-50362500D03*
X84380000Y-50362500D03*
D12*
X81430000Y-35400000D03*
X86830000Y-35400000D03*
D13*
X48000000Y-45725000D03*
X48000000Y-44075000D03*
D14*
X47420000Y-56300000D03*
X48380000Y-56300000D03*
D15*
X80270000Y-54785000D03*
X80270000Y-57735000D03*
D16*
X77845000Y-55785000D03*
X77845000Y-54515000D03*
X77845000Y-53245000D03*
X77845000Y-51975000D03*
X72895000Y-51975000D03*
X72895000Y-53245000D03*
X72895000Y-54515000D03*
X72895000Y-55785000D03*
D17*
X87760000Y-50105000D03*
X87760000Y-51755000D03*
D18*
X81345000Y-50180000D03*
X79795000Y-50180000D03*
D19*
X60500000Y-68062500D03*
X60500000Y-65937500D03*
D20*
X69305000Y-49820000D03*
X70955000Y-49820000D03*
D14*
X47420000Y-60100000D03*
X48380000Y-60100000D03*
D21*
X81395000Y-53180000D03*
X79745000Y-53180000D03*
D18*
X70905000Y-55850000D03*
X69355000Y-55850000D03*
D22*
X52800000Y-38100000D03*
X52800000Y-36525000D03*
D23*
X23500000Y-66500000D03*
X76700000Y-32200000D03*
D24*
X72620000Y-58380000D03*
X76620000Y-58380000D03*
D25*
X34830000Y-38475000D03*
X37370000Y-38475000D03*
X37370000Y-32325000D03*
X34830000Y-32325000D03*
D26*
X82850000Y-50145000D03*
X82850000Y-51695000D03*
D23*
X23500000Y-23500000D03*
D20*
X72325000Y-50400000D03*
X73975000Y-50400000D03*
D27*
X48400000Y-62900000D03*
D28*
X50940000Y-62900000D03*
X53480000Y-62900000D03*
X56020000Y-62900000D03*
D29*
X60490000Y-41880000D03*
X60490000Y-53310000D03*
D30*
X54140000Y-52040000D03*
X51600000Y-50770000D03*
X54140000Y-49500000D03*
X51600000Y-48230000D03*
X54140000Y-46970000D03*
X51600000Y-45690000D03*
X54140000Y-44420000D03*
X51600000Y-43150000D03*
X64600000Y-54010000D03*
X64600000Y-51470000D03*
X64600000Y-43730000D03*
X64600000Y-41190000D03*
D31*
X56640000Y-55510000D03*
X56640000Y-39690000D03*
D18*
X70905000Y-51330000D03*
X69355000Y-51330000D03*
D32*
X83500000Y-40370000D03*
X83500000Y-44230000D03*
D33*
X48675000Y-39200000D03*
X45725000Y-39200000D03*
D34*
X25110250Y-45662500D03*
X25110250Y-60662500D03*
D35*
X29110250Y-45662500D03*
X29110250Y-60662500D03*
D36*
X31210250Y-51662500D03*
X31210250Y-54662500D03*
X29110250Y-55887500D03*
X27010250Y-55237500D03*
X27010250Y-53162500D03*
X27010250Y-51087500D03*
X29110250Y-50437500D03*
X29110250Y-53162500D03*
X23290250Y-53162500D03*
D27*
X86685000Y-47600000D03*
D28*
X84145000Y-47600000D03*
D37*
X83255000Y-54730000D03*
X86205000Y-54730000D03*
D38*
X45462500Y-64250000D03*
X43337500Y-64250000D03*
D39*
X45750000Y-33800000D03*
X50050000Y-33800000D03*
D10*
X47990000Y-42675000D03*
X47990000Y-41125000D03*
D40*
X86700000Y-39750000D03*
X86700000Y-41650000D03*
D14*
X47420000Y-53700000D03*
X48380000Y-53700000D03*
D17*
X69380000Y-52765000D03*
X69380000Y-54415000D03*
D14*
X47420000Y-49900000D03*
X48380000Y-49900000D03*
D41*
X36390000Y-50560000D03*
X36390000Y-51820000D03*
X36390000Y-53090000D03*
X36390000Y-54370000D03*
X36390000Y-55630000D03*
X36390000Y-56910000D03*
X36390000Y-58170000D03*
X36390000Y-59440000D03*
X45810000Y-59440000D03*
X45810000Y-58170000D03*
X45810000Y-56910000D03*
X45810000Y-55630000D03*
X45810000Y-54370000D03*
X45810000Y-53090000D03*
X45810000Y-51820000D03*
X45810000Y-50560000D03*
D13*
X46500000Y-45725000D03*
X46500000Y-44075000D03*
D17*
X87760000Y-53065000D03*
X87760000Y-54715000D03*
D25*
X40230000Y-38475000D03*
X42770000Y-38475000D03*
X42770000Y-32325000D03*
X40230000Y-32325000D03*
D27*
X37350000Y-29545000D03*
D28*
X39980000Y-29535000D03*
X42520000Y-29535000D03*
X45060000Y-29535000D03*
X80620000Y-29535000D03*
X83160000Y-29535000D03*
X85700000Y-29535000D03*
X88240000Y-29535000D03*
D42*
X86700000Y-45050000D03*
X86700000Y-43150000D03*
D20*
X79745000Y-51680000D03*
X81395000Y-51680000D03*
D24*
X72620000Y-61900000D03*
X76620000Y-61900000D03*
D37*
X71945000Y-64800000D03*
X74895000Y-64800000D03*
D23*
X86500000Y-66500000D03*
D43*
X67830000Y-58580000D03*
X67830000Y-63580000D03*
D26*
X70880000Y-52815000D03*
X70880000Y-54365000D03*
D44*
X45500000Y-67722500D03*
D45*
X50500000Y-67722500D03*
X55500000Y-67722500D03*
M02*
