%TF.GenerationSoftware,KiCad,Pcbnew,(6.0.8-1)-1*%
%TF.CreationDate,2022-11-24T03:44:55+08:00*%
%TF.ProjectId,CCTV3_F407_REV200,43435456-335f-4463-9430-375f52455632,rev?*%
%TF.SameCoordinates,Original*%
%TF.FileFunction,Copper,L4,Bot*%
%TF.FilePolarity,Positive*%
%FSLAX46Y46*%
G04 Gerber Fmt 4.6, Leading zero omitted, Abs format (unit mm)*
G04 Created by KiCad (PCBNEW (6.0.8-1)-1) date 2022-11-24 03:44:55*
%MOMM*%
%LPD*%
G01*
G04 APERTURE LIST*
G04 Aperture macros list*
%AMRoundRect*
0 Rectangle with rounded corners*
0 $1 Rounding radius*
0 $2 $3 $4 $5 $6 $7 $8 $9 X,Y pos of 4 corners*
0 Add a 4 corners polygon primitive as box body*
4,1,4,$2,$3,$4,$5,$6,$7,$8,$9,$2,$3,0*
0 Add four circle primitives for the rounded corners*
1,1,$1+$1,$2,$3*
1,1,$1+$1,$4,$5*
1,1,$1+$1,$6,$7*
1,1,$1+$1,$8,$9*
0 Add four rect primitives between the rounded corners*
20,1,$1+$1,$2,$3,$4,$5,0*
20,1,$1+$1,$4,$5,$6,$7,0*
20,1,$1+$1,$6,$7,$8,$9,0*
20,1,$1+$1,$8,$9,$2,$3,0*%
G04 Aperture macros list end*
%TA.AperFunction,ComponentPad*%
%ADD10O,1.700000X1.700000*%
%TD*%
%TA.AperFunction,ComponentPad*%
%ADD11R,1.700000X1.700000*%
%TD*%
%TA.AperFunction,ComponentPad*%
%ADD12RoundRect,0.250000X-1.550000X0.750000X-1.550000X-0.750000X1.550000X-0.750000X1.550000X0.750000X0*%
%TD*%
%TA.AperFunction,ComponentPad*%
%ADD13O,3.600000X2.000000*%
%TD*%
%TA.AperFunction,ComponentPad*%
%ADD14R,3.500000X3.500000*%
%TD*%
%TA.AperFunction,ComponentPad*%
%ADD15RoundRect,0.750000X-0.750000X-1.000000X0.750000X-1.000000X0.750000X1.000000X-0.750000X1.000000X0*%
%TD*%
%TA.AperFunction,ComponentPad*%
%ADD16RoundRect,0.875000X-0.875000X-0.875000X0.875000X-0.875000X0.875000X0.875000X-0.875000X0.875000X0*%
%TD*%
%TA.AperFunction,ComponentPad*%
%ADD17C,1.000000*%
%TD*%
%TA.AperFunction,ComponentPad*%
%ADD18C,1.800000*%
%TD*%
%TA.AperFunction,ComponentPad*%
%ADD19O,1.000000X1.550000*%
%TD*%
%TA.AperFunction,ComponentPad*%
%ADD20O,1.250000X0.950000*%
%TD*%
%TA.AperFunction,ComponentPad*%
%ADD21C,3.200000*%
%TD*%
%TA.AperFunction,ComponentPad*%
%ADD22C,1.300000*%
%TD*%
%TA.AperFunction,ComponentPad*%
%ADD23C,1.600000*%
%TD*%
%TA.AperFunction,ComponentPad*%
%ADD24C,2.540000*%
%TD*%
%TA.AperFunction,ViaPad*%
%ADD25C,0.600000*%
%TD*%
%TA.AperFunction,ViaPad*%
%ADD26C,0.800000*%
%TD*%
%TA.AperFunction,ViaPad*%
%ADD27C,0.450000*%
%TD*%
%TA.AperFunction,Conductor*%
%ADD28C,1.000000*%
%TD*%
%TA.AperFunction,Conductor*%
%ADD29C,0.300000*%
%TD*%
%TA.AperFunction,Conductor*%
%ADD30C,0.250000*%
%TD*%
%TA.AperFunction,Conductor*%
%ADD31C,0.500000*%
%TD*%
%TA.AperFunction,Conductor*%
%ADD32C,0.176500*%
%TD*%
%TA.AperFunction,Conductor*%
%ADD33C,2.000000*%
%TD*%
G04 APERTURE END LIST*
D10*
X86650000Y-85540000D03*
X86650000Y-83000000D03*
X86650000Y-80460000D03*
D11*
X86650000Y-77920000D03*
X50260000Y-48900000D03*
D10*
X52800000Y-48900000D03*
X55340000Y-48900000D03*
X57880000Y-48900000D03*
X60420000Y-48900000D03*
D12*
X26777500Y-86000000D03*
D13*
X26777500Y-91000000D03*
X26777500Y-96000000D03*
D14*
X33900000Y-24800000D03*
D15*
X27900000Y-24800000D03*
D16*
X30900000Y-29500000D03*
D11*
X44075000Y-81100000D03*
D10*
X41535000Y-81100000D03*
D17*
X58800000Y-79400000D03*
X58800000Y-80650000D03*
D11*
X22305000Y-39175000D03*
D10*
X22305000Y-41715000D03*
D11*
X59300000Y-23000000D03*
D10*
X56760000Y-23000000D03*
X54220000Y-23000000D03*
X51680000Y-23000000D03*
D18*
X76200000Y-90300000D03*
X76200000Y-95300000D03*
D19*
X69537500Y-22750000D03*
X62537500Y-22750000D03*
D20*
X68537500Y-25450000D03*
X63537500Y-25450000D03*
D11*
X45200000Y-46050000D03*
D10*
X42660000Y-46050000D03*
D21*
X73990000Y-26810000D03*
X85420000Y-26810000D03*
D22*
X84140000Y-33160000D03*
X82880000Y-35700000D03*
X81600000Y-33160000D03*
X80340000Y-35700000D03*
X79070000Y-33160000D03*
X77800000Y-35700000D03*
X76530000Y-33160000D03*
X75260000Y-35700000D03*
D23*
X86030000Y-22700000D03*
X83490000Y-22700000D03*
X75920000Y-22700000D03*
X73380000Y-22700000D03*
D24*
X87650000Y-30710000D03*
X71750000Y-30710000D03*
D25*
X46400000Y-89000000D03*
D26*
X33500000Y-37000000D03*
D25*
X44400000Y-90000000D03*
X44400000Y-89000000D03*
D26*
X34500000Y-36000000D03*
X35500000Y-35000000D03*
X31500000Y-35000000D03*
D25*
X45400000Y-91000000D03*
X45400000Y-90000000D03*
X46400000Y-90000000D03*
D26*
X35500000Y-37000000D03*
X33500000Y-35000000D03*
X32500000Y-36000000D03*
D25*
X44400000Y-91000000D03*
D26*
X31500000Y-37000000D03*
D25*
X46400000Y-91000000D03*
X45400000Y-89000000D03*
D26*
X45000000Y-50500000D03*
X43000000Y-50500000D03*
X46000000Y-31000000D03*
X47000000Y-32000000D03*
X46000000Y-33000000D03*
X44000000Y-31000000D03*
X39000000Y-52500000D03*
X45000000Y-30000000D03*
X44000000Y-33000000D03*
X41000000Y-50500000D03*
X39000000Y-50500000D03*
X47000000Y-30000000D03*
X47000000Y-50500000D03*
X45000000Y-32000000D03*
X40000000Y-51500000D03*
D25*
X54600000Y-65500000D03*
X47500000Y-66500000D03*
D26*
X21500000Y-50000000D03*
D25*
X56200000Y-66500000D03*
D27*
X76400000Y-80200000D03*
X76400000Y-82800000D03*
D26*
X34700000Y-77100000D03*
D25*
X56200000Y-64544500D03*
D26*
X23500000Y-52000000D03*
D25*
X37600000Y-54710000D03*
D26*
X25500000Y-50000000D03*
D27*
X76400000Y-57900000D03*
D26*
X22500000Y-53000000D03*
X25500000Y-52000000D03*
D25*
X61100000Y-57800000D03*
D26*
X22500000Y-51000000D03*
D27*
X73300000Y-70400000D03*
D25*
X59800000Y-95100000D03*
D26*
X23500000Y-50000000D03*
D27*
X79200000Y-69800000D03*
X68000000Y-71000000D03*
D25*
X68800000Y-87100000D03*
D27*
X82500000Y-76600000D03*
D25*
X53500000Y-55900000D03*
X49600000Y-86500000D03*
X71800000Y-88300000D03*
D26*
X24500000Y-53000000D03*
D27*
X60500000Y-82400000D03*
D25*
X54300000Y-95100000D03*
D27*
X61893767Y-71293767D03*
D25*
X82300000Y-55700000D03*
D27*
X74900000Y-44300000D03*
D26*
X21500000Y-52000000D03*
X47300000Y-84100000D03*
X21500000Y-54000000D03*
X23500000Y-54000000D03*
D25*
X47400000Y-88500000D03*
D26*
X24500000Y-51000000D03*
D25*
X60600000Y-53200000D03*
D26*
X25494901Y-54000559D03*
D27*
X75800000Y-76200000D03*
X75200000Y-70400000D03*
X83800000Y-50200000D03*
X71500000Y-54300000D03*
D25*
X75200000Y-53700000D03*
D27*
X69500000Y-69000000D03*
X51200000Y-54700000D03*
X77400000Y-55400000D03*
X55600000Y-72600000D03*
X47500000Y-69700000D03*
X47500000Y-68814500D03*
X56500000Y-72600000D03*
X85800000Y-38400000D03*
D26*
X36000000Y-49500000D03*
D25*
X56200000Y-65500000D03*
D26*
X49000000Y-55500000D03*
X48000000Y-36000000D03*
X49900000Y-80000000D03*
D27*
X57500000Y-75200000D03*
X45800000Y-62300000D03*
X75900000Y-56200000D03*
X76800000Y-85600000D03*
X83500000Y-46500000D03*
X53700000Y-57700000D03*
X67000000Y-59600000D03*
D26*
X22500000Y-65000000D03*
X36000000Y-48000000D03*
D27*
X53300000Y-63900000D03*
X75385000Y-47405000D03*
X43800000Y-61700000D03*
D26*
X50150000Y-26500000D03*
D27*
X65900000Y-88300000D03*
D25*
X68100000Y-27900000D03*
D27*
X62700000Y-61100000D03*
D26*
X32000000Y-48000000D03*
D27*
X84600000Y-50200000D03*
D25*
X57700000Y-56900000D03*
X50900000Y-72800000D03*
D26*
X27500000Y-69000000D03*
X27500000Y-66000000D03*
D27*
X77400000Y-71500000D03*
D26*
X32000000Y-49500000D03*
D25*
X60000000Y-56500000D03*
D26*
X47000000Y-53500000D03*
X46500000Y-76500000D03*
D27*
X75000000Y-41000000D03*
D25*
X69900000Y-74420000D03*
X53900000Y-61150500D03*
D27*
X46500000Y-60665500D03*
X69200000Y-98610000D03*
X89000000Y-41500000D03*
D25*
X81300000Y-55700000D03*
D26*
X55900000Y-82000000D03*
X49900000Y-78000000D03*
D27*
X58100000Y-73800000D03*
X78300000Y-57400000D03*
D26*
X23500000Y-64000000D03*
X49900000Y-82000000D03*
X46500000Y-78500000D03*
D27*
X62700000Y-58400000D03*
X76800000Y-46800000D03*
X52300000Y-63900000D03*
X76900000Y-73600000D03*
X72785000Y-52805000D03*
X53800000Y-59000000D03*
X88000000Y-42500000D03*
D26*
X66600000Y-34100000D03*
D25*
X52000000Y-86500000D03*
D27*
X80950000Y-49450000D03*
D26*
X34000000Y-49500000D03*
D27*
X47600000Y-75000000D03*
D26*
X51900000Y-78000000D03*
D27*
X43800000Y-69400000D03*
X76900000Y-77500000D03*
X81600000Y-37500000D03*
D26*
X53900000Y-82000000D03*
D27*
X47400000Y-59000000D03*
X84400000Y-48800000D03*
X62200000Y-74219500D03*
X63200000Y-70674500D03*
D25*
X56700000Y-88900000D03*
D26*
X46500000Y-80500000D03*
X46500000Y-82500000D03*
D27*
X79200000Y-70800000D03*
D26*
X55900000Y-80000000D03*
X37900000Y-74700000D03*
D27*
X83900000Y-48300000D03*
X72200000Y-97000000D03*
X89000000Y-42500000D03*
D26*
X51150000Y-25500000D03*
X47500000Y-81500000D03*
D27*
X72000000Y-41200000D03*
D26*
X25500000Y-66000000D03*
D27*
X79650000Y-50750000D03*
X88000000Y-43500000D03*
X65900000Y-89900000D03*
X80950000Y-50750000D03*
X84900000Y-49500000D03*
D26*
X65200000Y-26900000D03*
D27*
X73900000Y-54849500D03*
D26*
X55900000Y-78000000D03*
D25*
X66100000Y-75820000D03*
D27*
X79650000Y-49450000D03*
D26*
X51900000Y-80000000D03*
D27*
X59700000Y-71700000D03*
X50300000Y-63900000D03*
D26*
X30000000Y-48000000D03*
D27*
X65100000Y-75020000D03*
X63800000Y-65200000D03*
X52400000Y-66600000D03*
D26*
X49000000Y-36000000D03*
D27*
X59690655Y-66003230D03*
X75200000Y-43300000D03*
D26*
X34000000Y-48000000D03*
D25*
X76100000Y-52900000D03*
D27*
X46456233Y-65000000D03*
X80200000Y-82900000D03*
D25*
X80300000Y-55700000D03*
D26*
X53900000Y-80000000D03*
D27*
X56450000Y-71737534D03*
X63200000Y-74219500D03*
X43800000Y-70500000D03*
X74000000Y-42400000D03*
X57400000Y-68500000D03*
X64200000Y-79400000D03*
X75890240Y-55400000D03*
X85900000Y-41000000D03*
D26*
X47000000Y-55500000D03*
X47500000Y-79500000D03*
X26500000Y-65000000D03*
X47500000Y-77500000D03*
D27*
X66100000Y-61000000D03*
X63800000Y-67700000D03*
X77400000Y-56200000D03*
X71100000Y-55600000D03*
X63800000Y-69500000D03*
X51300000Y-63900000D03*
D26*
X27800000Y-76500000D03*
X53900000Y-78000000D03*
D25*
X25400000Y-44900000D03*
X71200000Y-78120000D03*
D26*
X50150000Y-28500000D03*
D27*
X89000000Y-43500000D03*
D26*
X48000000Y-54500000D03*
D27*
X84893767Y-59706233D03*
D26*
X51900000Y-82000000D03*
X44500000Y-97600000D03*
X51150000Y-27500000D03*
X24500000Y-65000000D03*
X49000000Y-53500000D03*
D27*
X72400000Y-59700000D03*
X79200000Y-37500000D03*
X88000000Y-41500000D03*
D26*
X27500000Y-67500000D03*
X48000000Y-52500000D03*
D27*
X75100000Y-38400000D03*
X45600000Y-66500000D03*
X54300000Y-68000000D03*
D26*
X30000000Y-49500000D03*
D27*
X50000000Y-72800000D03*
X59800000Y-72500000D03*
X72300000Y-70400000D03*
D25*
X39800000Y-86400000D03*
D27*
X66350000Y-29240000D03*
D26*
X62250000Y-38300000D03*
X58700000Y-33300000D03*
X62250000Y-37300000D03*
X68200000Y-36800000D03*
X68200000Y-38800000D03*
X70200000Y-38800000D03*
X57700000Y-33300000D03*
X69200000Y-37800000D03*
X62250000Y-33300000D03*
X70200000Y-34800000D03*
X62250000Y-34300000D03*
X69200000Y-33800000D03*
X70200000Y-36800000D03*
X62250000Y-36300000D03*
X69200000Y-35800000D03*
X68200000Y-34800000D03*
X62250000Y-35300000D03*
D27*
X53100000Y-59400000D03*
X62700000Y-60300000D03*
X76723767Y-49899500D03*
X82300000Y-48000000D03*
X74900000Y-64700000D03*
X77800000Y-85600000D03*
X44300000Y-71000000D03*
X59500000Y-67600000D03*
X47600000Y-74200000D03*
X53300000Y-68000000D03*
X56744808Y-74999044D03*
X44300000Y-70000000D03*
X51500000Y-66600000D03*
X63800000Y-66900000D03*
X64200000Y-68900000D03*
X47200000Y-65400000D03*
X64300000Y-70100000D03*
X45600000Y-65000000D03*
X63800000Y-66000000D03*
X60000000Y-65300000D03*
X45300000Y-67200000D03*
X63855049Y-71136541D03*
X66100000Y-60200000D03*
X46600000Y-62300000D03*
X57500000Y-74424544D03*
X44400000Y-62200000D03*
X67000000Y-58800000D03*
X47400000Y-60665500D03*
X57606233Y-73206233D03*
X47400000Y-59800000D03*
D25*
X40700000Y-56000000D03*
D27*
X72700000Y-54900000D03*
X72700000Y-55700000D03*
D25*
X40700000Y-60300000D03*
D27*
X62700000Y-59300000D03*
X53100000Y-58300000D03*
X78000000Y-65400000D03*
X83100000Y-65400000D03*
D25*
X60800000Y-86300000D03*
D27*
X70300000Y-69700000D03*
X71412570Y-70400000D03*
D25*
X61500000Y-87400000D03*
D27*
X74400000Y-71200000D03*
D25*
X40300000Y-74400000D03*
X52900000Y-85500000D03*
D27*
X75225500Y-74814494D03*
X76900000Y-72800000D03*
X76600000Y-71500000D03*
X84100000Y-49500000D03*
X76000000Y-57000000D03*
X75100000Y-55500000D03*
X83484274Y-48987250D03*
X74657266Y-54849500D03*
X83000000Y-48300000D03*
X73200000Y-59700000D03*
X84100000Y-59700000D03*
X72425500Y-58900000D03*
X84900000Y-58900000D03*
D26*
X45000000Y-37500000D03*
X49014076Y-31985924D03*
X51000000Y-32000000D03*
X44000000Y-36500000D03*
X50000000Y-31000000D03*
X46000000Y-36500000D03*
X46000000Y-38500000D03*
X53000000Y-32000000D03*
X48000000Y-38500000D03*
X52000000Y-31000000D03*
X47000000Y-37500000D03*
X44000000Y-38500000D03*
D27*
X46200000Y-94800000D03*
X73300000Y-71200000D03*
D25*
X48500000Y-41800000D03*
X41700000Y-37200000D03*
D27*
X59600000Y-75500000D03*
X65900000Y-70700000D03*
X81200000Y-44900000D03*
X83500000Y-45400000D03*
X76750000Y-44500000D03*
X79477101Y-44900000D03*
D25*
X78100000Y-48100000D03*
D27*
X76750000Y-45250000D03*
X76750000Y-46000000D03*
X80400000Y-37500000D03*
X70300000Y-55400000D03*
X47200000Y-64500000D03*
D28*
X34500000Y-36000000D02*
X37100000Y-38600000D01*
X37100000Y-52795786D02*
X39100000Y-54795786D01*
X37100000Y-38600000D02*
X37100000Y-52795786D01*
X39100000Y-83700000D02*
X45400000Y-90000000D01*
X39100000Y-54795786D02*
X39100000Y-83700000D01*
D29*
X47500000Y-66500000D02*
X48500000Y-65500000D01*
X48500000Y-65500000D02*
X54600000Y-65500000D01*
X75800000Y-76200000D02*
X75800000Y-71000000D01*
X75800000Y-71000000D02*
X75200000Y-70400000D01*
D30*
X73300000Y-56800000D02*
X73300000Y-54636327D01*
X71500000Y-54300000D02*
X71100000Y-53900000D01*
X77400000Y-55400000D02*
X79200000Y-53600000D01*
X73300000Y-54636327D02*
X74236327Y-53700000D01*
X69500000Y-69000000D02*
X69500000Y-60600000D01*
X74236327Y-53700000D02*
X75200000Y-53700000D01*
X83800000Y-51300000D02*
X83800000Y-50200000D01*
X71100000Y-53900000D02*
X69471752Y-53900000D01*
X79200000Y-53600000D02*
X81500000Y-53600000D01*
X68871752Y-54500000D02*
X51400000Y-54500000D01*
X81500000Y-53600000D02*
X83800000Y-51300000D01*
X69500000Y-60600000D02*
X73300000Y-56800000D01*
X51400000Y-54500000D02*
X51200000Y-54700000D01*
X69471752Y-53900000D02*
X68871752Y-54500000D01*
D29*
X55600000Y-72600000D02*
X54600000Y-71600000D01*
X49400000Y-71600000D02*
X47500000Y-69700000D01*
X54600000Y-71600000D02*
X49400000Y-71600000D01*
X55000000Y-71100000D02*
X49785500Y-71100000D01*
X56500000Y-72600000D02*
X55000000Y-71100000D01*
X49785500Y-71100000D02*
X47500000Y-68814500D01*
X56700000Y-73300000D02*
X57200000Y-72800000D01*
X50000000Y-72780761D02*
X50630761Y-72150000D01*
X57500000Y-71800000D02*
X58800000Y-71800000D01*
X57200000Y-72100000D02*
X57500000Y-71800000D01*
X50000000Y-72800000D02*
X50000000Y-72780761D01*
X54250000Y-72150000D02*
X55400000Y-73300000D01*
X57200000Y-72800000D02*
X57200000Y-72100000D01*
X55400000Y-73300000D02*
X56700000Y-73300000D01*
X58800000Y-71800000D02*
X59500000Y-72500000D01*
X50630761Y-72150000D02*
X54250000Y-72150000D01*
X59500000Y-72500000D02*
X59800000Y-72500000D01*
X70800000Y-85700000D02*
X74100000Y-82400000D01*
X74100000Y-72900000D02*
X72600000Y-71400000D01*
X64600000Y-85700000D02*
X70800000Y-85700000D01*
X39800000Y-86400000D02*
X39800000Y-89800000D01*
X43700000Y-93700000D02*
X56600000Y-93700000D01*
X72600000Y-70700000D02*
X72300000Y-70400000D01*
X39800000Y-89800000D02*
X43700000Y-93700000D01*
X74100000Y-82400000D02*
X74100000Y-72900000D01*
X72600000Y-71400000D02*
X72600000Y-70700000D01*
X56600000Y-93700000D02*
X64600000Y-85700000D01*
D31*
X64000000Y-33300000D02*
X65900000Y-35200000D01*
X66000000Y-33300000D02*
X65700000Y-33300000D01*
X65700000Y-33300000D02*
X62250000Y-33300000D01*
X65900000Y-35200000D02*
X67800000Y-35200000D01*
X67800000Y-35200000D02*
X68200000Y-34800000D01*
X63600000Y-33300000D02*
X64000000Y-33300000D01*
X66350000Y-29240000D02*
X66350000Y-32950000D01*
X66350000Y-32950000D02*
X66000000Y-33300000D01*
D29*
X54000000Y-60300000D02*
X62700000Y-60300000D01*
X53100000Y-59400000D02*
X54000000Y-60300000D01*
D30*
X82300000Y-48300000D02*
X82300000Y-48000000D01*
X77723267Y-48900000D02*
X81700000Y-48900000D01*
X76723767Y-49899500D02*
X77723267Y-48900000D01*
X81700000Y-48900000D02*
X82300000Y-48300000D01*
D29*
X75300000Y-64700000D02*
X80775000Y-70175000D01*
X80500000Y-85700000D02*
X77900000Y-85700000D01*
X80775000Y-70175000D02*
X80775000Y-85425000D01*
X77900000Y-85700000D02*
X77800000Y-85600000D01*
X80775000Y-85425000D02*
X80500000Y-85700000D01*
X74900000Y-64700000D02*
X75300000Y-64700000D01*
X59300000Y-67800000D02*
X55313173Y-67800000D01*
X54538173Y-68575000D02*
X53875000Y-68575000D01*
X55313173Y-67800000D02*
X54538173Y-68575000D01*
X59500000Y-67600000D02*
X59300000Y-67800000D01*
X47500000Y-74200000D02*
X47600000Y-74200000D01*
X44300000Y-71000000D02*
X47500000Y-74200000D01*
X53875000Y-68575000D02*
X53300000Y-68000000D01*
X49300000Y-75000000D02*
X44300000Y-70000000D01*
X56743852Y-75000000D02*
X49300000Y-75000000D01*
X56744808Y-74999044D02*
X56743852Y-75000000D01*
X51500000Y-66600000D02*
X52200000Y-67300000D01*
X58400000Y-67300000D02*
X58800000Y-66900000D01*
X58800000Y-66900000D02*
X62900000Y-66900000D01*
X62900000Y-66900000D02*
X63800000Y-66900000D01*
X52200000Y-67300000D02*
X58400000Y-67300000D01*
X46800000Y-65980761D02*
X46800000Y-66950000D01*
X47050000Y-67200000D02*
X49200000Y-67200000D01*
X49200000Y-67200000D02*
X51600000Y-69600000D01*
X51600000Y-69600000D02*
X62800000Y-69600000D01*
X63500000Y-68900000D02*
X64200000Y-68900000D01*
X47200000Y-65400000D02*
X47200000Y-65580761D01*
X47200000Y-65580761D02*
X46800000Y-65980761D01*
X46800000Y-66950000D02*
X47050000Y-67200000D01*
X62800000Y-69600000D02*
X63500000Y-68900000D01*
X45600000Y-65400000D02*
X46200000Y-66000000D01*
X46200000Y-67400000D02*
X46500000Y-67700000D01*
X51300000Y-70100000D02*
X64300000Y-70100000D01*
X46500000Y-67700000D02*
X48900000Y-67700000D01*
X48900000Y-67700000D02*
X51300000Y-70100000D01*
X45600000Y-65000000D02*
X45600000Y-65400000D01*
X46200000Y-66000000D02*
X46200000Y-67400000D01*
X60000000Y-65300000D02*
X60700000Y-66000000D01*
X60700000Y-66000000D02*
X63800000Y-66000000D01*
X48500000Y-68200000D02*
X50900000Y-70600000D01*
X63742090Y-71249500D02*
X63855049Y-71136541D01*
X62300000Y-70600000D02*
X62949500Y-71249500D01*
X45300000Y-67207106D02*
X46292894Y-68200000D01*
X45300000Y-67200000D02*
X45300000Y-67207106D01*
X46292894Y-68200000D02*
X48500000Y-68200000D01*
X50900000Y-70600000D02*
X62300000Y-70600000D01*
X62949500Y-71249500D02*
X63742090Y-71249500D01*
X63900000Y-62300000D02*
X66000000Y-60200000D01*
X66000000Y-60200000D02*
X66100000Y-60200000D01*
X46600000Y-62300000D02*
X63900000Y-62300000D01*
X57475456Y-74400000D02*
X57500000Y-74424544D01*
X43800000Y-62800000D02*
X43800000Y-68586827D01*
X44375000Y-69161827D02*
X44375000Y-69175000D01*
X43800000Y-68586827D02*
X44375000Y-69161827D01*
X49600000Y-74400000D02*
X57475456Y-74400000D01*
X44400000Y-62200000D02*
X43800000Y-62800000D01*
X44375000Y-69175000D02*
X49600000Y-74400000D01*
X47400000Y-60665500D02*
X47400000Y-61200000D01*
X48000000Y-61800000D02*
X63492894Y-61800000D01*
X66492894Y-58800000D02*
X67000000Y-58800000D01*
X63492894Y-61800000D02*
X66492894Y-58800000D01*
X47400000Y-61200000D02*
X48000000Y-61800000D01*
X45200000Y-60700000D02*
X46100000Y-59800000D01*
X50000000Y-73900000D02*
X44500000Y-68400000D01*
X44500000Y-68400000D02*
X44500000Y-63400000D01*
X45200000Y-62700000D02*
X45200000Y-60700000D01*
X57606233Y-73206233D02*
X57500873Y-73206233D01*
X44500000Y-63400000D02*
X45200000Y-62700000D01*
X57500873Y-73206233D02*
X56807106Y-73900000D01*
X46100000Y-59800000D02*
X47400000Y-59800000D01*
X56807106Y-73900000D02*
X50000000Y-73900000D01*
D28*
X29800000Y-89800000D02*
X29800000Y-54100000D01*
X28600000Y-91000000D02*
X29800000Y-89800000D01*
X26777500Y-91000000D02*
X28600000Y-91000000D01*
X58700000Y-21100000D02*
X59300000Y-21700000D01*
X28100000Y-52400000D02*
X28100000Y-34500000D01*
X59300000Y-21700000D02*
X59300000Y-23000000D01*
X45700000Y-21100000D02*
X58700000Y-21100000D01*
X34200000Y-32600000D02*
X45700000Y-21100000D01*
X28100000Y-34500000D02*
X30000000Y-32600000D01*
X30000000Y-32600000D02*
X34200000Y-32600000D01*
X29800000Y-54100000D02*
X28100000Y-52400000D01*
D29*
X50200000Y-56300000D02*
X50200000Y-54500000D01*
X71600000Y-53300000D02*
X72700000Y-54400000D01*
X42300000Y-57600000D02*
X48900000Y-57600000D01*
X48900000Y-57600000D02*
X50200000Y-56300000D01*
X40700000Y-56000000D02*
X42300000Y-57600000D01*
X69100000Y-53300000D02*
X71600000Y-53300000D01*
X68550000Y-53850000D02*
X69100000Y-53300000D01*
X50200000Y-54500000D02*
X50850000Y-53850000D01*
X50850000Y-53850000D02*
X68550000Y-53850000D01*
X72700000Y-54400000D02*
X72700000Y-54900000D01*
X42700000Y-58300000D02*
X49700000Y-58300000D01*
X70986827Y-54600000D02*
X72086827Y-55700000D01*
X72086827Y-55700000D02*
X72700000Y-55700000D01*
X52750000Y-55250000D02*
X69025000Y-55250000D01*
X69025000Y-55250000D02*
X69675000Y-54600000D01*
X49700000Y-58300000D02*
X52750000Y-55250000D01*
X69675000Y-54600000D02*
X70986827Y-54600000D01*
X40700000Y-60300000D02*
X42700000Y-58300000D01*
X54100000Y-58300000D02*
X55100000Y-59300000D01*
X55100000Y-59300000D02*
X62700000Y-59300000D01*
X53100000Y-58300000D02*
X54100000Y-58300000D01*
X78000000Y-65400000D02*
X83100000Y-65400000D01*
X60800000Y-86300000D02*
X62800000Y-84300000D01*
X72900000Y-73500000D02*
X71225000Y-71825000D01*
X62800000Y-84300000D02*
X69900000Y-84300000D01*
X72900000Y-81300000D02*
X72900000Y-73500000D01*
X70300000Y-70275000D02*
X70300000Y-69700000D01*
X71225000Y-71825000D02*
X71225000Y-71200000D01*
X69900000Y-84300000D02*
X72900000Y-81300000D01*
X71225000Y-71200000D02*
X70300000Y-70275000D01*
X63800000Y-85100000D02*
X61500000Y-87400000D01*
X71412570Y-70400000D02*
X71725000Y-70712430D01*
X71100000Y-84500000D02*
X70500000Y-85100000D01*
X73500000Y-80300000D02*
X73500000Y-82100000D01*
X73500000Y-82100000D02*
X71100000Y-84500000D01*
X71725000Y-70712430D02*
X71725000Y-71525000D01*
X64200000Y-85100000D02*
X63800000Y-85100000D01*
X70500000Y-85100000D02*
X64200000Y-85100000D01*
X71725000Y-71525000D02*
X73500000Y-73300000D01*
X73500000Y-73300000D02*
X73500000Y-80300000D01*
D31*
X52900000Y-85500000D02*
X52650000Y-85750000D01*
D29*
X74900000Y-71200000D02*
X74400000Y-71200000D01*
D31*
X52650000Y-85750000D02*
X42750000Y-85750000D01*
X40235000Y-83235000D02*
X40235000Y-74465000D01*
D29*
X75300000Y-71600000D02*
X74900000Y-71200000D01*
D31*
X42750000Y-85750000D02*
X40235000Y-83235000D01*
D29*
X75225500Y-74814494D02*
X75300000Y-74739994D01*
D31*
X40235000Y-74465000D02*
X40300000Y-74400000D01*
D29*
X75300000Y-74739994D02*
X75300000Y-71600000D01*
D32*
X76900000Y-72800000D02*
X76900000Y-71800000D01*
X76900000Y-71800000D02*
X76600000Y-71500000D01*
X84100000Y-49500000D02*
X83300000Y-49500000D01*
X82700000Y-51000000D02*
X81447000Y-52253000D01*
X78747000Y-52253000D02*
X76600000Y-54400000D01*
X76600000Y-56400000D02*
X76000000Y-57000000D01*
X81447000Y-52253000D02*
X78747000Y-52253000D01*
X82700000Y-50100000D02*
X82700000Y-51000000D01*
X83300000Y-49500000D02*
X82700000Y-50100000D01*
X76600000Y-54400000D02*
X76600000Y-56400000D01*
X82276500Y-49955952D02*
X83245202Y-48987250D01*
X75100000Y-55332452D02*
X78555952Y-51876500D01*
X78555952Y-51876500D02*
X81255951Y-51876500D01*
X83245202Y-48987250D02*
X83484274Y-48987250D01*
X82276500Y-50855952D02*
X82276500Y-49955952D01*
X75100000Y-55500000D02*
X75100000Y-55332452D01*
X81255951Y-51876500D02*
X82276500Y-50855952D01*
X81900000Y-50700000D02*
X81900000Y-49400000D01*
X78400000Y-51500000D02*
X81100000Y-51500000D01*
X81100000Y-51500000D02*
X81900000Y-50700000D01*
X81900000Y-49400000D02*
X83000000Y-48300000D01*
X75050500Y-54849500D02*
X78400000Y-51500000D01*
X74657266Y-54849500D02*
X75050500Y-54849500D01*
D29*
X73200000Y-59700000D02*
X84100000Y-59700000D01*
X84900000Y-58900000D02*
X72425500Y-58900000D01*
D33*
X71750000Y-30710000D02*
X72775999Y-29684001D01*
X86624001Y-29684001D02*
X87650000Y-30710000D01*
X72775999Y-29684001D02*
X86624001Y-29684001D01*
D28*
X46000000Y-36500000D02*
X46000000Y-35700000D01*
X46000000Y-35700000D02*
X49014076Y-32685924D01*
X49014076Y-32685924D02*
X49014076Y-31985924D01*
D29*
X71107106Y-86300000D02*
X64900000Y-86300000D01*
X56800000Y-94400000D02*
X46600000Y-94400000D01*
X73300000Y-71200000D02*
X74600000Y-72500000D01*
X74600000Y-72500000D02*
X74600000Y-82807106D01*
X46600000Y-94400000D02*
X46200000Y-94800000D01*
X74600000Y-82807106D02*
X71107106Y-86300000D01*
X64900000Y-86300000D02*
X56800000Y-94400000D01*
D31*
X43300000Y-41800000D02*
X48500000Y-41800000D01*
X41700000Y-37200000D02*
X41700000Y-40200000D01*
X41700000Y-40200000D02*
X43300000Y-41800000D01*
D29*
X65900000Y-70700000D02*
X64525000Y-72075000D01*
X64525000Y-72075000D02*
X61725000Y-72075000D01*
X61725000Y-72075000D02*
X59600000Y-74200000D01*
X59600000Y-74200000D02*
X59600000Y-75500000D01*
D28*
X69537500Y-22750000D02*
X69537500Y-24450000D01*
X62537500Y-24450000D02*
X63537500Y-25450000D01*
X69537500Y-24450000D02*
X68537500Y-25450000D01*
X62537500Y-22750000D02*
X62537500Y-24450000D01*
X62537500Y-22750000D02*
X69537500Y-22750000D01*
D29*
X70300000Y-58400000D02*
X65700000Y-63000000D01*
X65700000Y-63000000D02*
X49213173Y-63000000D01*
X70300000Y-55400000D02*
X70300000Y-58400000D01*
X47713173Y-64500000D02*
X47200000Y-64500000D01*
X49213173Y-63000000D02*
X47713173Y-64500000D01*
%TA.AperFunction,Conductor*%
G36*
X46742121Y-87120002D02*
G01*
X46788614Y-87173658D01*
X46800000Y-87226000D01*
X46800000Y-91274000D01*
X46779998Y-91342121D01*
X46726342Y-91388614D01*
X46674000Y-91400000D01*
X44126000Y-91400000D01*
X44057879Y-91379998D01*
X44011386Y-91326342D01*
X44000000Y-91274000D01*
X44000000Y-87226000D01*
X44020002Y-87157879D01*
X44073658Y-87111386D01*
X44126000Y-87100000D01*
X46674000Y-87100000D01*
X46742121Y-87120002D01*
G37*
%TD.AperFunction*%
%TA.AperFunction,Conductor*%
G36*
X36342121Y-34320002D02*
G01*
X36388614Y-34373658D01*
X36400000Y-34426000D01*
X36400000Y-38974000D01*
X36379998Y-39042121D01*
X36326342Y-39088614D01*
X36274000Y-39100000D01*
X30526000Y-39100000D01*
X30457879Y-39079998D01*
X30411386Y-39026342D01*
X30400000Y-38974000D01*
X30400000Y-34426000D01*
X30420002Y-34357879D01*
X30473658Y-34311386D01*
X30526000Y-34300000D01*
X36274000Y-34300000D01*
X36342121Y-34320002D01*
G37*
%TD.AperFunction*%
%TA.AperFunction,Conductor*%
G36*
X70408188Y-32701078D02*
G01*
X70512963Y-32714872D01*
X70544735Y-32723385D01*
X70634674Y-32760639D01*
X70663160Y-32777086D01*
X70740393Y-32836349D01*
X70763651Y-32859607D01*
X70822914Y-32936840D01*
X70839361Y-32965326D01*
X70876615Y-33055265D01*
X70885128Y-33087037D01*
X70898922Y-33191812D01*
X70900000Y-33208258D01*
X70900000Y-39091742D01*
X70898922Y-39108188D01*
X70885128Y-39212963D01*
X70876615Y-39244735D01*
X70839361Y-39334674D01*
X70822914Y-39363160D01*
X70763651Y-39440393D01*
X70740393Y-39463651D01*
X70663160Y-39522914D01*
X70634674Y-39539361D01*
X70544735Y-39576615D01*
X70512963Y-39585128D01*
X70408188Y-39598922D01*
X70391742Y-39600000D01*
X57508258Y-39600000D01*
X57491812Y-39598922D01*
X57387037Y-39585128D01*
X57355265Y-39576615D01*
X57265326Y-39539361D01*
X57236840Y-39522914D01*
X57159607Y-39463651D01*
X57136349Y-39440393D01*
X57077086Y-39363160D01*
X57060639Y-39334674D01*
X57023385Y-39244735D01*
X57014872Y-39212963D01*
X57001078Y-39108188D01*
X57000000Y-39091742D01*
X57000000Y-34100000D01*
X65690518Y-34100000D01*
X65710392Y-34289092D01*
X65769147Y-34469920D01*
X65864214Y-34634580D01*
X65991438Y-34775877D01*
X66145259Y-34887635D01*
X66151287Y-34890319D01*
X66151289Y-34890320D01*
X66312924Y-34962284D01*
X66318955Y-34964969D01*
X66411944Y-34984735D01*
X66498476Y-35003128D01*
X66498480Y-35003128D01*
X66504933Y-35004500D01*
X66695067Y-35004500D01*
X66701520Y-35003128D01*
X66701524Y-35003128D01*
X66788056Y-34984735D01*
X66881045Y-34964969D01*
X66887076Y-34962284D01*
X67048711Y-34890320D01*
X67048713Y-34890319D01*
X67054741Y-34887635D01*
X67208562Y-34775877D01*
X67335786Y-34634580D01*
X67430853Y-34469920D01*
X67489608Y-34289092D01*
X67509482Y-34100000D01*
X67489608Y-33910908D01*
X67430853Y-33730080D01*
X67335786Y-33565420D01*
X67208562Y-33424123D01*
X67054741Y-33312365D01*
X67048713Y-33309681D01*
X67048711Y-33309680D01*
X66887076Y-33237716D01*
X66887075Y-33237716D01*
X66881045Y-33235031D01*
X66788056Y-33215265D01*
X66701524Y-33196872D01*
X66701520Y-33196872D01*
X66695067Y-33195500D01*
X66504933Y-33195500D01*
X66498480Y-33196872D01*
X66498476Y-33196872D01*
X66411944Y-33215265D01*
X66318955Y-33235031D01*
X66312925Y-33237716D01*
X66312924Y-33237716D01*
X66151289Y-33309680D01*
X66151287Y-33309681D01*
X66145259Y-33312365D01*
X65991438Y-33424123D01*
X65864214Y-33565420D01*
X65769147Y-33730080D01*
X65710392Y-33910908D01*
X65690518Y-34100000D01*
X57000000Y-34100000D01*
X57000000Y-33208258D01*
X57001078Y-33191812D01*
X57014872Y-33087037D01*
X57023385Y-33055265D01*
X57060639Y-32965326D01*
X57077086Y-32936840D01*
X57136349Y-32859607D01*
X57159607Y-32836349D01*
X57236840Y-32777086D01*
X57265326Y-32760639D01*
X57355265Y-32723385D01*
X57387037Y-32714872D01*
X57491812Y-32701078D01*
X57508258Y-32700000D01*
X70391742Y-32700000D01*
X70408188Y-32701078D01*
G37*
%TD.AperFunction*%
%TA.AperFunction,Conductor*%
G36*
X53642121Y-30220002D02*
G01*
X53688614Y-30273658D01*
X53700000Y-30326000D01*
X53700000Y-38974000D01*
X53679998Y-39042121D01*
X53626342Y-39088614D01*
X53574000Y-39100000D01*
X43526000Y-39100000D01*
X43457879Y-39079998D01*
X43411386Y-39026342D01*
X43400000Y-38974000D01*
X43400000Y-35993096D01*
X47340729Y-35993096D01*
X47358113Y-36150553D01*
X47412553Y-36299319D01*
X47500908Y-36430805D01*
X47506527Y-36435918D01*
X47506528Y-36435919D01*
X47517903Y-36446269D01*
X47618076Y-36537419D01*
X47757293Y-36613008D01*
X47910522Y-36653207D01*
X47994477Y-36654526D01*
X48061319Y-36655576D01*
X48061322Y-36655576D01*
X48068916Y-36655695D01*
X48223332Y-36620329D01*
X48293742Y-36584917D01*
X48358072Y-36552563D01*
X48358075Y-36552561D01*
X48364855Y-36549151D01*
X48417656Y-36504055D01*
X48482445Y-36475024D01*
X48552645Y-36485629D01*
X48584285Y-36506672D01*
X48618076Y-36537419D01*
X48757293Y-36613008D01*
X48910522Y-36653207D01*
X48994477Y-36654526D01*
X49061319Y-36655576D01*
X49061322Y-36655576D01*
X49068916Y-36655695D01*
X49223332Y-36620329D01*
X49293742Y-36584917D01*
X49358072Y-36552563D01*
X49358075Y-36552561D01*
X49364855Y-36549151D01*
X49370626Y-36544222D01*
X49370629Y-36544220D01*
X49479536Y-36451204D01*
X49479536Y-36451203D01*
X49485314Y-36446269D01*
X49577755Y-36317624D01*
X49636842Y-36170641D01*
X49659162Y-36013807D01*
X49659307Y-36000000D01*
X49640276Y-35842733D01*
X49584280Y-35694546D01*
X49575814Y-35682228D01*
X49498855Y-35570251D01*
X49498854Y-35570249D01*
X49494553Y-35563992D01*
X49376275Y-35458611D01*
X49368889Y-35454700D01*
X49242988Y-35388039D01*
X49242989Y-35388039D01*
X49236274Y-35384484D01*
X49082633Y-35345892D01*
X49075034Y-35345852D01*
X49075033Y-35345852D01*
X49009181Y-35345507D01*
X48924221Y-35345062D01*
X48916841Y-35346834D01*
X48916839Y-35346834D01*
X48777563Y-35380271D01*
X48777560Y-35380272D01*
X48770184Y-35382043D01*
X48629414Y-35454700D01*
X48623695Y-35459689D01*
X48582999Y-35495190D01*
X48518516Y-35524897D01*
X48448209Y-35515027D01*
X48416352Y-35494317D01*
X48381951Y-35463667D01*
X48381945Y-35463663D01*
X48376275Y-35458611D01*
X48368889Y-35454700D01*
X48242988Y-35388039D01*
X48242989Y-35388039D01*
X48236274Y-35384484D01*
X48082633Y-35345892D01*
X48075034Y-35345852D01*
X48075033Y-35345852D01*
X48009181Y-35345507D01*
X47924221Y-35345062D01*
X47916841Y-35346834D01*
X47916839Y-35346834D01*
X47777563Y-35380271D01*
X47777560Y-35380272D01*
X47770184Y-35382043D01*
X47629414Y-35454700D01*
X47510039Y-35558838D01*
X47418950Y-35688444D01*
X47361406Y-35836037D01*
X47360414Y-35843570D01*
X47360414Y-35843571D01*
X47346741Y-35947432D01*
X47340729Y-35993096D01*
X43400000Y-35993096D01*
X43400000Y-35947432D01*
X43420002Y-35879311D01*
X43431278Y-35864343D01*
X43591028Y-35682228D01*
X45453968Y-33558476D01*
X45513925Y-33520457D01*
X45584921Y-33520888D01*
X45617313Y-33536725D01*
X45618076Y-33537419D01*
X45757293Y-33613008D01*
X45910522Y-33653207D01*
X45994477Y-33654526D01*
X46061319Y-33655576D01*
X46061322Y-33655576D01*
X46068916Y-33655695D01*
X46223332Y-33620329D01*
X46293742Y-33584917D01*
X46358072Y-33552563D01*
X46358075Y-33552561D01*
X46364855Y-33549151D01*
X46370626Y-33544222D01*
X46370629Y-33544220D01*
X46479536Y-33451204D01*
X46479536Y-33451203D01*
X46485314Y-33446269D01*
X46577755Y-33317624D01*
X46636842Y-33170641D01*
X46659162Y-33013807D01*
X46659307Y-33000000D01*
X46640276Y-32842733D01*
X46617332Y-32782014D01*
X46611964Y-32711221D01*
X46645721Y-32648763D01*
X46707887Y-32614471D01*
X46767171Y-32615600D01*
X46903171Y-32651279D01*
X46903175Y-32651280D01*
X46910522Y-32653207D01*
X46994477Y-32654526D01*
X47061319Y-32655576D01*
X47061322Y-32655576D01*
X47068916Y-32655695D01*
X47223332Y-32620329D01*
X47335347Y-32563992D01*
X47358072Y-32552563D01*
X47358075Y-32552561D01*
X47364855Y-32549151D01*
X47370626Y-32544222D01*
X47370629Y-32544220D01*
X47479536Y-32451204D01*
X47479536Y-32451203D01*
X47485314Y-32446269D01*
X47577755Y-32317624D01*
X47636842Y-32170641D01*
X47659162Y-32013807D01*
X47659307Y-32000000D01*
X47640276Y-31842733D01*
X47584280Y-31694546D01*
X47494553Y-31563992D01*
X47424543Y-31501616D01*
X47386988Y-31441366D01*
X47387967Y-31370376D01*
X47413640Y-31324450D01*
X48362359Y-30242911D01*
X48422318Y-30204891D01*
X48457081Y-30200000D01*
X53574000Y-30200000D01*
X53642121Y-30220002D01*
G37*
%TD.AperFunction*%
M02*
