%TF.GenerationSoftware,KiCad,Pcbnew,(6.0.8-1)-1*%
%TF.CreationDate,2022-11-24T03:44:55+08:00*%
%TF.ProjectId,CCTV3_F407_REV200,43435456-335f-4463-9430-375f52455632,rev?*%
%TF.SameCoordinates,Original*%
%TF.FileFunction,Paste,Top*%
%TF.FilePolarity,Positive*%
%FSLAX46Y46*%
G04 Gerber Fmt 4.6, Leading zero omitted, Abs format (unit mm)*
G04 Created by KiCad (PCBNEW (6.0.8-1)-1) date 2022-11-24 03:44:55*
%MOMM*%
%LPD*%
G01*
G04 APERTURE LIST*
G04 Aperture macros list*
%AMRoundRect*
0 Rectangle with rounded corners*
0 $1 Rounding radius*
0 $2 $3 $4 $5 $6 $7 $8 $9 X,Y pos of 4 corners*
0 Add a 4 corners polygon primitive as box body*
4,1,4,$2,$3,$4,$5,$6,$7,$8,$9,$2,$3,0*
0 Add four circle primitives for the rounded corners*
1,1,$1+$1,$2,$3*
1,1,$1+$1,$4,$5*
1,1,$1+$1,$6,$7*
1,1,$1+$1,$8,$9*
0 Add four rect primitives between the rounded corners*
20,1,$1+$1,$2,$3,$4,$5,0*
20,1,$1+$1,$4,$5,$6,$7,0*
20,1,$1+$1,$6,$7,$8,$9,0*
20,1,$1+$1,$8,$9,$2,$3,0*%
G04 Aperture macros list end*
%ADD10RoundRect,0.218750X-0.256250X0.218750X-0.256250X-0.218750X0.256250X-0.218750X0.256250X0.218750X0*%
%ADD11RoundRect,0.200000X-0.275000X0.200000X-0.275000X-0.200000X0.275000X-0.200000X0.275000X0.200000X0*%
%ADD12R,2.460000X1.050000*%
%ADD13R,2.460000X3.540000*%
%ADD14RoundRect,0.140000X-0.170000X0.140000X-0.170000X-0.140000X0.170000X-0.140000X0.170000X0.140000X0*%
%ADD15RoundRect,0.200000X0.200000X0.275000X-0.200000X0.275000X-0.200000X-0.275000X0.200000X-0.275000X0*%
%ADD16R,1.200000X1.200000*%
%ADD17R,1.500000X1.600000*%
%ADD18RoundRect,0.140000X0.140000X0.170000X-0.140000X0.170000X-0.140000X-0.170000X0.140000X-0.170000X0*%
%ADD19RoundRect,0.225000X-0.250000X0.225000X-0.250000X-0.225000X0.250000X-0.225000X0.250000X0.225000X0*%
%ADD20R,1.610000X2.380000*%
%ADD21RoundRect,0.135000X0.185000X-0.135000X0.185000X0.135000X-0.185000X0.135000X-0.185000X-0.135000X0*%
%ADD22R,1.100000X1.100000*%
%ADD23R,2.500000X1.100000*%
%ADD24R,2.340000X3.600000*%
%ADD25RoundRect,0.140000X0.170000X-0.140000X0.170000X0.140000X-0.170000X0.140000X-0.170000X-0.140000X0*%
%ADD26R,1.100000X1.700000*%
%ADD27RoundRect,0.200000X0.275000X-0.200000X0.275000X0.200000X-0.275000X0.200000X-0.275000X-0.200000X0*%
%ADD28RoundRect,0.250000X-0.275000X-0.275000X0.275000X-0.275000X0.275000X0.275000X-0.275000X0.275000X0*%
%ADD29RoundRect,0.062500X-0.350000X-0.062500X0.350000X-0.062500X0.350000X0.062500X-0.350000X0.062500X0*%
%ADD30RoundRect,0.062500X-0.062500X-0.350000X0.062500X-0.350000X0.062500X0.350000X-0.062500X0.350000X0*%
%ADD31RoundRect,0.225000X0.225000X0.250000X-0.225000X0.250000X-0.225000X-0.250000X0.225000X-0.250000X0*%
%ADD32R,1.000000X0.550000*%
%ADD33R,0.550000X1.000000*%
%ADD34RoundRect,0.135000X0.135000X0.185000X-0.135000X0.185000X-0.135000X-0.185000X0.135000X-0.185000X0*%
%ADD35RoundRect,0.135000X-0.135000X-0.185000X0.135000X-0.185000X0.135000X0.185000X-0.135000X0.185000X0*%
%ADD36R,0.700000X1.250000*%
%ADD37RoundRect,0.140000X-0.140000X-0.170000X0.140000X-0.170000X0.140000X0.170000X-0.140000X0.170000X0*%
%ADD38R,0.600000X1.070000*%
%ADD39RoundRect,0.218750X0.218750X0.256250X-0.218750X0.256250X-0.218750X-0.256250X0.218750X-0.256250X0*%
%ADD40R,1.400000X1.200000*%
%ADD41RoundRect,0.218750X-0.218750X-0.256250X0.218750X-0.256250X0.218750X0.256250X-0.218750X0.256250X0*%
%ADD42RoundRect,0.200000X-0.200000X-0.275000X0.200000X-0.275000X0.200000X0.275000X-0.200000X0.275000X0*%
%ADD43RoundRect,0.135000X-0.185000X0.135000X-0.185000X-0.135000X0.185000X-0.135000X0.185000X0.135000X0*%
%ADD44R,1.070000X0.600000*%
%ADD45RoundRect,0.225000X0.250000X-0.225000X0.250000X0.225000X-0.250000X0.225000X-0.250000X-0.225000X0*%
%ADD46RoundRect,0.075000X0.075000X-0.725000X0.075000X0.725000X-0.075000X0.725000X-0.075000X-0.725000X0*%
%ADD47RoundRect,0.075000X0.725000X-0.075000X0.725000X0.075000X-0.725000X0.075000X-0.725000X-0.075000X0*%
%ADD48R,1.000000X1.800000*%
%ADD49R,1.700000X1.000000*%
%ADD50R,2.330000X2.380000*%
%ADD51R,1.100000X2.380000*%
%ADD52R,0.600000X0.700000*%
%ADD53RoundRect,0.250000X0.312500X1.450000X-0.312500X1.450000X-0.312500X-1.450000X0.312500X-1.450000X0*%
%ADD54RoundRect,0.225000X-0.225000X-0.250000X0.225000X-0.250000X0.225000X0.250000X-0.225000X0.250000X0*%
%ADD55RoundRect,0.250000X1.450000X-0.312500X1.450000X0.312500X-1.450000X0.312500X-1.450000X-0.312500X0*%
%ADD56R,3.260000X1.150000*%
%ADD57RoundRect,0.218750X0.256250X-0.218750X0.256250X0.218750X-0.256250X0.218750X-0.256250X-0.218750X0*%
%ADD58C,1.000000*%
%ADD59RoundRect,0.250000X-0.325000X-0.650000X0.325000X-0.650000X0.325000X0.650000X-0.325000X0.650000X0*%
%ADD60R,1.250000X0.700000*%
%ADD61R,0.600000X1.000000*%
%ADD62RoundRect,0.218750X0.381250X-0.218750X0.381250X0.218750X-0.381250X0.218750X-0.381250X-0.218750X0*%
%ADD63R,1.000000X0.600000*%
%ADD64O,1.950000X0.570000*%
%ADD65R,1.200000X1.400000*%
%ADD66RoundRect,0.218750X0.218750X0.381250X-0.218750X0.381250X-0.218750X-0.381250X0.218750X-0.381250X0*%
%ADD67R,0.800000X0.500000*%
%ADD68RoundRect,0.243750X0.456250X-0.243750X0.456250X0.243750X-0.456250X0.243750X-0.456250X-0.243750X0*%
%ADD69R,0.700000X0.600000*%
%ADD70R,1.150000X3.260000*%
%ADD71O,2.250000X0.630000*%
%ADD72C,1.800000*%
%ADD73O,1.000000X1.550000*%
%ADD74O,1.250000X0.950000*%
%ADD75R,0.400000X1.350000*%
%ADD76R,1.800000X2.500000*%
%ADD77C,1.300000*%
%ADD78C,1.600000*%
%ADD79C,2.540000*%
%ADD80R,1.250000X0.300000*%
%ADD81R,2.500000X2.000000*%
%ADD82R,0.800000X1.000000*%
%ADD83RoundRect,0.218750X-0.381250X0.218750X-0.381250X-0.218750X0.381250X-0.218750X0.381250X0.218750X0*%
%ADD84R,2.500000X1.800000*%
G04 APERTURE END LIST*
D10*
X69200000Y-26912500D03*
X69200000Y-28487500D03*
D11*
X87000000Y-45175000D03*
X87000000Y-46825000D03*
D12*
X53940000Y-34300000D03*
X53940000Y-36600000D03*
X53940000Y-38900000D03*
D13*
X59660000Y-36600000D03*
D14*
X26500005Y-77620000D03*
X26500005Y-78580000D03*
D15*
X39868750Y-89049995D03*
X38218750Y-89049995D03*
D16*
X33623750Y-91099995D03*
D17*
X36863750Y-92099995D03*
D16*
X33623750Y-93099995D03*
D18*
X61280000Y-71700000D03*
X60320000Y-71700000D03*
D19*
X38400000Y-46075000D03*
X38400000Y-47625000D03*
D18*
X61880000Y-74720000D03*
X60920000Y-74720000D03*
D20*
X27100000Y-45800000D03*
X30700000Y-45800000D03*
D21*
X52790000Y-72980000D03*
X52790000Y-71960000D03*
D22*
X35293750Y-95049995D03*
X35293750Y-97849995D03*
D23*
X31670000Y-43100000D03*
X31670000Y-40800000D03*
X31670000Y-38500000D03*
D24*
X25730000Y-40800000D03*
D22*
X68400000Y-91500000D03*
X68400000Y-94300000D03*
D18*
X82880000Y-38400000D03*
X81920000Y-38400000D03*
D14*
X50300000Y-64520000D03*
X50300000Y-65480000D03*
D25*
X44041250Y-86374995D03*
X44041250Y-85414995D03*
D26*
X62425000Y-27700000D03*
X59025000Y-27700000D03*
D27*
X66600000Y-37725000D03*
X66600000Y-36075000D03*
D28*
X79650000Y-49450000D03*
X79650000Y-50750000D03*
X80950000Y-50750000D03*
X80950000Y-49450000D03*
D29*
X78362500Y-48850000D03*
X78362500Y-49350000D03*
X78362500Y-49850000D03*
X78362500Y-50350000D03*
X78362500Y-50850000D03*
X78362500Y-51350000D03*
D30*
X79050000Y-52037500D03*
X79550000Y-52037500D03*
X80050000Y-52037500D03*
X80550000Y-52037500D03*
X81050000Y-52037500D03*
X81550000Y-52037500D03*
D29*
X82237500Y-51350000D03*
X82237500Y-50850000D03*
X82237500Y-50350000D03*
X82237500Y-49850000D03*
X82237500Y-49350000D03*
X82237500Y-48850000D03*
D30*
X81550000Y-48162500D03*
X81050000Y-48162500D03*
X80550000Y-48162500D03*
X80050000Y-48162500D03*
X79550000Y-48162500D03*
X79050000Y-48162500D03*
D18*
X74535000Y-52775000D03*
X73575000Y-52775000D03*
D31*
X42818750Y-89049995D03*
X41268750Y-89049995D03*
X35475000Y-41950000D03*
X33925000Y-41950000D03*
D32*
X84000000Y-82750000D03*
X84000000Y-83700000D03*
X84000000Y-84650000D03*
X81200000Y-84650000D03*
X81200000Y-83700000D03*
X81200000Y-82750000D03*
D21*
X78350000Y-45510000D03*
X78350000Y-44490000D03*
D33*
X65400000Y-32800000D03*
X66350000Y-32800000D03*
X67300000Y-32800000D03*
X67300000Y-30000000D03*
X66350000Y-30000000D03*
X65400000Y-30000000D03*
D25*
X78200000Y-54280000D03*
X78200000Y-53320000D03*
D34*
X53920000Y-56700000D03*
X52900000Y-56700000D03*
D35*
X53790000Y-72010000D03*
X54810000Y-72010000D03*
D36*
X54450000Y-88800000D03*
X52550000Y-88800000D03*
X53500000Y-90800000D03*
D37*
X55520000Y-67800000D03*
X56480000Y-67800000D03*
D38*
X61150000Y-81240000D03*
X63050000Y-81240000D03*
X62100000Y-78760000D03*
D35*
X24240000Y-64000000D03*
X25260000Y-64000000D03*
D25*
X61000000Y-57080000D03*
X61000000Y-56120000D03*
X78300000Y-59200000D03*
X78300000Y-58240000D03*
D18*
X48620000Y-88400000D03*
X49580000Y-88400000D03*
D39*
X55147500Y-69250000D03*
X53572500Y-69250000D03*
D10*
X70300000Y-88312500D03*
X70300000Y-89887500D03*
D40*
X67400000Y-77900000D03*
X69600000Y-77900000D03*
X69600000Y-76140000D03*
X67400000Y-76140000D03*
D41*
X49387500Y-89700000D03*
X47812500Y-89700000D03*
D42*
X71975000Y-38700000D03*
X73625000Y-38700000D03*
D43*
X20930000Y-44640000D03*
X20930000Y-45660000D03*
D42*
X71975000Y-40200000D03*
X73625000Y-40200000D03*
D43*
X32300000Y-44290000D03*
X32300000Y-45310000D03*
D25*
X51810000Y-72930000D03*
X51810000Y-71970000D03*
D19*
X33930000Y-38400000D03*
X33930000Y-39950000D03*
D15*
X82475000Y-80900000D03*
X84125000Y-80900000D03*
D11*
X88500000Y-45175000D03*
X88500000Y-46825000D03*
D18*
X73480000Y-74420000D03*
X72520000Y-74420000D03*
D21*
X81450000Y-44310000D03*
X81450000Y-43290000D03*
D18*
X71580000Y-74420000D03*
X70620000Y-74420000D03*
D14*
X78300000Y-69840000D03*
X78300000Y-70800000D03*
D35*
X51990000Y-87400000D03*
X53010000Y-87400000D03*
D18*
X63780000Y-55200000D03*
X62820000Y-55200000D03*
D15*
X51525000Y-43400000D03*
X49875000Y-43400000D03*
D44*
X51540000Y-39400000D03*
X51540000Y-37500000D03*
X49060000Y-38450000D03*
D32*
X76000000Y-40050000D03*
X76000000Y-41000000D03*
X76000000Y-41950000D03*
X78800000Y-41950000D03*
X78800000Y-41000000D03*
X78800000Y-40050000D03*
D42*
X67475000Y-53600000D03*
X69125000Y-53600000D03*
D25*
X77300000Y-57880000D03*
X77300000Y-56920000D03*
D21*
X26500005Y-75910000D03*
X26500005Y-74890000D03*
D45*
X44200000Y-41725000D03*
X44200000Y-40175000D03*
D33*
X56285000Y-51500000D03*
X55335000Y-51500000D03*
X54385000Y-51500000D03*
X54385000Y-54300000D03*
X55335000Y-54300000D03*
X56285000Y-54300000D03*
D46*
X63000000Y-72495000D03*
X63500000Y-72495000D03*
X64000000Y-72495000D03*
X64500000Y-72495000D03*
X65000000Y-72495000D03*
X65500000Y-72495000D03*
X66000000Y-72495000D03*
X66500000Y-72495000D03*
X67000000Y-72495000D03*
X67500000Y-72495000D03*
X68000000Y-72495000D03*
X68500000Y-72495000D03*
X69000000Y-72495000D03*
X69500000Y-72495000D03*
X70000000Y-72495000D03*
X70500000Y-72495000D03*
X71000000Y-72495000D03*
X71500000Y-72495000D03*
X72000000Y-72495000D03*
X72500000Y-72495000D03*
X73000000Y-72495000D03*
X73500000Y-72495000D03*
X74000000Y-72495000D03*
X74500000Y-72495000D03*
X75000000Y-72495000D03*
D47*
X76675000Y-70820000D03*
X76675000Y-70320000D03*
X76675000Y-69820000D03*
X76675000Y-69320000D03*
X76675000Y-68820000D03*
X76675000Y-68320000D03*
X76675000Y-67820000D03*
X76675000Y-67320000D03*
X76675000Y-66820000D03*
X76675000Y-66320000D03*
X76675000Y-65820000D03*
X76675000Y-65320000D03*
X76675000Y-64820000D03*
X76675000Y-64320000D03*
X76675000Y-63820000D03*
X76675000Y-63320000D03*
X76675000Y-62820000D03*
X76675000Y-62320000D03*
X76675000Y-61820000D03*
X76675000Y-61320000D03*
X76675000Y-60820000D03*
X76675000Y-60320000D03*
X76675000Y-59820000D03*
X76675000Y-59320000D03*
X76675000Y-58820000D03*
D46*
X75000000Y-57145000D03*
X74500000Y-57145000D03*
X74000000Y-57145000D03*
X73500000Y-57145000D03*
X73000000Y-57145000D03*
X72500000Y-57145000D03*
X72000000Y-57145000D03*
X71500000Y-57145000D03*
X71000000Y-57145000D03*
X70500000Y-57145000D03*
X70000000Y-57145000D03*
X69500000Y-57145000D03*
X69000000Y-57145000D03*
X68500000Y-57145000D03*
X68000000Y-57145000D03*
X67500000Y-57145000D03*
X67000000Y-57145000D03*
X66500000Y-57145000D03*
X66000000Y-57145000D03*
X65500000Y-57145000D03*
X65000000Y-57145000D03*
X64500000Y-57145000D03*
X64000000Y-57145000D03*
X63500000Y-57145000D03*
X63000000Y-57145000D03*
D47*
X61325000Y-58820000D03*
X61325000Y-59320000D03*
X61325000Y-59820000D03*
X61325000Y-60320000D03*
X61325000Y-60820000D03*
X61325000Y-61320000D03*
X61325000Y-61820000D03*
X61325000Y-62320000D03*
X61325000Y-62820000D03*
X61325000Y-63320000D03*
X61325000Y-63820000D03*
X61325000Y-64320000D03*
X61325000Y-64820000D03*
X61325000Y-65320000D03*
X61325000Y-65820000D03*
X61325000Y-66320000D03*
X61325000Y-66820000D03*
X61325000Y-67320000D03*
X61325000Y-67820000D03*
X61325000Y-68320000D03*
X61325000Y-68820000D03*
X61325000Y-69320000D03*
X61325000Y-69820000D03*
X61325000Y-70320000D03*
X61325000Y-70820000D03*
D48*
X61150000Y-76220000D03*
X63650000Y-76220000D03*
D32*
X84800000Y-41950000D03*
X84800000Y-41000000D03*
X84800000Y-40050000D03*
X82000000Y-40050000D03*
X82000000Y-41000000D03*
X82000000Y-41950000D03*
D11*
X57835000Y-51575000D03*
X57835000Y-53225000D03*
D19*
X50100000Y-34450000D03*
X50100000Y-36000000D03*
D25*
X76900000Y-48480000D03*
X76900000Y-47520000D03*
D49*
X28100005Y-74850000D03*
X34700005Y-74850000D03*
X28100005Y-78550000D03*
X34700005Y-78550000D03*
D35*
X77890000Y-46800000D03*
X78910000Y-46800000D03*
D45*
X50600000Y-69225000D03*
X50600000Y-70775000D03*
D50*
X39410000Y-72000000D03*
D51*
X41590000Y-72000000D03*
D35*
X79810000Y-78350000D03*
X78790000Y-78350000D03*
D34*
X54910000Y-87400000D03*
X53890000Y-87400000D03*
D39*
X55637500Y-74400000D03*
X54062500Y-74400000D03*
D44*
X50440000Y-93700000D03*
X47960000Y-94650000D03*
X47960000Y-92750000D03*
D43*
X49150000Y-73690000D03*
X49150000Y-74710000D03*
D11*
X33293750Y-94874995D03*
X33293750Y-96524995D03*
D52*
X39993750Y-90549995D03*
X38593750Y-90549995D03*
D53*
X57162500Y-28500000D03*
X52887500Y-28500000D03*
D54*
X21625000Y-48400000D03*
X23175000Y-48400000D03*
D34*
X76840000Y-78350000D03*
X77860000Y-78350000D03*
D39*
X75800000Y-45500000D03*
X74225000Y-45500000D03*
D11*
X31793750Y-94874995D03*
X31793750Y-96524995D03*
D45*
X46200000Y-41725000D03*
X46200000Y-40175000D03*
D43*
X68200000Y-95600000D03*
X68200000Y-96620000D03*
D14*
X81300000Y-53920000D03*
X81300000Y-54880000D03*
D36*
X69350000Y-97000000D03*
X71250000Y-97000000D03*
X70300000Y-95000000D03*
D50*
X23410000Y-72000000D03*
D51*
X25590000Y-72000000D03*
D21*
X36500005Y-78210000D03*
X36500005Y-77190000D03*
D55*
X37900000Y-27837500D03*
X37900000Y-23562500D03*
D34*
X23510000Y-66000000D03*
X22490000Y-66000000D03*
D56*
X42450000Y-32300000D03*
X37350000Y-32300000D03*
D50*
X31410000Y-58000000D03*
D51*
X33590000Y-58000000D03*
D19*
X51600000Y-34450000D03*
X51600000Y-36000000D03*
D25*
X58400000Y-66780000D03*
X58400000Y-65820000D03*
D57*
X40925000Y-54687500D03*
X40925000Y-53112500D03*
D58*
X58800000Y-79400000D03*
X58800000Y-80650000D03*
D59*
X42550000Y-55100000D03*
X45500000Y-55100000D03*
D21*
X53300000Y-65510000D03*
X53300000Y-64490000D03*
D37*
X77920000Y-38400000D03*
X78880000Y-38400000D03*
X81720000Y-46800000D03*
X82680000Y-46800000D03*
D21*
X49150000Y-76610000D03*
X49150000Y-75590000D03*
X25500000Y-46910000D03*
X25500000Y-45890000D03*
D31*
X56695000Y-56440000D03*
X55145000Y-56440000D03*
D59*
X42550000Y-52700000D03*
X45500000Y-52700000D03*
D60*
X50500000Y-74250000D03*
X50500000Y-76150000D03*
X52500000Y-75200000D03*
D61*
X22280000Y-46950000D03*
X23230000Y-46950000D03*
X24180000Y-46950000D03*
X24180000Y-44350000D03*
X22280000Y-44350000D03*
D18*
X67860000Y-74730000D03*
X66900000Y-74730000D03*
D39*
X55147500Y-70750000D03*
X53572500Y-70750000D03*
D18*
X63880000Y-74720000D03*
X62920000Y-74720000D03*
D10*
X54300000Y-92312500D03*
X54300000Y-93887500D03*
D62*
X30200000Y-85962500D03*
X30200000Y-83837500D03*
D63*
X57287500Y-66450000D03*
X57287500Y-65500000D03*
X57287500Y-64550000D03*
X54687500Y-64550000D03*
X54687500Y-66450000D03*
D21*
X79350000Y-44310000D03*
X79350000Y-43290000D03*
D42*
X67475000Y-55200000D03*
X69125000Y-55200000D03*
D31*
X47825000Y-96100000D03*
X49375000Y-96100000D03*
D42*
X49875000Y-45000000D03*
X51525000Y-45000000D03*
D37*
X83920000Y-38400000D03*
X84880000Y-38400000D03*
D21*
X82450000Y-45410000D03*
X82450000Y-44390000D03*
D64*
X39141250Y-92254995D03*
X39141250Y-93534995D03*
X39141250Y-94794995D03*
X39141250Y-96064995D03*
X44561250Y-96064995D03*
X44561250Y-94794995D03*
X44561250Y-93534995D03*
X44561250Y-92254995D03*
D65*
X74935000Y-51175000D03*
X74935000Y-48975000D03*
X73175000Y-48975000D03*
X73175000Y-51175000D03*
D11*
X22250000Y-60925000D03*
X22250000Y-62575000D03*
D66*
X42803750Y-97694995D03*
X40678750Y-97694995D03*
D14*
X80300000Y-53920000D03*
X80300000Y-54880000D03*
D10*
X59800000Y-92312500D03*
X59800000Y-93887500D03*
D34*
X60510000Y-87400000D03*
X59490000Y-87400000D03*
D42*
X59200000Y-29600000D03*
X60850000Y-29600000D03*
D18*
X76980000Y-38400000D03*
X76020000Y-38400000D03*
D50*
X23410000Y-58000000D03*
D51*
X25590000Y-58000000D03*
D67*
X25950000Y-62700000D03*
X25950000Y-61750000D03*
X25950000Y-60800000D03*
X23550000Y-60800000D03*
X23550000Y-61750000D03*
X23550000Y-62700000D03*
D31*
X41318750Y-87549995D03*
X39768750Y-87549995D03*
D59*
X46025000Y-28300000D03*
X48975000Y-28300000D03*
D21*
X36500000Y-54720000D03*
X36500000Y-53700000D03*
D25*
X43041250Y-86374995D03*
X43041250Y-85414995D03*
D15*
X42087500Y-83800000D03*
X40437500Y-83800000D03*
D27*
X58300000Y-93925000D03*
X58300000Y-92275000D03*
X25500000Y-69075000D03*
X25500000Y-67425000D03*
D37*
X73575000Y-47375000D03*
X74535000Y-47375000D03*
D68*
X69000000Y-31937500D03*
X69000000Y-30062500D03*
D69*
X36500005Y-74700000D03*
X36500005Y-76100000D03*
D50*
X39410000Y-58000000D03*
D51*
X41590000Y-58000000D03*
D11*
X51335000Y-51575000D03*
X51335000Y-53225000D03*
D59*
X42125000Y-75600000D03*
X45075000Y-75600000D03*
D37*
X64180000Y-78500000D03*
X63220000Y-78500000D03*
D27*
X52800000Y-93925000D03*
X52800000Y-92275000D03*
D31*
X68775000Y-88300000D03*
X67225000Y-88300000D03*
D42*
X49425000Y-91200000D03*
X47775000Y-91200000D03*
D25*
X74012500Y-44280000D03*
X74012500Y-43320000D03*
D41*
X43575000Y-83800000D03*
X45150000Y-83800000D03*
D43*
X82300000Y-53890000D03*
X82300000Y-54910000D03*
D19*
X52100000Y-69225000D03*
X52100000Y-70775000D03*
D15*
X82475000Y-79400000D03*
X84125000Y-79400000D03*
D39*
X44416250Y-87549995D03*
X42841250Y-87549995D03*
D21*
X68200000Y-98610000D03*
X68200000Y-97590000D03*
D69*
X37293750Y-94799995D03*
X37293750Y-96199995D03*
D25*
X77200000Y-54280000D03*
X77200000Y-53320000D03*
D10*
X40500000Y-76012500D03*
X40500000Y-77587500D03*
D18*
X80880000Y-38400000D03*
X79920000Y-38400000D03*
D25*
X62000000Y-57080000D03*
X62000000Y-56120000D03*
D70*
X39900000Y-43300000D03*
X39900000Y-38200000D03*
D59*
X42125000Y-78000000D03*
X45075000Y-78000000D03*
D71*
X51170000Y-58090000D03*
X51170000Y-59370000D03*
X51170000Y-60630000D03*
X51170000Y-61900000D03*
X58230000Y-61900000D03*
X58230000Y-60630000D03*
X58230000Y-59370000D03*
X58230000Y-58090000D03*
D72*
X76200000Y-90300000D03*
X76200000Y-95300000D03*
D67*
X21800000Y-67300000D03*
X21800000Y-68250000D03*
X21800000Y-69200000D03*
X24200000Y-69200000D03*
X24200000Y-68250000D03*
X24200000Y-67300000D03*
D18*
X58380000Y-67800000D03*
X57420000Y-67800000D03*
D73*
X69537500Y-22750000D03*
X62537500Y-22750000D03*
D74*
X68537500Y-25450000D03*
X63537500Y-25450000D03*
D75*
X64737500Y-25450000D03*
X65387500Y-25450000D03*
X66037500Y-25450000D03*
X66687500Y-25450000D03*
X67337500Y-25450000D03*
D57*
X59335000Y-53187500D03*
X59335000Y-51612500D03*
D53*
X48937500Y-22800000D03*
X44662500Y-22800000D03*
D61*
X35650000Y-43450000D03*
X34700000Y-43450000D03*
X33750000Y-43450000D03*
X33750000Y-46050000D03*
X35650000Y-46050000D03*
D36*
X59950000Y-88800000D03*
X58050000Y-88800000D03*
X59000000Y-90800000D03*
D14*
X71200000Y-76530000D03*
X71200000Y-77490000D03*
D26*
X49900000Y-41500000D03*
X53300000Y-41500000D03*
D76*
X41700000Y-27100000D03*
X41700000Y-23100000D03*
D45*
X56600000Y-70775000D03*
X56600000Y-69225000D03*
D19*
X35430000Y-38400000D03*
X35430000Y-39950000D03*
D18*
X48620000Y-87400000D03*
X49580000Y-87400000D03*
D11*
X70300000Y-91275000D03*
X70300000Y-92925000D03*
D15*
X55675000Y-75900000D03*
X54025000Y-75900000D03*
D20*
X59000000Y-41700000D03*
X55400000Y-41700000D03*
D25*
X65800000Y-77490000D03*
X65800000Y-76530000D03*
D19*
X39900000Y-46075000D03*
X39900000Y-47625000D03*
D25*
X51300000Y-65480000D03*
X51300000Y-64520000D03*
D39*
X82512500Y-77900000D03*
X84087500Y-77900000D03*
D11*
X62400000Y-29475000D03*
X62400000Y-31125000D03*
D18*
X73480000Y-75420000D03*
X72520000Y-75420000D03*
D59*
X48975000Y-26000000D03*
X46025000Y-26000000D03*
D77*
X84140000Y-33160000D03*
X82880000Y-35700000D03*
X81600000Y-33160000D03*
X80340000Y-35700000D03*
X79070000Y-33160000D03*
X77800000Y-35700000D03*
X76530000Y-33160000D03*
X75260000Y-35700000D03*
D78*
X86030000Y-22700000D03*
X83490000Y-22700000D03*
X75920000Y-22700000D03*
X73380000Y-22700000D03*
D79*
X87650000Y-30710000D03*
X71750000Y-30710000D03*
D25*
X76012500Y-44280000D03*
X76012500Y-43320000D03*
D80*
X48850000Y-70740000D03*
X48850000Y-70240000D03*
X48850000Y-69740000D03*
X48850000Y-69240000D03*
X48850000Y-68740000D03*
X48850000Y-68240000D03*
X48850000Y-67740000D03*
X48850000Y-67240000D03*
X48850000Y-66740000D03*
X48850000Y-66240000D03*
X48850000Y-65740000D03*
X48850000Y-65240000D03*
X48850000Y-64740000D03*
X48850000Y-64240000D03*
X48850000Y-63740000D03*
X48850000Y-63240000D03*
X48850000Y-62740000D03*
X48850000Y-62240000D03*
X48850000Y-61740000D03*
X48850000Y-61240000D03*
X48850000Y-60740000D03*
X48850000Y-60240000D03*
X48850000Y-59740000D03*
X48850000Y-59240000D03*
D81*
X46270000Y-72430000D03*
X46270000Y-57550000D03*
D25*
X27600000Y-53290000D03*
X27600000Y-52330000D03*
D54*
X41268750Y-90549995D03*
X42818750Y-90549995D03*
D35*
X57590000Y-87400000D03*
X58610000Y-87400000D03*
D10*
X88500000Y-38612500D03*
X88500000Y-40187500D03*
D34*
X78790000Y-84650000D03*
X79810000Y-84650000D03*
D82*
X60850000Y-30950000D03*
X58950000Y-30950000D03*
X59900000Y-33250000D03*
D25*
X52300000Y-65480000D03*
X52300000Y-64520000D03*
D83*
X44300000Y-26537500D03*
X44300000Y-28662500D03*
D84*
X58500000Y-45000000D03*
X54500000Y-45000000D03*
D66*
X46262500Y-43350000D03*
X44137500Y-43350000D03*
D11*
X52835000Y-51575000D03*
X52835000Y-53225000D03*
D54*
X67225000Y-89900000D03*
X68775000Y-89900000D03*
D34*
X76780000Y-84650000D03*
X77800000Y-84650000D03*
D21*
X36900000Y-46060000D03*
X36900000Y-45040000D03*
D15*
X85325000Y-51200000D03*
X83675000Y-51200000D03*
D49*
X34700000Y-54660000D03*
X28100000Y-54660000D03*
X34700000Y-50960000D03*
X28100000Y-50960000D03*
D50*
X31410000Y-72000000D03*
D51*
X33590000Y-72000000D03*
D14*
X58400000Y-63920000D03*
X58400000Y-64880000D03*
D69*
X36500000Y-52610000D03*
X36500000Y-51210000D03*
D35*
X53790000Y-73010000D03*
X54810000Y-73010000D03*
M02*
