%TF.GenerationSoftware,KiCad,Pcbnew,(6.0.8-1)-1*%
%TF.CreationDate,2022-11-24T03:44:56+08:00*%
%TF.ProjectId,CCTV3_F407_REV200,43435456-335f-4463-9430-375f52455632,rev?*%
%TF.SameCoordinates,Original*%
%TF.FileFunction,Soldermask,Bot*%
%TF.FilePolarity,Negative*%
%FSLAX46Y46*%
G04 Gerber Fmt 4.6, Leading zero omitted, Abs format (unit mm)*
G04 Created by KiCad (PCBNEW (6.0.8-1)-1) date 2022-11-24 03:44:56*
%MOMM*%
%LPD*%
G01*
G04 APERTURE LIST*
G04 Aperture macros list*
%AMRoundRect*
0 Rectangle with rounded corners*
0 $1 Rounding radius*
0 $2 $3 $4 $5 $6 $7 $8 $9 X,Y pos of 4 corners*
0 Add a 4 corners polygon primitive as box body*
4,1,4,$2,$3,$4,$5,$6,$7,$8,$9,$2,$3,0*
0 Add four circle primitives for the rounded corners*
1,1,$1+$1,$2,$3*
1,1,$1+$1,$4,$5*
1,1,$1+$1,$6,$7*
1,1,$1+$1,$8,$9*
0 Add four rect primitives between the rounded corners*
20,1,$1+$1,$2,$3,$4,$5,0*
20,1,$1+$1,$4,$5,$6,$7,0*
20,1,$1+$1,$6,$7,$8,$9,0*
20,1,$1+$1,$8,$9,$2,$3,0*%
G04 Aperture macros list end*
%ADD10O,1.700000X1.700000*%
%ADD11R,1.700000X1.700000*%
%ADD12C,3.200000*%
%ADD13RoundRect,0.250000X-1.550000X0.750000X-1.550000X-0.750000X1.550000X-0.750000X1.550000X0.750000X0*%
%ADD14O,3.600000X2.000000*%
%ADD15R,3.500000X3.500000*%
%ADD16RoundRect,0.750000X-0.750000X-1.000000X0.750000X-1.000000X0.750000X1.000000X-0.750000X1.000000X0*%
%ADD17RoundRect,0.875000X-0.875000X-0.875000X0.875000X-0.875000X0.875000X0.875000X-0.875000X0.875000X0*%
%ADD18C,1.000000*%
%ADD19C,1.800000*%
%ADD20O,1.000000X1.550000*%
%ADD21O,1.250000X0.950000*%
%ADD22C,1.300000*%
%ADD23C,1.600000*%
%ADD24C,2.540000*%
G04 APERTURE END LIST*
D10*
X86650000Y-85540000D03*
X86650000Y-83000000D03*
X86650000Y-80460000D03*
D11*
X86650000Y-77920000D03*
D12*
X25000000Y-33500000D03*
X35000000Y-85000000D03*
D11*
X50260000Y-48900000D03*
D10*
X52800000Y-48900000D03*
X55340000Y-48900000D03*
X57880000Y-48900000D03*
X60420000Y-48900000D03*
D13*
X26777500Y-86000000D03*
D14*
X26777500Y-91000000D03*
X26777500Y-96000000D03*
D15*
X33900000Y-24800000D03*
D16*
X27900000Y-24800000D03*
D17*
X30900000Y-29500000D03*
D11*
X44075000Y-81100000D03*
D10*
X41535000Y-81100000D03*
D18*
X58800000Y-79400000D03*
X58800000Y-80650000D03*
D11*
X22305000Y-39175000D03*
D10*
X22305000Y-41715000D03*
D11*
X59300000Y-23000000D03*
D10*
X56760000Y-23000000D03*
X54220000Y-23000000D03*
X51680000Y-23000000D03*
D12*
X86000000Y-96000000D03*
D19*
X76200000Y-90300000D03*
X76200000Y-95300000D03*
D20*
X69537500Y-22750000D03*
X62537500Y-22750000D03*
D21*
X68537500Y-25450000D03*
X63537500Y-25450000D03*
D12*
X69200000Y-45600000D03*
D11*
X45200000Y-46050000D03*
D10*
X42660000Y-46050000D03*
D12*
X73990000Y-26810000D03*
X85420000Y-26810000D03*
D22*
X84140000Y-33160000D03*
X82880000Y-35700000D03*
X81600000Y-33160000D03*
X80340000Y-35700000D03*
X79070000Y-33160000D03*
X77800000Y-35700000D03*
X76530000Y-33160000D03*
X75260000Y-35700000D03*
D23*
X86030000Y-22700000D03*
X83490000Y-22700000D03*
X75920000Y-22700000D03*
X73380000Y-22700000D03*
D24*
X87650000Y-30710000D03*
X71750000Y-30710000D03*
M02*
