%TF.GenerationSoftware,KiCad,Pcbnew,(6.0.8-1)-1*%
%TF.CreationDate,2022-11-24T03:44:55+08:00*%
%TF.ProjectId,CCTV3_F407_REV200,43435456-335f-4463-9430-375f52455632,rev?*%
%TF.SameCoordinates,Original*%
%TF.FileFunction,Copper,L1,Top*%
%TF.FilePolarity,Positive*%
%FSLAX46Y46*%
G04 Gerber Fmt 4.6, Leading zero omitted, Abs format (unit mm)*
G04 Created by KiCad (PCBNEW (6.0.8-1)-1) date 2022-11-24 03:44:55*
%MOMM*%
%LPD*%
G01*
G04 APERTURE LIST*
G04 Aperture macros list*
%AMRoundRect*
0 Rectangle with rounded corners*
0 $1 Rounding radius*
0 $2 $3 $4 $5 $6 $7 $8 $9 X,Y pos of 4 corners*
0 Add a 4 corners polygon primitive as box body*
4,1,4,$2,$3,$4,$5,$6,$7,$8,$9,$2,$3,0*
0 Add four circle primitives for the rounded corners*
1,1,$1+$1,$2,$3*
1,1,$1+$1,$4,$5*
1,1,$1+$1,$6,$7*
1,1,$1+$1,$8,$9*
0 Add four rect primitives between the rounded corners*
20,1,$1+$1,$2,$3,$4,$5,0*
20,1,$1+$1,$4,$5,$6,$7,0*
20,1,$1+$1,$6,$7,$8,$9,0*
20,1,$1+$1,$8,$9,$2,$3,0*%
%AMFreePoly0*
4,1,20,0.000000,0.744959,0.073905,0.744508,0.209726,0.703889,0.328688,0.626782,0.421226,0.519385,0.479903,0.390333,0.500000,0.250000,0.500000,-0.250000,0.499851,-0.262216,0.476331,-0.402017,0.414519,-0.529596,0.319384,-0.634700,0.198574,-0.708877,0.061801,-0.746166,0.000000,-0.745033,0.000000,-0.750000,-0.500000,-0.750000,-0.500000,0.750000,0.000000,0.750000,0.000000,0.744959,
0.000000,0.744959,$1*%
%AMFreePoly1*
4,1,22,0.500000,-0.750000,0.000000,-0.750000,0.000000,-0.745033,-0.079941,-0.743568,-0.215256,-0.701293,-0.333266,-0.622738,-0.424486,-0.514219,-0.481581,-0.384460,-0.499164,-0.250000,-0.500000,-0.250000,-0.500000,0.250000,-0.499164,0.250000,-0.499963,0.256109,-0.478152,0.396186,-0.417904,0.524511,-0.324060,0.630769,-0.204165,0.706417,-0.067858,0.745374,0.000000,0.744959,0.000000,0.750000,
0.500000,0.750000,0.500000,-0.750000,0.500000,-0.750000,$1*%
G04 Aperture macros list end*
%TA.AperFunction,SMDPad,CuDef*%
%ADD10RoundRect,0.218750X-0.256250X0.218750X-0.256250X-0.218750X0.256250X-0.218750X0.256250X0.218750X0*%
%TD*%
%TA.AperFunction,SMDPad,CuDef*%
%ADD11RoundRect,0.200000X-0.275000X0.200000X-0.275000X-0.200000X0.275000X-0.200000X0.275000X0.200000X0*%
%TD*%
%TA.AperFunction,SMDPad,CuDef*%
%ADD12R,2.460000X1.050000*%
%TD*%
%TA.AperFunction,SMDPad,CuDef*%
%ADD13R,2.460000X3.540000*%
%TD*%
%TA.AperFunction,SMDPad,CuDef*%
%ADD14RoundRect,0.140000X-0.170000X0.140000X-0.170000X-0.140000X0.170000X-0.140000X0.170000X0.140000X0*%
%TD*%
%TA.AperFunction,SMDPad,CuDef*%
%ADD15RoundRect,0.200000X0.200000X0.275000X-0.200000X0.275000X-0.200000X-0.275000X0.200000X-0.275000X0*%
%TD*%
%TA.AperFunction,SMDPad,CuDef*%
%ADD16R,1.200000X1.200000*%
%TD*%
%TA.AperFunction,SMDPad,CuDef*%
%ADD17R,1.500000X1.600000*%
%TD*%
%TA.AperFunction,SMDPad,CuDef*%
%ADD18RoundRect,0.140000X0.140000X0.170000X-0.140000X0.170000X-0.140000X-0.170000X0.140000X-0.170000X0*%
%TD*%
%TA.AperFunction,SMDPad,CuDef*%
%ADD19RoundRect,0.225000X-0.250000X0.225000X-0.250000X-0.225000X0.250000X-0.225000X0.250000X0.225000X0*%
%TD*%
%TA.AperFunction,SMDPad,CuDef*%
%ADD20R,1.610000X2.380000*%
%TD*%
%TA.AperFunction,SMDPad,CuDef*%
%ADD21RoundRect,0.135000X0.185000X-0.135000X0.185000X0.135000X-0.185000X0.135000X-0.185000X-0.135000X0*%
%TD*%
%TA.AperFunction,SMDPad,CuDef*%
%ADD22R,1.100000X1.100000*%
%TD*%
%TA.AperFunction,SMDPad,CuDef*%
%ADD23R,2.500000X1.100000*%
%TD*%
%TA.AperFunction,SMDPad,CuDef*%
%ADD24R,2.340000X3.600000*%
%TD*%
%TA.AperFunction,ComponentPad*%
%ADD25O,1.700000X1.700000*%
%TD*%
%TA.AperFunction,ComponentPad*%
%ADD26R,1.700000X1.700000*%
%TD*%
%TA.AperFunction,SMDPad,CuDef*%
%ADD27RoundRect,0.140000X0.170000X-0.140000X0.170000X0.140000X-0.170000X0.140000X-0.170000X-0.140000X0*%
%TD*%
%TA.AperFunction,SMDPad,CuDef*%
%ADD28R,1.100000X1.700000*%
%TD*%
%TA.AperFunction,SMDPad,CuDef*%
%ADD29RoundRect,0.200000X0.275000X-0.200000X0.275000X0.200000X-0.275000X0.200000X-0.275000X-0.200000X0*%
%TD*%
%TA.AperFunction,SMDPad,CuDef*%
%ADD30RoundRect,0.062500X-0.350000X-0.062500X0.350000X-0.062500X0.350000X0.062500X-0.350000X0.062500X0*%
%TD*%
%TA.AperFunction,SMDPad,CuDef*%
%ADD31RoundRect,0.062500X-0.062500X-0.350000X0.062500X-0.350000X0.062500X0.350000X-0.062500X0.350000X0*%
%TD*%
%TA.AperFunction,SMDPad,CuDef*%
%ADD32R,2.600000X2.600000*%
%TD*%
%TA.AperFunction,SMDPad,CuDef*%
%ADD33RoundRect,0.225000X0.225000X0.250000X-0.225000X0.250000X-0.225000X-0.250000X0.225000X-0.250000X0*%
%TD*%
%TA.AperFunction,SMDPad,CuDef*%
%ADD34R,1.000000X0.550000*%
%TD*%
%TA.AperFunction,SMDPad,CuDef*%
%ADD35R,0.550000X1.000000*%
%TD*%
%TA.AperFunction,SMDPad,CuDef*%
%ADD36RoundRect,0.135000X0.135000X0.185000X-0.135000X0.185000X-0.135000X-0.185000X0.135000X-0.185000X0*%
%TD*%
%TA.AperFunction,SMDPad,CuDef*%
%ADD37RoundRect,0.135000X-0.135000X-0.185000X0.135000X-0.185000X0.135000X0.185000X-0.135000X0.185000X0*%
%TD*%
%TA.AperFunction,SMDPad,CuDef*%
%ADD38R,0.700000X1.250000*%
%TD*%
%TA.AperFunction,SMDPad,CuDef*%
%ADD39RoundRect,0.140000X-0.140000X-0.170000X0.140000X-0.170000X0.140000X0.170000X-0.140000X0.170000X0*%
%TD*%
%TA.AperFunction,SMDPad,CuDef*%
%ADD40R,0.600000X1.070000*%
%TD*%
%TA.AperFunction,SMDPad,CuDef*%
%ADD41RoundRect,0.218750X0.218750X0.256250X-0.218750X0.256250X-0.218750X-0.256250X0.218750X-0.256250X0*%
%TD*%
%TA.AperFunction,SMDPad,CuDef*%
%ADD42R,1.400000X1.200000*%
%TD*%
%TA.AperFunction,SMDPad,CuDef*%
%ADD43RoundRect,0.218750X-0.218750X-0.256250X0.218750X-0.256250X0.218750X0.256250X-0.218750X0.256250X0*%
%TD*%
%TA.AperFunction,SMDPad,CuDef*%
%ADD44RoundRect,0.200000X-0.200000X-0.275000X0.200000X-0.275000X0.200000X0.275000X-0.200000X0.275000X0*%
%TD*%
%TA.AperFunction,SMDPad,CuDef*%
%ADD45RoundRect,0.135000X-0.185000X0.135000X-0.185000X-0.135000X0.185000X-0.135000X0.185000X0.135000X0*%
%TD*%
%TA.AperFunction,SMDPad,CuDef*%
%ADD46R,1.070000X0.600000*%
%TD*%
%TA.AperFunction,ComponentPad*%
%ADD47RoundRect,0.250000X-1.550000X0.750000X-1.550000X-0.750000X1.550000X-0.750000X1.550000X0.750000X0*%
%TD*%
%TA.AperFunction,ComponentPad*%
%ADD48O,3.600000X2.000000*%
%TD*%
%TA.AperFunction,SMDPad,CuDef*%
%ADD49RoundRect,0.225000X0.250000X-0.225000X0.250000X0.225000X-0.250000X0.225000X-0.250000X-0.225000X0*%
%TD*%
%TA.AperFunction,SMDPad,CuDef*%
%ADD50RoundRect,0.075000X0.075000X-0.725000X0.075000X0.725000X-0.075000X0.725000X-0.075000X-0.725000X0*%
%TD*%
%TA.AperFunction,SMDPad,CuDef*%
%ADD51RoundRect,0.075000X0.725000X-0.075000X0.725000X0.075000X-0.725000X0.075000X-0.725000X-0.075000X0*%
%TD*%
%TA.AperFunction,SMDPad,CuDef*%
%ADD52R,1.000000X1.800000*%
%TD*%
%TA.AperFunction,SMDPad,CuDef*%
%ADD53R,1.700000X1.000000*%
%TD*%
%TA.AperFunction,SMDPad,CuDef*%
%ADD54R,2.330000X2.380000*%
%TD*%
%TA.AperFunction,SMDPad,CuDef*%
%ADD55R,1.100000X2.380000*%
%TD*%
%TA.AperFunction,ComponentPad*%
%ADD56R,3.500000X3.500000*%
%TD*%
%TA.AperFunction,ComponentPad*%
%ADD57RoundRect,0.750000X-0.750000X-1.000000X0.750000X-1.000000X0.750000X1.000000X-0.750000X1.000000X0*%
%TD*%
%TA.AperFunction,ComponentPad*%
%ADD58RoundRect,0.875000X-0.875000X-0.875000X0.875000X-0.875000X0.875000X0.875000X-0.875000X0.875000X0*%
%TD*%
%TA.AperFunction,SMDPad,CuDef*%
%ADD59R,0.600000X0.700000*%
%TD*%
%TA.AperFunction,SMDPad,CuDef*%
%ADD60FreePoly0,180.000000*%
%TD*%
%TA.AperFunction,SMDPad,CuDef*%
%ADD61FreePoly1,180.000000*%
%TD*%
%TA.AperFunction,SMDPad,CuDef*%
%ADD62RoundRect,0.250000X0.312500X1.450000X-0.312500X1.450000X-0.312500X-1.450000X0.312500X-1.450000X0*%
%TD*%
%TA.AperFunction,SMDPad,CuDef*%
%ADD63RoundRect,0.225000X-0.225000X-0.250000X0.225000X-0.250000X0.225000X0.250000X-0.225000X0.250000X0*%
%TD*%
%TA.AperFunction,SMDPad,CuDef*%
%ADD64RoundRect,0.250000X1.450000X-0.312500X1.450000X0.312500X-1.450000X0.312500X-1.450000X-0.312500X0*%
%TD*%
%TA.AperFunction,SMDPad,CuDef*%
%ADD65R,3.260000X1.150000*%
%TD*%
%TA.AperFunction,SMDPad,CuDef*%
%ADD66RoundRect,0.218750X0.256250X-0.218750X0.256250X0.218750X-0.256250X0.218750X-0.256250X-0.218750X0*%
%TD*%
%TA.AperFunction,ComponentPad*%
%ADD67C,1.000000*%
%TD*%
%TA.AperFunction,SMDPad,CuDef*%
%ADD68RoundRect,0.250000X-0.325000X-0.650000X0.325000X-0.650000X0.325000X0.650000X-0.325000X0.650000X0*%
%TD*%
%TA.AperFunction,SMDPad,CuDef*%
%ADD69R,1.250000X0.700000*%
%TD*%
%TA.AperFunction,SMDPad,CuDef*%
%ADD70R,0.600000X1.000000*%
%TD*%
%TA.AperFunction,SMDPad,CuDef*%
%ADD71RoundRect,0.218750X0.381250X-0.218750X0.381250X0.218750X-0.381250X0.218750X-0.381250X-0.218750X0*%
%TD*%
%TA.AperFunction,SMDPad,CuDef*%
%ADD72R,1.000000X0.600000*%
%TD*%
%TA.AperFunction,SMDPad,CuDef*%
%ADD73O,1.950000X0.570000*%
%TD*%
%TA.AperFunction,SMDPad,CuDef*%
%ADD74R,1.200000X1.400000*%
%TD*%
%TA.AperFunction,SMDPad,CuDef*%
%ADD75RoundRect,0.218750X0.218750X0.381250X-0.218750X0.381250X-0.218750X-0.381250X0.218750X-0.381250X0*%
%TD*%
%TA.AperFunction,SMDPad,CuDef*%
%ADD76R,0.800000X0.500000*%
%TD*%
%TA.AperFunction,SMDPad,CuDef*%
%ADD77RoundRect,0.243750X0.456250X-0.243750X0.456250X0.243750X-0.456250X0.243750X-0.456250X-0.243750X0*%
%TD*%
%TA.AperFunction,SMDPad,CuDef*%
%ADD78R,0.700000X0.600000*%
%TD*%
%TA.AperFunction,SMDPad,CuDef*%
%ADD79R,1.150000X3.260000*%
%TD*%
%TA.AperFunction,SMDPad,CuDef*%
%ADD80O,2.250000X0.630000*%
%TD*%
%TA.AperFunction,ComponentPad*%
%ADD81C,1.800000*%
%TD*%
%TA.AperFunction,ComponentPad*%
%ADD82O,1.000000X1.550000*%
%TD*%
%TA.AperFunction,ComponentPad*%
%ADD83O,1.250000X0.950000*%
%TD*%
%TA.AperFunction,SMDPad,CuDef*%
%ADD84R,0.400000X1.350000*%
%TD*%
%TA.AperFunction,SMDPad,CuDef*%
%ADD85R,1.800000X2.500000*%
%TD*%
%TA.AperFunction,ComponentPad*%
%ADD86C,3.200000*%
%TD*%
%TA.AperFunction,ComponentPad*%
%ADD87C,1.300000*%
%TD*%
%TA.AperFunction,ComponentPad*%
%ADD88C,1.600000*%
%TD*%
%TA.AperFunction,ComponentPad*%
%ADD89C,2.540000*%
%TD*%
%TA.AperFunction,SMDPad,CuDef*%
%ADD90R,1.250000X0.300000*%
%TD*%
%TA.AperFunction,SMDPad,CuDef*%
%ADD91R,2.500000X2.000000*%
%TD*%
%TA.AperFunction,SMDPad,CuDef*%
%ADD92R,0.800000X1.000000*%
%TD*%
%TA.AperFunction,SMDPad,CuDef*%
%ADD93RoundRect,0.218750X-0.381250X0.218750X-0.381250X-0.218750X0.381250X-0.218750X0.381250X0.218750X0*%
%TD*%
%TA.AperFunction,SMDPad,CuDef*%
%ADD94R,2.500000X1.800000*%
%TD*%
%TA.AperFunction,ViaPad*%
%ADD95C,0.600000*%
%TD*%
%TA.AperFunction,ViaPad*%
%ADD96C,0.800000*%
%TD*%
%TA.AperFunction,ViaPad*%
%ADD97C,0.450000*%
%TD*%
%TA.AperFunction,Conductor*%
%ADD98C,0.500000*%
%TD*%
%TA.AperFunction,Conductor*%
%ADD99C,0.750000*%
%TD*%
%TA.AperFunction,Conductor*%
%ADD100C,1.000000*%
%TD*%
%TA.AperFunction,Conductor*%
%ADD101C,1.500000*%
%TD*%
%TA.AperFunction,Conductor*%
%ADD102C,0.300000*%
%TD*%
%TA.AperFunction,Conductor*%
%ADD103C,0.220500*%
%TD*%
%TA.AperFunction,Conductor*%
%ADD104C,0.250000*%
%TD*%
%TA.AperFunction,Conductor*%
%ADD105C,0.349300*%
%TD*%
%TA.AperFunction,Conductor*%
%ADD106C,0.400000*%
%TD*%
%TA.AperFunction,Conductor*%
%ADD107C,0.176500*%
%TD*%
%TA.AperFunction,Conductor*%
%ADD108C,0.286000*%
%TD*%
G04 APERTURE END LIST*
D10*
X69200000Y-26912500D03*
X69200000Y-28487500D03*
D11*
X87000000Y-45175000D03*
X87000000Y-46825000D03*
D12*
X53940000Y-34300000D03*
X53940000Y-36600000D03*
X53940000Y-38900000D03*
D13*
X59660000Y-36600000D03*
D14*
X26500005Y-77620000D03*
X26500005Y-78580000D03*
D15*
X39868750Y-89049995D03*
X38218750Y-89049995D03*
D16*
X33623750Y-91099995D03*
D17*
X36863750Y-92099995D03*
D16*
X33623750Y-93099995D03*
D18*
X61280000Y-71700000D03*
X60320000Y-71700000D03*
D19*
X38400000Y-46075000D03*
X38400000Y-47625000D03*
D18*
X61880000Y-74720000D03*
X60920000Y-74720000D03*
D20*
X27100000Y-45800000D03*
X30700000Y-45800000D03*
D21*
X52790000Y-72980000D03*
X52790000Y-71960000D03*
D22*
X35293750Y-95049995D03*
X35293750Y-97849995D03*
D23*
X31670000Y-43100000D03*
X31670000Y-40800000D03*
X31670000Y-38500000D03*
D24*
X25730000Y-40800000D03*
D22*
X68400000Y-91500000D03*
X68400000Y-94300000D03*
D25*
X86650000Y-85540000D03*
X86650000Y-83000000D03*
X86650000Y-80460000D03*
D26*
X86650000Y-77920000D03*
D18*
X82880000Y-38400000D03*
X81920000Y-38400000D03*
D14*
X50300000Y-64520000D03*
X50300000Y-65480000D03*
D27*
X44041250Y-86374995D03*
X44041250Y-85414995D03*
D28*
X62425000Y-27700000D03*
X59025000Y-27700000D03*
D29*
X66600000Y-37725000D03*
X66600000Y-36075000D03*
D30*
X78362500Y-48850000D03*
X78362500Y-49350000D03*
X78362500Y-49850000D03*
X78362500Y-50350000D03*
X78362500Y-50850000D03*
X78362500Y-51350000D03*
D31*
X79050000Y-52037500D03*
X79550000Y-52037500D03*
X80050000Y-52037500D03*
X80550000Y-52037500D03*
X81050000Y-52037500D03*
X81550000Y-52037500D03*
D30*
X82237500Y-51350000D03*
X82237500Y-50850000D03*
X82237500Y-50350000D03*
X82237500Y-49850000D03*
X82237500Y-49350000D03*
X82237500Y-48850000D03*
D31*
X81550000Y-48162500D03*
X81050000Y-48162500D03*
X80550000Y-48162500D03*
X80050000Y-48162500D03*
X79550000Y-48162500D03*
X79050000Y-48162500D03*
D32*
X80300000Y-50100000D03*
D18*
X74535000Y-52775000D03*
X73575000Y-52775000D03*
D33*
X42818750Y-89049995D03*
X41268750Y-89049995D03*
X35475000Y-41950000D03*
X33925000Y-41950000D03*
D34*
X84000000Y-82750000D03*
X84000000Y-83700000D03*
X84000000Y-84650000D03*
X81200000Y-84650000D03*
X81200000Y-83700000D03*
X81200000Y-82750000D03*
D21*
X78350000Y-45510000D03*
X78350000Y-44490000D03*
D35*
X65400000Y-32800000D03*
X66350000Y-32800000D03*
X67300000Y-32800000D03*
X67300000Y-30000000D03*
X66350000Y-30000000D03*
X65400000Y-30000000D03*
D27*
X78200000Y-54280000D03*
X78200000Y-53320000D03*
D36*
X53920000Y-56700000D03*
X52900000Y-56700000D03*
D26*
X50260000Y-48900000D03*
D25*
X52800000Y-48900000D03*
X55340000Y-48900000D03*
X57880000Y-48900000D03*
X60420000Y-48900000D03*
D37*
X53790000Y-72010000D03*
X54810000Y-72010000D03*
D38*
X54450000Y-88800000D03*
X52550000Y-88800000D03*
X53500000Y-90800000D03*
D39*
X55520000Y-67800000D03*
X56480000Y-67800000D03*
D40*
X61150000Y-81240000D03*
X63050000Y-81240000D03*
X62100000Y-78760000D03*
D37*
X24240000Y-64000000D03*
X25260000Y-64000000D03*
D27*
X61000000Y-57080000D03*
X61000000Y-56120000D03*
X78300000Y-59200000D03*
X78300000Y-58240000D03*
D18*
X48620000Y-88400000D03*
X49580000Y-88400000D03*
D41*
X55147500Y-69250000D03*
X53572500Y-69250000D03*
D10*
X70300000Y-88312500D03*
X70300000Y-89887500D03*
D42*
X67400000Y-77900000D03*
X69600000Y-77900000D03*
X69600000Y-76140000D03*
X67400000Y-76140000D03*
D43*
X49387500Y-89700000D03*
X47812500Y-89700000D03*
D44*
X71975000Y-38700000D03*
X73625000Y-38700000D03*
D45*
X20930000Y-44640000D03*
X20930000Y-45660000D03*
D44*
X71975000Y-40200000D03*
X73625000Y-40200000D03*
D45*
X32300000Y-44290000D03*
X32300000Y-45310000D03*
D27*
X51810000Y-72930000D03*
X51810000Y-71970000D03*
D19*
X33930000Y-38400000D03*
X33930000Y-39950000D03*
D15*
X82475000Y-80900000D03*
X84125000Y-80900000D03*
D11*
X88500000Y-45175000D03*
X88500000Y-46825000D03*
D18*
X73480000Y-74420000D03*
X72520000Y-74420000D03*
D21*
X81450000Y-44310000D03*
X81450000Y-43290000D03*
D18*
X71580000Y-74420000D03*
X70620000Y-74420000D03*
D14*
X78300000Y-69840000D03*
X78300000Y-70800000D03*
D37*
X51990000Y-87400000D03*
X53010000Y-87400000D03*
D18*
X63780000Y-55200000D03*
X62820000Y-55200000D03*
D15*
X51525000Y-43400000D03*
X49875000Y-43400000D03*
D46*
X51540000Y-39400000D03*
X51540000Y-37500000D03*
X49060000Y-38450000D03*
D47*
X26777500Y-86000000D03*
D48*
X26777500Y-91000000D03*
X26777500Y-96000000D03*
D34*
X76000000Y-40050000D03*
X76000000Y-41000000D03*
X76000000Y-41950000D03*
X78800000Y-41950000D03*
X78800000Y-41000000D03*
X78800000Y-40050000D03*
D44*
X67475000Y-53600000D03*
X69125000Y-53600000D03*
D27*
X77300000Y-57880000D03*
X77300000Y-56920000D03*
D21*
X26500005Y-75910000D03*
X26500005Y-74890000D03*
D49*
X44200000Y-41725000D03*
X44200000Y-40175000D03*
D35*
X56285000Y-51500000D03*
X55335000Y-51500000D03*
X54385000Y-51500000D03*
X54385000Y-54300000D03*
X55335000Y-54300000D03*
X56285000Y-54300000D03*
D50*
X63000000Y-72495000D03*
X63500000Y-72495000D03*
X64000000Y-72495000D03*
X64500000Y-72495000D03*
X65000000Y-72495000D03*
X65500000Y-72495000D03*
X66000000Y-72495000D03*
X66500000Y-72495000D03*
X67000000Y-72495000D03*
X67500000Y-72495000D03*
X68000000Y-72495000D03*
X68500000Y-72495000D03*
X69000000Y-72495000D03*
X69500000Y-72495000D03*
X70000000Y-72495000D03*
X70500000Y-72495000D03*
X71000000Y-72495000D03*
X71500000Y-72495000D03*
X72000000Y-72495000D03*
X72500000Y-72495000D03*
X73000000Y-72495000D03*
X73500000Y-72495000D03*
X74000000Y-72495000D03*
X74500000Y-72495000D03*
X75000000Y-72495000D03*
D51*
X76675000Y-70820000D03*
X76675000Y-70320000D03*
X76675000Y-69820000D03*
X76675000Y-69320000D03*
X76675000Y-68820000D03*
X76675000Y-68320000D03*
X76675000Y-67820000D03*
X76675000Y-67320000D03*
X76675000Y-66820000D03*
X76675000Y-66320000D03*
X76675000Y-65820000D03*
X76675000Y-65320000D03*
X76675000Y-64820000D03*
X76675000Y-64320000D03*
X76675000Y-63820000D03*
X76675000Y-63320000D03*
X76675000Y-62820000D03*
X76675000Y-62320000D03*
X76675000Y-61820000D03*
X76675000Y-61320000D03*
X76675000Y-60820000D03*
X76675000Y-60320000D03*
X76675000Y-59820000D03*
X76675000Y-59320000D03*
X76675000Y-58820000D03*
D50*
X75000000Y-57145000D03*
X74500000Y-57145000D03*
X74000000Y-57145000D03*
X73500000Y-57145000D03*
X73000000Y-57145000D03*
X72500000Y-57145000D03*
X72000000Y-57145000D03*
X71500000Y-57145000D03*
X71000000Y-57145000D03*
X70500000Y-57145000D03*
X70000000Y-57145000D03*
X69500000Y-57145000D03*
X69000000Y-57145000D03*
X68500000Y-57145000D03*
X68000000Y-57145000D03*
X67500000Y-57145000D03*
X67000000Y-57145000D03*
X66500000Y-57145000D03*
X66000000Y-57145000D03*
X65500000Y-57145000D03*
X65000000Y-57145000D03*
X64500000Y-57145000D03*
X64000000Y-57145000D03*
X63500000Y-57145000D03*
X63000000Y-57145000D03*
D51*
X61325000Y-58820000D03*
X61325000Y-59320000D03*
X61325000Y-59820000D03*
X61325000Y-60320000D03*
X61325000Y-60820000D03*
X61325000Y-61320000D03*
X61325000Y-61820000D03*
X61325000Y-62320000D03*
X61325000Y-62820000D03*
X61325000Y-63320000D03*
X61325000Y-63820000D03*
X61325000Y-64320000D03*
X61325000Y-64820000D03*
X61325000Y-65320000D03*
X61325000Y-65820000D03*
X61325000Y-66320000D03*
X61325000Y-66820000D03*
X61325000Y-67320000D03*
X61325000Y-67820000D03*
X61325000Y-68320000D03*
X61325000Y-68820000D03*
X61325000Y-69320000D03*
X61325000Y-69820000D03*
X61325000Y-70320000D03*
X61325000Y-70820000D03*
D52*
X61150000Y-76220000D03*
X63650000Y-76220000D03*
D34*
X84800000Y-41950000D03*
X84800000Y-41000000D03*
X84800000Y-40050000D03*
X82000000Y-40050000D03*
X82000000Y-41000000D03*
X82000000Y-41950000D03*
D11*
X57835000Y-51575000D03*
X57835000Y-53225000D03*
D19*
X50100000Y-34450000D03*
X50100000Y-36000000D03*
D27*
X76900000Y-48480000D03*
X76900000Y-47520000D03*
D53*
X28100005Y-74850000D03*
X34700005Y-74850000D03*
X28100005Y-78550000D03*
X34700005Y-78550000D03*
D37*
X77890000Y-46800000D03*
X78910000Y-46800000D03*
D49*
X50600000Y-69225000D03*
X50600000Y-70775000D03*
D54*
X39410000Y-72000000D03*
D55*
X41590000Y-72000000D03*
D37*
X79810000Y-78350000D03*
X78790000Y-78350000D03*
D36*
X54910000Y-87400000D03*
X53890000Y-87400000D03*
D41*
X55637500Y-74400000D03*
X54062500Y-74400000D03*
D56*
X33900000Y-24800000D03*
D57*
X27900000Y-24800000D03*
D58*
X30900000Y-29500000D03*
D46*
X50440000Y-93700000D03*
X47960000Y-94650000D03*
X47960000Y-92750000D03*
D45*
X49150000Y-73690000D03*
X49150000Y-74710000D03*
D26*
X44075000Y-81100000D03*
D25*
X41535000Y-81100000D03*
D11*
X33293750Y-94874995D03*
X33293750Y-96524995D03*
D59*
X39993750Y-90549995D03*
X38593750Y-90549995D03*
D60*
X77650000Y-82800000D03*
D61*
X78950000Y-82800000D03*
D62*
X57162500Y-28500000D03*
X52887500Y-28500000D03*
D63*
X21625000Y-48400000D03*
X23175000Y-48400000D03*
D36*
X76840000Y-78350000D03*
X77860000Y-78350000D03*
D41*
X75800000Y-45500000D03*
X74225000Y-45500000D03*
D11*
X31793750Y-94874995D03*
X31793750Y-96524995D03*
D49*
X46200000Y-41725000D03*
X46200000Y-40175000D03*
D45*
X68200000Y-95600000D03*
X68200000Y-96620000D03*
D14*
X81300000Y-53920000D03*
X81300000Y-54880000D03*
D38*
X69350000Y-97000000D03*
X71250000Y-97000000D03*
X70300000Y-95000000D03*
D54*
X23410000Y-72000000D03*
D55*
X25590000Y-72000000D03*
D21*
X36500005Y-78210000D03*
X36500005Y-77190000D03*
D64*
X37900000Y-27837500D03*
X37900000Y-23562500D03*
D36*
X23510000Y-66000000D03*
X22490000Y-66000000D03*
D65*
X42450000Y-32300000D03*
X37350000Y-32300000D03*
D54*
X31410000Y-58000000D03*
D55*
X33590000Y-58000000D03*
D19*
X51600000Y-34450000D03*
X51600000Y-36000000D03*
D27*
X58400000Y-66780000D03*
X58400000Y-65820000D03*
D66*
X40925000Y-54687500D03*
X40925000Y-53112500D03*
D67*
X58800000Y-79400000D03*
X58800000Y-80650000D03*
D68*
X42550000Y-55100000D03*
X45500000Y-55100000D03*
D21*
X53300000Y-65510000D03*
X53300000Y-64490000D03*
D39*
X77920000Y-38400000D03*
X78880000Y-38400000D03*
X81720000Y-46800000D03*
X82680000Y-46800000D03*
D21*
X49150000Y-76610000D03*
X49150000Y-75590000D03*
X25500000Y-46910000D03*
X25500000Y-45890000D03*
D33*
X56695000Y-56440000D03*
X55145000Y-56440000D03*
D68*
X42550000Y-52700000D03*
X45500000Y-52700000D03*
D69*
X50500000Y-74250000D03*
X50500000Y-76150000D03*
X52500000Y-75200000D03*
D70*
X22280000Y-46950000D03*
X23230000Y-46950000D03*
X24180000Y-46950000D03*
X24180000Y-44350000D03*
X22280000Y-44350000D03*
D18*
X67860000Y-74730000D03*
X66900000Y-74730000D03*
D26*
X22305000Y-39175000D03*
D25*
X22305000Y-41715000D03*
D41*
X55147500Y-70750000D03*
X53572500Y-70750000D03*
D18*
X63880000Y-74720000D03*
X62920000Y-74720000D03*
D10*
X54300000Y-92312500D03*
X54300000Y-93887500D03*
D71*
X30200000Y-85962500D03*
X30200000Y-83837500D03*
D72*
X57287500Y-66450000D03*
X57287500Y-65500000D03*
X57287500Y-64550000D03*
X54687500Y-64550000D03*
X54687500Y-66450000D03*
D21*
X79350000Y-44310000D03*
X79350000Y-43290000D03*
D44*
X67475000Y-55200000D03*
X69125000Y-55200000D03*
D33*
X47825000Y-96100000D03*
X49375000Y-96100000D03*
D44*
X49875000Y-45000000D03*
X51525000Y-45000000D03*
D39*
X83920000Y-38400000D03*
X84880000Y-38400000D03*
D21*
X82450000Y-45410000D03*
X82450000Y-44390000D03*
D73*
X39141250Y-92254995D03*
X39141250Y-93534995D03*
X39141250Y-94794995D03*
X39141250Y-96064995D03*
X44561250Y-96064995D03*
X44561250Y-94794995D03*
X44561250Y-93534995D03*
X44561250Y-92254995D03*
D74*
X74935000Y-51175000D03*
X74935000Y-48975000D03*
X73175000Y-48975000D03*
X73175000Y-51175000D03*
D11*
X22250000Y-60925000D03*
X22250000Y-62575000D03*
D26*
X59300000Y-23000000D03*
D25*
X56760000Y-23000000D03*
X54220000Y-23000000D03*
X51680000Y-23000000D03*
D75*
X42803750Y-97694995D03*
X40678750Y-97694995D03*
D14*
X80300000Y-53920000D03*
X80300000Y-54880000D03*
D10*
X59800000Y-92312500D03*
X59800000Y-93887500D03*
D36*
X60510000Y-87400000D03*
X59490000Y-87400000D03*
D44*
X59200000Y-29600000D03*
X60850000Y-29600000D03*
D18*
X76980000Y-38400000D03*
X76020000Y-38400000D03*
D54*
X23410000Y-58000000D03*
D55*
X25590000Y-58000000D03*
D76*
X25950000Y-62700000D03*
X25950000Y-61750000D03*
X25950000Y-60800000D03*
X23550000Y-60800000D03*
X23550000Y-61750000D03*
X23550000Y-62700000D03*
D33*
X41318750Y-87549995D03*
X39768750Y-87549995D03*
D68*
X46025000Y-28300000D03*
X48975000Y-28300000D03*
D21*
X36500000Y-54720000D03*
X36500000Y-53700000D03*
D27*
X43041250Y-86374995D03*
X43041250Y-85414995D03*
D15*
X42087500Y-83800000D03*
X40437500Y-83800000D03*
D29*
X58300000Y-93925000D03*
X58300000Y-92275000D03*
X25500000Y-69075000D03*
X25500000Y-67425000D03*
D39*
X73575000Y-47375000D03*
X74535000Y-47375000D03*
D77*
X69000000Y-31937500D03*
X69000000Y-30062500D03*
D78*
X36500005Y-74700000D03*
X36500005Y-76100000D03*
D54*
X39410000Y-58000000D03*
D55*
X41590000Y-58000000D03*
D11*
X51335000Y-51575000D03*
X51335000Y-53225000D03*
D68*
X42125000Y-75600000D03*
X45075000Y-75600000D03*
D39*
X64180000Y-78500000D03*
X63220000Y-78500000D03*
D29*
X52800000Y-93925000D03*
X52800000Y-92275000D03*
D33*
X68775000Y-88300000D03*
X67225000Y-88300000D03*
D44*
X49425000Y-91200000D03*
X47775000Y-91200000D03*
D27*
X74012500Y-44280000D03*
X74012500Y-43320000D03*
D43*
X43575000Y-83800000D03*
X45150000Y-83800000D03*
D45*
X82300000Y-53890000D03*
X82300000Y-54910000D03*
D19*
X52100000Y-69225000D03*
X52100000Y-70775000D03*
D15*
X82475000Y-79400000D03*
X84125000Y-79400000D03*
D41*
X44416250Y-87549995D03*
X42841250Y-87549995D03*
D21*
X68200000Y-98610000D03*
X68200000Y-97590000D03*
D78*
X37293750Y-94799995D03*
X37293750Y-96199995D03*
D27*
X77200000Y-54280000D03*
X77200000Y-53320000D03*
D10*
X40500000Y-76012500D03*
X40500000Y-77587500D03*
D18*
X80880000Y-38400000D03*
X79920000Y-38400000D03*
D27*
X62000000Y-57080000D03*
X62000000Y-56120000D03*
D79*
X39900000Y-43300000D03*
X39900000Y-38200000D03*
D68*
X42125000Y-78000000D03*
X45075000Y-78000000D03*
D80*
X51170000Y-58090000D03*
X51170000Y-59370000D03*
X51170000Y-60630000D03*
X51170000Y-61900000D03*
X58230000Y-61900000D03*
X58230000Y-60630000D03*
X58230000Y-59370000D03*
X58230000Y-58090000D03*
D81*
X76200000Y-90300000D03*
X76200000Y-95300000D03*
D76*
X21800000Y-67300000D03*
X21800000Y-68250000D03*
X21800000Y-69200000D03*
X24200000Y-69200000D03*
X24200000Y-68250000D03*
X24200000Y-67300000D03*
D60*
X77650000Y-80200000D03*
D61*
X78950000Y-80200000D03*
D18*
X58380000Y-67800000D03*
X57420000Y-67800000D03*
D82*
X69537500Y-22750000D03*
X62537500Y-22750000D03*
D83*
X68537500Y-25450000D03*
X63537500Y-25450000D03*
D84*
X64737500Y-25450000D03*
X65387500Y-25450000D03*
X66037500Y-25450000D03*
X66687500Y-25450000D03*
X67337500Y-25450000D03*
D66*
X59335000Y-53187500D03*
X59335000Y-51612500D03*
D62*
X48937500Y-22800000D03*
X44662500Y-22800000D03*
D70*
X35650000Y-43450000D03*
X34700000Y-43450000D03*
X33750000Y-43450000D03*
X33750000Y-46050000D03*
X35650000Y-46050000D03*
D38*
X59950000Y-88800000D03*
X58050000Y-88800000D03*
X59000000Y-90800000D03*
D14*
X71200000Y-76530000D03*
X71200000Y-77490000D03*
D28*
X49900000Y-41500000D03*
X53300000Y-41500000D03*
D85*
X41700000Y-27100000D03*
X41700000Y-23100000D03*
D49*
X56600000Y-70775000D03*
X56600000Y-69225000D03*
D19*
X35430000Y-38400000D03*
X35430000Y-39950000D03*
D18*
X48620000Y-87400000D03*
X49580000Y-87400000D03*
D11*
X70300000Y-91275000D03*
X70300000Y-92925000D03*
D15*
X55675000Y-75900000D03*
X54025000Y-75900000D03*
D20*
X59000000Y-41700000D03*
X55400000Y-41700000D03*
D27*
X65800000Y-77490000D03*
X65800000Y-76530000D03*
D19*
X39900000Y-46075000D03*
X39900000Y-47625000D03*
D27*
X51300000Y-65480000D03*
X51300000Y-64520000D03*
D41*
X82512500Y-77900000D03*
X84087500Y-77900000D03*
D11*
X62400000Y-29475000D03*
X62400000Y-31125000D03*
D18*
X73480000Y-75420000D03*
X72520000Y-75420000D03*
D68*
X48975000Y-26000000D03*
X46025000Y-26000000D03*
D26*
X45200000Y-46050000D03*
D25*
X42660000Y-46050000D03*
D86*
X73990000Y-26810000D03*
X85420000Y-26810000D03*
D87*
X84140000Y-33160000D03*
X82880000Y-35700000D03*
X81600000Y-33160000D03*
X80340000Y-35700000D03*
X79070000Y-33160000D03*
X77800000Y-35700000D03*
X76530000Y-33160000D03*
X75260000Y-35700000D03*
D88*
X86030000Y-22700000D03*
X83490000Y-22700000D03*
X75920000Y-22700000D03*
X73380000Y-22700000D03*
D89*
X87650000Y-30710000D03*
X71750000Y-30710000D03*
D27*
X76012500Y-44280000D03*
X76012500Y-43320000D03*
D90*
X48850000Y-70740000D03*
X48850000Y-70240000D03*
X48850000Y-69740000D03*
X48850000Y-69240000D03*
X48850000Y-68740000D03*
X48850000Y-68240000D03*
X48850000Y-67740000D03*
X48850000Y-67240000D03*
X48850000Y-66740000D03*
X48850000Y-66240000D03*
X48850000Y-65740000D03*
X48850000Y-65240000D03*
X48850000Y-64740000D03*
X48850000Y-64240000D03*
X48850000Y-63740000D03*
X48850000Y-63240000D03*
X48850000Y-62740000D03*
X48850000Y-62240000D03*
X48850000Y-61740000D03*
X48850000Y-61240000D03*
X48850000Y-60740000D03*
X48850000Y-60240000D03*
X48850000Y-59740000D03*
X48850000Y-59240000D03*
D91*
X46270000Y-72430000D03*
X46270000Y-57550000D03*
D27*
X27600000Y-53290000D03*
X27600000Y-52330000D03*
D63*
X41268750Y-90549995D03*
X42818750Y-90549995D03*
D37*
X57590000Y-87400000D03*
X58610000Y-87400000D03*
D10*
X88500000Y-38612500D03*
X88500000Y-40187500D03*
D36*
X78790000Y-84650000D03*
X79810000Y-84650000D03*
D92*
X60850000Y-30950000D03*
X58950000Y-30950000D03*
X59900000Y-33250000D03*
D27*
X52300000Y-65480000D03*
X52300000Y-64520000D03*
D93*
X44300000Y-26537500D03*
X44300000Y-28662500D03*
D94*
X58500000Y-45000000D03*
X54500000Y-45000000D03*
D75*
X46262500Y-43350000D03*
X44137500Y-43350000D03*
D11*
X52835000Y-51575000D03*
X52835000Y-53225000D03*
D63*
X67225000Y-89900000D03*
X68775000Y-89900000D03*
D36*
X76780000Y-84650000D03*
X77800000Y-84650000D03*
D21*
X36900000Y-46060000D03*
X36900000Y-45040000D03*
D15*
X85325000Y-51200000D03*
X83675000Y-51200000D03*
D53*
X34700000Y-54660000D03*
X28100000Y-54660000D03*
X34700000Y-50960000D03*
X28100000Y-50960000D03*
D54*
X31410000Y-72000000D03*
D55*
X33590000Y-72000000D03*
D14*
X58400000Y-63920000D03*
X58400000Y-64880000D03*
D78*
X36500000Y-52610000D03*
X36500000Y-51210000D03*
D37*
X53790000Y-73010000D03*
X54810000Y-73010000D03*
D95*
X46400000Y-89000000D03*
D96*
X33500000Y-37000000D03*
D95*
X44400000Y-90000000D03*
X44400000Y-89000000D03*
D96*
X34500000Y-36000000D03*
X35500000Y-35000000D03*
X31500000Y-35000000D03*
D95*
X45400000Y-91000000D03*
X45400000Y-90000000D03*
X46400000Y-90000000D03*
D96*
X35500000Y-37000000D03*
X33500000Y-35000000D03*
X32500000Y-36000000D03*
D95*
X44400000Y-91000000D03*
D96*
X31500000Y-37000000D03*
D95*
X46400000Y-91000000D03*
X45400000Y-89000000D03*
D96*
X45000000Y-50500000D03*
X43000000Y-50500000D03*
X46000000Y-31000000D03*
X47000000Y-32000000D03*
X46000000Y-33000000D03*
X44000000Y-31000000D03*
X39000000Y-52500000D03*
X45000000Y-30000000D03*
X44000000Y-33000000D03*
X41000000Y-50500000D03*
X39000000Y-50500000D03*
X47000000Y-30000000D03*
X47000000Y-50500000D03*
X45000000Y-32000000D03*
X40000000Y-51500000D03*
D95*
X54600000Y-65500000D03*
X47500000Y-66500000D03*
D96*
X21500000Y-50000000D03*
D95*
X56200000Y-66500000D03*
D97*
X76400000Y-80200000D03*
X76400000Y-82800000D03*
D96*
X34700000Y-77100000D03*
D95*
X56200000Y-64544500D03*
D96*
X23500000Y-52000000D03*
D95*
X37600000Y-54710000D03*
D96*
X25500000Y-50000000D03*
D97*
X76400000Y-57900000D03*
D96*
X22500000Y-53000000D03*
X25500000Y-52000000D03*
D95*
X61100000Y-57800000D03*
D96*
X22500000Y-51000000D03*
D97*
X73300000Y-70400000D03*
D95*
X59800000Y-95100000D03*
D96*
X23500000Y-50000000D03*
D97*
X79200000Y-69800000D03*
X68000000Y-71000000D03*
D95*
X68800000Y-87100000D03*
D97*
X82500000Y-76600000D03*
D95*
X53500000Y-55900000D03*
X49600000Y-86500000D03*
X71800000Y-88300000D03*
D96*
X24500000Y-53000000D03*
D97*
X60500000Y-82400000D03*
D95*
X54300000Y-95100000D03*
D97*
X61893767Y-71293767D03*
D95*
X82300000Y-55700000D03*
D97*
X74900000Y-44300000D03*
D96*
X21500000Y-52000000D03*
X47300000Y-84100000D03*
X21500000Y-54000000D03*
X23500000Y-54000000D03*
D95*
X47400000Y-88500000D03*
D96*
X24500000Y-51000000D03*
D95*
X60600000Y-53200000D03*
D96*
X25494901Y-54000559D03*
D97*
X75800000Y-76200000D03*
X75200000Y-70400000D03*
X83800000Y-50200000D03*
X71500000Y-54300000D03*
D95*
X75200000Y-53700000D03*
D97*
X69500000Y-69000000D03*
X51200000Y-54700000D03*
X77400000Y-55400000D03*
X55600000Y-72600000D03*
X47500000Y-69700000D03*
X47500000Y-68814500D03*
X56500000Y-72600000D03*
X85800000Y-38400000D03*
D96*
X36000000Y-49500000D03*
D95*
X56200000Y-65500000D03*
D96*
X49000000Y-55500000D03*
X48000000Y-36000000D03*
X49900000Y-80000000D03*
D97*
X57500000Y-75200000D03*
X45800000Y-62300000D03*
X75900000Y-56200000D03*
X76800000Y-85600000D03*
X83500000Y-46500000D03*
X53700000Y-57700000D03*
X67000000Y-59600000D03*
D96*
X22500000Y-65000000D03*
X36000000Y-48000000D03*
D97*
X53300000Y-63900000D03*
X75385000Y-47405000D03*
X43800000Y-61700000D03*
D96*
X50150000Y-26500000D03*
D97*
X65900000Y-88300000D03*
D95*
X68100000Y-27900000D03*
D97*
X62700000Y-61100000D03*
D96*
X32000000Y-48000000D03*
D97*
X84600000Y-50200000D03*
D95*
X57700000Y-56900000D03*
X50900000Y-72800000D03*
D96*
X27500000Y-69000000D03*
X27500000Y-66000000D03*
D97*
X77400000Y-71500000D03*
D96*
X32000000Y-49500000D03*
D95*
X60000000Y-56500000D03*
D96*
X47000000Y-53500000D03*
X46500000Y-76500000D03*
D97*
X75000000Y-41000000D03*
D95*
X69900000Y-74420000D03*
X53900000Y-61150500D03*
D97*
X46500000Y-60665500D03*
X69200000Y-98610000D03*
X89000000Y-41500000D03*
D95*
X81300000Y-55700000D03*
D96*
X55900000Y-82000000D03*
X49900000Y-78000000D03*
D97*
X58100000Y-73800000D03*
X78300000Y-57400000D03*
D96*
X23500000Y-64000000D03*
X49900000Y-82000000D03*
X46500000Y-78500000D03*
D97*
X62700000Y-58400000D03*
X76800000Y-46800000D03*
X52300000Y-63900000D03*
X76900000Y-73600000D03*
X72785000Y-52805000D03*
X53800000Y-59000000D03*
X88000000Y-42500000D03*
D96*
X66600000Y-34100000D03*
D95*
X52000000Y-86500000D03*
D97*
X80950000Y-49450000D03*
D96*
X34000000Y-49500000D03*
D97*
X47600000Y-75000000D03*
D96*
X51900000Y-78000000D03*
D97*
X43800000Y-69400000D03*
X76900000Y-77500000D03*
X81600000Y-37500000D03*
D96*
X53900000Y-82000000D03*
D97*
X47400000Y-59000000D03*
X84400000Y-48800000D03*
X62200000Y-74219500D03*
X63200000Y-70674500D03*
D95*
X56700000Y-88900000D03*
D96*
X46500000Y-80500000D03*
X46500000Y-82500000D03*
D97*
X79200000Y-70800000D03*
D96*
X55900000Y-80000000D03*
X37900000Y-74700000D03*
D97*
X83900000Y-48300000D03*
X72200000Y-97000000D03*
X89000000Y-42500000D03*
D96*
X51150000Y-25500000D03*
X47500000Y-81500000D03*
D97*
X72000000Y-41200000D03*
D96*
X25500000Y-66000000D03*
D97*
X79650000Y-50750000D03*
X88000000Y-43500000D03*
X65900000Y-89900000D03*
X80950000Y-50750000D03*
X84900000Y-49500000D03*
D96*
X65200000Y-26900000D03*
D97*
X73900000Y-54849500D03*
D96*
X55900000Y-78000000D03*
D95*
X66100000Y-75820000D03*
D97*
X79650000Y-49450000D03*
D96*
X51900000Y-80000000D03*
D97*
X59700000Y-71700000D03*
X50300000Y-63900000D03*
D96*
X30000000Y-48000000D03*
D97*
X65100000Y-75020000D03*
X63800000Y-65200000D03*
X52400000Y-66600000D03*
D96*
X49000000Y-36000000D03*
D97*
X59690655Y-66003230D03*
X75200000Y-43300000D03*
D96*
X34000000Y-48000000D03*
D95*
X76100000Y-52900000D03*
D97*
X46456233Y-65000000D03*
X80200000Y-82900000D03*
D95*
X80300000Y-55700000D03*
D96*
X53900000Y-80000000D03*
D97*
X56450000Y-71737534D03*
X63200000Y-74219500D03*
X43800000Y-70500000D03*
X74000000Y-42400000D03*
X57400000Y-68500000D03*
X64200000Y-79400000D03*
X75890240Y-55400000D03*
X85900000Y-41000000D03*
D96*
X47000000Y-55500000D03*
X47500000Y-79500000D03*
X26500000Y-65000000D03*
X47500000Y-77500000D03*
D97*
X66100000Y-61000000D03*
X63800000Y-67700000D03*
X77400000Y-56200000D03*
X71100000Y-55600000D03*
X63800000Y-69500000D03*
X51300000Y-63900000D03*
D96*
X27800000Y-76500000D03*
X53900000Y-78000000D03*
D95*
X25400000Y-44900000D03*
X71200000Y-78120000D03*
D96*
X50150000Y-28500000D03*
D97*
X89000000Y-43500000D03*
D96*
X48000000Y-54500000D03*
D97*
X84893767Y-59706233D03*
D96*
X51900000Y-82000000D03*
X44500000Y-97600000D03*
X51150000Y-27500000D03*
X24500000Y-65000000D03*
X49000000Y-53500000D03*
D97*
X72400000Y-59700000D03*
X79200000Y-37500000D03*
X88000000Y-41500000D03*
D96*
X27500000Y-67500000D03*
X48000000Y-52500000D03*
D97*
X75100000Y-38400000D03*
X45600000Y-66500000D03*
X54300000Y-68000000D03*
D96*
X30000000Y-49500000D03*
D97*
X50000000Y-72800000D03*
X59800000Y-72500000D03*
X72300000Y-70400000D03*
D95*
X39800000Y-86400000D03*
D97*
X66350000Y-29240000D03*
D96*
X62250000Y-38300000D03*
X58700000Y-33300000D03*
X62250000Y-37300000D03*
X68200000Y-36800000D03*
X68200000Y-38800000D03*
X70200000Y-38800000D03*
X57700000Y-33300000D03*
X69200000Y-37800000D03*
X62250000Y-33300000D03*
X70200000Y-34800000D03*
X62250000Y-34300000D03*
X69200000Y-33800000D03*
X70200000Y-36800000D03*
X62250000Y-36300000D03*
X69200000Y-35800000D03*
X68200000Y-34800000D03*
X62250000Y-35300000D03*
D97*
X53100000Y-59400000D03*
X62700000Y-60300000D03*
X76723767Y-49899500D03*
X82300000Y-48000000D03*
X74900000Y-64700000D03*
X77800000Y-85600000D03*
X44300000Y-71000000D03*
X59500000Y-67600000D03*
X47600000Y-74200000D03*
X53300000Y-68000000D03*
X56744808Y-74999044D03*
X44300000Y-70000000D03*
X51500000Y-66600000D03*
X63800000Y-66900000D03*
X64200000Y-68900000D03*
X47200000Y-65400000D03*
X64300000Y-70100000D03*
X45600000Y-65000000D03*
X63800000Y-66000000D03*
X60000000Y-65300000D03*
X45300000Y-67200000D03*
X63855049Y-71136541D03*
X66100000Y-60200000D03*
X46600000Y-62300000D03*
X57500000Y-74424544D03*
X44400000Y-62200000D03*
X67000000Y-58800000D03*
X47400000Y-60665500D03*
X57606233Y-73206233D03*
X47400000Y-59800000D03*
D95*
X40700000Y-56000000D03*
D97*
X72700000Y-54900000D03*
X72700000Y-55700000D03*
D95*
X40700000Y-60300000D03*
D97*
X62700000Y-59300000D03*
X53100000Y-58300000D03*
X78000000Y-65400000D03*
X83100000Y-65400000D03*
D95*
X60800000Y-86300000D03*
D97*
X70300000Y-69700000D03*
X71412570Y-70400000D03*
D95*
X61500000Y-87400000D03*
D97*
X74400000Y-71200000D03*
D95*
X40300000Y-74400000D03*
X52900000Y-85500000D03*
D97*
X75225500Y-74814494D03*
X76900000Y-72800000D03*
X76600000Y-71500000D03*
X84100000Y-49500000D03*
X76000000Y-57000000D03*
X75100000Y-55500000D03*
X83484274Y-48987250D03*
X74657266Y-54849500D03*
X83000000Y-48300000D03*
X73200000Y-59700000D03*
X84100000Y-59700000D03*
X72425500Y-58900000D03*
X84900000Y-58900000D03*
D96*
X45000000Y-37500000D03*
X49014076Y-31985924D03*
X51000000Y-32000000D03*
X44000000Y-36500000D03*
X50000000Y-31000000D03*
X46000000Y-36500000D03*
X46000000Y-38500000D03*
X53000000Y-32000000D03*
X48000000Y-38500000D03*
X52000000Y-31000000D03*
X47000000Y-37500000D03*
X44000000Y-38500000D03*
D97*
X46200000Y-94800000D03*
X73300000Y-71200000D03*
D95*
X48500000Y-41800000D03*
X41700000Y-37200000D03*
D97*
X59600000Y-75500000D03*
X65900000Y-70700000D03*
X81200000Y-44900000D03*
X83500000Y-45400000D03*
X76750000Y-44500000D03*
X79477101Y-44900000D03*
D95*
X78100000Y-48100000D03*
D97*
X76750000Y-45250000D03*
X76750000Y-46000000D03*
X80400000Y-37500000D03*
X70300000Y-55400000D03*
X47200000Y-64500000D03*
D98*
X68800000Y-87100000D02*
X68775000Y-87125000D01*
X68775000Y-87125000D02*
X68775000Y-88300000D01*
D99*
X36600000Y-38400000D02*
X37300000Y-39100000D01*
D98*
X35650000Y-42125000D02*
X35475000Y-41950000D01*
D99*
X37300000Y-39100000D02*
X37300000Y-41200000D01*
D98*
X35650000Y-43450000D02*
X35650000Y-42125000D01*
D99*
X31770000Y-38400000D02*
X31670000Y-38500000D01*
D98*
X44041250Y-87174995D02*
X44416250Y-87549995D01*
X44400000Y-87566245D02*
X44416250Y-87549995D01*
D99*
X35430000Y-38400000D02*
X33930000Y-38400000D01*
X36550000Y-41950000D02*
X35475000Y-41950000D01*
X33930000Y-38400000D02*
X31770000Y-38400000D01*
D98*
X44041250Y-86374995D02*
X44041250Y-87174995D01*
D99*
X35430000Y-38400000D02*
X36600000Y-38400000D01*
X37300000Y-41200000D02*
X36550000Y-41950000D01*
X47450000Y-34450000D02*
X45300000Y-32300000D01*
D98*
X62400000Y-31500000D02*
X62400000Y-31125000D01*
D99*
X44000000Y-53600000D02*
X43100000Y-52700000D01*
D100*
X39000000Y-78000000D02*
X42125000Y-78000000D01*
D99*
X53790000Y-34450000D02*
X53940000Y-34300000D01*
D98*
X53940000Y-34300000D02*
X56140000Y-32100000D01*
D99*
X51600000Y-34450000D02*
X53790000Y-34450000D01*
X43100000Y-52700000D02*
X42550000Y-52700000D01*
X43600000Y-77200000D02*
X43600000Y-74033274D01*
D98*
X61800000Y-32100000D02*
X62400000Y-31500000D01*
D101*
X45662500Y-31437500D02*
X45662500Y-28662500D01*
D98*
X56140000Y-32100000D02*
X61800000Y-32100000D01*
D101*
X42450000Y-32300000D02*
X44800000Y-32300000D01*
D100*
X36770000Y-80230000D02*
X39000000Y-78000000D01*
X45662500Y-28662500D02*
X46025000Y-28300000D01*
X30200000Y-81800000D02*
X31770000Y-80230000D01*
D99*
X42125000Y-78000000D02*
X40912500Y-78000000D01*
X45300000Y-32300000D02*
X42450000Y-32300000D01*
X43600000Y-74033274D02*
X42800000Y-73233274D01*
X42800000Y-58500000D02*
X44000000Y-57300000D01*
X40925000Y-53112500D02*
X42137500Y-53112500D01*
D100*
X31770000Y-80230000D02*
X36770000Y-80230000D01*
D99*
X44000000Y-57300000D02*
X44000000Y-53600000D01*
X50100000Y-34450000D02*
X51600000Y-34450000D01*
X42800000Y-73233274D02*
X42800000Y-58500000D01*
X40912500Y-78000000D02*
X40500000Y-77587500D01*
D101*
X44800000Y-32300000D02*
X45662500Y-31437500D01*
D100*
X30200000Y-83837500D02*
X30200000Y-81800000D01*
X44300000Y-28662500D02*
X45662500Y-28662500D01*
D99*
X42137500Y-53112500D02*
X42550000Y-52700000D01*
X50100000Y-34450000D02*
X47450000Y-34450000D01*
X42800000Y-78000000D02*
X43600000Y-77200000D01*
X42125000Y-78000000D02*
X42800000Y-78000000D01*
X53300000Y-36600000D02*
X53940000Y-36600000D01*
X51540000Y-37500000D02*
X52400000Y-37500000D01*
D101*
X59000000Y-40200000D02*
X59700000Y-39500000D01*
X59000000Y-41700000D02*
X59000000Y-40200000D01*
X59700000Y-39500000D02*
X59700000Y-36640000D01*
X59700000Y-36640000D02*
X59660000Y-36600000D01*
D100*
X53940000Y-36600000D02*
X59660000Y-36600000D01*
D99*
X52400000Y-37500000D02*
X53300000Y-36600000D01*
D101*
X59000000Y-44500000D02*
X58500000Y-45000000D01*
X59000000Y-41700000D02*
X59000000Y-44500000D01*
D98*
X42818750Y-89049995D02*
X42818750Y-90549995D01*
X42818750Y-87572495D02*
X42841250Y-87549995D01*
X43498750Y-92254995D02*
X44561250Y-92254995D01*
X43041250Y-87349995D02*
X43041250Y-86374995D01*
X42818750Y-91574995D02*
X43498750Y-92254995D01*
X42841250Y-87549995D02*
X43041250Y-87349995D01*
X42818750Y-89049995D02*
X42818750Y-87572495D01*
X42818750Y-90549995D02*
X42818750Y-91574995D01*
D100*
X25730000Y-42530000D02*
X27100000Y-43900000D01*
X31670000Y-40800000D02*
X25730000Y-40800000D01*
X27100000Y-43900000D02*
X27100000Y-45800000D01*
X25730000Y-40800000D02*
X25730000Y-42530000D01*
X24105000Y-39175000D02*
X25730000Y-40800000D01*
X22305000Y-39175000D02*
X24105000Y-39175000D01*
D102*
X53790000Y-72010000D02*
X54360000Y-71440000D01*
X47500000Y-66115000D02*
X47875000Y-65740000D01*
X52820000Y-73010000D02*
X52790000Y-72980000D01*
X54360000Y-70037500D02*
X55147500Y-69250000D01*
X53790000Y-74127500D02*
X54062500Y-74400000D01*
D98*
X55520000Y-68877500D02*
X55147500Y-69250000D01*
D102*
X48850000Y-65740000D02*
X50040000Y-65740000D01*
D98*
X54687500Y-66450000D02*
X54687500Y-67287500D01*
X55172500Y-69225000D02*
X55147500Y-69250000D01*
D102*
X47500000Y-66500000D02*
X47500000Y-66115000D01*
X54360000Y-71440000D02*
X54360000Y-70037500D01*
D98*
X56600000Y-69225000D02*
X55172500Y-69225000D01*
D102*
X47875000Y-65740000D02*
X48850000Y-65740000D01*
X53790000Y-72010000D02*
X53790000Y-73010000D01*
X50040000Y-65740000D02*
X50300000Y-65480000D01*
X52790000Y-72980000D02*
X52820000Y-72980000D01*
X53790000Y-73010000D02*
X53790000Y-74127500D01*
D98*
X55200000Y-67800000D02*
X55520000Y-67800000D01*
X54687500Y-67287500D02*
X55200000Y-67800000D01*
D102*
X54600000Y-65500000D02*
X54600000Y-66362500D01*
X54600000Y-66362500D02*
X54687500Y-66450000D01*
X53790000Y-73010000D02*
X52820000Y-73010000D01*
D98*
X55520000Y-67800000D02*
X55520000Y-68877500D01*
X54885000Y-56700000D02*
X55145000Y-56440000D01*
X82300000Y-54910000D02*
X82300000Y-55700000D01*
X53500000Y-55900000D02*
X53920000Y-56320000D01*
X34700005Y-78550000D02*
X34700005Y-77100005D01*
X74012500Y-44280000D02*
X74012500Y-45287500D01*
D102*
X76420000Y-57880000D02*
X77300000Y-57880000D01*
D98*
X53920000Y-56700000D02*
X54885000Y-56700000D01*
D103*
X80300000Y-53297338D02*
X80300000Y-53920000D01*
D102*
X78280000Y-69820000D02*
X78300000Y-69840000D01*
D98*
X56250000Y-66450000D02*
X57287500Y-66450000D01*
X56200000Y-64544500D02*
X56205500Y-64550000D01*
D102*
X76675000Y-69820000D02*
X78280000Y-69820000D01*
X76400000Y-57900000D02*
X76420000Y-57880000D01*
D98*
X53130000Y-60200000D02*
X54000000Y-60200000D01*
X28100008Y-78549997D02*
X26530008Y-78549997D01*
D102*
X78300000Y-69840000D02*
X79160000Y-69840000D01*
X77300000Y-57880000D02*
X77300000Y-58195000D01*
D98*
X58400000Y-66780000D02*
X58400000Y-67780000D01*
X59800000Y-93887500D02*
X59800000Y-95100000D01*
X55100000Y-57700000D02*
X55100000Y-58800000D01*
X56205500Y-64550000D02*
X57287500Y-64550000D01*
D102*
X73300000Y-70400000D02*
X73193959Y-70400000D01*
D98*
X47812500Y-89634995D02*
X47812500Y-88912500D01*
X22280000Y-46950000D02*
X22280000Y-47745000D01*
D102*
X68000000Y-72495000D02*
X68000000Y-71000000D01*
D98*
X36500000Y-54720000D02*
X37590000Y-54720000D01*
X51170000Y-60630000D02*
X52700000Y-60630000D01*
D102*
X73193959Y-70400000D02*
X72000000Y-71593959D01*
D98*
X58400000Y-66780000D02*
X57617500Y-66780000D01*
X58400000Y-67780000D02*
X58380000Y-67800000D01*
X61000000Y-57700000D02*
X61100000Y-57800000D01*
X49580000Y-87434995D02*
X49580000Y-86520000D01*
D103*
X82300000Y-54910000D02*
X82300000Y-54900000D01*
D102*
X72000000Y-72495000D02*
X72000000Y-73937035D01*
D98*
X54300000Y-93887500D02*
X54300000Y-95100000D01*
X55100000Y-58800000D02*
X55670000Y-59370000D01*
X56200000Y-66500000D02*
X56250000Y-66450000D01*
X61150000Y-81750000D02*
X60500000Y-82400000D01*
X55500000Y-58100000D02*
X55100000Y-57700000D01*
D102*
X61893767Y-71293767D02*
X61487534Y-71700000D01*
D98*
X61000000Y-57080000D02*
X62000000Y-57080000D01*
X26530008Y-78549997D02*
X26500008Y-78579997D01*
X58220000Y-58100000D02*
X55500000Y-58100000D01*
X61150000Y-81240000D02*
X61150000Y-81750000D01*
X55100000Y-56485000D02*
X55145000Y-56440000D01*
X34700005Y-77100005D02*
X34700000Y-77100000D01*
X55100000Y-59100000D02*
X55100000Y-58800000D01*
X74012500Y-44280000D02*
X74880000Y-44280000D01*
X55670000Y-59370000D02*
X58230000Y-59370000D01*
X61000000Y-57080000D02*
X61000000Y-57700000D01*
X47000000Y-83800000D02*
X47300000Y-84100000D01*
X62000000Y-57080000D02*
X62900000Y-57080000D01*
X55100000Y-57700000D02*
X55100000Y-56485000D01*
D99*
X60587500Y-53187500D02*
X59335000Y-53187500D01*
D103*
X80050000Y-53047338D02*
X80300000Y-53297338D01*
D102*
X71580000Y-74357035D02*
X71580000Y-74420000D01*
X61325000Y-70820000D02*
X61325000Y-71655000D01*
D98*
X77650000Y-82800000D02*
X76400000Y-82800000D01*
X47812500Y-88912500D02*
X47400000Y-88500000D01*
D102*
X68000000Y-74590000D02*
X67860000Y-74730000D01*
X72000000Y-71593959D02*
X72000000Y-72495000D01*
X61325000Y-71655000D02*
X61280000Y-71700000D01*
D98*
X71787500Y-88312500D02*
X71800000Y-88300000D01*
X34700008Y-78549997D02*
X28100008Y-78549997D01*
X49580000Y-86520000D02*
X49600000Y-86500000D01*
D103*
X81320000Y-53920000D02*
X81300000Y-53920000D01*
D98*
X45150000Y-83800000D02*
X47000000Y-83800000D01*
X57617500Y-66780000D02*
X57287500Y-66450000D01*
X58230000Y-58090000D02*
X58220000Y-58100000D01*
D102*
X61487534Y-71700000D02*
X61280000Y-71700000D01*
D98*
X54000000Y-60200000D02*
X55100000Y-59100000D01*
X77650000Y-80200000D02*
X76400000Y-80200000D01*
X82512500Y-77900000D02*
X82512500Y-76612500D01*
D99*
X60600000Y-53200000D02*
X60587500Y-53187500D01*
D102*
X79160000Y-69840000D02*
X79200000Y-69800000D01*
D103*
X81300000Y-53920000D02*
X80300000Y-53920000D01*
D98*
X52700000Y-60630000D02*
X53130000Y-60200000D01*
X37590000Y-54720000D02*
X37600000Y-54710000D01*
X22280000Y-47745000D02*
X21625000Y-48400000D01*
X82512500Y-76612500D02*
X82500000Y-76600000D01*
D102*
X72000000Y-73937035D02*
X71580000Y-74357035D01*
D98*
X74012500Y-45287500D02*
X74225000Y-45500000D01*
D103*
X82300000Y-54900000D02*
X81320000Y-53920000D01*
D98*
X70300000Y-88312500D02*
X71787500Y-88312500D01*
X53920000Y-56320000D02*
X53920000Y-56700000D01*
D103*
X80050000Y-52037500D02*
X80050000Y-53047338D01*
D102*
X77300000Y-58195000D02*
X76675000Y-58820000D01*
D98*
X74880000Y-44280000D02*
X74900000Y-44300000D01*
D102*
X68000000Y-72495000D02*
X68000000Y-74590000D01*
D98*
X47755000Y-96064995D02*
X47825000Y-96134995D01*
X47825000Y-94819995D02*
X47960000Y-94684995D01*
X47960000Y-92784995D02*
X47960000Y-94684995D01*
X44561250Y-96064995D02*
X47755000Y-96064995D01*
X47775000Y-92599995D02*
X47960000Y-92784995D01*
X47775000Y-91234995D02*
X47775000Y-92599995D01*
X47825000Y-96134995D02*
X47825000Y-94819995D01*
X37293750Y-96199995D02*
X36743750Y-96199995D01*
X39993750Y-90549995D02*
X41268750Y-90549995D01*
X41921250Y-85414995D02*
X41241250Y-86094995D01*
X51200000Y-83500000D02*
X49285005Y-85414995D01*
X44041250Y-85414995D02*
X46600000Y-85414995D01*
D102*
X72500000Y-72495000D02*
X72500000Y-75400000D01*
D98*
X31793750Y-96524995D02*
X31268755Y-96000000D01*
X36418750Y-96524995D02*
X33293750Y-96524995D01*
X46600000Y-85414995D02*
X48620000Y-87434995D01*
X48634995Y-99200000D02*
X49375000Y-98459995D01*
X40678750Y-96064995D02*
X40678750Y-97694995D01*
X37978750Y-96064995D02*
X39141250Y-96064995D01*
X72520000Y-75420000D02*
X72500000Y-75440000D01*
X49375000Y-98459995D02*
X49375000Y-94799995D01*
X44041250Y-85414995D02*
X43041250Y-85414995D01*
D99*
X41318750Y-88999995D02*
X41268750Y-89049995D01*
X41268750Y-89824995D02*
X41268750Y-90549995D01*
D102*
X72500000Y-75400000D02*
X72520000Y-75420000D01*
D98*
X41241250Y-86094995D02*
X41241250Y-87472495D01*
X41241250Y-87472495D02*
X41318750Y-87549995D01*
D99*
X41318750Y-87549995D02*
X41318750Y-88999995D01*
D98*
X39141250Y-96064995D02*
X40678750Y-96064995D01*
X72500000Y-79500000D02*
X71600000Y-80400000D01*
X42183755Y-99200000D02*
X48634995Y-99200000D01*
X72500000Y-75440000D02*
X72500000Y-79500000D01*
X66200000Y-80400000D02*
X63100000Y-83500000D01*
X63100000Y-83500000D02*
X51200000Y-83500000D01*
X71600000Y-80400000D02*
X66200000Y-80400000D01*
X49285005Y-85414995D02*
X46600000Y-85414995D01*
X48620000Y-88434995D02*
X48620000Y-87434995D01*
X31268755Y-96000000D02*
X26777500Y-96000000D01*
D99*
X41268750Y-89049995D02*
X41268750Y-89824995D01*
D98*
X40678750Y-97694995D02*
X42183755Y-99200000D01*
X36743750Y-96199995D02*
X36418750Y-96524995D01*
X37293750Y-96199995D02*
X37843750Y-96199995D01*
X41268750Y-95474995D02*
X41268750Y-89824995D01*
X40678750Y-96064995D02*
X41268750Y-95474995D01*
X43041250Y-85414995D02*
X41921250Y-85414995D01*
X37843750Y-96199995D02*
X37978750Y-96064995D01*
X49375000Y-94799995D02*
X50440000Y-93734995D01*
X33293750Y-96524995D02*
X31793750Y-96524995D01*
D102*
X73500000Y-72495000D02*
X73500000Y-73396041D01*
D98*
X50000000Y-88400000D02*
X49580000Y-88400000D01*
X72000000Y-81400000D02*
X66600000Y-81400000D01*
X66600000Y-81400000D02*
X63500000Y-84500000D01*
D102*
X74200000Y-74096041D02*
X74200000Y-74920000D01*
D98*
X49387500Y-89734995D02*
X49387500Y-88627495D01*
X73480000Y-79920000D02*
X72000000Y-81400000D01*
X52039339Y-84500000D02*
X50350000Y-86189339D01*
X50350000Y-88050000D02*
X50000000Y-88400000D01*
X50350000Y-86189339D02*
X50350000Y-88050000D01*
X63500000Y-84500000D02*
X52039339Y-84500000D01*
X73480000Y-75420000D02*
X73480000Y-79920000D01*
D102*
X73700000Y-75420000D02*
X73480000Y-75420000D01*
X74200000Y-74920000D02*
X73700000Y-75420000D01*
D98*
X49387500Y-88627495D02*
X49580000Y-88434995D01*
X49425000Y-91234995D02*
X49425000Y-89772495D01*
X49425000Y-89772495D02*
X49387500Y-89734995D01*
D102*
X73500000Y-73396041D02*
X74200000Y-74096041D01*
D98*
X52100000Y-69225000D02*
X50600000Y-69225000D01*
D102*
X48850000Y-69240000D02*
X50585000Y-69240000D01*
D98*
X52125000Y-69250000D02*
X52100000Y-69225000D01*
X53572500Y-69250000D02*
X52125000Y-69250000D01*
D102*
X50585000Y-69240000D02*
X50600000Y-69225000D01*
X48850000Y-70240000D02*
X50065000Y-70240000D01*
D98*
X52125000Y-70750000D02*
X52100000Y-70775000D01*
D102*
X50065000Y-70240000D02*
X50600000Y-70775000D01*
D98*
X52100000Y-70775000D02*
X50600000Y-70775000D01*
X53572500Y-70750000D02*
X52125000Y-70750000D01*
D102*
X67300000Y-95600000D02*
X68200000Y-95600000D01*
X66900000Y-91900000D02*
X66900000Y-95200000D01*
X70400000Y-86100000D02*
X66400000Y-86100000D01*
X66900000Y-95200000D02*
X67300000Y-95600000D01*
X75620000Y-70820000D02*
X76675000Y-70820000D01*
X64800000Y-87700000D02*
X64800000Y-89800000D01*
X75200000Y-70400000D02*
X75620000Y-70820000D01*
X66400000Y-86100000D02*
X64800000Y-87700000D01*
X64800000Y-89800000D02*
X66900000Y-91900000D01*
X75800000Y-80700000D02*
X70400000Y-86100000D01*
X75800000Y-76200000D02*
X75800000Y-80700000D01*
D98*
X52300000Y-65480000D02*
X51300000Y-65480000D01*
D102*
X51300000Y-65800000D02*
X50860000Y-66240000D01*
X50860000Y-66240000D02*
X48850000Y-66240000D01*
X51300000Y-65480000D02*
X51300000Y-65800000D01*
D98*
X34700000Y-54660000D02*
X35660000Y-53700000D01*
X47650000Y-49100000D02*
X50300000Y-51750000D01*
D104*
X69500000Y-72495000D02*
X69500000Y-69000000D01*
D98*
X27600000Y-54160000D02*
X28100000Y-54660000D01*
X50300000Y-52400000D02*
X51125000Y-53225000D01*
D104*
X76800000Y-55400000D02*
X77400000Y-55400000D01*
X74600000Y-54300000D02*
X75200000Y-53700000D01*
D98*
X37700000Y-51900000D02*
X37700000Y-49500000D01*
X36500000Y-53700000D02*
X36500000Y-52610000D01*
D104*
X75700000Y-54300000D02*
X76800000Y-55400000D01*
X74900000Y-54300000D02*
X75700000Y-54300000D01*
X83550000Y-50350000D02*
X82237500Y-50350000D01*
D98*
X37700000Y-49500000D02*
X38100000Y-49100000D01*
D104*
X71500000Y-54300000D02*
X74900000Y-54300000D01*
D98*
X35660000Y-53700000D02*
X36500000Y-53700000D01*
X50300000Y-51750000D02*
X50300000Y-52400000D01*
X36500000Y-52610000D02*
X36990000Y-52610000D01*
X36990000Y-52610000D02*
X37700000Y-51900000D01*
X51125000Y-53225000D02*
X51335000Y-53225000D01*
D104*
X83800000Y-50200000D02*
X83700000Y-50200000D01*
D98*
X27600000Y-53290000D02*
X27600000Y-54160000D01*
D104*
X51200000Y-54700000D02*
X51200000Y-53360000D01*
X83700000Y-50200000D02*
X83550000Y-50350000D01*
D98*
X28100000Y-54660000D02*
X34700000Y-54660000D01*
D104*
X51200000Y-53360000D02*
X51335000Y-53225000D01*
D98*
X38100000Y-49100000D02*
X47650000Y-49100000D01*
D102*
X58100000Y-69507106D02*
X58403553Y-69203553D01*
X56800000Y-73200000D02*
X58100000Y-71900000D01*
X55600000Y-72600000D02*
X55190000Y-73010000D01*
X47540000Y-69740000D02*
X48850000Y-69740000D01*
X47500000Y-69700000D02*
X47540000Y-69740000D01*
X55600000Y-72900000D02*
X55900000Y-73200000D01*
X55600000Y-72600000D02*
X55600000Y-72900000D01*
X55900000Y-73200000D02*
X56800000Y-73200000D01*
X55190000Y-73010000D02*
X54810000Y-73010000D01*
X58100000Y-71900000D02*
X58100000Y-69507106D01*
X59698514Y-68820000D02*
X61325000Y-68820000D01*
X58403553Y-69203553D02*
X59314961Y-69203553D01*
X59314961Y-69203553D02*
X59698514Y-68820000D01*
X47574500Y-68740000D02*
X48850000Y-68740000D01*
X58225000Y-68675000D02*
X59136408Y-68675000D01*
X59136408Y-68675000D02*
X59491408Y-68320000D01*
X47500000Y-68814500D02*
X47574500Y-68740000D01*
X57600000Y-69300000D02*
X58225000Y-68675000D01*
X55910000Y-72010000D02*
X54810000Y-72010000D01*
X56500000Y-72500000D02*
X57600000Y-71400000D01*
X59491408Y-68320000D02*
X61325000Y-68320000D01*
X56500000Y-72600000D02*
X55910000Y-72010000D01*
X56500000Y-72600000D02*
X56500000Y-72500000D01*
X57600000Y-71400000D02*
X57600000Y-69300000D01*
D98*
X27600000Y-52330000D02*
X27600000Y-51460000D01*
D105*
X72815000Y-52775000D02*
X72785000Y-52805000D01*
X73575000Y-52775000D02*
X72815000Y-52775000D01*
D102*
X62845500Y-70320000D02*
X61325000Y-70320000D01*
X71200000Y-77490000D02*
X71200000Y-78120000D01*
D105*
X76800000Y-46800000D02*
X76800000Y-47420000D01*
D99*
X50100000Y-36000000D02*
X49000000Y-36000000D01*
D98*
X56800000Y-88800000D02*
X56700000Y-88900000D01*
X60000000Y-56500000D02*
X60380000Y-56120000D01*
D99*
X55200000Y-41500000D02*
X55400000Y-41700000D01*
D100*
X40575000Y-40175000D02*
X39900000Y-39500000D01*
D98*
X58050000Y-88800000D02*
X56800000Y-88800000D01*
D100*
X30700000Y-45800000D02*
X30700000Y-44070000D01*
D101*
X27900000Y-28000000D02*
X27900000Y-24800000D01*
D98*
X76000000Y-41000000D02*
X75000000Y-41000000D01*
D99*
X50100000Y-36000000D02*
X51600000Y-36000000D01*
D102*
X77400000Y-56200000D02*
X77400000Y-56820000D01*
D99*
X53300000Y-39540000D02*
X53940000Y-38900000D01*
D102*
X59939834Y-71319834D02*
X60320000Y-71700000D01*
X62920000Y-74499500D02*
X62920000Y-74720000D01*
D98*
X68200000Y-98610000D02*
X69200000Y-98610000D01*
D101*
X33700000Y-32300000D02*
X37350000Y-32300000D01*
D98*
X52550000Y-88550000D02*
X51990000Y-87990000D01*
X53150500Y-61900000D02*
X51170000Y-61900000D01*
X36500000Y-51210000D02*
X34950000Y-51210000D01*
X76840000Y-77560000D02*
X76900000Y-77500000D01*
X62500000Y-55200000D02*
X62820000Y-55200000D01*
X34950000Y-51210000D02*
X34700000Y-50960000D01*
X58400000Y-64880000D02*
X58400000Y-65820000D01*
D102*
X61325000Y-70320000D02*
X60319834Y-70320000D01*
D98*
X52300000Y-64520000D02*
X53270000Y-64520000D01*
X55147500Y-70750000D02*
X56575000Y-70750000D01*
D102*
X52300000Y-64520000D02*
X52300000Y-63900000D01*
X71200000Y-77490000D02*
X70010000Y-77490000D01*
D98*
X26175000Y-69075000D02*
X25500000Y-69075000D01*
D101*
X37350000Y-32300000D02*
X37350000Y-33650000D01*
D98*
X26500005Y-75910000D02*
X27210000Y-75910000D01*
X23230000Y-46950000D02*
X23230000Y-48345000D01*
X55335000Y-48905000D02*
X55340000Y-48900000D01*
X50500000Y-76150000D02*
X50040000Y-76610000D01*
D102*
X56450000Y-70925000D02*
X56600000Y-70775000D01*
X65800000Y-76530000D02*
X67010000Y-76530000D01*
D105*
X76800000Y-47420000D02*
X76900000Y-47520000D01*
D98*
X40437500Y-83800000D02*
X40437500Y-82197500D01*
D102*
X70620000Y-74420000D02*
X69900000Y-74420000D01*
X67500000Y-72495000D02*
X67500000Y-74020000D01*
D98*
X58050000Y-88800000D02*
X58050000Y-88550000D01*
D101*
X37350000Y-33650000D02*
X39900000Y-36200000D01*
D102*
X60320000Y-71700000D02*
X59700000Y-71700000D01*
D99*
X53300000Y-42700000D02*
X53300000Y-41500000D01*
D102*
X51030000Y-72930000D02*
X51810000Y-72930000D01*
D98*
X51990000Y-87990000D02*
X51990000Y-87400000D01*
X57287500Y-65500000D02*
X58080000Y-65500000D01*
X23230000Y-46950000D02*
X23230000Y-46200000D01*
D106*
X68687500Y-28487500D02*
X68100000Y-27900000D01*
D98*
X78200000Y-54280000D02*
X77200000Y-54280000D01*
D102*
X56450000Y-71737534D02*
X56450000Y-70925000D01*
D105*
X73575000Y-52775000D02*
X73575000Y-51575000D01*
X84880000Y-38400000D02*
X85800000Y-38400000D01*
D98*
X37175000Y-47625000D02*
X36500000Y-48300000D01*
X57420000Y-67800000D02*
X56480000Y-67800000D01*
D101*
X30900000Y-29500000D02*
X33700000Y-32300000D01*
D98*
X53270000Y-64520000D02*
X53300000Y-64490000D01*
D101*
X55340000Y-47140000D02*
X54500000Y-46300000D01*
D99*
X55400000Y-39400000D02*
X55400000Y-41700000D01*
D98*
X26600000Y-68650000D02*
X26175000Y-69075000D01*
D99*
X33930000Y-39950000D02*
X33930000Y-41945000D01*
D102*
X78300000Y-58240000D02*
X78300000Y-57400000D01*
X65190000Y-74730000D02*
X66900000Y-74730000D01*
D98*
X67225000Y-89900000D02*
X65900000Y-89900000D01*
X22200000Y-64000000D02*
X21325000Y-63125000D01*
D105*
X76800000Y-46800000D02*
X77890000Y-46800000D01*
D102*
X67500000Y-74020000D02*
X66900000Y-74620000D01*
D100*
X45075000Y-73625000D02*
X46270000Y-72430000D01*
D98*
X59200000Y-29600000D02*
X59200000Y-27875000D01*
X64180000Y-78500000D02*
X64180000Y-79380000D01*
X77015614Y-54280000D02*
X77200000Y-54280000D01*
D102*
X50900000Y-72800000D02*
X51030000Y-72930000D01*
X59939834Y-70700000D02*
X59939834Y-71319834D01*
D105*
X88500000Y-41000000D02*
X89000000Y-41500000D01*
D99*
X54500000Y-45000000D02*
X55400000Y-44100000D01*
D98*
X38400000Y-47625000D02*
X37175000Y-47625000D01*
D100*
X29860000Y-49200000D02*
X32940000Y-49200000D01*
D102*
X67010000Y-76530000D02*
X67400000Y-76140000D01*
D98*
X33925000Y-41950000D02*
X33775000Y-42100000D01*
D105*
X74535000Y-47375000D02*
X75355000Y-47375000D01*
D102*
X65100000Y-75020000D02*
X65100000Y-74820000D01*
D100*
X48975000Y-26000000D02*
X48975000Y-28300000D01*
D98*
X24200000Y-69200000D02*
X25375000Y-69200000D01*
X27600000Y-51460000D02*
X28100000Y-50960000D01*
X51990000Y-86510000D02*
X52000000Y-86500000D01*
X23500000Y-64000000D02*
X22200000Y-64000000D01*
X25400000Y-44900000D02*
X25500000Y-45000000D01*
D102*
X57400000Y-68500000D02*
X57180000Y-68500000D01*
X51300000Y-64520000D02*
X51300000Y-63900000D01*
D98*
X34700000Y-42725000D02*
X33925000Y-41950000D01*
X23550000Y-60800000D02*
X22375000Y-60800000D01*
X83200000Y-46800000D02*
X82680000Y-46800000D01*
X23510000Y-66000000D02*
X25500000Y-66000000D01*
X64180000Y-79380000D02*
X64200000Y-79400000D01*
D105*
X88500000Y-44000000D02*
X88000000Y-43500000D01*
D99*
X49000000Y-36000000D02*
X48000000Y-36000000D01*
D102*
X80200000Y-82900000D02*
X80200000Y-83225000D01*
D98*
X23230000Y-46200000D02*
X23540000Y-45890000D01*
X21325000Y-63125000D02*
X21325000Y-61175000D01*
D105*
X78880000Y-37820000D02*
X78880000Y-38400000D01*
D98*
X48390000Y-76610000D02*
X47500000Y-77500000D01*
D99*
X44200000Y-40175000D02*
X46200000Y-40175000D01*
D98*
X66600000Y-34100000D02*
X66350000Y-33850000D01*
D99*
X54900000Y-38900000D02*
X55400000Y-39400000D01*
D98*
X36500000Y-48300000D02*
X36500000Y-51210000D01*
X74012500Y-42412500D02*
X74000000Y-42400000D01*
X76100000Y-52900000D02*
X76100000Y-53364386D01*
X53900000Y-61150500D02*
X53150500Y-61900000D01*
D102*
X77400000Y-56820000D02*
X77300000Y-56920000D01*
D99*
X53300000Y-41500000D02*
X55200000Y-41500000D01*
D98*
X24240000Y-64000000D02*
X23500000Y-64000000D01*
X25500000Y-66000000D02*
X25800000Y-66000000D01*
X21325000Y-61175000D02*
X21575000Y-60925000D01*
D105*
X80880000Y-38220000D02*
X80880000Y-38400000D01*
D98*
X58080000Y-65500000D02*
X58400000Y-65820000D01*
X51990000Y-87400000D02*
X51990000Y-86510000D01*
D102*
X63200000Y-74219500D02*
X62920000Y-74499500D01*
D99*
X55400000Y-44100000D02*
X55400000Y-41700000D01*
D105*
X81920000Y-38400000D02*
X80880000Y-38400000D01*
D98*
X67225000Y-88300000D02*
X65900000Y-88300000D01*
D102*
X62200000Y-74219500D02*
X61880000Y-74539500D01*
X63500000Y-57145000D02*
X63500000Y-56200000D01*
D98*
X50300000Y-64520000D02*
X51300000Y-64520000D01*
D102*
X50300000Y-64520000D02*
X50300000Y-63900000D01*
X80200000Y-83225000D02*
X80675000Y-83700000D01*
D99*
X52600000Y-43400000D02*
X52900000Y-43400000D01*
X33930000Y-41945000D02*
X33925000Y-41950000D01*
D98*
X23540000Y-45890000D02*
X25500000Y-45890000D01*
D102*
X61880000Y-74720000D02*
X62920000Y-74720000D01*
X53300000Y-64490000D02*
X53300000Y-63900000D01*
D99*
X33930000Y-39950000D02*
X35430000Y-39950000D01*
D98*
X80300000Y-54880000D02*
X81300000Y-54880000D01*
D100*
X30700000Y-44070000D02*
X31670000Y-43100000D01*
D101*
X30900000Y-29500000D02*
X29400000Y-29500000D01*
D98*
X76780000Y-84650000D02*
X76780000Y-85580000D01*
D100*
X30700000Y-48360000D02*
X29860000Y-49200000D01*
X45075000Y-75600000D02*
X45075000Y-73625000D01*
D99*
X52900000Y-43400000D02*
X54500000Y-45000000D01*
D105*
X75355000Y-47375000D02*
X75385000Y-47405000D01*
D98*
X27210000Y-75910000D02*
X27800000Y-76500000D01*
D102*
X61880000Y-74539500D02*
X61880000Y-74720000D01*
D98*
X76780000Y-85580000D02*
X76800000Y-85600000D01*
X62000000Y-55700000D02*
X62500000Y-55200000D01*
D100*
X56760000Y-24260000D02*
X56760000Y-23000000D01*
D98*
X25500000Y-45000000D02*
X25500000Y-45890000D01*
D102*
X65800000Y-76120000D02*
X65800000Y-76530000D01*
D98*
X25800000Y-66000000D02*
X26600000Y-66800000D01*
X32300000Y-45310000D02*
X31190000Y-45310000D01*
X41535000Y-81100000D02*
X44075000Y-81100000D01*
D105*
X74535000Y-47375000D02*
X74535000Y-48575000D01*
D98*
X25375000Y-69200000D02*
X25500000Y-69075000D01*
X56695000Y-56440000D02*
X57240000Y-56440000D01*
X57240000Y-56440000D02*
X57700000Y-56900000D01*
X50040000Y-76610000D02*
X49150000Y-76610000D01*
D102*
X57180000Y-68500000D02*
X56480000Y-67800000D01*
X78300000Y-70800000D02*
X78056041Y-70800000D01*
D98*
X34700000Y-43450000D02*
X34700000Y-42725000D01*
D100*
X32940000Y-49200000D02*
X34700000Y-50960000D01*
D98*
X62000000Y-56120000D02*
X62000000Y-55700000D01*
D102*
X77576041Y-70320000D02*
X76675000Y-70320000D01*
D106*
X64737500Y-26437500D02*
X64737500Y-25450000D01*
D100*
X28100000Y-50960000D02*
X29860000Y-49200000D01*
D102*
X63200000Y-55900000D02*
X62920000Y-55620000D01*
X78300000Y-70800000D02*
X79200000Y-70800000D01*
D98*
X59200000Y-27875000D02*
X59025000Y-27700000D01*
D101*
X29400000Y-29500000D02*
X27900000Y-28000000D01*
D98*
X52300000Y-64520000D02*
X51300000Y-64520000D01*
D105*
X71975000Y-40200000D02*
X71975000Y-41175000D01*
D98*
X36500005Y-74700000D02*
X37900000Y-74700000D01*
D105*
X76020000Y-38400000D02*
X75100000Y-38400000D01*
D98*
X55335000Y-51500000D02*
X55335000Y-48905000D01*
D102*
X70010000Y-77490000D02*
X69600000Y-77900000D01*
D98*
X74012500Y-43320000D02*
X74012500Y-42412500D01*
D99*
X53940000Y-38900000D02*
X54900000Y-38900000D01*
D100*
X59025000Y-26525000D02*
X56760000Y-24260000D01*
D98*
X81300000Y-54880000D02*
X81300000Y-55700000D01*
D102*
X50300000Y-64100000D02*
X50300000Y-64520000D01*
D98*
X57590000Y-88090000D02*
X57590000Y-87400000D01*
X44405005Y-97694995D02*
X42803750Y-97694995D01*
D102*
X78056041Y-70800000D02*
X77576041Y-70320000D01*
X63200000Y-70674500D02*
X62845500Y-70320000D01*
X63500000Y-56200000D02*
X63200000Y-55900000D01*
D98*
X31190000Y-45310000D02*
X30700000Y-45800000D01*
X83500000Y-46500000D02*
X83200000Y-46800000D01*
D100*
X59025000Y-27700000D02*
X59025000Y-26525000D01*
D106*
X65200000Y-26900000D02*
X64737500Y-26437500D01*
D100*
X39900000Y-39500000D02*
X39900000Y-38200000D01*
D98*
X60380000Y-56120000D02*
X61000000Y-56120000D01*
D100*
X30700000Y-45800000D02*
X30700000Y-48360000D01*
D98*
X33775000Y-42100000D02*
X32670000Y-42100000D01*
D105*
X81600000Y-37500000D02*
X80880000Y-38220000D01*
X73575000Y-51575000D02*
X73175000Y-51175000D01*
D98*
X32670000Y-42100000D02*
X31670000Y-43100000D01*
X58050000Y-88550000D02*
X57590000Y-88090000D01*
X22375000Y-60800000D02*
X22250000Y-60925000D01*
X66350000Y-33850000D02*
X66350000Y-32800000D01*
D105*
X79200000Y-37500000D02*
X78880000Y-37820000D01*
D98*
X72200000Y-97000000D02*
X71250000Y-97000000D01*
D102*
X50140000Y-63740000D02*
X48850000Y-63740000D01*
X62920000Y-55300000D02*
X62820000Y-55200000D01*
X50300000Y-63900000D02*
X50140000Y-63740000D01*
D98*
X56200000Y-65500000D02*
X57287500Y-65500000D01*
X76100000Y-53364386D02*
X77015614Y-54280000D01*
X23230000Y-48345000D02*
X23175000Y-48400000D01*
X39900000Y-47625000D02*
X38400000Y-47625000D01*
D102*
X66900000Y-74620000D02*
X66900000Y-74730000D01*
D98*
X56575000Y-70750000D02*
X56600000Y-70775000D01*
D101*
X55340000Y-48900000D02*
X55340000Y-47140000D01*
D98*
X40437500Y-82197500D02*
X41535000Y-81100000D01*
D106*
X69200000Y-28487500D02*
X68687500Y-28487500D01*
D98*
X76012500Y-43320000D02*
X75220000Y-43320000D01*
X49150000Y-76610000D02*
X48390000Y-76610000D01*
D99*
X51525000Y-43400000D02*
X52600000Y-43400000D01*
D102*
X65100000Y-74820000D02*
X65190000Y-74730000D01*
D105*
X88500000Y-45175000D02*
X88500000Y-44000000D01*
D99*
X45500000Y-52700000D02*
X45500000Y-55100000D01*
D102*
X66100000Y-75820000D02*
X65800000Y-76120000D01*
D98*
X61000000Y-56120000D02*
X62000000Y-56120000D01*
D99*
X53300000Y-41500000D02*
X53300000Y-39540000D01*
D98*
X21575000Y-60925000D02*
X22250000Y-60925000D01*
D101*
X39900000Y-36200000D02*
X39900000Y-38200000D01*
D102*
X60319834Y-70320000D02*
X59939834Y-70700000D01*
D105*
X71975000Y-41175000D02*
X72000000Y-41200000D01*
D98*
X76840000Y-78350000D02*
X76840000Y-77560000D01*
X52550000Y-88800000D02*
X52550000Y-88550000D01*
D102*
X80675000Y-83700000D02*
X81200000Y-83700000D01*
X62920000Y-55620000D02*
X62920000Y-55300000D01*
D98*
X75220000Y-43320000D02*
X75200000Y-43300000D01*
D100*
X45075000Y-78000000D02*
X45075000Y-75600000D01*
D105*
X88500000Y-40187500D02*
X88500000Y-41000000D01*
D98*
X26600000Y-66800000D02*
X26600000Y-68650000D01*
D101*
X54500000Y-46300000D02*
X54500000Y-45000000D01*
D98*
X44500000Y-97600000D02*
X44405005Y-97694995D01*
X80300000Y-54880000D02*
X80300000Y-55700000D01*
D105*
X74535000Y-48575000D02*
X74935000Y-48975000D01*
D100*
X44200000Y-40175000D02*
X40575000Y-40175000D01*
D98*
X84800000Y-41000000D02*
X85900000Y-41000000D01*
D99*
X52600000Y-43400000D02*
X53300000Y-42700000D01*
D102*
X48670000Y-71970000D02*
X49500000Y-72800000D01*
X62655000Y-71345000D02*
X61500000Y-72500000D01*
X49170000Y-71970000D02*
X48670000Y-71970000D01*
X63500000Y-72495000D02*
X63500000Y-71593959D01*
X61500000Y-72500000D02*
X59800000Y-72500000D01*
X47240761Y-68240000D02*
X48850000Y-68240000D01*
X51810000Y-71970000D02*
X49770000Y-71970000D01*
X63500000Y-71593959D02*
X63251041Y-71345000D01*
X49770000Y-71970000D02*
X49170000Y-71970000D01*
X48670000Y-71970000D02*
X46850000Y-70150000D01*
X46850000Y-70150000D02*
X46850000Y-68630761D01*
X63251041Y-71345000D02*
X62655000Y-71345000D01*
X49500000Y-72800000D02*
X50000000Y-72800000D01*
X52790000Y-71960000D02*
X51820000Y-71960000D01*
X46850000Y-68630761D02*
X47240761Y-68240000D01*
X71500000Y-71200000D02*
X71500000Y-72495000D01*
X39800000Y-86400000D02*
X39768750Y-86431250D01*
D98*
X39768750Y-87549995D02*
X39768750Y-88949995D01*
D102*
X72300000Y-70400000D02*
X71500000Y-71200000D01*
X39768750Y-86431250D02*
X39768750Y-87549995D01*
D98*
X39768750Y-88949995D02*
X39868750Y-89049995D01*
D99*
X49875000Y-45000000D02*
X49875000Y-41525000D01*
X49900000Y-40500000D02*
X49900000Y-41500000D01*
X49875000Y-41525000D02*
X49900000Y-41500000D01*
X51000000Y-39400000D02*
X49900000Y-40500000D01*
X51540000Y-39400000D02*
X51000000Y-39400000D01*
D100*
X69000000Y-33600000D02*
X69200000Y-33800000D01*
D98*
X66350000Y-30000000D02*
X66350000Y-29240000D01*
D100*
X69000000Y-31937500D02*
X69000000Y-33600000D01*
D102*
X64500000Y-54700000D02*
X64100000Y-54300000D01*
X64100000Y-54300000D02*
X58200000Y-54300000D01*
X64500000Y-57145000D02*
X64500000Y-54700000D01*
X57835000Y-53935000D02*
X57835000Y-53225000D01*
X58200000Y-54300000D02*
X57835000Y-53935000D01*
X57500000Y-55300000D02*
X59900000Y-57700000D01*
X53900000Y-55300000D02*
X57500000Y-55300000D01*
X59900000Y-57700000D02*
X59900000Y-58300000D01*
X53100000Y-54500000D02*
X53900000Y-55300000D01*
X53100000Y-53490000D02*
X53100000Y-54500000D01*
X52835000Y-53225000D02*
X53100000Y-53490000D01*
X59900000Y-58300000D02*
X60420000Y-58820000D01*
X60420000Y-58820000D02*
X61325000Y-58820000D01*
X53070000Y-59370000D02*
X51170000Y-59370000D01*
X53100000Y-59400000D02*
X53070000Y-59370000D01*
X62680000Y-60320000D02*
X61325000Y-60320000D01*
X62700000Y-60300000D02*
X62680000Y-60320000D01*
X60080000Y-59820000D02*
X61325000Y-59820000D01*
X59270000Y-60630000D02*
X60080000Y-59820000D01*
X58230000Y-60630000D02*
X59270000Y-60630000D01*
D98*
X36890000Y-46050000D02*
X36900000Y-46060000D01*
D99*
X39900000Y-46075000D02*
X38400000Y-46075000D01*
X42635000Y-46075000D02*
X42660000Y-46050000D01*
X39900000Y-46075000D02*
X42635000Y-46075000D01*
D98*
X36900000Y-46060000D02*
X38385000Y-46060000D01*
D99*
X39900000Y-46075000D02*
X39900000Y-43300000D01*
D98*
X35650000Y-46050000D02*
X36890000Y-46050000D01*
X38385000Y-46060000D02*
X38400000Y-46075000D01*
D100*
X30200000Y-85962500D02*
X26815000Y-85962500D01*
X26815000Y-85962500D02*
X26777500Y-86000000D01*
D104*
X82300000Y-48000000D02*
X82600000Y-47700000D01*
X83200000Y-47700000D02*
X84075000Y-46825000D01*
X76723767Y-49899500D02*
X76773267Y-49850000D01*
X84075000Y-46825000D02*
X87000000Y-46825000D01*
X76773267Y-49850000D02*
X78362500Y-49850000D01*
D105*
X87000000Y-46825000D02*
X88500000Y-46825000D01*
D104*
X82600000Y-47700000D02*
X83200000Y-47700000D01*
X76550000Y-49350000D02*
X76100000Y-48900000D01*
X76100000Y-48900000D02*
X76100000Y-47000000D01*
X73600000Y-46500000D02*
X73000000Y-45900000D01*
X73000000Y-40825000D02*
X73625000Y-40200000D01*
X73000000Y-45900000D02*
X73000000Y-40825000D01*
X75600000Y-46500000D02*
X73600000Y-46500000D01*
X78362500Y-49350000D02*
X76550000Y-49350000D01*
X76100000Y-47000000D02*
X75600000Y-46500000D01*
D98*
X73625000Y-38700000D02*
X73625000Y-40200000D01*
D100*
X25590000Y-58000000D02*
X31410000Y-58000000D01*
D98*
X53010000Y-87400000D02*
X53890000Y-87400000D01*
X53890000Y-88240000D02*
X54450000Y-88800000D01*
X53890000Y-87400000D02*
X53890000Y-88240000D01*
X52800000Y-91500000D02*
X53500000Y-90800000D01*
X52800000Y-92275000D02*
X52800000Y-91500000D01*
X59490000Y-87400000D02*
X59490000Y-88340000D01*
X59490000Y-88340000D02*
X59950000Y-88800000D01*
X58610000Y-87400000D02*
X59490000Y-87400000D01*
X58300000Y-91500000D02*
X59000000Y-90800000D01*
X58300000Y-92275000D02*
X58300000Y-91500000D01*
X49150000Y-74710000D02*
X50040000Y-74710000D01*
X49150000Y-75590000D02*
X49150000Y-74710000D01*
X50040000Y-74710000D02*
X50500000Y-74250000D01*
X52500000Y-75450000D02*
X52950000Y-75900000D01*
X52950000Y-75900000D02*
X54025000Y-75900000D01*
X52500000Y-75200000D02*
X52500000Y-75450000D01*
X68200000Y-97590000D02*
X68200000Y-96620000D01*
X68200000Y-96620000D02*
X68970000Y-96620000D01*
X68970000Y-96620000D02*
X69350000Y-97000000D01*
D104*
X33750000Y-46050000D02*
X33750000Y-45450000D01*
X33750000Y-45450000D02*
X34160000Y-45040000D01*
X34160000Y-45040000D02*
X36900000Y-45040000D01*
X21340000Y-45660000D02*
X21700000Y-45300000D01*
X20930000Y-45660000D02*
X21340000Y-45660000D01*
X23230000Y-45300000D02*
X24180000Y-44350000D01*
X21700000Y-45300000D02*
X23230000Y-45300000D01*
D98*
X25500000Y-46910000D02*
X24220000Y-46910000D01*
X24220000Y-46910000D02*
X24180000Y-46950000D01*
X63050000Y-80850000D02*
X62300000Y-80100000D01*
X60057106Y-80100000D02*
X59507106Y-80650000D01*
X59507106Y-80650000D02*
X58800000Y-80650000D01*
X62300000Y-80100000D02*
X60057106Y-80100000D01*
X63050000Y-81240000D02*
X63050000Y-80850000D01*
D102*
X77800000Y-84650000D02*
X77800000Y-85600000D01*
X74500000Y-64300000D02*
X63600000Y-64300000D01*
X62700000Y-67346041D02*
X62226041Y-67820000D01*
X62226041Y-67820000D02*
X61325000Y-67820000D01*
X62700000Y-65200000D02*
X62700000Y-67346041D01*
X77800000Y-84650000D02*
X78790000Y-84650000D01*
X63600000Y-64300000D02*
X62700000Y-65200000D01*
X74900000Y-64700000D02*
X74500000Y-64300000D01*
D98*
X38543750Y-91657495D02*
X38543750Y-90599995D01*
X38543750Y-90599995D02*
X38593750Y-90549995D01*
X37018750Y-92254995D02*
X36863750Y-92099995D01*
X39141250Y-92254995D02*
X38088750Y-92254995D01*
X38543750Y-90499995D02*
X38543750Y-89374995D01*
X38543750Y-89374995D02*
X38218750Y-89049995D01*
X38088750Y-92254995D02*
X37018750Y-92254995D01*
X38593750Y-90549995D02*
X38543750Y-90499995D01*
X39141250Y-92254995D02*
X38543750Y-91657495D01*
D102*
X59500000Y-67600000D02*
X59780000Y-67320000D01*
X44600000Y-71000000D02*
X44300000Y-71000000D01*
X53040000Y-67740000D02*
X48850000Y-67740000D01*
X48850000Y-67740000D02*
X46960000Y-67740000D01*
X44900000Y-70700000D02*
X44600000Y-71000000D01*
X48654106Y-74200000D02*
X49150000Y-73704106D01*
X53300000Y-68000000D02*
X53040000Y-67740000D01*
X49150000Y-73704106D02*
X49150000Y-73690000D01*
X47600000Y-74200000D02*
X48654106Y-74200000D01*
X46960000Y-67740000D02*
X44900000Y-69800000D01*
X44900000Y-69800000D02*
X44900000Y-70700000D01*
X59780000Y-67320000D02*
X61325000Y-67320000D01*
X56744808Y-74999044D02*
X56744808Y-75444808D01*
X58325000Y-75775000D02*
X61100000Y-73000000D01*
X62495000Y-73000000D02*
X63000000Y-72495000D01*
X52860000Y-67240000D02*
X53300000Y-66800000D01*
X50760000Y-67240000D02*
X46552893Y-67240000D01*
X61100000Y-73000000D02*
X62495000Y-73000000D01*
X44375000Y-69417893D02*
X44375000Y-69925000D01*
X57075000Y-75775000D02*
X58325000Y-75775000D01*
X50760000Y-67240000D02*
X52860000Y-67240000D01*
X48850000Y-67240000D02*
X50760000Y-67240000D01*
X53300000Y-66800000D02*
X53300000Y-65510000D01*
X44375000Y-69925000D02*
X44300000Y-70000000D01*
X56744808Y-75444808D02*
X57075000Y-75775000D01*
X46552893Y-67240000D02*
X44375000Y-69417893D01*
X63800000Y-66900000D02*
X74000000Y-66900000D01*
X74000000Y-66900000D02*
X74300000Y-67200000D01*
X51500000Y-66600000D02*
X51360000Y-66740000D01*
X74300000Y-68422500D02*
X75197500Y-69320000D01*
X74300000Y-67200000D02*
X74300000Y-68422500D01*
X51360000Y-66740000D02*
X48850000Y-66740000D01*
X75197500Y-69320000D02*
X76675000Y-69320000D01*
X64200000Y-68900000D02*
X65000000Y-69700000D01*
X47360000Y-65240000D02*
X48850000Y-65240000D01*
X47200000Y-65400000D02*
X47360000Y-65240000D01*
X65000000Y-69700000D02*
X65000000Y-72495000D01*
X66600000Y-36075000D02*
X65400000Y-34875000D01*
X65400000Y-32800000D02*
X65400000Y-32000000D01*
X68300000Y-31000000D02*
X69700000Y-31000000D01*
X69000000Y-24100000D02*
X65812500Y-24100000D01*
X69700000Y-31000000D02*
X70130000Y-30570000D01*
X65400000Y-34875000D02*
X65400000Y-32800000D01*
X70130000Y-25230000D02*
X69000000Y-24100000D01*
X65400000Y-32000000D02*
X65500000Y-31900000D01*
X65387500Y-24525000D02*
X65387500Y-25450000D01*
X65500000Y-31900000D02*
X67400000Y-31900000D01*
X70130000Y-30570000D02*
X70130000Y-25230000D01*
X67400000Y-31900000D02*
X68300000Y-31000000D01*
X65812500Y-24100000D02*
X65387500Y-24525000D01*
D105*
X74535000Y-51575000D02*
X74935000Y-51175000D01*
D104*
X78362500Y-50850000D02*
X77550000Y-50850000D01*
X77225000Y-51175000D02*
X76725000Y-51175000D01*
X77550000Y-50850000D02*
X77225000Y-51175000D01*
D105*
X74535000Y-52775000D02*
X74535000Y-51575000D01*
D102*
X69125000Y-53600000D02*
X74100000Y-53600000D01*
X74535000Y-53165000D02*
X74535000Y-52775000D01*
X74100000Y-53600000D02*
X74535000Y-53165000D01*
D104*
X74935000Y-51175000D02*
X76725000Y-51175000D01*
D102*
X45600000Y-64700000D02*
X46400000Y-63900000D01*
X47875000Y-64240000D02*
X48850000Y-64240000D01*
X45600000Y-65000000D02*
X45600000Y-64700000D01*
X64300000Y-70100000D02*
X64500000Y-70300000D01*
X64500000Y-70300000D02*
X64500000Y-72495000D01*
X46400000Y-63900000D02*
X47535000Y-63900000D01*
X47535000Y-63900000D02*
X47875000Y-64240000D01*
X58781482Y-63240000D02*
X48850000Y-63240000D01*
X59116155Y-66516155D02*
X59116155Y-63574673D01*
X61325000Y-66820000D02*
X59420000Y-66820000D01*
X59116155Y-63574673D02*
X58781482Y-63240000D01*
X59420000Y-66820000D02*
X59116155Y-66516155D01*
X60000000Y-65300000D02*
X60000000Y-63751412D01*
X63800000Y-66000000D02*
X74500000Y-66000000D01*
X58988588Y-62740000D02*
X48850000Y-62740000D01*
X75000000Y-66500000D02*
X75000000Y-67893959D01*
X74500000Y-66000000D02*
X75000000Y-66500000D01*
X60000000Y-63751412D02*
X58988588Y-62740000D01*
X75000000Y-67893959D02*
X75426041Y-68320000D01*
X75426041Y-68320000D02*
X76675000Y-68320000D01*
X63855049Y-71136541D02*
X64000000Y-71281492D01*
X47700000Y-62500000D02*
X47960000Y-62240000D01*
X47700000Y-63000000D02*
X47700000Y-62500000D01*
X46100000Y-63300000D02*
X47400000Y-63300000D01*
X64000000Y-71281492D02*
X64000000Y-72495000D01*
X47400000Y-63300000D02*
X47700000Y-63000000D01*
X45000000Y-64400000D02*
X46100000Y-63300000D01*
X47960000Y-62240000D02*
X48850000Y-62240000D01*
X45300000Y-67200000D02*
X45000000Y-66900000D01*
X45000000Y-66900000D02*
X45000000Y-64400000D01*
X66100000Y-60200000D02*
X67800000Y-60200000D01*
X47160000Y-61740000D02*
X48850000Y-61740000D01*
X67800000Y-60200000D02*
X69000000Y-59000000D01*
X46600000Y-62300000D02*
X47160000Y-61740000D01*
X69000000Y-59000000D02*
X69000000Y-57145000D01*
X60112727Y-69820000D02*
X61325000Y-69820000D01*
X45260000Y-61240000D02*
X48850000Y-61240000D01*
X59100000Y-72607106D02*
X59100000Y-70832727D01*
X57500000Y-74424544D02*
X58375456Y-74424544D01*
X58375456Y-74424544D02*
X58700000Y-74100000D01*
X58700000Y-74100000D02*
X58700000Y-73007106D01*
X44400000Y-62200000D02*
X44400000Y-62100000D01*
X44400000Y-62100000D02*
X45260000Y-61240000D01*
X58700000Y-73007106D02*
X59100000Y-72607106D01*
X59100000Y-70832727D02*
X60112727Y-69820000D01*
X67000000Y-58800000D02*
X68200000Y-58800000D01*
X48850000Y-60740000D02*
X47474500Y-60740000D01*
X47474500Y-60740000D02*
X47400000Y-60665500D01*
X68200000Y-58800000D02*
X68500000Y-58500000D01*
X68500000Y-58500000D02*
X68500000Y-57145000D01*
X57606233Y-73206233D02*
X57793767Y-73206233D01*
X47840000Y-60240000D02*
X48850000Y-60240000D01*
X57793767Y-73206233D02*
X58600000Y-72400000D01*
X58600000Y-72400000D02*
X58600000Y-69900000D01*
X47400000Y-59800000D02*
X47840000Y-60240000D01*
X59905620Y-69320000D02*
X61325000Y-69320000D01*
X58796447Y-69703553D02*
X59522068Y-69703553D01*
X58600000Y-69900000D02*
X58796447Y-69703553D01*
X59522068Y-69703553D02*
X59905620Y-69320000D01*
D98*
X23900000Y-97000000D02*
X25300000Y-98400000D01*
X25700000Y-91000000D02*
X23900000Y-92800000D01*
X26777500Y-91000000D02*
X25700000Y-91000000D01*
X23900000Y-92800000D02*
X23900000Y-97000000D01*
X25300000Y-98400000D02*
X34743745Y-98400000D01*
X34743745Y-98400000D02*
X35293750Y-97849995D01*
D102*
X20725000Y-57075000D02*
X20725000Y-64735000D01*
X74000000Y-56036853D02*
X74000000Y-57145000D01*
X21800000Y-67300000D02*
X21800000Y-66445000D01*
X21800000Y-56000000D02*
X20725000Y-57075000D01*
X72700000Y-54900000D02*
X72863147Y-54900000D01*
X21990000Y-66000000D02*
X22490000Y-66000000D01*
X40700000Y-56000000D02*
X21800000Y-56000000D01*
X20725000Y-64735000D02*
X21990000Y-66000000D01*
X21800000Y-66445000D02*
X22245000Y-66000000D01*
X72863147Y-54900000D02*
X74000000Y-56036853D01*
X22245000Y-66000000D02*
X22490000Y-66000000D01*
X25750000Y-64000000D02*
X25260000Y-64000000D01*
X73500000Y-57145000D02*
X73500000Y-56243959D01*
X27300000Y-60700000D02*
X27300000Y-62300000D01*
X72956041Y-55700000D02*
X72700000Y-55700000D01*
X40700000Y-60300000D02*
X40500000Y-60100000D01*
X26900000Y-62700000D02*
X25950000Y-62700000D01*
X27900000Y-60100000D02*
X27300000Y-60700000D01*
X73500000Y-56243959D02*
X72956041Y-55700000D01*
X25950000Y-62700000D02*
X25950000Y-63800000D01*
X40500000Y-60100000D02*
X27900000Y-60100000D01*
X27300000Y-62300000D02*
X26900000Y-62700000D01*
X25950000Y-63800000D02*
X25750000Y-64000000D01*
X52210000Y-58090000D02*
X52900000Y-57400000D01*
X52890000Y-58090000D02*
X51170000Y-58090000D01*
X62700000Y-59300000D02*
X62680000Y-59320000D01*
X62680000Y-59320000D02*
X61325000Y-59320000D01*
X53100000Y-58300000D02*
X52890000Y-58090000D01*
X52900000Y-57400000D02*
X52900000Y-56700000D01*
X51170000Y-58090000D02*
X52210000Y-58090000D01*
X60180000Y-60820000D02*
X59100000Y-61900000D01*
X61325000Y-60820000D02*
X60180000Y-60820000D01*
X59100000Y-61900000D02*
X58230000Y-61900000D01*
X83100000Y-65400000D02*
X83700000Y-66000000D01*
X77920000Y-65320000D02*
X76675000Y-65320000D01*
X78790000Y-77510000D02*
X78790000Y-78350000D01*
X78000000Y-65400000D02*
X77920000Y-65320000D01*
X83700000Y-66000000D02*
X83700000Y-72600000D01*
X83700000Y-72600000D02*
X78790000Y-77510000D01*
X78790000Y-78350000D02*
X77860000Y-78350000D01*
D107*
X83200000Y-56000000D02*
X82800000Y-56400000D01*
X80400000Y-56400000D02*
X79926500Y-56873500D01*
X79926500Y-56873500D02*
X79926500Y-66473500D01*
X83200000Y-53800000D02*
X83200000Y-56000000D01*
X82201500Y-52801500D02*
X83200000Y-53800000D01*
X81050000Y-52650000D02*
X81201500Y-52801500D01*
X78580000Y-67820000D02*
X76675000Y-67820000D01*
X82800000Y-56400000D02*
X80400000Y-56400000D01*
X81201500Y-52801500D02*
X82201500Y-52801500D01*
X79926500Y-66473500D02*
X78580000Y-67820000D01*
X81050000Y-52037500D02*
X81050000Y-52650000D01*
X79050000Y-52037500D02*
X79050000Y-66250000D01*
X78480000Y-66820000D02*
X76675000Y-66820000D01*
X79050000Y-66250000D02*
X78480000Y-66820000D01*
X79550000Y-66282452D02*
X78512452Y-67320000D01*
X78512452Y-67320000D02*
X76675000Y-67320000D01*
X79550000Y-52037500D02*
X79550000Y-66282452D01*
D102*
X56000000Y-87400000D02*
X54910000Y-87400000D01*
X57100000Y-86300000D02*
X56000000Y-87400000D01*
X70000000Y-70000000D02*
X70300000Y-69700000D01*
X70000000Y-72495000D02*
X70000000Y-70000000D01*
X60800000Y-86300000D02*
X57100000Y-86300000D01*
X71412570Y-70400000D02*
X71000000Y-70812570D01*
X71000000Y-70812570D02*
X71000000Y-72495000D01*
X61500000Y-87400000D02*
X60510000Y-87400000D01*
D98*
X39600000Y-74400000D02*
X40300000Y-74400000D01*
X39100000Y-74900000D02*
X39600000Y-74400000D01*
D102*
X53000000Y-85600000D02*
X52900000Y-85500000D01*
D98*
X38500000Y-76400000D02*
X39100000Y-75800000D01*
X36690000Y-78210000D02*
X38500000Y-76400000D01*
D102*
X75225500Y-74814494D02*
X75000000Y-75039994D01*
D98*
X36500005Y-78210000D02*
X36690000Y-78210000D01*
X39100000Y-75800000D02*
X39100000Y-74900000D01*
D102*
X72500000Y-82500000D02*
X67100000Y-82500000D01*
X75000000Y-75039994D02*
X75000000Y-80000000D01*
X74000000Y-71593959D02*
X74000000Y-72495000D01*
X67100000Y-82500000D02*
X64000000Y-85600000D01*
X74393959Y-71200000D02*
X74000000Y-71593959D01*
X74400000Y-71200000D02*
X74393959Y-71200000D01*
X75000000Y-80000000D02*
X72500000Y-82500000D01*
X64000000Y-85600000D02*
X53000000Y-85600000D01*
D107*
X78200000Y-53320000D02*
X77200000Y-53320000D01*
X78362500Y-51350000D02*
X78362500Y-53157500D01*
X78362500Y-53157500D02*
X78200000Y-53320000D01*
X82237500Y-51705048D02*
X84100000Y-53567548D01*
X73700000Y-69700000D02*
X71300000Y-69700000D01*
X80679500Y-57720500D02*
X80679500Y-71120500D01*
X70500000Y-70500000D02*
X70500000Y-72495000D01*
X79000000Y-72800000D02*
X76900000Y-72800000D01*
X71300000Y-69700000D02*
X70500000Y-70500000D01*
X80679500Y-71120500D02*
X79000000Y-72800000D01*
X83132452Y-57200000D02*
X81200000Y-57200000D01*
X76600000Y-71500000D02*
X75500000Y-71500000D01*
X81200000Y-57200000D02*
X80679500Y-57720500D01*
X84100000Y-53567548D02*
X84100000Y-56232452D01*
X75500000Y-71500000D02*
X73700000Y-69700000D01*
X84100000Y-56232452D02*
X83132452Y-57200000D01*
X82237500Y-51350000D02*
X82237500Y-51705048D01*
X85325000Y-56975000D02*
X85325000Y-51200000D01*
X74500000Y-72495000D02*
X74500000Y-73308713D01*
X74500000Y-73308713D02*
X75591287Y-74400000D01*
X82100000Y-72100000D02*
X82100000Y-60200000D01*
X75591287Y-74400000D02*
X79800000Y-74400000D01*
X79800000Y-74400000D02*
X82100000Y-72100000D01*
X82100000Y-60200000D02*
X85325000Y-56975000D01*
X80700000Y-56800000D02*
X80303000Y-57197000D01*
X75295000Y-72200000D02*
X75000000Y-72495000D01*
X80303000Y-70897000D02*
X79000000Y-72200000D01*
X81550000Y-52037500D02*
X82037500Y-52037500D01*
X80303000Y-57197000D02*
X80303000Y-70897000D01*
X79000000Y-72200000D02*
X75295000Y-72200000D01*
X82037500Y-52037500D02*
X83700000Y-53700000D01*
X83700000Y-56100000D02*
X83000000Y-56800000D01*
X83000000Y-56800000D02*
X80700000Y-56800000D01*
X83700000Y-53700000D02*
X83700000Y-56100000D01*
X84100000Y-49500000D02*
X83774154Y-49500000D01*
X83424154Y-49850000D02*
X82237500Y-49850000D01*
X75500000Y-57500000D02*
X75500000Y-59600000D01*
X75500000Y-59600000D02*
X75720000Y-59820000D01*
X76000000Y-57000000D02*
X75500000Y-57500000D01*
X75720000Y-59820000D02*
X76675000Y-59820000D01*
X83774154Y-49500000D02*
X83424154Y-49850000D01*
X75000000Y-55600000D02*
X75000000Y-57145000D01*
X83484274Y-48987250D02*
X83412750Y-48987250D01*
X83412750Y-48987250D02*
X83050000Y-49350000D01*
X75100000Y-55500000D02*
X75000000Y-55600000D01*
X83050000Y-49350000D02*
X82237500Y-49350000D01*
X74500000Y-55006766D02*
X74500000Y-57145000D01*
X74657266Y-54849500D02*
X74500000Y-55006766D01*
X83000000Y-48300000D02*
X83000000Y-48700000D01*
X83000000Y-48700000D02*
X82850000Y-48850000D01*
X82850000Y-48850000D02*
X82237500Y-48850000D01*
D102*
X73200000Y-59700000D02*
X73000000Y-59500000D01*
X73000000Y-59500000D02*
X73000000Y-57145000D01*
X84100000Y-60000000D02*
X84700000Y-60600000D01*
X81500000Y-80900000D02*
X82475000Y-80900000D01*
X84700000Y-72550000D02*
X80700000Y-76550000D01*
X84100000Y-59700000D02*
X84100000Y-60000000D01*
X80700000Y-76550000D02*
X80700000Y-80100000D01*
X84700000Y-60600000D02*
X84700000Y-72550000D01*
X80700000Y-80100000D02*
X81500000Y-80900000D01*
X81600000Y-76357106D02*
X85500000Y-72457106D01*
X72500000Y-58825500D02*
X72500000Y-57145000D01*
X81600000Y-78525000D02*
X81600000Y-76357106D01*
X72425500Y-58900000D02*
X72500000Y-58825500D01*
X82475000Y-79400000D02*
X81600000Y-78525000D01*
X85500000Y-59300000D02*
X85100000Y-58900000D01*
X85100000Y-58900000D02*
X84900000Y-58900000D01*
X85500000Y-72457106D02*
X85500000Y-59300000D01*
X67500000Y-57145000D02*
X67500000Y-55225000D01*
X67500000Y-55225000D02*
X67475000Y-55200000D01*
D103*
X81210000Y-43290000D02*
X80588149Y-43911851D01*
X83188149Y-42252249D02*
X82150398Y-43290000D01*
X81900000Y-35200000D02*
X81900000Y-36700000D01*
X82000000Y-40050000D02*
X82950000Y-40050000D01*
X80588149Y-43911851D02*
X80588149Y-48124351D01*
X83188149Y-39488149D02*
X83188149Y-42252249D01*
X83188149Y-37988149D02*
X83188149Y-38988149D01*
X83188149Y-38988149D02*
X83188149Y-39488149D01*
X83940000Y-33160000D02*
X81900000Y-35200000D01*
X83188149Y-38708149D02*
X83188149Y-38988149D01*
X81900000Y-36700000D02*
X83188149Y-37988149D01*
X82950000Y-40050000D02*
X83188149Y-39811851D01*
X83188149Y-39811851D02*
X83188149Y-39711851D01*
X80588149Y-48124351D02*
X80550000Y-48162500D01*
X81450000Y-43290000D02*
X81210000Y-43290000D01*
X82150398Y-43290000D02*
X81450000Y-43290000D01*
X83611851Y-42427751D02*
X82450000Y-43589602D01*
X83611851Y-38708149D02*
X83611851Y-38911851D01*
X83611851Y-39488149D02*
X83611851Y-42427751D01*
X82880000Y-35700000D02*
X82320500Y-36259500D01*
X82320500Y-36525824D02*
X83608649Y-37813973D01*
X83608649Y-37813973D02*
X83608649Y-38088649D01*
X83608649Y-38088649D02*
X83611851Y-38091851D01*
X82450000Y-43589602D02*
X82450000Y-44390000D01*
X82320500Y-36259500D02*
X82320500Y-36525824D01*
X83836851Y-40050000D02*
X84800000Y-40050000D01*
X83611851Y-38091851D02*
X83611851Y-38911851D01*
X82450000Y-44406958D02*
X82450000Y-44390000D01*
X83611851Y-39825000D02*
X83836851Y-40050000D01*
X83611851Y-38911851D02*
X83611851Y-39488149D01*
X83611851Y-39738149D02*
X83611851Y-39825000D01*
X81011851Y-45845107D02*
X82450000Y-44406958D01*
X81011851Y-48124351D02*
X81011851Y-45845107D01*
X81050000Y-48162500D02*
X81011851Y-48124351D01*
X78350000Y-44490000D02*
X78350000Y-44529857D01*
X77238149Y-39461851D02*
X77238149Y-42477751D01*
X78379500Y-36820500D02*
X78379500Y-36279500D01*
X77238149Y-39811851D02*
X77000000Y-40050000D01*
X77238149Y-39461851D02*
X77238149Y-39811851D01*
X78350000Y-44529857D02*
X79550000Y-45729857D01*
X78350000Y-43589602D02*
X78350000Y-44490000D01*
X77238149Y-42477751D02*
X78350000Y-43589602D01*
X78379500Y-36279500D02*
X77800000Y-35700000D01*
X79550000Y-45729857D02*
X79550000Y-48162500D01*
X77000000Y-40050000D02*
X76000000Y-40050000D01*
X77238149Y-37961851D02*
X78379500Y-36820500D01*
X77238149Y-39461851D02*
X77238149Y-37961851D01*
X77661851Y-38138149D02*
X78800000Y-37000000D01*
X76760000Y-33160000D02*
X76530000Y-33160000D01*
X80011851Y-43911851D02*
X80011851Y-48124351D01*
X80011851Y-48124351D02*
X80050000Y-48162500D01*
X77661851Y-42302249D02*
X78649602Y-43290000D01*
X77950000Y-40050000D02*
X77661851Y-39761851D01*
X78800000Y-35200000D02*
X76760000Y-33160000D01*
X77661851Y-39761851D02*
X77661851Y-39438149D01*
X79390000Y-43290000D02*
X80011851Y-43911851D01*
X78649602Y-43290000D02*
X79350000Y-43290000D01*
X78800000Y-40050000D02*
X77950000Y-40050000D01*
X77661851Y-39438149D02*
X77661851Y-38138149D01*
X78800000Y-37000000D02*
X78800000Y-35200000D01*
X77661851Y-39438149D02*
X77661851Y-42302249D01*
X79350000Y-43290000D02*
X79390000Y-43290000D01*
D98*
X60850000Y-29600000D02*
X62275000Y-29600000D01*
X62400000Y-27725000D02*
X62425000Y-27700000D01*
X62400000Y-29475000D02*
X62400000Y-27725000D01*
X60850000Y-30950000D02*
X60850000Y-29600000D01*
X62275000Y-29600000D02*
X62400000Y-29475000D01*
X39141250Y-94794995D02*
X37298750Y-94794995D01*
X35293750Y-95049995D02*
X35043750Y-94799995D01*
X37293750Y-94799995D02*
X35543750Y-94799995D01*
X37298750Y-94794995D02*
X37293750Y-94799995D01*
X33368750Y-94799995D02*
X33293750Y-94874995D01*
X35543750Y-94799995D02*
X35293750Y-95049995D01*
X35043750Y-94799995D02*
X33368750Y-94799995D01*
X69600000Y-94300000D02*
X70300000Y-95000000D01*
X70300000Y-95000000D02*
X70300000Y-92925000D01*
X68400000Y-94300000D02*
X69600000Y-94300000D01*
D105*
X58497150Y-52450350D02*
X56335350Y-52450350D01*
X59335000Y-51612500D02*
X58497150Y-52450350D01*
X56335350Y-52450350D02*
X55335000Y-53450700D01*
X60420000Y-50527500D02*
X59335000Y-51612500D01*
X60420000Y-48900000D02*
X60420000Y-50527500D01*
X55335000Y-53450700D02*
X55335000Y-54300000D01*
D102*
X83400000Y-83700000D02*
X84000000Y-83700000D01*
X83000000Y-82275000D02*
X83000000Y-83300000D01*
D98*
X86630000Y-77900000D02*
X86650000Y-77920000D01*
D102*
X83300000Y-78687500D02*
X83300000Y-81975000D01*
D98*
X84087500Y-77900000D02*
X86630000Y-77900000D01*
D102*
X84087500Y-77900000D02*
X83300000Y-78687500D01*
X83000000Y-83300000D02*
X83400000Y-83700000D01*
X83300000Y-81975000D02*
X83000000Y-82275000D01*
D104*
X32300000Y-44290000D02*
X33410000Y-44290000D01*
X33750000Y-43950000D02*
X33750000Y-43450000D01*
X33410000Y-44290000D02*
X33750000Y-43950000D01*
D102*
X66500000Y-55743959D02*
X66500000Y-54575000D01*
X66500000Y-54575000D02*
X67475000Y-53600000D01*
X67000000Y-57145000D02*
X67000000Y-56243959D01*
X67000000Y-56243959D02*
X66500000Y-55743959D01*
D105*
X51335000Y-51575000D02*
X52210350Y-52450350D01*
X53350350Y-52450350D02*
X54385000Y-53485000D01*
X50260000Y-50500000D02*
X51335000Y-51575000D01*
X52210350Y-52450350D02*
X53350350Y-52450350D01*
X54385000Y-53485000D02*
X54385000Y-54300000D01*
X50260000Y-48900000D02*
X50260000Y-50500000D01*
X54310000Y-51575000D02*
X54385000Y-51500000D01*
X52800000Y-51540000D02*
X52835000Y-51575000D01*
X52835000Y-51575000D02*
X54310000Y-51575000D01*
X52800000Y-48900000D02*
X52800000Y-51540000D01*
X56285000Y-51500000D02*
X57760000Y-51500000D01*
X57760000Y-51500000D02*
X57835000Y-51575000D01*
X57835000Y-51575000D02*
X57835000Y-48945000D01*
X57835000Y-48945000D02*
X57880000Y-48900000D01*
D98*
X88200000Y-87800000D02*
X89000000Y-87000000D01*
X84125000Y-79400000D02*
X85590000Y-79400000D01*
X84000000Y-86900000D02*
X84900000Y-87800000D01*
X89000000Y-87000000D02*
X89000000Y-82810000D01*
X85590000Y-79400000D02*
X86650000Y-80460000D01*
X89000000Y-82810000D02*
X86650000Y-80460000D01*
X84900000Y-87800000D02*
X88200000Y-87800000D01*
X84000000Y-84650000D02*
X84000000Y-86900000D01*
X84550000Y-80900000D02*
X86650000Y-83000000D01*
X84125000Y-80900000D02*
X84125000Y-82625000D01*
X84125000Y-80900000D02*
X84550000Y-80900000D01*
X84125000Y-82625000D02*
X84000000Y-82750000D01*
D102*
X79810000Y-83660000D02*
X78950000Y-82800000D01*
X79810000Y-84650000D02*
X79810000Y-83660000D01*
X81200000Y-84650000D02*
X79810000Y-84650000D01*
X79810000Y-79340000D02*
X78950000Y-80200000D01*
X78950000Y-80500000D02*
X81200000Y-82750000D01*
X79810000Y-78350000D02*
X79810000Y-79340000D01*
X78950000Y-80200000D02*
X78950000Y-80500000D01*
D98*
X88900000Y-31600000D02*
X88900000Y-38212500D01*
X87650000Y-30710000D02*
X88010000Y-30710000D01*
X88900000Y-38212500D02*
X88500000Y-38612500D01*
X88010000Y-30710000D02*
X88900000Y-31600000D01*
D99*
X46200000Y-41725000D02*
X46775000Y-41725000D01*
D98*
X47950000Y-38450000D02*
X47925000Y-38425000D01*
D100*
X53950000Y-30950000D02*
X52887500Y-29887500D01*
X52887500Y-29887500D02*
X52887500Y-28500000D01*
D98*
X49060000Y-38450000D02*
X47950000Y-38450000D01*
D99*
X48000000Y-40500000D02*
X48000000Y-38500000D01*
X46200000Y-43287500D02*
X46262500Y-43350000D01*
X46200000Y-41725000D02*
X46200000Y-43287500D01*
X46200000Y-41725000D02*
X46225000Y-41700000D01*
D100*
X58950000Y-30950000D02*
X53950000Y-30950000D01*
D99*
X46775000Y-41725000D02*
X48000000Y-40500000D01*
D102*
X73480000Y-74377035D02*
X73480000Y-74420000D01*
X73000000Y-72495000D02*
X73000000Y-73897035D01*
X73000000Y-71500000D02*
X73000000Y-72495000D01*
D98*
X46194995Y-94794995D02*
X46200000Y-94800000D01*
D102*
X73000000Y-73897035D02*
X73480000Y-74377035D01*
D98*
X44561250Y-93534995D02*
X44561250Y-94794995D01*
X44561250Y-94794995D02*
X46194995Y-94794995D01*
D102*
X73300000Y-71200000D02*
X73000000Y-71500000D01*
D98*
X39800000Y-33500000D02*
X39800000Y-31200000D01*
D100*
X37900000Y-23562500D02*
X40262500Y-23562500D01*
D98*
X51525000Y-45875000D02*
X51100000Y-46300000D01*
X51100000Y-46300000D02*
X49300000Y-46300000D01*
X39800000Y-31200000D02*
X40262500Y-30737500D01*
X51525000Y-45000000D02*
X51525000Y-45875000D01*
X40262500Y-30737500D02*
X40262500Y-23562500D01*
X48500000Y-45500000D02*
X48500000Y-41800000D01*
X41700000Y-35400000D02*
X39800000Y-33500000D01*
X41700000Y-37200000D02*
X41700000Y-35400000D01*
D100*
X41237500Y-23562500D02*
X41700000Y-23100000D01*
D98*
X49300000Y-46300000D02*
X48500000Y-45500000D01*
D100*
X40262500Y-23562500D02*
X41237500Y-23562500D01*
X51680000Y-23000000D02*
X49137500Y-23000000D01*
X49137500Y-23000000D02*
X48937500Y-22800000D01*
X54220000Y-23000000D02*
X54220000Y-24920000D01*
X54220000Y-24920000D02*
X57162500Y-27862500D01*
X57162500Y-27862500D02*
X57162500Y-28500000D01*
X33900000Y-26500000D02*
X33900000Y-24800000D01*
X37900000Y-27837500D02*
X35237500Y-27837500D01*
X35237500Y-27837500D02*
X33900000Y-26500000D01*
D98*
X22280000Y-41740000D02*
X22305000Y-41715000D01*
X22280000Y-44350000D02*
X22280000Y-41740000D01*
X22280000Y-44350000D02*
X21220000Y-44350000D01*
X21220000Y-44350000D02*
X20930000Y-44640000D01*
X52800000Y-93925000D02*
X52800000Y-93812500D01*
X52800000Y-93812500D02*
X54300000Y-92312500D01*
X58300000Y-93925000D02*
X58300000Y-93812500D01*
X58300000Y-93812500D02*
X59800000Y-92312500D01*
X55637500Y-75862500D02*
X55675000Y-75900000D01*
X55637500Y-74400000D02*
X55637500Y-75862500D01*
X42087500Y-83800000D02*
X43575000Y-83800000D01*
X22250000Y-72000000D02*
X23410000Y-72000000D01*
X21800000Y-71550000D02*
X22250000Y-72000000D01*
X24200000Y-68250000D02*
X21800000Y-68250000D01*
X21800000Y-68250000D02*
X21800000Y-69200000D01*
X21800000Y-69200000D02*
X21800000Y-71550000D01*
D99*
X44137500Y-44037500D02*
X45200000Y-45100000D01*
X44200000Y-43287500D02*
X44137500Y-43350000D01*
X44200000Y-41725000D02*
X44200000Y-43287500D01*
X44137500Y-43350000D02*
X44137500Y-44037500D01*
X45200000Y-45100000D02*
X45200000Y-46050000D01*
D104*
X58400000Y-63920000D02*
X55317500Y-63920000D01*
X55317500Y-63920000D02*
X54687500Y-64550000D01*
D100*
X44662500Y-24637500D02*
X46025000Y-26000000D01*
X44662500Y-22800000D02*
X44662500Y-24637500D01*
X44300000Y-26537500D02*
X45487500Y-26537500D01*
X45487500Y-26537500D02*
X46025000Y-26000000D01*
X42262500Y-26537500D02*
X41700000Y-27100000D01*
X44300000Y-26537500D02*
X42262500Y-26537500D01*
D102*
X60920000Y-75990000D02*
X61150000Y-76220000D01*
X60920000Y-74720000D02*
X60920000Y-74677035D01*
X66251041Y-73645000D02*
X66500000Y-73396041D01*
X61952035Y-73645000D02*
X66251041Y-73645000D01*
X66500000Y-73396041D02*
X66500000Y-72495000D01*
X60920000Y-74677035D02*
X61952035Y-73645000D01*
X60920000Y-74720000D02*
X60920000Y-75990000D01*
X67000000Y-72495000D02*
X67000000Y-73620000D01*
X67000000Y-73620000D02*
X66475000Y-74145000D01*
X63880000Y-74720000D02*
X63880000Y-75990000D01*
X63880000Y-75990000D02*
X63650000Y-76220000D01*
X63880000Y-74565000D02*
X63880000Y-74720000D01*
X64300000Y-74145000D02*
X63880000Y-74565000D01*
X66475000Y-74145000D02*
X64300000Y-74145000D01*
X65500000Y-71100000D02*
X65900000Y-70700000D01*
X65500000Y-72495000D02*
X65500000Y-71100000D01*
X60560000Y-78760000D02*
X62100000Y-78760000D01*
D98*
X62100000Y-78760000D02*
X62360000Y-78500000D01*
X62360000Y-78500000D02*
X63220000Y-78500000D01*
D102*
X59600000Y-75500000D02*
X59600000Y-77800000D01*
X59600000Y-77800000D02*
X60560000Y-78760000D01*
X78180000Y-59320000D02*
X78300000Y-59200000D01*
X76675000Y-59320000D02*
X78180000Y-59320000D01*
X63780000Y-55680000D02*
X63780000Y-55200000D01*
X64000000Y-55900000D02*
X63780000Y-55680000D01*
X64000000Y-57145000D02*
X64000000Y-55900000D01*
X67500000Y-77900000D02*
X68500000Y-76900000D01*
X68500000Y-76900000D02*
X68500000Y-72495000D01*
X67400000Y-77900000D02*
X67500000Y-77900000D01*
X65800000Y-77490000D02*
X66990000Y-77490000D01*
X66990000Y-77490000D02*
X67400000Y-77900000D01*
X71200000Y-76530000D02*
X69990000Y-76530000D01*
X69600000Y-76140000D02*
X69000000Y-75540000D01*
X69990000Y-76530000D02*
X69600000Y-76140000D01*
X69000000Y-75540000D02*
X69000000Y-72495000D01*
D106*
X69200000Y-26112500D02*
X68537500Y-25450000D01*
X69200000Y-26912500D02*
X69200000Y-26112500D01*
D98*
X70387500Y-89800000D02*
X75700000Y-89800000D01*
X70300000Y-89887500D02*
X70387500Y-89800000D01*
X68775000Y-89900000D02*
X70287500Y-89900000D01*
X68400000Y-90275000D02*
X68775000Y-89900000D01*
X68400000Y-91500000D02*
X68400000Y-90275000D01*
X70287500Y-89900000D02*
X70300000Y-89887500D01*
X75700000Y-89800000D02*
X76200000Y-90300000D01*
X72175000Y-91275000D02*
X76200000Y-95300000D01*
X70300000Y-91275000D02*
X72175000Y-91275000D01*
D102*
X66000000Y-57145000D02*
X66000000Y-38325000D01*
X66000000Y-38325000D02*
X66600000Y-37725000D01*
D108*
X66687500Y-25450000D02*
X66687500Y-26462501D01*
X66687500Y-26462501D02*
X66591400Y-26558601D01*
X65674363Y-30900000D02*
X64344600Y-32229763D01*
X67050000Y-30900000D02*
X65674363Y-30900000D01*
X66591400Y-26558601D02*
X66591400Y-28541399D01*
X67300000Y-29249999D02*
X67300000Y-30000000D01*
X65494600Y-54048682D02*
X65494600Y-57139600D01*
X65494600Y-57139600D02*
X65500000Y-57145000D01*
X67300000Y-30650000D02*
X67050000Y-30900000D01*
X64344600Y-52898682D02*
X65494600Y-54048682D01*
X66591400Y-28541399D02*
X67300000Y-29249999D01*
X67300000Y-30000000D02*
X67300000Y-30650000D01*
X64344600Y-32229763D02*
X64344600Y-52898682D01*
X66037500Y-25450000D02*
X66037500Y-26462501D01*
X66037500Y-26462501D02*
X66105400Y-26530401D01*
X65400000Y-30487055D02*
X63855400Y-32031655D01*
X65005400Y-57139600D02*
X65000000Y-57145000D01*
X65005400Y-54251318D02*
X65005400Y-57139600D01*
X65400000Y-29249999D02*
X65400000Y-30000000D01*
X63855400Y-53101318D02*
X65005400Y-54251318D01*
X66105400Y-26530401D02*
X66105400Y-28544599D01*
X65400000Y-30000000D02*
X65400000Y-30487055D01*
X66105400Y-28544599D02*
X65400000Y-29249999D01*
X63855400Y-32031655D02*
X63855400Y-53101318D01*
D100*
X33590000Y-58000000D02*
X39410000Y-58000000D01*
D105*
X73575000Y-48575000D02*
X73175000Y-48975000D01*
D104*
X76300000Y-50700000D02*
X77063604Y-50700000D01*
D105*
X73575000Y-47375000D02*
X73575000Y-48575000D01*
D104*
X77063604Y-50700000D02*
X77413604Y-50350000D01*
X75600000Y-50000000D02*
X76300000Y-50700000D01*
X74200000Y-50000000D02*
X75600000Y-50000000D01*
X77413604Y-50350000D02*
X78362500Y-50350000D01*
X73175000Y-48975000D02*
X74200000Y-50000000D01*
D99*
X42125000Y-74425000D02*
X42125000Y-75600000D01*
X41590000Y-73890000D02*
X42125000Y-74425000D01*
X40912500Y-75600000D02*
X40500000Y-76012500D01*
X42125000Y-75600000D02*
X40912500Y-75600000D01*
X41590000Y-72000000D02*
X41590000Y-73890000D01*
X42137500Y-54687500D02*
X42550000Y-55100000D01*
X42550000Y-55100000D02*
X42550000Y-56850000D01*
X41590000Y-57810000D02*
X41590000Y-58000000D01*
X40925000Y-54687500D02*
X42137500Y-54687500D01*
X42550000Y-56850000D02*
X41590000Y-57810000D01*
D98*
X28100005Y-74850000D02*
X26540005Y-74850000D01*
X34700008Y-74849997D02*
X28100008Y-74849997D01*
X35300008Y-76099997D02*
X34700008Y-75499997D01*
X25400008Y-75299997D02*
X25810008Y-74889997D01*
X25400008Y-77299997D02*
X25400008Y-75299997D01*
X26500008Y-77619997D02*
X25720008Y-77619997D01*
X25720008Y-77619997D02*
X25400008Y-77299997D01*
X36500008Y-76099997D02*
X35300008Y-76099997D01*
X36500008Y-77189997D02*
X36500008Y-76099997D01*
X26540005Y-74850000D02*
X26500005Y-74890000D01*
X25810008Y-74889997D02*
X26500008Y-74889997D01*
X34700008Y-75499997D02*
X34700008Y-74849997D01*
D106*
X69000000Y-29800000D02*
X69000000Y-30062500D01*
X67400000Y-25512500D02*
X67400000Y-28200000D01*
X67337500Y-25450000D02*
X67400000Y-25512500D01*
X67400000Y-28200000D02*
X69000000Y-29800000D01*
D100*
X25590000Y-72000000D02*
X31410000Y-72000000D01*
X33590000Y-72000000D02*
X39410000Y-72000000D01*
D98*
X25950000Y-60450000D02*
X25500000Y-60000000D01*
X23410000Y-59060000D02*
X23410000Y-58000000D01*
X25950000Y-60800000D02*
X25950000Y-61750000D01*
X23550000Y-61750000D02*
X25950000Y-61750000D01*
X25950000Y-60800000D02*
X25950000Y-60450000D01*
X25500000Y-60000000D02*
X24350000Y-60000000D01*
X24350000Y-60000000D02*
X23410000Y-59060000D01*
D104*
X79050000Y-46940000D02*
X78910000Y-46800000D01*
X79050000Y-48162500D02*
X79050000Y-46940000D01*
D98*
X85700000Y-29763776D02*
X85700000Y-31600000D01*
X87544001Y-27919775D02*
X85700000Y-29763776D01*
X87544001Y-24214001D02*
X87544001Y-27919775D01*
X85700000Y-31600000D02*
X87000000Y-32900000D01*
X86030000Y-22700000D02*
X87544001Y-24214001D01*
X87000000Y-32900000D02*
X87000000Y-45175000D01*
D105*
X78350000Y-45510000D02*
X77860000Y-46000000D01*
D104*
X78362500Y-48850000D02*
X77270000Y-48850000D01*
D102*
X79340000Y-36140000D02*
X79920000Y-36720000D01*
D104*
X77270000Y-48850000D02*
X76900000Y-48480000D01*
D103*
X81200000Y-44900000D02*
X81450000Y-44650000D01*
X81450000Y-44650000D02*
X81450000Y-44310000D01*
D105*
X77860000Y-46000000D02*
X76300000Y-46000000D01*
D98*
X76012500Y-45287500D02*
X75800000Y-45500000D01*
D102*
X79920000Y-36720000D02*
X79920000Y-38400000D01*
D103*
X79477101Y-44900000D02*
X79350000Y-44772899D01*
D102*
X79340000Y-33430000D02*
X79340000Y-36140000D01*
X78362500Y-48362500D02*
X78100000Y-48100000D01*
X83490000Y-45410000D02*
X82450000Y-45410000D01*
X81600000Y-33160000D02*
X79070000Y-33160000D01*
D104*
X82355000Y-46165000D02*
X82450000Y-46070000D01*
X81550000Y-46970000D02*
X81720000Y-46800000D01*
D103*
X79350000Y-44772899D02*
X79350000Y-44310000D01*
D105*
X79920000Y-37980000D02*
X79920000Y-38400000D01*
X80400000Y-37500000D02*
X79920000Y-37980000D01*
X76300000Y-46000000D02*
X75800000Y-45500000D01*
D104*
X82075000Y-46437391D02*
X82347391Y-46165000D01*
D102*
X78362500Y-48850000D02*
X78362500Y-48362500D01*
D98*
X76012500Y-44280000D02*
X76012500Y-45287500D01*
D104*
X81720000Y-46800000D02*
X82075000Y-46445000D01*
X81550000Y-48162500D02*
X81550000Y-46970000D01*
D102*
X83500000Y-45400000D02*
X83490000Y-45410000D01*
D104*
X82075000Y-46445000D02*
X82075000Y-46437391D01*
X82450000Y-46070000D02*
X82450000Y-45410000D01*
D102*
X79070000Y-33160000D02*
X79340000Y-33430000D01*
D104*
X82347391Y-46165000D02*
X82355000Y-46165000D01*
X48850000Y-64740000D02*
X47440000Y-64740000D01*
X47440000Y-64740000D02*
X47200000Y-64500000D01*
D102*
X70300000Y-55400000D02*
X70100000Y-55200000D01*
X70100000Y-55200000D02*
X69125000Y-55200000D01*
D98*
X31793750Y-94049995D02*
X31793750Y-94874995D01*
X39141250Y-93534995D02*
X34058750Y-93534995D01*
X32743750Y-93099995D02*
X31793750Y-94049995D01*
X34058750Y-93534995D02*
X33623750Y-93099995D01*
X33623750Y-93099995D02*
X32743750Y-93099995D01*
X71865999Y-24214001D02*
X73380000Y-22700000D01*
X73700000Y-29523792D02*
X71865999Y-27689791D01*
X71975000Y-33525000D02*
X73700000Y-31800000D01*
X71975000Y-38700000D02*
X71975000Y-33525000D01*
X71865999Y-27689791D02*
X71865999Y-24214001D01*
X73700000Y-31800000D02*
X73700000Y-29523792D01*
D103*
X81900000Y-53200000D02*
X80900000Y-53200000D01*
X82300000Y-53890000D02*
X82300000Y-53600000D01*
X80900000Y-53200000D02*
X80550000Y-52850000D01*
X80550000Y-52850000D02*
X80550000Y-52037500D01*
X82300000Y-53600000D02*
X81900000Y-53200000D01*
D107*
X83325000Y-50850000D02*
X83675000Y-51200000D01*
X82237500Y-50850000D02*
X83325000Y-50850000D01*
D98*
X24200000Y-67300000D02*
X25375000Y-67300000D01*
X25375000Y-67300000D02*
X25500000Y-67425000D01*
X22375000Y-62700000D02*
X22250000Y-62575000D01*
X23550000Y-62700000D02*
X22375000Y-62700000D01*
%TA.AperFunction,Conductor*%
G36*
X46742121Y-87120002D02*
G01*
X46788614Y-87173658D01*
X46800000Y-87226000D01*
X46800000Y-91274000D01*
X46779998Y-91342121D01*
X46726342Y-91388614D01*
X46674000Y-91400000D01*
X44126000Y-91400000D01*
X44057879Y-91379998D01*
X44011386Y-91326342D01*
X44000000Y-91274000D01*
X44000000Y-87226000D01*
X44020002Y-87157879D01*
X44073658Y-87111386D01*
X44126000Y-87100000D01*
X46674000Y-87100000D01*
X46742121Y-87120002D01*
G37*
%TD.AperFunction*%
%TA.AperFunction,Conductor*%
G36*
X53642121Y-26820002D02*
G01*
X53688614Y-26873658D01*
X53700000Y-26926000D01*
X53700000Y-32774000D01*
X53679998Y-32842121D01*
X53626342Y-32888614D01*
X53574000Y-32900000D01*
X48526000Y-32900000D01*
X48457879Y-32879998D01*
X48411386Y-32826342D01*
X48400000Y-32774000D01*
X48400000Y-30326000D01*
X48420002Y-30257879D01*
X48473658Y-30211386D01*
X48526000Y-30200000D01*
X52300000Y-30200000D01*
X52300000Y-26926000D01*
X52320002Y-26857879D01*
X52373658Y-26811386D01*
X52426000Y-26800000D01*
X53574000Y-26800000D01*
X53642121Y-26820002D01*
G37*
%TD.AperFunction*%
%TA.AperFunction,Conductor*%
G36*
X47542121Y-50020002D02*
G01*
X47588614Y-50073658D01*
X47600000Y-50126000D01*
X47600000Y-51074000D01*
X47579998Y-51142121D01*
X47526342Y-51188614D01*
X47474000Y-51200000D01*
X43800000Y-51200000D01*
X43502031Y-51448308D01*
X43213917Y-51688402D01*
X43213916Y-51688403D01*
X43200000Y-51700000D01*
X43200000Y-53574000D01*
X43179998Y-53642121D01*
X43126342Y-53688614D01*
X43074000Y-53700000D01*
X38626000Y-53700000D01*
X38557879Y-53679998D01*
X38511386Y-53626342D01*
X38500000Y-53574000D01*
X38500000Y-50126000D01*
X38520002Y-50057879D01*
X38573658Y-50011386D01*
X38626000Y-50000000D01*
X47474000Y-50000000D01*
X47542121Y-50020002D01*
G37*
%TD.AperFunction*%
%TA.AperFunction,Conductor*%
G36*
X47512171Y-27402421D02*
G01*
X47551953Y-27410334D01*
X47597374Y-27429148D01*
X47620582Y-27444655D01*
X47655345Y-27479418D01*
X47670852Y-27502626D01*
X47689666Y-27548047D01*
X47697579Y-27587829D01*
X47700000Y-27612410D01*
X47700000Y-33600000D01*
X55099024Y-33600000D01*
X55130075Y-33603886D01*
X55179277Y-33616397D01*
X55233837Y-33646062D01*
X55259148Y-33669501D01*
X55292910Y-33721625D01*
X55309158Y-33769723D01*
X55315414Y-33800384D01*
X55382437Y-34671681D01*
X55381758Y-34697575D01*
X55376290Y-34739672D01*
X55359341Y-34788340D01*
X55344325Y-34813329D01*
X55309314Y-34851137D01*
X55285547Y-34868027D01*
X55238326Y-34888656D01*
X55196772Y-34897337D01*
X55171006Y-34900000D01*
X43679442Y-34900000D01*
X43658621Y-34898268D01*
X43624589Y-34892566D01*
X43585218Y-34878991D01*
X43554904Y-34862507D01*
X43537441Y-34851040D01*
X41388031Y-33168894D01*
X41367718Y-33148903D01*
X41338482Y-33112755D01*
X41313673Y-33061837D01*
X41303223Y-33016528D01*
X41300000Y-32988211D01*
X41300000Y-31638140D01*
X41302214Y-31614625D01*
X41309465Y-31576455D01*
X41326709Y-31532705D01*
X41341009Y-31510056D01*
X41373096Y-31475676D01*
X41404446Y-31452715D01*
X41424725Y-31440607D01*
X43280642Y-30556837D01*
X43285987Y-30554292D01*
X43400000Y-30500000D01*
X43400000Y-27612410D01*
X43402421Y-27587829D01*
X43410334Y-27548047D01*
X43429148Y-27502626D01*
X43444655Y-27479418D01*
X43479418Y-27444655D01*
X43502626Y-27429148D01*
X43548047Y-27410334D01*
X43587829Y-27402421D01*
X43612410Y-27400000D01*
X47487590Y-27400000D01*
X47512171Y-27402421D01*
G37*
%TD.AperFunction*%
%TA.AperFunction,Conductor*%
G36*
X24581621Y-56770002D02*
G01*
X24628114Y-56823658D01*
X24639500Y-56876000D01*
X24639501Y-59221518D01*
X24654354Y-59315304D01*
X24711950Y-59428342D01*
X24801658Y-59518050D01*
X24914696Y-59575646D01*
X24924485Y-59577196D01*
X24924487Y-59577197D01*
X24951849Y-59581530D01*
X25008481Y-59590500D01*
X25589882Y-59590500D01*
X26171518Y-59590499D01*
X26176412Y-59589724D01*
X26255506Y-59577198D01*
X26255508Y-59577197D01*
X26265304Y-59575646D01*
X26290114Y-59563005D01*
X26316797Y-59549409D01*
X26386574Y-59536305D01*
X26452359Y-59563005D01*
X26493265Y-59621033D01*
X26500000Y-59661676D01*
X26500000Y-61491742D01*
X26498922Y-61508188D01*
X26485128Y-61612963D01*
X26476615Y-61644735D01*
X26439361Y-61734674D01*
X26422914Y-61763160D01*
X26363651Y-61840393D01*
X26340393Y-61863651D01*
X26263160Y-61922914D01*
X26234674Y-61939361D01*
X26144735Y-61976615D01*
X26112963Y-61985128D01*
X26008188Y-61998922D01*
X25991742Y-62000000D01*
X23056303Y-62000000D01*
X22988182Y-61979998D01*
X22964783Y-61958472D01*
X22964147Y-61959108D01*
X22958310Y-61953271D01*
X22953282Y-61946718D01*
X22827841Y-61850464D01*
X22829886Y-61847799D01*
X22791691Y-61807750D01*
X22778246Y-61738038D01*
X22804625Y-61672124D01*
X22828980Y-61651020D01*
X22827841Y-61649536D01*
X22946736Y-61558305D01*
X22953282Y-61553282D01*
X22994323Y-61499796D01*
X23051661Y-61457929D01*
X23094286Y-61450500D01*
X23590925Y-61450500D01*
X23590928Y-61450499D01*
X23981518Y-61450499D01*
X23986412Y-61449724D01*
X24065506Y-61437198D01*
X24065508Y-61437197D01*
X24075304Y-61435646D01*
X24188342Y-61378050D01*
X24278050Y-61288342D01*
X24335646Y-61175304D01*
X24350500Y-61081519D01*
X24350499Y-60518482D01*
X24335646Y-60424696D01*
X24278050Y-60311658D01*
X24188342Y-60221950D01*
X24075304Y-60164354D01*
X24065515Y-60162804D01*
X24065513Y-60162803D01*
X24038151Y-60158470D01*
X23981519Y-60149500D01*
X22729806Y-60149500D01*
X22697197Y-60145207D01*
X22689387Y-60143114D01*
X22681762Y-60139956D01*
X22673578Y-60138879D01*
X22673576Y-60138878D01*
X22568448Y-60125038D01*
X22568447Y-60125038D01*
X22564361Y-60124500D01*
X22375999Y-60124500D01*
X22307880Y-60104499D01*
X22261387Y-60050844D01*
X22250000Y-59998501D01*
X22250000Y-57258258D01*
X22251078Y-57241812D01*
X22264872Y-57137037D01*
X22273385Y-57105265D01*
X22310639Y-57015326D01*
X22327086Y-56986840D01*
X22386349Y-56909607D01*
X22409607Y-56886349D01*
X22486840Y-56827086D01*
X22515326Y-56810639D01*
X22605265Y-56773385D01*
X22637037Y-56764872D01*
X22741812Y-56751078D01*
X22758258Y-56750000D01*
X24513500Y-56750000D01*
X24581621Y-56770002D01*
G37*
%TD.AperFunction*%
%TA.AperFunction,Conductor*%
G36*
X70408188Y-32701078D02*
G01*
X70512963Y-32714872D01*
X70544735Y-32723385D01*
X70634674Y-32760639D01*
X70663160Y-32777086D01*
X70740393Y-32836349D01*
X70763651Y-32859607D01*
X70822914Y-32936840D01*
X70839361Y-32965326D01*
X70876615Y-33055265D01*
X70885128Y-33087037D01*
X70898922Y-33191812D01*
X70900000Y-33208258D01*
X70900000Y-39091742D01*
X70898922Y-39108188D01*
X70885128Y-39212963D01*
X70876615Y-39244735D01*
X70839361Y-39334674D01*
X70822914Y-39363160D01*
X70763651Y-39440393D01*
X70740393Y-39463651D01*
X70663160Y-39522914D01*
X70634674Y-39539361D01*
X70544735Y-39576615D01*
X70512963Y-39585128D01*
X70408188Y-39598922D01*
X70391742Y-39600000D01*
X68008258Y-39600000D01*
X67991812Y-39598922D01*
X67887037Y-39585128D01*
X67855265Y-39576615D01*
X67765326Y-39539361D01*
X67736840Y-39522914D01*
X67659607Y-39463651D01*
X67636349Y-39440393D01*
X67577086Y-39363160D01*
X67560639Y-39334674D01*
X67523385Y-39244735D01*
X67514872Y-39212963D01*
X67501078Y-39108188D01*
X67500000Y-39091742D01*
X67500000Y-33824966D01*
X67520002Y-33756845D01*
X67573658Y-33710352D01*
X67606720Y-33701777D01*
X67606518Y-33700499D01*
X67690506Y-33687198D01*
X67690508Y-33687197D01*
X67700304Y-33685646D01*
X67813342Y-33628050D01*
X67903050Y-33538342D01*
X67960646Y-33425304D01*
X67975500Y-33331519D01*
X67975500Y-32825998D01*
X67995501Y-32757879D01*
X68049156Y-32711386D01*
X68101499Y-32700000D01*
X70391742Y-32700000D01*
X70408188Y-32701078D01*
G37*
%TD.AperFunction*%
%TA.AperFunction,Conductor*%
G36*
X24442121Y-63620002D02*
G01*
X24488614Y-63673658D01*
X24500000Y-63726000D01*
X24500000Y-64500000D01*
X24855025Y-64500000D01*
X24912227Y-64513733D01*
X25003138Y-64560054D01*
X25012927Y-64561604D01*
X25012929Y-64561605D01*
X25039421Y-64565801D01*
X25094347Y-64574500D01*
X25259966Y-64574500D01*
X25425652Y-64574499D01*
X25430546Y-64573724D01*
X25507064Y-64561606D01*
X25507066Y-64561605D01*
X25516862Y-64560054D01*
X25538418Y-64549071D01*
X25565532Y-64535255D01*
X25607773Y-64513733D01*
X25664975Y-64500000D01*
X26944262Y-64500000D01*
X27012383Y-64520002D01*
X27037492Y-64541242D01*
X27834650Y-65418115D01*
X27967232Y-65563955D01*
X27998255Y-65627815D01*
X28000000Y-65648712D01*
X28000000Y-69474000D01*
X27979998Y-69542121D01*
X27926342Y-69588614D01*
X27874000Y-69600000D01*
X25126000Y-69600000D01*
X25057879Y-69579998D01*
X25011386Y-69526342D01*
X25000000Y-69474000D01*
X25000000Y-68827880D01*
X25020002Y-68759759D01*
X25026582Y-68750472D01*
X25027430Y-68749383D01*
X25030111Y-68746362D01*
X25088576Y-68660413D01*
X25091339Y-68651840D01*
X25091340Y-68651837D01*
X25125969Y-68544371D01*
X25125969Y-68544370D01*
X25127487Y-68539660D01*
X25138423Y-68469511D01*
X25139792Y-68354107D01*
X25137156Y-68334090D01*
X25126810Y-68282080D01*
X25118298Y-68250313D01*
X25116834Y-68246000D01*
X25113879Y-68175065D01*
X25149743Y-68113793D01*
X25213040Y-68081637D01*
X25236148Y-68079500D01*
X25800748Y-68079499D01*
X25829314Y-68079499D01*
X25832262Y-68079220D01*
X25832271Y-68079220D01*
X25853478Y-68077216D01*
X25853480Y-68077216D01*
X25861127Y-68076493D01*
X25990076Y-68031209D01*
X26100010Y-67950010D01*
X26181209Y-67840076D01*
X26226493Y-67711127D01*
X26229500Y-67679315D01*
X26229499Y-67170686D01*
X26226493Y-67138873D01*
X26181209Y-67009924D01*
X26100010Y-66899990D01*
X25990076Y-66818791D01*
X25861127Y-66773507D01*
X25853485Y-66772785D01*
X25853482Y-66772784D01*
X25838579Y-66771376D01*
X25829315Y-66770500D01*
X25500223Y-66770500D01*
X25170686Y-66770501D01*
X25167738Y-66770780D01*
X25167729Y-66770780D01*
X25138873Y-66773507D01*
X25138575Y-66770352D01*
X25082201Y-66766432D01*
X25025281Y-66723998D01*
X25000339Y-66657527D01*
X25000000Y-66648290D01*
X25000000Y-66400000D01*
X23326000Y-66400000D01*
X23257879Y-66379998D01*
X23211386Y-66326342D01*
X23200000Y-66274000D01*
X23200000Y-65400000D01*
X22126000Y-65400000D01*
X22057879Y-65379998D01*
X22011386Y-65326342D01*
X22000000Y-65274000D01*
X22000000Y-63726000D01*
X22020002Y-63657879D01*
X22073658Y-63611386D01*
X22126000Y-63600000D01*
X24374000Y-63600000D01*
X24442121Y-63620002D01*
G37*
%TD.AperFunction*%
%TA.AperFunction,Conductor*%
G36*
X36342121Y-34320002D02*
G01*
X36388614Y-34373658D01*
X36400000Y-34426000D01*
X36400000Y-38974000D01*
X36379998Y-39042121D01*
X36326342Y-39088614D01*
X36274000Y-39100000D01*
X30526000Y-39100000D01*
X30457879Y-39079998D01*
X30411386Y-39026342D01*
X30400000Y-38974000D01*
X30400000Y-34426000D01*
X30420002Y-34357879D01*
X30473658Y-34311386D01*
X30526000Y-34300000D01*
X36274000Y-34300000D01*
X36342121Y-34320002D01*
G37*
%TD.AperFunction*%
%TA.AperFunction,Conductor*%
G36*
X46018746Y-74720002D02*
G01*
X46036228Y-74733544D01*
X48700000Y-77200000D01*
X57074000Y-77200000D01*
X57142121Y-77220002D01*
X57188614Y-77273658D01*
X57200000Y-77326000D01*
X57200000Y-82869500D01*
X57179998Y-82937621D01*
X57126342Y-82984114D01*
X57074000Y-82995500D01*
X51270624Y-82995500D01*
X51258619Y-82994159D01*
X51258579Y-82994655D01*
X51249632Y-82993935D01*
X51240876Y-82991954D01*
X51197339Y-82994655D01*
X51187619Y-82995258D01*
X51179817Y-82995500D01*
X51163774Y-82995500D01*
X51159344Y-82996135D01*
X51159337Y-82996135D01*
X51153536Y-82996966D01*
X51143481Y-82997996D01*
X51105601Y-83000346D01*
X51105599Y-83000346D01*
X51096642Y-83000902D01*
X51088201Y-83003949D01*
X51084923Y-83004628D01*
X51069055Y-83008584D01*
X51065831Y-83009527D01*
X51056948Y-83010799D01*
X51048779Y-83014513D01*
X51048773Y-83014515D01*
X51014221Y-83030225D01*
X51004853Y-83034039D01*
X50960716Y-83049972D01*
X50953466Y-83055269D01*
X50950499Y-83056846D01*
X50936391Y-83065090D01*
X50933565Y-83066898D01*
X50925395Y-83070612D01*
X50918596Y-83076470D01*
X50912844Y-83080149D01*
X50844959Y-83100000D01*
X45556184Y-83100000D01*
X45511954Y-83091982D01*
X45503149Y-83088681D01*
X45471419Y-83076786D01*
X45463566Y-83075933D01*
X45463562Y-83075932D01*
X45416952Y-83070869D01*
X45416948Y-83070869D01*
X45413553Y-83070500D01*
X45150039Y-83070500D01*
X44886448Y-83070501D01*
X44828581Y-83076786D01*
X44821184Y-83079559D01*
X44788046Y-83091982D01*
X44743816Y-83100000D01*
X43981184Y-83100000D01*
X43936954Y-83091982D01*
X43928149Y-83088681D01*
X43896419Y-83076786D01*
X43888566Y-83075933D01*
X43888562Y-83075932D01*
X43841952Y-83070869D01*
X43841948Y-83070869D01*
X43838553Y-83070500D01*
X43575039Y-83070500D01*
X43311448Y-83070501D01*
X43253581Y-83076786D01*
X43246184Y-83079559D01*
X43213046Y-83091982D01*
X43168816Y-83100000D01*
X42470547Y-83100000D01*
X42428799Y-83092882D01*
X42373627Y-83073507D01*
X42365985Y-83072785D01*
X42365982Y-83072784D01*
X42351079Y-83071376D01*
X42341815Y-83070500D01*
X42087672Y-83070500D01*
X41833186Y-83070501D01*
X41830238Y-83070780D01*
X41830229Y-83070780D01*
X41809022Y-83072784D01*
X41809020Y-83072784D01*
X41801373Y-83073507D01*
X41746201Y-83092882D01*
X41704453Y-83100000D01*
X39726000Y-83100000D01*
X39657879Y-83079998D01*
X39611386Y-83026342D01*
X39600000Y-82974000D01*
X39600000Y-79426000D01*
X39620002Y-79357879D01*
X39673658Y-79311386D01*
X39726000Y-79300000D01*
X44500000Y-79300000D01*
X44500000Y-74826000D01*
X44520002Y-74757879D01*
X44573658Y-74711386D01*
X44626000Y-74700000D01*
X45950625Y-74700000D01*
X46018746Y-74720002D01*
G37*
%TD.AperFunction*%
%TA.AperFunction,Conductor*%
G36*
X62508188Y-32701078D02*
G01*
X62612963Y-32714872D01*
X62644735Y-32723385D01*
X62734674Y-32760639D01*
X62763160Y-32777086D01*
X62840393Y-32836349D01*
X62863651Y-32859607D01*
X62922914Y-32936840D01*
X62939361Y-32965326D01*
X62976615Y-33055265D01*
X62985128Y-33087037D01*
X62998922Y-33191812D01*
X63000000Y-33208258D01*
X63000000Y-38291742D01*
X62998922Y-38308188D01*
X62985128Y-38412963D01*
X62976615Y-38444735D01*
X62939361Y-38534674D01*
X62922914Y-38563160D01*
X62863651Y-38640393D01*
X62840393Y-38663651D01*
X62763160Y-38722914D01*
X62734674Y-38739361D01*
X62644735Y-38776615D01*
X62612963Y-38785128D01*
X62508188Y-38798922D01*
X62491742Y-38800000D01*
X61908258Y-38800000D01*
X61891812Y-38798922D01*
X61787037Y-38785128D01*
X61755265Y-38776615D01*
X61665326Y-38739361D01*
X61636840Y-38722914D01*
X61559607Y-38663651D01*
X61536349Y-38640393D01*
X61477086Y-38563160D01*
X61460639Y-38534674D01*
X61423385Y-38444735D01*
X61414872Y-38412963D01*
X61401078Y-38308188D01*
X61400000Y-38291742D01*
X61400000Y-34200000D01*
X61100000Y-33900000D01*
X57508258Y-33900000D01*
X57491812Y-33898922D01*
X57387037Y-33885128D01*
X57355265Y-33876615D01*
X57265326Y-33839361D01*
X57236840Y-33822914D01*
X57159607Y-33763651D01*
X57136349Y-33740393D01*
X57077086Y-33663160D01*
X57060639Y-33634674D01*
X57023385Y-33544735D01*
X57014872Y-33512963D01*
X57001078Y-33408188D01*
X57000000Y-33391742D01*
X57000000Y-33208258D01*
X57001078Y-33191812D01*
X57014872Y-33087037D01*
X57023385Y-33055264D01*
X57060639Y-32965326D01*
X57077085Y-32936842D01*
X57102441Y-32903797D01*
X57159779Y-32861929D01*
X57202404Y-32854500D01*
X61733235Y-32854500D01*
X61752185Y-32855933D01*
X61766255Y-32858074D01*
X61766259Y-32858074D01*
X61773489Y-32859174D01*
X61780780Y-32858581D01*
X61780783Y-32858581D01*
X61825848Y-32854915D01*
X61836063Y-32854500D01*
X61844053Y-32854500D01*
X61851302Y-32853655D01*
X61872113Y-32851229D01*
X61876487Y-32850796D01*
X61941549Y-32845504D01*
X61941552Y-32845503D01*
X61948847Y-32844910D01*
X61955809Y-32842655D01*
X61961677Y-32841482D01*
X61967484Y-32840110D01*
X61974754Y-32839262D01*
X62043060Y-32814468D01*
X62047163Y-32813060D01*
X62116222Y-32790688D01*
X62122479Y-32786891D01*
X62127926Y-32784398D01*
X62133254Y-32781730D01*
X62140134Y-32779232D01*
X62200849Y-32739426D01*
X62204559Y-32737085D01*
X62235547Y-32718281D01*
X62300912Y-32700000D01*
X62491742Y-32700000D01*
X62508188Y-32701078D01*
G37*
%TD.AperFunction*%
%TA.AperFunction,Conductor*%
G36*
X46903958Y-35920002D02*
G01*
X46937738Y-35951890D01*
X47700000Y-37000000D01*
X49674000Y-37000000D01*
X49742121Y-37020002D01*
X49788614Y-37073658D01*
X49800000Y-37126000D01*
X49800000Y-38974000D01*
X49779998Y-39042121D01*
X49726342Y-39088614D01*
X49674000Y-39100000D01*
X43526000Y-39100000D01*
X43457879Y-39079998D01*
X43411386Y-39026342D01*
X43400000Y-38974000D01*
X43400000Y-36026000D01*
X43420002Y-35957879D01*
X43473658Y-35911386D01*
X43526000Y-35900000D01*
X46835837Y-35900000D01*
X46903958Y-35920002D01*
G37*
%TD.AperFunction*%
%TA.AperFunction,Conductor*%
G36*
X32542121Y-45020002D02*
G01*
X32588614Y-45073658D01*
X32600000Y-45126000D01*
X32600000Y-47200000D01*
X40274000Y-47200000D01*
X40342121Y-47220002D01*
X40388614Y-47273658D01*
X40400000Y-47326000D01*
X40400000Y-47974000D01*
X40379998Y-48042121D01*
X40326342Y-48088614D01*
X40274000Y-48100000D01*
X37400000Y-48100000D01*
X36900000Y-48600000D01*
X36900000Y-51374000D01*
X36879998Y-51442121D01*
X36826342Y-51488614D01*
X36774000Y-51500000D01*
X28900000Y-51500000D01*
X28900000Y-52474000D01*
X28879998Y-52542121D01*
X28826342Y-52588614D01*
X28774000Y-52600000D01*
X27126000Y-52600000D01*
X27057879Y-52579998D01*
X27011386Y-52526342D01*
X27000000Y-52474000D01*
X27000000Y-49358714D01*
X27020002Y-49290593D01*
X27044958Y-49262235D01*
X29486128Y-47211653D01*
X29486129Y-47211652D01*
X29500000Y-47200000D01*
X29500000Y-45126000D01*
X29520002Y-45057879D01*
X29573658Y-45011386D01*
X29626000Y-45000000D01*
X32474000Y-45000000D01*
X32542121Y-45020002D01*
G37*
%TD.AperFunction*%
%TA.AperFunction,Conductor*%
G36*
X51512171Y-24952421D02*
G01*
X51551953Y-24960334D01*
X51597374Y-24979148D01*
X51620582Y-24994655D01*
X51655345Y-25029418D01*
X51670852Y-25052626D01*
X51689666Y-25098047D01*
X51697579Y-25137829D01*
X51700000Y-25162410D01*
X51700000Y-28987590D01*
X51697579Y-29012171D01*
X51689666Y-29051953D01*
X51670852Y-29097374D01*
X51655345Y-29120582D01*
X51620582Y-29155345D01*
X51597374Y-29170852D01*
X51551953Y-29189666D01*
X51512171Y-29197579D01*
X51487590Y-29200000D01*
X48412410Y-29200000D01*
X48387829Y-29197579D01*
X48348047Y-29189666D01*
X48302626Y-29170852D01*
X48279418Y-29155345D01*
X48244655Y-29120582D01*
X48229148Y-29097374D01*
X48210334Y-29051953D01*
X48202421Y-29012171D01*
X48200000Y-28987590D01*
X48200000Y-25162410D01*
X48202421Y-25137829D01*
X48210334Y-25098047D01*
X48229148Y-25052626D01*
X48244655Y-25029418D01*
X48279418Y-24994655D01*
X48302626Y-24979148D01*
X48348047Y-24960334D01*
X48387829Y-24952421D01*
X48412410Y-24950000D01*
X51487590Y-24950000D01*
X51512171Y-24952421D01*
G37*
%TD.AperFunction*%
%TA.AperFunction,Conductor*%
G36*
X89342121Y-39720002D02*
G01*
X89388614Y-39773658D01*
X89400000Y-39826000D01*
X89400000Y-45474000D01*
X89379998Y-45542121D01*
X89326342Y-45588614D01*
X89274000Y-45600000D01*
X87851711Y-45600000D01*
X87783590Y-45579998D01*
X87737097Y-45526342D01*
X87727737Y-45461245D01*
X87726493Y-45461127D01*
X87729221Y-45432265D01*
X87729500Y-45429315D01*
X87729499Y-44920686D01*
X87726493Y-44888873D01*
X87681209Y-44759924D01*
X87674106Y-44750307D01*
X87624649Y-44683347D01*
X87600266Y-44616669D01*
X87600000Y-44608488D01*
X87600000Y-39826000D01*
X87620002Y-39757879D01*
X87673658Y-39711386D01*
X87726000Y-39700000D01*
X89274000Y-39700000D01*
X89342121Y-39720002D01*
G37*
%TD.AperFunction*%
%TA.AperFunction,Conductor*%
G36*
X22471621Y-46420002D02*
G01*
X22518114Y-46473658D01*
X22529500Y-46526000D01*
X22529501Y-47481518D01*
X22544354Y-47575304D01*
X22545331Y-47577222D01*
X22547234Y-47643880D01*
X22514469Y-47700941D01*
X22451830Y-47763580D01*
X22447794Y-47770404D01*
X22447792Y-47770407D01*
X22388138Y-47871277D01*
X22371382Y-47899610D01*
X22327291Y-48051373D01*
X22324500Y-48086837D01*
X22324501Y-48713162D01*
X22327291Y-48748627D01*
X22371382Y-48900390D01*
X22375419Y-48907216D01*
X22447792Y-49029593D01*
X22447794Y-49029596D01*
X22451830Y-49036420D01*
X22563580Y-49148170D01*
X22566340Y-49149802D01*
X22590117Y-49184683D01*
X22600000Y-49193247D01*
X22600000Y-49200000D01*
X22616750Y-49200000D01*
X22680889Y-49217547D01*
X22692782Y-49224580D01*
X22699610Y-49228618D01*
X22707221Y-49230829D01*
X22707223Y-49230830D01*
X22755743Y-49244926D01*
X22851373Y-49272709D01*
X22872674Y-49274385D01*
X22884380Y-49275307D01*
X22884389Y-49275307D01*
X22886837Y-49275500D01*
X23174766Y-49275500D01*
X23463162Y-49275499D01*
X23486564Y-49273658D01*
X23492209Y-49273214D01*
X23492210Y-49273214D01*
X23498627Y-49272709D01*
X23504807Y-49270914D01*
X23504810Y-49270913D01*
X23642777Y-49230830D01*
X23642779Y-49230829D01*
X23650390Y-49228618D01*
X23657218Y-49224580D01*
X23669111Y-49217547D01*
X23733250Y-49200000D01*
X26074000Y-49200000D01*
X26142121Y-49220002D01*
X26188614Y-49273658D01*
X26200000Y-49326000D01*
X26200000Y-54774000D01*
X26179998Y-54842121D01*
X26126342Y-54888614D01*
X26074000Y-54900000D01*
X20826000Y-54900000D01*
X20757879Y-54879998D01*
X20711386Y-54826342D01*
X20700000Y-54774000D01*
X20700000Y-46526000D01*
X20720002Y-46457879D01*
X20773658Y-46411386D01*
X20826000Y-46400000D01*
X22403500Y-46400000D01*
X22471621Y-46420002D01*
G37*
%TD.AperFunction*%
%TA.AperFunction,Conductor*%
G36*
X77042121Y-44020002D02*
G01*
X77088614Y-44073658D01*
X77100000Y-44126000D01*
X77100000Y-46174000D01*
X77079998Y-46242121D01*
X77026342Y-46288614D01*
X76974000Y-46300000D01*
X76433462Y-46300000D01*
X76370949Y-46283399D01*
X75763487Y-45936278D01*
X75714265Y-45885114D01*
X75700000Y-45826879D01*
X75700000Y-44126000D01*
X75720002Y-44057879D01*
X75773658Y-44011386D01*
X75826000Y-44000000D01*
X76974000Y-44000000D01*
X77042121Y-44020002D01*
G37*
%TD.AperFunction*%
%TA.AperFunction,Conductor*%
G36*
X48318642Y-51820002D02*
G01*
X48336258Y-51833668D01*
X49659737Y-53062613D01*
X49696045Y-53123623D01*
X49700000Y-53154945D01*
X49700000Y-56055802D01*
X49679998Y-56123923D01*
X49672389Y-56134514D01*
X47737830Y-58552712D01*
X47679657Y-58593410D01*
X47639441Y-58600000D01*
X45026000Y-58600000D01*
X44957879Y-58579998D01*
X44911386Y-58526342D01*
X44900000Y-58474000D01*
X44900000Y-51926000D01*
X44920002Y-51857879D01*
X44973658Y-51811386D01*
X45026000Y-51800000D01*
X48250521Y-51800000D01*
X48318642Y-51820002D01*
G37*
%TD.AperFunction*%
%TA.AperFunction,Conductor*%
G36*
X53558044Y-63664502D02*
G01*
X53589885Y-63693796D01*
X53622914Y-63736840D01*
X53639361Y-63765326D01*
X53676615Y-63855265D01*
X53685128Y-63887037D01*
X53698922Y-63991812D01*
X53700000Y-64008258D01*
X53700000Y-64391742D01*
X53698922Y-64408188D01*
X53685128Y-64512963D01*
X53676615Y-64544735D01*
X53639361Y-64634674D01*
X53622914Y-64663160D01*
X53563651Y-64740393D01*
X53540393Y-64763651D01*
X53463160Y-64822914D01*
X53434674Y-64839361D01*
X53344735Y-64876615D01*
X53312963Y-64885128D01*
X53208188Y-64898922D01*
X53191742Y-64900000D01*
X50408258Y-64900000D01*
X50391812Y-64898922D01*
X50287037Y-64885128D01*
X50255265Y-64876615D01*
X50165326Y-64839361D01*
X50136840Y-64822914D01*
X50059607Y-64763651D01*
X50036349Y-64740393D01*
X49977086Y-64663160D01*
X49960639Y-64634674D01*
X49923385Y-64544735D01*
X49914872Y-64512963D01*
X49901078Y-64408188D01*
X49900000Y-64391742D01*
X49900000Y-64008258D01*
X49901078Y-63991812D01*
X49914872Y-63887037D01*
X49923385Y-63855265D01*
X49960639Y-63765326D01*
X49977086Y-63736840D01*
X50010115Y-63693796D01*
X50067453Y-63651929D01*
X50110077Y-63644500D01*
X53489923Y-63644500D01*
X53558044Y-63664502D01*
G37*
%TD.AperFunction*%
%TA.AperFunction,Conductor*%
G36*
X78622763Y-51249502D02*
G01*
X78659406Y-51285496D01*
X78670851Y-51302624D01*
X78689666Y-51348047D01*
X78697579Y-51387829D01*
X78700000Y-51412410D01*
X78700000Y-51526026D01*
X78688195Y-51579275D01*
X78680653Y-51595449D01*
X78676578Y-51604189D01*
X78670500Y-51650356D01*
X78670500Y-52424644D01*
X78676578Y-52470811D01*
X78680652Y-52479548D01*
X78680653Y-52479551D01*
X78688195Y-52495725D01*
X78700000Y-52548974D01*
X78700000Y-53387590D01*
X78697579Y-53412171D01*
X78689666Y-53451953D01*
X78670852Y-53497374D01*
X78655345Y-53520582D01*
X78620582Y-53555345D01*
X78597374Y-53570852D01*
X78551953Y-53589666D01*
X78512171Y-53597579D01*
X78487590Y-53600000D01*
X77112410Y-53600000D01*
X77087829Y-53597579D01*
X77073928Y-53594814D01*
X77009415Y-53560330D01*
X76939670Y-53490585D01*
X76905186Y-53426072D01*
X76902421Y-53412172D01*
X76900000Y-53387590D01*
X76900000Y-53064927D01*
X76901183Y-53047701D01*
X76905099Y-53019327D01*
X76914431Y-52986163D01*
X76925883Y-52959917D01*
X76933854Y-52944604D01*
X77933070Y-51309522D01*
X77953173Y-51284477D01*
X77973651Y-51264752D01*
X78036589Y-51231900D01*
X78061062Y-51229500D01*
X78554642Y-51229500D01*
X78622763Y-51249502D01*
G37*
%TD.AperFunction*%
%TA.AperFunction,Conductor*%
G36*
X24258188Y-68001078D02*
G01*
X24362963Y-68014872D01*
X24394735Y-68023385D01*
X24484674Y-68060639D01*
X24513160Y-68077086D01*
X24590393Y-68136349D01*
X24613651Y-68159607D01*
X24672914Y-68236840D01*
X24689361Y-68265326D01*
X24726615Y-68355265D01*
X24735127Y-68387032D01*
X24737763Y-68407049D01*
X24726827Y-68477198D01*
X24679700Y-68530299D01*
X24612842Y-68549500D01*
X24159075Y-68549500D01*
X24159072Y-68549501D01*
X23768482Y-68549501D01*
X23763589Y-68550276D01*
X23763588Y-68550276D01*
X23684494Y-68562802D01*
X23684492Y-68562803D01*
X23674696Y-68564354D01*
X23561658Y-68621950D01*
X23471950Y-68711658D01*
X23414354Y-68824696D01*
X23399500Y-68918481D01*
X23399501Y-69481518D01*
X23414354Y-69575304D01*
X23471950Y-69688342D01*
X23561658Y-69778050D01*
X23674696Y-69835646D01*
X23684485Y-69837196D01*
X23684487Y-69837197D01*
X23711849Y-69841530D01*
X23768481Y-69850500D01*
X24624000Y-69850500D01*
X24692121Y-69870502D01*
X24738614Y-69924158D01*
X24750000Y-69976500D01*
X24750000Y-70481418D01*
X24729998Y-70549539D01*
X24724472Y-70556396D01*
X24724789Y-70556626D01*
X24718962Y-70564646D01*
X24711950Y-70571658D01*
X24654354Y-70684696D01*
X24639500Y-70778481D01*
X24639501Y-71905354D01*
X24639501Y-73013833D01*
X24619499Y-73081954D01*
X24590205Y-73113795D01*
X24513160Y-73172914D01*
X24484674Y-73189361D01*
X24394735Y-73226615D01*
X24362963Y-73235128D01*
X24258188Y-73248922D01*
X24241742Y-73250000D01*
X21758258Y-73250000D01*
X21741812Y-73248922D01*
X21637037Y-73235128D01*
X21605265Y-73226615D01*
X21515326Y-73189361D01*
X21486840Y-73172914D01*
X21409607Y-73113651D01*
X21386349Y-73090393D01*
X21327086Y-73013160D01*
X21310639Y-72984674D01*
X21273385Y-72894735D01*
X21264872Y-72862963D01*
X21251078Y-72758188D01*
X21250000Y-72741742D01*
X21250000Y-68508258D01*
X21251078Y-68491812D01*
X21264872Y-68387037D01*
X21273385Y-68355265D01*
X21310639Y-68265326D01*
X21327086Y-68236840D01*
X21386349Y-68159607D01*
X21409607Y-68136349D01*
X21486840Y-68077086D01*
X21515326Y-68060639D01*
X21605265Y-68023385D01*
X21637037Y-68014872D01*
X21741812Y-68001078D01*
X21758258Y-68000000D01*
X24241742Y-68000000D01*
X24258188Y-68001078D01*
G37*
%TD.AperFunction*%
M02*
