%TF.GenerationSoftware,KiCad,Pcbnew,(6.0.8-1)-1*%
%TF.CreationDate,2022-11-24T03:45:07+08:00*%
%TF.ProjectId,CCTV3_F407_REV200,43435456-335f-4463-9430-375f52455632,rev?*%
%TF.SameCoordinates,Original*%
%TF.FileFunction,Drillmap*%
%TF.FilePolarity,Positive*%
%FSLAX45Y45*%
G04 Gerber Fmt 4.5, Leading zero omitted, Abs format (unit mm)*
G04 Created by KiCad (PCBNEW (6.0.8-1)-1) date 2022-11-24 03:45:07*
%MOMM*%
%LPD*%
G01*
G04 APERTURE LIST*
%ADD10C,0.100000*%
%ADD11C,0.200000*%
%ADD12C,0.320000*%
G04 APERTURE END LIST*
D10*
X2000000Y-2000000D02*
X9000000Y-2000000D01*
X9000000Y-2000000D02*
X9000000Y-10000000D01*
X9000000Y-10000000D02*
X2000000Y-10000000D01*
X2000000Y-10000000D02*
X2000000Y-2000000D01*
D11*
D12*
X2340000Y-3190000D02*
X2660000Y-3510000D01*
X2660000Y-3190000D02*
X2340000Y-3510000D01*
X3340000Y-8340000D02*
X3660000Y-8660000D01*
X3660000Y-8340000D02*
X3340000Y-8660000D01*
X6760000Y-4400000D02*
X7080000Y-4720000D01*
X7080000Y-4400000D02*
X6760000Y-4720000D01*
X8440000Y-9440000D02*
X8760000Y-9760000D01*
X8760000Y-9440000D02*
X8440000Y-9760000D01*
D11*
X2252619Y-10315476D02*
X2252619Y-10115476D01*
X2300238Y-10115476D01*
X2328810Y-10125000D01*
X2347857Y-10144048D01*
X2357381Y-10163095D01*
X2366905Y-10201190D01*
X2366905Y-10229762D01*
X2357381Y-10267857D01*
X2347857Y-10286905D01*
X2328810Y-10305952D01*
X2300238Y-10315476D01*
X2252619Y-10315476D01*
X2452619Y-10315476D02*
X2452619Y-10182143D01*
X2452619Y-10220238D02*
X2462143Y-10201190D01*
X2471667Y-10191667D01*
X2490714Y-10182143D01*
X2509762Y-10182143D01*
X2576429Y-10315476D02*
X2576429Y-10182143D01*
X2576429Y-10115476D02*
X2566905Y-10125000D01*
X2576429Y-10134524D01*
X2585952Y-10125000D01*
X2576429Y-10115476D01*
X2576429Y-10134524D01*
X2700238Y-10315476D02*
X2681190Y-10305952D01*
X2671667Y-10286905D01*
X2671667Y-10115476D01*
X2805000Y-10315476D02*
X2785952Y-10305952D01*
X2776429Y-10286905D01*
X2776429Y-10115476D01*
X3033571Y-10315476D02*
X3033571Y-10115476D01*
X3100238Y-10258333D01*
X3166905Y-10115476D01*
X3166905Y-10315476D01*
X3347857Y-10315476D02*
X3347857Y-10210714D01*
X3338333Y-10191667D01*
X3319286Y-10182143D01*
X3281190Y-10182143D01*
X3262143Y-10191667D01*
X3347857Y-10305952D02*
X3328809Y-10315476D01*
X3281190Y-10315476D01*
X3262143Y-10305952D01*
X3252619Y-10286905D01*
X3252619Y-10267857D01*
X3262143Y-10248810D01*
X3281190Y-10239286D01*
X3328809Y-10239286D01*
X3347857Y-10229762D01*
X3443095Y-10182143D02*
X3443095Y-10382143D01*
X3443095Y-10191667D02*
X3462143Y-10182143D01*
X3500238Y-10182143D01*
X3519286Y-10191667D01*
X3528809Y-10201190D01*
X3538333Y-10220238D01*
X3538333Y-10277381D01*
X3528809Y-10296429D01*
X3519286Y-10305952D01*
X3500238Y-10315476D01*
X3462143Y-10315476D01*
X3443095Y-10305952D01*
X3624048Y-10296429D02*
X3633571Y-10305952D01*
X3624048Y-10315476D01*
X3614524Y-10305952D01*
X3624048Y-10296429D01*
X3624048Y-10315476D01*
X3624048Y-10191667D02*
X3633571Y-10201190D01*
X3624048Y-10210714D01*
X3614524Y-10201190D01*
X3624048Y-10191667D01*
X3624048Y-10210714D01*
X1795000Y-10545000D02*
X1995000Y-10745000D01*
X1995000Y-10545000D02*
X1795000Y-10745000D01*
X2233571Y-10535476D02*
X2357381Y-10535476D01*
X2290714Y-10611667D01*
X2319286Y-10611667D01*
X2338333Y-10621190D01*
X2347857Y-10630714D01*
X2357381Y-10649762D01*
X2357381Y-10697381D01*
X2347857Y-10716429D01*
X2338333Y-10725952D01*
X2319286Y-10735476D01*
X2262143Y-10735476D01*
X2243095Y-10725952D01*
X2233571Y-10716429D01*
X2443095Y-10716429D02*
X2452619Y-10725952D01*
X2443095Y-10735476D01*
X2433571Y-10725952D01*
X2443095Y-10716429D01*
X2443095Y-10735476D01*
X2528810Y-10554524D02*
X2538333Y-10545000D01*
X2557381Y-10535476D01*
X2605000Y-10535476D01*
X2624048Y-10545000D01*
X2633571Y-10554524D01*
X2643095Y-10573571D01*
X2643095Y-10592619D01*
X2633571Y-10621190D01*
X2519286Y-10735476D01*
X2643095Y-10735476D01*
X2766905Y-10535476D02*
X2785952Y-10535476D01*
X2805000Y-10545000D01*
X2814524Y-10554524D01*
X2824048Y-10573571D01*
X2833571Y-10611667D01*
X2833571Y-10659286D01*
X2824048Y-10697381D01*
X2814524Y-10716429D01*
X2805000Y-10725952D01*
X2785952Y-10735476D01*
X2766905Y-10735476D01*
X2747857Y-10725952D01*
X2738333Y-10716429D01*
X2728810Y-10697381D01*
X2719286Y-10659286D01*
X2719286Y-10611667D01*
X2728810Y-10573571D01*
X2738333Y-10554524D01*
X2747857Y-10545000D01*
X2766905Y-10535476D01*
X2957381Y-10535476D02*
X2976428Y-10535476D01*
X2995476Y-10545000D01*
X3005000Y-10554524D01*
X3014524Y-10573571D01*
X3024048Y-10611667D01*
X3024048Y-10659286D01*
X3014524Y-10697381D01*
X3005000Y-10716429D01*
X2995476Y-10725952D01*
X2976428Y-10735476D01*
X2957381Y-10735476D01*
X2938333Y-10725952D01*
X2928809Y-10716429D01*
X2919286Y-10697381D01*
X2909762Y-10659286D01*
X2909762Y-10611667D01*
X2919286Y-10573571D01*
X2928809Y-10554524D01*
X2938333Y-10545000D01*
X2957381Y-10535476D01*
X3109762Y-10735476D02*
X3109762Y-10602143D01*
X3109762Y-10621190D02*
X3119286Y-10611667D01*
X3138333Y-10602143D01*
X3166905Y-10602143D01*
X3185952Y-10611667D01*
X3195476Y-10630714D01*
X3195476Y-10735476D01*
X3195476Y-10630714D02*
X3205000Y-10611667D01*
X3224048Y-10602143D01*
X3252619Y-10602143D01*
X3271667Y-10611667D01*
X3281190Y-10630714D01*
X3281190Y-10735476D01*
X3376428Y-10735476D02*
X3376428Y-10602143D01*
X3376428Y-10621190D02*
X3385952Y-10611667D01*
X3405000Y-10602143D01*
X3433571Y-10602143D01*
X3452619Y-10611667D01*
X3462143Y-10630714D01*
X3462143Y-10735476D01*
X3462143Y-10630714D02*
X3471667Y-10611667D01*
X3490714Y-10602143D01*
X3519286Y-10602143D01*
X3538333Y-10611667D01*
X3547857Y-10630714D01*
X3547857Y-10735476D01*
X3938333Y-10525952D02*
X3766905Y-10783095D01*
X4195476Y-10535476D02*
X4214524Y-10535476D01*
X4233571Y-10545000D01*
X4243095Y-10554524D01*
X4252619Y-10573571D01*
X4262143Y-10611667D01*
X4262143Y-10659286D01*
X4252619Y-10697381D01*
X4243095Y-10716429D01*
X4233571Y-10725952D01*
X4214524Y-10735476D01*
X4195476Y-10735476D01*
X4176428Y-10725952D01*
X4166905Y-10716429D01*
X4157381Y-10697381D01*
X4147857Y-10659286D01*
X4147857Y-10611667D01*
X4157381Y-10573571D01*
X4166905Y-10554524D01*
X4176428Y-10545000D01*
X4195476Y-10535476D01*
X4347857Y-10716429D02*
X4357381Y-10725952D01*
X4347857Y-10735476D01*
X4338333Y-10725952D01*
X4347857Y-10716429D01*
X4347857Y-10735476D01*
X4547857Y-10735476D02*
X4433571Y-10735476D01*
X4490714Y-10735476D02*
X4490714Y-10535476D01*
X4471667Y-10564048D01*
X4452619Y-10583095D01*
X4433571Y-10592619D01*
X4624048Y-10554524D02*
X4633571Y-10545000D01*
X4652619Y-10535476D01*
X4700238Y-10535476D01*
X4719286Y-10545000D01*
X4728810Y-10554524D01*
X4738333Y-10573571D01*
X4738333Y-10592619D01*
X4728810Y-10621190D01*
X4614524Y-10735476D01*
X4738333Y-10735476D01*
X4909762Y-10535476D02*
X4871667Y-10535476D01*
X4852619Y-10545000D01*
X4843095Y-10554524D01*
X4824048Y-10583095D01*
X4814524Y-10621190D01*
X4814524Y-10697381D01*
X4824048Y-10716429D01*
X4833571Y-10725952D01*
X4852619Y-10735476D01*
X4890714Y-10735476D01*
X4909762Y-10725952D01*
X4919286Y-10716429D01*
X4928810Y-10697381D01*
X4928810Y-10649762D01*
X4919286Y-10630714D01*
X4909762Y-10621190D01*
X4890714Y-10611667D01*
X4852619Y-10611667D01*
X4833571Y-10621190D01*
X4824048Y-10630714D01*
X4814524Y-10649762D01*
X5052619Y-10535476D02*
X5071667Y-10535476D01*
X5090714Y-10545000D01*
X5100238Y-10554524D01*
X5109762Y-10573571D01*
X5119286Y-10611667D01*
X5119286Y-10659286D01*
X5109762Y-10697381D01*
X5100238Y-10716429D01*
X5090714Y-10725952D01*
X5071667Y-10735476D01*
X5052619Y-10735476D01*
X5033571Y-10725952D01*
X5024048Y-10716429D01*
X5014524Y-10697381D01*
X5005000Y-10659286D01*
X5005000Y-10611667D01*
X5014524Y-10573571D01*
X5024048Y-10554524D01*
X5033571Y-10545000D01*
X5052619Y-10535476D01*
X5195476Y-10535476D02*
X5195476Y-10573571D01*
X5271667Y-10535476D02*
X5271667Y-10573571D01*
X5566905Y-10811667D02*
X5557381Y-10802143D01*
X5538333Y-10773571D01*
X5528810Y-10754524D01*
X5519286Y-10725952D01*
X5509762Y-10678333D01*
X5509762Y-10640238D01*
X5519286Y-10592619D01*
X5528810Y-10564048D01*
X5538333Y-10545000D01*
X5557381Y-10516429D01*
X5566905Y-10506905D01*
X5728809Y-10602143D02*
X5728809Y-10735476D01*
X5681190Y-10525952D02*
X5633571Y-10668810D01*
X5757381Y-10668810D01*
X5985952Y-10735476D02*
X5985952Y-10535476D01*
X6071667Y-10735476D02*
X6071667Y-10630714D01*
X6062143Y-10611667D01*
X6043095Y-10602143D01*
X6014524Y-10602143D01*
X5995476Y-10611667D01*
X5985952Y-10621190D01*
X6195476Y-10735476D02*
X6176428Y-10725952D01*
X6166905Y-10716429D01*
X6157381Y-10697381D01*
X6157381Y-10640238D01*
X6166905Y-10621190D01*
X6176428Y-10611667D01*
X6195476Y-10602143D01*
X6224048Y-10602143D01*
X6243095Y-10611667D01*
X6252619Y-10621190D01*
X6262143Y-10640238D01*
X6262143Y-10697381D01*
X6252619Y-10716429D01*
X6243095Y-10725952D01*
X6224048Y-10735476D01*
X6195476Y-10735476D01*
X6376428Y-10735476D02*
X6357381Y-10725952D01*
X6347857Y-10706905D01*
X6347857Y-10535476D01*
X6528809Y-10725952D02*
X6509762Y-10735476D01*
X6471667Y-10735476D01*
X6452619Y-10725952D01*
X6443095Y-10706905D01*
X6443095Y-10630714D01*
X6452619Y-10611667D01*
X6471667Y-10602143D01*
X6509762Y-10602143D01*
X6528809Y-10611667D01*
X6538333Y-10630714D01*
X6538333Y-10649762D01*
X6443095Y-10668810D01*
X6614524Y-10725952D02*
X6633571Y-10735476D01*
X6671667Y-10735476D01*
X6690714Y-10725952D01*
X6700238Y-10706905D01*
X6700238Y-10697381D01*
X6690714Y-10678333D01*
X6671667Y-10668810D01*
X6643095Y-10668810D01*
X6624048Y-10659286D01*
X6614524Y-10640238D01*
X6614524Y-10630714D01*
X6624048Y-10611667D01*
X6643095Y-10602143D01*
X6671667Y-10602143D01*
X6690714Y-10611667D01*
X6766905Y-10811667D02*
X6776428Y-10802143D01*
X6795476Y-10773571D01*
X6805000Y-10754524D01*
X6814524Y-10725952D01*
X6824048Y-10678333D01*
X6824048Y-10640238D01*
X6814524Y-10592619D01*
X6805000Y-10564048D01*
X6795476Y-10545000D01*
X6776428Y-10516429D01*
X6766905Y-10506905D01*
X7128809Y-10811667D02*
X7119286Y-10802143D01*
X7100238Y-10773571D01*
X7090714Y-10754524D01*
X7081190Y-10725952D01*
X7071667Y-10678333D01*
X7071667Y-10640238D01*
X7081190Y-10592619D01*
X7090714Y-10564048D01*
X7100238Y-10545000D01*
X7119286Y-10516429D01*
X7128809Y-10506905D01*
X7205000Y-10602143D02*
X7205000Y-10735476D01*
X7205000Y-10621190D02*
X7214524Y-10611667D01*
X7233571Y-10602143D01*
X7262143Y-10602143D01*
X7281190Y-10611667D01*
X7290714Y-10630714D01*
X7290714Y-10735476D01*
X7414524Y-10735476D02*
X7395476Y-10725952D01*
X7385952Y-10716429D01*
X7376428Y-10697381D01*
X7376428Y-10640238D01*
X7385952Y-10621190D01*
X7395476Y-10611667D01*
X7414524Y-10602143D01*
X7443095Y-10602143D01*
X7462143Y-10611667D01*
X7471667Y-10621190D01*
X7481190Y-10640238D01*
X7481190Y-10697381D01*
X7471667Y-10716429D01*
X7462143Y-10725952D01*
X7443095Y-10735476D01*
X7414524Y-10735476D01*
X7538333Y-10602143D02*
X7614524Y-10602143D01*
X7566905Y-10535476D02*
X7566905Y-10706905D01*
X7576428Y-10725952D01*
X7595476Y-10735476D01*
X7614524Y-10735476D01*
X7833571Y-10602143D02*
X7833571Y-10802143D01*
X7833571Y-10611667D02*
X7852619Y-10602143D01*
X7890714Y-10602143D01*
X7909762Y-10611667D01*
X7919286Y-10621190D01*
X7928809Y-10640238D01*
X7928809Y-10697381D01*
X7919286Y-10716429D01*
X7909762Y-10725952D01*
X7890714Y-10735476D01*
X7852619Y-10735476D01*
X7833571Y-10725952D01*
X8043095Y-10735476D02*
X8024048Y-10725952D01*
X8014524Y-10706905D01*
X8014524Y-10535476D01*
X8205000Y-10735476D02*
X8205000Y-10630714D01*
X8195476Y-10611667D01*
X8176428Y-10602143D01*
X8138333Y-10602143D01*
X8119286Y-10611667D01*
X8205000Y-10725952D02*
X8185952Y-10735476D01*
X8138333Y-10735476D01*
X8119286Y-10725952D01*
X8109762Y-10706905D01*
X8109762Y-10687857D01*
X8119286Y-10668810D01*
X8138333Y-10659286D01*
X8185952Y-10659286D01*
X8205000Y-10649762D01*
X8271667Y-10602143D02*
X8347857Y-10602143D01*
X8300238Y-10535476D02*
X8300238Y-10706905D01*
X8309762Y-10725952D01*
X8328809Y-10735476D01*
X8347857Y-10735476D01*
X8490714Y-10725952D02*
X8471667Y-10735476D01*
X8433571Y-10735476D01*
X8414524Y-10725952D01*
X8405000Y-10706905D01*
X8405000Y-10630714D01*
X8414524Y-10611667D01*
X8433571Y-10602143D01*
X8471667Y-10602143D01*
X8490714Y-10611667D01*
X8500238Y-10630714D01*
X8500238Y-10649762D01*
X8405000Y-10668810D01*
X8671667Y-10735476D02*
X8671667Y-10535476D01*
X8671667Y-10725952D02*
X8652619Y-10735476D01*
X8614524Y-10735476D01*
X8595476Y-10725952D01*
X8585952Y-10716429D01*
X8576429Y-10697381D01*
X8576429Y-10640238D01*
X8585952Y-10621190D01*
X8595476Y-10611667D01*
X8614524Y-10602143D01*
X8652619Y-10602143D01*
X8671667Y-10611667D01*
X8747857Y-10811667D02*
X8757381Y-10802143D01*
X8776429Y-10773571D01*
X8785952Y-10754524D01*
X8795476Y-10725952D01*
X8805000Y-10678333D01*
X8805000Y-10640238D01*
X8795476Y-10592619D01*
X8785952Y-10564048D01*
X8776429Y-10545000D01*
X8757381Y-10516429D01*
X8747857Y-10506905D01*
M02*
