%TF.GenerationSoftware,KiCad,Pcbnew,(6.0.8-1)-1*%
%TF.CreationDate,2022-11-24T03:45:07+08:00*%
%TF.ProjectId,CCTV3_F407_REV200,43435456-335f-4463-9430-375f52455632,rev?*%
%TF.SameCoordinates,Original*%
%TF.FileFunction,Drillmap*%
%TF.FilePolarity,Positive*%
%FSLAX45Y45*%
G04 Gerber Fmt 4.5, Leading zero omitted, Abs format (unit mm)*
G04 Created by KiCad (PCBNEW (6.0.8-1)-1) date 2022-11-24 03:45:07*
%MOMM*%
%LPD*%
G01*
G04 APERTURE LIST*
%ADD10C,0.100000*%
%ADD11C,0.200000*%
%ADD12C,0.020000*%
%ADD13C,0.030000*%
%ADD14C,0.040000*%
%ADD15C,0.049997*%
%ADD16C,0.055001*%
%ADD17C,0.059994*%
%ADD18C,0.091440*%
%ADD19C,0.099999*%
%ADD20C,0.110002*%
%ADD21C,0.140000*%
%ADD22C,0.163002*%
%ADD23C,0.320000*%
G04 APERTURE END LIST*
D10*
X2000000Y-2000000D02*
X9000000Y-2000000D01*
X9000000Y-2000000D02*
X9000000Y-10000000D01*
X9000000Y-10000000D02*
X2000000Y-10000000D01*
X2000000Y-10000000D02*
X2000000Y-2000000D01*
D11*
D12*
X4370000Y-6160000D02*
X4390000Y-6180000D01*
X4390000Y-6160000D02*
X4370000Y-6180000D01*
X4370000Y-6930000D02*
X4390000Y-6950000D01*
X4390000Y-6930000D02*
X4370000Y-6950000D01*
X4370000Y-7040000D02*
X4390000Y-7060000D01*
X4390000Y-7040000D02*
X4370000Y-7060000D01*
X4420000Y-6990000D02*
X4440000Y-7010000D01*
X4440000Y-6990000D02*
X4420000Y-7010000D01*
X4420000Y-7090000D02*
X4440000Y-7110000D01*
X4440000Y-7090000D02*
X4420000Y-7110000D01*
X4430000Y-6210000D02*
X4450000Y-6230000D01*
X4450000Y-6210000D02*
X4430000Y-6230000D01*
X4520000Y-6710000D02*
X4540000Y-6730000D01*
X4540000Y-6710000D02*
X4520000Y-6730000D01*
X4550000Y-6490000D02*
X4570000Y-6510000D01*
X4570000Y-6490000D02*
X4550000Y-6510000D01*
X4550000Y-6640000D02*
X4570000Y-6660000D01*
X4570000Y-6640000D02*
X4550000Y-6660000D01*
X4570000Y-6220000D02*
X4590000Y-6240000D01*
X4590000Y-6220000D02*
X4570000Y-6240000D01*
X4610000Y-9470000D02*
X4630000Y-9490000D01*
X4630000Y-9470000D02*
X4610000Y-9490000D01*
X4635623Y-6490000D02*
X4655623Y-6510000D01*
X4655623Y-6490000D02*
X4635623Y-6510000D01*
X4640000Y-6056550D02*
X4660000Y-6076550D01*
X4660000Y-6056550D02*
X4640000Y-6076550D01*
X4650000Y-6220000D02*
X4670000Y-6240000D01*
X4670000Y-6220000D02*
X4650000Y-6240000D01*
X4710000Y-6440000D02*
X4730000Y-6460000D01*
X4730000Y-6440000D02*
X4710000Y-6460000D01*
X4710000Y-6530000D02*
X4730000Y-6550000D01*
X4730000Y-6530000D02*
X4710000Y-6550000D01*
X4730000Y-5890000D02*
X4750000Y-5910000D01*
X4750000Y-5890000D02*
X4730000Y-5910000D01*
X4730000Y-5970000D02*
X4750000Y-5990000D01*
X4750000Y-5970000D02*
X4730000Y-5990000D01*
X4730000Y-6056550D02*
X4750000Y-6076550D01*
X4750000Y-6056550D02*
X4730000Y-6076550D01*
X4740000Y-6871450D02*
X4760000Y-6891450D01*
X4760000Y-6871450D02*
X4740000Y-6891450D01*
X4740000Y-6960000D02*
X4760000Y-6980000D01*
X4760000Y-6960000D02*
X4740000Y-6980000D01*
X4750000Y-7410000D02*
X4770000Y-7430000D01*
X4770000Y-7410000D02*
X4750000Y-7430000D01*
X4750000Y-7490000D02*
X4770000Y-7510000D01*
X4770000Y-7490000D02*
X4750000Y-7510000D01*
X4990000Y-7270000D02*
X5010000Y-7290000D01*
X5010000Y-7270000D02*
X4990000Y-7290000D01*
X5020000Y-6380000D02*
X5040000Y-6400000D01*
X5040000Y-6380000D02*
X5020000Y-6400000D01*
X5110000Y-5460000D02*
X5130000Y-5480000D01*
X5130000Y-5460000D02*
X5110000Y-5480000D01*
X5120000Y-6380000D02*
X5140000Y-6400000D01*
X5140000Y-6380000D02*
X5120000Y-6400000D01*
X5140000Y-6650000D02*
X5160000Y-6670000D01*
X5160000Y-6650000D02*
X5140000Y-6670000D01*
X5220000Y-6380000D02*
X5240000Y-6400000D01*
X5240000Y-6380000D02*
X5220000Y-6400000D01*
X5230000Y-6650000D02*
X5250000Y-6670000D01*
X5250000Y-6650000D02*
X5230000Y-6670000D01*
X5300000Y-5820000D02*
X5320000Y-5840000D01*
X5320000Y-5820000D02*
X5300000Y-5840000D01*
X5300000Y-5930000D02*
X5320000Y-5950000D01*
X5320000Y-5930000D02*
X5300000Y-5950000D01*
X5320000Y-6380000D02*
X5340000Y-6400000D01*
X5340000Y-6380000D02*
X5320000Y-6400000D01*
X5320000Y-6790000D02*
X5340000Y-6810000D01*
X5340000Y-6790000D02*
X5320000Y-6810000D01*
X5360000Y-5760000D02*
X5380000Y-5780000D01*
X5380000Y-5760000D02*
X5360000Y-5780000D01*
X5370000Y-5890000D02*
X5390000Y-5910000D01*
X5390000Y-5890000D02*
X5370000Y-5910000D01*
X5420000Y-6790000D02*
X5440000Y-6810000D01*
X5440000Y-6790000D02*
X5420000Y-6810000D01*
X5550000Y-7250000D02*
X5570000Y-7270000D01*
X5570000Y-7250000D02*
X5550000Y-7270000D01*
X5635000Y-7163753D02*
X5655000Y-7183753D01*
X5655000Y-7163753D02*
X5635000Y-7183753D01*
X5640000Y-7250000D02*
X5660000Y-7270000D01*
X5660000Y-7250000D02*
X5640000Y-7270000D01*
X5664481Y-7489904D02*
X5684481Y-7509904D01*
X5684481Y-7489904D02*
X5664481Y-7509904D01*
X5730000Y-6840000D02*
X5750000Y-6860000D01*
X5750000Y-6840000D02*
X5730000Y-6860000D01*
X5740000Y-7432454D02*
X5760000Y-7452454D01*
X5760000Y-7432454D02*
X5740000Y-7452454D01*
X5740000Y-7510000D02*
X5760000Y-7530000D01*
X5760000Y-7510000D02*
X5740000Y-7530000D01*
X5750623Y-7310623D02*
X5770623Y-7330623D01*
X5770623Y-7310623D02*
X5750623Y-7330623D01*
X5800000Y-7370000D02*
X5820000Y-7390000D01*
X5820000Y-7370000D02*
X5800000Y-7390000D01*
X5940000Y-6750000D02*
X5960000Y-6770000D01*
X5960000Y-6750000D02*
X5940000Y-6770000D01*
X5950000Y-7540000D02*
X5970000Y-7560000D01*
X5970000Y-7540000D02*
X5950000Y-7560000D01*
X5959065Y-6590323D02*
X5979065Y-6610323D01*
X5979065Y-6590323D02*
X5959065Y-6610323D01*
X5960000Y-7160000D02*
X5980000Y-7180000D01*
X5980000Y-7160000D02*
X5960000Y-7180000D01*
X5970000Y-7240000D02*
X5990000Y-7260000D01*
X5990000Y-7240000D02*
X5970000Y-7260000D01*
X5990000Y-6520000D02*
X6010000Y-6540000D01*
X6010000Y-6520000D02*
X5990000Y-6540000D01*
X6040000Y-8230000D02*
X6060000Y-8250000D01*
X6060000Y-8230000D02*
X6040000Y-8250000D01*
X6179377Y-7119377D02*
X6199377Y-7139377D01*
X6199377Y-7119377D02*
X6179377Y-7139377D01*
X6210000Y-7411950D02*
X6230000Y-7431950D01*
X6230000Y-7411950D02*
X6210000Y-7431950D01*
X6260000Y-5830000D02*
X6280000Y-5850000D01*
X6280000Y-5830000D02*
X6260000Y-5850000D01*
X6260000Y-5920000D02*
X6280000Y-5940000D01*
X6280000Y-5920000D02*
X6260000Y-5940000D01*
X6260000Y-6020000D02*
X6280000Y-6040000D01*
X6280000Y-6020000D02*
X6260000Y-6040000D01*
X6260000Y-6100000D02*
X6280000Y-6120000D01*
X6280000Y-6100000D02*
X6260000Y-6120000D01*
X6310000Y-7057450D02*
X6330000Y-7077450D01*
X6330000Y-7057450D02*
X6310000Y-7077450D01*
X6310000Y-7411950D02*
X6330000Y-7431950D01*
X6330000Y-7411950D02*
X6310000Y-7431950D01*
X6370000Y-6510000D02*
X6390000Y-6530000D01*
X6390000Y-6510000D02*
X6370000Y-6530000D01*
X6370000Y-6590000D02*
X6390000Y-6610000D01*
X6390000Y-6590000D02*
X6370000Y-6610000D01*
X6370000Y-6680000D02*
X6390000Y-6700000D01*
X6390000Y-6680000D02*
X6370000Y-6700000D01*
X6370000Y-6760000D02*
X6390000Y-6780000D01*
X6390000Y-6760000D02*
X6370000Y-6780000D01*
X6370000Y-6940000D02*
X6390000Y-6960000D01*
X6390000Y-6940000D02*
X6370000Y-6960000D01*
X6375505Y-7103654D02*
X6395505Y-7123654D01*
X6395505Y-7103654D02*
X6375505Y-7123654D01*
X6410000Y-6880000D02*
X6430000Y-6900000D01*
X6430000Y-6880000D02*
X6410000Y-6900000D01*
X6410000Y-7930000D02*
X6430000Y-7950000D01*
X6430000Y-7930000D02*
X6410000Y-7950000D01*
X6420000Y-7000000D02*
X6440000Y-7020000D01*
X6440000Y-7000000D02*
X6420000Y-7020000D01*
X6500000Y-7492000D02*
X6520000Y-7512000D01*
X6520000Y-7492000D02*
X6500000Y-7512000D01*
X6580000Y-7060000D02*
X6600000Y-7080000D01*
X6600000Y-7060000D02*
X6580000Y-7080000D01*
X6580000Y-8820000D02*
X6600000Y-8840000D01*
X6600000Y-8820000D02*
X6580000Y-8840000D01*
X6580000Y-8980000D02*
X6600000Y-9000000D01*
X6600000Y-8980000D02*
X6580000Y-9000000D01*
X6600000Y-6010000D02*
X6620000Y-6030000D01*
X6620000Y-6010000D02*
X6600000Y-6030000D01*
X6600000Y-6090000D02*
X6620000Y-6110000D01*
X6620000Y-6090000D02*
X6600000Y-6110000D01*
X6625000Y-2914000D02*
X6645000Y-2934000D01*
X6645000Y-2914000D02*
X6625000Y-2934000D01*
X6690000Y-5870000D02*
X6710000Y-5890000D01*
X6710000Y-5870000D02*
X6690000Y-5890000D01*
X6690000Y-5950000D02*
X6710000Y-5970000D01*
X6710000Y-5950000D02*
X6690000Y-5970000D01*
X6790000Y-7090000D02*
X6810000Y-7110000D01*
X6810000Y-7090000D02*
X6790000Y-7110000D01*
X6910000Y-9851000D02*
X6930000Y-9871000D01*
X6930000Y-9851000D02*
X6910000Y-9871000D01*
X6940000Y-6890000D02*
X6960000Y-6910000D01*
X6960000Y-6890000D02*
X6940000Y-6910000D01*
X7020000Y-5530000D02*
X7040000Y-5550000D01*
X7040000Y-5530000D02*
X7020000Y-5550000D01*
X7020000Y-6960000D02*
X7040000Y-6980000D01*
X7040000Y-6960000D02*
X7020000Y-6980000D01*
X7100000Y-5550000D02*
X7120000Y-5570000D01*
X7120000Y-5550000D02*
X7100000Y-5570000D01*
X7131257Y-7030000D02*
X7151257Y-7050000D01*
X7151257Y-7030000D02*
X7131257Y-7050000D01*
X7140000Y-5420000D02*
X7160000Y-5440000D01*
X7160000Y-5420000D02*
X7140000Y-5440000D01*
X7190000Y-4110000D02*
X7210000Y-4130000D01*
X7210000Y-4110000D02*
X7190000Y-4130000D01*
X7210000Y-9690000D02*
X7230000Y-9710000D01*
X7230000Y-9690000D02*
X7210000Y-9710000D01*
X7220000Y-7030000D02*
X7240000Y-7050000D01*
X7240000Y-7030000D02*
X7220000Y-7050000D01*
X7230000Y-5960000D02*
X7250000Y-5980000D01*
X7250000Y-5960000D02*
X7230000Y-5980000D01*
X7232550Y-5880000D02*
X7252550Y-5900000D01*
X7252550Y-5880000D02*
X7232550Y-5900000D01*
X7260000Y-5480000D02*
X7280000Y-5500000D01*
X7280000Y-5480000D02*
X7260000Y-5500000D01*
X7260000Y-5560000D02*
X7280000Y-5580000D01*
X7280000Y-5560000D02*
X7260000Y-5580000D01*
X7268500Y-5270500D02*
X7288500Y-5290500D01*
X7288500Y-5270500D02*
X7268500Y-5290500D01*
X7310000Y-5960000D02*
X7330000Y-5980000D01*
X7330000Y-5960000D02*
X7310000Y-5980000D01*
X7320000Y-7030000D02*
X7340000Y-7050000D01*
X7340000Y-7030000D02*
X7320000Y-7050000D01*
X7320000Y-7110000D02*
X7340000Y-7130000D01*
X7340000Y-7110000D02*
X7320000Y-7130000D01*
X7380000Y-5474950D02*
X7400000Y-5494950D01*
X7400000Y-5474950D02*
X7380000Y-5494950D01*
X7390000Y-4230000D02*
X7410000Y-4250000D01*
X7410000Y-4230000D02*
X7390000Y-4250000D01*
X7430000Y-7110000D02*
X7450000Y-7130000D01*
X7450000Y-7110000D02*
X7430000Y-7130000D01*
X7455727Y-5474950D02*
X7475727Y-5494950D01*
X7475727Y-5474950D02*
X7455727Y-5494950D01*
X7480000Y-4420000D02*
X7500000Y-4440000D01*
X7500000Y-4420000D02*
X7480000Y-4440000D01*
X7480000Y-6460000D02*
X7500000Y-6480000D01*
X7500000Y-6460000D02*
X7480000Y-6480000D01*
X7490000Y-4090000D02*
X7510000Y-4110000D01*
X7510000Y-4090000D02*
X7490000Y-4110000D01*
X7500000Y-3830000D02*
X7520000Y-3850000D01*
X7520000Y-3830000D02*
X7500000Y-3850000D01*
X7500000Y-5540000D02*
X7520000Y-5560000D01*
X7520000Y-5540000D02*
X7500000Y-5560000D01*
X7510000Y-4320000D02*
X7530000Y-4340000D01*
X7530000Y-4320000D02*
X7510000Y-4340000D01*
X7510000Y-7030000D02*
X7530000Y-7050000D01*
X7530000Y-7030000D02*
X7510000Y-7050000D01*
X7512550Y-7471449D02*
X7532550Y-7491449D01*
X7532550Y-7471449D02*
X7512550Y-7491449D01*
X7528500Y-4730500D02*
X7548500Y-4750500D01*
X7548500Y-4730500D02*
X7528500Y-4750500D01*
X7570000Y-7610000D02*
X7590000Y-7630000D01*
X7590000Y-7610000D02*
X7570000Y-7630000D01*
X7579024Y-5530000D02*
X7599024Y-5550000D01*
X7599024Y-5530000D02*
X7579024Y-5550000D01*
X7580000Y-5610000D02*
X7600000Y-5630000D01*
X7600000Y-5610000D02*
X7580000Y-5630000D01*
X7590000Y-5690000D02*
X7610000Y-5710000D01*
X7610000Y-5690000D02*
X7590000Y-5710000D01*
X7630000Y-5780000D02*
X7650000Y-5800000D01*
X7650000Y-5780000D02*
X7630000Y-5800000D01*
X7630000Y-8010000D02*
X7650000Y-8030000D01*
X7650000Y-8010000D02*
X7630000Y-8030000D01*
X7630000Y-8270000D02*
X7650000Y-8290000D01*
X7650000Y-8270000D02*
X7630000Y-8290000D01*
X7650000Y-7140000D02*
X7670000Y-7160000D01*
X7670000Y-7140000D02*
X7650000Y-7160000D01*
X7662377Y-4979950D02*
X7682377Y-4999950D01*
X7682377Y-4979950D02*
X7662377Y-4999950D01*
X7665000Y-4440000D02*
X7685000Y-4460000D01*
X7685000Y-4440000D02*
X7665000Y-4460000D01*
X7665000Y-4515000D02*
X7685000Y-4535000D01*
X7685000Y-4515000D02*
X7665000Y-4535000D01*
X7665000Y-4590000D02*
X7685000Y-4610000D01*
X7685000Y-4590000D02*
X7665000Y-4610000D01*
X7670000Y-4670000D02*
X7690000Y-4690000D01*
X7690000Y-4670000D02*
X7670000Y-4690000D01*
X7670000Y-8550000D02*
X7690000Y-8570000D01*
X7690000Y-8550000D02*
X7670000Y-8570000D01*
X7680000Y-7270000D02*
X7700000Y-7290000D01*
X7700000Y-7270000D02*
X7680000Y-7290000D01*
X7680000Y-7350000D02*
X7700000Y-7370000D01*
X7700000Y-7350000D02*
X7680000Y-7370000D01*
X7680000Y-7740000D02*
X7700000Y-7760000D01*
X7700000Y-7740000D02*
X7680000Y-7760000D01*
X7730000Y-5530000D02*
X7750000Y-5550000D01*
X7750000Y-5530000D02*
X7730000Y-5550000D01*
X7730000Y-5610000D02*
X7750000Y-5630000D01*
X7750000Y-5610000D02*
X7730000Y-5630000D01*
X7730000Y-7140000D02*
X7750000Y-7160000D01*
X7750000Y-7140000D02*
X7730000Y-7160000D01*
X7770000Y-8550000D02*
X7790000Y-8570000D01*
X7790000Y-8550000D02*
X7770000Y-8570000D01*
X7790000Y-6530000D02*
X7810000Y-6550000D01*
X7810000Y-6530000D02*
X7790000Y-6550000D01*
X7820000Y-5730000D02*
X7840000Y-5750000D01*
X7840000Y-5730000D02*
X7820000Y-5750000D01*
X7910000Y-3740000D02*
X7930000Y-3760000D01*
X7930000Y-3740000D02*
X7910000Y-3760000D01*
X7910000Y-6970000D02*
X7930000Y-6990000D01*
X7930000Y-6970000D02*
X7910000Y-6990000D01*
X7910000Y-7070000D02*
X7930000Y-7090000D01*
X7930000Y-7070000D02*
X7910000Y-7090000D01*
X7937710Y-4480000D02*
X7957710Y-4500000D01*
X7957710Y-4480000D02*
X7937710Y-4500000D01*
X7955000Y-4935000D02*
X7975000Y-4955000D01*
X7975000Y-4935000D02*
X7955000Y-4955000D01*
X7955000Y-5065000D02*
X7975000Y-5085000D01*
X7975000Y-5065000D02*
X7955000Y-5085000D01*
X8010000Y-8280000D02*
X8030000Y-8300000D01*
X8030000Y-8280000D02*
X8010000Y-8300000D01*
X8030000Y-3740000D02*
X8050000Y-3760000D01*
X8050000Y-3740000D02*
X8030000Y-3760000D01*
X8085000Y-4935000D02*
X8105000Y-4955000D01*
X8105000Y-4935000D02*
X8085000Y-4955000D01*
X8085000Y-5065000D02*
X8105000Y-5085000D01*
X8105000Y-5065000D02*
X8085000Y-5085000D01*
X8110000Y-4480000D02*
X8130000Y-4500000D01*
X8130000Y-4480000D02*
X8110000Y-4500000D01*
X8150000Y-3740000D02*
X8170000Y-3760000D01*
X8170000Y-3740000D02*
X8150000Y-3760000D01*
X8220000Y-4790000D02*
X8240000Y-4810000D01*
X8240000Y-4790000D02*
X8220000Y-4810000D01*
X8240000Y-7650000D02*
X8260000Y-7670000D01*
X8260000Y-7650000D02*
X8240000Y-7670000D01*
X8290000Y-4820000D02*
X8310000Y-4840000D01*
X8310000Y-4820000D02*
X8290000Y-4840000D01*
X8300000Y-6530000D02*
X8320000Y-6550000D01*
X8320000Y-6530000D02*
X8300000Y-6550000D01*
X8338427Y-4888725D02*
X8358427Y-4908725D01*
X8358427Y-4888725D02*
X8338427Y-4908725D01*
X8340000Y-4530000D02*
X8360000Y-4550000D01*
X8360000Y-4530000D02*
X8340000Y-4550000D01*
X8340000Y-4640000D02*
X8360000Y-4660000D01*
X8360000Y-4640000D02*
X8340000Y-4660000D01*
X8370000Y-5010000D02*
X8390000Y-5030000D01*
X8390000Y-5010000D02*
X8370000Y-5030000D01*
X8380000Y-4820000D02*
X8400000Y-4840000D01*
X8400000Y-4820000D02*
X8380000Y-4840000D01*
X8400000Y-4940000D02*
X8420000Y-4960000D01*
X8420000Y-4940000D02*
X8400000Y-4960000D01*
X8400000Y-5960000D02*
X8420000Y-5980000D01*
X8420000Y-5960000D02*
X8400000Y-5980000D01*
X8430000Y-4870000D02*
X8450000Y-4890000D01*
X8450000Y-4870000D02*
X8430000Y-4890000D01*
X8450000Y-5010000D02*
X8470000Y-5030000D01*
X8470000Y-5010000D02*
X8450000Y-5030000D01*
X8479377Y-5960623D02*
X8499377Y-5980623D01*
X8499377Y-5960623D02*
X8479377Y-5980623D01*
X8480000Y-4940000D02*
X8500000Y-4960000D01*
X8500000Y-4940000D02*
X8480000Y-4960000D01*
X8480000Y-5880000D02*
X8500000Y-5900000D01*
X8500000Y-5880000D02*
X8480000Y-5900000D01*
X8570000Y-3830000D02*
X8590000Y-3850000D01*
X8590000Y-3830000D02*
X8570000Y-3850000D01*
X8580000Y-4090000D02*
X8600000Y-4110000D01*
X8600000Y-4090000D02*
X8580000Y-4110000D01*
X8790000Y-4140000D02*
X8810000Y-4160000D01*
X8810000Y-4140000D02*
X8790000Y-4160000D01*
X8790000Y-4240000D02*
X8810000Y-4260000D01*
X8810000Y-4240000D02*
X8790000Y-4260000D01*
X8790000Y-4340000D02*
X8810000Y-4360000D01*
X8810000Y-4340000D02*
X8790000Y-4360000D01*
X8890000Y-4140000D02*
X8910000Y-4160000D01*
X8910000Y-4140000D02*
X8890000Y-4160000D01*
X8890000Y-4240000D02*
X8910000Y-4260000D01*
X8910000Y-4240000D02*
X8890000Y-4260000D01*
X8890000Y-4340000D02*
X8910000Y-4360000D01*
X8910000Y-4340000D02*
X8890000Y-4360000D01*
D13*
X2555000Y-4490000D02*
G75*
G03*
X2555000Y-4490000I-15000J0D01*
G01*
X3775000Y-5471000D02*
G75*
G03*
X3775000Y-5471000I-15000J0D01*
G01*
X3995000Y-8640000D02*
G75*
G03*
X3995000Y-8640000I-15000J0D01*
G01*
X4045000Y-7440000D02*
G75*
G03*
X4045000Y-7440000I-15000J0D01*
G01*
X4085000Y-5600000D02*
G75*
G03*
X4085000Y-5600000I-15000J0D01*
G01*
X4085000Y-6030000D02*
G75*
G03*
X4085000Y-6030000I-15000J0D01*
G01*
X4185000Y-3720000D02*
G75*
G03*
X4185000Y-3720000I-15000J0D01*
G01*
X4455000Y-8900000D02*
G75*
G03*
X4455000Y-8900000I-15000J0D01*
G01*
X4455000Y-9000000D02*
G75*
G03*
X4455000Y-9000000I-15000J0D01*
G01*
X4455000Y-9100000D02*
G75*
G03*
X4455000Y-9100000I-15000J0D01*
G01*
X4555000Y-8900000D02*
G75*
G03*
X4555000Y-8900000I-15000J0D01*
G01*
X4555000Y-9000000D02*
G75*
G03*
X4555000Y-9000000I-15000J0D01*
G01*
X4555000Y-9100000D02*
G75*
G03*
X4555000Y-9100000I-15000J0D01*
G01*
X4655000Y-8900000D02*
G75*
G03*
X4655000Y-8900000I-15000J0D01*
G01*
X4655000Y-9000000D02*
G75*
G03*
X4655000Y-9000000I-15000J0D01*
G01*
X4655000Y-9100000D02*
G75*
G03*
X4655000Y-9100000I-15000J0D01*
G01*
X4755000Y-8850000D02*
G75*
G03*
X4755000Y-8850000I-15000J0D01*
G01*
X4765000Y-6650000D02*
G75*
G03*
X4765000Y-6650000I-15000J0D01*
G01*
X4865000Y-4180000D02*
G75*
G03*
X4865000Y-4180000I-15000J0D01*
G01*
X4975000Y-8650000D02*
G75*
G03*
X4975000Y-8650000I-15000J0D01*
G01*
X5105000Y-7280000D02*
G75*
G03*
X5105000Y-7280000I-15000J0D01*
G01*
X5215000Y-8650000D02*
G75*
G03*
X5215000Y-8650000I-15000J0D01*
G01*
X5305000Y-8550000D02*
G75*
G03*
X5305000Y-8550000I-15000J0D01*
G01*
X5365000Y-5590000D02*
G75*
G03*
X5365000Y-5590000I-15000J0D01*
G01*
X5405000Y-6115050D02*
G75*
G03*
X5405000Y-6115050I-15000J0D01*
G01*
X5445000Y-9510000D02*
G75*
G03*
X5445000Y-9510000I-15000J0D01*
G01*
X5475000Y-6550000D02*
G75*
G03*
X5475000Y-6550000I-15000J0D01*
G01*
X5635000Y-6454450D02*
G75*
G03*
X5635000Y-6454450I-15000J0D01*
G01*
X5635000Y-6550000D02*
G75*
G03*
X5635000Y-6550000I-15000J0D01*
G01*
X5635000Y-6650000D02*
G75*
G03*
X5635000Y-6650000I-15000J0D01*
G01*
X5685000Y-8890000D02*
G75*
G03*
X5685000Y-8890000I-15000J0D01*
G01*
X5785000Y-5690000D02*
G75*
G03*
X5785000Y-5690000I-15000J0D01*
G01*
X5995000Y-9510000D02*
G75*
G03*
X5995000Y-9510000I-15000J0D01*
G01*
X6015000Y-5650000D02*
G75*
G03*
X6015000Y-5650000I-15000J0D01*
G01*
X6075000Y-5320000D02*
G75*
G03*
X6075000Y-5320000I-15000J0D01*
G01*
X6095000Y-8630000D02*
G75*
G03*
X6095000Y-8630000I-15000J0D01*
G01*
X6125000Y-5780000D02*
G75*
G03*
X6125000Y-5780000I-15000J0D01*
G01*
X6165000Y-8740000D02*
G75*
G03*
X6165000Y-8740000I-15000J0D01*
G01*
X6625000Y-7582000D02*
G75*
G03*
X6625000Y-7582000I-15000J0D01*
G01*
X6825000Y-2790000D02*
G75*
G03*
X6825000Y-2790000I-15000J0D01*
G01*
X6895000Y-8710000D02*
G75*
G03*
X6895000Y-8710000I-15000J0D01*
G01*
X7005000Y-7442000D02*
G75*
G03*
X7005000Y-7442000I-15000J0D01*
G01*
X7135000Y-7812000D02*
G75*
G03*
X7135000Y-7812000I-15000J0D01*
G01*
X7195000Y-8830000D02*
G75*
G03*
X7195000Y-8830000I-15000J0D01*
G01*
X7535000Y-5370000D02*
G75*
G03*
X7535000Y-5370000I-15000J0D01*
G01*
X7625000Y-5290000D02*
G75*
G03*
X7625000Y-5290000I-15000J0D01*
G01*
X7825000Y-4810000D02*
G75*
G03*
X7825000Y-4810000I-15000J0D01*
G01*
X8045000Y-5570000D02*
G75*
G03*
X8045000Y-5570000I-15000J0D01*
G01*
X8145000Y-5570000D02*
G75*
G03*
X8145000Y-5570000I-15000J0D01*
G01*
X8245000Y-5570000D02*
G75*
G03*
X8245000Y-5570000I-15000J0D01*
G01*
D14*
X2150000Y-4980000D02*
X2150000Y-5020000D01*
X2130000Y-5000000D02*
X2170000Y-5000000D01*
X2150000Y-5180000D02*
X2150000Y-5220000D01*
X2130000Y-5200000D02*
X2170000Y-5200000D01*
X2150000Y-5380000D02*
X2150000Y-5420000D01*
X2130000Y-5400000D02*
X2170000Y-5400000D01*
X2250000Y-5080000D02*
X2250000Y-5120000D01*
X2230000Y-5100000D02*
X2270000Y-5100000D01*
X2250000Y-5280000D02*
X2250000Y-5320000D01*
X2230000Y-5300000D02*
X2270000Y-5300000D01*
X2250000Y-6480000D02*
X2250000Y-6520000D01*
X2230000Y-6500000D02*
X2270000Y-6500000D01*
X2350000Y-4980000D02*
X2350000Y-5020000D01*
X2330000Y-5000000D02*
X2370000Y-5000000D01*
X2350000Y-5180000D02*
X2350000Y-5220000D01*
X2330000Y-5200000D02*
X2370000Y-5200000D01*
X2350000Y-5380000D02*
X2350000Y-5420000D01*
X2330000Y-5400000D02*
X2370000Y-5400000D01*
X2350000Y-6380000D02*
X2350000Y-6420000D01*
X2330000Y-6400000D02*
X2370000Y-6400000D01*
X2450000Y-5080000D02*
X2450000Y-5120000D01*
X2430000Y-5100000D02*
X2470000Y-5100000D01*
X2450000Y-5280000D02*
X2450000Y-5320000D01*
X2430000Y-5300000D02*
X2470000Y-5300000D01*
X2450000Y-6480000D02*
X2450000Y-6520000D01*
X2430000Y-6500000D02*
X2470000Y-6500000D01*
X2549490Y-5380056D02*
X2549490Y-5420056D01*
X2529490Y-5400056D02*
X2569490Y-5400056D01*
X2550000Y-4980000D02*
X2550000Y-5020000D01*
X2530000Y-5000000D02*
X2570000Y-5000000D01*
X2550000Y-5180000D02*
X2550000Y-5220000D01*
X2530000Y-5200000D02*
X2570000Y-5200000D01*
X2550000Y-6580000D02*
X2550000Y-6620000D01*
X2530000Y-6600000D02*
X2570000Y-6600000D01*
X2650000Y-6480000D02*
X2650000Y-6520000D01*
X2630000Y-6500000D02*
X2670000Y-6500000D01*
X2750000Y-6580000D02*
X2750000Y-6620000D01*
X2730000Y-6600000D02*
X2770000Y-6600000D01*
X2750000Y-6730000D02*
X2750000Y-6770000D01*
X2730000Y-6750000D02*
X2770000Y-6750000D01*
X2750000Y-6880000D02*
X2750000Y-6920000D01*
X2730000Y-6900000D02*
X2770000Y-6900000D01*
X2780000Y-7630000D02*
X2780000Y-7670000D01*
X2760000Y-7650000D02*
X2800000Y-7650000D01*
X3000000Y-4780000D02*
X3000000Y-4820000D01*
X2980000Y-4800000D02*
X3020000Y-4800000D01*
X3000000Y-4930000D02*
X3000000Y-4970000D01*
X2980000Y-4950000D02*
X3020000Y-4950000D01*
X3150000Y-3480000D02*
X3150000Y-3520000D01*
X3130000Y-3500000D02*
X3170000Y-3500000D01*
X3150000Y-3680000D02*
X3150000Y-3720000D01*
X3130000Y-3700000D02*
X3170000Y-3700000D01*
X3200000Y-4780000D02*
X3200000Y-4820000D01*
X3180000Y-4800000D02*
X3220000Y-4800000D01*
X3200000Y-4930000D02*
X3200000Y-4970000D01*
X3180000Y-4950000D02*
X3220000Y-4950000D01*
X3250000Y-3580000D02*
X3250000Y-3620000D01*
X3230000Y-3600000D02*
X3270000Y-3600000D01*
X3350000Y-3480000D02*
X3350000Y-3520000D01*
X3330000Y-3500000D02*
X3370000Y-3500000D01*
X3350000Y-3680000D02*
X3350000Y-3720000D01*
X3330000Y-3700000D02*
X3370000Y-3700000D01*
X3400000Y-4780000D02*
X3400000Y-4820000D01*
X3380000Y-4800000D02*
X3420000Y-4800000D01*
X3400000Y-4930000D02*
X3400000Y-4970000D01*
X3380000Y-4950000D02*
X3420000Y-4950000D01*
X3450000Y-3580000D02*
X3450000Y-3620000D01*
X3430000Y-3600000D02*
X3470000Y-3600000D01*
X3470000Y-7690000D02*
X3470000Y-7730000D01*
X3450000Y-7710000D02*
X3490000Y-7710000D01*
X3550000Y-3480000D02*
X3550000Y-3520000D01*
X3530000Y-3500000D02*
X3570000Y-3500000D01*
X3550000Y-3680000D02*
X3550000Y-3720000D01*
X3530000Y-3700000D02*
X3570000Y-3700000D01*
X3600000Y-4780000D02*
X3600000Y-4820000D01*
X3580000Y-4800000D02*
X3620000Y-4800000D01*
X3600000Y-4930000D02*
X3600000Y-4970000D01*
X3580000Y-4950000D02*
X3620000Y-4950000D01*
X3790000Y-7450000D02*
X3790000Y-7490000D01*
X3770000Y-7470000D02*
X3810000Y-7470000D01*
X3900000Y-5030000D02*
X3900000Y-5070000D01*
X3880000Y-5050000D02*
X3920000Y-5050000D01*
X3900000Y-5230000D02*
X3900000Y-5270000D01*
X3880000Y-5250000D02*
X3920000Y-5250000D01*
X4000000Y-5130000D02*
X4000000Y-5170000D01*
X3980000Y-5150000D02*
X4020000Y-5150000D01*
X4100000Y-5030000D02*
X4100000Y-5070000D01*
X4080000Y-5050000D02*
X4120000Y-5050000D01*
X4300000Y-5030000D02*
X4300000Y-5070000D01*
X4280000Y-5050000D02*
X4320000Y-5050000D01*
X4400000Y-3080000D02*
X4400000Y-3120000D01*
X4380000Y-3100000D02*
X4420000Y-3100000D01*
X4400000Y-3280000D02*
X4400000Y-3320000D01*
X4380000Y-3300000D02*
X4420000Y-3300000D01*
X4400000Y-3630000D02*
X4400000Y-3670000D01*
X4380000Y-3650000D02*
X4420000Y-3650000D01*
X4400000Y-3830000D02*
X4400000Y-3870000D01*
X4380000Y-3850000D02*
X4420000Y-3850000D01*
X4450000Y-9740000D02*
X4450000Y-9780000D01*
X4430000Y-9760000D02*
X4470000Y-9760000D01*
X4500000Y-2980000D02*
X4500000Y-3020000D01*
X4480000Y-3000000D02*
X4520000Y-3000000D01*
X4500000Y-3180000D02*
X4500000Y-3220000D01*
X4480000Y-3200000D02*
X4520000Y-3200000D01*
X4500000Y-3730000D02*
X4500000Y-3770000D01*
X4480000Y-3750000D02*
X4520000Y-3750000D01*
X4500000Y-5030000D02*
X4500000Y-5070000D01*
X4480000Y-5050000D02*
X4520000Y-5050000D01*
X4600000Y-3080000D02*
X4600000Y-3120000D01*
X4580000Y-3100000D02*
X4620000Y-3100000D01*
X4600000Y-3280000D02*
X4600000Y-3320000D01*
X4580000Y-3300000D02*
X4620000Y-3300000D01*
X4600000Y-3630000D02*
X4600000Y-3670000D01*
X4580000Y-3650000D02*
X4620000Y-3650000D01*
X4600000Y-3830000D02*
X4600000Y-3870000D01*
X4580000Y-3850000D02*
X4620000Y-3850000D01*
X4650000Y-7630000D02*
X4650000Y-7670000D01*
X4630000Y-7650000D02*
X4670000Y-7650000D01*
X4650000Y-7830000D02*
X4650000Y-7870000D01*
X4630000Y-7850000D02*
X4670000Y-7850000D01*
X4650000Y-8030000D02*
X4650000Y-8070000D01*
X4630000Y-8050000D02*
X4670000Y-8050000D01*
X4650000Y-8230000D02*
X4650000Y-8270000D01*
X4630000Y-8250000D02*
X4670000Y-8250000D01*
X4700000Y-2980000D02*
X4700000Y-3020000D01*
X4680000Y-3000000D02*
X4720000Y-3000000D01*
X4700000Y-3180000D02*
X4700000Y-3220000D01*
X4680000Y-3200000D02*
X4720000Y-3200000D01*
X4700000Y-3730000D02*
X4700000Y-3770000D01*
X4680000Y-3750000D02*
X4720000Y-3750000D01*
X4700000Y-5030000D02*
X4700000Y-5070000D01*
X4680000Y-5050000D02*
X4720000Y-5050000D01*
X4700000Y-5330000D02*
X4700000Y-5370000D01*
X4680000Y-5350000D02*
X4720000Y-5350000D01*
X4700000Y-5530000D02*
X4700000Y-5570000D01*
X4680000Y-5550000D02*
X4720000Y-5550000D01*
X4730000Y-8390000D02*
X4730000Y-8430000D01*
X4710000Y-8410000D02*
X4750000Y-8410000D01*
X4750000Y-7730000D02*
X4750000Y-7770000D01*
X4730000Y-7750000D02*
X4770000Y-7750000D01*
X4750000Y-7930000D02*
X4750000Y-7970000D01*
X4730000Y-7950000D02*
X4770000Y-7950000D01*
X4750000Y-8130000D02*
X4750000Y-8170000D01*
X4730000Y-8150000D02*
X4770000Y-8150000D01*
X4800000Y-3580000D02*
X4800000Y-3620000D01*
X4780000Y-3600000D02*
X4820000Y-3600000D01*
X4800000Y-3830000D02*
X4800000Y-3870000D01*
X4780000Y-3850000D02*
X4820000Y-3850000D01*
X4800000Y-5230000D02*
X4800000Y-5270000D01*
X4780000Y-5250000D02*
X4820000Y-5250000D01*
X4800000Y-5430000D02*
X4800000Y-5470000D01*
X4780000Y-5450000D02*
X4820000Y-5450000D01*
X4900000Y-3580000D02*
X4900000Y-3620000D01*
X4880000Y-3600000D02*
X4920000Y-3600000D01*
X4900000Y-5330000D02*
X4900000Y-5370000D01*
X4880000Y-5350000D02*
X4920000Y-5350000D01*
X4900000Y-5530000D02*
X4900000Y-5570000D01*
X4880000Y-5550000D02*
X4920000Y-5550000D01*
X4901408Y-3178592D02*
X4901408Y-3218592D01*
X4881408Y-3198592D02*
X4921408Y-3198592D01*
X4990000Y-7780000D02*
X4990000Y-7820000D01*
X4970000Y-7800000D02*
X5010000Y-7800000D01*
X4990000Y-7980000D02*
X4990000Y-8020000D01*
X4970000Y-8000000D02*
X5010000Y-8000000D01*
X4990000Y-8180000D02*
X4990000Y-8220000D01*
X4970000Y-8200000D02*
X5010000Y-8200000D01*
X5000000Y-3080000D02*
X5000000Y-3120000D01*
X4980000Y-3100000D02*
X5020000Y-3100000D01*
X5015000Y-2630000D02*
X5015000Y-2670000D01*
X4995000Y-2650000D02*
X5035000Y-2650000D01*
X5015000Y-2830000D02*
X5015000Y-2870000D01*
X4995000Y-2850000D02*
X5035000Y-2850000D01*
X5100000Y-3180000D02*
X5100000Y-3220000D01*
X5080000Y-3200000D02*
X5120000Y-3200000D01*
X5115000Y-2530000D02*
X5115000Y-2570000D01*
X5095000Y-2550000D02*
X5135000Y-2550000D01*
X5115000Y-2730000D02*
X5115000Y-2770000D01*
X5095000Y-2750000D02*
X5135000Y-2750000D01*
X5190000Y-7780000D02*
X5190000Y-7820000D01*
X5170000Y-7800000D02*
X5210000Y-7800000D01*
X5190000Y-7980000D02*
X5190000Y-8020000D01*
X5170000Y-8000000D02*
X5210000Y-8000000D01*
X5190000Y-8180000D02*
X5190000Y-8220000D01*
X5170000Y-8200000D02*
X5210000Y-8200000D01*
X5200000Y-3080000D02*
X5200000Y-3120000D01*
X5180000Y-3100000D02*
X5220000Y-3100000D01*
X5300000Y-3180000D02*
X5300000Y-3220000D01*
X5280000Y-3200000D02*
X5320000Y-3200000D01*
X5390000Y-7780000D02*
X5390000Y-7820000D01*
X5370000Y-7800000D02*
X5410000Y-7800000D01*
X5390000Y-7980000D02*
X5390000Y-8020000D01*
X5370000Y-8000000D02*
X5410000Y-8000000D01*
X5390000Y-8180000D02*
X5390000Y-8220000D01*
X5370000Y-8200000D02*
X5410000Y-8200000D01*
X5590000Y-7780000D02*
X5590000Y-7820000D01*
X5570000Y-7800000D02*
X5610000Y-7800000D01*
X5590000Y-7980000D02*
X5590000Y-8020000D01*
X5570000Y-8000000D02*
X5610000Y-8000000D01*
X5590000Y-8180000D02*
X5590000Y-8220000D01*
X5570000Y-8200000D02*
X5610000Y-8200000D01*
X5770000Y-3310000D02*
X5770000Y-3350000D01*
X5750000Y-3330000D02*
X5790000Y-3330000D01*
X5870000Y-3310000D02*
X5870000Y-3350000D01*
X5850000Y-3330000D02*
X5890000Y-3330000D01*
X6225000Y-3310000D02*
X6225000Y-3350000D01*
X6205000Y-3330000D02*
X6245000Y-3330000D01*
X6225000Y-3410000D02*
X6225000Y-3450000D01*
X6205000Y-3430000D02*
X6245000Y-3430000D01*
X6225000Y-3510000D02*
X6225000Y-3550000D01*
X6205000Y-3530000D02*
X6245000Y-3530000D01*
X6225000Y-3610000D02*
X6225000Y-3650000D01*
X6205000Y-3630000D02*
X6245000Y-3630000D01*
X6225000Y-3710000D02*
X6225000Y-3750000D01*
X6205000Y-3730000D02*
X6245000Y-3730000D01*
X6225000Y-3810000D02*
X6225000Y-3850000D01*
X6205000Y-3830000D02*
X6245000Y-3830000D01*
X6520000Y-2670000D02*
X6520000Y-2710000D01*
X6500000Y-2690000D02*
X6540000Y-2690000D01*
X6660000Y-3390000D02*
X6660000Y-3430000D01*
X6640000Y-3410000D02*
X6680000Y-3410000D01*
X6820000Y-3460000D02*
X6820000Y-3500000D01*
X6800000Y-3480000D02*
X6840000Y-3480000D01*
X6820000Y-3660000D02*
X6820000Y-3700000D01*
X6800000Y-3680000D02*
X6840000Y-3680000D01*
X6820000Y-3860000D02*
X6820000Y-3900000D01*
X6800000Y-3880000D02*
X6840000Y-3880000D01*
X6920000Y-3360000D02*
X6920000Y-3400000D01*
X6900000Y-3380000D02*
X6940000Y-3380000D01*
X6920000Y-3560000D02*
X6920000Y-3600000D01*
X6900000Y-3580000D02*
X6940000Y-3580000D01*
X6920000Y-3760000D02*
X6920000Y-3800000D01*
X6900000Y-3780000D02*
X6940000Y-3780000D01*
X7020000Y-3460000D02*
X7020000Y-3500000D01*
X7000000Y-3480000D02*
X7040000Y-3480000D01*
X7020000Y-3660000D02*
X7020000Y-3700000D01*
X7000000Y-3680000D02*
X7040000Y-3680000D01*
X7020000Y-3860000D02*
X7020000Y-3900000D01*
X7000000Y-3880000D02*
X7040000Y-3880000D01*
D15*
X6271427Y-2292677D02*
X6271427Y-2257323D01*
X6236073Y-2257323D01*
X6236073Y-2292677D01*
X6271427Y-2292677D01*
D11*
X6278749Y-2307512D02*
X6278749Y-2242488D01*
X6228751Y-2307512D02*
X6228751Y-2242488D01*
X6278749Y-2242488D02*
G75*
G03*
X6228751Y-2242488I-24999J0D01*
G01*
X6228751Y-2307512D02*
G75*
G03*
X6278749Y-2307512I24999J0D01*
G01*
D15*
X6971427Y-2292677D02*
X6971427Y-2257323D01*
X6936073Y-2257323D01*
X6936073Y-2292677D01*
X6971427Y-2292677D01*
D11*
X6978749Y-2307512D02*
X6978749Y-2242488D01*
X6928751Y-2307512D02*
X6928751Y-2242488D01*
X6978749Y-2242488D02*
G75*
G03*
X6928751Y-2242488I-24999J0D01*
G01*
X6928751Y-2307512D02*
G75*
G03*
X6978749Y-2307512I24999J0D01*
G01*
D16*
X6353750Y-2572501D02*
X6381251Y-2545000D01*
X6353750Y-2517499D01*
X6326249Y-2545000D01*
X6353750Y-2572501D01*
D11*
X6368750Y-2517499D02*
X6338750Y-2517499D01*
X6368750Y-2572501D02*
X6338750Y-2572501D01*
X6338750Y-2517499D02*
G75*
G03*
X6338750Y-2572501I0J-27501D01*
G01*
X6368750Y-2572501D02*
G75*
G03*
X6368750Y-2517499I0J27501D01*
G01*
D16*
X6853750Y-2572501D02*
X6881251Y-2545000D01*
X6853750Y-2517499D01*
X6826249Y-2545000D01*
X6853750Y-2572501D01*
D11*
X6868750Y-2517499D02*
X6838750Y-2517499D01*
X6868750Y-2572501D02*
X6838750Y-2572501D01*
X6838750Y-2517499D02*
G75*
G03*
X6838750Y-2572501I0J-27501D01*
G01*
X6868750Y-2572501D02*
G75*
G03*
X6868750Y-2517499I0J27501D01*
G01*
D17*
X5850003Y-7910003D02*
X5909997Y-7969997D01*
X5909997Y-7910003D02*
X5850003Y-7969997D01*
X5909997Y-7940000D02*
G75*
G03*
X5909997Y-7940000I-29997J0D01*
G01*
X5850003Y-8035003D02*
X5909997Y-8094997D01*
X5909997Y-8035003D02*
X5850003Y-8094997D01*
X5909997Y-8065000D02*
G75*
G03*
X5909997Y-8065000I-29997J0D01*
G01*
D18*
X7480280Y-3524280D02*
X7571720Y-3615720D01*
X7571720Y-3524280D02*
X7480280Y-3615720D01*
X7526000Y-3524280D02*
X7526000Y-3615720D01*
X7480280Y-3570000D02*
X7571720Y-3570000D01*
X7607280Y-3270280D02*
X7698720Y-3361720D01*
X7698720Y-3270280D02*
X7607280Y-3361720D01*
X7653000Y-3270280D02*
X7653000Y-3361720D01*
X7607280Y-3316000D02*
X7698720Y-3316000D01*
X7734280Y-3524280D02*
X7825720Y-3615720D01*
X7825720Y-3524280D02*
X7734280Y-3615720D01*
X7780000Y-3524280D02*
X7780000Y-3615720D01*
X7734280Y-3570000D02*
X7825720Y-3570000D01*
X7861280Y-3270280D02*
X7952720Y-3361720D01*
X7952720Y-3270280D02*
X7861280Y-3361720D01*
X7907000Y-3270280D02*
X7907000Y-3361720D01*
X7861280Y-3316000D02*
X7952720Y-3316000D01*
X7988280Y-3524280D02*
X8079720Y-3615720D01*
X8079720Y-3524280D02*
X7988280Y-3615720D01*
X8034000Y-3524280D02*
X8034000Y-3615720D01*
X7988280Y-3570000D02*
X8079720Y-3570000D01*
X8114280Y-3270280D02*
X8205720Y-3361720D01*
X8205720Y-3270280D02*
X8114280Y-3361720D01*
X8160000Y-3270280D02*
X8160000Y-3361720D01*
X8114280Y-3316000D02*
X8205720Y-3316000D01*
X8242280Y-3524280D02*
X8333720Y-3615720D01*
X8333720Y-3524280D02*
X8242280Y-3615720D01*
X8288000Y-3524280D02*
X8288000Y-3615720D01*
X8242280Y-3570000D02*
X8333720Y-3570000D01*
X8368280Y-3270280D02*
X8459720Y-3361720D01*
X8459720Y-3270280D02*
X8368280Y-3361720D01*
X8414000Y-3270280D02*
X8414000Y-3361720D01*
X8368280Y-3316000D02*
X8459720Y-3316000D01*
D19*
X7570000Y-8980000D02*
X7670000Y-9080000D01*
X7670000Y-8980000D02*
X7570000Y-9080000D01*
X7655356Y-9065356D02*
X7655356Y-8994644D01*
X7584644Y-8994644D01*
X7584644Y-9065356D01*
X7655356Y-9065356D01*
X7570000Y-9480000D02*
X7670000Y-9580000D01*
X7670000Y-9480000D02*
X7570000Y-9580000D01*
X7655356Y-9565356D02*
X7655356Y-9494644D01*
X7584644Y-9494644D01*
X7584644Y-9565356D01*
X7655356Y-9565356D01*
D10*
X2180500Y-3867500D02*
X2280500Y-3967500D01*
X2280500Y-3867500D02*
X2180500Y-3967500D01*
X2230500Y-3967500D02*
X2280500Y-3917500D01*
X2230500Y-3867500D01*
X2180500Y-3917500D01*
X2230500Y-3967500D01*
X2180500Y-4121500D02*
X2280500Y-4221500D01*
X2280500Y-4121500D02*
X2180500Y-4221500D01*
X2230500Y-4221500D02*
X2280500Y-4171500D01*
X2230500Y-4121500D01*
X2180500Y-4171500D01*
X2230500Y-4221500D01*
X2740000Y-2430000D02*
X2840000Y-2530000D01*
X2840000Y-2430000D02*
X2740000Y-2530000D01*
X2790000Y-2530000D02*
X2840000Y-2480000D01*
X2790000Y-2430000D01*
X2740000Y-2480000D01*
X2790000Y-2530000D01*
D11*
X2740000Y-2380000D02*
X2740000Y-2580000D01*
X2840000Y-2380000D02*
X2840000Y-2580000D01*
X2740000Y-2580000D02*
G75*
G03*
X2840000Y-2580000I50000J0D01*
G01*
X2840000Y-2380000D02*
G75*
G03*
X2740000Y-2380000I-50000J0D01*
G01*
D10*
X3040000Y-2900000D02*
X3140000Y-3000000D01*
X3140000Y-2900000D02*
X3040000Y-3000000D01*
X3090000Y-3000000D02*
X3140000Y-2950000D01*
X3090000Y-2900000D01*
X3040000Y-2950000D01*
X3090000Y-3000000D01*
D11*
X2990000Y-3000000D02*
X3190000Y-3000000D01*
X2990000Y-2900000D02*
X3190000Y-2900000D01*
X3190000Y-3000000D02*
G75*
G03*
X3190000Y-2900000I0J50000D01*
G01*
X2990000Y-2900000D02*
G75*
G03*
X2990000Y-3000000I0J-50000D01*
G01*
D10*
X3340000Y-2430000D02*
X3440000Y-2530000D01*
X3440000Y-2430000D02*
X3340000Y-2530000D01*
X3390000Y-2530000D02*
X3440000Y-2480000D01*
X3390000Y-2430000D01*
X3340000Y-2480000D01*
X3390000Y-2530000D01*
D11*
X3340000Y-2380000D02*
X3340000Y-2580000D01*
X3440000Y-2380000D02*
X3440000Y-2580000D01*
X3340000Y-2580000D02*
G75*
G03*
X3440000Y-2580000I50000J0D01*
G01*
X3440000Y-2380000D02*
G75*
G03*
X3340000Y-2380000I-50000J0D01*
G01*
D10*
X4103500Y-8060000D02*
X4203500Y-8160000D01*
X4203500Y-8060000D02*
X4103500Y-8160000D01*
X4153500Y-8160000D02*
X4203500Y-8110000D01*
X4153500Y-8060000D01*
X4103500Y-8110000D01*
X4153500Y-8160000D01*
X4216000Y-4555000D02*
X4316000Y-4655000D01*
X4316000Y-4555000D02*
X4216000Y-4655000D01*
X4266000Y-4655000D02*
X4316000Y-4605000D01*
X4266000Y-4555000D01*
X4216000Y-4605000D01*
X4266000Y-4655000D01*
X4357500Y-8060000D02*
X4457500Y-8160000D01*
X4457500Y-8060000D02*
X4357500Y-8160000D01*
X4407500Y-8160000D02*
X4457500Y-8110000D01*
X4407500Y-8060000D01*
X4357500Y-8110000D01*
X4407500Y-8160000D01*
X4470000Y-4555000D02*
X4570000Y-4655000D01*
X4570000Y-4555000D02*
X4470000Y-4655000D01*
X4520000Y-4655000D02*
X4570000Y-4605000D01*
X4520000Y-4555000D01*
X4470000Y-4605000D01*
X4520000Y-4655000D01*
X4976000Y-4840000D02*
X5076000Y-4940000D01*
X5076000Y-4840000D02*
X4976000Y-4940000D01*
X5026000Y-4940000D02*
X5076000Y-4890000D01*
X5026000Y-4840000D01*
X4976000Y-4890000D01*
X5026000Y-4940000D01*
X5118000Y-2250000D02*
X5218000Y-2350000D01*
X5218000Y-2250000D02*
X5118000Y-2350000D01*
X5168000Y-2350000D02*
X5218000Y-2300000D01*
X5168000Y-2250000D01*
X5118000Y-2300000D01*
X5168000Y-2350000D01*
X5230000Y-4840000D02*
X5330000Y-4940000D01*
X5330000Y-4840000D02*
X5230000Y-4940000D01*
X5280000Y-4940000D02*
X5330000Y-4890000D01*
X5280000Y-4840000D01*
X5230000Y-4890000D01*
X5280000Y-4940000D01*
X5372000Y-2250000D02*
X5472000Y-2350000D01*
X5472000Y-2250000D02*
X5372000Y-2350000D01*
X5422000Y-2350000D02*
X5472000Y-2300000D01*
X5422000Y-2250000D01*
X5372000Y-2300000D01*
X5422000Y-2350000D01*
X5484000Y-4840000D02*
X5584000Y-4940000D01*
X5584000Y-4840000D02*
X5484000Y-4940000D01*
X5534000Y-4940000D02*
X5584000Y-4890000D01*
X5534000Y-4840000D01*
X5484000Y-4890000D01*
X5534000Y-4940000D01*
X5626000Y-2250000D02*
X5726000Y-2350000D01*
X5726000Y-2250000D02*
X5626000Y-2350000D01*
X5676000Y-2350000D02*
X5726000Y-2300000D01*
X5676000Y-2250000D01*
X5626000Y-2300000D01*
X5676000Y-2350000D01*
X5738000Y-4840000D02*
X5838000Y-4940000D01*
X5838000Y-4840000D02*
X5738000Y-4940000D01*
X5788000Y-4940000D02*
X5838000Y-4890000D01*
X5788000Y-4840000D01*
X5738000Y-4890000D01*
X5788000Y-4940000D01*
X5880000Y-2250000D02*
X5980000Y-2350000D01*
X5980000Y-2250000D02*
X5880000Y-2350000D01*
X5930000Y-2350000D02*
X5980000Y-2300000D01*
X5930000Y-2250000D01*
X5880000Y-2300000D01*
X5930000Y-2350000D01*
X5992000Y-4840000D02*
X6092000Y-4940000D01*
X6092000Y-4840000D02*
X5992000Y-4940000D01*
X6042000Y-4940000D02*
X6092000Y-4890000D01*
X6042000Y-4840000D01*
X5992000Y-4890000D01*
X6042000Y-4940000D01*
X8615000Y-7742000D02*
X8715000Y-7842000D01*
X8715000Y-7742000D02*
X8615000Y-7842000D01*
X8665000Y-7842000D02*
X8715000Y-7792000D01*
X8665000Y-7742000D01*
X8615000Y-7792000D01*
X8665000Y-7842000D01*
X8615000Y-7996000D02*
X8715000Y-8096000D01*
X8715000Y-7996000D02*
X8615000Y-8096000D01*
X8665000Y-8096000D02*
X8715000Y-8046000D01*
X8665000Y-7996000D01*
X8615000Y-8046000D01*
X8665000Y-8096000D01*
X8615000Y-8250000D02*
X8715000Y-8350000D01*
X8715000Y-8250000D02*
X8615000Y-8350000D01*
X8665000Y-8350000D02*
X8715000Y-8300000D01*
X8665000Y-8250000D01*
X8615000Y-8300000D01*
X8665000Y-8350000D01*
X8615000Y-8504000D02*
X8715000Y-8604000D01*
X8715000Y-8504000D02*
X8615000Y-8604000D01*
X8665000Y-8604000D02*
X8715000Y-8554000D01*
X8665000Y-8504000D01*
X8615000Y-8554000D01*
X8665000Y-8604000D01*
D20*
X7338000Y-2214999D02*
X7338000Y-2325001D01*
X7282999Y-2270000D02*
X7393001Y-2270000D01*
X7393001Y-2270000D02*
G75*
G03*
X7393001Y-2270000I-55001J0D01*
G01*
X7592000Y-2214999D02*
X7592000Y-2325001D01*
X7536999Y-2270000D02*
X7647001Y-2270000D01*
X7647001Y-2270000D02*
G75*
G03*
X7647001Y-2270000I-55001J0D01*
G01*
X8349000Y-2214999D02*
X8349000Y-2325001D01*
X8293999Y-2270000D02*
X8404001Y-2270000D01*
X8404001Y-2270000D02*
G75*
G03*
X8404001Y-2270000I-55001J0D01*
G01*
X8603000Y-2214999D02*
X8603000Y-2325001D01*
X8547999Y-2270000D02*
X8658001Y-2270000D01*
X8658001Y-2270000D02*
G75*
G03*
X8658001Y-2270000I-55001J0D01*
G01*
D21*
X2727248Y-8649498D02*
X2727248Y-8550502D01*
X2628252Y-8550502D01*
X2628252Y-8649498D01*
X2727248Y-8649498D01*
X2747750Y-8600000D02*
G75*
G03*
X2747750Y-8600000I-70000J0D01*
G01*
X2727248Y-9149498D02*
X2727248Y-9050502D01*
X2628252Y-9050502D01*
X2628252Y-9149498D01*
X2727248Y-9149498D01*
X2747750Y-9100000D02*
G75*
G03*
X2747750Y-9100000I-70000J0D01*
G01*
X2727248Y-9649498D02*
X2727248Y-9550502D01*
X2628252Y-9550502D01*
X2628252Y-9649498D01*
X2727248Y-9649498D01*
X2747750Y-9600000D02*
G75*
G03*
X2747750Y-9600000I-70000J0D01*
G01*
D22*
X7175000Y-3152501D02*
X7256501Y-3071000D01*
X7175000Y-2989499D01*
X7093499Y-3071000D01*
X7175000Y-3152501D01*
X7256501Y-3071000D02*
G75*
G03*
X7256501Y-3071000I-81501J0D01*
G01*
X8765000Y-3152501D02*
X8846501Y-3071000D01*
X8765000Y-2989499D01*
X8683499Y-3071000D01*
X8765000Y-3152501D01*
X8846501Y-3071000D02*
G75*
G03*
X8846501Y-3071000I-81501J0D01*
G01*
D23*
X7399000Y-2521000D02*
X7399000Y-2841000D01*
X7239000Y-2681000D02*
X7559000Y-2681000D01*
X7512138Y-2794138D02*
X7512138Y-2567862D01*
X7285862Y-2567862D01*
X7285862Y-2794138D01*
X7512138Y-2794138D01*
X8542000Y-2521000D02*
X8542000Y-2841000D01*
X8382000Y-2681000D02*
X8702000Y-2681000D01*
X8655138Y-2794138D02*
X8655138Y-2567862D01*
X8428862Y-2567862D01*
X8428862Y-2794138D01*
X8655138Y-2794138D01*
D11*
X2252619Y-10315476D02*
X2252619Y-10115476D01*
X2300238Y-10115476D01*
X2328810Y-10125000D01*
X2347857Y-10144048D01*
X2357381Y-10163095D01*
X2366905Y-10201190D01*
X2366905Y-10229762D01*
X2357381Y-10267857D01*
X2347857Y-10286905D01*
X2328810Y-10305952D01*
X2300238Y-10315476D01*
X2252619Y-10315476D01*
X2452619Y-10315476D02*
X2452619Y-10182143D01*
X2452619Y-10220238D02*
X2462143Y-10201190D01*
X2471667Y-10191667D01*
X2490714Y-10182143D01*
X2509762Y-10182143D01*
X2576429Y-10315476D02*
X2576429Y-10182143D01*
X2576429Y-10115476D02*
X2566905Y-10125000D01*
X2576429Y-10134524D01*
X2585952Y-10125000D01*
X2576429Y-10115476D01*
X2576429Y-10134524D01*
X2700238Y-10315476D02*
X2681190Y-10305952D01*
X2671667Y-10286905D01*
X2671667Y-10115476D01*
X2805000Y-10315476D02*
X2785952Y-10305952D01*
X2776429Y-10286905D01*
X2776429Y-10115476D01*
X3033571Y-10315476D02*
X3033571Y-10115476D01*
X3100238Y-10258333D01*
X3166905Y-10115476D01*
X3166905Y-10315476D01*
X3347857Y-10315476D02*
X3347857Y-10210714D01*
X3338333Y-10191667D01*
X3319286Y-10182143D01*
X3281190Y-10182143D01*
X3262143Y-10191667D01*
X3347857Y-10305952D02*
X3328809Y-10315476D01*
X3281190Y-10315476D01*
X3262143Y-10305952D01*
X3252619Y-10286905D01*
X3252619Y-10267857D01*
X3262143Y-10248810D01*
X3281190Y-10239286D01*
X3328809Y-10239286D01*
X3347857Y-10229762D01*
X3443095Y-10182143D02*
X3443095Y-10382143D01*
X3443095Y-10191667D02*
X3462143Y-10182143D01*
X3500238Y-10182143D01*
X3519286Y-10191667D01*
X3528809Y-10201190D01*
X3538333Y-10220238D01*
X3538333Y-10277381D01*
X3528809Y-10296429D01*
X3519286Y-10305952D01*
X3500238Y-10315476D01*
X3462143Y-10315476D01*
X3443095Y-10305952D01*
X3624048Y-10296429D02*
X3633571Y-10305952D01*
X3624048Y-10315476D01*
X3614524Y-10305952D01*
X3624048Y-10296429D01*
X3624048Y-10315476D01*
X3624048Y-10191667D02*
X3633571Y-10201190D01*
X3624048Y-10210714D01*
X3614524Y-10201190D01*
X3624048Y-10191667D01*
X3624048Y-10210714D01*
D12*
X1975000Y-10635000D02*
X1995000Y-10655000D01*
X1995000Y-10635000D02*
X1975000Y-10655000D01*
D11*
X2290714Y-10535476D02*
X2309762Y-10535476D01*
X2328810Y-10545000D01*
X2338333Y-10554524D01*
X2347857Y-10573571D01*
X2357381Y-10611667D01*
X2357381Y-10659286D01*
X2347857Y-10697381D01*
X2338333Y-10716429D01*
X2328810Y-10725952D01*
X2309762Y-10735476D01*
X2290714Y-10735476D01*
X2271667Y-10725952D01*
X2262143Y-10716429D01*
X2252619Y-10697381D01*
X2243095Y-10659286D01*
X2243095Y-10611667D01*
X2252619Y-10573571D01*
X2262143Y-10554524D01*
X2271667Y-10545000D01*
X2290714Y-10535476D01*
X2443095Y-10716429D02*
X2452619Y-10725952D01*
X2443095Y-10735476D01*
X2433571Y-10725952D01*
X2443095Y-10716429D01*
X2443095Y-10735476D01*
X2528810Y-10554524D02*
X2538333Y-10545000D01*
X2557381Y-10535476D01*
X2605000Y-10535476D01*
X2624048Y-10545000D01*
X2633571Y-10554524D01*
X2643095Y-10573571D01*
X2643095Y-10592619D01*
X2633571Y-10621190D01*
X2519286Y-10735476D01*
X2643095Y-10735476D01*
X2766905Y-10535476D02*
X2785952Y-10535476D01*
X2805000Y-10545000D01*
X2814524Y-10554524D01*
X2824048Y-10573571D01*
X2833571Y-10611667D01*
X2833571Y-10659286D01*
X2824048Y-10697381D01*
X2814524Y-10716429D01*
X2805000Y-10725952D01*
X2785952Y-10735476D01*
X2766905Y-10735476D01*
X2747857Y-10725952D01*
X2738333Y-10716429D01*
X2728810Y-10697381D01*
X2719286Y-10659286D01*
X2719286Y-10611667D01*
X2728810Y-10573571D01*
X2738333Y-10554524D01*
X2747857Y-10545000D01*
X2766905Y-10535476D01*
X2957381Y-10535476D02*
X2976428Y-10535476D01*
X2995476Y-10545000D01*
X3005000Y-10554524D01*
X3014524Y-10573571D01*
X3024048Y-10611667D01*
X3024048Y-10659286D01*
X3014524Y-10697381D01*
X3005000Y-10716429D01*
X2995476Y-10725952D01*
X2976428Y-10735476D01*
X2957381Y-10735476D01*
X2938333Y-10725952D01*
X2928809Y-10716429D01*
X2919286Y-10697381D01*
X2909762Y-10659286D01*
X2909762Y-10611667D01*
X2919286Y-10573571D01*
X2928809Y-10554524D01*
X2938333Y-10545000D01*
X2957381Y-10535476D01*
X3109762Y-10735476D02*
X3109762Y-10602143D01*
X3109762Y-10621190D02*
X3119286Y-10611667D01*
X3138333Y-10602143D01*
X3166905Y-10602143D01*
X3185952Y-10611667D01*
X3195476Y-10630714D01*
X3195476Y-10735476D01*
X3195476Y-10630714D02*
X3205000Y-10611667D01*
X3224048Y-10602143D01*
X3252619Y-10602143D01*
X3271667Y-10611667D01*
X3281190Y-10630714D01*
X3281190Y-10735476D01*
X3376428Y-10735476D02*
X3376428Y-10602143D01*
X3376428Y-10621190D02*
X3385952Y-10611667D01*
X3405000Y-10602143D01*
X3433571Y-10602143D01*
X3452619Y-10611667D01*
X3462143Y-10630714D01*
X3462143Y-10735476D01*
X3462143Y-10630714D02*
X3471667Y-10611667D01*
X3490714Y-10602143D01*
X3519286Y-10602143D01*
X3538333Y-10611667D01*
X3547857Y-10630714D01*
X3547857Y-10735476D01*
X3938333Y-10525952D02*
X3766905Y-10783095D01*
X4195476Y-10535476D02*
X4214524Y-10535476D01*
X4233571Y-10545000D01*
X4243095Y-10554524D01*
X4252619Y-10573571D01*
X4262143Y-10611667D01*
X4262143Y-10659286D01*
X4252619Y-10697381D01*
X4243095Y-10716429D01*
X4233571Y-10725952D01*
X4214524Y-10735476D01*
X4195476Y-10735476D01*
X4176428Y-10725952D01*
X4166905Y-10716429D01*
X4157381Y-10697381D01*
X4147857Y-10659286D01*
X4147857Y-10611667D01*
X4157381Y-10573571D01*
X4166905Y-10554524D01*
X4176428Y-10545000D01*
X4195476Y-10535476D01*
X4347857Y-10716429D02*
X4357381Y-10725952D01*
X4347857Y-10735476D01*
X4338333Y-10725952D01*
X4347857Y-10716429D01*
X4347857Y-10735476D01*
X4481190Y-10535476D02*
X4500238Y-10535476D01*
X4519286Y-10545000D01*
X4528810Y-10554524D01*
X4538333Y-10573571D01*
X4547857Y-10611667D01*
X4547857Y-10659286D01*
X4538333Y-10697381D01*
X4528810Y-10716429D01*
X4519286Y-10725952D01*
X4500238Y-10735476D01*
X4481190Y-10735476D01*
X4462143Y-10725952D01*
X4452619Y-10716429D01*
X4443095Y-10697381D01*
X4433571Y-10659286D01*
X4433571Y-10611667D01*
X4443095Y-10573571D01*
X4452619Y-10554524D01*
X4462143Y-10545000D01*
X4481190Y-10535476D01*
X4671667Y-10535476D02*
X4690714Y-10535476D01*
X4709762Y-10545000D01*
X4719286Y-10554524D01*
X4728810Y-10573571D01*
X4738333Y-10611667D01*
X4738333Y-10659286D01*
X4728810Y-10697381D01*
X4719286Y-10716429D01*
X4709762Y-10725952D01*
X4690714Y-10735476D01*
X4671667Y-10735476D01*
X4652619Y-10725952D01*
X4643095Y-10716429D01*
X4633571Y-10697381D01*
X4624048Y-10659286D01*
X4624048Y-10611667D01*
X4633571Y-10573571D01*
X4643095Y-10554524D01*
X4652619Y-10545000D01*
X4671667Y-10535476D01*
X4805000Y-10535476D02*
X4938333Y-10535476D01*
X4852619Y-10735476D01*
X5024048Y-10735476D02*
X5062143Y-10735476D01*
X5081190Y-10725952D01*
X5090714Y-10716429D01*
X5109762Y-10687857D01*
X5119286Y-10649762D01*
X5119286Y-10573571D01*
X5109762Y-10554524D01*
X5100238Y-10545000D01*
X5081190Y-10535476D01*
X5043095Y-10535476D01*
X5024048Y-10545000D01*
X5014524Y-10554524D01*
X5005000Y-10573571D01*
X5005000Y-10621190D01*
X5014524Y-10640238D01*
X5024048Y-10649762D01*
X5043095Y-10659286D01*
X5081190Y-10659286D01*
X5100238Y-10649762D01*
X5109762Y-10640238D01*
X5119286Y-10621190D01*
X5195476Y-10535476D02*
X5195476Y-10573571D01*
X5271667Y-10535476D02*
X5271667Y-10573571D01*
X5566905Y-10811667D02*
X5557381Y-10802143D01*
X5538333Y-10773571D01*
X5528810Y-10754524D01*
X5519286Y-10725952D01*
X5509762Y-10678333D01*
X5509762Y-10640238D01*
X5519286Y-10592619D01*
X5528810Y-10564048D01*
X5538333Y-10545000D01*
X5557381Y-10516429D01*
X5566905Y-10506905D01*
X5747857Y-10735476D02*
X5633571Y-10735476D01*
X5690714Y-10735476D02*
X5690714Y-10535476D01*
X5671667Y-10564048D01*
X5652619Y-10583095D01*
X5633571Y-10592619D01*
X5814524Y-10535476D02*
X5947857Y-10535476D01*
X5862143Y-10735476D01*
X6062143Y-10535476D02*
X6081190Y-10535476D01*
X6100238Y-10545000D01*
X6109762Y-10554524D01*
X6119286Y-10573571D01*
X6128809Y-10611667D01*
X6128809Y-10659286D01*
X6119286Y-10697381D01*
X6109762Y-10716429D01*
X6100238Y-10725952D01*
X6081190Y-10735476D01*
X6062143Y-10735476D01*
X6043095Y-10725952D01*
X6033571Y-10716429D01*
X6024048Y-10697381D01*
X6014524Y-10659286D01*
X6014524Y-10611667D01*
X6024048Y-10573571D01*
X6033571Y-10554524D01*
X6043095Y-10545000D01*
X6062143Y-10535476D01*
X6366905Y-10735476D02*
X6366905Y-10535476D01*
X6452619Y-10735476D02*
X6452619Y-10630714D01*
X6443095Y-10611667D01*
X6424048Y-10602143D01*
X6395476Y-10602143D01*
X6376428Y-10611667D01*
X6366905Y-10621190D01*
X6576428Y-10735476D02*
X6557381Y-10725952D01*
X6547857Y-10716429D01*
X6538333Y-10697381D01*
X6538333Y-10640238D01*
X6547857Y-10621190D01*
X6557381Y-10611667D01*
X6576428Y-10602143D01*
X6605000Y-10602143D01*
X6624048Y-10611667D01*
X6633571Y-10621190D01*
X6643095Y-10640238D01*
X6643095Y-10697381D01*
X6633571Y-10716429D01*
X6624048Y-10725952D01*
X6605000Y-10735476D01*
X6576428Y-10735476D01*
X6757381Y-10735476D02*
X6738333Y-10725952D01*
X6728809Y-10706905D01*
X6728809Y-10535476D01*
X6909762Y-10725952D02*
X6890714Y-10735476D01*
X6852619Y-10735476D01*
X6833571Y-10725952D01*
X6824048Y-10706905D01*
X6824048Y-10630714D01*
X6833571Y-10611667D01*
X6852619Y-10602143D01*
X6890714Y-10602143D01*
X6909762Y-10611667D01*
X6919286Y-10630714D01*
X6919286Y-10649762D01*
X6824048Y-10668810D01*
X6995476Y-10725952D02*
X7014524Y-10735476D01*
X7052619Y-10735476D01*
X7071667Y-10725952D01*
X7081190Y-10706905D01*
X7081190Y-10697381D01*
X7071667Y-10678333D01*
X7052619Y-10668810D01*
X7024048Y-10668810D01*
X7005000Y-10659286D01*
X6995476Y-10640238D01*
X6995476Y-10630714D01*
X7005000Y-10611667D01*
X7024048Y-10602143D01*
X7052619Y-10602143D01*
X7071667Y-10611667D01*
X7147857Y-10811667D02*
X7157381Y-10802143D01*
X7176428Y-10773571D01*
X7185952Y-10754524D01*
X7195476Y-10725952D01*
X7205000Y-10678333D01*
X7205000Y-10640238D01*
X7195476Y-10592619D01*
X7185952Y-10564048D01*
X7176428Y-10545000D01*
X7157381Y-10516429D01*
X7147857Y-10506905D01*
D13*
X1995000Y-10909000D02*
G75*
G03*
X1995000Y-10909000I-15000J0D01*
G01*
D11*
X2290714Y-10799476D02*
X2309762Y-10799476D01*
X2328810Y-10809000D01*
X2338333Y-10818524D01*
X2347857Y-10837571D01*
X2357381Y-10875667D01*
X2357381Y-10923286D01*
X2347857Y-10961381D01*
X2338333Y-10980429D01*
X2328810Y-10989952D01*
X2309762Y-10999476D01*
X2290714Y-10999476D01*
X2271667Y-10989952D01*
X2262143Y-10980429D01*
X2252619Y-10961381D01*
X2243095Y-10923286D01*
X2243095Y-10875667D01*
X2252619Y-10837571D01*
X2262143Y-10818524D01*
X2271667Y-10809000D01*
X2290714Y-10799476D01*
X2443095Y-10980429D02*
X2452619Y-10989952D01*
X2443095Y-10999476D01*
X2433571Y-10989952D01*
X2443095Y-10980429D01*
X2443095Y-10999476D01*
X2519286Y-10799476D02*
X2643095Y-10799476D01*
X2576429Y-10875667D01*
X2605000Y-10875667D01*
X2624048Y-10885190D01*
X2633571Y-10894714D01*
X2643095Y-10913762D01*
X2643095Y-10961381D01*
X2633571Y-10980429D01*
X2624048Y-10989952D01*
X2605000Y-10999476D01*
X2547857Y-10999476D01*
X2528810Y-10989952D01*
X2519286Y-10980429D01*
X2766905Y-10799476D02*
X2785952Y-10799476D01*
X2805000Y-10809000D01*
X2814524Y-10818524D01*
X2824048Y-10837571D01*
X2833571Y-10875667D01*
X2833571Y-10923286D01*
X2824048Y-10961381D01*
X2814524Y-10980429D01*
X2805000Y-10989952D01*
X2785952Y-10999476D01*
X2766905Y-10999476D01*
X2747857Y-10989952D01*
X2738333Y-10980429D01*
X2728810Y-10961381D01*
X2719286Y-10923286D01*
X2719286Y-10875667D01*
X2728810Y-10837571D01*
X2738333Y-10818524D01*
X2747857Y-10809000D01*
X2766905Y-10799476D01*
X2957381Y-10799476D02*
X2976428Y-10799476D01*
X2995476Y-10809000D01*
X3005000Y-10818524D01*
X3014524Y-10837571D01*
X3024048Y-10875667D01*
X3024048Y-10923286D01*
X3014524Y-10961381D01*
X3005000Y-10980429D01*
X2995476Y-10989952D01*
X2976428Y-10999476D01*
X2957381Y-10999476D01*
X2938333Y-10989952D01*
X2928809Y-10980429D01*
X2919286Y-10961381D01*
X2909762Y-10923286D01*
X2909762Y-10875667D01*
X2919286Y-10837571D01*
X2928809Y-10818524D01*
X2938333Y-10809000D01*
X2957381Y-10799476D01*
X3109762Y-10999476D02*
X3109762Y-10866143D01*
X3109762Y-10885190D02*
X3119286Y-10875667D01*
X3138333Y-10866143D01*
X3166905Y-10866143D01*
X3185952Y-10875667D01*
X3195476Y-10894714D01*
X3195476Y-10999476D01*
X3195476Y-10894714D02*
X3205000Y-10875667D01*
X3224048Y-10866143D01*
X3252619Y-10866143D01*
X3271667Y-10875667D01*
X3281190Y-10894714D01*
X3281190Y-10999476D01*
X3376428Y-10999476D02*
X3376428Y-10866143D01*
X3376428Y-10885190D02*
X3385952Y-10875667D01*
X3405000Y-10866143D01*
X3433571Y-10866143D01*
X3452619Y-10875667D01*
X3462143Y-10894714D01*
X3462143Y-10999476D01*
X3462143Y-10894714D02*
X3471667Y-10875667D01*
X3490714Y-10866143D01*
X3519286Y-10866143D01*
X3538333Y-10875667D01*
X3547857Y-10894714D01*
X3547857Y-10999476D01*
X3938333Y-10789952D02*
X3766905Y-11047095D01*
X4195476Y-10799476D02*
X4214524Y-10799476D01*
X4233571Y-10809000D01*
X4243095Y-10818524D01*
X4252619Y-10837571D01*
X4262143Y-10875667D01*
X4262143Y-10923286D01*
X4252619Y-10961381D01*
X4243095Y-10980429D01*
X4233571Y-10989952D01*
X4214524Y-10999476D01*
X4195476Y-10999476D01*
X4176428Y-10989952D01*
X4166905Y-10980429D01*
X4157381Y-10961381D01*
X4147857Y-10923286D01*
X4147857Y-10875667D01*
X4157381Y-10837571D01*
X4166905Y-10818524D01*
X4176428Y-10809000D01*
X4195476Y-10799476D01*
X4347857Y-10980429D02*
X4357381Y-10989952D01*
X4347857Y-10999476D01*
X4338333Y-10989952D01*
X4347857Y-10980429D01*
X4347857Y-10999476D01*
X4481190Y-10799476D02*
X4500238Y-10799476D01*
X4519286Y-10809000D01*
X4528810Y-10818524D01*
X4538333Y-10837571D01*
X4547857Y-10875667D01*
X4547857Y-10923286D01*
X4538333Y-10961381D01*
X4528810Y-10980429D01*
X4519286Y-10989952D01*
X4500238Y-10999476D01*
X4481190Y-10999476D01*
X4462143Y-10989952D01*
X4452619Y-10980429D01*
X4443095Y-10961381D01*
X4433571Y-10923286D01*
X4433571Y-10875667D01*
X4443095Y-10837571D01*
X4452619Y-10818524D01*
X4462143Y-10809000D01*
X4481190Y-10799476D01*
X4738333Y-10999476D02*
X4624048Y-10999476D01*
X4681190Y-10999476D02*
X4681190Y-10799476D01*
X4662143Y-10828048D01*
X4643095Y-10847095D01*
X4624048Y-10856619D01*
X4928810Y-10999476D02*
X4814524Y-10999476D01*
X4871667Y-10999476D02*
X4871667Y-10799476D01*
X4852619Y-10828048D01*
X4833571Y-10847095D01*
X4814524Y-10856619D01*
X5043095Y-10885190D02*
X5024048Y-10875667D01*
X5014524Y-10866143D01*
X5005000Y-10847095D01*
X5005000Y-10837571D01*
X5014524Y-10818524D01*
X5024048Y-10809000D01*
X5043095Y-10799476D01*
X5081190Y-10799476D01*
X5100238Y-10809000D01*
X5109762Y-10818524D01*
X5119286Y-10837571D01*
X5119286Y-10847095D01*
X5109762Y-10866143D01*
X5100238Y-10875667D01*
X5081190Y-10885190D01*
X5043095Y-10885190D01*
X5024048Y-10894714D01*
X5014524Y-10904238D01*
X5005000Y-10923286D01*
X5005000Y-10961381D01*
X5014524Y-10980429D01*
X5024048Y-10989952D01*
X5043095Y-10999476D01*
X5081190Y-10999476D01*
X5100238Y-10989952D01*
X5109762Y-10980429D01*
X5119286Y-10961381D01*
X5119286Y-10923286D01*
X5109762Y-10904238D01*
X5100238Y-10894714D01*
X5081190Y-10885190D01*
X5195476Y-10799476D02*
X5195476Y-10837571D01*
X5271667Y-10799476D02*
X5271667Y-10837571D01*
X5566905Y-11075667D02*
X5557381Y-11066143D01*
X5538333Y-11037571D01*
X5528810Y-11018524D01*
X5519286Y-10989952D01*
X5509762Y-10942333D01*
X5509762Y-10904238D01*
X5519286Y-10856619D01*
X5528810Y-10828048D01*
X5538333Y-10809000D01*
X5557381Y-10780429D01*
X5566905Y-10770905D01*
X5738333Y-10799476D02*
X5643095Y-10799476D01*
X5633571Y-10894714D01*
X5643095Y-10885190D01*
X5662143Y-10875667D01*
X5709762Y-10875667D01*
X5728809Y-10885190D01*
X5738333Y-10894714D01*
X5747857Y-10913762D01*
X5747857Y-10961381D01*
X5738333Y-10980429D01*
X5728809Y-10989952D01*
X5709762Y-10999476D01*
X5662143Y-10999476D01*
X5643095Y-10989952D01*
X5633571Y-10980429D01*
X5871667Y-10799476D02*
X5890714Y-10799476D01*
X5909762Y-10809000D01*
X5919286Y-10818524D01*
X5928809Y-10837571D01*
X5938333Y-10875667D01*
X5938333Y-10923286D01*
X5928809Y-10961381D01*
X5919286Y-10980429D01*
X5909762Y-10989952D01*
X5890714Y-10999476D01*
X5871667Y-10999476D01*
X5852619Y-10989952D01*
X5843095Y-10980429D01*
X5833571Y-10961381D01*
X5824048Y-10923286D01*
X5824048Y-10875667D01*
X5833571Y-10837571D01*
X5843095Y-10818524D01*
X5852619Y-10809000D01*
X5871667Y-10799476D01*
X6176428Y-10999476D02*
X6176428Y-10799476D01*
X6262143Y-10999476D02*
X6262143Y-10894714D01*
X6252619Y-10875667D01*
X6233571Y-10866143D01*
X6205000Y-10866143D01*
X6185952Y-10875667D01*
X6176428Y-10885190D01*
X6385952Y-10999476D02*
X6366905Y-10989952D01*
X6357381Y-10980429D01*
X6347857Y-10961381D01*
X6347857Y-10904238D01*
X6357381Y-10885190D01*
X6366905Y-10875667D01*
X6385952Y-10866143D01*
X6414524Y-10866143D01*
X6433571Y-10875667D01*
X6443095Y-10885190D01*
X6452619Y-10904238D01*
X6452619Y-10961381D01*
X6443095Y-10980429D01*
X6433571Y-10989952D01*
X6414524Y-10999476D01*
X6385952Y-10999476D01*
X6566905Y-10999476D02*
X6547857Y-10989952D01*
X6538333Y-10970905D01*
X6538333Y-10799476D01*
X6719286Y-10989952D02*
X6700238Y-10999476D01*
X6662143Y-10999476D01*
X6643095Y-10989952D01*
X6633571Y-10970905D01*
X6633571Y-10894714D01*
X6643095Y-10875667D01*
X6662143Y-10866143D01*
X6700238Y-10866143D01*
X6719286Y-10875667D01*
X6728809Y-10894714D01*
X6728809Y-10913762D01*
X6633571Y-10932810D01*
X6805000Y-10989952D02*
X6824048Y-10999476D01*
X6862143Y-10999476D01*
X6881190Y-10989952D01*
X6890714Y-10970905D01*
X6890714Y-10961381D01*
X6881190Y-10942333D01*
X6862143Y-10932810D01*
X6833571Y-10932810D01*
X6814524Y-10923286D01*
X6805000Y-10904238D01*
X6805000Y-10894714D01*
X6814524Y-10875667D01*
X6833571Y-10866143D01*
X6862143Y-10866143D01*
X6881190Y-10875667D01*
X6957381Y-11075667D02*
X6966905Y-11066143D01*
X6985952Y-11037571D01*
X6995476Y-11018524D01*
X7005000Y-10989952D01*
X7014524Y-10942333D01*
X7014524Y-10904238D01*
X7005000Y-10856619D01*
X6995476Y-10828048D01*
X6985952Y-10809000D01*
X6966905Y-10780429D01*
X6957381Y-10770905D01*
D14*
X1975000Y-11153000D02*
X1975000Y-11193000D01*
X1955000Y-11173000D02*
X1995000Y-11173000D01*
D11*
X2290714Y-11063476D02*
X2309762Y-11063476D01*
X2328810Y-11073000D01*
X2338333Y-11082524D01*
X2347857Y-11101571D01*
X2357381Y-11139667D01*
X2357381Y-11187286D01*
X2347857Y-11225381D01*
X2338333Y-11244428D01*
X2328810Y-11253952D01*
X2309762Y-11263476D01*
X2290714Y-11263476D01*
X2271667Y-11253952D01*
X2262143Y-11244428D01*
X2252619Y-11225381D01*
X2243095Y-11187286D01*
X2243095Y-11139667D01*
X2252619Y-11101571D01*
X2262143Y-11082524D01*
X2271667Y-11073000D01*
X2290714Y-11063476D01*
X2443095Y-11244428D02*
X2452619Y-11253952D01*
X2443095Y-11263476D01*
X2433571Y-11253952D01*
X2443095Y-11244428D01*
X2443095Y-11263476D01*
X2624048Y-11130143D02*
X2624048Y-11263476D01*
X2576429Y-11053952D02*
X2528810Y-11196809D01*
X2652619Y-11196809D01*
X2766905Y-11063476D02*
X2785952Y-11063476D01*
X2805000Y-11073000D01*
X2814524Y-11082524D01*
X2824048Y-11101571D01*
X2833571Y-11139667D01*
X2833571Y-11187286D01*
X2824048Y-11225381D01*
X2814524Y-11244428D01*
X2805000Y-11253952D01*
X2785952Y-11263476D01*
X2766905Y-11263476D01*
X2747857Y-11253952D01*
X2738333Y-11244428D01*
X2728810Y-11225381D01*
X2719286Y-11187286D01*
X2719286Y-11139667D01*
X2728810Y-11101571D01*
X2738333Y-11082524D01*
X2747857Y-11073000D01*
X2766905Y-11063476D01*
X2957381Y-11063476D02*
X2976428Y-11063476D01*
X2995476Y-11073000D01*
X3005000Y-11082524D01*
X3014524Y-11101571D01*
X3024048Y-11139667D01*
X3024048Y-11187286D01*
X3014524Y-11225381D01*
X3005000Y-11244428D01*
X2995476Y-11253952D01*
X2976428Y-11263476D01*
X2957381Y-11263476D01*
X2938333Y-11253952D01*
X2928809Y-11244428D01*
X2919286Y-11225381D01*
X2909762Y-11187286D01*
X2909762Y-11139667D01*
X2919286Y-11101571D01*
X2928809Y-11082524D01*
X2938333Y-11073000D01*
X2957381Y-11063476D01*
X3109762Y-11263476D02*
X3109762Y-11130143D01*
X3109762Y-11149190D02*
X3119286Y-11139667D01*
X3138333Y-11130143D01*
X3166905Y-11130143D01*
X3185952Y-11139667D01*
X3195476Y-11158714D01*
X3195476Y-11263476D01*
X3195476Y-11158714D02*
X3205000Y-11139667D01*
X3224048Y-11130143D01*
X3252619Y-11130143D01*
X3271667Y-11139667D01*
X3281190Y-11158714D01*
X3281190Y-11263476D01*
X3376428Y-11263476D02*
X3376428Y-11130143D01*
X3376428Y-11149190D02*
X3385952Y-11139667D01*
X3405000Y-11130143D01*
X3433571Y-11130143D01*
X3452619Y-11139667D01*
X3462143Y-11158714D01*
X3462143Y-11263476D01*
X3462143Y-11158714D02*
X3471667Y-11139667D01*
X3490714Y-11130143D01*
X3519286Y-11130143D01*
X3538333Y-11139667D01*
X3547857Y-11158714D01*
X3547857Y-11263476D01*
X3938333Y-11053952D02*
X3766905Y-11311095D01*
X4195476Y-11063476D02*
X4214524Y-11063476D01*
X4233571Y-11073000D01*
X4243095Y-11082524D01*
X4252619Y-11101571D01*
X4262143Y-11139667D01*
X4262143Y-11187286D01*
X4252619Y-11225381D01*
X4243095Y-11244428D01*
X4233571Y-11253952D01*
X4214524Y-11263476D01*
X4195476Y-11263476D01*
X4176428Y-11253952D01*
X4166905Y-11244428D01*
X4157381Y-11225381D01*
X4147857Y-11187286D01*
X4147857Y-11139667D01*
X4157381Y-11101571D01*
X4166905Y-11082524D01*
X4176428Y-11073000D01*
X4195476Y-11063476D01*
X4347857Y-11244428D02*
X4357381Y-11253952D01*
X4347857Y-11263476D01*
X4338333Y-11253952D01*
X4347857Y-11244428D01*
X4347857Y-11263476D01*
X4481190Y-11063476D02*
X4500238Y-11063476D01*
X4519286Y-11073000D01*
X4528810Y-11082524D01*
X4538333Y-11101571D01*
X4547857Y-11139667D01*
X4547857Y-11187286D01*
X4538333Y-11225381D01*
X4528810Y-11244428D01*
X4519286Y-11253952D01*
X4500238Y-11263476D01*
X4481190Y-11263476D01*
X4462143Y-11253952D01*
X4452619Y-11244428D01*
X4443095Y-11225381D01*
X4433571Y-11187286D01*
X4433571Y-11139667D01*
X4443095Y-11101571D01*
X4452619Y-11082524D01*
X4462143Y-11073000D01*
X4481190Y-11063476D01*
X4738333Y-11263476D02*
X4624048Y-11263476D01*
X4681190Y-11263476D02*
X4681190Y-11063476D01*
X4662143Y-11092048D01*
X4643095Y-11111095D01*
X4624048Y-11120619D01*
X4919286Y-11063476D02*
X4824048Y-11063476D01*
X4814524Y-11158714D01*
X4824048Y-11149190D01*
X4843095Y-11139667D01*
X4890714Y-11139667D01*
X4909762Y-11149190D01*
X4919286Y-11158714D01*
X4928810Y-11177762D01*
X4928810Y-11225381D01*
X4919286Y-11244428D01*
X4909762Y-11253952D01*
X4890714Y-11263476D01*
X4843095Y-11263476D01*
X4824048Y-11253952D01*
X4814524Y-11244428D01*
X4995476Y-11063476D02*
X5128810Y-11063476D01*
X5043095Y-11263476D01*
X5195476Y-11063476D02*
X5195476Y-11101571D01*
X5271667Y-11063476D02*
X5271667Y-11101571D01*
X5566905Y-11339667D02*
X5557381Y-11330143D01*
X5538333Y-11301571D01*
X5528810Y-11282524D01*
X5519286Y-11253952D01*
X5509762Y-11206333D01*
X5509762Y-11168238D01*
X5519286Y-11120619D01*
X5528810Y-11092048D01*
X5538333Y-11073000D01*
X5557381Y-11044429D01*
X5566905Y-11034905D01*
X5747857Y-11263476D02*
X5633571Y-11263476D01*
X5690714Y-11263476D02*
X5690714Y-11063476D01*
X5671667Y-11092048D01*
X5652619Y-11111095D01*
X5633571Y-11120619D01*
X5938333Y-11263476D02*
X5824048Y-11263476D01*
X5881190Y-11263476D02*
X5881190Y-11063476D01*
X5862143Y-11092048D01*
X5843095Y-11111095D01*
X5824048Y-11120619D01*
X6033571Y-11263476D02*
X6071667Y-11263476D01*
X6090714Y-11253952D01*
X6100238Y-11244428D01*
X6119286Y-11215857D01*
X6128809Y-11177762D01*
X6128809Y-11101571D01*
X6119286Y-11082524D01*
X6109762Y-11073000D01*
X6090714Y-11063476D01*
X6052619Y-11063476D01*
X6033571Y-11073000D01*
X6024048Y-11082524D01*
X6014524Y-11101571D01*
X6014524Y-11149190D01*
X6024048Y-11168238D01*
X6033571Y-11177762D01*
X6052619Y-11187286D01*
X6090714Y-11187286D01*
X6109762Y-11177762D01*
X6119286Y-11168238D01*
X6128809Y-11149190D01*
X6366905Y-11263476D02*
X6366905Y-11063476D01*
X6452619Y-11263476D02*
X6452619Y-11158714D01*
X6443095Y-11139667D01*
X6424048Y-11130143D01*
X6395476Y-11130143D01*
X6376428Y-11139667D01*
X6366905Y-11149190D01*
X6576428Y-11263476D02*
X6557381Y-11253952D01*
X6547857Y-11244428D01*
X6538333Y-11225381D01*
X6538333Y-11168238D01*
X6547857Y-11149190D01*
X6557381Y-11139667D01*
X6576428Y-11130143D01*
X6605000Y-11130143D01*
X6624048Y-11139667D01*
X6633571Y-11149190D01*
X6643095Y-11168238D01*
X6643095Y-11225381D01*
X6633571Y-11244428D01*
X6624048Y-11253952D01*
X6605000Y-11263476D01*
X6576428Y-11263476D01*
X6757381Y-11263476D02*
X6738333Y-11253952D01*
X6728809Y-11234905D01*
X6728809Y-11063476D01*
X6909762Y-11253952D02*
X6890714Y-11263476D01*
X6852619Y-11263476D01*
X6833571Y-11253952D01*
X6824048Y-11234905D01*
X6824048Y-11158714D01*
X6833571Y-11139667D01*
X6852619Y-11130143D01*
X6890714Y-11130143D01*
X6909762Y-11139667D01*
X6919286Y-11158714D01*
X6919286Y-11177762D01*
X6824048Y-11196809D01*
X6995476Y-11253952D02*
X7014524Y-11263476D01*
X7052619Y-11263476D01*
X7071667Y-11253952D01*
X7081190Y-11234905D01*
X7081190Y-11225381D01*
X7071667Y-11206333D01*
X7052619Y-11196809D01*
X7024048Y-11196809D01*
X7005000Y-11187286D01*
X6995476Y-11168238D01*
X6995476Y-11158714D01*
X7005000Y-11139667D01*
X7024048Y-11130143D01*
X7052619Y-11130143D01*
X7071667Y-11139667D01*
X7147857Y-11339667D02*
X7157381Y-11330143D01*
X7176428Y-11301571D01*
X7185952Y-11282524D01*
X7195476Y-11253952D01*
X7205000Y-11206333D01*
X7205000Y-11168238D01*
X7195476Y-11120619D01*
X7185952Y-11092048D01*
X7176428Y-11073000D01*
X7157381Y-11044429D01*
X7147857Y-11034905D01*
D15*
X1987678Y-11454677D02*
X1987678Y-11419323D01*
X1952324Y-11419323D01*
X1952324Y-11454677D01*
X1987678Y-11454677D01*
D11*
X2290714Y-11327476D02*
X2309762Y-11327476D01*
X2328810Y-11337000D01*
X2338333Y-11346524D01*
X2347857Y-11365571D01*
X2357381Y-11403667D01*
X2357381Y-11451286D01*
X2347857Y-11489381D01*
X2338333Y-11508428D01*
X2328810Y-11517952D01*
X2309762Y-11527476D01*
X2290714Y-11527476D01*
X2271667Y-11517952D01*
X2262143Y-11508428D01*
X2252619Y-11489381D01*
X2243095Y-11451286D01*
X2243095Y-11403667D01*
X2252619Y-11365571D01*
X2262143Y-11346524D01*
X2271667Y-11337000D01*
X2290714Y-11327476D01*
X2443095Y-11508428D02*
X2452619Y-11517952D01*
X2443095Y-11527476D01*
X2433571Y-11517952D01*
X2443095Y-11508428D01*
X2443095Y-11527476D01*
X2633571Y-11327476D02*
X2538333Y-11327476D01*
X2528810Y-11422714D01*
X2538333Y-11413190D01*
X2557381Y-11403667D01*
X2605000Y-11403667D01*
X2624048Y-11413190D01*
X2633571Y-11422714D01*
X2643095Y-11441762D01*
X2643095Y-11489381D01*
X2633571Y-11508428D01*
X2624048Y-11517952D01*
X2605000Y-11527476D01*
X2557381Y-11527476D01*
X2538333Y-11517952D01*
X2528810Y-11508428D01*
X2766905Y-11327476D02*
X2785952Y-11327476D01*
X2805000Y-11337000D01*
X2814524Y-11346524D01*
X2824048Y-11365571D01*
X2833571Y-11403667D01*
X2833571Y-11451286D01*
X2824048Y-11489381D01*
X2814524Y-11508428D01*
X2805000Y-11517952D01*
X2785952Y-11527476D01*
X2766905Y-11527476D01*
X2747857Y-11517952D01*
X2738333Y-11508428D01*
X2728810Y-11489381D01*
X2719286Y-11451286D01*
X2719286Y-11403667D01*
X2728810Y-11365571D01*
X2738333Y-11346524D01*
X2747857Y-11337000D01*
X2766905Y-11327476D01*
X2957381Y-11327476D02*
X2976428Y-11327476D01*
X2995476Y-11337000D01*
X3005000Y-11346524D01*
X3014524Y-11365571D01*
X3024048Y-11403667D01*
X3024048Y-11451286D01*
X3014524Y-11489381D01*
X3005000Y-11508428D01*
X2995476Y-11517952D01*
X2976428Y-11527476D01*
X2957381Y-11527476D01*
X2938333Y-11517952D01*
X2928809Y-11508428D01*
X2919286Y-11489381D01*
X2909762Y-11451286D01*
X2909762Y-11403667D01*
X2919286Y-11365571D01*
X2928809Y-11346524D01*
X2938333Y-11337000D01*
X2957381Y-11327476D01*
X3109762Y-11527476D02*
X3109762Y-11394143D01*
X3109762Y-11413190D02*
X3119286Y-11403667D01*
X3138333Y-11394143D01*
X3166905Y-11394143D01*
X3185952Y-11403667D01*
X3195476Y-11422714D01*
X3195476Y-11527476D01*
X3195476Y-11422714D02*
X3205000Y-11403667D01*
X3224048Y-11394143D01*
X3252619Y-11394143D01*
X3271667Y-11403667D01*
X3281190Y-11422714D01*
X3281190Y-11527476D01*
X3376428Y-11527476D02*
X3376428Y-11394143D01*
X3376428Y-11413190D02*
X3385952Y-11403667D01*
X3405000Y-11394143D01*
X3433571Y-11394143D01*
X3452619Y-11403667D01*
X3462143Y-11422714D01*
X3462143Y-11527476D01*
X3462143Y-11422714D02*
X3471667Y-11403667D01*
X3490714Y-11394143D01*
X3519286Y-11394143D01*
X3538333Y-11403667D01*
X3547857Y-11422714D01*
X3547857Y-11527476D01*
X3938333Y-11317952D02*
X3766905Y-11575095D01*
X4195476Y-11327476D02*
X4214524Y-11327476D01*
X4233571Y-11337000D01*
X4243095Y-11346524D01*
X4252619Y-11365571D01*
X4262143Y-11403667D01*
X4262143Y-11451286D01*
X4252619Y-11489381D01*
X4243095Y-11508428D01*
X4233571Y-11517952D01*
X4214524Y-11527476D01*
X4195476Y-11527476D01*
X4176428Y-11517952D01*
X4166905Y-11508428D01*
X4157381Y-11489381D01*
X4147857Y-11451286D01*
X4147857Y-11403667D01*
X4157381Y-11365571D01*
X4166905Y-11346524D01*
X4176428Y-11337000D01*
X4195476Y-11327476D01*
X4347857Y-11508428D02*
X4357381Y-11517952D01*
X4347857Y-11527476D01*
X4338333Y-11517952D01*
X4347857Y-11508428D01*
X4347857Y-11527476D01*
X4481190Y-11327476D02*
X4500238Y-11327476D01*
X4519286Y-11337000D01*
X4528810Y-11346524D01*
X4538333Y-11365571D01*
X4547857Y-11403667D01*
X4547857Y-11451286D01*
X4538333Y-11489381D01*
X4528810Y-11508428D01*
X4519286Y-11517952D01*
X4500238Y-11527476D01*
X4481190Y-11527476D01*
X4462143Y-11517952D01*
X4452619Y-11508428D01*
X4443095Y-11489381D01*
X4433571Y-11451286D01*
X4433571Y-11403667D01*
X4443095Y-11365571D01*
X4452619Y-11346524D01*
X4462143Y-11337000D01*
X4481190Y-11327476D01*
X4738333Y-11527476D02*
X4624048Y-11527476D01*
X4681190Y-11527476D02*
X4681190Y-11327476D01*
X4662143Y-11356048D01*
X4643095Y-11375095D01*
X4624048Y-11384619D01*
X4833571Y-11527476D02*
X4871667Y-11527476D01*
X4890714Y-11517952D01*
X4900238Y-11508428D01*
X4919286Y-11479857D01*
X4928810Y-11441762D01*
X4928810Y-11365571D01*
X4919286Y-11346524D01*
X4909762Y-11337000D01*
X4890714Y-11327476D01*
X4852619Y-11327476D01*
X4833571Y-11337000D01*
X4824048Y-11346524D01*
X4814524Y-11365571D01*
X4814524Y-11413190D01*
X4824048Y-11432238D01*
X4833571Y-11441762D01*
X4852619Y-11451286D01*
X4890714Y-11451286D01*
X4909762Y-11441762D01*
X4919286Y-11432238D01*
X4928810Y-11413190D01*
X4995476Y-11327476D02*
X5128810Y-11327476D01*
X5043095Y-11527476D01*
X5195476Y-11327476D02*
X5195476Y-11365571D01*
X5271667Y-11327476D02*
X5271667Y-11365571D01*
X5566905Y-11603667D02*
X5557381Y-11594143D01*
X5538333Y-11565571D01*
X5528810Y-11546524D01*
X5519286Y-11517952D01*
X5509762Y-11470333D01*
X5509762Y-11432238D01*
X5519286Y-11384619D01*
X5528810Y-11356048D01*
X5538333Y-11337000D01*
X5557381Y-11308428D01*
X5566905Y-11298905D01*
X5681190Y-11327476D02*
X5700238Y-11327476D01*
X5719286Y-11337000D01*
X5728809Y-11346524D01*
X5738333Y-11365571D01*
X5747857Y-11403667D01*
X5747857Y-11451286D01*
X5738333Y-11489381D01*
X5728809Y-11508428D01*
X5719286Y-11517952D01*
X5700238Y-11527476D01*
X5681190Y-11527476D01*
X5662143Y-11517952D01*
X5652619Y-11508428D01*
X5643095Y-11489381D01*
X5633571Y-11451286D01*
X5633571Y-11403667D01*
X5643095Y-11365571D01*
X5652619Y-11346524D01*
X5662143Y-11337000D01*
X5681190Y-11327476D01*
X5985952Y-11527476D02*
X5985952Y-11327476D01*
X6071667Y-11527476D02*
X6071667Y-11422714D01*
X6062143Y-11403667D01*
X6043095Y-11394143D01*
X6014524Y-11394143D01*
X5995476Y-11403667D01*
X5985952Y-11413190D01*
X6195476Y-11527476D02*
X6176428Y-11517952D01*
X6166905Y-11508428D01*
X6157381Y-11489381D01*
X6157381Y-11432238D01*
X6166905Y-11413190D01*
X6176428Y-11403667D01*
X6195476Y-11394143D01*
X6224048Y-11394143D01*
X6243095Y-11403667D01*
X6252619Y-11413190D01*
X6262143Y-11432238D01*
X6262143Y-11489381D01*
X6252619Y-11508428D01*
X6243095Y-11517952D01*
X6224048Y-11527476D01*
X6195476Y-11527476D01*
X6376428Y-11527476D02*
X6357381Y-11517952D01*
X6347857Y-11498905D01*
X6347857Y-11327476D01*
X6528809Y-11517952D02*
X6509762Y-11527476D01*
X6471667Y-11527476D01*
X6452619Y-11517952D01*
X6443095Y-11498905D01*
X6443095Y-11422714D01*
X6452619Y-11403667D01*
X6471667Y-11394143D01*
X6509762Y-11394143D01*
X6528809Y-11403667D01*
X6538333Y-11422714D01*
X6538333Y-11441762D01*
X6443095Y-11460809D01*
X6614524Y-11517952D02*
X6633571Y-11527476D01*
X6671667Y-11527476D01*
X6690714Y-11517952D01*
X6700238Y-11498905D01*
X6700238Y-11489381D01*
X6690714Y-11470333D01*
X6671667Y-11460809D01*
X6643095Y-11460809D01*
X6624048Y-11451286D01*
X6614524Y-11432238D01*
X6614524Y-11422714D01*
X6624048Y-11403667D01*
X6643095Y-11394143D01*
X6671667Y-11394143D01*
X6690714Y-11403667D01*
X6938333Y-11451286D02*
X7090714Y-11451286D01*
X7014524Y-11527476D02*
X7014524Y-11375095D01*
X7328809Y-11346524D02*
X7338333Y-11337000D01*
X7357381Y-11327476D01*
X7405000Y-11327476D01*
X7424048Y-11337000D01*
X7433571Y-11346524D01*
X7443095Y-11365571D01*
X7443095Y-11384619D01*
X7433571Y-11413190D01*
X7319286Y-11527476D01*
X7443095Y-11527476D01*
X7671667Y-11517952D02*
X7690714Y-11527476D01*
X7728809Y-11527476D01*
X7747857Y-11517952D01*
X7757381Y-11498905D01*
X7757381Y-11489381D01*
X7747857Y-11470333D01*
X7728809Y-11460809D01*
X7700238Y-11460809D01*
X7681190Y-11451286D01*
X7671667Y-11432238D01*
X7671667Y-11422714D01*
X7681190Y-11403667D01*
X7700238Y-11394143D01*
X7728809Y-11394143D01*
X7747857Y-11403667D01*
X7871667Y-11527476D02*
X7852619Y-11517952D01*
X7843095Y-11498905D01*
X7843095Y-11327476D01*
X7976428Y-11527476D02*
X7957381Y-11517952D01*
X7947857Y-11508428D01*
X7938333Y-11489381D01*
X7938333Y-11432238D01*
X7947857Y-11413190D01*
X7957381Y-11403667D01*
X7976428Y-11394143D01*
X8005000Y-11394143D01*
X8024048Y-11403667D01*
X8033571Y-11413190D01*
X8043095Y-11432238D01*
X8043095Y-11489381D01*
X8033571Y-11508428D01*
X8024048Y-11517952D01*
X8005000Y-11527476D01*
X7976428Y-11527476D01*
X8100238Y-11394143D02*
X8176428Y-11394143D01*
X8128809Y-11327476D02*
X8128809Y-11498905D01*
X8138333Y-11517952D01*
X8157381Y-11527476D01*
X8176428Y-11527476D01*
X8233571Y-11517952D02*
X8252619Y-11527476D01*
X8290714Y-11527476D01*
X8309762Y-11517952D01*
X8319286Y-11498905D01*
X8319286Y-11489381D01*
X8309762Y-11470333D01*
X8290714Y-11460809D01*
X8262143Y-11460809D01*
X8243095Y-11451286D01*
X8233571Y-11432238D01*
X8233571Y-11422714D01*
X8243095Y-11403667D01*
X8262143Y-11394143D01*
X8290714Y-11394143D01*
X8309762Y-11403667D01*
X8385952Y-11603667D02*
X8395476Y-11594143D01*
X8414524Y-11565571D01*
X8424048Y-11546524D01*
X8433571Y-11517952D01*
X8443095Y-11470333D01*
X8443095Y-11432238D01*
X8433571Y-11384619D01*
X8424048Y-11356048D01*
X8414524Y-11337000D01*
X8395476Y-11308428D01*
X8385952Y-11298905D01*
D16*
X1967499Y-11728501D02*
X1995000Y-11701000D01*
X1967499Y-11673499D01*
X1939999Y-11701000D01*
X1967499Y-11728501D01*
D11*
X2290714Y-11591476D02*
X2309762Y-11591476D01*
X2328810Y-11601000D01*
X2338333Y-11610524D01*
X2347857Y-11629571D01*
X2357381Y-11667667D01*
X2357381Y-11715286D01*
X2347857Y-11753381D01*
X2338333Y-11772428D01*
X2328810Y-11781952D01*
X2309762Y-11791476D01*
X2290714Y-11791476D01*
X2271667Y-11781952D01*
X2262143Y-11772428D01*
X2252619Y-11753381D01*
X2243095Y-11715286D01*
X2243095Y-11667667D01*
X2252619Y-11629571D01*
X2262143Y-11610524D01*
X2271667Y-11601000D01*
X2290714Y-11591476D01*
X2443095Y-11772428D02*
X2452619Y-11781952D01*
X2443095Y-11791476D01*
X2433571Y-11781952D01*
X2443095Y-11772428D01*
X2443095Y-11791476D01*
X2633571Y-11591476D02*
X2538333Y-11591476D01*
X2528810Y-11686714D01*
X2538333Y-11677190D01*
X2557381Y-11667667D01*
X2605000Y-11667667D01*
X2624048Y-11677190D01*
X2633571Y-11686714D01*
X2643095Y-11705762D01*
X2643095Y-11753381D01*
X2633571Y-11772428D01*
X2624048Y-11781952D01*
X2605000Y-11791476D01*
X2557381Y-11791476D01*
X2538333Y-11781952D01*
X2528810Y-11772428D01*
X2824048Y-11591476D02*
X2728810Y-11591476D01*
X2719286Y-11686714D01*
X2728810Y-11677190D01*
X2747857Y-11667667D01*
X2795476Y-11667667D01*
X2814524Y-11677190D01*
X2824048Y-11686714D01*
X2833571Y-11705762D01*
X2833571Y-11753381D01*
X2824048Y-11772428D01*
X2814524Y-11781952D01*
X2795476Y-11791476D01*
X2747857Y-11791476D01*
X2728810Y-11781952D01*
X2719286Y-11772428D01*
X2957381Y-11591476D02*
X2976428Y-11591476D01*
X2995476Y-11601000D01*
X3005000Y-11610524D01*
X3014524Y-11629571D01*
X3024048Y-11667667D01*
X3024048Y-11715286D01*
X3014524Y-11753381D01*
X3005000Y-11772428D01*
X2995476Y-11781952D01*
X2976428Y-11791476D01*
X2957381Y-11791476D01*
X2938333Y-11781952D01*
X2928809Y-11772428D01*
X2919286Y-11753381D01*
X2909762Y-11715286D01*
X2909762Y-11667667D01*
X2919286Y-11629571D01*
X2928809Y-11610524D01*
X2938333Y-11601000D01*
X2957381Y-11591476D01*
X3109762Y-11791476D02*
X3109762Y-11658143D01*
X3109762Y-11677190D02*
X3119286Y-11667667D01*
X3138333Y-11658143D01*
X3166905Y-11658143D01*
X3185952Y-11667667D01*
X3195476Y-11686714D01*
X3195476Y-11791476D01*
X3195476Y-11686714D02*
X3205000Y-11667667D01*
X3224048Y-11658143D01*
X3252619Y-11658143D01*
X3271667Y-11667667D01*
X3281190Y-11686714D01*
X3281190Y-11791476D01*
X3376428Y-11791476D02*
X3376428Y-11658143D01*
X3376428Y-11677190D02*
X3385952Y-11667667D01*
X3405000Y-11658143D01*
X3433571Y-11658143D01*
X3452619Y-11667667D01*
X3462143Y-11686714D01*
X3462143Y-11791476D01*
X3462143Y-11686714D02*
X3471667Y-11667667D01*
X3490714Y-11658143D01*
X3519286Y-11658143D01*
X3538333Y-11667667D01*
X3547857Y-11686714D01*
X3547857Y-11791476D01*
X3938333Y-11581952D02*
X3766905Y-11839095D01*
X4195476Y-11591476D02*
X4214524Y-11591476D01*
X4233571Y-11601000D01*
X4243095Y-11610524D01*
X4252619Y-11629571D01*
X4262143Y-11667667D01*
X4262143Y-11715286D01*
X4252619Y-11753381D01*
X4243095Y-11772428D01*
X4233571Y-11781952D01*
X4214524Y-11791476D01*
X4195476Y-11791476D01*
X4176428Y-11781952D01*
X4166905Y-11772428D01*
X4157381Y-11753381D01*
X4147857Y-11715286D01*
X4147857Y-11667667D01*
X4157381Y-11629571D01*
X4166905Y-11610524D01*
X4176428Y-11601000D01*
X4195476Y-11591476D01*
X4347857Y-11772428D02*
X4357381Y-11781952D01*
X4347857Y-11791476D01*
X4338333Y-11781952D01*
X4347857Y-11772428D01*
X4347857Y-11791476D01*
X4481190Y-11591476D02*
X4500238Y-11591476D01*
X4519286Y-11601000D01*
X4528810Y-11610524D01*
X4538333Y-11629571D01*
X4547857Y-11667667D01*
X4547857Y-11715286D01*
X4538333Y-11753381D01*
X4528810Y-11772428D01*
X4519286Y-11781952D01*
X4500238Y-11791476D01*
X4481190Y-11791476D01*
X4462143Y-11781952D01*
X4452619Y-11772428D01*
X4443095Y-11753381D01*
X4433571Y-11715286D01*
X4433571Y-11667667D01*
X4443095Y-11629571D01*
X4452619Y-11610524D01*
X4462143Y-11601000D01*
X4481190Y-11591476D01*
X4624048Y-11610524D02*
X4633571Y-11601000D01*
X4652619Y-11591476D01*
X4700238Y-11591476D01*
X4719286Y-11601000D01*
X4728810Y-11610524D01*
X4738333Y-11629571D01*
X4738333Y-11648619D01*
X4728810Y-11677190D01*
X4614524Y-11791476D01*
X4738333Y-11791476D01*
X4928810Y-11791476D02*
X4814524Y-11791476D01*
X4871667Y-11791476D02*
X4871667Y-11591476D01*
X4852619Y-11620048D01*
X4833571Y-11639095D01*
X4814524Y-11648619D01*
X4995476Y-11591476D02*
X5128810Y-11591476D01*
X5043095Y-11791476D01*
X5195476Y-11591476D02*
X5195476Y-11629571D01*
X5271667Y-11591476D02*
X5271667Y-11629571D01*
X5566905Y-11867667D02*
X5557381Y-11858143D01*
X5538333Y-11829571D01*
X5528810Y-11810524D01*
X5519286Y-11781952D01*
X5509762Y-11734333D01*
X5509762Y-11696238D01*
X5519286Y-11648619D01*
X5528810Y-11620048D01*
X5538333Y-11601000D01*
X5557381Y-11572428D01*
X5566905Y-11562905D01*
X5681190Y-11591476D02*
X5700238Y-11591476D01*
X5719286Y-11601000D01*
X5728809Y-11610524D01*
X5738333Y-11629571D01*
X5747857Y-11667667D01*
X5747857Y-11715286D01*
X5738333Y-11753381D01*
X5728809Y-11772428D01*
X5719286Y-11781952D01*
X5700238Y-11791476D01*
X5681190Y-11791476D01*
X5662143Y-11781952D01*
X5652619Y-11772428D01*
X5643095Y-11753381D01*
X5633571Y-11715286D01*
X5633571Y-11667667D01*
X5643095Y-11629571D01*
X5652619Y-11610524D01*
X5662143Y-11601000D01*
X5681190Y-11591476D01*
X5985952Y-11791476D02*
X5985952Y-11591476D01*
X6071667Y-11791476D02*
X6071667Y-11686714D01*
X6062143Y-11667667D01*
X6043095Y-11658143D01*
X6014524Y-11658143D01*
X5995476Y-11667667D01*
X5985952Y-11677190D01*
X6195476Y-11791476D02*
X6176428Y-11781952D01*
X6166905Y-11772428D01*
X6157381Y-11753381D01*
X6157381Y-11696238D01*
X6166905Y-11677190D01*
X6176428Y-11667667D01*
X6195476Y-11658143D01*
X6224048Y-11658143D01*
X6243095Y-11667667D01*
X6252619Y-11677190D01*
X6262143Y-11696238D01*
X6262143Y-11753381D01*
X6252619Y-11772428D01*
X6243095Y-11781952D01*
X6224048Y-11791476D01*
X6195476Y-11791476D01*
X6376428Y-11791476D02*
X6357381Y-11781952D01*
X6347857Y-11762905D01*
X6347857Y-11591476D01*
X6528809Y-11781952D02*
X6509762Y-11791476D01*
X6471667Y-11791476D01*
X6452619Y-11781952D01*
X6443095Y-11762905D01*
X6443095Y-11686714D01*
X6452619Y-11667667D01*
X6471667Y-11658143D01*
X6509762Y-11658143D01*
X6528809Y-11667667D01*
X6538333Y-11686714D01*
X6538333Y-11705762D01*
X6443095Y-11724809D01*
X6614524Y-11781952D02*
X6633571Y-11791476D01*
X6671667Y-11791476D01*
X6690714Y-11781952D01*
X6700238Y-11762905D01*
X6700238Y-11753381D01*
X6690714Y-11734333D01*
X6671667Y-11724809D01*
X6643095Y-11724809D01*
X6624048Y-11715286D01*
X6614524Y-11696238D01*
X6614524Y-11686714D01*
X6624048Y-11667667D01*
X6643095Y-11658143D01*
X6671667Y-11658143D01*
X6690714Y-11667667D01*
X6938333Y-11715286D02*
X7090714Y-11715286D01*
X7014524Y-11791476D02*
X7014524Y-11639095D01*
X7328809Y-11610524D02*
X7338333Y-11601000D01*
X7357381Y-11591476D01*
X7405000Y-11591476D01*
X7424048Y-11601000D01*
X7433571Y-11610524D01*
X7443095Y-11629571D01*
X7443095Y-11648619D01*
X7433571Y-11677190D01*
X7319286Y-11791476D01*
X7443095Y-11791476D01*
X7671667Y-11781952D02*
X7690714Y-11791476D01*
X7728809Y-11791476D01*
X7747857Y-11781952D01*
X7757381Y-11762905D01*
X7757381Y-11753381D01*
X7747857Y-11734333D01*
X7728809Y-11724809D01*
X7700238Y-11724809D01*
X7681190Y-11715286D01*
X7671667Y-11696238D01*
X7671667Y-11686714D01*
X7681190Y-11667667D01*
X7700238Y-11658143D01*
X7728809Y-11658143D01*
X7747857Y-11667667D01*
X7871667Y-11791476D02*
X7852619Y-11781952D01*
X7843095Y-11762905D01*
X7843095Y-11591476D01*
X7976428Y-11791476D02*
X7957381Y-11781952D01*
X7947857Y-11772428D01*
X7938333Y-11753381D01*
X7938333Y-11696238D01*
X7947857Y-11677190D01*
X7957381Y-11667667D01*
X7976428Y-11658143D01*
X8005000Y-11658143D01*
X8024048Y-11667667D01*
X8033571Y-11677190D01*
X8043095Y-11696238D01*
X8043095Y-11753381D01*
X8033571Y-11772428D01*
X8024048Y-11781952D01*
X8005000Y-11791476D01*
X7976428Y-11791476D01*
X8100238Y-11658143D02*
X8176428Y-11658143D01*
X8128809Y-11591476D02*
X8128809Y-11762905D01*
X8138333Y-11781952D01*
X8157381Y-11791476D01*
X8176428Y-11791476D01*
X8233571Y-11781952D02*
X8252619Y-11791476D01*
X8290714Y-11791476D01*
X8309762Y-11781952D01*
X8319286Y-11762905D01*
X8319286Y-11753381D01*
X8309762Y-11734333D01*
X8290714Y-11724809D01*
X8262143Y-11724809D01*
X8243095Y-11715286D01*
X8233571Y-11696238D01*
X8233571Y-11686714D01*
X8243095Y-11667667D01*
X8262143Y-11658143D01*
X8290714Y-11658143D01*
X8309762Y-11667667D01*
X8385952Y-11867667D02*
X8395476Y-11858143D01*
X8414524Y-11829571D01*
X8424048Y-11810524D01*
X8433571Y-11781952D01*
X8443095Y-11734333D01*
X8443095Y-11696238D01*
X8433571Y-11648619D01*
X8424048Y-11620048D01*
X8414524Y-11601000D01*
X8395476Y-11572428D01*
X8385952Y-11562905D01*
D17*
X1935005Y-11935003D02*
X1995000Y-11994997D01*
X1995000Y-11935003D02*
X1935005Y-11994997D01*
X1995000Y-11965000D02*
G75*
G03*
X1995000Y-11965000I-29997J0D01*
G01*
D11*
X2290714Y-11855476D02*
X2309762Y-11855476D01*
X2328810Y-11865000D01*
X2338333Y-11874524D01*
X2347857Y-11893571D01*
X2357381Y-11931667D01*
X2357381Y-11979286D01*
X2347857Y-12017381D01*
X2338333Y-12036428D01*
X2328810Y-12045952D01*
X2309762Y-12055476D01*
X2290714Y-12055476D01*
X2271667Y-12045952D01*
X2262143Y-12036428D01*
X2252619Y-12017381D01*
X2243095Y-11979286D01*
X2243095Y-11931667D01*
X2252619Y-11893571D01*
X2262143Y-11874524D01*
X2271667Y-11865000D01*
X2290714Y-11855476D01*
X2443095Y-12036428D02*
X2452619Y-12045952D01*
X2443095Y-12055476D01*
X2433571Y-12045952D01*
X2443095Y-12036428D01*
X2443095Y-12055476D01*
X2624048Y-11855476D02*
X2585952Y-11855476D01*
X2566905Y-11865000D01*
X2557381Y-11874524D01*
X2538333Y-11903095D01*
X2528810Y-11941190D01*
X2528810Y-12017381D01*
X2538333Y-12036428D01*
X2547857Y-12045952D01*
X2566905Y-12055476D01*
X2605000Y-12055476D01*
X2624048Y-12045952D01*
X2633571Y-12036428D01*
X2643095Y-12017381D01*
X2643095Y-11969762D01*
X2633571Y-11950714D01*
X2624048Y-11941190D01*
X2605000Y-11931667D01*
X2566905Y-11931667D01*
X2547857Y-11941190D01*
X2538333Y-11950714D01*
X2528810Y-11969762D01*
X2766905Y-11855476D02*
X2785952Y-11855476D01*
X2805000Y-11865000D01*
X2814524Y-11874524D01*
X2824048Y-11893571D01*
X2833571Y-11931667D01*
X2833571Y-11979286D01*
X2824048Y-12017381D01*
X2814524Y-12036428D01*
X2805000Y-12045952D01*
X2785952Y-12055476D01*
X2766905Y-12055476D01*
X2747857Y-12045952D01*
X2738333Y-12036428D01*
X2728810Y-12017381D01*
X2719286Y-11979286D01*
X2719286Y-11931667D01*
X2728810Y-11893571D01*
X2738333Y-11874524D01*
X2747857Y-11865000D01*
X2766905Y-11855476D01*
X2957381Y-11855476D02*
X2976428Y-11855476D01*
X2995476Y-11865000D01*
X3005000Y-11874524D01*
X3014524Y-11893571D01*
X3024048Y-11931667D01*
X3024048Y-11979286D01*
X3014524Y-12017381D01*
X3005000Y-12036428D01*
X2995476Y-12045952D01*
X2976428Y-12055476D01*
X2957381Y-12055476D01*
X2938333Y-12045952D01*
X2928809Y-12036428D01*
X2919286Y-12017381D01*
X2909762Y-11979286D01*
X2909762Y-11931667D01*
X2919286Y-11893571D01*
X2928809Y-11874524D01*
X2938333Y-11865000D01*
X2957381Y-11855476D01*
X3109762Y-12055476D02*
X3109762Y-11922143D01*
X3109762Y-11941190D02*
X3119286Y-11931667D01*
X3138333Y-11922143D01*
X3166905Y-11922143D01*
X3185952Y-11931667D01*
X3195476Y-11950714D01*
X3195476Y-12055476D01*
X3195476Y-11950714D02*
X3205000Y-11931667D01*
X3224048Y-11922143D01*
X3252619Y-11922143D01*
X3271667Y-11931667D01*
X3281190Y-11950714D01*
X3281190Y-12055476D01*
X3376428Y-12055476D02*
X3376428Y-11922143D01*
X3376428Y-11941190D02*
X3385952Y-11931667D01*
X3405000Y-11922143D01*
X3433571Y-11922143D01*
X3452619Y-11931667D01*
X3462143Y-11950714D01*
X3462143Y-12055476D01*
X3462143Y-11950714D02*
X3471667Y-11931667D01*
X3490714Y-11922143D01*
X3519286Y-11922143D01*
X3538333Y-11931667D01*
X3547857Y-11950714D01*
X3547857Y-12055476D01*
X3938333Y-11845952D02*
X3766905Y-12103095D01*
X4195476Y-11855476D02*
X4214524Y-11855476D01*
X4233571Y-11865000D01*
X4243095Y-11874524D01*
X4252619Y-11893571D01*
X4262143Y-11931667D01*
X4262143Y-11979286D01*
X4252619Y-12017381D01*
X4243095Y-12036428D01*
X4233571Y-12045952D01*
X4214524Y-12055476D01*
X4195476Y-12055476D01*
X4176428Y-12045952D01*
X4166905Y-12036428D01*
X4157381Y-12017381D01*
X4147857Y-11979286D01*
X4147857Y-11931667D01*
X4157381Y-11893571D01*
X4166905Y-11874524D01*
X4176428Y-11865000D01*
X4195476Y-11855476D01*
X4347857Y-12036428D02*
X4357381Y-12045952D01*
X4347857Y-12055476D01*
X4338333Y-12045952D01*
X4347857Y-12036428D01*
X4347857Y-12055476D01*
X4481190Y-11855476D02*
X4500238Y-11855476D01*
X4519286Y-11865000D01*
X4528810Y-11874524D01*
X4538333Y-11893571D01*
X4547857Y-11931667D01*
X4547857Y-11979286D01*
X4538333Y-12017381D01*
X4528810Y-12036428D01*
X4519286Y-12045952D01*
X4500238Y-12055476D01*
X4481190Y-12055476D01*
X4462143Y-12045952D01*
X4452619Y-12036428D01*
X4443095Y-12017381D01*
X4433571Y-11979286D01*
X4433571Y-11931667D01*
X4443095Y-11893571D01*
X4452619Y-11874524D01*
X4462143Y-11865000D01*
X4481190Y-11855476D01*
X4624048Y-11874524D02*
X4633571Y-11865000D01*
X4652619Y-11855476D01*
X4700238Y-11855476D01*
X4719286Y-11865000D01*
X4728810Y-11874524D01*
X4738333Y-11893571D01*
X4738333Y-11912619D01*
X4728810Y-11941190D01*
X4614524Y-12055476D01*
X4738333Y-12055476D01*
X4805000Y-11855476D02*
X4928810Y-11855476D01*
X4862143Y-11931667D01*
X4890714Y-11931667D01*
X4909762Y-11941190D01*
X4919286Y-11950714D01*
X4928810Y-11969762D01*
X4928810Y-12017381D01*
X4919286Y-12036428D01*
X4909762Y-12045952D01*
X4890714Y-12055476D01*
X4833571Y-12055476D01*
X4814524Y-12045952D01*
X4805000Y-12036428D01*
X5100238Y-11855476D02*
X5062143Y-11855476D01*
X5043095Y-11865000D01*
X5033571Y-11874524D01*
X5014524Y-11903095D01*
X5005000Y-11941190D01*
X5005000Y-12017381D01*
X5014524Y-12036428D01*
X5024048Y-12045952D01*
X5043095Y-12055476D01*
X5081190Y-12055476D01*
X5100238Y-12045952D01*
X5109762Y-12036428D01*
X5119286Y-12017381D01*
X5119286Y-11969762D01*
X5109762Y-11950714D01*
X5100238Y-11941190D01*
X5081190Y-11931667D01*
X5043095Y-11931667D01*
X5024048Y-11941190D01*
X5014524Y-11950714D01*
X5005000Y-11969762D01*
X5195476Y-11855476D02*
X5195476Y-11893571D01*
X5271667Y-11855476D02*
X5271667Y-11893571D01*
X5566905Y-12131667D02*
X5557381Y-12122143D01*
X5538333Y-12093571D01*
X5528810Y-12074524D01*
X5519286Y-12045952D01*
X5509762Y-11998333D01*
X5509762Y-11960238D01*
X5519286Y-11912619D01*
X5528810Y-11884048D01*
X5538333Y-11865000D01*
X5557381Y-11836428D01*
X5566905Y-11826905D01*
X5633571Y-11874524D02*
X5643095Y-11865000D01*
X5662143Y-11855476D01*
X5709762Y-11855476D01*
X5728809Y-11865000D01*
X5738333Y-11874524D01*
X5747857Y-11893571D01*
X5747857Y-11912619D01*
X5738333Y-11941190D01*
X5624048Y-12055476D01*
X5747857Y-12055476D01*
X5985952Y-12055476D02*
X5985952Y-11855476D01*
X6071667Y-12055476D02*
X6071667Y-11950714D01*
X6062143Y-11931667D01*
X6043095Y-11922143D01*
X6014524Y-11922143D01*
X5995476Y-11931667D01*
X5985952Y-11941190D01*
X6195476Y-12055476D02*
X6176428Y-12045952D01*
X6166905Y-12036428D01*
X6157381Y-12017381D01*
X6157381Y-11960238D01*
X6166905Y-11941190D01*
X6176428Y-11931667D01*
X6195476Y-11922143D01*
X6224048Y-11922143D01*
X6243095Y-11931667D01*
X6252619Y-11941190D01*
X6262143Y-11960238D01*
X6262143Y-12017381D01*
X6252619Y-12036428D01*
X6243095Y-12045952D01*
X6224048Y-12055476D01*
X6195476Y-12055476D01*
X6376428Y-12055476D02*
X6357381Y-12045952D01*
X6347857Y-12026905D01*
X6347857Y-11855476D01*
X6528809Y-12045952D02*
X6509762Y-12055476D01*
X6471667Y-12055476D01*
X6452619Y-12045952D01*
X6443095Y-12026905D01*
X6443095Y-11950714D01*
X6452619Y-11931667D01*
X6471667Y-11922143D01*
X6509762Y-11922143D01*
X6528809Y-11931667D01*
X6538333Y-11950714D01*
X6538333Y-11969762D01*
X6443095Y-11988809D01*
X6614524Y-12045952D02*
X6633571Y-12055476D01*
X6671667Y-12055476D01*
X6690714Y-12045952D01*
X6700238Y-12026905D01*
X6700238Y-12017381D01*
X6690714Y-11998333D01*
X6671667Y-11988809D01*
X6643095Y-11988809D01*
X6624048Y-11979286D01*
X6614524Y-11960238D01*
X6614524Y-11950714D01*
X6624048Y-11931667D01*
X6643095Y-11922143D01*
X6671667Y-11922143D01*
X6690714Y-11931667D01*
X6766905Y-12131667D02*
X6776428Y-12122143D01*
X6795476Y-12093571D01*
X6805000Y-12074524D01*
X6814524Y-12045952D01*
X6824048Y-11998333D01*
X6824048Y-11960238D01*
X6814524Y-11912619D01*
X6805000Y-11884048D01*
X6795476Y-11865000D01*
X6776428Y-11836428D01*
X6766905Y-11826905D01*
D18*
X1903560Y-12183280D02*
X1995000Y-12274720D01*
X1995000Y-12183280D02*
X1903560Y-12274720D01*
X1949280Y-12183280D02*
X1949280Y-12274720D01*
X1903560Y-12229000D02*
X1995000Y-12229000D01*
D11*
X2290714Y-12119476D02*
X2309762Y-12119476D01*
X2328810Y-12129000D01*
X2338333Y-12138524D01*
X2347857Y-12157571D01*
X2357381Y-12195667D01*
X2357381Y-12243286D01*
X2347857Y-12281381D01*
X2338333Y-12300428D01*
X2328810Y-12309952D01*
X2309762Y-12319476D01*
X2290714Y-12319476D01*
X2271667Y-12309952D01*
X2262143Y-12300428D01*
X2252619Y-12281381D01*
X2243095Y-12243286D01*
X2243095Y-12195667D01*
X2252619Y-12157571D01*
X2262143Y-12138524D01*
X2271667Y-12129000D01*
X2290714Y-12119476D01*
X2443095Y-12300428D02*
X2452619Y-12309952D01*
X2443095Y-12319476D01*
X2433571Y-12309952D01*
X2443095Y-12300428D01*
X2443095Y-12319476D01*
X2547857Y-12319476D02*
X2585952Y-12319476D01*
X2605000Y-12309952D01*
X2614524Y-12300428D01*
X2633571Y-12271857D01*
X2643095Y-12233762D01*
X2643095Y-12157571D01*
X2633571Y-12138524D01*
X2624048Y-12129000D01*
X2605000Y-12119476D01*
X2566905Y-12119476D01*
X2547857Y-12129000D01*
X2538333Y-12138524D01*
X2528810Y-12157571D01*
X2528810Y-12205190D01*
X2538333Y-12224238D01*
X2547857Y-12233762D01*
X2566905Y-12243286D01*
X2605000Y-12243286D01*
X2624048Y-12233762D01*
X2633571Y-12224238D01*
X2643095Y-12205190D01*
X2833571Y-12319476D02*
X2719286Y-12319476D01*
X2776429Y-12319476D02*
X2776429Y-12119476D01*
X2757381Y-12148048D01*
X2738333Y-12167095D01*
X2719286Y-12176619D01*
X3005000Y-12186143D02*
X3005000Y-12319476D01*
X2957381Y-12109952D02*
X2909762Y-12252809D01*
X3033571Y-12252809D01*
X3109762Y-12319476D02*
X3109762Y-12186143D01*
X3109762Y-12205190D02*
X3119286Y-12195667D01*
X3138333Y-12186143D01*
X3166905Y-12186143D01*
X3185952Y-12195667D01*
X3195476Y-12214714D01*
X3195476Y-12319476D01*
X3195476Y-12214714D02*
X3205000Y-12195667D01*
X3224048Y-12186143D01*
X3252619Y-12186143D01*
X3271667Y-12195667D01*
X3281190Y-12214714D01*
X3281190Y-12319476D01*
X3376428Y-12319476D02*
X3376428Y-12186143D01*
X3376428Y-12205190D02*
X3385952Y-12195667D01*
X3405000Y-12186143D01*
X3433571Y-12186143D01*
X3452619Y-12195667D01*
X3462143Y-12214714D01*
X3462143Y-12319476D01*
X3462143Y-12214714D02*
X3471667Y-12195667D01*
X3490714Y-12186143D01*
X3519286Y-12186143D01*
X3538333Y-12195667D01*
X3547857Y-12214714D01*
X3547857Y-12319476D01*
X3938333Y-12109952D02*
X3766905Y-12367095D01*
X4195476Y-12119476D02*
X4214524Y-12119476D01*
X4233571Y-12129000D01*
X4243095Y-12138524D01*
X4252619Y-12157571D01*
X4262143Y-12195667D01*
X4262143Y-12243286D01*
X4252619Y-12281381D01*
X4243095Y-12300428D01*
X4233571Y-12309952D01*
X4214524Y-12319476D01*
X4195476Y-12319476D01*
X4176428Y-12309952D01*
X4166905Y-12300428D01*
X4157381Y-12281381D01*
X4147857Y-12243286D01*
X4147857Y-12195667D01*
X4157381Y-12157571D01*
X4166905Y-12138524D01*
X4176428Y-12129000D01*
X4195476Y-12119476D01*
X4347857Y-12300428D02*
X4357381Y-12309952D01*
X4347857Y-12319476D01*
X4338333Y-12309952D01*
X4347857Y-12300428D01*
X4347857Y-12319476D01*
X4481190Y-12119476D02*
X4500238Y-12119476D01*
X4519286Y-12129000D01*
X4528810Y-12138524D01*
X4538333Y-12157571D01*
X4547857Y-12195667D01*
X4547857Y-12243286D01*
X4538333Y-12281381D01*
X4528810Y-12300428D01*
X4519286Y-12309952D01*
X4500238Y-12319476D01*
X4481190Y-12319476D01*
X4462143Y-12309952D01*
X4452619Y-12300428D01*
X4443095Y-12281381D01*
X4433571Y-12243286D01*
X4433571Y-12195667D01*
X4443095Y-12157571D01*
X4452619Y-12138524D01*
X4462143Y-12129000D01*
X4481190Y-12119476D01*
X4614524Y-12119476D02*
X4738333Y-12119476D01*
X4671667Y-12195667D01*
X4700238Y-12195667D01*
X4719286Y-12205190D01*
X4728810Y-12214714D01*
X4738333Y-12233762D01*
X4738333Y-12281381D01*
X4728810Y-12300428D01*
X4719286Y-12309952D01*
X4700238Y-12319476D01*
X4643095Y-12319476D01*
X4624048Y-12309952D01*
X4614524Y-12300428D01*
X4909762Y-12119476D02*
X4871667Y-12119476D01*
X4852619Y-12129000D01*
X4843095Y-12138524D01*
X4824048Y-12167095D01*
X4814524Y-12205190D01*
X4814524Y-12281381D01*
X4824048Y-12300428D01*
X4833571Y-12309952D01*
X4852619Y-12319476D01*
X4890714Y-12319476D01*
X4909762Y-12309952D01*
X4919286Y-12300428D01*
X4928810Y-12281381D01*
X4928810Y-12233762D01*
X4919286Y-12214714D01*
X4909762Y-12205190D01*
X4890714Y-12195667D01*
X4852619Y-12195667D01*
X4833571Y-12205190D01*
X4824048Y-12214714D01*
X4814524Y-12233762D01*
X5052619Y-12119476D02*
X5071667Y-12119476D01*
X5090714Y-12129000D01*
X5100238Y-12138524D01*
X5109762Y-12157571D01*
X5119286Y-12195667D01*
X5119286Y-12243286D01*
X5109762Y-12281381D01*
X5100238Y-12300428D01*
X5090714Y-12309952D01*
X5071667Y-12319476D01*
X5052619Y-12319476D01*
X5033571Y-12309952D01*
X5024048Y-12300428D01*
X5014524Y-12281381D01*
X5005000Y-12243286D01*
X5005000Y-12195667D01*
X5014524Y-12157571D01*
X5024048Y-12138524D01*
X5033571Y-12129000D01*
X5052619Y-12119476D01*
X5195476Y-12119476D02*
X5195476Y-12157571D01*
X5271667Y-12119476D02*
X5271667Y-12157571D01*
X5566905Y-12395667D02*
X5557381Y-12386143D01*
X5538333Y-12357571D01*
X5528810Y-12338524D01*
X5519286Y-12309952D01*
X5509762Y-12262333D01*
X5509762Y-12224238D01*
X5519286Y-12176619D01*
X5528810Y-12148048D01*
X5538333Y-12129000D01*
X5557381Y-12100428D01*
X5566905Y-12090905D01*
X5671667Y-12205190D02*
X5652619Y-12195667D01*
X5643095Y-12186143D01*
X5633571Y-12167095D01*
X5633571Y-12157571D01*
X5643095Y-12138524D01*
X5652619Y-12129000D01*
X5671667Y-12119476D01*
X5709762Y-12119476D01*
X5728809Y-12129000D01*
X5738333Y-12138524D01*
X5747857Y-12157571D01*
X5747857Y-12167095D01*
X5738333Y-12186143D01*
X5728809Y-12195667D01*
X5709762Y-12205190D01*
X5671667Y-12205190D01*
X5652619Y-12214714D01*
X5643095Y-12224238D01*
X5633571Y-12243286D01*
X5633571Y-12281381D01*
X5643095Y-12300428D01*
X5652619Y-12309952D01*
X5671667Y-12319476D01*
X5709762Y-12319476D01*
X5728809Y-12309952D01*
X5738333Y-12300428D01*
X5747857Y-12281381D01*
X5747857Y-12243286D01*
X5738333Y-12224238D01*
X5728809Y-12214714D01*
X5709762Y-12205190D01*
X5985952Y-12319476D02*
X5985952Y-12119476D01*
X6071667Y-12319476D02*
X6071667Y-12214714D01*
X6062143Y-12195667D01*
X6043095Y-12186143D01*
X6014524Y-12186143D01*
X5995476Y-12195667D01*
X5985952Y-12205190D01*
X6195476Y-12319476D02*
X6176428Y-12309952D01*
X6166905Y-12300428D01*
X6157381Y-12281381D01*
X6157381Y-12224238D01*
X6166905Y-12205190D01*
X6176428Y-12195667D01*
X6195476Y-12186143D01*
X6224048Y-12186143D01*
X6243095Y-12195667D01*
X6252619Y-12205190D01*
X6262143Y-12224238D01*
X6262143Y-12281381D01*
X6252619Y-12300428D01*
X6243095Y-12309952D01*
X6224048Y-12319476D01*
X6195476Y-12319476D01*
X6376428Y-12319476D02*
X6357381Y-12309952D01*
X6347857Y-12290905D01*
X6347857Y-12119476D01*
X6528809Y-12309952D02*
X6509762Y-12319476D01*
X6471667Y-12319476D01*
X6452619Y-12309952D01*
X6443095Y-12290905D01*
X6443095Y-12214714D01*
X6452619Y-12195667D01*
X6471667Y-12186143D01*
X6509762Y-12186143D01*
X6528809Y-12195667D01*
X6538333Y-12214714D01*
X6538333Y-12233762D01*
X6443095Y-12252809D01*
X6614524Y-12309952D02*
X6633571Y-12319476D01*
X6671667Y-12319476D01*
X6690714Y-12309952D01*
X6700238Y-12290905D01*
X6700238Y-12281381D01*
X6690714Y-12262333D01*
X6671667Y-12252809D01*
X6643095Y-12252809D01*
X6624048Y-12243286D01*
X6614524Y-12224238D01*
X6614524Y-12214714D01*
X6624048Y-12195667D01*
X6643095Y-12186143D01*
X6671667Y-12186143D01*
X6690714Y-12195667D01*
X6766905Y-12395667D02*
X6776428Y-12386143D01*
X6795476Y-12357571D01*
X6805000Y-12338524D01*
X6814524Y-12309952D01*
X6824048Y-12262333D01*
X6824048Y-12224238D01*
X6814524Y-12176619D01*
X6805000Y-12148048D01*
X6795476Y-12129000D01*
X6776428Y-12100428D01*
X6766905Y-12090905D01*
D19*
X1895000Y-12443000D02*
X1995000Y-12543000D01*
X1995000Y-12443000D02*
X1895000Y-12543000D01*
X1980356Y-12528356D02*
X1980356Y-12457644D01*
X1909644Y-12457644D01*
X1909644Y-12528356D01*
X1980356Y-12528356D01*
D11*
X2357381Y-12583476D02*
X2243095Y-12583476D01*
X2300238Y-12583476D02*
X2300238Y-12383476D01*
X2281190Y-12412048D01*
X2262143Y-12431095D01*
X2243095Y-12440619D01*
X2443095Y-12564428D02*
X2452619Y-12573952D01*
X2443095Y-12583476D01*
X2433571Y-12573952D01*
X2443095Y-12564428D01*
X2443095Y-12583476D01*
X2576429Y-12383476D02*
X2595476Y-12383476D01*
X2614524Y-12393000D01*
X2624048Y-12402524D01*
X2633571Y-12421571D01*
X2643095Y-12459667D01*
X2643095Y-12507286D01*
X2633571Y-12545381D01*
X2624048Y-12564428D01*
X2614524Y-12573952D01*
X2595476Y-12583476D01*
X2576429Y-12583476D01*
X2557381Y-12573952D01*
X2547857Y-12564428D01*
X2538333Y-12545381D01*
X2528810Y-12507286D01*
X2528810Y-12459667D01*
X2538333Y-12421571D01*
X2547857Y-12402524D01*
X2557381Y-12393000D01*
X2576429Y-12383476D01*
X2766905Y-12383476D02*
X2785952Y-12383476D01*
X2805000Y-12393000D01*
X2814524Y-12402524D01*
X2824048Y-12421571D01*
X2833571Y-12459667D01*
X2833571Y-12507286D01*
X2824048Y-12545381D01*
X2814524Y-12564428D01*
X2805000Y-12573952D01*
X2785952Y-12583476D01*
X2766905Y-12583476D01*
X2747857Y-12573952D01*
X2738333Y-12564428D01*
X2728810Y-12545381D01*
X2719286Y-12507286D01*
X2719286Y-12459667D01*
X2728810Y-12421571D01*
X2738333Y-12402524D01*
X2747857Y-12393000D01*
X2766905Y-12383476D01*
X2957381Y-12383476D02*
X2976428Y-12383476D01*
X2995476Y-12393000D01*
X3005000Y-12402524D01*
X3014524Y-12421571D01*
X3024048Y-12459667D01*
X3024048Y-12507286D01*
X3014524Y-12545381D01*
X3005000Y-12564428D01*
X2995476Y-12573952D01*
X2976428Y-12583476D01*
X2957381Y-12583476D01*
X2938333Y-12573952D01*
X2928809Y-12564428D01*
X2919286Y-12545381D01*
X2909762Y-12507286D01*
X2909762Y-12459667D01*
X2919286Y-12421571D01*
X2928809Y-12402524D01*
X2938333Y-12393000D01*
X2957381Y-12383476D01*
X3109762Y-12583476D02*
X3109762Y-12450143D01*
X3109762Y-12469190D02*
X3119286Y-12459667D01*
X3138333Y-12450143D01*
X3166905Y-12450143D01*
X3185952Y-12459667D01*
X3195476Y-12478714D01*
X3195476Y-12583476D01*
X3195476Y-12478714D02*
X3205000Y-12459667D01*
X3224048Y-12450143D01*
X3252619Y-12450143D01*
X3271667Y-12459667D01*
X3281190Y-12478714D01*
X3281190Y-12583476D01*
X3376428Y-12583476D02*
X3376428Y-12450143D01*
X3376428Y-12469190D02*
X3385952Y-12459667D01*
X3405000Y-12450143D01*
X3433571Y-12450143D01*
X3452619Y-12459667D01*
X3462143Y-12478714D01*
X3462143Y-12583476D01*
X3462143Y-12478714D02*
X3471667Y-12459667D01*
X3490714Y-12450143D01*
X3519286Y-12450143D01*
X3538333Y-12459667D01*
X3547857Y-12478714D01*
X3547857Y-12583476D01*
X3938333Y-12373952D02*
X3766905Y-12631095D01*
X4195476Y-12383476D02*
X4214524Y-12383476D01*
X4233571Y-12393000D01*
X4243095Y-12402524D01*
X4252619Y-12421571D01*
X4262143Y-12459667D01*
X4262143Y-12507286D01*
X4252619Y-12545381D01*
X4243095Y-12564428D01*
X4233571Y-12573952D01*
X4214524Y-12583476D01*
X4195476Y-12583476D01*
X4176428Y-12573952D01*
X4166905Y-12564428D01*
X4157381Y-12545381D01*
X4147857Y-12507286D01*
X4147857Y-12459667D01*
X4157381Y-12421571D01*
X4166905Y-12402524D01*
X4176428Y-12393000D01*
X4195476Y-12383476D01*
X4347857Y-12564428D02*
X4357381Y-12573952D01*
X4347857Y-12583476D01*
X4338333Y-12573952D01*
X4347857Y-12564428D01*
X4347857Y-12583476D01*
X4481190Y-12383476D02*
X4500238Y-12383476D01*
X4519286Y-12393000D01*
X4528810Y-12402524D01*
X4538333Y-12421571D01*
X4547857Y-12459667D01*
X4547857Y-12507286D01*
X4538333Y-12545381D01*
X4528810Y-12564428D01*
X4519286Y-12573952D01*
X4500238Y-12583476D01*
X4481190Y-12583476D01*
X4462143Y-12573952D01*
X4452619Y-12564428D01*
X4443095Y-12545381D01*
X4433571Y-12507286D01*
X4433571Y-12459667D01*
X4443095Y-12421571D01*
X4452619Y-12402524D01*
X4462143Y-12393000D01*
X4481190Y-12383476D01*
X4614524Y-12383476D02*
X4738333Y-12383476D01*
X4671667Y-12459667D01*
X4700238Y-12459667D01*
X4719286Y-12469190D01*
X4728810Y-12478714D01*
X4738333Y-12497762D01*
X4738333Y-12545381D01*
X4728810Y-12564428D01*
X4719286Y-12573952D01*
X4700238Y-12583476D01*
X4643095Y-12583476D01*
X4624048Y-12573952D01*
X4614524Y-12564428D01*
X4833571Y-12583476D02*
X4871667Y-12583476D01*
X4890714Y-12573952D01*
X4900238Y-12564428D01*
X4919286Y-12535857D01*
X4928810Y-12497762D01*
X4928810Y-12421571D01*
X4919286Y-12402524D01*
X4909762Y-12393000D01*
X4890714Y-12383476D01*
X4852619Y-12383476D01*
X4833571Y-12393000D01*
X4824048Y-12402524D01*
X4814524Y-12421571D01*
X4814524Y-12469190D01*
X4824048Y-12488238D01*
X4833571Y-12497762D01*
X4852619Y-12507286D01*
X4890714Y-12507286D01*
X4909762Y-12497762D01*
X4919286Y-12488238D01*
X4928810Y-12469190D01*
X5100238Y-12450143D02*
X5100238Y-12583476D01*
X5052619Y-12373952D02*
X5005000Y-12516809D01*
X5128810Y-12516809D01*
X5195476Y-12383476D02*
X5195476Y-12421571D01*
X5271667Y-12383476D02*
X5271667Y-12421571D01*
X5566905Y-12659667D02*
X5557381Y-12650143D01*
X5538333Y-12621571D01*
X5528810Y-12602524D01*
X5519286Y-12573952D01*
X5509762Y-12526333D01*
X5509762Y-12488238D01*
X5519286Y-12440619D01*
X5528810Y-12412048D01*
X5538333Y-12393000D01*
X5557381Y-12364428D01*
X5566905Y-12354905D01*
X5633571Y-12402524D02*
X5643095Y-12393000D01*
X5662143Y-12383476D01*
X5709762Y-12383476D01*
X5728809Y-12393000D01*
X5738333Y-12402524D01*
X5747857Y-12421571D01*
X5747857Y-12440619D01*
X5738333Y-12469190D01*
X5624048Y-12583476D01*
X5747857Y-12583476D01*
X5985952Y-12583476D02*
X5985952Y-12383476D01*
X6071667Y-12583476D02*
X6071667Y-12478714D01*
X6062143Y-12459667D01*
X6043095Y-12450143D01*
X6014524Y-12450143D01*
X5995476Y-12459667D01*
X5985952Y-12469190D01*
X6195476Y-12583476D02*
X6176428Y-12573952D01*
X6166905Y-12564428D01*
X6157381Y-12545381D01*
X6157381Y-12488238D01*
X6166905Y-12469190D01*
X6176428Y-12459667D01*
X6195476Y-12450143D01*
X6224048Y-12450143D01*
X6243095Y-12459667D01*
X6252619Y-12469190D01*
X6262143Y-12488238D01*
X6262143Y-12545381D01*
X6252619Y-12564428D01*
X6243095Y-12573952D01*
X6224048Y-12583476D01*
X6195476Y-12583476D01*
X6376428Y-12583476D02*
X6357381Y-12573952D01*
X6347857Y-12554905D01*
X6347857Y-12383476D01*
X6528809Y-12573952D02*
X6509762Y-12583476D01*
X6471667Y-12583476D01*
X6452619Y-12573952D01*
X6443095Y-12554905D01*
X6443095Y-12478714D01*
X6452619Y-12459667D01*
X6471667Y-12450143D01*
X6509762Y-12450143D01*
X6528809Y-12459667D01*
X6538333Y-12478714D01*
X6538333Y-12497762D01*
X6443095Y-12516809D01*
X6614524Y-12573952D02*
X6633571Y-12583476D01*
X6671667Y-12583476D01*
X6690714Y-12573952D01*
X6700238Y-12554905D01*
X6700238Y-12545381D01*
X6690714Y-12526333D01*
X6671667Y-12516809D01*
X6643095Y-12516809D01*
X6624048Y-12507286D01*
X6614524Y-12488238D01*
X6614524Y-12478714D01*
X6624048Y-12459667D01*
X6643095Y-12450143D01*
X6671667Y-12450143D01*
X6690714Y-12459667D01*
X6766905Y-12659667D02*
X6776428Y-12650143D01*
X6795476Y-12621571D01*
X6805000Y-12602524D01*
X6814524Y-12573952D01*
X6824048Y-12526333D01*
X6824048Y-12488238D01*
X6814524Y-12440619D01*
X6805000Y-12412048D01*
X6795476Y-12393000D01*
X6776428Y-12364428D01*
X6766905Y-12354905D01*
D10*
X1895000Y-12707000D02*
X1995000Y-12807000D01*
X1995000Y-12707000D02*
X1895000Y-12807000D01*
X1945000Y-12807000D02*
X1995000Y-12757000D01*
X1945000Y-12707000D01*
X1895000Y-12757000D01*
X1945000Y-12807000D01*
D11*
X2357381Y-12847476D02*
X2243095Y-12847476D01*
X2300238Y-12847476D02*
X2300238Y-12647476D01*
X2281190Y-12676048D01*
X2262143Y-12695095D01*
X2243095Y-12704619D01*
X2443095Y-12828428D02*
X2452619Y-12837952D01*
X2443095Y-12847476D01*
X2433571Y-12837952D01*
X2443095Y-12828428D01*
X2443095Y-12847476D01*
X2576429Y-12647476D02*
X2595476Y-12647476D01*
X2614524Y-12657000D01*
X2624048Y-12666524D01*
X2633571Y-12685571D01*
X2643095Y-12723667D01*
X2643095Y-12771286D01*
X2633571Y-12809381D01*
X2624048Y-12828428D01*
X2614524Y-12837952D01*
X2595476Y-12847476D01*
X2576429Y-12847476D01*
X2557381Y-12837952D01*
X2547857Y-12828428D01*
X2538333Y-12809381D01*
X2528810Y-12771286D01*
X2528810Y-12723667D01*
X2538333Y-12685571D01*
X2547857Y-12666524D01*
X2557381Y-12657000D01*
X2576429Y-12647476D01*
X2766905Y-12647476D02*
X2785952Y-12647476D01*
X2805000Y-12657000D01*
X2814524Y-12666524D01*
X2824048Y-12685571D01*
X2833571Y-12723667D01*
X2833571Y-12771286D01*
X2824048Y-12809381D01*
X2814524Y-12828428D01*
X2805000Y-12837952D01*
X2785952Y-12847476D01*
X2766905Y-12847476D01*
X2747857Y-12837952D01*
X2738333Y-12828428D01*
X2728810Y-12809381D01*
X2719286Y-12771286D01*
X2719286Y-12723667D01*
X2728810Y-12685571D01*
X2738333Y-12666524D01*
X2747857Y-12657000D01*
X2766905Y-12647476D01*
X2957381Y-12647476D02*
X2976428Y-12647476D01*
X2995476Y-12657000D01*
X3005000Y-12666524D01*
X3014524Y-12685571D01*
X3024048Y-12723667D01*
X3024048Y-12771286D01*
X3014524Y-12809381D01*
X3005000Y-12828428D01*
X2995476Y-12837952D01*
X2976428Y-12847476D01*
X2957381Y-12847476D01*
X2938333Y-12837952D01*
X2928809Y-12828428D01*
X2919286Y-12809381D01*
X2909762Y-12771286D01*
X2909762Y-12723667D01*
X2919286Y-12685571D01*
X2928809Y-12666524D01*
X2938333Y-12657000D01*
X2957381Y-12647476D01*
X3109762Y-12847476D02*
X3109762Y-12714143D01*
X3109762Y-12733190D02*
X3119286Y-12723667D01*
X3138333Y-12714143D01*
X3166905Y-12714143D01*
X3185952Y-12723667D01*
X3195476Y-12742714D01*
X3195476Y-12847476D01*
X3195476Y-12742714D02*
X3205000Y-12723667D01*
X3224048Y-12714143D01*
X3252619Y-12714143D01*
X3271667Y-12723667D01*
X3281190Y-12742714D01*
X3281190Y-12847476D01*
X3376428Y-12847476D02*
X3376428Y-12714143D01*
X3376428Y-12733190D02*
X3385952Y-12723667D01*
X3405000Y-12714143D01*
X3433571Y-12714143D01*
X3452619Y-12723667D01*
X3462143Y-12742714D01*
X3462143Y-12847476D01*
X3462143Y-12742714D02*
X3471667Y-12723667D01*
X3490714Y-12714143D01*
X3519286Y-12714143D01*
X3538333Y-12723667D01*
X3547857Y-12742714D01*
X3547857Y-12847476D01*
X3938333Y-12637952D02*
X3766905Y-12895095D01*
X4195476Y-12647476D02*
X4214524Y-12647476D01*
X4233571Y-12657000D01*
X4243095Y-12666524D01*
X4252619Y-12685571D01*
X4262143Y-12723667D01*
X4262143Y-12771286D01*
X4252619Y-12809381D01*
X4243095Y-12828428D01*
X4233571Y-12837952D01*
X4214524Y-12847476D01*
X4195476Y-12847476D01*
X4176428Y-12837952D01*
X4166905Y-12828428D01*
X4157381Y-12809381D01*
X4147857Y-12771286D01*
X4147857Y-12723667D01*
X4157381Y-12685571D01*
X4166905Y-12666524D01*
X4176428Y-12657000D01*
X4195476Y-12647476D01*
X4347857Y-12828428D02*
X4357381Y-12837952D01*
X4347857Y-12847476D01*
X4338333Y-12837952D01*
X4347857Y-12828428D01*
X4347857Y-12847476D01*
X4481190Y-12647476D02*
X4500238Y-12647476D01*
X4519286Y-12657000D01*
X4528810Y-12666524D01*
X4538333Y-12685571D01*
X4547857Y-12723667D01*
X4547857Y-12771286D01*
X4538333Y-12809381D01*
X4528810Y-12828428D01*
X4519286Y-12837952D01*
X4500238Y-12847476D01*
X4481190Y-12847476D01*
X4462143Y-12837952D01*
X4452619Y-12828428D01*
X4443095Y-12809381D01*
X4433571Y-12771286D01*
X4433571Y-12723667D01*
X4443095Y-12685571D01*
X4452619Y-12666524D01*
X4462143Y-12657000D01*
X4481190Y-12647476D01*
X4614524Y-12647476D02*
X4738333Y-12647476D01*
X4671667Y-12723667D01*
X4700238Y-12723667D01*
X4719286Y-12733190D01*
X4728810Y-12742714D01*
X4738333Y-12761762D01*
X4738333Y-12809381D01*
X4728810Y-12828428D01*
X4719286Y-12837952D01*
X4700238Y-12847476D01*
X4643095Y-12847476D01*
X4624048Y-12837952D01*
X4614524Y-12828428D01*
X4833571Y-12847476D02*
X4871667Y-12847476D01*
X4890714Y-12837952D01*
X4900238Y-12828428D01*
X4919286Y-12799857D01*
X4928810Y-12761762D01*
X4928810Y-12685571D01*
X4919286Y-12666524D01*
X4909762Y-12657000D01*
X4890714Y-12647476D01*
X4852619Y-12647476D01*
X4833571Y-12657000D01*
X4824048Y-12666524D01*
X4814524Y-12685571D01*
X4814524Y-12733190D01*
X4824048Y-12752238D01*
X4833571Y-12761762D01*
X4852619Y-12771286D01*
X4890714Y-12771286D01*
X4909762Y-12761762D01*
X4919286Y-12752238D01*
X4928810Y-12733190D01*
X5100238Y-12714143D02*
X5100238Y-12847476D01*
X5052619Y-12637952D02*
X5005000Y-12780809D01*
X5128810Y-12780809D01*
X5195476Y-12647476D02*
X5195476Y-12685571D01*
X5271667Y-12647476D02*
X5271667Y-12685571D01*
X5566905Y-12923667D02*
X5557381Y-12914143D01*
X5538333Y-12885571D01*
X5528810Y-12866524D01*
X5519286Y-12837952D01*
X5509762Y-12790333D01*
X5509762Y-12752238D01*
X5519286Y-12704619D01*
X5528810Y-12676048D01*
X5538333Y-12657000D01*
X5557381Y-12628428D01*
X5566905Y-12618905D01*
X5747857Y-12847476D02*
X5633571Y-12847476D01*
X5690714Y-12847476D02*
X5690714Y-12647476D01*
X5671667Y-12676048D01*
X5652619Y-12695095D01*
X5633571Y-12704619D01*
X5843095Y-12847476D02*
X5881190Y-12847476D01*
X5900238Y-12837952D01*
X5909762Y-12828428D01*
X5928809Y-12799857D01*
X5938333Y-12761762D01*
X5938333Y-12685571D01*
X5928809Y-12666524D01*
X5919286Y-12657000D01*
X5900238Y-12647476D01*
X5862143Y-12647476D01*
X5843095Y-12657000D01*
X5833571Y-12666524D01*
X5824048Y-12685571D01*
X5824048Y-12733190D01*
X5833571Y-12752238D01*
X5843095Y-12761762D01*
X5862143Y-12771286D01*
X5900238Y-12771286D01*
X5919286Y-12761762D01*
X5928809Y-12752238D01*
X5938333Y-12733190D01*
X6176428Y-12847476D02*
X6176428Y-12647476D01*
X6262143Y-12847476D02*
X6262143Y-12742714D01*
X6252619Y-12723667D01*
X6233571Y-12714143D01*
X6205000Y-12714143D01*
X6185952Y-12723667D01*
X6176428Y-12733190D01*
X6385952Y-12847476D02*
X6366905Y-12837952D01*
X6357381Y-12828428D01*
X6347857Y-12809381D01*
X6347857Y-12752238D01*
X6357381Y-12733190D01*
X6366905Y-12723667D01*
X6385952Y-12714143D01*
X6414524Y-12714143D01*
X6433571Y-12723667D01*
X6443095Y-12733190D01*
X6452619Y-12752238D01*
X6452619Y-12809381D01*
X6443095Y-12828428D01*
X6433571Y-12837952D01*
X6414524Y-12847476D01*
X6385952Y-12847476D01*
X6566905Y-12847476D02*
X6547857Y-12837952D01*
X6538333Y-12818905D01*
X6538333Y-12647476D01*
X6719286Y-12837952D02*
X6700238Y-12847476D01*
X6662143Y-12847476D01*
X6643095Y-12837952D01*
X6633571Y-12818905D01*
X6633571Y-12742714D01*
X6643095Y-12723667D01*
X6662143Y-12714143D01*
X6700238Y-12714143D01*
X6719286Y-12723667D01*
X6728809Y-12742714D01*
X6728809Y-12761762D01*
X6633571Y-12780809D01*
X6805000Y-12837952D02*
X6824048Y-12847476D01*
X6862143Y-12847476D01*
X6881190Y-12837952D01*
X6890714Y-12818905D01*
X6890714Y-12809381D01*
X6881190Y-12790333D01*
X6862143Y-12780809D01*
X6833571Y-12780809D01*
X6814524Y-12771286D01*
X6805000Y-12752238D01*
X6805000Y-12742714D01*
X6814524Y-12723667D01*
X6833571Y-12714143D01*
X6862143Y-12714143D01*
X6881190Y-12723667D01*
X7128809Y-12771286D02*
X7281190Y-12771286D01*
X7205000Y-12847476D02*
X7205000Y-12695095D01*
X7509762Y-12647476D02*
X7633571Y-12647476D01*
X7566905Y-12723667D01*
X7595476Y-12723667D01*
X7614524Y-12733190D01*
X7624048Y-12742714D01*
X7633571Y-12761762D01*
X7633571Y-12809381D01*
X7624048Y-12828428D01*
X7614524Y-12837952D01*
X7595476Y-12847476D01*
X7538333Y-12847476D01*
X7519286Y-12837952D01*
X7509762Y-12828428D01*
X7862143Y-12837952D02*
X7881190Y-12847476D01*
X7919286Y-12847476D01*
X7938333Y-12837952D01*
X7947857Y-12818905D01*
X7947857Y-12809381D01*
X7938333Y-12790333D01*
X7919286Y-12780809D01*
X7890714Y-12780809D01*
X7871667Y-12771286D01*
X7862143Y-12752238D01*
X7862143Y-12742714D01*
X7871667Y-12723667D01*
X7890714Y-12714143D01*
X7919286Y-12714143D01*
X7938333Y-12723667D01*
X8062143Y-12847476D02*
X8043095Y-12837952D01*
X8033571Y-12818905D01*
X8033571Y-12647476D01*
X8166905Y-12847476D02*
X8147857Y-12837952D01*
X8138333Y-12828428D01*
X8128809Y-12809381D01*
X8128809Y-12752238D01*
X8138333Y-12733190D01*
X8147857Y-12723667D01*
X8166905Y-12714143D01*
X8195476Y-12714143D01*
X8214524Y-12723667D01*
X8224048Y-12733190D01*
X8233571Y-12752238D01*
X8233571Y-12809381D01*
X8224048Y-12828428D01*
X8214524Y-12837952D01*
X8195476Y-12847476D01*
X8166905Y-12847476D01*
X8290714Y-12714143D02*
X8366905Y-12714143D01*
X8319286Y-12647476D02*
X8319286Y-12818905D01*
X8328809Y-12837952D01*
X8347857Y-12847476D01*
X8366905Y-12847476D01*
X8424048Y-12837952D02*
X8443095Y-12847476D01*
X8481190Y-12847476D01*
X8500238Y-12837952D01*
X8509762Y-12818905D01*
X8509762Y-12809381D01*
X8500238Y-12790333D01*
X8481190Y-12780809D01*
X8452619Y-12780809D01*
X8433571Y-12771286D01*
X8424048Y-12752238D01*
X8424048Y-12742714D01*
X8433571Y-12723667D01*
X8452619Y-12714143D01*
X8481190Y-12714143D01*
X8500238Y-12723667D01*
X8576429Y-12923667D02*
X8585952Y-12914143D01*
X8605000Y-12885571D01*
X8614524Y-12866524D01*
X8624048Y-12837952D01*
X8633571Y-12790333D01*
X8633571Y-12752238D01*
X8624048Y-12704619D01*
X8614524Y-12676048D01*
X8605000Y-12657000D01*
X8585952Y-12628428D01*
X8576429Y-12618905D01*
D20*
X1939999Y-12965999D02*
X1939999Y-13076001D01*
X1884998Y-13021000D02*
X1995000Y-13021000D01*
X1995000Y-13021000D02*
G75*
G03*
X1995000Y-13021000I-55001J0D01*
G01*
D11*
X2357381Y-13111476D02*
X2243095Y-13111476D01*
X2300238Y-13111476D02*
X2300238Y-12911476D01*
X2281190Y-12940048D01*
X2262143Y-12959095D01*
X2243095Y-12968619D01*
X2443095Y-13092428D02*
X2452619Y-13101952D01*
X2443095Y-13111476D01*
X2433571Y-13101952D01*
X2443095Y-13092428D01*
X2443095Y-13111476D01*
X2643095Y-13111476D02*
X2528810Y-13111476D01*
X2585952Y-13111476D02*
X2585952Y-12911476D01*
X2566905Y-12940048D01*
X2547857Y-12959095D01*
X2528810Y-12968619D01*
X2766905Y-12911476D02*
X2785952Y-12911476D01*
X2805000Y-12921000D01*
X2814524Y-12930524D01*
X2824048Y-12949571D01*
X2833571Y-12987667D01*
X2833571Y-13035286D01*
X2824048Y-13073381D01*
X2814524Y-13092428D01*
X2805000Y-13101952D01*
X2785952Y-13111476D01*
X2766905Y-13111476D01*
X2747857Y-13101952D01*
X2738333Y-13092428D01*
X2728810Y-13073381D01*
X2719286Y-13035286D01*
X2719286Y-12987667D01*
X2728810Y-12949571D01*
X2738333Y-12930524D01*
X2747857Y-12921000D01*
X2766905Y-12911476D01*
X2957381Y-12911476D02*
X2976428Y-12911476D01*
X2995476Y-12921000D01*
X3005000Y-12930524D01*
X3014524Y-12949571D01*
X3024048Y-12987667D01*
X3024048Y-13035286D01*
X3014524Y-13073381D01*
X3005000Y-13092428D01*
X2995476Y-13101952D01*
X2976428Y-13111476D01*
X2957381Y-13111476D01*
X2938333Y-13101952D01*
X2928809Y-13092428D01*
X2919286Y-13073381D01*
X2909762Y-13035286D01*
X2909762Y-12987667D01*
X2919286Y-12949571D01*
X2928809Y-12930524D01*
X2938333Y-12921000D01*
X2957381Y-12911476D01*
X3109762Y-13111476D02*
X3109762Y-12978143D01*
X3109762Y-12997190D02*
X3119286Y-12987667D01*
X3138333Y-12978143D01*
X3166905Y-12978143D01*
X3185952Y-12987667D01*
X3195476Y-13006714D01*
X3195476Y-13111476D01*
X3195476Y-13006714D02*
X3205000Y-12987667D01*
X3224048Y-12978143D01*
X3252619Y-12978143D01*
X3271667Y-12987667D01*
X3281190Y-13006714D01*
X3281190Y-13111476D01*
X3376428Y-13111476D02*
X3376428Y-12978143D01*
X3376428Y-12997190D02*
X3385952Y-12987667D01*
X3405000Y-12978143D01*
X3433571Y-12978143D01*
X3452619Y-12987667D01*
X3462143Y-13006714D01*
X3462143Y-13111476D01*
X3462143Y-13006714D02*
X3471667Y-12987667D01*
X3490714Y-12978143D01*
X3519286Y-12978143D01*
X3538333Y-12987667D01*
X3547857Y-13006714D01*
X3547857Y-13111476D01*
X3938333Y-12901952D02*
X3766905Y-13159095D01*
X4195476Y-12911476D02*
X4214524Y-12911476D01*
X4233571Y-12921000D01*
X4243095Y-12930524D01*
X4252619Y-12949571D01*
X4262143Y-12987667D01*
X4262143Y-13035286D01*
X4252619Y-13073381D01*
X4243095Y-13092428D01*
X4233571Y-13101952D01*
X4214524Y-13111476D01*
X4195476Y-13111476D01*
X4176428Y-13101952D01*
X4166905Y-13092428D01*
X4157381Y-13073381D01*
X4147857Y-13035286D01*
X4147857Y-12987667D01*
X4157381Y-12949571D01*
X4166905Y-12930524D01*
X4176428Y-12921000D01*
X4195476Y-12911476D01*
X4347857Y-13092428D02*
X4357381Y-13101952D01*
X4347857Y-13111476D01*
X4338333Y-13101952D01*
X4347857Y-13092428D01*
X4347857Y-13111476D01*
X4481190Y-12911476D02*
X4500238Y-12911476D01*
X4519286Y-12921000D01*
X4528810Y-12930524D01*
X4538333Y-12949571D01*
X4547857Y-12987667D01*
X4547857Y-13035286D01*
X4538333Y-13073381D01*
X4528810Y-13092428D01*
X4519286Y-13101952D01*
X4500238Y-13111476D01*
X4481190Y-13111476D01*
X4462143Y-13101952D01*
X4452619Y-13092428D01*
X4443095Y-13073381D01*
X4433571Y-13035286D01*
X4433571Y-12987667D01*
X4443095Y-12949571D01*
X4452619Y-12930524D01*
X4462143Y-12921000D01*
X4481190Y-12911476D01*
X4719286Y-12978143D02*
X4719286Y-13111476D01*
X4671667Y-12901952D02*
X4624048Y-13044809D01*
X4747857Y-13044809D01*
X4805000Y-12911476D02*
X4928810Y-12911476D01*
X4862143Y-12987667D01*
X4890714Y-12987667D01*
X4909762Y-12997190D01*
X4919286Y-13006714D01*
X4928810Y-13025762D01*
X4928810Y-13073381D01*
X4919286Y-13092428D01*
X4909762Y-13101952D01*
X4890714Y-13111476D01*
X4833571Y-13111476D01*
X4814524Y-13101952D01*
X4805000Y-13092428D01*
X4995476Y-12911476D02*
X5119286Y-12911476D01*
X5052619Y-12987667D01*
X5081190Y-12987667D01*
X5100238Y-12997190D01*
X5109762Y-13006714D01*
X5119286Y-13025762D01*
X5119286Y-13073381D01*
X5109762Y-13092428D01*
X5100238Y-13101952D01*
X5081190Y-13111476D01*
X5024048Y-13111476D01*
X5005000Y-13101952D01*
X4995476Y-13092428D01*
X5195476Y-12911476D02*
X5195476Y-12949571D01*
X5271667Y-12911476D02*
X5271667Y-12949571D01*
X5566905Y-13187667D02*
X5557381Y-13178143D01*
X5538333Y-13149571D01*
X5528810Y-13130524D01*
X5519286Y-13101952D01*
X5509762Y-13054333D01*
X5509762Y-13016238D01*
X5519286Y-12968619D01*
X5528810Y-12940048D01*
X5538333Y-12921000D01*
X5557381Y-12892428D01*
X5566905Y-12882905D01*
X5728809Y-12978143D02*
X5728809Y-13111476D01*
X5681190Y-12901952D02*
X5633571Y-13044809D01*
X5757381Y-13044809D01*
X5985952Y-13111476D02*
X5985952Y-12911476D01*
X6071667Y-13111476D02*
X6071667Y-13006714D01*
X6062143Y-12987667D01*
X6043095Y-12978143D01*
X6014524Y-12978143D01*
X5995476Y-12987667D01*
X5985952Y-12997190D01*
X6195476Y-13111476D02*
X6176428Y-13101952D01*
X6166905Y-13092428D01*
X6157381Y-13073381D01*
X6157381Y-13016238D01*
X6166905Y-12997190D01*
X6176428Y-12987667D01*
X6195476Y-12978143D01*
X6224048Y-12978143D01*
X6243095Y-12987667D01*
X6252619Y-12997190D01*
X6262143Y-13016238D01*
X6262143Y-13073381D01*
X6252619Y-13092428D01*
X6243095Y-13101952D01*
X6224048Y-13111476D01*
X6195476Y-13111476D01*
X6376428Y-13111476D02*
X6357381Y-13101952D01*
X6347857Y-13082905D01*
X6347857Y-12911476D01*
X6528809Y-13101952D02*
X6509762Y-13111476D01*
X6471667Y-13111476D01*
X6452619Y-13101952D01*
X6443095Y-13082905D01*
X6443095Y-13006714D01*
X6452619Y-12987667D01*
X6471667Y-12978143D01*
X6509762Y-12978143D01*
X6528809Y-12987667D01*
X6538333Y-13006714D01*
X6538333Y-13025762D01*
X6443095Y-13044809D01*
X6614524Y-13101952D02*
X6633571Y-13111476D01*
X6671667Y-13111476D01*
X6690714Y-13101952D01*
X6700238Y-13082905D01*
X6700238Y-13073381D01*
X6690714Y-13054333D01*
X6671667Y-13044809D01*
X6643095Y-13044809D01*
X6624048Y-13035286D01*
X6614524Y-13016238D01*
X6614524Y-13006714D01*
X6624048Y-12987667D01*
X6643095Y-12978143D01*
X6671667Y-12978143D01*
X6690714Y-12987667D01*
X6766905Y-13187667D02*
X6776428Y-13178143D01*
X6795476Y-13149571D01*
X6805000Y-13130524D01*
X6814524Y-13101952D01*
X6824048Y-13054333D01*
X6824048Y-13016238D01*
X6814524Y-12968619D01*
X6805000Y-12940048D01*
X6795476Y-12921000D01*
X6776428Y-12892428D01*
X6766905Y-12882905D01*
D21*
X1974498Y-13334498D02*
X1974498Y-13235502D01*
X1875502Y-13235502D01*
X1875502Y-13334498D01*
X1974498Y-13334498D01*
X1995000Y-13285000D02*
G75*
G03*
X1995000Y-13285000I-70000J0D01*
G01*
D11*
X2357381Y-13375476D02*
X2243095Y-13375476D01*
X2300238Y-13375476D02*
X2300238Y-13175476D01*
X2281190Y-13204048D01*
X2262143Y-13223095D01*
X2243095Y-13232619D01*
X2443095Y-13356428D02*
X2452619Y-13365952D01*
X2443095Y-13375476D01*
X2433571Y-13365952D01*
X2443095Y-13356428D01*
X2443095Y-13375476D01*
X2624048Y-13242143D02*
X2624048Y-13375476D01*
X2576429Y-13165952D02*
X2528810Y-13308809D01*
X2652619Y-13308809D01*
X2766905Y-13175476D02*
X2785952Y-13175476D01*
X2805000Y-13185000D01*
X2814524Y-13194524D01*
X2824048Y-13213571D01*
X2833571Y-13251667D01*
X2833571Y-13299286D01*
X2824048Y-13337381D01*
X2814524Y-13356428D01*
X2805000Y-13365952D01*
X2785952Y-13375476D01*
X2766905Y-13375476D01*
X2747857Y-13365952D01*
X2738333Y-13356428D01*
X2728810Y-13337381D01*
X2719286Y-13299286D01*
X2719286Y-13251667D01*
X2728810Y-13213571D01*
X2738333Y-13194524D01*
X2747857Y-13185000D01*
X2766905Y-13175476D01*
X2957381Y-13175476D02*
X2976428Y-13175476D01*
X2995476Y-13185000D01*
X3005000Y-13194524D01*
X3014524Y-13213571D01*
X3024048Y-13251667D01*
X3024048Y-13299286D01*
X3014524Y-13337381D01*
X3005000Y-13356428D01*
X2995476Y-13365952D01*
X2976428Y-13375476D01*
X2957381Y-13375476D01*
X2938333Y-13365952D01*
X2928809Y-13356428D01*
X2919286Y-13337381D01*
X2909762Y-13299286D01*
X2909762Y-13251667D01*
X2919286Y-13213571D01*
X2928809Y-13194524D01*
X2938333Y-13185000D01*
X2957381Y-13175476D01*
X3109762Y-13375476D02*
X3109762Y-13242143D01*
X3109762Y-13261190D02*
X3119286Y-13251667D01*
X3138333Y-13242143D01*
X3166905Y-13242143D01*
X3185952Y-13251667D01*
X3195476Y-13270714D01*
X3195476Y-13375476D01*
X3195476Y-13270714D02*
X3205000Y-13251667D01*
X3224048Y-13242143D01*
X3252619Y-13242143D01*
X3271667Y-13251667D01*
X3281190Y-13270714D01*
X3281190Y-13375476D01*
X3376428Y-13375476D02*
X3376428Y-13242143D01*
X3376428Y-13261190D02*
X3385952Y-13251667D01*
X3405000Y-13242143D01*
X3433571Y-13242143D01*
X3452619Y-13251667D01*
X3462143Y-13270714D01*
X3462143Y-13375476D01*
X3462143Y-13270714D02*
X3471667Y-13251667D01*
X3490714Y-13242143D01*
X3519286Y-13242143D01*
X3538333Y-13251667D01*
X3547857Y-13270714D01*
X3547857Y-13375476D01*
X3938333Y-13165952D02*
X3766905Y-13423095D01*
X4195476Y-13175476D02*
X4214524Y-13175476D01*
X4233571Y-13185000D01*
X4243095Y-13194524D01*
X4252619Y-13213571D01*
X4262143Y-13251667D01*
X4262143Y-13299286D01*
X4252619Y-13337381D01*
X4243095Y-13356428D01*
X4233571Y-13365952D01*
X4214524Y-13375476D01*
X4195476Y-13375476D01*
X4176428Y-13365952D01*
X4166905Y-13356428D01*
X4157381Y-13337381D01*
X4147857Y-13299286D01*
X4147857Y-13251667D01*
X4157381Y-13213571D01*
X4166905Y-13194524D01*
X4176428Y-13185000D01*
X4195476Y-13175476D01*
X4347857Y-13356428D02*
X4357381Y-13365952D01*
X4347857Y-13375476D01*
X4338333Y-13365952D01*
X4347857Y-13356428D01*
X4347857Y-13375476D01*
X4481190Y-13175476D02*
X4500238Y-13175476D01*
X4519286Y-13185000D01*
X4528810Y-13194524D01*
X4538333Y-13213571D01*
X4547857Y-13251667D01*
X4547857Y-13299286D01*
X4538333Y-13337381D01*
X4528810Y-13356428D01*
X4519286Y-13365952D01*
X4500238Y-13375476D01*
X4481190Y-13375476D01*
X4462143Y-13365952D01*
X4452619Y-13356428D01*
X4443095Y-13337381D01*
X4433571Y-13299286D01*
X4433571Y-13251667D01*
X4443095Y-13213571D01*
X4452619Y-13194524D01*
X4462143Y-13185000D01*
X4481190Y-13175476D01*
X4728810Y-13175476D02*
X4633571Y-13175476D01*
X4624048Y-13270714D01*
X4633571Y-13261190D01*
X4652619Y-13251667D01*
X4700238Y-13251667D01*
X4719286Y-13261190D01*
X4728810Y-13270714D01*
X4738333Y-13289762D01*
X4738333Y-13337381D01*
X4728810Y-13356428D01*
X4719286Y-13365952D01*
X4700238Y-13375476D01*
X4652619Y-13375476D01*
X4633571Y-13365952D01*
X4624048Y-13356428D01*
X4919286Y-13175476D02*
X4824048Y-13175476D01*
X4814524Y-13270714D01*
X4824048Y-13261190D01*
X4843095Y-13251667D01*
X4890714Y-13251667D01*
X4909762Y-13261190D01*
X4919286Y-13270714D01*
X4928810Y-13289762D01*
X4928810Y-13337381D01*
X4919286Y-13356428D01*
X4909762Y-13365952D01*
X4890714Y-13375476D01*
X4843095Y-13375476D01*
X4824048Y-13365952D01*
X4814524Y-13356428D01*
X5119286Y-13375476D02*
X5005000Y-13375476D01*
X5062143Y-13375476D02*
X5062143Y-13175476D01*
X5043095Y-13204048D01*
X5024048Y-13223095D01*
X5005000Y-13232619D01*
X5195476Y-13175476D02*
X5195476Y-13213571D01*
X5271667Y-13175476D02*
X5271667Y-13213571D01*
X5566905Y-13451667D02*
X5557381Y-13442143D01*
X5538333Y-13413571D01*
X5528810Y-13394524D01*
X5519286Y-13365952D01*
X5509762Y-13318333D01*
X5509762Y-13280238D01*
X5519286Y-13232619D01*
X5528810Y-13204048D01*
X5538333Y-13185000D01*
X5557381Y-13156428D01*
X5566905Y-13146905D01*
X5624048Y-13175476D02*
X5747857Y-13175476D01*
X5681190Y-13251667D01*
X5709762Y-13251667D01*
X5728809Y-13261190D01*
X5738333Y-13270714D01*
X5747857Y-13289762D01*
X5747857Y-13337381D01*
X5738333Y-13356428D01*
X5728809Y-13365952D01*
X5709762Y-13375476D01*
X5652619Y-13375476D01*
X5633571Y-13365952D01*
X5624048Y-13356428D01*
X5985952Y-13375476D02*
X5985952Y-13175476D01*
X6071667Y-13375476D02*
X6071667Y-13270714D01*
X6062143Y-13251667D01*
X6043095Y-13242143D01*
X6014524Y-13242143D01*
X5995476Y-13251667D01*
X5985952Y-13261190D01*
X6195476Y-13375476D02*
X6176428Y-13365952D01*
X6166905Y-13356428D01*
X6157381Y-13337381D01*
X6157381Y-13280238D01*
X6166905Y-13261190D01*
X6176428Y-13251667D01*
X6195476Y-13242143D01*
X6224048Y-13242143D01*
X6243095Y-13251667D01*
X6252619Y-13261190D01*
X6262143Y-13280238D01*
X6262143Y-13337381D01*
X6252619Y-13356428D01*
X6243095Y-13365952D01*
X6224048Y-13375476D01*
X6195476Y-13375476D01*
X6376428Y-13375476D02*
X6357381Y-13365952D01*
X6347857Y-13346905D01*
X6347857Y-13175476D01*
X6528809Y-13365952D02*
X6509762Y-13375476D01*
X6471667Y-13375476D01*
X6452619Y-13365952D01*
X6443095Y-13346905D01*
X6443095Y-13270714D01*
X6452619Y-13251667D01*
X6471667Y-13242143D01*
X6509762Y-13242143D01*
X6528809Y-13251667D01*
X6538333Y-13270714D01*
X6538333Y-13289762D01*
X6443095Y-13308809D01*
X6614524Y-13365952D02*
X6633571Y-13375476D01*
X6671667Y-13375476D01*
X6690714Y-13365952D01*
X6700238Y-13346905D01*
X6700238Y-13337381D01*
X6690714Y-13318333D01*
X6671667Y-13308809D01*
X6643095Y-13308809D01*
X6624048Y-13299286D01*
X6614524Y-13280238D01*
X6614524Y-13270714D01*
X6624048Y-13251667D01*
X6643095Y-13242143D01*
X6671667Y-13242143D01*
X6690714Y-13251667D01*
X6766905Y-13451667D02*
X6776428Y-13442143D01*
X6795476Y-13413571D01*
X6805000Y-13394524D01*
X6814524Y-13365952D01*
X6824048Y-13318333D01*
X6824048Y-13280238D01*
X6814524Y-13232619D01*
X6805000Y-13204048D01*
X6795476Y-13185000D01*
X6776428Y-13156428D01*
X6766905Y-13146905D01*
D22*
X1913499Y-13630501D02*
X1995000Y-13549000D01*
X1913499Y-13467499D01*
X1831998Y-13549000D01*
X1913499Y-13630501D01*
X1995000Y-13549000D02*
G75*
G03*
X1995000Y-13549000I-81501J0D01*
G01*
D11*
X2357381Y-13639476D02*
X2243095Y-13639476D01*
X2300238Y-13639476D02*
X2300238Y-13439476D01*
X2281190Y-13468048D01*
X2262143Y-13487095D01*
X2243095Y-13496619D01*
X2443095Y-13620428D02*
X2452619Y-13629952D01*
X2443095Y-13639476D01*
X2433571Y-13629952D01*
X2443095Y-13620428D01*
X2443095Y-13639476D01*
X2624048Y-13439476D02*
X2585952Y-13439476D01*
X2566905Y-13449000D01*
X2557381Y-13458524D01*
X2538333Y-13487095D01*
X2528810Y-13525190D01*
X2528810Y-13601381D01*
X2538333Y-13620428D01*
X2547857Y-13629952D01*
X2566905Y-13639476D01*
X2605000Y-13639476D01*
X2624048Y-13629952D01*
X2633571Y-13620428D01*
X2643095Y-13601381D01*
X2643095Y-13553762D01*
X2633571Y-13534714D01*
X2624048Y-13525190D01*
X2605000Y-13515667D01*
X2566905Y-13515667D01*
X2547857Y-13525190D01*
X2538333Y-13534714D01*
X2528810Y-13553762D01*
X2709762Y-13439476D02*
X2833571Y-13439476D01*
X2766905Y-13515667D01*
X2795476Y-13515667D01*
X2814524Y-13525190D01*
X2824048Y-13534714D01*
X2833571Y-13553762D01*
X2833571Y-13601381D01*
X2824048Y-13620428D01*
X2814524Y-13629952D01*
X2795476Y-13639476D01*
X2738333Y-13639476D01*
X2719286Y-13629952D01*
X2709762Y-13620428D01*
X2957381Y-13439476D02*
X2976428Y-13439476D01*
X2995476Y-13449000D01*
X3005000Y-13458524D01*
X3014524Y-13477571D01*
X3024048Y-13515667D01*
X3024048Y-13563286D01*
X3014524Y-13601381D01*
X3005000Y-13620428D01*
X2995476Y-13629952D01*
X2976428Y-13639476D01*
X2957381Y-13639476D01*
X2938333Y-13629952D01*
X2928809Y-13620428D01*
X2919286Y-13601381D01*
X2909762Y-13563286D01*
X2909762Y-13515667D01*
X2919286Y-13477571D01*
X2928809Y-13458524D01*
X2938333Y-13449000D01*
X2957381Y-13439476D01*
X3109762Y-13639476D02*
X3109762Y-13506143D01*
X3109762Y-13525190D02*
X3119286Y-13515667D01*
X3138333Y-13506143D01*
X3166905Y-13506143D01*
X3185952Y-13515667D01*
X3195476Y-13534714D01*
X3195476Y-13639476D01*
X3195476Y-13534714D02*
X3205000Y-13515667D01*
X3224048Y-13506143D01*
X3252619Y-13506143D01*
X3271667Y-13515667D01*
X3281190Y-13534714D01*
X3281190Y-13639476D01*
X3376428Y-13639476D02*
X3376428Y-13506143D01*
X3376428Y-13525190D02*
X3385952Y-13515667D01*
X3405000Y-13506143D01*
X3433571Y-13506143D01*
X3452619Y-13515667D01*
X3462143Y-13534714D01*
X3462143Y-13639476D01*
X3462143Y-13534714D02*
X3471667Y-13515667D01*
X3490714Y-13506143D01*
X3519286Y-13506143D01*
X3538333Y-13515667D01*
X3547857Y-13534714D01*
X3547857Y-13639476D01*
X3938333Y-13429952D02*
X3766905Y-13687095D01*
X4195476Y-13439476D02*
X4214524Y-13439476D01*
X4233571Y-13449000D01*
X4243095Y-13458524D01*
X4252619Y-13477571D01*
X4262143Y-13515667D01*
X4262143Y-13563286D01*
X4252619Y-13601381D01*
X4243095Y-13620428D01*
X4233571Y-13629952D01*
X4214524Y-13639476D01*
X4195476Y-13639476D01*
X4176428Y-13629952D01*
X4166905Y-13620428D01*
X4157381Y-13601381D01*
X4147857Y-13563286D01*
X4147857Y-13515667D01*
X4157381Y-13477571D01*
X4166905Y-13458524D01*
X4176428Y-13449000D01*
X4195476Y-13439476D01*
X4347857Y-13620428D02*
X4357381Y-13629952D01*
X4347857Y-13639476D01*
X4338333Y-13629952D01*
X4347857Y-13620428D01*
X4347857Y-13639476D01*
X4481190Y-13439476D02*
X4500238Y-13439476D01*
X4519286Y-13449000D01*
X4528810Y-13458524D01*
X4538333Y-13477571D01*
X4547857Y-13515667D01*
X4547857Y-13563286D01*
X4538333Y-13601381D01*
X4528810Y-13620428D01*
X4519286Y-13629952D01*
X4500238Y-13639476D01*
X4481190Y-13639476D01*
X4462143Y-13629952D01*
X4452619Y-13620428D01*
X4443095Y-13601381D01*
X4433571Y-13563286D01*
X4433571Y-13515667D01*
X4443095Y-13477571D01*
X4452619Y-13458524D01*
X4462143Y-13449000D01*
X4481190Y-13439476D01*
X4719286Y-13439476D02*
X4681190Y-13439476D01*
X4662143Y-13449000D01*
X4652619Y-13458524D01*
X4633571Y-13487095D01*
X4624048Y-13525190D01*
X4624048Y-13601381D01*
X4633571Y-13620428D01*
X4643095Y-13629952D01*
X4662143Y-13639476D01*
X4700238Y-13639476D01*
X4719286Y-13629952D01*
X4728810Y-13620428D01*
X4738333Y-13601381D01*
X4738333Y-13553762D01*
X4728810Y-13534714D01*
X4719286Y-13525190D01*
X4700238Y-13515667D01*
X4662143Y-13515667D01*
X4643095Y-13525190D01*
X4633571Y-13534714D01*
X4624048Y-13553762D01*
X4909762Y-13506143D02*
X4909762Y-13639476D01*
X4862143Y-13429952D02*
X4814524Y-13572809D01*
X4938333Y-13572809D01*
X5005000Y-13458524D02*
X5014524Y-13449000D01*
X5033571Y-13439476D01*
X5081190Y-13439476D01*
X5100238Y-13449000D01*
X5109762Y-13458524D01*
X5119286Y-13477571D01*
X5119286Y-13496619D01*
X5109762Y-13525190D01*
X4995476Y-13639476D01*
X5119286Y-13639476D01*
X5195476Y-13439476D02*
X5195476Y-13477571D01*
X5271667Y-13439476D02*
X5271667Y-13477571D01*
X5566905Y-13715667D02*
X5557381Y-13706143D01*
X5538333Y-13677571D01*
X5528810Y-13658524D01*
X5519286Y-13629952D01*
X5509762Y-13582333D01*
X5509762Y-13544238D01*
X5519286Y-13496619D01*
X5528810Y-13468048D01*
X5538333Y-13449000D01*
X5557381Y-13420428D01*
X5566905Y-13410905D01*
X5633571Y-13458524D02*
X5643095Y-13449000D01*
X5662143Y-13439476D01*
X5709762Y-13439476D01*
X5728809Y-13449000D01*
X5738333Y-13458524D01*
X5747857Y-13477571D01*
X5747857Y-13496619D01*
X5738333Y-13525190D01*
X5624048Y-13639476D01*
X5747857Y-13639476D01*
X5985952Y-13639476D02*
X5985952Y-13439476D01*
X6071667Y-13639476D02*
X6071667Y-13534714D01*
X6062143Y-13515667D01*
X6043095Y-13506143D01*
X6014524Y-13506143D01*
X5995476Y-13515667D01*
X5985952Y-13525190D01*
X6195476Y-13639476D02*
X6176428Y-13629952D01*
X6166905Y-13620428D01*
X6157381Y-13601381D01*
X6157381Y-13544238D01*
X6166905Y-13525190D01*
X6176428Y-13515667D01*
X6195476Y-13506143D01*
X6224048Y-13506143D01*
X6243095Y-13515667D01*
X6252619Y-13525190D01*
X6262143Y-13544238D01*
X6262143Y-13601381D01*
X6252619Y-13620428D01*
X6243095Y-13629952D01*
X6224048Y-13639476D01*
X6195476Y-13639476D01*
X6376428Y-13639476D02*
X6357381Y-13629952D01*
X6347857Y-13610905D01*
X6347857Y-13439476D01*
X6528809Y-13629952D02*
X6509762Y-13639476D01*
X6471667Y-13639476D01*
X6452619Y-13629952D01*
X6443095Y-13610905D01*
X6443095Y-13534714D01*
X6452619Y-13515667D01*
X6471667Y-13506143D01*
X6509762Y-13506143D01*
X6528809Y-13515667D01*
X6538333Y-13534714D01*
X6538333Y-13553762D01*
X6443095Y-13572809D01*
X6614524Y-13629952D02*
X6633571Y-13639476D01*
X6671667Y-13639476D01*
X6690714Y-13629952D01*
X6700238Y-13610905D01*
X6700238Y-13601381D01*
X6690714Y-13582333D01*
X6671667Y-13572809D01*
X6643095Y-13572809D01*
X6624048Y-13563286D01*
X6614524Y-13544238D01*
X6614524Y-13534714D01*
X6624048Y-13515667D01*
X6643095Y-13506143D01*
X6671667Y-13506143D01*
X6690714Y-13515667D01*
X6766905Y-13715667D02*
X6776428Y-13706143D01*
X6795476Y-13677571D01*
X6805000Y-13658524D01*
X6814524Y-13629952D01*
X6824048Y-13582333D01*
X6824048Y-13544238D01*
X6814524Y-13496619D01*
X6805000Y-13468048D01*
X6795476Y-13449000D01*
X6776428Y-13420428D01*
X6766905Y-13410905D01*
X1895000Y-13732002D02*
X1895000Y-13932002D01*
X1795000Y-13832002D02*
X1995000Y-13832002D01*
X1965711Y-13902713D02*
X1965711Y-13761291D01*
X1824289Y-13761291D01*
X1824289Y-13902713D01*
X1965711Y-13902713D01*
X2233571Y-13722478D02*
X2357381Y-13722478D01*
X2290714Y-13798669D01*
X2319286Y-13798669D01*
X2338333Y-13808192D01*
X2347857Y-13817716D01*
X2357381Y-13836764D01*
X2357381Y-13884383D01*
X2347857Y-13903430D01*
X2338333Y-13912954D01*
X2319286Y-13922478D01*
X2262143Y-13922478D01*
X2243095Y-13912954D01*
X2233571Y-13903430D01*
X2443095Y-13903430D02*
X2452619Y-13912954D01*
X2443095Y-13922478D01*
X2433571Y-13912954D01*
X2443095Y-13903430D01*
X2443095Y-13922478D01*
X2528810Y-13741526D02*
X2538333Y-13732002D01*
X2557381Y-13722478D01*
X2605000Y-13722478D01*
X2624048Y-13732002D01*
X2633571Y-13741526D01*
X2643095Y-13760573D01*
X2643095Y-13779621D01*
X2633571Y-13808192D01*
X2519286Y-13922478D01*
X2643095Y-13922478D01*
X2766905Y-13722478D02*
X2785952Y-13722478D01*
X2805000Y-13732002D01*
X2814524Y-13741526D01*
X2824048Y-13760573D01*
X2833571Y-13798669D01*
X2833571Y-13846288D01*
X2824048Y-13884383D01*
X2814524Y-13903430D01*
X2805000Y-13912954D01*
X2785952Y-13922478D01*
X2766905Y-13922478D01*
X2747857Y-13912954D01*
X2738333Y-13903430D01*
X2728810Y-13884383D01*
X2719286Y-13846288D01*
X2719286Y-13798669D01*
X2728810Y-13760573D01*
X2738333Y-13741526D01*
X2747857Y-13732002D01*
X2766905Y-13722478D01*
X2957381Y-13722478D02*
X2976428Y-13722478D01*
X2995476Y-13732002D01*
X3005000Y-13741526D01*
X3014524Y-13760573D01*
X3024048Y-13798669D01*
X3024048Y-13846288D01*
X3014524Y-13884383D01*
X3005000Y-13903430D01*
X2995476Y-13912954D01*
X2976428Y-13922478D01*
X2957381Y-13922478D01*
X2938333Y-13912954D01*
X2928809Y-13903430D01*
X2919286Y-13884383D01*
X2909762Y-13846288D01*
X2909762Y-13798669D01*
X2919286Y-13760573D01*
X2928809Y-13741526D01*
X2938333Y-13732002D01*
X2957381Y-13722478D01*
X3109762Y-13922478D02*
X3109762Y-13789145D01*
X3109762Y-13808192D02*
X3119286Y-13798669D01*
X3138333Y-13789145D01*
X3166905Y-13789145D01*
X3185952Y-13798669D01*
X3195476Y-13817716D01*
X3195476Y-13922478D01*
X3195476Y-13817716D02*
X3205000Y-13798669D01*
X3224048Y-13789145D01*
X3252619Y-13789145D01*
X3271667Y-13798669D01*
X3281190Y-13817716D01*
X3281190Y-13922478D01*
X3376428Y-13922478D02*
X3376428Y-13789145D01*
X3376428Y-13808192D02*
X3385952Y-13798669D01*
X3405000Y-13789145D01*
X3433571Y-13789145D01*
X3452619Y-13798669D01*
X3462143Y-13817716D01*
X3462143Y-13922478D01*
X3462143Y-13817716D02*
X3471667Y-13798669D01*
X3490714Y-13789145D01*
X3519286Y-13789145D01*
X3538333Y-13798669D01*
X3547857Y-13817716D01*
X3547857Y-13922478D01*
X3938333Y-13712954D02*
X3766905Y-13970097D01*
X4195476Y-13722478D02*
X4214524Y-13722478D01*
X4233571Y-13732002D01*
X4243095Y-13741526D01*
X4252619Y-13760573D01*
X4262143Y-13798669D01*
X4262143Y-13846288D01*
X4252619Y-13884383D01*
X4243095Y-13903430D01*
X4233571Y-13912954D01*
X4214524Y-13922478D01*
X4195476Y-13922478D01*
X4176428Y-13912954D01*
X4166905Y-13903430D01*
X4157381Y-13884383D01*
X4147857Y-13846288D01*
X4147857Y-13798669D01*
X4157381Y-13760573D01*
X4166905Y-13741526D01*
X4176428Y-13732002D01*
X4195476Y-13722478D01*
X4347857Y-13903430D02*
X4357381Y-13912954D01*
X4347857Y-13922478D01*
X4338333Y-13912954D01*
X4347857Y-13903430D01*
X4347857Y-13922478D01*
X4547857Y-13922478D02*
X4433571Y-13922478D01*
X4490714Y-13922478D02*
X4490714Y-13722478D01*
X4471667Y-13751050D01*
X4452619Y-13770097D01*
X4433571Y-13779621D01*
X4624048Y-13741526D02*
X4633571Y-13732002D01*
X4652619Y-13722478D01*
X4700238Y-13722478D01*
X4719286Y-13732002D01*
X4728810Y-13741526D01*
X4738333Y-13760573D01*
X4738333Y-13779621D01*
X4728810Y-13808192D01*
X4614524Y-13922478D01*
X4738333Y-13922478D01*
X4909762Y-13722478D02*
X4871667Y-13722478D01*
X4852619Y-13732002D01*
X4843095Y-13741526D01*
X4824048Y-13770097D01*
X4814524Y-13808192D01*
X4814524Y-13884383D01*
X4824048Y-13903430D01*
X4833571Y-13912954D01*
X4852619Y-13922478D01*
X4890714Y-13922478D01*
X4909762Y-13912954D01*
X4919286Y-13903430D01*
X4928810Y-13884383D01*
X4928810Y-13836764D01*
X4919286Y-13817716D01*
X4909762Y-13808192D01*
X4890714Y-13798669D01*
X4852619Y-13798669D01*
X4833571Y-13808192D01*
X4824048Y-13817716D01*
X4814524Y-13836764D01*
X5052619Y-13722478D02*
X5071667Y-13722478D01*
X5090714Y-13732002D01*
X5100238Y-13741526D01*
X5109762Y-13760573D01*
X5119286Y-13798669D01*
X5119286Y-13846288D01*
X5109762Y-13884383D01*
X5100238Y-13903430D01*
X5090714Y-13912954D01*
X5071667Y-13922478D01*
X5052619Y-13922478D01*
X5033571Y-13912954D01*
X5024048Y-13903430D01*
X5014524Y-13884383D01*
X5005000Y-13846288D01*
X5005000Y-13798669D01*
X5014524Y-13760573D01*
X5024048Y-13741526D01*
X5033571Y-13732002D01*
X5052619Y-13722478D01*
X5195476Y-13722478D02*
X5195476Y-13760573D01*
X5271667Y-13722478D02*
X5271667Y-13760573D01*
X5566905Y-13998669D02*
X5557381Y-13989145D01*
X5538333Y-13960573D01*
X5528810Y-13941526D01*
X5519286Y-13912954D01*
X5509762Y-13865335D01*
X5509762Y-13827240D01*
X5519286Y-13779621D01*
X5528810Y-13751050D01*
X5538333Y-13732002D01*
X5557381Y-13703430D01*
X5566905Y-13693907D01*
X5633571Y-13741526D02*
X5643095Y-13732002D01*
X5662143Y-13722478D01*
X5709762Y-13722478D01*
X5728809Y-13732002D01*
X5738333Y-13741526D01*
X5747857Y-13760573D01*
X5747857Y-13779621D01*
X5738333Y-13808192D01*
X5624048Y-13922478D01*
X5747857Y-13922478D01*
X5985952Y-13922478D02*
X5985952Y-13722478D01*
X6071667Y-13922478D02*
X6071667Y-13817716D01*
X6062143Y-13798669D01*
X6043095Y-13789145D01*
X6014524Y-13789145D01*
X5995476Y-13798669D01*
X5985952Y-13808192D01*
X6195476Y-13922478D02*
X6176428Y-13912954D01*
X6166905Y-13903430D01*
X6157381Y-13884383D01*
X6157381Y-13827240D01*
X6166905Y-13808192D01*
X6176428Y-13798669D01*
X6195476Y-13789145D01*
X6224048Y-13789145D01*
X6243095Y-13798669D01*
X6252619Y-13808192D01*
X6262143Y-13827240D01*
X6262143Y-13884383D01*
X6252619Y-13903430D01*
X6243095Y-13912954D01*
X6224048Y-13922478D01*
X6195476Y-13922478D01*
X6376428Y-13922478D02*
X6357381Y-13912954D01*
X6347857Y-13893907D01*
X6347857Y-13722478D01*
X6528809Y-13912954D02*
X6509762Y-13922478D01*
X6471667Y-13922478D01*
X6452619Y-13912954D01*
X6443095Y-13893907D01*
X6443095Y-13817716D01*
X6452619Y-13798669D01*
X6471667Y-13789145D01*
X6509762Y-13789145D01*
X6528809Y-13798669D01*
X6538333Y-13817716D01*
X6538333Y-13836764D01*
X6443095Y-13855811D01*
X6614524Y-13912954D02*
X6633571Y-13922478D01*
X6671667Y-13922478D01*
X6690714Y-13912954D01*
X6700238Y-13893907D01*
X6700238Y-13884383D01*
X6690714Y-13865335D01*
X6671667Y-13855811D01*
X6643095Y-13855811D01*
X6624048Y-13846288D01*
X6614524Y-13827240D01*
X6614524Y-13817716D01*
X6624048Y-13798669D01*
X6643095Y-13789145D01*
X6671667Y-13789145D01*
X6690714Y-13798669D01*
X6766905Y-13998669D02*
X6776428Y-13989145D01*
X6795476Y-13960573D01*
X6805000Y-13941526D01*
X6814524Y-13912954D01*
X6824048Y-13865335D01*
X6824048Y-13827240D01*
X6814524Y-13779621D01*
X6805000Y-13751050D01*
X6795476Y-13732002D01*
X6776428Y-13703430D01*
X6766905Y-13693907D01*
M02*
