M48
; DRILL file {KiCad (6.0.8-1)-1} date Thursday, 24 November 2022 at 03:45:06
; FORMAT={-:-/ absolute / metric / decimal}
; #@! TF.CreationDate,2022-11-24T03:45:06+08:00
; #@! TF.GenerationSoftware,Kicad,Pcbnew,(6.0.8-1)-1
; #@! TF.FileFunction,Plated,1,4,PTH
FMAT,2
METRIC
; #@! TA.AperFunction,Plated,PTH,ViaDrill
T1C0.200
; #@! TA.AperFunction,Plated,PTH,ViaDrill
T2C0.300
; #@! TA.AperFunction,Plated,PTH,ViaDrill
T3C0.400
; #@! TA.AperFunction,Plated,PTH,ComponentDrill
T4C0.500
; #@! TA.AperFunction,Plated,PTH,ComponentDrill
T5C0.550
; #@! TA.AperFunction,Plated,PTH,ComponentDrill
T6C0.600
; #@! TA.AperFunction,Plated,PTH,ComponentDrill
T7C0.914
; #@! TA.AperFunction,Plated,PTH,ComponentDrill
T8C1.000
; #@! TA.AperFunction,Plated,PTH,ComponentDrill
T9C1.000
; #@! TA.AperFunction,Plated,PTH,ComponentDrill
T10C1.100
; #@! TA.AperFunction,Plated,PTH,ComponentDrill
T11C1.400
; #@! TA.AperFunction,Plated,PTH,ComponentDrill
T12C1.630
; #@! TA.AperFunction,Plated,PTH,ComponentDrill
T13C3.200
%
G90
G05
T1
X43.8Y-61.7
X43.8Y-69.4
X43.8Y-70.5
X44.3Y-70.0
X44.3Y-71.0
X44.4Y-62.2
X45.3Y-67.2
X45.6Y-65.0
X45.6Y-66.5
X45.8Y-62.3
X46.2Y-94.8
X46.456Y-65.0
X46.5Y-60.665
X46.6Y-62.3
X47.2Y-64.5
X47.2Y-65.4
X47.4Y-59.0
X47.4Y-59.8
X47.4Y-60.665
X47.5Y-68.814
X47.5Y-69.7
X47.6Y-74.2
X47.6Y-75.0
X50.0Y-72.8
X50.3Y-63.9
X51.2Y-54.7
X51.3Y-63.9
X51.5Y-66.6
X52.3Y-63.9
X52.4Y-66.6
X53.1Y-58.3
X53.1Y-59.4
X53.3Y-63.9
X53.3Y-68.0
X53.7Y-57.7
X53.8Y-59.0
X54.3Y-68.0
X55.6Y-72.6
X56.45Y-71.738
X56.5Y-72.6
X56.745Y-74.999
X57.4Y-68.5
X57.5Y-74.425
X57.5Y-75.2
X57.606Y-73.206
X58.1Y-73.8
X59.5Y-67.6
X59.6Y-75.5
X59.691Y-66.003
X59.7Y-71.7
X59.8Y-72.5
X60.0Y-65.3
X60.5Y-82.4
X61.894Y-71.294
X62.2Y-74.219
X62.7Y-58.4
X62.7Y-59.3
X62.7Y-60.3
X62.7Y-61.1
X63.2Y-70.674
X63.2Y-74.219
X63.8Y-65.2
X63.8Y-66.0
X63.8Y-66.9
X63.8Y-67.7
X63.8Y-69.5
X63.855Y-71.137
X64.2Y-68.9
X64.2Y-79.4
X64.3Y-70.1
X65.1Y-75.02
X65.9Y-70.7
X65.9Y-88.3
X65.9Y-89.9
X66.1Y-60.2
X66.1Y-61.0
X66.35Y-29.24
X67.0Y-58.8
X67.0Y-59.6
X68.0Y-71.0
X69.2Y-98.61
X69.5Y-69.0
X70.3Y-55.4
X70.3Y-69.7
X71.1Y-55.6
X71.413Y-70.4
X71.5Y-54.3
X72.0Y-41.2
X72.2Y-97.0
X72.3Y-70.4
X72.4Y-59.7
X72.425Y-58.9
X72.7Y-54.9
X72.7Y-55.7
X72.785Y-52.805
X73.2Y-59.7
X73.3Y-70.4
X73.3Y-71.2
X73.9Y-54.849
X74.0Y-42.4
X74.4Y-71.2
X74.657Y-54.849
X74.9Y-44.3
X74.9Y-64.7
X75.0Y-41.0
X75.1Y-38.4
X75.1Y-55.5
X75.2Y-43.3
X75.2Y-70.4
X75.225Y-74.814
X75.385Y-47.405
X75.8Y-76.2
X75.89Y-55.4
X75.9Y-56.2
X76.0Y-57.0
X76.4Y-57.9
X76.4Y-80.2
X76.4Y-82.8
X76.6Y-71.5
X76.724Y-49.899
X76.75Y-44.5
X76.75Y-45.25
X76.75Y-46.0
X76.8Y-46.8
X76.8Y-85.6
X76.9Y-72.8
X76.9Y-73.6
X76.9Y-77.5
X77.4Y-55.4
X77.4Y-56.2
X77.4Y-71.5
X77.8Y-85.6
X78.0Y-65.4
X78.3Y-57.4
X79.2Y-37.5
X79.2Y-69.8
X79.2Y-70.8
X79.477Y-44.9
X79.65Y-49.45
X79.65Y-50.75
X80.2Y-82.9
X80.4Y-37.5
X80.95Y-49.45
X80.95Y-50.75
X81.2Y-44.9
X81.6Y-37.5
X82.3Y-48.0
X82.5Y-76.6
X83.0Y-48.3
X83.1Y-65.4
X83.484Y-48.987
X83.5Y-45.4
X83.5Y-46.5
X83.8Y-50.2
X83.9Y-48.3
X84.1Y-49.5
X84.1Y-59.7
X84.4Y-48.8
X84.6Y-50.2
X84.894Y-59.706
X84.9Y-49.5
X84.9Y-58.9
X85.8Y-38.4
X85.9Y-41.0
X88.0Y-41.5
X88.0Y-42.5
X88.0Y-43.5
X89.0Y-41.5
X89.0Y-42.5
X89.0Y-43.5
T2
X25.4Y-44.9
X37.6Y-54.71
X39.8Y-86.4
X40.3Y-74.4
X40.7Y-56.0
X40.7Y-60.3
X41.7Y-37.2
X44.4Y-89.0
X44.4Y-90.0
X44.4Y-91.0
X45.4Y-89.0
X45.4Y-90.0
X45.4Y-91.0
X46.4Y-89.0
X46.4Y-90.0
X46.4Y-91.0
X47.4Y-88.5
X47.5Y-66.5
X48.5Y-41.8
X49.6Y-86.5
X50.9Y-72.8
X52.0Y-86.5
X52.9Y-85.5
X53.5Y-55.9
X53.9Y-61.15
X54.3Y-95.1
X54.6Y-65.5
X56.2Y-64.544
X56.2Y-65.5
X56.2Y-66.5
X56.7Y-88.9
X57.7Y-56.9
X59.8Y-95.1
X60.0Y-56.5
X60.6Y-53.2
X60.8Y-86.3
X61.1Y-57.8
X61.5Y-87.4
X66.1Y-75.82
X68.1Y-27.9
X68.8Y-87.1
X69.9Y-74.42
X71.2Y-78.12
X71.8Y-88.3
X75.2Y-53.7
X76.1Y-52.9
X78.1Y-48.1
X80.3Y-55.7
X81.3Y-55.7
X82.3Y-55.7
T3
X21.5Y-50.0
X21.5Y-52.0
X21.5Y-54.0
X22.5Y-51.0
X22.5Y-53.0
X22.5Y-65.0
X23.5Y-50.0
X23.5Y-52.0
X23.5Y-54.0
X23.5Y-64.0
X24.5Y-51.0
X24.5Y-53.0
X24.5Y-65.0
X25.495Y-54.001
X25.5Y-50.0
X25.5Y-52.0
X25.5Y-66.0
X26.5Y-65.0
X27.5Y-66.0
X27.5Y-67.5
X27.5Y-69.0
X27.8Y-76.5
X30.0Y-48.0
X30.0Y-49.5
X31.5Y-35.0
X31.5Y-37.0
X32.0Y-48.0
X32.0Y-49.5
X32.5Y-36.0
X33.5Y-35.0
X33.5Y-37.0
X34.0Y-48.0
X34.0Y-49.5
X34.5Y-36.0
X34.7Y-77.1
X35.5Y-35.0
X35.5Y-37.0
X36.0Y-48.0
X36.0Y-49.5
X37.9Y-74.7
X39.0Y-50.5
X39.0Y-52.5
X40.0Y-51.5
X41.0Y-50.5
X43.0Y-50.5
X44.0Y-31.0
X44.0Y-33.0
X44.0Y-36.5
X44.0Y-38.5
X44.5Y-97.6
X45.0Y-30.0
X45.0Y-32.0
X45.0Y-37.5
X45.0Y-50.5
X46.0Y-31.0
X46.0Y-33.0
X46.0Y-36.5
X46.0Y-38.5
X46.5Y-76.5
X46.5Y-78.5
X46.5Y-80.5
X46.5Y-82.5
X47.0Y-30.0
X47.0Y-32.0
X47.0Y-37.5
X47.0Y-50.5
X47.0Y-53.5
X47.0Y-55.5
X47.3Y-84.1
X47.5Y-77.5
X47.5Y-79.5
X47.5Y-81.5
X48.0Y-36.0
X48.0Y-38.5
X48.0Y-52.5
X48.0Y-54.5
X49.0Y-36.0
X49.0Y-53.5
X49.0Y-55.5
X49.014Y-31.986
X49.9Y-78.0
X49.9Y-80.0
X49.9Y-82.0
X50.0Y-31.0
X50.15Y-26.5
X50.15Y-28.5
X51.0Y-32.0
X51.15Y-25.5
X51.15Y-27.5
X51.9Y-78.0
X51.9Y-80.0
X51.9Y-82.0
X52.0Y-31.0
X53.0Y-32.0
X53.9Y-78.0
X53.9Y-80.0
X53.9Y-82.0
X55.9Y-78.0
X55.9Y-80.0
X55.9Y-82.0
X57.7Y-33.3
X58.7Y-33.3
X62.25Y-33.3
X62.25Y-34.3
X62.25Y-35.3
X62.25Y-36.3
X62.25Y-37.3
X62.25Y-38.3
X65.2Y-26.9
X66.6Y-34.1
X68.2Y-34.8
X68.2Y-36.8
X68.2Y-38.8
X69.2Y-33.8
X69.2Y-35.8
X69.2Y-37.8
X70.2Y-34.8
X70.2Y-36.8
X70.2Y-38.8
T6
X58.8Y-79.4
X58.8Y-80.65
T7
X75.26Y-35.7
X76.53Y-33.16
X77.8Y-35.7
X79.07Y-33.16
X80.34Y-35.7
X81.6Y-33.16
X82.88Y-35.7
X84.14Y-33.16
T8
X76.2Y-90.3
X76.2Y-95.3
T9
X22.305Y-39.175
X22.305Y-41.715
X41.535Y-81.1
X42.66Y-46.05
X44.075Y-81.1
X45.2Y-46.05
X50.26Y-48.9
X51.68Y-23.0
X52.8Y-48.9
X54.22Y-23.0
X55.34Y-48.9
X56.76Y-23.0
X57.88Y-48.9
X59.3Y-23.0
X60.42Y-48.9
X86.65Y-77.92
X86.65Y-80.46
X86.65Y-83.0
X86.65Y-85.54
T10
X73.38Y-22.7
X75.92Y-22.7
X83.49Y-22.7
X86.03Y-22.7
T11
X26.777Y-86.0
X26.777Y-91.0
X26.777Y-96.0
T12
X71.75Y-30.71
X87.65Y-30.71
T13
X73.99Y-26.81
X85.42Y-26.81
T4
X62.537Y-23.075G85X62.537Y-22.425
G05
X69.537Y-23.075G85X69.537Y-22.425
G05
T5
X63.687Y-25.45G85X63.388Y-25.45
G05
X68.687Y-25.45G85X68.388Y-25.45
G05
T9
X27.9Y-23.8G85X27.9Y-25.8
G05
X29.9Y-29.5G85X31.9Y-29.5
G05
X33.9Y-23.8G85X33.9Y-25.8
G05
T0
M30
